<?xml version="1.0" encoding="UTF-8" standalone="no"?>
<svg
   xmlns:dc="http://purl.org/dc/elements/1.1/"
   xmlns:cc="http://creativecommons.org/ns#"
   xmlns:rdf="http://www.w3.org/1999/02/22-rdf-syntax-ns#"
   xmlns:svg="http://www.w3.org/2000/svg"
   xmlns="http://www.w3.org/2000/svg"
   xmlns:sodipodi="http://sodipodi.sourceforge.net/DTD/sodipodi-0.dtd"
   xmlns:inkscape="http://www.inkscape.org/namespaces/inkscape"
   height="24px"
   width="24px"
   viewBox="0 0 100 100"
   enable-background="new 0 0 100 100"
   version="1.1"
   id="svg32"
   sodipodi:docname="icon.svg"
   inkscape:version="0.92.2 5c3e80d, 2017-08-06">
  <metadata
     id="metadata38">
    <rdf:RDF>
      <cc:Work
         rdf:about="">
        <dc:format>image/svg+xml</dc:format>
        <dc:type
           rdf:resource="http://purl.org/dc/dcmitype/StillImage" />
      </cc:Work>
    </rdf:RDF>
  </metadata>
  <defs
     id="defs36" />
  <sodipodi:namedview
     pagecolor="#ffffff"
     bordercolor="#666666"
     borderopacity="1"
     objecttolerance="10"
     gridtolerance="10"
     guidetolerance="10"
     inkscape:pageopacity="0"
     inkscape:pageshadow="2"
     inkscape:window-width="640"
     inkscape:window-height="480"
     id="namedview34"
     showgrid="false"
     inkscape:zoom="9.8333333"
     inkscape:cx="12"
     inkscape:cy="11.84843"
     inkscape:window-x="0"
     inkscape:window-y="0"
     inkscape:window-maximized="0"
     inkscape:current-layer="g14" />
  <g
     stroke-miterlimit="10"
     id="g22">
    <g
       stroke-linejoin="round"
       stroke-linecap="round"
       stroke-width="3"
       id="g14">
      <g
         id="g10"
         style="stroke:#999999"
         transform="translate(29.166667)">
        <g
           id="g6"
           style="fill:#ffffff">
          <path
             d="M 49.9,28.1 H 68.3 L 45,4 v 18.9 c 0,2.8 2.2,5.2 4.9,5.2 z"
             id="path2"
             inkscape:connector-curvature="0" />
          <path
             d="m 49.9,28.1 c -2.7,0 -4.8,-2.3 -4.8,-5.2 V 4 H 8.1 C 5.4,4 3.3,6.3 3.3,9.2 v 83.2 c 0,2.9 2.1,5.2 4.8,5.2 h 55.3 c 2.7,0 4.8,-2.3 4.8,-5.2 V 28.1 c 0,0 -18.3,0 -18.3,0 z"
             id="path4"
             inkscape:connector-curvature="0" />
        </g>
        <path
           d="M 17.7,68.4 H 52.8 M 17.7,83 h 35.1"
           id="path8"
           inkscape:connector-curvature="0"
           style="fill:none" />
      </g>
    </g>
  </g>
  <g
     id="g30"
     style="fill:#999999"
     transform="translate(29.166667)">
    <path
       d="m 43.6,40.7 5.3,9.1 5.2,9.2 h -21 l 5.2,-9.2 5.3,-9.1"
       id="path24"
       inkscape:connector-curvature="0" />
    <path
       d="m 26.6,45.5 3.9,6.7 3.9,6.8 H 18.9 l 3.8,-6.8 3.9,-6.7"
       id="path26"
       inkscape:connector-curvature="0" />
    <circle
       cx="19.6"
       cy="40.200001"
       r="3.8"
       id="circle28" />
  </g>
</svg>
