<?xml version="1.0" encoding="UTF-8" standalone="no"?>
<svg
   xmlns:dc="http://purl.org/dc/elements/1.1/"
   xmlns:cc="http://creativecommons.org/ns#"
   xmlns:rdf="http://www.w3.org/1999/02/22-rdf-syntax-ns#"
   xmlns:svg="http://www.w3.org/2000/svg"
   xmlns="http://www.w3.org/2000/svg"
   xmlns:sodipodi="http://sodipodi.sourceforge.net/DTD/sodipodi-0.dtd"
   xmlns:inkscape="http://www.inkscape.org/namespaces/inkscape"
   height="24px"
   width="24px"
   viewBox="0 0 100 100"
   enable-background="new 0 0 100 100"
   version="1.1"
   id="svg32"
   sodipodi:docname="icon.svg"
   inkscape:version="0.92.2 5c3e80d, 2017-08-06">
  <metadata
     id="metadata38">
    <rdf:RDF>
      <cc:Work
         rdf:about="">
        <dc:format>image/svg+xml</dc:format>
        <dc:type
           rdf:resource="http://purl.org/dc/dcmitype/StillImage" />
        <dc:title></dc:title>
      </cc:Work>
    </rdf:RDF>
  </metadata>
  <defs
     id="defs36">
    <style
       id="style1183">
      .cls-1 {
        isolation: isolate;
      }

      .cls-2 {
        fill: none;
      }

      .cls-3 {
        fill: #6bc9a7;
      }

      .cls-4 {
        opacity: 0.15;
        mix-blend-mode: multiply;
      }

      .cls-5 {
        fill: #fff;
      }

      .cls-6 {
        fill: #cde6fc;
      }

      .cls-7 {
        fill: #8db7e2;
      }

      .cls-8 {
        opacity: 0.2;
      }

      .cls-9 {
        fill: #231f20;
      }

      .cls-10 {
        fill: #ddd;
      }

      .cls-11 {
        fill: #239630;
      }
    </style>
    <style
       id="style244">
      .cls-1 {
        isolation: isolate;
      }

      .cls-2 {
        fill: #56b5ef;
      }

      .cls-3 {
        opacity: 0.15;
        mix-blend-mode: multiply;
      }

      .cls-4 {
        fill: #fff;
      }

      .cls-5 {
        opacity: 0.2;
      }

      .cls-6 {
        fill: #231f20;
      }

      .cls-7 {
        fill: #ddd;
      }

      .cls-8 {
        fill: #8db7e2;
      }

      .cls-9 {
        fill: none;
      }
    </style>
  </defs>
  <sodipodi:namedview
     pagecolor="#ffffff"
     bordercolor="#666666"
     borderopacity="1"
     objecttolerance="10"
     gridtolerance="10"
     guidetolerance="10"
     inkscape:pageopacity="0"
     inkscape:pageshadow="2"
     inkscape:window-width="1440"
     inkscape:window-height="856"
     id="namedview34"
     showgrid="false"
     inkscape:zoom="20.977314"
     inkscape:cx="9.5868325"
     inkscape:cy="10.267003"
     inkscape:window-x="75"
     inkscape:window-y="47"
     inkscape:window-maximized="0"
     inkscape:current-layer="svg32" />
  <g
     stroke-miterlimit="10"
     id="g22"
     style="display:none;stroke-miterlimit:10">
    <g
       id="g14"
       style="stroke-width:3;stroke-linecap:round;stroke-linejoin:round">
      <g
         id="g10"
         style="stroke:#999999"
         transform="translate(29.166667)">
        <g
           id="g6"
           style="fill:#ffffff">
          <path
             d="m 41.566667,28.1 h 18.4 l -23.3,-24.1 v 18.9 c 0,2.8 2.2,5.2 4.9,5.2 z"
             id="path2"
             inkscape:connector-curvature="0" />
          <path
             d="m 41.566667,28.1 c -2.7,0 -4.8,-2.3 -4.8,-5.2 V 4 H -8.5666667 c -2.7000003,0 -4.8000003,2.3 -4.8000003,5.2 v 83.2 c 0,2.9 2.1,5.2 4.8000003,5.2 H 55.066667 c 2.7,0 4.8,-2.3 4.8,-5.2 V 28.1 Z"
             id="path4"
             inkscape:connector-curvature="0"
             sodipodi:nodetypes="sscsssssscs" />
        </g>
      </g>
    </g>
  </g>
  <style
     id="style131"
     type="text/css">
	.st0{fill:#1D1D1D;}
	.st1{fill:#FFFFFF;}
</style>
  <style
     id="style900"
     type="text/css">
	.st0{fill:none;}
	.st1{fill:#88C87A;}
	.st2{opacity:0.15;}
	.st3{fill:#231F20;}
	.st4{fill:#FFFFFF;}
	.st5{fill:#F05F5F;}
</style>
  <g
     id="g330"
     class="cls-1"
     style="display:inline;isolation:isolate"
     transform="matrix(0.45287965,0,0,0.45287965,-40.087549,-2.1181437)">
    <g
       data-name="Layer 2"
       id="Layer_2">
      <g
         data-name="question set copy"
         id="question_set_copy">
        <g
           id="g324">
          <circle
             id="circle250"
             r="85"
             cy="113.5"
             cx="204"
             class="cls-2"
             style="fill:#56b5ef" />
          <g
             id="g322">
            <g
               id="g258">
              <g
                 id="g254"
                 class="cls-3"
                 style="opacity:0.15;mix-blend-mode:multiply">
                <rect
                   id="rect252"
                   height="85"
                   width="93"
                   y="82.5"
                   x="168" />
              </g>
              <rect
                 id="rect256"
                 height="86"
                 width="92"
                 y="78.5"
                 x="165"
                 class="cls-4"
                 style="fill:#ffffff" />
            </g>
            <g
               id="g266">
              <g
                 id="g262"
                 class="cls-3"
                 style="opacity:0.15;mix-blend-mode:multiply">
                <rect
                   id="rect260"
                   height="85"
                   width="92"
                   y="75.5"
                   x="162" />
              </g>
              <rect
                 id="rect264"
                 height="87"
                 width="93"
                 y="70.5"
                 x="157"
                 class="cls-4"
                 style="fill:#ffffff" />
            </g>
            <g
               id="g274">
              <g
                 id="g270"
                 class="cls-3"
                 style="opacity:0.15;mix-blend-mode:multiply">
                <rect
                   id="rect268"
                   height="85"
                   width="92"
                   y="67.5"
                   x="153" />
              </g>
              <rect
                 id="rect272"
                 height="86"
                 width="91"
                 y="63.5"
                 x="151"
                 class="cls-4"
                 style="fill:#ffffff" />
            </g>
            <g
               id="g288">
              <g
                 id="g280"
                 class="cls-5"
                 style="opacity:0.2">
                <rect
                   id="rect276"
                   ry="5.4400001"
                   rx="5.4400001"
                   height="12.27"
                   width="82.239998"
                   y="95.879997"
                   x="157"
                   class="cls-6"
                   style="fill:#231f20" />
                <rect
                   id="rect278"
                   height="4.8400002"
                   width="69.110001"
                   y="99.510002"
                   x="161.84"
                   class="cls-6"
                   style="fill:#231f20" />
              </g>
              <g
                 id="g286">
                <rect
                   id="rect282"
                   ry="5.4400001"
                   rx="5.4400001"
                   height="12.27"
                   width="82.239998"
                   y="94.150002"
                   x="157"
                   class="cls-7"
                   style="fill:#dddddd" />
                <rect
                   id="rect284"
                   height="4.8400002"
                   width="69.110001"
                   y="97.779999"
                   x="161.84"
                   class="cls-8"
                   style="fill:#8db7e2" />
              </g>
            </g>
            <g
               id="g302">
              <g
                 id="g294"
                 class="cls-5"
                 style="opacity:0.2">
                <rect
                   id="rect290"
                   ry="5.4400001"
                   rx="5.4400001"
                   height="12.27"
                   width="82.239998"
                   y="113.85"
                   x="157"
                   class="cls-6"
                   style="fill:#231f20" />
                <rect
                   id="rect292"
                   height="4.8400002"
                   width="57.02"
                   y="117.65"
                   x="161.84"
                   class="cls-6"
                   style="fill:#231f20" />
              </g>
              <g
                 id="g300">
                <rect
                   id="rect296"
                   ry="5.4400001"
                   rx="5.4400001"
                   height="12.27"
                   width="82.239998"
                   y="112.12"
                   x="157"
                   class="cls-7"
                   style="fill:#dddddd" />
                <rect
                   id="rect298"
                   height="4.8400002"
                   width="57.02"
                   y="115.92"
                   x="161.84"
                   class="cls-8"
                   style="fill:#8db7e2" />
              </g>
            </g>
            <g
               id="g316">
              <g
                 id="g308"
                 class="cls-5"
                 style="opacity:0.2">
                <rect
                   id="rect304"
                   ry="5.4400001"
                   rx="5.4400001"
                   height="12.27"
                   width="82.239998"
                   y="131.99001"
                   x="157"
                   class="cls-6"
                   style="fill:#231f20" />
                <rect
                   id="rect306"
                   height="4.8400002"
                   width="64.269997"
                   y="135.78999"
                   x="161.84"
                   class="cls-6"
                   style="fill:#231f20" />
              </g>
              <g
                 id="g314">
                <rect
                   id="rect310"
                   ry="5.4400001"
                   rx="5.4400001"
                   height="12.27"
                   width="82.239998"
                   y="130.25999"
                   x="157"
                   class="cls-7"
                   style="fill:#dddddd" />
                <rect
                   id="rect312"
                   height="4.8400002"
                   width="64.269997"
                   y="134.06"
                   x="161.84"
                   class="cls-8"
                   style="fill:#8db7e2" />
              </g>
            </g>
            <circle
               id="circle318"
               r="10.98"
               cy="79.040001"
               cx="197.91"
               class="cls-8"
               style="fill:#8db7e2" />
            <path
               id="path320"
               d="m 196,82.5 v -1.43 a 2.91,2.91 0 0 1 0.61,-1.36 5.25,5.25 0 0 1 1.39,-1.22 6,6 0 0 0 1.2,-1 1.47,1.47 0 0 0 0.31,-0.85 0.91,0.91 0 0 0 -0.37,-0.8 1.83,1.83 0 0 0 -1.08,-0.28 6.24,6.24 0 0 0 -2.78,0.8 l -0.88,-1.78 a 7.75,7.75 0 0 1 3.85,-1 4.09,4.09 0 0 1 2.66,0.8 2.63,2.63 0 0 1 1,2.15 2.85,2.85 0 0 1 -0.41,1.54 5.79,5.79 0 0 1 -1.54,1.46 15,15 0 0 0 -1.34,0.88 c -0.14,0.2 -0.56,0.46 -0.56,0.79 v 1.3 z m 0.3,2 a 1.36,1.36 0 0 1 0.37,-1 1.48,1.48 0 0 1 1.06,-0.35 1.44,1.44 0 0 1 1,0.36 1.58,1.58 0 0 1 0,2 1.42,1.42 0 0 1 -1,0.37 1.46,1.46 0 0 1 -1.06,-0.36 1.35,1.35 0 0 1 -0.37,-1.07 z"
               class="cls-4"
               inkscape:connector-curvature="0"
               style="fill:#ffffff" />
          </g>
        </g>
        <rect
           id="rect326"
           height="225"
           width="400"
           class="cls-9"
           x="0"
           y="0"
           style="fill:none" />
      </g>
    </g>
  </g>
</svg>
