<?xml version="1.0" encoding="UTF-8" standalone="no"?>
<svg
   xmlns:dc="http://purl.org/dc/elements/1.1/"
   xmlns:cc="http://creativecommons.org/ns#"
   xmlns:rdf="http://www.w3.org/1999/02/22-rdf-syntax-ns#"
   xmlns:svg="http://www.w3.org/2000/svg"
   xmlns="http://www.w3.org/2000/svg"
   xmlns:sodipodi="http://sodipodi.sourceforge.net/DTD/sodipodi-0.dtd"
   xmlns:inkscape="http://www.inkscape.org/namespaces/inkscape"
   height="24px"
   width="24px"
   viewBox="0 0 100 100"
   enable-background="new 0 0 100 100"
   version="1.1"
   id="svg32"
   sodipodi:docname="icon.svg"
   inkscape:version="0.92.2 5c3e80d, 2017-08-06">
  <metadata
     id="metadata38">
    <rdf:RDF>
      <cc:Work
         rdf:about="">
        <dc:format>image/svg+xml</dc:format>
        <dc:type
           rdf:resource="http://purl.org/dc/dcmitype/StillImage" />
        <dc:title></dc:title>
      </cc:Work>
    </rdf:RDF>
  </metadata>
  <defs
     id="defs36">
    <style
       id="style1183">
      .cls-1 {
        isolation: isolate;
      }

      .cls-2 {
        fill: none;
      }

      .cls-3 {
        fill: #6bc9a7;
      }

      .cls-4 {
        opacity: 0.15;
        mix-blend-mode: multiply;
      }

      .cls-5 {
        fill: #fff;
      }

      .cls-6 {
        fill: #cde6fc;
      }

      .cls-7 {
        fill: #8db7e2;
      }

      .cls-8 {
        opacity: 0.2;
      }

      .cls-9 {
        fill: #231f20;
      }

      .cls-10 {
        fill: #ddd;
      }

      .cls-11 {
        fill: #239630;
      }
    </style>
    <style
       id="style1586">
      .cls-1 {
        fill: #ea964d;
      }

      .cls-2 {
        fill: #f0f1f5;
      }

      .cls-3 {
        fill: #b8b8bf;
      }

      .cls-4 {
        fill: #34495e;
      }

      .cls-5 {
        fill: #e94c3d;
      }

      .cls-6 {
        fill: #c1392b;
      }

      .cls-7 {
        fill: #3497da;
      }

      .cls-8 {
        fill: #2a80bb;
      }

      .cls-9 {
        fill: #2c3e50;
        opacity: 0.1;
      }

      .cls-10 {
        fill: #8e44ad;
      }

      .cls-11 {
        fill: none;
      }
    </style>
  </defs>
  <sodipodi:namedview
     pagecolor="#ffffff"
     bordercolor="#666666"
     borderopacity="1"
     objecttolerance="10"
     gridtolerance="10"
     guidetolerance="10"
     inkscape:pageopacity="0"
     inkscape:pageshadow="2"
     inkscape:window-width="1440"
     inkscape:window-height="856"
     id="namedview34"
     showgrid="false"
     inkscape:zoom="22.937384"
     inkscape:cx="11.292203"
     inkscape:cy="11.743608"
     inkscape:window-x="5"
     inkscape:window-y="0"
     inkscape:window-maximized="0"
     inkscape:current-layer="svg32" />
  <g
     stroke-miterlimit="10"
     id="g22"
     style="display:none;stroke-miterlimit:10">
    <g
       id="g14"
       style="stroke-width:3;stroke-linecap:round;stroke-linejoin:round">
      <g
         id="g10"
         style="stroke:#999999"
         transform="translate(29.166667)">
        <g
           id="g6"
           style="fill:#ffffff">
          <path
             d="m 41.566667,28.1 h 18.4 l -23.3,-24.1 v 18.9 c 0,2.8 2.2,5.2 4.9,5.2 z"
             id="path2"
             inkscape:connector-curvature="0" />
          <path
             d="m 41.566667,28.1 c -2.7,0 -4.8,-2.3 -4.8,-5.2 V 4 H -8.5666667 c -2.7000003,0 -4.8000003,2.3 -4.8000003,5.2 v 83.2 c 0,2.9 2.1,5.2 4.8000003,5.2 H 55.066667 c 2.7,0 4.8,-2.3 4.8,-5.2 V 28.1 Z"
             id="path4"
             inkscape:connector-curvature="0"
             sodipodi:nodetypes="sscsssssscs" />
        </g>
      </g>
    </g>
  </g>
  <style
     id="style131"
     type="text/css">
	.st0{fill:#1D1D1D;}
	.st1{fill:#FFFFFF;}
</style>
  <style
     id="style900"
     type="text/css">
	.st0{fill:none;}
	.st1{fill:#88C87A;}
	.st2{opacity:0.15;}
	.st3{fill:#231F20;}
	.st4{fill:#FFFFFF;}
	.st5{fill:#F05F5F;}
</style>
  <style
     id="style248"
     type="text/css">
	.st0{opacity:0.15;}
	.st1{fill:#D94D6A;}
	.st2{fill:#92CAB1;}
	.st3{fill:#F6C358;}
	.st4{fill:#ED7864;}
	.st5{fill:#50B5D8;}
	.st6{fill:none;}
</style>
  <g
     id="g648"
     transform="matrix(0.6510068,0,0,0.6510068,-45.229368,-155.36595)">
    <path
       id="path552"
       d="m 193.1,379.5 h -13.9 c -3.8,0 -6.8,-3.1 -6.8,-6.8 v 0 c 0,-3.8 3.1,-6.8 6.8,-6.8 h 13.9 c 3.8,0 6.8,3.1 6.8,6.8 v 0 c 0,3.8 -3,6.8 -6.8,6.8 z"
       inkscape:connector-curvature="0"
       style="fill:#f37d4f" />
    <g
       id="g558">
      <g
         id="g556">
        <circle
           id="circle554"
           r="20.799999"
           cy="363"
           cx="114.2"
           style="fill:#3396da" />
      </g>
    </g>
    <g
       id="g564"
       style="opacity:0.1">
      <g
         id="g562">
        <path
           id="path560"
           d="m 122.7,375.6 c 0,0.7 -0.6,1.2 -1.2,1.2 -0.3,0 -0.6,-0.1 -0.9,-0.4 l -6.3,-6.3 h -5 c -0.7,0 -1.2,-0.6 -1.2,-1.2 v -7.4 c 0,-0.7 0.6,-1.2 1.2,-1.2 h 5 l 6.3,-6.3 c 0.3,-0.3 0.6,-0.4 0.9,-0.4 0.7,0 1.2,0.6 1.2,1.2 z"
           inkscape:connector-curvature="0"
           style="fill:#050505" />
      </g>
    </g>
    <g
       id="g570">
      <g
         id="g568">
        <path
           id="path566"
           d="m 120.1,373.8 c 0,0.7 -0.6,1.2 -1.2,1.2 -0.3,0 -0.6,-0.1 -0.9,-0.4 l -6.3,-6.2 h -5 c -0.7,0 -1.2,-0.6 -1.2,-1.2 v -7.4 c 0,-0.7 0.6,-1.2 1.2,-1.2 h 5 l 6.3,-6.3 c 0.3,-0.3 0.6,-0.4 0.9,-0.4 0.7,0 1.2,0.6 1.2,1.2 z"
           inkscape:connector-curvature="0"
           style="fill:#ffffff" />
      </g>
    </g>
    <path
       id="path574"
       d="m 198.4,306 -1.1,-43.1 c -0.3,-8.6 -7.6,-15.2 -16,-14.9 l -40.4,2.4 -34.8,2 c -8.6,0.3 -15.2,7.6 -14.9,16 l 1.1,43.1 c 0.3,8.6 7.6,15.2 16,14.9 l 1.3,-0.1 4.3,9.6 c 0.5,0.6 1.2,0.8 1.8,1 0.9,0.1 1.9,-0.1 2.6,-0.8 l 11.8,-10.6 29.2,-2 c -0.7,-2.4 -1.5,-6.4 -2.2,-9.1 -0.4,-1.4 -0.7,-2.4 -0.9,-2.7 -1.4,-1.5 -8,0.6 -10.1,0.6 -0.7,0 -1.4,-0.1 -2.2,-0.2 -1.7,-0.3 -3.5,-0.8 -4.4,-2.5 -1.2,-2.1 0.4,-4.5 -0.4,-6.7 -0.9,-2.4 -2.8,-2.3 0.6,-4.4 -2,-1.7 -2.1,-1.7 -1.9,-3.9 0.2,-1.9 0.8,-1.3 0,-2.9 -0.4,-0.9 -1.7,-1.2 -1.9,-2.2 -1,-4.2 5.7,-6.7 5.9,-10.7 0.1,-2 0.8,-11.5 4.8,-15.3 4,-3.8 6.9,-5.1 12.4,-5.4 5.1,-0.3 11.1,0.4 16.3,2.7 6.8,2.9 12.3,8.4 12.3,17.3 0,4.1 -0.7,8.1 -2.1,11.6 -0.1,0.5 -0.3,1 -0.4,1.3 -1.4,3.7 -3.5,7.6 -5.1,11.2 -2.5,5.6 2,13.2 5.1,19.5 0.4,-0.1 0.8,-0.2 1.2,-0.3 7.2,-1.4 12.4,-7.9 12.1,-15.4 z"
       inkscape:connector-curvature="0"
       style="fill:#3396da" />
    <path
       id="path576"
       d="m 185.7,305.1 c 1.6,-3.7 3.7,-7.6 5.2,-11.4 0.1,-0.3 0.3,-0.8 0.4,-1.3 1.5,-3.6 2.3,-7.7 2.3,-11.9 -0.2,-11.3 -8.8,-17.3 -18,-19.5 6.8,2.9 12.3,8.4 12.3,17.3 0,4.1 -0.7,8.1 -2.1,11.6 -0.1,0.5 -0.3,1 -0.4,1.3 -1.4,3.7 -3.5,7.6 -5.1,11.2 -2.5,5.6 2,13.2 5.1,19.5 0.4,-0.1 0.8,-0.2 1.2,-0.3 1.4,-0.5 2.3,-0.9 2.3,-0.9 -3.4,-6.5 -5.9,-9.6 -3.2,-15.6 z"
       enable-background="new    "
       inkscape:connector-curvature="0"
       style="opacity:0.1;fill:#050505" />
    <g
       id="g580">
      <path
         id="path578"
         d="m 193.4,373.9 h -0.3 c -0.8,0 -1.2,-0.6 -1.2,-1.2 v -3.2 c 0,-0.8 0.6,-1.2 1.2,-1.2 h 0.3 c 0.8,0 1.2,0.6 1.2,1.2 v 3.2 c 0.1,0.6 -0.4,1.2 -1.2,1.2 z"
         inkscape:connector-curvature="0"
         style="fill:#ffffff" />
    </g>
    <g
       id="g584">
      <path
         id="path582"
         d="m 194,376.9 h -1.5 c -0.3,0 -0.6,-0.4 -0.6,-0.9 v -0.4 c 0,-0.4 0.3,-0.9 0.6,-0.9 h 1.5 c 0.3,0 0.6,0.4 0.6,0.9 v 0.4 c 0.1,0.4 -0.3,0.9 -0.6,0.9 z"
         inkscape:connector-curvature="0"
         style="fill:#ffffff" />
    </g>
    <g
       id="g588"
       style="opacity:0.1">
      <path
         id="path586"
         d="m 117.6,312 c 0,0.4 -2.6,2.8 -3.1,2.8 -0.1,0 -0.3,-0.1 -0.4,-0.2 -4.2,-4.6 -6.4,-11.1 -6.2,-17.3 0.3,-6.2 2.9,-12.5 7.5,-16.8 0.1,-0.1 0.2,-0.2 0.4,-0.2 0.4,0 2.8,2.6 2.8,3.1 0,0.1 -0.1,0.3 -0.1,0.4 -3.7,3.9 -5.8,8.2 -6.1,13.7 -0.2,5.5 1.6,9.9 5,14.1 0.1,0.1 0.2,0.3 0.2,0.4 z m 6.9,-4.4 c 0,0.4 -2.6,2.8 -3.1,2.8 -0.1,0 -0.3,-0.1 -0.4,-0.2 -3,-3.3 -4.6,-8.1 -4.4,-12.5 0.2,-4.4 2.1,-9 5.3,-12.1 0.1,-0.1 0.2,-0.2 0.4,-0.2 0.4,0 2.8,2.6 2.8,3.1 0,0.2 -3.9,4.1 -4.1,9.4 -0.2,3.8 1.1,6.3 3.2,9.2 0.2,0.1 0.3,0.2 0.3,0.5 z m 6.4,-4.6 c 0,0.4 -2.6,2.8 -3.1,2.8 -0.1,0 -0.3,-0.1 -0.4,-0.2 -1.8,-1.9 -2.6,-5 -2.6,-7.7 0,-2.6 1.2,-5.6 3.2,-7.4 0.1,-0.1 0.2,-0.2 0.4,-0.2 0.4,0 2.8,2.6 2.8,3.1 0,0.2 -1.8,2.1 -1.9,4.6 0,2.8 1.6,4.8 1.6,5 z"
         inkscape:connector-curvature="0"
         style="fill:#050505" />
    </g>
    <g
       id="g592">
      <path
         id="path590"
         d="m 114,309.2 c 0,0.4 -2.6,2.8 -3.1,2.8 -0.1,0 -0.3,-0.1 -0.4,-0.2 -4.2,-4.6 -6.4,-11.1 -6.2,-17.3 0.3,-6.1 2.9,-12.5 7.5,-16.8 0.1,-0.1 0.2,-0.2 0.4,-0.2 0.4,0 2.8,2.6 2.8,3.1 0,0.1 -0.1,0.3 -0.1,0.4 -3.7,3.9 -5.8,8.2 -6.1,13.7 -0.2,5.5 1.6,9.9 5,14.1 0.1,0.2 0.2,0.3 0.2,0.4 z m 6.9,-4.4 c 0,0.4 -2.6,2.8 -3.1,2.8 -0.1,0 -0.3,-0.1 -0.4,-0.2 -3,-3.3 -4.6,-8.1 -4.4,-12.5 0.2,-4.4 2.1,-9 5.3,-12.1 0.1,-0.1 0.2,-0.2 0.4,-0.2 0.4,0 2.8,2.6 2.8,3.1 0,0.2 -3.9,4.1 -4.1,9.4 -0.2,3.8 1.1,6.3 3.2,9.2 0.2,0.2 0.3,0.3 0.3,0.5 z m 6.4,-4.6 c 0,0.4 -2.6,2.8 -3.1,2.8 -0.1,0 -0.3,-0.1 -0.4,-0.2 -1.8,-1.9 -2.6,-5 -2.6,-7.7 0.1,-2.6 1.2,-5.6 3.2,-7.4 0.1,-0.1 0.2,-0.2 0.4,-0.2 0.4,0 2.8,2.6 2.8,3.1 0,0.2 -1.8,2.1 -1.9,4.6 0,2.8 1.6,4.8 1.6,5 z"
         inkscape:connector-curvature="0"
         style="fill:#ffffff" />
    </g>
    <rect
       id="rect594"
       height="159.39999"
       width="283.5"
       y="237.39999"
       x="0"
       style="fill:none" />
    <path
       id="path596"
       d="m 193.1,360.7 h -43.3 c -3.8,0 -6.8,-3.1 -6.8,-6.8 v 0 c 0,-3.8 3.1,-6.8 6.8,-6.8 h 43.3 c 3.8,0 6.8,3.1 6.8,6.8 v 0 c 0,3.7 -3,6.8 -6.8,6.8 z"
       inkscape:connector-curvature="0"
       style="fill:#3db991" />
    <path
       id="path598"
       d="m 163.7,379.5 h -13.9 c -3.8,0 -6.8,-3.1 -6.8,-6.8 v 0 c 0,-3.8 3.1,-6.8 6.8,-6.8 h 13.9 c 3.8,0 6.8,3.1 6.8,6.8 v 0 c 0.1,3.8 -3,6.8 -6.8,6.8 z"
       inkscape:connector-curvature="0"
       style="fill:#da4d6b" />
    <path
       id="path600"
       d="m 183.1,355.8 h -33 c -1,0 -1.8,-0.8 -1.8,-1.8 v 0 c 0,-1 0.8,-1.8 1.8,-1.8 h 33 c 1,0 1.8,0.8 1.8,1.8 v 0.1 c 0,0.9 -0.8,1.7 -1.8,1.7 z"
       inkscape:connector-curvature="0"
       style="fill:#295748" />
    <path
       id="path602"
       d="m 157,374.6 h -6.8 c -1,0 -1.8,-0.8 -1.8,-1.8 v 0 c 0,-1 0.8,-1.8 1.8,-1.8 h 6.8 c 1,0 1.8,0.8 1.8,1.8 v 0 c 0,1 -0.8,1.8 -1.8,1.8 z"
       inkscape:connector-curvature="0"
       style="fill:#812e42" />
    <path
       id="path604"
       d="m 187,374.6 h -8.1 c -1,0 -1.8,-0.8 -1.8,-1.8 v 0 c 0,-1 0.8,-1.8 1.8,-1.8 h 8.1 c 1,0 1.8,0.8 1.8,1.8 v 0 c 0,1 -0.8,1.8 -1.8,1.8 z"
       inkscape:connector-curvature="0"
       style="fill:#9b462b" />
    <g
       id="g608">
      <path
         id="path606"
         d="m 190.2,357.3 -3.5,-3.4 c -0.3,-0.3 -0.3,-0.3 0,-0.7 0.3,-0.4 0.5,-0.5 0.8,-0.8 0.3,-0.3 0.8,-0.3 1.2,0 0.5,0.5 1,0.8 1.7,1.3 0.3,0.3 0.8,0.3 1.2,0 l 3.2,-3.2 c 0.3,-0.3 0.8,-0.3 1.2,0 0.4,0.3 0.5,0.3 0.7,0.7 0.3,0.3 0.5,0.5 0.2,0.8 l -5.4,5 c -0.5,0.4 -1,0.4 -1.3,0.3 z"
         inkscape:connector-curvature="0"
         style="fill:#ffffff" />
    </g>
    <path
       id="path610"
       d="m 165.4,372.6 1.7,-1.8 c 0.3,-0.3 0.2,-0.5 -0.2,-0.6 -0.2,-0.2 -0.3,-0.3 -0.6,-0.5 -0.3,-0.3 -0.6,-0.3 -0.9,0 l -1.5,1.5 -1.8,-1.7 c -0.3,-0.3 -0.5,-0.2 -0.6,0.2 -0.2,0.2 -0.3,0.3 -0.5,0.6 -0.3,0.3 -0.3,0.6 0,0.9 l 1.5,1.5 -1.7,1.8 c -0.3,0.3 -0.2,0.5 0.2,0.6 0.2,0.2 0.3,0.3 0.6,0.5 0.3,0.3 0.6,0.3 0.9,0 l 1.5,-1.5 1.8,1.7 c 0.3,0.3 0.5,0.2 0.6,-0.2 0.2,-0.2 0.3,-0.3 0.5,-0.6 0.3,-0.3 0.3,-0.6 0,-0.9 z"
       inkscape:connector-curvature="0"
       style="fill:#ffffff" />
  </g>
</svg>
