<?xml version="1.0" encoding="UTF-8" standalone="no"?>
<svg
   xmlns:dc="http://purl.org/dc/elements/1.1/"
   xmlns:cc="http://creativecommons.org/ns#"
   xmlns:rdf="http://www.w3.org/1999/02/22-rdf-syntax-ns#"
   xmlns:svg="http://www.w3.org/2000/svg"
   xmlns="http://www.w3.org/2000/svg"
   xmlns:sodipodi="http://sodipodi.sourceforge.net/DTD/sodipodi-0.dtd"
   xmlns:inkscape="http://www.inkscape.org/namespaces/inkscape"
   height="24px"
   width="24px"
   viewBox="0 0 100 100"
   enable-background="new 0 0 100 100"
   version="1.1"
   id="svg32"
   sodipodi:docname="icon.svg"
   inkscape:version="0.92.2 5c3e80d, 2017-08-06">
  <metadata
     id="metadata38">
    <rdf:RDF>
      <cc:Work
         rdf:about="">
        <dc:format>image/svg+xml</dc:format>
        <dc:type
           rdf:resource="http://purl.org/dc/dcmitype/StillImage" />
        <dc:title></dc:title>
      </cc:Work>
    </rdf:RDF>
  </metadata>
  <defs
     id="defs36">
    <style
       id="style1183">
      .cls-1 {
        isolation: isolate;
      }

      .cls-2 {
        fill: none;
      }

      .cls-3 {
        fill: #6bc9a7;
      }

      .cls-4 {
        opacity: 0.15;
        mix-blend-mode: multiply;
      }

      .cls-5 {
        fill: #fff;
      }

      .cls-6 {
        fill: #cde6fc;
      }

      .cls-7 {
        fill: #8db7e2;
      }

      .cls-8 {
        opacity: 0.2;
      }

      .cls-9 {
        fill: #231f20;
      }

      .cls-10 {
        fill: #ddd;
      }

      .cls-11 {
        fill: #239630;
      }
    </style>
    <style
       id="style239">
      .cls-1 {
        isolation: isolate;
      }

      .cls-2 {
        fill: #66b27f;
      }

      .cls-3, .cls-9 {
        opacity: 0.15;
      }

      .cls-4 {
        fill: #231f20;
      }

      .cls-5 {
        fill: #fff;
      }

      .cls-6 {
        opacity: 0.5;
      }

      .cls-7 {
        opacity: 0.2;
      }

      .cls-7, .cls-9 {
        mix-blend-mode: multiply;
      }

      .cls-8 {
        fill: #8db7e2;
      }

      .cls-10 {
        fill: #79aad3;
      }

      .cls-11 {
        fill: #b0afad;
      }

      .cls-12 {
        fill: none;
      }
    </style>
  </defs>
  <sodipodi:namedview
     pagecolor="#ffffff"
     bordercolor="#666666"
     borderopacity="1"
     objecttolerance="10"
     gridtolerance="10"
     guidetolerance="10"
     inkscape:pageopacity="0"
     inkscape:pageshadow="2"
     inkscape:window-width="1440"
     inkscape:window-height="856"
     id="namedview34"
     showgrid="false"
     inkscape:zoom="19.669501"
     inkscape:cx="8.657448"
     inkscape:cy="12.071285"
     inkscape:window-x="75"
     inkscape:window-y="47"
     inkscape:window-maximized="0"
     inkscape:current-layer="svg32" />
  <g
     stroke-miterlimit="10"
     id="g22"
     style="display:none;stroke-miterlimit:10">
    <g
       id="g14"
       style="stroke-width:3;stroke-linecap:round;stroke-linejoin:round">
      <g
         id="g10"
         style="stroke:#999999"
         transform="translate(29.166667)">
        <g
           id="g6"
           style="fill:#ffffff">
          <path
             d="m 41.566667,28.1 h 18.4 l -23.3,-24.1 v 18.9 c 0,2.8 2.2,5.2 4.9,5.2 z"
             id="path2"
             inkscape:connector-curvature="0" />
          <path
             d="m 41.566667,28.1 c -2.7,0 -4.8,-2.3 -4.8,-5.2 V 4 H -8.5666667 c -2.7000003,0 -4.8000003,2.3 -4.8000003,5.2 v 83.2 c 0,2.9 2.1,5.2 4.8000003,5.2 H 55.066667 c 2.7,0 4.8,-2.3 4.8,-5.2 V 28.1 Z"
             id="path4"
             inkscape:connector-curvature="0"
             sodipodi:nodetypes="sscsssssscs" />
        </g>
      </g>
    </g>
  </g>
  <style
     id="style131"
     type="text/css">
	.st0{fill:#1D1D1D;}
	.st1{fill:#FFFFFF;}
</style>
  <style
     id="style900"
     type="text/css">
	.st0{fill:none;}
	.st1{fill:#88C87A;}
	.st2{opacity:0.15;}
	.st3{fill:#231F20;}
	.st4{fill:#FFFFFF;}
	.st5{fill:#F05F5F;}
</style>
  <style
     id="style199"
     type="text/css">
	.st0{fill:none;}
	.st1{fill:#8DB7E2;}
	.st2{fill:#FFFFFF;}
	.st3{opacity:0.2;}
	.st4{fill:#2574A9;}
	.st5{fill:#2376C1;}
</style>
  <g
     id="Layer_2-7"
     transform="matrix(0.49188059,0,0,0.49188059,-49.933333,-7.2731328)">
    <g
       id="tweeter_feed">
      <rect
         id="rect203"
         height="225"
         width="400"
         class="st0"
         x="0"
         y="0"
         style="fill:none" />
      <g
         id="g225">
        <path
           id="path205"
           d="m 151.1,181.4 c 0,7.7 6.3,14 14,14 0,0 0,0 0.1,0 h 88 c 7.7,0 13.9,-6.2 13.9,-13.9 0,0 0,-0.1 0,-0.1 V 45.6 c 0.1,-7.7 -6,-14 -13.7,-14.1 -0.1,0 -0.1,0 -0.2,0 h -88 c -7.8,0 -14.1,6.3 -14.1,14 0,0 0,0 0,0"
           class="st1"
           inkscape:connector-curvature="0"
           style="fill:#8db7e2" />
        <g
           id="g217">
          <rect
             id="rect207"
             height="7"
             width="67"
             class="st2"
             y="64.5"
             x="175"
             style="fill:#ffffff" />
          <rect
             id="rect209"
             height="7"
             width="67"
             class="st2"
             y="88.5"
             x="175"
             style="fill:#ffffff" />
          <rect
             id="rect211"
             height="6"
             width="67"
             class="st2"
             y="111.5"
             x="175"
             style="fill:#ffffff" />
          <rect
             id="rect213"
             height="7"
             width="67"
             class="st2"
             y="133.5"
             x="175"
             style="fill:#ffffff" />
          <rect
             id="rect215"
             height="7"
             width="67"
             class="st2"
             y="156.5"
             x="175"
             style="fill:#ffffff" />
        </g>
        <g
           id="g221"
           class="st3"
           style="opacity:0.2">
          <path
             id="path219"
             d="m 267,182.7 v -12.5 l -47.3,-47.4 -53.6,68.9 c 2.4,2.5 5.7,3.9 9.2,3.9 h 79.4 c 6.9,-0.1 12.4,-5.7 12.3,-12.6 0,-0.2 0,-0.2 0,-0.3 z"
             class="st4"
             inkscape:connector-curvature="0"
             style="fill:#2574a9" />
        </g>
        <path
           id="path223"
           d="m 212.5,139.3 c 0.1,0.8 0.1,1.6 0.1,2.5 0,25.1 -19.1,54 -54,54 -10.3,0 -20.5,-2.9 -29.2,-8.5 1.5,0.2 3.1,0.2 4.6,0.2 8.5,0 16.9,-2.8 23.6,-8.1 -8.1,-0.1 -15.3,-5.4 -17.8,-13.2 1.2,0.2 2.4,0.3 3.6,0.3 1.7,0 3.3,-0.2 4.9,-0.6 -8.9,-1.7 -15.4,-9.5 -15.4,-18.6 V 147 c 2.7,1.5 5.6,2.3 8.6,2.4 -8.4,-5.6 -10.9,-16.7 -5.8,-25.4 9.7,11.9 23.9,19.1 39.2,19.9 -0.3,-1.4 -0.5,-2.9 -0.5,-4.4 0,-10.5 8.5,-19 19,-19 5.3,0 10.3,2.2 13.9,6 4.3,-0.8 8.3,-2.4 12.1,-4.6 -1.4,4.4 -4.4,8.1 -8.4,10.5 3.8,-0.4 7.4,-1.4 10.9,-2.9 -2.5,3.8 -5.7,7.1 -9.4,9.8 z"
           class="st5"
           inkscape:connector-curvature="0"
           style="fill:#2376c1" />
      </g>
    </g>
  </g>
</svg>
