<?xml version="1.0" encoding="utf-8"?>
<!-- Generator: Adobe Illustrator 15.0.0, SVG Export Plug-In . SVG Version: 6.00 Build 0)  -->
<!DOCTYPE svg PUBLIC "-//W3C//DTD SVG 1.1//EN" "http://www.w3.org/Graphics/SVG/1.1/DTD/svg11.dtd">
<svg version="1.1" id="Layer_1" xmlns="http://www.w3.org/2000/svg" xmlns:xlink="http://www.w3.org/1999/xlink" x="0px" y="0px"
	 width="16px" height="16px" viewBox="0 0 16 16" enable-background="new 0 0 16 16" xml:space="preserve">
<path id="path3057" opacity="0.2" enable-background="new    " d="M2.795,7.017c-1.178,1.676-1.337,3.574-0.499,5.975
	c0.086,0.249,0.321,0.41,0.584,0.401c0.262-0.01,0.486-0.187,0.555-0.44c0,0,0.131-0.589,0.13-0.591
	c0.07-0.366,0.112-0.587,0.342-0.913c0.983-1.398,2.567-2.274,4.274-2.394c0.037,0.766,0.14,1.655,0.14,1.655
	c0.01,0.186,0.102,0.354,0.253,0.46l0.145,0.074c0.229,0.081,0.482,0.017,0.644-0.166l4.982-4.342
	c0.112-0.126,0.166-0.294,0.148-0.461s-0.106-0.32-0.242-0.419L8.853,1.923C8.669,1.79,8.422,1.772,8.223,1.878
	c-0.201,0.105-0.325,0.32-0.319,0.546c0,0,0.042,1.372,0.053,1.737C5.603,4.461,3.955,5.369,2.795,7.017z"/>
<path id="path3059" opacity="0.2" enable-background="new    " d="M2.84,6.726C1.661,8.401,1.502,10.3,2.341,12.7
	c0.086,0.249,0.321,0.409,0.584,0.4c0.262-0.009,0.486-0.186,0.555-0.439c0,0,0.131-0.59,0.13-0.592
	c0.07-0.366,0.111-0.587,0.342-0.913C4.935,9.758,6.52,8.883,8.227,8.763c0.037,0.766,0.141,1.655,0.141,1.655
	c0.008,0.186,0.1,0.354,0.252,0.46l0.145,0.075c0.229,0.08,0.482,0.017,0.644-0.166l4.982-4.343
	c0.112-0.125,0.166-0.293,0.148-0.461c-0.018-0.167-0.106-0.319-0.242-0.418l-5.4-3.933C8.713,1.498,8.465,1.48,8.266,1.586
	c-0.2,0.105-0.325,0.32-0.318,0.545c0,0,0.042,1.373,0.053,1.737C5.647,4.17,3.999,5.078,2.84,6.726z"/>
<linearGradient id="path3067_1_" gradientUnits="userSpaceOnUse" x1="849.6895" y1="-1938.2485" x2="912.0066" y2="-1938.2485" gradientTransform="matrix(-0.1079 0.1534 -0.1534 -0.1079 -194.9278 -335.9512)">
	<stop  offset="0" style="stop-color:#006A00"/>
	<stop  offset="1" style="stop-color:#003333"/>
</linearGradient>
<path id="path3067" fill="url(#path3067_1_)" d="M2.808,6.542c-1.179,1.675-1.338,3.574-0.5,5.975
	c0.087,0.248,0.321,0.409,0.584,0.4c0.263-0.01,0.486-0.187,0.555-0.44c0,0,0.131-0.589,0.131-0.591
	C3.649,11.52,3.69,11.3,3.92,10.973c0.983-1.397,2.567-2.273,4.275-2.394c0.037,0.766,0.139,1.655,0.139,1.655
	c0.01,0.186,0.102,0.354,0.253,0.46l0.145,0.074c0.229,0.081,0.482,0.017,0.644-0.165l4.983-4.343
	c0.111-0.126,0.166-0.294,0.147-0.461c-0.018-0.167-0.106-0.32-0.241-0.419l-5.4-3.933c-0.183-0.133-0.431-0.151-0.63-0.045
	c-0.2,0.105-0.326,0.32-0.318,0.546c0,0,0.041,1.373,0.052,1.736C5.615,3.986,3.966,4.894,2.808,6.542z"/>
<linearGradient id="path3074_1_" gradientUnits="userSpaceOnUse" x1="849.6992" y1="-1938.25" x2="912.3284" y2="-1938.25" gradientTransform="matrix(-0.1079 0.1534 -0.1534 -0.1079 -194.9278 -335.9512)">
	<stop  offset="0" style="stop-color:#006A00"/>
	<stop  offset="1" style="stop-color:#003333"/>
</linearGradient>
<path id="path3074" fill="url(#path3074_1_)" d="M3.024,6.693c-1.125,1.6-1.274,3.424-0.467,5.737
	c0.048,0.138,0.181,0.228,0.327,0.223c0.146-0.005,0.272-0.104,0.31-0.245c0.059-0.217,0.094-0.406,0.126-0.572
	c0.071-0.372,0.122-0.642,0.385-1.015C4.796,9.269,6.551,8.34,8.445,8.294c0.025,0.526,0.152,1.928,0.152,1.928
	c0.004,0.104,0.059,0.198,0.141,0.257c0.024,0.018,0.051,0.031,0.08,0.041c0.128,0.046,0.271,0.009,0.36-0.092l4.982-4.343
	c0.062-0.07,0.093-0.164,0.083-0.257s-0.06-0.179-0.135-0.233l-5.4-3.934C8.605,1.586,8.47,1.576,8.357,1.636
	C8.244,1.695,8.176,1.813,8.18,1.94c0,0,0.045,1.498,0.061,1.971C5.838,4.17,4.174,5.058,3.024,6.693z"/>
<linearGradient id="path3088_1_" gradientUnits="userSpaceOnUse" x1="849.7031" y1="-1938.2461" x2="912.332" y2="-1938.2461" gradientTransform="matrix(-0.1079 0.1534 -0.1534 -0.1079 -194.9278 -335.9512)">
	<stop  offset="0" style="stop-color:#33CC33"/>
	<stop  offset="0.0297" style="stop-color:#4FDA41"/>
	<stop  offset="0.0707" style="stop-color:#6FEA51"/>
	<stop  offset="0.1104" style="stop-color:#86F65D"/>
	<stop  offset="0.1475" style="stop-color:#94FD64"/>
	<stop  offset="0.1798" style="stop-color:#99FF66"/>
	<stop  offset="1" style="stop-color:#009933"/>
</linearGradient>
<path id="path3088" fill="url(#path3088_1_)" d="M8.762,7.96l0.169,2.246l4.981-4.343l-5.4-3.934l0.07,2.292
	C8.581,4.218,8.581,4.215,8.58,4.212C6.371,4.395,4.546,5.106,3.296,6.885c-1.215,1.727-1.072,3.579-0.424,5.436
	c0.187-0.686,0.128-1.076,0.56-1.69C4.693,8.837,6.72,7.905,8.762,7.96z"/>
<linearGradient id="path3095_1_" gradientUnits="userSpaceOnUse" x1="849.6992" y1="-1938.1426" x2="912.3304" y2="-1938.1426" gradientTransform="matrix(-0.1079 0.1534 -0.1534 -0.1079 -194.9278 -335.9512)">
	<stop  offset="0.0056" style="stop-color:#FFFF66"/>
	<stop  offset="1" style="stop-color:#33CC66"/>
</linearGradient>
<path id="path3095" fill="url(#path3095_1_)" d="M3.569,7.077c-0.793,1.126-1.028,2.395-0.718,3.927
	c0.07-0.177,0.165-0.361,0.309-0.566c1.279-1.819,3.377-2.87,5.612-2.811L9.08,7.635c0,0,0.097,0.787,0.144,1.742
	c0.813-0.911,3.803-3.022,4.195-3.461C12.944,5.57,9.699,3.206,8.866,2.6c0.02,0.672,0.049,1.611,0.049,1.611l0.008,0.307
	L8.607,4.544C6.248,4.74,4.646,5.545,3.569,7.077z"/>
<linearGradient id="path3102_1_" gradientUnits="userSpaceOnUse" x1="886.8428" y1="-1919.0796" x2="886.8428" y2="-1932.5032" gradientTransform="matrix(-0.1079 0.1534 -0.1534 -0.1079 -194.9278 -335.9512)">
	<stop  offset="0.0056" style="stop-color:#FFFFFF"/>
	<stop  offset="1" style="stop-color:#99FF00"/>
</linearGradient>
<path id="path3102" fill="url(#path3102_1_)" d="M5.664,8.023C6.057,7.146,6.31,6.219,6.363,5.256
	c-1.1,0.401-1.946,1.046-2.59,1.964c-0.632,0.897-0.881,1.874-0.777,3.02C3.691,9.271,4.614,8.516,5.664,8.023z"/>
</svg>
