<?xml version="1.0" encoding="utf-8"?>
<!-- Generator: Adobe Illustrator 15.0.0, SVG Export Plug-In . SVG Version: 6.00 Build 0)  -->
<!DOCTYPE svg PUBLIC "-//W3C//DTD SVG 1.1//EN" "http://www.w3.org/Graphics/SVG/1.1/DTD/svg11.dtd">
<svg version="1.1" id="Layer_1" xmlns="http://www.w3.org/2000/svg" xmlns:xlink="http://www.w3.org/1999/xlink" x="0px" y="0px"
	 width="24px" height="24px" viewBox="0 0 24 24" enable-background="new 0 0 24 24" xml:space="preserve">
<linearGradient id="path4_2_" gradientUnits="userSpaceOnUse" x1="12.5801" y1="14.6279" x2="12.5801" y2="0.5467" gradientTransform="matrix(1 0 0 -1 0 25)">
	<stop  offset="0" style="stop-color:#FFFFFF"/>
	<stop  offset="1" style="stop-color:#BDD8F0"/>
</linearGradient>
<path id="path4_1_" fill="url(#path4_2_)" stroke="#BBBBBB" stroke-linecap="round" stroke-linejoin="round" stroke-miterlimit="10" d="
	M16.977,6.751c-0.646,0-1.149-0.552-1.149-1.248V0.967H4.944c-0.648,0-1.152,0.552-1.152,1.248v16.969
	c0,0.695,1.964,2.344,2.612,2.344l13.812,0.904c0.647,0,1.152-0.553,1.152-1.248V6.751H16.977z"/>
<path id="path2239_1_" fill="#4091CE" d="M6.286,9.479c0.699-1.644,1.085-3.5,1.085-5.422h6.611c0,3.08-0.698,6.018-1.921,8.675
	H9.539L6.286,9.479z M9.537,11.997h2.101c0.978-2.238,1.542-4.651,1.643-7.206H8.068C7.999,6.47,7.648,8.009,7.054,9.479
	L9.537,11.997z"/>
<path id="path2241_1_" fill="#F34336" d="M13.912,5.666c1.189-0.245,2.484,0.105,2.938,0.701c1.051,1.293,0,4.443-2.764,6.681
	c-2.553,2.063-5.632,2.868-6.612,1.681c-0.665-0.84-0.176-2.485,0.699-3.358l1.364,1.364V9.482H6.284l1.364,1.365
	c-1.154,1.154-1.679,3.079-0.77,4.303c0.279,0.385,0.734,0.594,1.224,0.733c1.539,0.351,3.919-0.524,6.054-2.204
	c3.044-2.449,4.339-5.703,3.044-7.311C16.535,5.561,15.346,5.352,13.912,5.666"/>
<path id="path2_1_" fill="#FFFFFF" stroke="#BBBBBB" stroke-linecap="round" stroke-linejoin="round" stroke-miterlimit="10" d="
	M16.977,6.751h4.416L15.8,0.967v4.536C15.8,6.175,16.328,6.751,16.977,6.751z"/>
<linearGradient id="path10534_2_" gradientUnits="userSpaceOnUse" x1="-555.6523" y1="188.9189" x2="-555.6523" y2="201.634" gradientTransform="matrix(12.3304 2.622 -2.622 12.3304 7358.4111 -859.3413)">
	<stop  offset="0" style="stop-color:#DDA976"/>
	<stop  offset="0.0622" style="stop-color:#D4A06D"/>
	<stop  offset="0.2639" style="stop-color:#BD8955"/>
	<stop  offset="0.4782" style="stop-color:#AC7844"/>
	<stop  offset="0.7116" style="stop-color:#A26E3A"/>
	<stop  offset="1" style="stop-color:#9F6B37"/>
</linearGradient>
<path id="path10534_1_" fill="url(#path10534_2_)" d="M8.479,19.443c0.169-2.016,7.341,1.037,8.267-0.426
	c1.568-2.886-5.619-2.965-8.938-3.541c-3.546-0.231-5.74-3.587-5.74-3.587C1.573,12.848,0.409,14.573,0,16.258
	c0.421,0.356,5.164,7.256,7.599,7.606c2.443,0.354,12.76,0.063,13.102-1.556C21.381,19.085,8.299,21.636,8.479,19.443z"/>
<linearGradient id="path10541_2_" gradientUnits="userSpaceOnUse" x1="-555.6479" y1="188.9961" x2="-555.6479" y2="199.6493" gradientTransform="matrix(12.3304 2.622 -2.622 12.3304 7358.4111 -859.3413)">
	<stop  offset="0" style="stop-color:#FFDDAA"/>
	<stop  offset="1" style="stop-color:#E3B17E"/>
</linearGradient>
<path id="path10541_1_" fill="url(#path10541_2_)" d="M1.465,16.646c-0.201-0.261-0.35-0.455-0.468-0.605
	c0.348-1.059,0.766-2.525,1.184-3.188c1.504,2.092,3.448,2.725,4.419,2.967c3.036,0.387,10.638,0.943,9.427,2.811
	c-0.586,0.902-7.765-2.4-8.223,0.791c-0.453,3.158,11.774,0.803,12.125,2.549c-0.125,1.512-10.595,1.535-12.207,1.043
	C5.907,22.468,2.601,18.124,1.465,16.646z"/>
<linearGradient id="path10548_2_" gradientUnits="userSpaceOnUse" x1="-555.833" y1="189.0723" x2="-555.833" y2="197.5804" gradientTransform="matrix(12.3304 2.622 -2.622 12.3304 7358.4111 -859.3413)">
	<stop  offset="0" style="stop-color:#F1C592"/>
	<stop  offset="1" style="stop-color:#E1AF7C"/>
</linearGradient>
<path id="path10548_1_" fill="url(#path10548_2_)" d="M7.981,22.152c-0.686-0.205-2.236-1.407-5.735-5.961l-0.239-0.308
	c0.223-0.569,0.312-1.257,0.609-1.788c1.103,1.312,2.398,2.062,3.766,2.358c0.811,0.251,2.168,0.131,3.191,0.178
	c1.296,0.095,3.337,0.369,4.577,0.747c1.242,0.378,1.201,0.971-0.168,0.652c-0.939-0.088-5.04-0.973-6.175-0.266
	c-0.351,0.227-0.772,0.701-0.893,1.528c-0.142,0.972,0.273,2.254,3.048,2.845c0.249,0.055,0.511,0.102,0.782,0.141
	C9.552,22.305,8.55,22.273,8.05,22.17L7.981,22.152z"/>
</svg>
