<?xml version="1.0" encoding="utf-8"?>
<!-- Generator: Adobe Illustrator 15.0.0, SVG Export Plug-In  -->
<!DOCTYPE svg PUBLIC "-//W3C//DTD SVG 1.1//EN" "http://www.w3.org/Graphics/SVG/1.1/DTD/svg11.dtd" [
	<!ENTITY ns_flows "http://ns.adobe.com/Flows/1.0/">
]>
<svg version="1.1"
	 xmlns="http://www.w3.org/2000/svg" xmlns:xlink="http://www.w3.org/1999/xlink" xmlns:a="http://ns.adobe.com/AdobeSVGViewerExtensions/3.0/"
	 x="0px" y="0px" width="24px" height="24px" viewBox="0 0.007 24 24" overflow="visible" enable-background="new 0 0.007 24 24"
	 xml:space="preserve">
<defs>
</defs>
<linearGradient id="SVGID_1_" gradientUnits="userSpaceOnUse" x1="40.2832" y1="777.665" x2="40.2832" y2="789.9233" gradientTransform="matrix(1 0 0 1 -28.291 -767)">
	<stop  offset="0" style="stop-color:#FFFFFF"/>
	<stop  offset="1" style="stop-color:#BDD8F0"/>
</linearGradient>
<path display="none" fill="url(#SVGID_1_)" stroke="#999999" stroke-linejoin="round" stroke-miterlimit="10" d="M15.713,6.355
	c-0.723,0-1.271-0.552-1.271-1.271V0.5H4.719C4,0.5,3.447,1.052,3.447,1.771v17.673l15.818,2.83c0.719,0,1.271-0.553,1.271-1.271
	V6.355H15.713z"/>
<linearGradient id="path4_2_" gradientUnits="userSpaceOnUse" x1="12.5801" y1="10.3716" x2="12.5801" y2="24.4522">
	<stop  offset="0" style="stop-color:#FFFFFF"/>
	<stop  offset="1" style="stop-color:#BDD8F0"/>
</linearGradient>
<path id="path4_1_"  fill="url(#path4_2_)" stroke="#BBBBBB" stroke-linecap="round" stroke-linejoin="round" stroke-miterlimit="10" d="
	M16.977,6.751c-0.646,0-1.15-0.552-1.15-1.248V0.967H4.944c-0.648,0-1.152,0.552-1.152,1.248v16.968
	c0,0.696,1.964,2.344,2.612,2.344l13.812,0.904c0.647,0,1.152-0.552,1.152-1.248V6.751H16.977z"/>
<path id="path2239_1_" fill="#4091CE" d="M6.286,9.479c0.699-1.644,1.085-3.5,1.085-5.422h6.612
	c0,3.08-0.699,6.018-1.922,8.675H9.539L6.286,9.479z M9.537,11.997h2.101c0.978-2.238,1.541-4.651,1.643-7.206H8.068
	C7.999,6.47,7.648,8.009,7.054,9.479L9.537,11.997z"/>
<path id="path2241_1_" fill="#F34336" d="M13.912,5.666c1.189-0.245,2.484,0.105,2.938,0.701
	c1.051,1.293,0,4.443-2.764,6.681c-2.553,2.064-5.632,2.868-6.612,1.68c-0.665-0.84-0.176-2.485,0.699-3.358l1.364,1.364V9.482
	H6.284l1.364,1.365c-1.154,1.154-1.679,3.079-0.77,4.303c0.279,0.385,0.734,0.594,1.224,0.734c1.539,0.351,3.919-0.524,6.054-2.205
	c3.044-2.448,4.339-5.702,3.044-7.31C16.535,5.561,15.346,5.352,13.912,5.666"/>
<path id="path3888_1_" display="none" fill="#4AABE9" d="M7.555,7.749
	C7.459,7.513,7.408,7.257,7.408,6.988c0-1.165,0.993-2.109,2.217-2.109c0.455,0,0.88,0.132,1.231,0.356
	c0.64-1.055,1.834-1.762,3.203-1.762c2.042,0,3.695,1.573,3.695,3.516c0,0.06-0.002,0.118-0.004,0.178
	c1.293,0.433,2.222,1.606,2.222,2.986c0,1.747-1.489,3.165-3.326,3.165h-8.5c-1.633,0-2.957-1.259-2.957-2.812
	C5.189,9.143,6.207,8.007,7.555,7.749z M10.886,9.097h1.511v2.46c0,0.193,0.167,0.352,0.37,0.352h1.108
	c0.203,0,0.369-0.158,0.369-0.352v-2.46h1.511c0.329,0,0.493-0.378,0.262-0.601L13.58,6.181c-0.143-0.136-0.379-0.136-0.521,0
	l-2.436,2.316C10.392,8.719,10.558,9.097,10.886,9.097z"/>
<path id="path2_1_" fill="#FFFFFF" stroke="#BBBBBB" stroke-linecap="round" stroke-linejoin="round" stroke-miterlimit="10" d="
	M16.977,6.751h4.416L15.8,0.967v4.536C15.8,6.175,16.328,6.751,16.977,6.751z"/>
<linearGradient id="path10534_2_" gradientUnits="userSpaceOnUse" x1="-291.2515" y1="244.4951" x2="-291.2515" y2="231.78" gradientTransform="matrix(12.3304 2.622 2.622 -12.3304 2961.8545 3791.5728)">
	<stop  offset="0" style="stop-color:#DDA976"/>
	<stop  offset="0.0622" style="stop-color:#D4A06D"/>
	<stop  offset="0.2639" style="stop-color:#BD8955"/>
	<stop  offset="0.4782" style="stop-color:#AC7844"/>
	<stop  offset="0.7116" style="stop-color:#A26E3A"/>
	<stop  offset="1" style="stop-color:#9F6B37"/>
</linearGradient>
<path id="path10534_1_" fill="url(#path10534_2_)" d="
	M8.479,19.444c0.169-2.016,7.342,1.037,8.267-0.426c1.568-2.886-5.619-2.965-8.938-3.541c-3.546-0.232-5.74-3.588-5.74-3.588
	C1.573,12.847,0.409,14.573,0,16.258c0.421,0.356,5.164,7.256,7.599,7.606c2.443,0.354,12.76,0.064,13.102-1.555
	C21.381,19.085,8.299,21.636,8.479,19.444z"/>
<linearGradient id="path10541_2_" gradientUnits="userSpaceOnUse" x1="-291.2476" y1="244.418" x2="-291.2476" y2="233.7648" gradientTransform="matrix(12.3304 2.622 2.622 -12.3304 2961.8545 3791.5728)">
	<stop  offset="0" style="stop-color:#FFDDAA"/>
	<stop  offset="1" style="stop-color:#E3B17E"/>
</linearGradient>
<path id="path10541_1_" fill="url(#path10541_2_)" d="
	M1.465,16.646c-0.201-0.26-0.35-0.455-0.468-0.605c0.348-1.059,0.766-2.526,1.184-3.188c1.504,2.092,3.448,2.725,4.419,2.968
	c3.036,0.386,10.638,0.942,9.427,2.81c-0.586,0.902-7.765-2.4-8.223,0.791c-0.453,3.158,11.774,0.803,12.125,2.549
	c-0.125,1.511-10.594,1.535-12.206,1.043C5.907,22.468,2.601,18.124,1.465,16.646z"/>
<linearGradient id="path10548_2_" gradientUnits="userSpaceOnUse" x1="-291.4316" y1="244.3418" x2="-291.4316" y2="235.8182" gradientTransform="matrix(12.3304 2.622 2.622 -12.3304 2961.8545 3791.5728)">
	<stop  offset="0" style="stop-color:#F1C592"/>
	<stop  offset="1" style="stop-color:#E1AF7C"/>
</linearGradient>
<path id="path10548_1_" fill="url(#path10548_2_)" d="
	M7.981,22.153c-0.686-0.206-2.236-1.408-5.735-5.961l-0.239-0.308c0.223-0.569,0.312-1.257,0.609-1.788
	c1.103,1.311,2.398,2.061,3.766,2.358c0.811,0.251,2.168,0.131,3.191,0.178c1.296,0.095,3.337,0.369,4.577,0.747
	c1.243,0.378,1.202,0.971-0.167,0.652c-0.94-0.088-5.04-0.973-6.176-0.265c-0.351,0.226-0.772,0.701-0.893,1.528
	c-0.142,0.971,0.273,2.254,3.048,2.844c0.249,0.055,0.511,0.102,0.782,0.141c-1.192,0.026-2.194-0.006-2.694-0.109L7.981,22.153z"/>
</svg>
