<?xml version="1.0" encoding="utf-8"?>
<!-- Generator: Adobe Illustrator 15.0.0, SVG Export Plug-In . SVG Version: 6.00 Build 0)  -->
<!DOCTYPE svg PUBLIC "-//W3C//DTD SVG 1.1//EN" "http://www.w3.org/Graphics/SVG/1.1/DTD/svg11.dtd">
<svg version="1.1"
	 id="svg20" sodipodi:docname="icon.svg" xmlns:inkscape="http://www.inkscape.org/namespaces/inkscape" inkscape:version="0.92.2 5c3e80d, 2017-08-06" xmlns:sodipodi="http://sodipodi.sourceforge.net/DTD/sodipodi-0.dtd" xmlns:rdf="http://www.w3.org/1999/02/22-rdf-syntax-ns#" xmlns:svg="http://www.w3.org/2000/svg" xmlns:cc="http://creativecommons.org/ns#" xmlns:dc="http://purl.org/dc/elements/1.1/"
	 xmlns="http://www.w3.org/2000/svg" xmlns:xlink="http://www.w3.org/1999/xlink" x="0px" y="0px" width="24px" height="24px"
	 viewBox="0 0 24 24" enable-background="new 0 0 24 24" xml:space="preserve">
<sodipodi:namedview  bordercolor="#666666" borderopacity="1" id="namedview22" inkscape:window-height="1010" objecttolerance="10" pagecolor="#ffffff" gridtolerance="10" guidetolerance="10" inkscape:pageopacity="0" inkscape:pageshadow="2" inkscape:window-width="1795" showgrid="false" inkscape:cy="13.764066" inkscape:zoom="17.063346" inkscape:cx="5.7965141" inkscape:window-x="0" inkscape:window-y="22" inkscape:window-maximized="0" inkscape:current-layer="layer1">
	</sodipodi:namedview>
<g id="g18" transform="translate(-14.145579)">
	<linearGradient id="SVGID_1_" gradientUnits="userSpaceOnUse" x1="26.1378" y1="10.6582" x2="26.1378" y2="22.9153">
		<stop  offset="0" style="stop-color:#FFFFFF"/>
		<stop  offset="1" style="stop-color:#BDD8F0"/>
	</linearGradient>
	<path fill="url(#SVGID_1_)" stroke="#999999" stroke-linejoin="round" stroke-miterlimit="10" d="M29.858,6.348
		c-0.721,0-1.271-0.552-1.271-1.271V0.493h-9.722c-0.72,0-1.272,0.552-1.272,1.271v17.673l15.818,2.83
		c0.719,0,1.271-0.551,1.271-1.271V6.348H29.858z"/>
	<g id="g2243" transform="matrix(1.8741736,0,0,1.8741736,633.85937,-479.87162)" inkscape:label="turnitin icon">
		<path id="path2239" inkscape:connector-curvature="0" fill="#4091CE" d="M-327.306,261.098c0.373-0.877,0.579-1.867,0.579-2.893
			h3.528c0,1.643-0.373,3.211-1.026,4.629h-1.345L-327.306,261.098z M-325.571,262.442h1.121c0.522-1.194,0.822-2.482,0.877-3.845
			h-2.782c-0.037,0.896-0.224,1.717-0.541,2.501L-325.571,262.442z"/>
		<path id="path2241" inkscape:connector-curvature="0" fill="#F34336" d="M-323.237,259.064c0.635-0.131,1.326,0.056,1.568,0.374
			c0.56,0.69,0,2.371-1.475,3.565c-1.362,1.101-3.005,1.53-3.528,0.896c-0.355-0.448-0.094-1.326,0.373-1.792l0.728,0.728v-1.735
			h-1.736l0.728,0.728c-0.616,0.616-0.896,1.643-0.411,2.296c0.149,0.205,0.392,0.317,0.653,0.392
			c0.821,0.187,2.091-0.28,3.23-1.177c1.624-1.306,2.315-3.042,1.624-3.9C-321.837,259.008-322.472,258.896-323.237,259.064"/>
	</g>
	<path fill="#FFFFFF" stroke="#999999" stroke-linecap="round" stroke-linejoin="round" stroke-miterlimit="10" d="M29.829,6.348
		h4.854l-6.125-5.855v4.584C28.558,5.796,29.134,6.348,29.829,6.348z"/>
	<g id="g14799" transform="matrix(3.7058697,0.54062794,-0.54062794,3.7058697,22.494748,9.9223005)">
		<g id="raw_1_">
			<g id="assign_24" inkscape:label="assign_hand">
				
					<linearGradient id="path10534_1_" gradientUnits="userSpaceOnUse" x1="32.7674" y1="5.7145" x2="32.7674" y2="-7.0006" gradientTransform="matrix(0.8959 -0.072 -0.072 -0.8959 -27.9463 8.176)">
					<stop  offset="0" style="stop-color:#DDA976"/>
					<stop  offset="1" style="stop-color:#9F6B37"/>
				</linearGradient>
				<path id="path10534" inkscape:connector-curvature="0" sodipodi:nodetypes="cccccccc" fill="url(#path10534_1_)" d="
					M0.401,2.509C0.368,1.97,2.381,2.5,2.569,2.078C2.872,1.255,0.97,1.511,0.071,1.487c-0.946,0.075-1.655-0.727-1.655-0.727
					c-0.094,0.272-0.335,0.773-0.378,1.234c0.125,0.078,1.644,1.718,2.301,1.717C0.998,3.71,3.713,3.236,3.741,2.795
					C3.796,1.917,0.438,3.095,0.401,2.509z"/>
				
					<linearGradient id="path10541_1_" gradientUnits="userSpaceOnUse" x1="32.7406" y1="5.4188" x2="32.7406" y2="-5.238" gradientTransform="matrix(0.8959 -0.072 -0.072 -0.8959 -27.9463 8.176)">
					<stop  offset="0" style="stop-color:#FFDDAA"/>
					<stop  offset="1" style="stop-color:#E3B17E"/>
				</linearGradient>
				<path id="path10541" inkscape:connector-curvature="0" sodipodi:nodetypes="ccccccccc" fill="url(#path10541_1_)" d="
					M-1.56,2.04c-0.063-0.061-0.11-0.107-0.147-0.142c0.051-0.293,0.105-0.697,0.19-0.888c0.478,0.495,1.016,0.587,1.282,0.614
					c0.817-0.015,2.847-0.161,2.599,0.379c-0.12,0.261-2.144-0.335-2.142,0.526c0.002,0.852,3.142-0.242,3.302,0.206
					c0.025,0.404-2.74,0.814-3.185,0.746C-0.162,3.407-1.203,2.387-1.56,2.04z"/>
				
					<linearGradient id="path10548_1_" gradientUnits="userSpaceOnUse" x1="32.0128" y1="5.2187" x2="32.0128" y2="-3.3013" gradientTransform="matrix(0.8959 -0.072 -0.072 -0.8959 -27.9463 8.176)">
					<stop  offset="0" style="stop-color:#F1C592"/>
					<stop  offset="1" style="stop-color:#E1AF7C"/>
				</linearGradient>
				<path id="path10548" inkscape:connector-curvature="0" sodipodi:nodetypes="cccccccccccccc" fill="url(#path10548_1_)" d="
					M0.374,3.244C0.185,3.216-0.271,2.958-1.371,1.89l-0.075-0.072c0.037-0.159,0.034-0.344,0.092-0.496
					C-1.012,1.626-0.641,1.774-0.268,1.8c0.224,0.035,0.578-0.049,0.85-0.076C0.928,1.699,1.478,1.693,1.82,1.745
					c0.343,0.052,0.355,0.21-0.019,0.179C1.549,1.937,0.432,1.861,0.159,2.092C0.075,2.165-0.018,2.307-0.018,2.53
					c0,0.262,0.159,0.585,0.915,0.634c0.068,0.005,0.139,0.007,0.212,0.007c-0.314,0.053-0.58,0.083-0.716,0.075L0.374,3.244z"/>
			</g>
		</g>
	</g>
</g>
<g id="layer1" inkscape:groupmode="layer" inkscape:label="Layer 1">
</g>
</svg>
