<?xml version="1.0" encoding="utf-8"?>
<!-- Generator: Adobe Illustrator 15.0.0, SVG Export Plug-In . SVG Version: 6.00 Build 0)  -->
<!DOCTYPE svg PUBLIC "-//W3C//DTD SVG 1.1//EN" "http://www.w3.org/Graphics/SVG/1.1/DTD/svg11.dtd">
<svg version="1.1"
	 id="svg4335" sodipodi:docname="icon.svg" inkscape:version="0.92.2 5c3e80d, 2017-08-06" xmlns:cc="http://creativecommons.org/ns#" xmlns:inkscape="http://www.inkscape.org/namespaces/inkscape" xmlns:sodipodi="http://sodipodi.sourceforge.net/DTD/sodipodi-0.dtd" xmlns:rdf="http://www.w3.org/1999/02/22-rdf-syntax-ns#" xmlns:svg="http://www.w3.org/2000/svg" xmlns:dc="http://purl.org/dc/elements/1.1/"
	 xmlns="http://www.w3.org/2000/svg" xmlns:xlink="http://www.w3.org/1999/xlink" x="0px" y="0px" width="24px" height="24px"
	 viewBox="0 0 24 24" enable-background="new 0 0 24 24" xml:space="preserve">
<sodipodi:namedview  objecttolerance="10" id="namedview4337" borderopacity="1" inkscape:window-y="0" bordercolor="#666666" inkscape:window-x="0" inkscape:window-width="1440" inkscape:cx="12.061539" showgrid="false" inkscape:cy="22.109965" gridtolerance="10" inkscape:pageopacity="0" inkscape:zoom="130.99999" inkscape:pageshadow="2" inkscape:window-maximized="0" inkscape:window-height="856" pagecolor="#ffffff" guidetolerance="10" inkscape:current-layer="svg4335">
	</sodipodi:namedview>
<rect id="rect5545" x="9.385" y="1.736" fill="#D0AD68" width="4.893" height="10.923"/>
<path id="path5196" inkscape:connector-curvature="0" sodipodi:nodetypes="csssccccccc" sodipodi:insensitive="true" fill="#F3D992" stroke="#999999" stroke-width="0.75" d="
	M1.961,8.832v10.764c0,0.968,0.844,1.752,1.883,1.752h16.312c1.039,0,1.883-0.784,1.883-1.752V8.832h-7.957V12.1H9.754V8.832H1.961z
	"/>
<path id="path5498" inkscape:connector-curvature="0" sodipodi:nodetypes="cc" fill="none" stroke="#999999" stroke-width="0.75" d="
	M8.062,1.867h8"/>
<path id="path5520" inkscape:connector-curvature="0" sodipodi:nodetypes="cc" fill="none" stroke="#999999" stroke-width="0.75" d="
	M8.062,8.831h8"/>
<g id="text5524">
	<path id="path5526" fill="#999999" d="M5.55,16.104v0.481c-0.188-0.09-0.364-0.156-0.53-0.2c-0.167-0.044-0.327-0.066-0.482-0.066
		c-0.269,0-0.477,0.052-0.624,0.157c-0.145,0.104-0.218,0.252-0.218,0.444c0,0.161,0.048,0.284,0.145,0.367
		c0.098,0.081,0.282,0.147,0.553,0.198l0.298,0.061c0.368,0.07,0.64,0.194,0.814,0.372c0.176,0.176,0.264,0.412,0.264,0.709
		c0,0.354-0.119,0.622-0.357,0.805c-0.236,0.183-0.583,0.273-1.042,0.273c-0.173,0-0.357-0.02-0.553-0.059
		c-0.194-0.039-0.396-0.097-0.604-0.173v-0.51c0.2,0.113,0.397,0.197,0.589,0.255s0.381,0.085,0.567,0.085
		c0.282,0,0.5-0.055,0.653-0.166c0.153-0.11,0.229-0.269,0.229-0.475c0-0.179-0.055-0.318-0.166-0.42
		c-0.109-0.102-0.29-0.177-0.541-0.228l-0.301-0.059c-0.368-0.073-0.635-0.188-0.799-0.345c-0.165-0.156-0.247-0.374-0.247-0.652
		c0-0.323,0.113-0.578,0.34-0.764c0.228-0.186,0.542-0.279,0.941-0.279c0.171,0,0.346,0.016,0.523,0.047
		C5.183,15.996,5.365,16.043,5.55,16.104z"/>
	<path id="path5528" fill="#999999" d="M9.274,16.266v0.521c-0.166-0.155-0.344-0.271-0.533-0.348
		c-0.188-0.076-0.387-0.115-0.599-0.115c-0.417,0-0.737,0.129-0.958,0.385c-0.222,0.254-0.333,0.622-0.333,1.104
		c0,0.481,0.111,0.85,0.333,1.105c0.222,0.255,0.541,0.382,0.958,0.382c0.212,0,0.412-0.039,0.599-0.115
		c0.189-0.076,0.367-0.192,0.533-0.348v0.516c-0.173,0.118-0.356,0.206-0.55,0.265c-0.192,0.059-0.396,0.088-0.611,0.088
		c-0.553,0-0.988-0.169-1.306-0.506c-0.318-0.339-0.477-0.802-0.477-1.387c0-0.587,0.159-1.049,0.477-1.386
		c0.318-0.34,0.753-0.51,1.306-0.51c0.218,0,0.424,0.029,0.616,0.089C8.923,16.063,9.105,16.15,9.274,16.266z"/>
	<path id="path5530" fill="#999999" d="M11.524,16.319c-0.359,0-0.644,0.134-0.856,0.401c-0.21,0.268-0.315,0.632-0.315,1.093
		c0,0.46,0.105,0.823,0.315,1.091c0.212,0.268,0.497,0.4,0.856,0.4c0.358,0,0.642-0.133,0.851-0.4
		c0.211-0.268,0.315-0.631,0.315-1.091c0-0.461-0.104-0.825-0.315-1.093C12.167,16.453,11.883,16.319,11.524,16.319z M11.524,15.918
		c0.512,0,0.921,0.173,1.228,0.517c0.307,0.343,0.459,0.802,0.459,1.379c0,0.575-0.152,1.035-0.459,1.38
		c-0.307,0.342-0.716,0.513-1.228,0.513c-0.514,0-0.924-0.171-1.232-0.513c-0.307-0.343-0.46-0.803-0.46-1.38
		s0.153-1.036,0.46-1.379C10.6,16.091,11.011,15.918,11.524,15.918z"/>
	<path id="path5532" fill="#999999" d="M15.715,17.924c0.106,0.035,0.209,0.112,0.309,0.229c0.102,0.118,0.202,0.278,0.303,0.484
		l0.502,0.997h-0.531l-0.467-0.936c-0.121-0.245-0.238-0.407-0.352-0.486c-0.113-0.08-0.268-0.121-0.463-0.121h-0.537v1.543h-0.494
		v-3.65H15.1c0.417,0,0.729,0.088,0.934,0.262c0.205,0.175,0.309,0.438,0.309,0.79c0,0.229-0.055,0.421-0.162,0.572
		C16.074,17.76,15.919,17.865,15.715,17.924z M14.479,16.391v1.296H15.1c0.238,0,0.417-0.055,0.537-0.164
		c0.123-0.11,0.184-0.272,0.184-0.486s-0.061-0.374-0.184-0.481c-0.12-0.109-0.299-0.164-0.537-0.164H14.479z"/>
	<path id="path5534" fill="#999999" d="M17.467,15.984h0.735l0.932,2.484l0.937-2.484h0.736v3.65h-0.482V16.43l-0.941,2.504h-0.496
		l-0.941-2.504v3.205h-0.479V15.984z"/>
</g>
<g id="g2026" transform="translate(0,0.07465008)">
	<path id="path2022" inkscape:connector-curvature="0" sodipodi:nodetypes="ccccccsc" fill="#999999" d="M13.23,1.416l0.029,0.4
		l0.525,6.613c2.789,0.016,7.826-0.003,8.615-0.025l-1.983-5.543h0.002c-0.312-0.875-1.179-1.445-2.14-1.445H13.23z"/>
	<path id="path2002" inkscape:connector-curvature="0" sodipodi:nodetypes="cscccc" fill="#F3D992" d="M14.037,2.166h4.242
		c0.664,0,1.234,0.391,1.433,0.947l1.899,5.312h-7.129L14.037,2.166z"/>
</g>
<g id="g2032" transform="matrix(-1,0,0,1,23.79081,0.07465008)">
	<path id="path2028" inkscape:connector-curvature="0" sodipodi:nodetypes="ccccccsc" fill="#999999" d="M13.23,1.416l0.029,0.4
		l0.525,6.613c2.79,0.016,7.627-0.003,8.416-0.025l-1.984-5.543h0.002c-0.312-0.875-1.179-1.445-2.139-1.445H13.23z"/>
	<path id="path2030" inkscape:connector-curvature="0" fill="#F3D992" d="M14.037,2.166h4.043c0.664,0,1.234,0.391,1.432,0.947
		l1.9,5.312h-6.93L14.037,2.166z"/>
</g>
</svg>
