<?xml version="1.0" encoding="utf-8"?>
<!-- Generator: Adobe Illustrator 15.0.0, SVG Export Plug-In . SVG Version: 6.00 Build 0)  -->
<!DOCTYPE svg PUBLIC "-//W3C//DTD SVG 1.1//EN" "http://www.w3.org/Graphics/SVG/1.1/DTD/svg11.dtd">
<svg version="1.1"
	 id="svg28" sodipodi:docname="icon.svg" inkscape:version="0.92.2 5c3e80d, 2017-08-06" xmlns:cc="http://creativecommons.org/ns#" xmlns:inkscape="http://www.inkscape.org/namespaces/inkscape" xmlns:sodipodi="http://sodipodi.sourceforge.net/DTD/sodipodi-0.dtd" xmlns:rdf="http://www.w3.org/1999/02/22-rdf-syntax-ns#" xmlns:svg="http://www.w3.org/2000/svg" xmlns:dc="http://purl.org/dc/elements/1.1/"
	 xmlns="http://www.w3.org/2000/svg" xmlns:xlink="http://www.w3.org/1999/xlink" x="0px" y="0px" width="24px" height="24px"
	 viewBox="0 0 24 24" enable-background="new 0 0 24 24" xml:space="preserve">
<sodipodi:namedview  objecttolerance="10" id="namedview30" borderopacity="1" inkscape:window-y="0" bordercolor="#666666" inkscape:window-x="0" inkscape:window-width="1321" inkscape:cx="12" showgrid="false" inkscape:cy="12" gridtolerance="10" inkscape:pageopacity="0" inkscape:zoom="22" inkscape:pageshadow="2" inkscape:window-maximized="0" inkscape:window-height="741" pagecolor="#ffffff" guidetolerance="10" inkscape:current-layer="g24">
	</sodipodi:namedview>
<g id="g24">
	<g id="Layer_2">
		<g id="g1134" transform="matrix(0.24,0,0,0.24,-3.084,0.048)">
			<g id="g1100">
				<g>
					<path id="path1096_1_" inkscape:connector-curvature="0" fill="#FFFFFF" d="M92.554,2.201c3.394,0,5.998,2.6,5.998,5.699
						v83.803c0,3.198-2.702,5.697-5.998,5.697H33.15c-3.3,0-6-2.6-6-5.697V7.899c0-3.2,2.7-5.699,6-5.699H92.554L92.554,2.201z"/>
					<path fill="#BBBBBB" d="M92.554,99.483H33.15c-4.458,0-8.083-3.491-8.083-7.78V7.899c0-4.291,3.625-7.782,8.083-7.782h59.403
						c4.456,0,8.081,3.491,8.081,7.782v83.803C100.635,95.991,97.009,99.483,92.554,99.483z M33.15,4.284
						c-2.195,0-3.916,1.589-3.916,3.615v83.803c0,1.957,1.794,3.613,3.916,3.613h59.403c2.193,0,3.914-1.587,3.914-3.613V7.899
						c0-1.994-1.758-3.615-3.914-3.615H33.15z"/>
				</g>
			</g>
		</g>
	</g>
	<circle id="circle22" fill="#2A7FFF" cx="12.133" cy="10.712" r="5.76"/>
	
		<path id="path841" sodipodi:cy="44.491526" sodipodi:r2="7.4635234" sodipodi:r1="14.927047" inkscape:transform-center-x="-3.7317613" inkscape:flatsided="false" sodipodi:arg1="2.0943951" sodipodi:sides="3" inkscape:rounded="0" sodipodi:cx="49.999999" sodipodi:type="star" inkscape:randomized="0" sodipodi:arg2="3.1415927" fill="#FFFFFF" d="
		M10.209,13.78v-3.103V7.575l2.687,1.552l2.687,1.551l-2.687,1.552L10.209,13.78z"/>
	<rect id="rect843" x="5.39" y="18.813" fill="#5599FF" width="8.87" height="1.424"/>
	<rect id="rect845" x="14.205" y="18.813" fill="#999999" width="3.965" height="1.424"/>
</g>
</svg>
