<?xml version="1.0" encoding="utf-8"?>
<!-- Generator: Adobe Illustrator 15.0.0, SVG Export Plug-In . SVG Version: 6.00 Build 0)  -->
<!DOCTYPE svg PUBLIC "-//W3C//DTD SVG 1.1//EN" "http://www.w3.org/Graphics/SVG/1.1/DTD/svg11.dtd">
<svg version="1.1"
	 id="svg28" sodipodi:docname="icon.svg" inkscape:version="0.92.2 5c3e80d, 2017-08-06" xmlns:cc="http://creativecommons.org/ns#" xmlns:inkscape="http://www.inkscape.org/namespaces/inkscape" xmlns:sodipodi="http://sodipodi.sourceforge.net/DTD/sodipodi-0.dtd" xmlns:rdf="http://www.w3.org/1999/02/22-rdf-syntax-ns#" xmlns:svg="http://www.w3.org/2000/svg" xmlns:dc="http://purl.org/dc/elements/1.1/"
	 xmlns="http://www.w3.org/2000/svg" xmlns:xlink="http://www.w3.org/1999/xlink" x="0px" y="0px" width="24px" height="24px"
	 viewBox="0 0 24 24" enable-background="new 0 0 24 24" xml:space="preserve">
<g id="Layer_2">
	<g id="g1134" transform="matrix(0.24,0,0,0.24,-3.084,0.048)">
		<g id="g1100">
			<g>
				<path id="path1096_1_" inkscape:connector-curvature="0" fill="#FFFFFF" d="M92.554,2.201c3.394,0,5.998,2.6,5.998,5.699v83.803
					c0,3.198-2.702,5.697-5.998,5.697H33.15c-3.3,0-6-2.6-6-5.697V7.899c0-3.2,2.7-5.699,6-5.699H92.554L92.554,2.201z"/>
				<path fill="#BBBBBB" d="M92.554,99.483H33.15c-4.458,0-8.083-3.491-8.083-7.78V7.899c0-4.291,3.625-7.782,8.083-7.782h59.403
					c4.456,0,8.081,3.491,8.081,7.782v83.803C100.635,95.991,97.009,99.483,92.554,99.483z M33.15,4.284
					c-2.195,0-3.916,1.589-3.916,3.615v83.803c0,1.957,1.794,3.613,3.916,3.613h59.403c2.193,0,3.914-1.587,3.914-3.613V7.899
					c0-1.994-1.758-3.615-3.914-3.615H33.15z"/>
			</g>
		</g>
	</g>
</g>
<g id="quiz">
	<rect x="12.249" y="13" fill="#999999" width="6.372" height="1"/>
	<g id="text7443">
		<path id="path11119" fill="#999999" d="M6.886,5.705l0.389-0.448l0,0l0.504,0.4l0,0c0.042-0.146,0.062-0.448,0.062-0.905
			c0-0.425-0.015-0.715-0.044-0.869c-0.032-0.146-0.09-0.266-0.175-0.359C7.557,3.435,7.47,3.361,7.361,3.302
			C7.246,3.244,7.111,3.214,6.955,3.21C6.8,3.214,6.667,3.244,6.557,3.302c-0.113,0.06-0.204,0.133-0.273,0.223
			C6.199,3.617,6.143,3.737,6.115,3.883C6.083,4.038,6.067,4.327,6.067,4.752s0.016,0.713,0.047,0.863
			c0.028,0.15,0.084,0.272,0.169,0.365c0.069,0.089,0.16,0.161,0.273,0.217C6.667,6.262,6.8,6.295,6.955,6.295
			c0.202,0,0.363-0.05,0.483-0.151L6.886,5.705z M7.975,6.574C7.72,6.817,7.38,6.943,6.955,6.951
			c-0.34-0.008-0.624-0.091-0.852-0.25C5.872,6.549,5.704,6.373,5.599,6.173c-0.032-0.065-0.06-0.127-0.086-0.187
			C5.489,5.925,5.47,5.848,5.453,5.755C5.424,5.581,5.409,5.247,5.409,4.752c0-0.502,0.015-0.838,0.044-1.009
			c0.032-0.17,0.081-0.308,0.146-0.412c0.105-0.2,0.273-0.378,0.504-0.534c0.228-0.158,0.511-0.239,0.852-0.243
			c0.344,0.004,0.631,0.085,0.86,0.243c0.227,0.156,0.392,0.334,0.492,0.534C8.38,3.436,8.431,3.574,8.458,3.744
			c0.026,0.17,0.039,0.506,0.039,1.009c0,0.449-0.01,0.762-0.03,0.94C8.442,5.871,8.399,6.009,8.34,6.108l0.569,0.454L8.521,7.013
			l0,0L7.975,6.574z"/>
		<path id="path11121" fill="#999999" d="M9.644,2.59H10.3v2.789c0.004,0.294,0.089,0.519,0.255,0.673
			c0.162,0.162,0.371,0.243,0.626,0.243c0.255,0,0.465-0.081,0.632-0.243c0.162-0.154,0.245-0.379,0.249-0.673V2.59h0.655v2.86
			c-0.008,0.455-0.154,0.815-0.442,1.083c-0.289,0.275-0.653,0.415-1.094,0.418c-0.433-0.004-0.795-0.144-1.086-0.418
			C9.798,6.265,9.648,5.904,9.644,5.45V2.59z"/>
		<path id="path11123" fill="#999999" d="M14.057,2.59h0.656v4.325h-0.656V2.59z"/>
		<path id="path11125" fill="#999999" d="M15.861,6.369l1.961-3.195h-1.883V2.59h2.685v0.492l-1.968,3.213h1.968v0.62h-2.763V6.369z
			"/>
	</g>
	<path id="path7445" inkscape:connector-curvature="0" fill="#DCDCDC" d="M10.238,13.999C10.238,14.552,9.79,15,9.237,15H6.239
		c-0.553,0-1.001-0.448-1.001-1.001v-2.998C5.238,10.448,5.687,10,6.239,10h2.997c0.554,0,1.002,0.448,1.002,1.001V13.999z
		 M9.238,11.244C9.238,11.109,9.129,11,8.994,11H6.482c-0.135,0-0.244,0.109-0.244,0.244v2.512C6.238,13.891,6.347,14,6.482,14
		h2.512c0.135,0,0.244-0.109,0.244-0.244V11.244z"/>
	<path id="path7447" inkscape:connector-curvature="0" fill="#DCDCDC" d="M10.238,19.999C10.238,20.552,9.79,21,9.237,21H6.239
		c-0.553,0-1.001-0.448-1.001-1.001v-2.998C5.238,16.448,5.687,16,6.239,16h2.997c0.554,0,1.002,0.448,1.002,1.001V19.999z
		 M9.238,17.244C9.238,17.109,9.129,17,8.994,17H6.482c-0.135,0-0.244,0.109-0.244,0.244v2.512C6.238,19.891,6.347,20,6.482,20
		h2.512c0.135,0,0.244-0.109,0.244-0.244V17.244z"/>
	<g id="g7505" transform="translate(-34.33791)">
		<g id="g7485">
			
				<linearGradient id="polygon7483_2_" gradientUnits="userSpaceOnUse" x1="146.0235" y1="1541.918" x2="146.0235" y2="1548.3359" gradientTransform="matrix(1 0 0 1 -102.7754 -1534)">
				<stop  offset="0" style="stop-color:#58DB17"/>
				<stop  offset="1" style="stop-color:#45BF08"/>
			</linearGradient>
			<polygon id="polygon7483" fill="url(#polygon7483_2_)" points="42.37,14.336 46.691,7.918 42.114,12.302 40.723,10.847 
				39.803,11.769 			"/>
		</g>
	</g>
	<g id="g7505_1_" transform="translate(-34.33791)">
		<g id="g7485_1_">
			
				<linearGradient id="polygon7483_3_" gradientUnits="userSpaceOnUse" x1="146.0235" y1="1547.918" x2="146.0235" y2="1554.3359" gradientTransform="matrix(1 0 0 1 -102.7754 -1534)">
				<stop  offset="0" style="stop-color:#58DB17"/>
				<stop  offset="1" style="stop-color:#45BF08"/>
			</linearGradient>
			<polygon id="polygon7483_1_" fill="url(#polygon7483_3_)" points="42.37,20.336 46.691,13.918 42.114,18.302 40.723,16.848 
				39.803,17.77 			"/>
		</g>
	</g>
	<rect x="12.249" y="11" fill="#999999" width="6.372" height="1"/>
	<rect x="12.249" y="19" fill="#999999" width="6.372" height="1"/>
	<rect x="12.249" y="17" fill="#999999" width="6.372" height="1"/>
</g>
</svg>
