<?xml version="1.0" encoding="UTF-8" standalone="no"?>
<svg
   xmlns:dc="http://purl.org/dc/elements/1.1/"
   xmlns:cc="http://creativecommons.org/ns#"
   xmlns:rdf="http://www.w3.org/1999/02/22-rdf-syntax-ns#"
   xmlns:svg="http://www.w3.org/2000/svg"
   xmlns="http://www.w3.org/2000/svg"
   xmlns:sodipodi="http://sodipodi.sourceforge.net/DTD/sodipodi-0.dtd"
   xmlns:inkscape="http://www.inkscape.org/namespaces/inkscape"
   height="24px"
   width="24px"
   viewBox="0 0 100 100"
   enable-background="new 0 0 100 100"
   version="1.1"
   id="svg32"
   sodipodi:docname="icon.svg"
   inkscape:version="0.92.2 5c3e80d, 2017-08-06">
  <metadata
     id="metadata38">
    <rdf:RDF>
      <cc:Work
         rdf:about="">
        <dc:format>image/svg+xml</dc:format>
        <dc:type
           rdf:resource="http://purl.org/dc/dcmitype/StillImage" />
        <dc:title></dc:title>
      </cc:Work>
    </rdf:RDF>
  </metadata>
  <defs
     id="defs36">
    <style
       id="style1183">
      .cls-1 {
        isolation: isolate;
      }

      .cls-2 {
        fill: none;
      }

      .cls-3 {
        fill: #6bc9a7;
      }

      .cls-4 {
        opacity: 0.15;
        mix-blend-mode: multiply;
      }

      .cls-5 {
        fill: #fff;
      }

      .cls-6 {
        fill: #cde6fc;
      }

      .cls-7 {
        fill: #8db7e2;
      }

      .cls-8 {
        opacity: 0.2;
      }

      .cls-9 {
        fill: #231f20;
      }

      .cls-10 {
        fill: #ddd;
      }

      .cls-11 {
        fill: #239630;
      }
    </style>
  </defs>
  <sodipodi:namedview
     pagecolor="#ffffff"
     bordercolor="#666666"
     borderopacity="1"
     objecttolerance="10"
     gridtolerance="10"
     guidetolerance="10"
     inkscape:pageopacity="0"
     inkscape:pageshadow="2"
     inkscape:window-width="1689"
     inkscape:window-height="1016"
     id="namedview34"
     showgrid="false"
     inkscape:zoom="26.567553"
     inkscape:cx="13.474427"
     inkscape:cy="8.9139574"
     inkscape:window-x="75"
     inkscape:window-y="47"
     inkscape:window-maximized="0"
     inkscape:current-layer="svg32" />
  <g
     stroke-miterlimit="10"
     id="g22"
     style="display:none;stroke-miterlimit:10">
    <g
       id="g14"
       style="stroke-width:3;stroke-linecap:round;stroke-linejoin:round">
      <g
         id="g10"
         style="stroke:#999999"
         transform="translate(29.166667)">
        <g
           id="g6"
           style="fill:#ffffff">
          <path
             d="m 41.566667,28.1 h 18.4 l -23.3,-24.1 v 18.9 c 0,2.8 2.2,5.2 4.9,5.2 z"
             id="path2"
             inkscape:connector-curvature="0" />
          <path
             d="m 41.566667,28.1 c -2.7,0 -4.8,-2.3 -4.8,-5.2 V 4 H -8.5666667 c -2.7000003,0 -4.8000003,2.3 -4.8000003,5.2 v 83.2 c 0,2.9 2.1,5.2 4.8000003,5.2 H 55.066667 c 2.7,0 4.8,-2.3 4.8,-5.2 V 28.1 Z"
             id="path4"
             inkscape:connector-curvature="0"
             sodipodi:nodetypes="sscsssssscs" />
        </g>
      </g>
    </g>
  </g>
  <style
     id="style131"
     type="text/css">
	.st0{fill:#1D1D1D;}
	.st1{fill:#FFFFFF;}
</style>
  <style
     id="style900"
     type="text/css">
	.st0{fill:none;}
	.st1{fill:#88C87A;}
	.st2{opacity:0.15;}
	.st3{fill:#231F20;}
	.st4{fill:#FFFFFF;}
	.st5{fill:#F05F5F;}
</style>
  <g
     id="g1249"
     class="cls-1"
     style="isolation:isolate"
     transform="matrix(0.45252388,0,0,0.45252388,-40.161763,-1.9355762)">
    <g
       data-name="Layer 2"
       id="Layer_2-7">
      <g
         data-name="multiple choice"
         id="multiple_choice">
        <g
           id="g1243">
          <rect
             id="rect1189"
             height="38.869999"
             width="69.110001"
             y="96.910004"
             x="153.72"
             class="cls-2"
             style="fill:none" />
          <circle
             id="circle1191"
             r="85"
             cy="113.5"
             cx="204"
             class="cls-3"
             style="fill:#6bc9a7" />
          <g
             id="g1241">
            <g
               id="g1199">
              <g
                 id="g1195"
                 class="cls-4"
                 style="opacity:0.15;mix-blend-mode:multiply">
                <rect
                   id="rect1193"
                   height="86"
                   width="110"
                   y="74.5"
                   x="153" />
              </g>
              <rect
                 id="rect1197"
                 height="85"
                 width="112"
                 y="71.5"
                 x="148"
                 class="cls-5"
                 style="fill:#ffffff" />
            </g>
            <g
               id="g1239">
              <g
                 id="g1207">
                <path
                   id="path1201"
                   d="m 252,142.36 a 6.54,6.54 0 0 1 -6.09,6.14 h -84.55 c -3.16,0 -5.36,-3.14 -5.36,-6.14 v -8.11 c 0,-3 2.19,-4.74 5.36,-4.74 h 84.55 c 3.16,0 6.09,1.74 6.09,4.74 z"
                   class="cls-6"
                   inkscape:connector-curvature="0"
                   style="fill:#cde6fc" />
                <rect
                   id="rect1203"
                   height="8"
                   width="48"
                   y="134.5"
                   x="173"
                   class="cls-7"
                   style="fill:#8db7e2" />
                <rect
                   id="rect1205"
                   height="8"
                   width="8"
                   y="134.5"
                   x="161"
                   class="cls-7"
                   style="fill:#8db7e2" />
              </g>
              <g
                 id="g1225">
                <g
                   id="g1215"
                   class="cls-8"
                   style="opacity:0.2">
                  <rect
                     id="rect1209"
                     ry="5.4400001"
                     rx="5.4400001"
                     height="18.66"
                     width="96.059998"
                     y="106.24"
                     x="155.97"
                     class="cls-9"
                     style="fill:#231f20" />
                  <rect
                     id="rect1211"
                     height="7.4299998"
                     width="24.02"
                     y="112.12"
                     x="172.73"
                     class="cls-9"
                     style="fill:#231f20" />
                  <path
                     id="path1213"
                     d="m 167.37,113.5 v 4.66 h -4.66 v -4.66 h 4.66 m 1.38,-1.38 h -7.43 v 7.43 h 7.43 z"
                     class="cls-9"
                     inkscape:connector-curvature="0"
                     style="fill:#231f20" />
                </g>
                <g
                   id="g1223">
                  <rect
                     id="rect1217"
                     ry="5.4400001"
                     rx="5.4400001"
                     height="18.66"
                     width="96.059998"
                     y="104.52"
                     x="155.97"
                     class="cls-10"
                     style="fill:#dddddd" />
                  <rect
                     id="rect1219"
                     height="7.4299998"
                     width="24.02"
                     y="110.39"
                     x="172.73"
                     class="cls-7"
                     style="fill:#8db7e2" />
                  <path
                     id="path1221"
                     d="m 167.37,111.77 v 4.66 h -4.66 v -4.66 h 4.66 m 1.38,-1.38 h -7.43 v 7.43 h 7.43 z"
                     class="cls-7"
                     inkscape:connector-curvature="0"
                     style="fill:#8db7e2" />
                </g>
              </g>
              <g
                 id="g1233">
                <path
                   id="path1227"
                   d="m 252,93.36 a 6.54,6.54 0 0 1 -6.09,6.14 H 161.36 C 158.2,99.5 156,96.36 156,93.36 v -8.12 c 0,-3 2.19,-4.74 5.36,-4.74 h 84.55 c 3.16,0 6.09,1.74 6.09,4.74 z"
                   class="cls-6"
                   inkscape:connector-curvature="0"
                   style="fill:#cde6fc" />
                <rect
                   id="rect1229"
                   height="7"
                   width="59"
                   y="86.5"
                   x="173"
                   class="cls-7"
                   style="fill:#8db7e2" />
                <rect
                   id="rect1231"
                   height="7"
                   width="8"
                   y="86.5"
                   x="161"
                   class="cls-7"
                   style="fill:#8db7e2" />
              </g>
              <path
                 id="path1235"
                 d="m 247.53,87.09 -5.88,5.91 -1.11,1.11 a 0.79,0.79 0 0 1 -1.11,0 l -1.1,-1.11 -2.94,-3 a 0.79,0.79 0 0 1 0,-1.11 l 1.11,-1.11 a 0.79,0.79 0 0 1 1.11,0 l 2.39,2.4 5.33,-5.34 a 0.79,0.79 0 0 1 1.11,0 l 1.09,1.16 a 0.79,0.79 0 0 1 0,1.11 z"
                 class="cls-11"
                 inkscape:connector-curvature="0"
                 style="fill:#239630" />
              <path
                 id="path1237"
                 d="m 247.53,135.22 -5.89,5.89 -1.11,1.11 a 0.79,0.79 0 0 1 -1.11,0 l -1.11,-1.11 -2.94,-2.94 a 0.79,0.79 0 0 1 0,-1.11 l 1.11,-1.11 a 0.79,0.79 0 0 1 1.11,0 l 2.39,2.4 5.33,-5.34 a 0.79,0.79 0 0 1 1.11,0 l 1.11,1.11 a 0.79,0.79 0 0 1 0,1.11 z"
                 class="cls-11"
                 inkscape:connector-curvature="0"
                 style="fill:#239630" />
            </g>
          </g>
        </g>
        <rect
           id="rect1245"
           height="225"
           width="400"
           class="cls-2"
           x="0"
           y="0"
           style="fill:none" />
      </g>
    </g>
  </g>
</svg>
