<?xml version="1.0" encoding="UTF-8" standalone="no"?>
<svg
   xmlns:dc="http://purl.org/dc/elements/1.1/"
   xmlns:cc="http://creativecommons.org/ns#"
   xmlns:rdf="http://www.w3.org/1999/02/22-rdf-syntax-ns#"
   xmlns:svg="http://www.w3.org/2000/svg"
   xmlns="http://www.w3.org/2000/svg"
   xmlns:sodipodi="http://sodipodi.sourceforge.net/DTD/sodipodi-0.dtd"
   xmlns:inkscape="http://www.inkscape.org/namespaces/inkscape"
   height="24px"
   width="24px"
   viewBox="0 0 100 100"
   enable-background="new 0 0 100 100"
   version="1.1"
   id="svg32"
   sodipodi:docname="icon.svg"
   inkscape:version="0.92.2 5c3e80d, 2017-08-06">
  <metadata
     id="metadata38">
    <rdf:RDF>
      <cc:Work
         rdf:about="">
        <dc:format>image/svg+xml</dc:format>
        <dc:type
           rdf:resource="http://purl.org/dc/dcmitype/StillImage" />
        <dc:title></dc:title>
      </cc:Work>
    </rdf:RDF>
  </metadata>
  <defs
     id="defs36">
    <style
       id="style1183">
      .cls-1 {
        isolation: isolate;
      }

      .cls-2 {
        fill: none;
      }

      .cls-3 {
        fill: #6bc9a7;
      }

      .cls-4 {
        opacity: 0.15;
        mix-blend-mode: multiply;
      }

      .cls-5 {
        fill: #fff;
      }

      .cls-6 {
        fill: #cde6fc;
      }

      .cls-7 {
        fill: #8db7e2;
      }

      .cls-8 {
        opacity: 0.2;
      }

      .cls-9 {
        fill: #231f20;
      }

      .cls-10 {
        fill: #ddd;
      }

      .cls-11 {
        fill: #239630;
      }
    </style>
    <style
       id="style244">
      .cls-1 {
        isolation: isolate;
      }

      .cls-2 {
        fill: #56b5ef;
      }

      .cls-3 {
        opacity: 0.15;
        mix-blend-mode: multiply;
      }

      .cls-4 {
        fill: #fff;
      }

      .cls-5 {
        opacity: 0.2;
      }

      .cls-6 {
        fill: #231f20;
      }

      .cls-7 {
        fill: #ddd;
      }

      .cls-8 {
        fill: #8db7e2;
      }

      .cls-9 {
        fill: none;
      }
    </style>
    <style
       id="style755">
      .cls-1 {
        isolation: isolate;
      }

      .cls-2 {
        fill: #fc7e8a;
      }

      .cls-3, .cls-6 {
        opacity: 0.15;
      }

      .cls-3 {
        mix-blend-mode: multiply;
      }

      .cls-4 {
        fill: #fff;
      }

      .cls-5 {
        fill: #8db7e2;
      }

      .cls-7 {
        fill: #231f20;
      }

      .cls-8 {
        fill: #6cd389;
      }

      .cls-9 {
        fill: #239630;
      }

      .cls-10 {
        fill: #686868;
      }

      .cls-11 {
        fill: #1d9eff;
      }

      .cls-12 {
        opacity: 0.2;
      }

      .cls-13 {
        fill: #ddd;
      }

      .cls-14 {
        fill: none;
      }
    </style>
    <style
       id="style1284">
      .cls-1 {
        isolation: isolate;
      }

      .cls-2 {
        fill: #b28de2;
      }

      .cls-3 {
        opacity: 0.15;
        mix-blend-mode: multiply;
      }

      .cls-4 {
        fill: #fff;
      }

      .cls-5 {
        fill: #ddd;
      }

      .cls-6 {
        opacity: 0.1;
      }

      .cls-7 {
        fill: #231f20;
      }

      .cls-8 {
        fill: #6cd389;
      }

      .cls-9 {
        fill: #8db7e2;
      }

      .cls-10 {
        fill: #e29696;
      }

      .cls-11 {
        fill: none;
      }
    </style>
  </defs>
  <sodipodi:namedview
     pagecolor="#ffffff"
     bordercolor="#666666"
     borderopacity="1"
     objecttolerance="10"
     gridtolerance="10"
     guidetolerance="10"
     inkscape:pageopacity="0"
     inkscape:pageshadow="2"
     inkscape:window-width="1440"
     inkscape:window-height="856"
     id="namedview34"
     showgrid="false"
     inkscape:zoom="20.886475"
     inkscape:cx="12.629577"
     inkscape:cy="10.818107"
     inkscape:window-x="75"
     inkscape:window-y="47"
     inkscape:window-maximized="0"
     inkscape:current-layer="svg32" />
  <g
     stroke-miterlimit="10"
     id="g22"
     style="display:none;stroke-miterlimit:10">
    <g
       id="g14"
       style="stroke-width:3;stroke-linecap:round;stroke-linejoin:round">
      <g
         id="g10"
         style="stroke:#999999"
         transform="translate(29.166667)">
        <g
           id="g6"
           style="fill:#ffffff">
          <path
             d="m 41.566667,28.1 h 18.4 l -23.3,-24.1 v 18.9 c 0,2.8 2.2,5.2 4.9,5.2 z"
             id="path2"
             inkscape:connector-curvature="0" />
          <path
             d="m 41.566667,28.1 c -2.7,0 -4.8,-2.3 -4.8,-5.2 V 4 H -8.5666667 c -2.7000003,0 -4.8000003,2.3 -4.8000003,5.2 v 83.2 c 0,2.9 2.1,5.2 4.8000003,5.2 H 55.066667 c 2.7,0 4.8,-2.3 4.8,-5.2 V 28.1 Z"
             id="path4"
             inkscape:connector-curvature="0"
             sodipodi:nodetypes="sscsssssscs" />
        </g>
      </g>
    </g>
  </g>
  <style
     id="style131"
     type="text/css">
	.st0{fill:#1D1D1D;}
	.st1{fill:#FFFFFF;}
</style>
  <style
     id="style900"
     type="text/css">
	.st0{fill:none;}
	.st1{fill:#88C87A;}
	.st2{opacity:0.15;}
	.st3{fill:#231F20;}
	.st4{fill:#FFFFFF;}
	.st5{fill:#F05F5F;}
</style>
  <g
     id="g1348"
     class="cls-1"
     style="isolation:isolate"
     transform="matrix(0.45284488,0,0,0.45284488,-39.895833,-2.1442647)">
    <g
       data-name="Layer 2"
       id="Layer_2">
      <g
         id="summary">
        <g
           id="g1342">
          <circle
             id="circle1290"
             r="85"
             cy="113.5"
             cx="204"
             class="cls-2"
             style="fill:#b28de2" />
          <g
             id="g1298">
            <g
               id="g1294"
               class="cls-3"
               style="opacity:0.15;mix-blend-mode:multiply">
              <rect
                 id="rect1292"
                 height="90"
                 width="104"
                 y="71.5"
                 x="154" />
            </g>
            <rect
               id="rect1296"
               height="89"
               width="105"
               y="69.5"
               x="151"
               class="cls-4"
               style="fill:#ffffff" />
          </g>
          <rect
             id="rect1300"
             height="1"
             width="105"
             y="91.5"
             x="151"
             class="cls-5"
             style="fill:#dddddd" />
          <polygon
             id="polygon1302"
             points="150.84,114.5 257.16,114.5 "
             class="cls-5"
             style="fill:#dddddd" />
          <rect
             id="rect1304"
             height="1"
             width="105"
             y="135.5"
             x="151"
             class="cls-5"
             style="fill:#dddddd" />
          <rect
             id="rect1306"
             height="1"
             width="105"
             y="113.5"
             x="151"
             class="cls-5"
             style="fill:#dddddd" />
          <g
             id="g1314">
            <g
               id="g1310"
               class="cls-6"
               style="opacity:0.1">
              <path
                 id="path1308"
                 d="m 251.43,100.3 -8.21,8.21 -1.54,1.54 a 1.1,1.1 0 0 1 -1.54,0 l -1.54,-1.54 -4.11,-4.11 a 1.1,1.1 0 0 1 0,-1.54 l 1.54,-1.54 a 1.1,1.1 0 0 1 1.54,0 l 3.33,3.35 7.44,-7.45 a 1.1,1.1 0 0 1 1.54,0 l 1.54,1.54 a 1.1,1.1 0 0 1 0,1.54 z"
                 class="cls-7"
                 inkscape:connector-curvature="0"
                 style="fill:#231f20" />
            </g>
            <path
               id="path1312"
               d="m 249.71,98.57 -8.21,8.21 -1.5,1.54 a 1.1,1.1 0 0 1 -1.54,0 l -1.54,-1.54 -4.11,-4.11 a 1.1,1.1 0 0 1 0,-1.54 l 1.54,-1.54 a 1.1,1.1 0 0 1 1.54,0 l 3.33,3.35 7.44,-7.45 a 1.1,1.1 0 0 1 1.54,0 l 1.51,1.51 a 1.1,1.1 0 0 1 0,1.54 z"
               class="cls-8"
               inkscape:connector-curvature="0"
               style="fill:#6cd389" />
          </g>
          <rect
             id="rect1316"
             height="7"
             width="55"
             y="99.5"
             x="159"
             class="cls-9"
             style="fill:#8db7e2" />
          <g
             id="g1324">
            <g
               id="g1320"
               class="cls-6"
               style="opacity:0.1">
              <path
                 id="path1318"
                 d="m 251.43,122.58 -8.21,8.21 -1.54,1.54 a 1.1,1.1 0 0 1 -1.54,0 l -1.54,-1.54 -4.11,-4.11 a 1.1,1.1 0 0 1 0,-1.54 L 236,123.6 a 1.1,1.1 0 0 1 1.54,0 l 3.33,3.35 7.44,-7.45 a 1.1,1.1 0 0 1 1.54,0 l 1.54,1.54 a 1.1,1.1 0 0 1 0,1.54 z"
                 class="cls-7"
                 inkscape:connector-curvature="0"
                 style="fill:#231f20" />
            </g>
            <path
               id="path1322"
               d="m 249.71,120.85 -8.21,8.21 -1.5,1.55 a 1.1,1.1 0 0 1 -1.54,0 l -1.54,-1.54 -4.16,-4.07 a 1.1,1.1 0 0 1 0,-1.54 l 1.54,-1.54 a 1.1,1.1 0 0 1 1.54,0 l 3.33,3.35 7.44,-7.45 a 1.1,1.1 0 0 1 1.54,0 l 1.54,1.54 a 1.1,1.1 0 0 1 0,1.54 z"
               class="cls-8"
               inkscape:connector-curvature="0"
               style="fill:#6cd389" />
          </g>
          <rect
             id="rect1326"
             height="7"
             width="35"
             y="121.5"
             x="159"
             class="cls-9"
             style="fill:#8db7e2" />
          <g
             id="g1334">
            <g
               id="g1330"
               class="cls-6"
               style="opacity:0.1">
              <path
                 id="path1328"
                 d="m 251.43,144.74 -8.21,8.21 -1.54,1.54 a 1.1,1.1 0 0 1 -1.54,0 l -1.54,-1.54 -4.11,-4.11 a 1.1,1.1 0 0 1 0,-1.54 l 1.54,-1.54 a 1.1,1.1 0 0 1 1.54,0 l 3.33,3.35 7.44,-7.45 a 1.1,1.1 0 0 1 1.54,0 l 1.54,1.54 a 1.1,1.1 0 0 1 0,1.54 z"
                 class="cls-7"
                 inkscape:connector-curvature="0"
                 style="fill:#231f20" />
            </g>
            <path
               id="path1332"
               d="m 249.71,143 -8.21,8.21 -1.5,1.55 a 1.1,1.1 0 0 1 -1.54,0 l -1.54,-1.54 -4.11,-4.11 a 1.1,1.1 0 0 1 0,-1.54 L 234.3,144 a 1.1,1.1 0 0 1 1.54,0 l 3.33,3.35 7.44,-7.45 a 1.1,1.1 0 0 1 1.54,0 l 1.54,1.54 a 1.1,1.1 0 0 1 0,1.54 z"
               class="cls-8"
               inkscape:connector-curvature="0"
               style="fill:#6cd389" />
          </g>
          <rect
             id="rect1336"
             height="7"
             width="52"
             y="144.5"
             x="159"
             class="cls-9"
             style="fill:#8db7e2" />
          <circle
             id="circle1338"
             r="5.3899999"
             cy="79.940002"
             cx="227.12"
             class="cls-10"
             style="fill:#e29696" />
          <circle
             id="circle1340"
             r="5.3899999"
             cy="79.940002"
             cx="244.39999"
             class="cls-8"
             style="fill:#6cd389" />
        </g>
        <rect
           id="rect1344"
           height="225"
           width="400"
           class="cls-11"
           x="0"
           y="0"
           style="fill:none" />
      </g>
    </g>
  </g>
</svg>
