<?xml version="1.0" encoding="UTF-8" standalone="no"?>
<svg
   xmlns:dc="http://purl.org/dc/elements/1.1/"
   xmlns:cc="http://creativecommons.org/ns#"
   xmlns:rdf="http://www.w3.org/1999/02/22-rdf-syntax-ns#"
   xmlns:svg="http://www.w3.org/2000/svg"
   xmlns="http://www.w3.org/2000/svg"
   xmlns:sodipodi="http://sodipodi.sourceforge.net/DTD/sodipodi-0.dtd"
   xmlns:inkscape="http://www.inkscape.org/namespaces/inkscape"
   height="24px"
   width="24px"
   viewBox="0 0 100 100"
   enable-background="new 0 0 100 100"
   version="1.1"
   id="svg32"
   sodipodi:docname="icon.svg"
   inkscape:version="0.92.2 5c3e80d, 2017-08-06">
  <metadata
     id="metadata38">
    <rdf:RDF>
      <cc:Work
         rdf:about="">
        <dc:format>image/svg+xml</dc:format>
        <dc:type
           rdf:resource="http://purl.org/dc/dcmitype/StillImage" />
        <dc:title></dc:title>
      </cc:Work>
    </rdf:RDF>
  </metadata>
  <defs
     id="defs36">
    <style
       id="style1183">
      .cls-1 {
        isolation: isolate;
      }

      .cls-2 {
        fill: none;
      }

      .cls-3 {
        fill: #6bc9a7;
      }

      .cls-4 {
        opacity: 0.15;
        mix-blend-mode: multiply;
      }

      .cls-5 {
        fill: #fff;
      }

      .cls-6 {
        fill: #cde6fc;
      }

      .cls-7 {
        fill: #8db7e2;
      }

      .cls-8 {
        opacity: 0.2;
      }

      .cls-9 {
        fill: #231f20;
      }

      .cls-10 {
        fill: #ddd;
      }

      .cls-11 {
        fill: #239630;
      }
    </style>
    <style
       id="style1586">
      .cls-1 {
        fill: #ea964d;
      }

      .cls-2 {
        fill: #f0f1f5;
      }

      .cls-3 {
        fill: #b8b8bf;
      }

      .cls-4 {
        fill: #34495e;
      }

      .cls-5 {
        fill: #e94c3d;
      }

      .cls-6 {
        fill: #c1392b;
      }

      .cls-7 {
        fill: #3497da;
      }

      .cls-8 {
        fill: #2a80bb;
      }

      .cls-9 {
        fill: #2c3e50;
        opacity: 0.1;
      }

      .cls-10 {
        fill: #8e44ad;
      }

      .cls-11 {
        fill: none;
      }
    </style>
    <style
       id="style6156">
      .cls-1 {
        fill: #f06060;
      }

      .cls-2 {
        opacity: 0.15;
      }

      .cls-3 {
        fill: #231f20;
      }

      .cls-4 {
        fill: #fff;
      }

      .cls-5 {
        fill: #79aad3;
      }

      .cls-6 {
        fill: #b0afad;
      }

      .cls-7 {
        fill: none;
      }
    </style>
    <style
       id="style217">
      .cls-1 {
        isolation: isolate;
      }

      .cls-2 {
        fill: #d35400;
      }

      .cls-3 {
        opacity: 0.25;
        mix-blend-mode: multiply;
      }

      .cls-4 {
        fill: #fff;
      }

      .cls-5 {
        fill: #34495e;
      }

      .cls-6 {
        fill: #2ecc71;
      }

      .cls-7 {
        fill: #2980b9;
      }

      .cls-8 {
        fill: none;
      }
    </style>
    <style
       id="style504">
      .cls-1 {
        isolation: isolate;
      }

      .cls-2 {
        fill: #97baf6;
      }

      .cls-3 {
        fill: #dedede;
      }

      .cls-4 {
        opacity: 0.2;
        mix-blend-mode: multiply;
      }

      .cls-5 {
        fill: #62c485;
      }

      .cls-6 {
        fill: #34495e;
      }

      .cls-7 {
        fill: none;
      }
    </style>
    <rect
       height="225"
       width="400"
       id="SVGID_1_" />
  </defs>
  <sodipodi:namedview
     pagecolor="#ffffff"
     bordercolor="#666666"
     borderopacity="1"
     objecttolerance="10"
     gridtolerance="10"
     guidetolerance="10"
     inkscape:pageopacity="0"
     inkscape:pageshadow="2"
     inkscape:window-width="1440"
     inkscape:window-height="856"
     id="namedview34"
     showgrid="false"
     inkscape:zoom="25.245391"
     inkscape:cx="12.028526"
     inkscape:cy="10.618425"
     inkscape:window-x="75"
     inkscape:window-y="47"
     inkscape:window-maximized="0"
     inkscape:current-layer="svg32" />
  <g
     stroke-miterlimit="10"
     id="g22"
     style="display:none;stroke-miterlimit:10">
    <g
       id="g14"
       style="stroke-width:3;stroke-linecap:round;stroke-linejoin:round">
      <g
         id="g10"
         style="stroke:#999999"
         transform="translate(29.166667)">
        <g
           id="g6"
           style="fill:#ffffff">
          <path
             d="m 41.566667,28.1 h 18.4 l -23.3,-24.1 v 18.9 c 0,2.8 2.2,5.2 4.9,5.2 z"
             id="path2"
             inkscape:connector-curvature="0" />
          <path
             d="m 41.566667,28.1 c -2.7,0 -4.8,-2.3 -4.8,-5.2 V 4 H -8.5666667 c -2.7000003,0 -4.8000003,2.3 -4.8000003,5.2 v 83.2 c 0,2.9 2.1,5.2 4.8000003,5.2 H 55.066667 c 2.7,0 4.8,-2.3 4.8,-5.2 V 28.1 Z"
             id="path4"
             inkscape:connector-curvature="0"
             sodipodi:nodetypes="sscsssssscs" />
        </g>
      </g>
    </g>
  </g>
  <style
     id="style131"
     type="text/css">
	.st0{fill:#1D1D1D;}
	.st1{fill:#FFFFFF;}
</style>
  <style
     id="style900"
     type="text/css">
	.st0{fill:none;}
	.st1{fill:#88C87A;}
	.st2{opacity:0.15;}
	.st3{fill:#231F20;}
	.st4{fill:#FFFFFF;}
	.st5{fill:#F05F5F;}
</style>
  <style
     id="style214"
     type="text/css">
	.st0{fill:#DDDDDD;}
	.st1{fill:#C6C6C6;}
	.st2{fill:#8DB7E2;}
	.st3{fill:#2376C1;}
	.st4{fill:none;}
</style>
  <style
     id="style294"
     type="text/css">
	.st0{clip-path:url(#SVGID_2_);fill:#DEDEDE;}
	.st1{opacity:0.2;clip-path:url(#SVGID_2_);}
	.st2{fill:#C1C1BC;}
	.st3{fill:#9B9B9B;}
	.st4{clip-path:url(#SVGID_2_);}
	.st5{fill:#E9EAE0;}
	.st6{fill:#FFFFFF;}
	.st7{fill:#080808;}
	.st8{fill:#C88F6A;}
	.st9{fill:#DCA283;}
	.st10{fill:#7B4A32;}
	.st11{fill:#A0BBE1;}
	.st12{fill:#59595B;}
	.st13{fill:#8BC97B;}
	.st14{opacity:0.2;clip-path:url(#SVGID_2_);enable-background:new    ;}
	.st15{fill:#010101;}
	.st16{clip-path:url(#SVGID_2_);fill:#FFFFFF;}
	.st17{clip-path:url(#SVGID_2_);fill:#A0BBE1;}
	.st18{fill:#E64F3E;}
	.st19{fill:#C12E3C;}
</style>
  <style
     id="style1141"
     type="text/css">
	.st0{fill:none;}
	.st1{fill:#CECECE;}
	.st2{fill:#FFFFFF;}
	.st3{fill:#FAC361;}
	.st4{fill:#97BAF6;}
	.st5{fill:#F0F1F5;}
	.st6{fill:#3C5F84;}
	.st7{opacity:0.2;}
	.st8{fill:#51BC86;}
</style>
  <g
     id="Layer_2"
     transform="matrix(0.41921843,0,0,0.41921843,-35.095833,0.23835325)">
    <g
       id="interactive_video">
      <rect
         id="rect1145"
         height="225"
         width="400"
         class="st0"
         x="0"
         y="0"
         style="fill:none" />
      <g
         id="g1153">
        <g
           id="g1151">
          <g
             id="g1149">
            <path
               id="path1147"
               d="m 225.5,110.6 h -2.4 v -3 h 2.4 c 0.3,0 0.5,0 0.8,-0.1 l 1.5,-0.3 0.5,3 -1.5,0.3 c -0.4,0 -0.8,0.1 -1.3,0.1 z m -6.4,0 h -5 v -3 h 5 z m -9,0 h -5 v -3 h 5 z m -9,0 h -5 v -3 h 5 z m -9,0 h -5 v -3 h 5 z m -9,0 h -2.3 c -0.5,0 -1,0 -1.5,-0.1 l -1.5,-0.3 0.6,-2.9 1.5,0.3 c 0.3,0.1 0.6,0.1 0.9,0.1 h 2.3 z m 49.4,-4.2 -2.9,-0.9 0.5,-1.4 c 0.2,-0.5 0.3,-1 0.3,-1.6 l 0.1,-1.5 3,0.1 -0.1,1.5 c 0,0.8 -0.2,1.6 -0.4,2.4 z m -58.7,-0.1 -0.4,-1.4 c -0.2,-0.8 -0.4,-1.6 -0.4,-2.4 V 101 l 3,-0.1 v 1.5 c 0,0.5 0.1,1.1 0.3,1.6 l 0.4,1.4 z M 233.4,97 h -3 v -5 h 3 z m -57.5,-0.1 h -3 v -5 h 3 z M 233.4,88 h -3 v -5 h 3 z m -57.5,-0.1 h -3 v -5 h 3 z M 233.4,79 h -3 v -5 h 3 z m -57.5,-0.1 h -3 v -5 h 3 z M 233.4,70 h -3 v -5 h 3 z m -57.5,-0.1 h -3 v -5 h 3 z M 233.4,61 h -3 v -5 h 3 z m -57.5,-0.1 h -3 v -5 h 3 z M 233.4,52 h -3 v -2.5 c 0,-0.3 0,-0.5 -0.1,-0.8 l -0.2,-1.5 3,-0.4 0.2,1.5 c 0.1,0.4 0.1,0.8 0.1,1.2 z m -57.5,-0.1 h -3 v -2.4 c 0,-0.5 0,-0.9 0.1,-1.4 l 0.2,-1.5 3,0.5 -0.2,1.5 c 0,0.3 -0.1,0.6 -0.1,0.9 z m 52.8,-6.8 -1.4,-0.6 c -0.5,-0.2 -1,-0.3 -1.5,-0.3 h -0.3 -3.5 v -3 h 2.5 v -0.1 l 1.3,0.1 h 1.3 v 0.2 c 0.5,0.1 0.9,0.2 1.4,0.4 l 1.4,0.6 z m -50.9,0 -1.1,-2.8 1.4,-0.6 c 0.8,-0.3 1.6,-0.5 2.4,-0.5 l 1.5,-0.1 0.1,3 -1.5,0.1 c -0.5,0 -1,0.1 -1.5,0.3 z M 218,44.2 h -5 v -3 h 5 z m -9,0 h -5 v -3 h 5 z m -9,0 h -5 v -3 h 5 z m -9,0 h -5 v -3 h 5 z"
               class="st1"
               inkscape:connector-curvature="0"
               style="fill:#cecece" />
          </g>
        </g>
      </g>
      <g
         id="g1167">
        <g
           id="g1161">
          <rect
             id="rect1155"
             height="45.299999"
             width="53.700001"
             class="st2"
             y="45"
             x="109.3"
             style="fill:#ffffff" />
          <circle
             id="circle1157"
             r="6.3000002"
             cy="58.700001"
             cx="123.2"
             class="st3"
             style="fill:#fac361" />
          <path
             id="path1159"
             d="M 163.1,53.9 V 90.7 H 109.2 V 50 c 0,-1.9 1.6,-3.5 3.5,-3.5 h 47 c 1.9,0 3.5,1.6 3.5,3.5 v 3.9 z m -2.5,-13.3 h -49 c -3.9,0 -7,3.1 -7,7 v 56.3 c 0,3.9 3.1,7 7,7 h 49 c 3.9,0 7,-3.1 7,-7 V 47.6 c 0,-3.8 -3.1,-7 -7,-7 z"
             class="st4"
             inkscape:connector-curvature="0"
             style="fill:#97baf6" />
        </g>
        <path
           id="path1163"
           d="m 154.5,98.6 h -36.8 c -0.7,0 -1.3,-0.6 -1.3,-1.3 v -1 c 0,-0.7 0.6,-1.3 1.3,-1.3 h 36.8 c 0.7,0 1.3,0.6 1.3,1.3 v 1 c 0,0.7 -0.6,1.3 -1.3,1.3 z"
           class="st5"
           inkscape:connector-curvature="0"
           style="fill:#f0f1f5" />
        <path
           id="path1165"
           d="m 145.9,101.9 h -19.5 c -0.7,0 -1.3,0.6 -1.3,1.3 v 1 c 0,0.7 0.6,1.3 1.3,1.3 h 19.5 c 0.7,0 1.3,-0.6 1.3,-1.3 v -1 c -0.1,-0.7 -0.6,-1.3 -1.3,-1.3 z"
           class="st5"
           inkscape:connector-curvature="0"
           style="fill:#f0f1f5" />
      </g>
      <g
         id="g1181">
        <g
           id="g1175">
          <rect
             id="rect1169"
             height="45.299999"
             width="53.700001"
             class="st2"
             y="119.3"
             x="243.8"
             style="fill:#ffffff" />
          <circle
             id="circle1171"
             r="6.3000002"
             cy="133"
             cx="257.70001"
             class="st3"
             style="fill:#fac361" />
          <path
             id="path1173"
             d="M 297.6,130.8 V 165 h -53.9 v -40.7 c 0,-1.9 1.6,-3.5 3.5,-3.5 h 47 c 1.9,0 3.5,1.6 3.5,3.5 v 6.5 z M 295.1,115 h -49 c -3.9,0 -7,3.1 -7,7 v 56.3 c 0,3.9 3.1,7 7,7 h 49 c 3.9,0 7,-3.1 7,-7 V 122 c 0,-3.9 -3.1,-7 -7,-7 z"
             class="st4"
             inkscape:connector-curvature="0"
             style="fill:#97baf6" />
        </g>
        <path
           id="path1177"
           d="m 289,172.9 h -36.8 c -0.7,0 -1.3,-0.6 -1.3,-1.3 v -1 c 0,-0.7 0.6,-1.3 1.3,-1.3 H 289 c 0.7,0 1.3,0.6 1.3,1.3 v 1 c 0,0.7 -0.6,1.3 -1.3,1.3 z"
           class="st5"
           inkscape:connector-curvature="0"
           style="fill:#f0f1f5" />
        <path
           id="path1179"
           d="m 280.3,176.2 h -19.5 c -0.7,0 -1.3,0.6 -1.3,1.3 v 1 c 0,0.7 0.6,1.3 1.3,1.3 h 19.5 c 0.7,0 1.3,-0.6 1.3,-1.3 v -1 c 0,-0.7 -0.6,-1.3 -1.3,-1.3 z"
           class="st5"
           inkscape:connector-curvature="0"
           style="fill:#f0f1f5" />
      </g>
      <g
         id="g1195">
        <g
           id="g1189">
          <rect
             id="rect1183"
             height="45.299999"
             width="53.700001"
             class="st2"
             y="119.3"
             x="176.5"
             style="fill:#ffffff" />
          <circle
             id="circle1185"
             r="6.3000002"
             cy="133"
             cx="190.5"
             class="st3"
             style="fill:#fac361" />
          <path
             id="path1187"
             d="M 230.4,130.8 V 165 h -53.9 v -40.7 c 0,-1.9 1.6,-3.5 3.5,-3.5 h 47 c 1.9,0 3.5,1.6 3.5,3.5 v 6.5 z M 227.9,115 h -49 c -3.9,0 -7,3.1 -7,7 v 56.3 c 0,3.9 3.1,7 7,7 h 49 c 3.9,0 7,-3.1 7,-7 V 122 c -0.1,-3.9 -3.2,-7 -7,-7 z"
             class="st4"
             inkscape:connector-curvature="0"
             style="fill:#97baf6" />
        </g>
        <path
           id="path1191"
           d="M 221.7,172.9 H 185 c -0.7,0 -1.3,-0.6 -1.3,-1.3 v -1 c 0,-0.7 0.6,-1.3 1.3,-1.3 h 36.8 c 0.7,0 1.3,0.6 1.3,1.3 v 1 c -0.1,0.7 -0.7,1.3 -1.4,1.3 z"
           class="st5"
           inkscape:connector-curvature="0"
           style="fill:#f0f1f5" />
        <path
           id="path1193"
           d="m 213.1,176.2 h -19.5 c -0.7,0 -1.3,0.6 -1.3,1.3 v 1 c 0,0.7 0.6,1.3 1.3,1.3 h 19.5 c 0.7,0 1.3,-0.6 1.3,-1.3 v -1 c 0,-0.7 -0.6,-1.3 -1.3,-1.3 z"
           class="st5"
           inkscape:connector-curvature="0"
           style="fill:#f0f1f5" />
      </g>
      <g
         id="g1209">
        <g
           id="g1203">
          <rect
             id="rect1197"
             height="45.299999"
             width="53.700001"
             class="st2"
             y="119.3"
             x="109.3"
             style="fill:#ffffff" />
          <circle
             id="circle1199"
             r="6.3000002"
             cy="133"
             cx="123.2"
             class="st3"
             style="fill:#fac361" />
          <path
             id="path1201"
             d="M 163.1,130.8 V 165 h -53.9 v -40.7 c 0,-1.9 1.6,-3.5 3.5,-3.5 h 47 c 1.9,0 3.5,1.6 3.5,3.5 v 6.5 z M 160.6,115 h -49 c -3.9,0 -7,3.1 -7,7 v 56.3 c 0,3.9 3.1,7 7,7 h 49 c 3.9,0 7,-3.1 7,-7 V 122 c 0,-3.9 -3.1,-7 -7,-7 z"
             class="st4"
             inkscape:connector-curvature="0"
             style="fill:#97baf6" />
        </g>
        <path
           id="path1205"
           d="m 154.5,172.9 h -36.8 c -0.7,0 -1.3,-0.6 -1.3,-1.3 v -1 c 0,-0.7 0.6,-1.3 1.3,-1.3 h 36.8 c 0.7,0 1.3,0.6 1.3,1.3 v 1 c 0,0.7 -0.6,1.3 -1.3,1.3 z"
           class="st5"
           inkscape:connector-curvature="0"
           style="fill:#f0f1f5" />
        <path
           id="path1207"
           d="m 145.9,176.2 h -19.5 c -0.7,0 -1.3,0.6 -1.3,1.3 v 1 c 0,0.7 0.6,1.3 1.3,1.3 h 19.5 c 0.7,0 1.3,-0.6 1.3,-1.3 v -1 c -0.1,-0.7 -0.6,-1.3 -1.3,-1.3 z"
           class="st5"
           inkscape:connector-curvature="0"
           style="fill:#f0f1f5" />
      </g>
      <path
         id="path1211"
         d="m 159.9,150.2 3.1,2.4 V 165 h -53.9 v -5.2 l 10,-7.3 c 1.2,-0.9 3.2,-0.9 4.5,0 l 3.9,2.8 4.8,-3.5 12.6,-9.2 c 1.2,-0.9 3.2,-0.9 4.5,0 z"
         class="st6"
         inkscape:connector-curvature="0"
         style="fill:#3c5f84" />
      <path
         id="path1213"
         d="m 227.2,150.2 3.1,2.4 V 165 h -53.9 v -5.2 l 10,-7.3 c 1.2,-0.9 3.2,-0.9 4.5,0 l 3.9,2.8 4.8,-3.5 12.6,-9.2 c 1.2,-0.9 3.2,-0.9 4.5,0 z"
         class="st6"
         inkscape:connector-curvature="0"
         style="fill:#3c5f84" />
      <path
         id="path1215"
         d="m 294.4,150.2 3.1,2.4 V 165 h -53.9 v -5.2 l 10,-7.3 c 1.2,-0.9 3.2,-0.9 4.5,0 l 3.9,2.8 4.8,-3.5 12.6,-9.2 c 1.2,-0.9 3.2,-0.9 4.5,0 z"
         class="st6"
         inkscape:connector-curvature="0"
         style="fill:#3c5f84" />
      <g
         id="g1229">
        <g
           id="g1223">
          <rect
             id="rect1217"
             height="45.299999"
             width="53.700001"
             class="st2"
             y="45"
             x="243.8"
             style="fill:#ffffff" />
          <circle
             id="circle1219"
             r="6.3000002"
             cy="58.700001"
             cx="257.70001"
             class="st3"
             style="fill:#fac361" />
          <path
             id="path1221"
             d="M 297.6,56.5 V 90.6 H 243.7 V 50 c 0,-1.9 1.6,-3.5 3.5,-3.5 h 47 c 1.9,0 3.5,1.6 3.5,3.5 v 6.5 z m -2.5,-15.9 h -49 c -3.9,0 -7,3.1 -7,7 v 56.3 c 0,3.9 3.1,7 7,7 h 49 c 3.9,0 7,-3.1 7,-7 V 47.6 c 0,-3.8 -3.1,-7 -7,-7 z"
             class="st4"
             inkscape:connector-curvature="0"
             style="fill:#97baf6" />
        </g>
        <path
           id="path1225"
           d="m 289,98.6 h -36.8 c -0.7,0 -1.3,-0.6 -1.3,-1.3 v -1 c 0,-0.7 0.6,-1.3 1.3,-1.3 H 289 c 0.7,0 1.3,0.6 1.3,1.3 v 1 c 0,0.7 -0.6,1.3 -1.3,1.3 z"
           class="st5"
           inkscape:connector-curvature="0"
           style="fill:#f0f1f5" />
        <path
           id="path1227"
           d="m 280.3,101.9 h -19.5 c -0.7,0 -1.3,0.6 -1.3,1.3 v 1 c 0,0.7 0.6,1.3 1.3,1.3 h 19.5 c 0.7,0 1.3,-0.6 1.3,-1.3 v -1 c 0,-0.7 -0.6,-1.3 -1.3,-1.3 z"
           class="st5"
           inkscape:connector-curvature="0"
           style="fill:#f0f1f5" />
      </g>
      <path
         id="path1231"
         d="m 294.4,75.9 3.1,2.4 v 12.4 h -53.9 v -5.2 l 10,-7.3 c 1.2,-0.9 3.2,-0.9 4.5,0 l 3.9,2.8 4.8,-3.5 12.6,-9.2 c 1.2,-0.9 3.2,-0.9 4.5,0 z"
         class="st6"
         inkscape:connector-curvature="0"
         style="fill:#3c5f84" />
      <path
         id="path1233"
         d="m 159.9,76.8 3.1,2.4 v 12.4 h -53.9 v -5.2 l 10,-7.3 c 1.2,-0.9 3.2,-0.9 4.5,0 l 3.9,2.8 4.8,-3.5 12.6,-9.2 c 1.2,-0.9 3.2,-0.9 4.5,0 z"
         class="st6"
         inkscape:connector-curvature="0"
         style="fill:#3c5f84" />
      <g
         id="g1255">
        <g
           id="g1251">
          <g
             id="g1245">
            <path
               id="path1235"
               d="m 243.1,29.2 h -49 c -3.9,0 -7,3.1 -7,7 v 56.3 c 0,3.9 3.1,7 7,7 h 49 c 3.9,0 7,-3.1 7,-7 V 36.2 c 0,-3.9 -3.1,-7 -7,-7 z"
               class="st7"
               inkscape:connector-curvature="0"
               style="opacity:0.2" />
            <polygon
               id="polygon1237"
               points="185.1,73.4 185.3,27.7 239,27.7 239.3,73.5 "
               class="st2"
               style="fill:#ffffff" />
            <circle
               id="circle1239"
               r="6.3000002"
               cy="41.400002"
               cx="199.2"
               class="st3"
               style="fill:#fac361" />
            <g
               id="g1243">
              <path
                 id="path1241"
                 d="M 239.1,36.6 V 73.4 H 185.2 V 32.7 c 0,-1.9 1.6,-3.5 3.5,-3.5 h 47 c 1.9,0 3.5,1.6 3.5,3.5 v 3.9 z m -2.5,-13.3 h -49 c -3.9,0 -7,3.1 -7,7 v 56.3 c 0,3.9 3.1,7 7,7 h 49 c 3.9,0 7,-3.1 7,-7 V 30.3 c 0,-3.9 -3.1,-7 -7,-7 z"
                 class="st8"
                 inkscape:connector-curvature="0"
                 style="fill:#51bc86" />
            </g>
          </g>
          <path
             id="path1247"
             d="m 230.5,81.3 h -36.8 c -0.7,0 -1.3,-0.6 -1.3,-1.3 v -1 c 0,-0.7 0.6,-1.3 1.3,-1.3 h 36.8 c 0.7,0 1.3,0.6 1.3,1.3 v 1 c 0,0.7 -0.6,1.3 -1.3,1.3 z"
             class="st5"
             inkscape:connector-curvature="0"
             style="fill:#f0f1f5" />
          <path
             id="path1249"
             d="m 221.9,84.6 h -19.5 c -0.7,0 -1.3,0.6 -1.3,1.3 v 1 c 0,0.7 0.6,1.3 1.3,1.3 h 19.5 c 0.7,0 1.3,-0.6 1.3,-1.3 v -1 c -0.1,-0.7 -0.6,-1.3 -1.3,-1.3 z"
             class="st5"
             inkscape:connector-curvature="0"
             style="fill:#f0f1f5" />
        </g>
        <path
           id="path1253"
           d="m 236.1,58.6 3.1,2.4 v 12.4 h -54.1 v -5.1 l 10.2,-7.4 c 1.2,-0.9 3.2,-0.9 4.5,0 l 3.9,2.8 4.8,-3.5 12.6,-9.2 c 1.2,-0.9 3.2,-0.9 4.5,0 z"
           class="st6"
           inkscape:connector-curvature="0"
           style="fill:#3c5f84" />
      </g>
    </g>
  </g>
</svg>
