<?xml version="1.0" encoding="UTF-8" standalone="no"?>
<svg
   xmlns:dc="http://purl.org/dc/elements/1.1/"
   xmlns:cc="http://creativecommons.org/ns#"
   xmlns:rdf="http://www.w3.org/1999/02/22-rdf-syntax-ns#"
   xmlns:svg="http://www.w3.org/2000/svg"
   xmlns="http://www.w3.org/2000/svg"
   xmlns:sodipodi="http://sodipodi.sourceforge.net/DTD/sodipodi-0.dtd"
   xmlns:inkscape="http://www.inkscape.org/namespaces/inkscape"
   height="24px"
   width="24px"
   viewBox="0 0 100 100"
   enable-background="new 0 0 100 100"
   version="1.1"
   id="svg32"
   sodipodi:docname="icon.svg"
   inkscape:version="0.92.2 5c3e80d, 2017-08-06">
  <metadata
     id="metadata38">
    <rdf:RDF>
      <cc:Work
         rdf:about="">
        <dc:format>image/svg+xml</dc:format>
        <dc:type
           rdf:resource="http://purl.org/dc/dcmitype/StillImage" />
        <dc:title></dc:title>
      </cc:Work>
    </rdf:RDF>
  </metadata>
  <defs
     id="defs36">
    <style
       id="style1183">
      .cls-1 {
        isolation: isolate;
      }

      .cls-2 {
        fill: none;
      }

      .cls-3 {
        fill: #6bc9a7;
      }

      .cls-4 {
        opacity: 0.15;
        mix-blend-mode: multiply;
      }

      .cls-5 {
        fill: #fff;
      }

      .cls-6 {
        fill: #cde6fc;
      }

      .cls-7 {
        fill: #8db7e2;
      }

      .cls-8 {
        opacity: 0.2;
      }

      .cls-9 {
        fill: #231f20;
      }

      .cls-10 {
        fill: #ddd;
      }

      .cls-11 {
        fill: #239630;
      }
    </style>
    <style
       id="style1586">
      .cls-1 {
        fill: #ea964d;
      }

      .cls-2 {
        fill: #f0f1f5;
      }

      .cls-3 {
        fill: #b8b8bf;
      }

      .cls-4 {
        fill: #34495e;
      }

      .cls-5 {
        fill: #e94c3d;
      }

      .cls-6 {
        fill: #c1392b;
      }

      .cls-7 {
        fill: #3497da;
      }

      .cls-8 {
        fill: #2a80bb;
      }

      .cls-9 {
        fill: #2c3e50;
        opacity: 0.1;
      }

      .cls-10 {
        fill: #8e44ad;
      }

      .cls-11 {
        fill: none;
      }
    </style>
    <style
       id="style6156">
      .cls-1 {
        fill: #f06060;
      }

      .cls-2 {
        opacity: 0.15;
      }

      .cls-3 {
        fill: #231f20;
      }

      .cls-4 {
        fill: #fff;
      }

      .cls-5 {
        fill: #79aad3;
      }

      .cls-6 {
        fill: #b0afad;
      }

      .cls-7 {
        fill: none;
      }
    </style>
  </defs>
  <sodipodi:namedview
     pagecolor="#ffffff"
     bordercolor="#666666"
     borderopacity="1"
     objecttolerance="10"
     gridtolerance="10"
     guidetolerance="10"
     inkscape:pageopacity="0"
     inkscape:pageshadow="2"
     inkscape:window-width="1440"
     inkscape:window-height="856"
     id="namedview34"
     showgrid="false"
     inkscape:zoom="19.456713"
     inkscape:cx="11.359844"
     inkscape:cy="12.203169"
     inkscape:window-x="75"
     inkscape:window-y="47"
     inkscape:window-maximized="0"
     inkscape:current-layer="svg32" />
  <g
     stroke-miterlimit="10"
     id="g22"
     style="display:none;stroke-miterlimit:10">
    <g
       id="g14"
       style="stroke-width:3;stroke-linecap:round;stroke-linejoin:round">
      <g
         id="g10"
         style="stroke:#999999"
         transform="translate(29.166667)">
        <g
           id="g6"
           style="fill:#ffffff">
          <path
             d="m 41.566667,28.1 h 18.4 l -23.3,-24.1 v 18.9 c 0,2.8 2.2,5.2 4.9,5.2 z"
             id="path2"
             inkscape:connector-curvature="0" />
          <path
             d="m 41.566667,28.1 c -2.7,0 -4.8,-2.3 -4.8,-5.2 V 4 H -8.5666667 c -2.7000003,0 -4.8000003,2.3 -4.8000003,5.2 v 83.2 c 0,2.9 2.1,5.2 4.8000003,5.2 H 55.066667 c 2.7,0 4.8,-2.3 4.8,-5.2 V 28.1 Z"
             id="path4"
             inkscape:connector-curvature="0"
             sodipodi:nodetypes="sscsssssscs" />
        </g>
      </g>
    </g>
  </g>
  <style
     id="style131"
     type="text/css">
	.st0{fill:#1D1D1D;}
	.st1{fill:#FFFFFF;}
</style>
  <style
     id="style900"
     type="text/css">
	.st0{fill:none;}
	.st1{fill:#88C87A;}
	.st2{opacity:0.15;}
	.st3{fill:#231F20;}
	.st4{fill:#FFFFFF;}
	.st5{fill:#F05F5F;}
</style>
  <style
     id="style214"
     type="text/css">
	.st0{fill:#DDDDDD;}
	.st1{fill:#C6C6C6;}
	.st2{fill:#8DB7E2;}
	.st3{fill:#2376C1;}
	.st4{fill:none;}
</style>
  <style
     id="style209"
     type="text/css">
	.st0{fill:#4A97DA;}
	.st1{opacity:0.15;}
	.st2{fill:#231F20;}
	.st3{fill:#FFFFFF;}
	.st4{fill:#B0AFAD;}
	.st5{fill:#757575;}
	.st6{fill:#565656;}
	.st7{fill:#E29563;}
	.st8{fill:#494949;}
	.st9{fill:#D66F6E;}
	.st10{fill:none;}
</style>
  <g
     id="Layer_2"
     transform="matrix(0.53174385,0,0,0.53174385,-64.709126,-11.303377)">
    <g
       id="fill_in_the_blanks">
      <g
         id="g247">
        <rect
           id="rect213"
           height="173.60001"
           width="139.10001"
           class="st0"
           y="26.799999"
           x="134"
           style="fill:#4a97da" />
        <g
           id="g221">
          <g
             id="g217"
             class="st1"
             style="opacity:0.15">
            <rect
               id="rect215"
               height="146.10001"
               width="113"
               class="st2"
               y="44.5"
               x="151"
               style="fill:#231f20" />
          </g>
          <rect
             id="rect219"
             height="146.10001"
             width="113"
             class="st3"
             y="40.5"
             x="147.10001"
             style="fill:#ffffff" />
        </g>
        <g
           id="g225">
          <path
             id="path223"
             d="m 228.6,121.6 h -32.3 c -4.9,0 -8.8,-3.9 -8.8,-8.8 0,-4.9 3.9,-8.8 8.8,-8.8 h 32.3 c 4.9,0 8.8,3.9 8.8,8.8 0,4.9 -3.9,8.8 -8.8,8.8 z"
             class="st0"
             inkscape:connector-curvature="0"
             style="fill:#4a97da" />
        </g>
        <path
           id="path227"
           d="m 197.3,157.7 h -33.6 c -1.9,0 -3.4,-1.5 -3.4,-3.4 v 0 c 0,-1.9 1.5,-3.4 3.4,-3.4 h 33.6 c 1.9,0 3.4,1.5 3.4,3.4 v 0 c 0.1,1.9 -1.5,3.4 -3.4,3.4 z"
           class="st4"
           inkscape:connector-curvature="0"
           style="fill:#b0afad" />
        <path
           id="path229"
           d="m 232.2,74.9 h 7.5 c 1.9,0 3.4,-1.5 3.4,-3.4 v 0 c 0,-1.9 -1.5,-3.4 -3.4,-3.4 h -7.5 c -1.9,0 -3.4,1.5 -3.4,3.4 v 0 c -0.1,1.8 1.5,3.4 3.4,3.4 z"
           class="st4"
           inkscape:connector-curvature="0"
           style="fill:#b0afad" />
        <path
           id="path231"
           d="m 197.3,95.7 h -33.6 c -1.9,0 -3.4,-1.5 -3.4,-3.4 v 0 c 0,-1.9 1.5,-3.4 3.4,-3.4 h 33.6 c 1.9,0 3.4,1.5 3.4,3.4 v 0 c 0.1,1.9 -1.5,3.4 -3.4,3.4 z"
           class="st4"
           inkscape:connector-curvature="0"
           style="fill:#b0afad" />
        <path
           id="path233"
           d="M 243.5,95.7 H 210 c -1.9,0 -3.4,-1.5 -3.4,-3.4 v 0 c 0,-1.9 1.5,-3.4 3.4,-3.4 h 33.5 c 1.9,0 3.4,1.5 3.4,3.4 v 0 c 0,1.9 -1.5,3.4 -3.4,3.4 z"
           class="st4"
           inkscape:connector-curvature="0"
           style="fill:#b0afad" />
        <path
           id="path235"
           d="m 178.8,116.2 h -15.1 c -1.9,0 -3.4,-1.5 -3.4,-3.4 v 0 c 0,-1.9 1.5,-3.4 3.4,-3.4 h 15.1 c 1.9,0 3.4,1.5 3.4,3.4 v 0 c 0.1,1.9 -1.5,3.4 -3.4,3.4 z"
           class="st4"
           inkscape:connector-curvature="0"
           style="fill:#b0afad" />
        <path
           id="path237"
           d="m 214.7,137.1 h -50.9 c -1.9,0 -3.4,-1.5 -3.4,-3.4 v 0 c 0,-1.9 1.5,-3.4 3.4,-3.4 h 50.9 c 1.9,0 3.4,1.5 3.4,3.4 v 0 c 0,1.8 -1.6,3.4 -3.4,3.4 z"
           class="st4"
           inkscape:connector-curvature="0"
           style="fill:#b0afad" />
        <g
           id="g241">
          <path
             id="path239"
             d="m 215.1,80.3 h -51.8 c -4.9,0 -8.8,-3.9 -8.8,-8.8 0,-4.9 3.9,-8.8 8.8,-8.8 h 51.8 c 4.9,0 8.8,3.9 8.8,8.8 0,4.8 -4,8.8 -8.8,8.8 z"
             class="st0"
             inkscape:connector-curvature="0"
             style="fill:#4a97da" />
        </g>
        <path
           id="path243"
           d="m 212.9,73.5 h -47.5 c -1.1,0 -2.1,-0.9 -2.1,-2.1 v 0 c 0,-1.1 0.9,-2.1 2.1,-2.1 h 47.5 c 1.1,0 2.1,0.9 2.1,2.1 v 0 c 0,1.2 -0.9,2.1 -2.1,2.1 z"
           class="st3"
           inkscape:connector-curvature="0"
           style="fill:#ffffff" />
        <path
           id="path245"
           d="m 226.8,114.9 h -28.6 c -1.1,0 -2.1,-0.9 -2.1,-2.1 v 0 c 0,-1.1 0.9,-2.1 2.1,-2.1 h 28.6 c 1.1,0 2.1,0.9 2.1,2.1 v 0 c 0,1.1 -1,2.1 -2.1,2.1 z"
           class="st3"
           inkscape:connector-curvature="0"
           style="fill:#ffffff" />
      </g>
      <polygon
         id="polygon249"
         points="259.9,104.6 259.9,120.6 273.2,120.6 273.2,92.3 "
         class="st3"
         style="fill:#ffffff" />
      <polygon
         id="polygon251"
         points="259.9,149 259.9,165 273.2,153.3 273.2,136.7 "
         class="st3"
         style="fill:#ffffff" />
      <g
         id="g265">
        <polygon
           id="polygon253"
           points="236.9,140.5 242.9,149.5 288.4,107.8 281.4,99.2 "
           class="st5"
           style="fill:#757575" />
        <polygon
           id="polygon255"
           points="242.9,149.5 250.9,157.6 295.5,116.3 288.4,107.8 "
           class="st6"
           style="fill:#565656" />
        <g
           id="g261">
          <path
             id="path257"
             d="m 235.2,155.8 c 1.2,1.4 2.3,2.9 3.2,4.4 l 12.6,-2.6 c 0,0 -0.3,-3.5 -5.7,-9.7 -5.6,-6.6 -8.3,-7.4 -8.3,-7.4 l -4.8,12.2 c 1.1,1 2.1,2 3,3.1 z"
             class="st7"
             inkscape:connector-curvature="0"
             style="fill:#e29563" />
          <path
             id="path259"
             d="m 238.4,160.2 c -0.9,-1.6 -2,-3 -3.2,-4.4 -0.9,-1.1 -1.9,-2.1 -2.9,-3.1 l -3.7,9.5 z"
             class="st8"
             inkscape:connector-curvature="0"
             style="fill:#494949" />
        </g>
        <path
           id="path263"
           d="m 304.5,105.9 c 0.5,-5.4 -6.6,-13.4 -12,-13.9 -3.3,-0.3 -8.5,5.4 -8.5,5.4 l 14,16.5 c 0,0 6.2,-4.7 6.5,-8 z"
           class="st9"
           inkscape:connector-curvature="0"
           style="fill:#d66f6e" />
      </g>
      <rect
         id="rect267"
         height="225"
         width="400"
         class="st10"
         y="0"
         x="0"
         style="fill:none" />
    </g>
  </g>
</svg>
