<?xml version="1.0" encoding="utf-8"?>
<!-- Generator: Adobe Illustrator 15.0.0, SVG Export Plug-In . SVG Version: 6.00 Build 0)  -->
<!DOCTYPE svg PUBLIC "-//W3C//DTD SVG 1.1//EN" "http://www.w3.org/Graphics/SVG/1.1/DTD/svg11.dtd">
<svg version="1.1"
	 id="svg75" sodipodi:docname="icon.svg" inkscape:version="0.92.2 5c3e80d, 2017-08-06" xmlns:cc="http://creativecommons.org/ns#" xmlns:inkscape="http://www.inkscape.org/namespaces/inkscape" xmlns:sodipodi="http://sodipodi.sourceforge.net/DTD/sodipodi-0.dtd" xmlns:rdf="http://www.w3.org/1999/02/22-rdf-syntax-ns#" xmlns:svg="http://www.w3.org/2000/svg" xmlns:dc="http://purl.org/dc/elements/1.1/"
	 xmlns="http://www.w3.org/2000/svg" xmlns:xlink="http://www.w3.org/1999/xlink" x="0px" y="0px" width="24px" height="24px"
	 viewBox="0 0 24 24" enable-background="new 0 0 24 24" xml:space="preserve">
<sodipodi:namedview  objecttolerance="10" id="namedview77" borderopacity="1" inkscape:window-y="155" bordercolor="#666666" inkscape:window-x="328" inkscape:window-width="1114" inkscape:cx="12" showgrid="false" inkscape:cy="12" gridtolerance="10" inkscape:pageopacity="0" inkscape:zoom="9.8333333" inkscape:pageshadow="2" inkscape:window-maximized="0" inkscape:window-height="563" pagecolor="#ffffff" guidetolerance="10" inkscape:current-layer="svg75">
	</sodipodi:namedview>
<g id="Layer_2">
	<g id="g1134_1_" transform="matrix(0.24,0,0,0.24,-3.084,0.048)">
		<g id="g1100_1_">
			<g>
				<path id="path1096_1_" inkscape:connector-curvature="0" fill="#FFFFFF" d="M92.554,2.201c3.394,0,5.998,2.6,5.998,5.699v83.803
					c0,3.198-2.702,5.697-5.998,5.697H33.15c-3.3,0-6-2.6-6-5.697V7.899c0-3.2,2.7-5.699,6-5.699H92.554L92.554,2.201z"/>
				<path fill="#BBBBBB" d="M92.554,99.483H33.15c-4.458,0-8.083-3.491-8.083-7.78V7.899c0-4.291,3.625-7.782,8.083-7.782h59.403
					c4.456,0,8.081,3.491,8.081,7.782v83.803C100.635,95.991,97.009,99.483,92.554,99.483z M33.15,4.284
					c-2.195,0-3.916,1.589-3.916,3.615v83.803c0,1.957,1.794,3.613,3.916,3.613h59.403c2.193,0,3.914-1.587,3.914-3.613V7.899
					c0-1.994-1.758-3.615-3.914-3.615H33.15z"/>
			</g>
		</g>
	</g>
</g>
<linearGradient id="path7_1_" gradientUnits="userSpaceOnUse" x1="344.9463" y1="-407.5884" x2="344.9463" y2="-423.5903" gradientTransform="matrix(0.4746 0 0 -0.4746 -147.9067 -183.3307)">
	<stop  offset="0" style="stop-color:#76A1F0"/>
	<stop  offset="1" style="stop-color:#6B90D5"/>
</linearGradient>
<path id="path7" inkscape:connector-curvature="0" fill="url(#path7_1_)" d="M13.898,10.102h3.797v7.594h-3.797V10.102z"/>
<linearGradient id="path14_1_" gradientUnits="userSpaceOnUse" x1="344.9463" y1="-408.5884" x2="344.9463" y2="-422.5903" gradientTransform="matrix(0.4746 0 0 -0.4746 -147.9067 -183.3307)">
	<stop  offset="0" style="stop-color:#BBE0F7"/>
	<stop  offset="1" style="stop-color:#82B4FB"/>
</linearGradient>
<path id="path14" inkscape:connector-curvature="0" fill="url(#path14_1_)" d="M14.373,10.576h2.848v6.645h-2.848V10.576z"/>
<linearGradient id="path23_1_" gradientUnits="userSpaceOnUse" x1="344.9463" y1="-409.5884" x2="344.9463" y2="-421.5903" gradientTransform="matrix(0.4746 0 0 -0.4746 -147.9067 -183.3307)">
	<stop  offset="0" style="stop-color:#95BFF8"/>
	<stop  offset="0.557" style="stop-color:#84ADEF"/>
	<stop  offset="1" style="stop-color:#7CA4EB"/>
</linearGradient>
<path id="path23" inkscape:connector-curvature="0" fill="url(#path23_1_)" d="M14.848,11.051h1.898v5.695h-1.898V11.051z"/>
<linearGradient id="path30_1_" gradientUnits="userSpaceOnUse" x1="336.9453" y1="-399.5903" x2="336.9453" y2="-423.5903" gradientTransform="matrix(0.4746 0 0 -0.4746 -147.9067 -183.3307)">
	<stop  offset="0" style="stop-color:#90C50E"/>
	<stop  offset="1" style="stop-color:#70A034"/>
</linearGradient>
<path id="path30" inkscape:connector-curvature="0" fill="url(#path30_1_)" d="M10.102,6.305h3.797v11.39h-3.797V6.305z"/>
<linearGradient id="path45_1_" gradientUnits="userSpaceOnUse" x1="336.9453" y1="-400.5903" x2="336.9453" y2="-422.5903" gradientTransform="matrix(0.4746 0 0 -0.4746 -147.9067 -183.3307)">
	<stop  offset="0" style="stop-color:#D9F991"/>
	<stop  offset="0.239" style="stop-color:#D7F88D"/>
	<stop  offset="0.45" style="stop-color:#D1F383"/>
	<stop  offset="0.651" style="stop-color:#C6EC71"/>
	<stop  offset="0.844" style="stop-color:#B7E257"/>
	<stop  offset="1" style="stop-color:#A8D73D"/>
</linearGradient>
<path id="path45" inkscape:connector-curvature="0" fill="url(#path45_1_)" d="M10.576,6.78h2.848v10.441h-2.848V6.78z"/>
<linearGradient id="path52_1_" gradientUnits="userSpaceOnUse" x1="336.9453" y1="-401.5903" x2="336.9453" y2="-421.5903" gradientTransform="matrix(0.4746 0 0 -0.4746 -147.9067 -183.3307)">
	<stop  offset="0" style="stop-color:#B3E810"/>
	<stop  offset="1" style="stop-color:#90C60D"/>
</linearGradient>
<path id="path52" inkscape:connector-curvature="0" fill="url(#path52_1_)" d="M11.051,7.254h1.898v9.492h-1.898V7.254z"/>
<linearGradient id="path59_1_" gradientUnits="userSpaceOnUse" x1="328.9453" y1="-411.5903" x2="328.9453" y2="-423.5903" gradientTransform="matrix(0.4746 0 0 -0.4746 -147.9067 -183.3307)">
	<stop  offset="0" style="stop-color:#F0A829"/>
	<stop  offset="1" style="stop-color:#C7671A"/>
</linearGradient>
<path id="path59" inkscape:connector-curvature="0" fill="url(#path59_1_)" d="M6.305,12h3.796v5.695H6.305V12z"/>
<linearGradient id="path66_1_" gradientUnits="userSpaceOnUse" x1="328.9453" y1="-412.5903" x2="328.9453" y2="-422.5903" gradientTransform="matrix(0.4746 0 0 -0.4746 -147.9067 -183.3307)">
	<stop  offset="0" style="stop-color:#FFEBA8"/>
	<stop  offset="1" style="stop-color:#F8BE27"/>
</linearGradient>
<path id="path66" inkscape:connector-curvature="0" fill="url(#path66_1_)" d="M6.78,12.475h2.847v4.746H6.78V12.475z"/>
<linearGradient id="path73_1_" gradientUnits="userSpaceOnUse" x1="328.9453" y1="-413.5903" x2="328.9453" y2="-421.5903" gradientTransform="matrix(0.4746 0 0 -0.4746 -147.9067 -183.3307)">
	<stop  offset="0" style="stop-color:#FFC30F"/>
	<stop  offset="1" style="stop-color:#F5AE0D"/>
</linearGradient>
<path id="path73" inkscape:connector-curvature="0" fill="url(#path73_1_)" d="M7.254,12.949h1.898v3.797H7.254V12.949z"/>
</svg>
