<?xml version="1.0" encoding="UTF-8" standalone="no"?>
<svg
   xmlns:dc="http://purl.org/dc/elements/1.1/"
   xmlns:cc="http://creativecommons.org/ns#"
   xmlns:rdf="http://www.w3.org/1999/02/22-rdf-syntax-ns#"
   xmlns:svg="http://www.w3.org/2000/svg"
   xmlns="http://www.w3.org/2000/svg"
   xmlns:sodipodi="http://sodipodi.sourceforge.net/DTD/sodipodi-0.dtd"
   xmlns:inkscape="http://www.inkscape.org/namespaces/inkscape"
   height="24px"
   width="24px"
   viewBox="0 0 100 100"
   enable-background="new 0 0 100 100"
   version="1.1"
   id="svg32"
   sodipodi:docname="icon.svg"
   inkscape:version="0.92.2 5c3e80d, 2017-08-06">
  <metadata
     id="metadata38">
    <rdf:RDF>
      <cc:Work
         rdf:about="">
        <dc:format>image/svg+xml</dc:format>
        <dc:type
           rdf:resource="http://purl.org/dc/dcmitype/StillImage" />
        <dc:title></dc:title>
      </cc:Work>
    </rdf:RDF>
  </metadata>
  <defs
     id="defs36">
    <style
       id="style1183">
      .cls-1 {
        isolation: isolate;
      }

      .cls-2 {
        fill: none;
      }

      .cls-3 {
        fill: #6bc9a7;
      }

      .cls-4 {
        opacity: 0.15;
        mix-blend-mode: multiply;
      }

      .cls-5 {
        fill: #fff;
      }

      .cls-6 {
        fill: #cde6fc;
      }

      .cls-7 {
        fill: #8db7e2;
      }

      .cls-8 {
        opacity: 0.2;
      }

      .cls-9 {
        fill: #231f20;
      }

      .cls-10 {
        fill: #ddd;
      }

      .cls-11 {
        fill: #239630;
      }
    </style>
    <style
       id="style1586">
      .cls-1 {
        fill: #ea964d;
      }

      .cls-2 {
        fill: #f0f1f5;
      }

      .cls-3 {
        fill: #b8b8bf;
      }

      .cls-4 {
        fill: #34495e;
      }

      .cls-5 {
        fill: #e94c3d;
      }

      .cls-6 {
        fill: #c1392b;
      }

      .cls-7 {
        fill: #3497da;
      }

      .cls-8 {
        fill: #2a80bb;
      }

      .cls-9 {
        fill: #2c3e50;
        opacity: 0.1;
      }

      .cls-10 {
        fill: #8e44ad;
      }

      .cls-11 {
        fill: none;
      }
    </style>
    <style
       id="style6156">
      .cls-1 {
        fill: #f06060;
      }

      .cls-2 {
        opacity: 0.15;
      }

      .cls-3 {
        fill: #231f20;
      }

      .cls-4 {
        fill: #fff;
      }

      .cls-5 {
        fill: #79aad3;
      }

      .cls-6 {
        fill: #b0afad;
      }

      .cls-7 {
        fill: none;
      }
    </style>
    <style
       id="style1377">
      .cls-1 {
        isolation: isolate;
      }

      .cls-2 {
        fill: #3d6084;
      }

      .cls-3 {
        opacity: 0.2;
        mix-blend-mode: multiply;
      }

      .cls-4 {
        fill: #fff;
      }

      .cls-5 {
        fill: none;
      }
    </style>
    <style
       id="style1709">
      .cls-1 {
        fill: #3396da;
      }

      .cls-2 {
        opacity: 0.5;
      }

      .cls-3 {
        fill: url(#linear-gradient);
      }

      .cls-4 {
        fill: none;
      }

      .cls-5 {
        opacity: 0.1;
      }

      .cls-6 {
        fill: #fff;
      }
    </style>
    <linearGradient
       gradientUnits="userSpaceOnUse"
       y2="107.12"
       x2="219.09"
       y1="174.69"
       x1="151.52"
       id="linear-gradient">
      <stop
         id="stop1711"
         stop-color="#3081b9"
         offset="0" />
      <stop
         id="stop1713"
         stop-color="#3396da"
         offset="1" />
    </linearGradient>
  </defs>
  <sodipodi:namedview
     pagecolor="#ffffff"
     bordercolor="#666666"
     borderopacity="1"
     objecttolerance="10"
     gridtolerance="10"
     guidetolerance="10"
     inkscape:pageopacity="0"
     inkscape:pageshadow="2"
     inkscape:window-width="1689"
     inkscape:window-height="1016"
     id="namedview34"
     showgrid="false"
     inkscape:zoom="23.152155"
     inkscape:cx="11.092685"
     inkscape:cy="13.513091"
     inkscape:window-x="75"
     inkscape:window-y="47"
     inkscape:window-maximized="0"
     inkscape:current-layer="svg32" />
  <g
     stroke-miterlimit="10"
     id="g22"
     style="display:none;stroke-miterlimit:10">
    <g
       id="g14"
       style="stroke-width:3;stroke-linecap:round;stroke-linejoin:round">
      <g
         id="g10"
         style="stroke:#999999"
         transform="translate(29.166667)">
        <g
           id="g6"
           style="fill:#ffffff">
          <path
             d="m 41.566667,28.1 h 18.4 l -23.3,-24.1 v 18.9 c 0,2.8 2.2,5.2 4.9,5.2 z"
             id="path2"
             inkscape:connector-curvature="0" />
          <path
             d="m 41.566667,28.1 c -2.7,0 -4.8,-2.3 -4.8,-5.2 V 4 H -8.5666667 c -2.7000003,0 -4.8000003,2.3 -4.8000003,5.2 v 83.2 c 0,2.9 2.1,5.2 4.8000003,5.2 H 55.066667 c 2.7,0 4.8,-2.3 4.8,-5.2 V 28.1 Z"
             id="path4"
             inkscape:connector-curvature="0"
             sodipodi:nodetypes="sscsssssscs" />
        </g>
      </g>
    </g>
  </g>
  <style
     id="style131"
     type="text/css">
	.st0{fill:#1D1D1D;}
	.st1{fill:#FFFFFF;}
</style>
  <style
     id="style900"
     type="text/css">
	.st0{fill:none;}
	.st1{fill:#88C87A;}
	.st2{opacity:0.15;}
	.st3{fill:#231F20;}
	.st4{fill:#FFFFFF;}
	.st5{fill:#F05F5F;}
</style>
  <style
     id="style214"
     type="text/css">
	.st0{fill:#DDDDDD;}
	.st1{fill:#C6C6C6;}
	.st2{fill:#8DB7E2;}
	.st3{fill:#2376C1;}
	.st4{fill:none;}
</style>
  <style
     id="style796"
     type="text/css">
	.st0{fill:#41CC8D;}
	.st1{fill:#FF2E63;}
	.st2{fill:none;}
</style>
  <g
     data-name="Layer 2"
     id="Layer_2"
     transform="matrix(0.44297333,0,0,0.44297333,-39.49451,0.16550037)">
    <g
       data-name="Layer 42"
       id="Layer_42">
      <text
         id="text1720" />
    </g>
    <g
       id="audio">
      <path
         id="path1723"
         d="m 204,25.87 a 87.63,87.63 0 0 0 -6.63,175 q 3.28,0.25 6.63,0.25 a 87.63,87.63 0 1 0 0,-175.25 z"
         class="cls-1"
         inkscape:connector-curvature="0"
         style="fill:#3396da" />
      <g
         id="g1727"
         class="cls-2"
         style="opacity:0.5">
        <path
           id="path1725"
           d="m 247.08,114.51 c -4.06,-0.46 -8.11,-1 -12.13,-1.71 -16.23,-2.88 -31.7,-9.39 -46.46,-16.58 q -2.5,-1.22 -5,-2.49 l -7.48,8 -16.23,-0.6 L 123,147 c 0.43,1 0.88,2.07 1.35,3.09 a 87.72,87.72 0 0 0 66.91,50.08 l 56,-71.46 z"
           class="cls-3"
           inkscape:connector-curvature="0"
           style="fill:url(#linear-gradient)" />
      </g>
      <rect
         id="rect1729"
         height="225"
         width="400"
         class="cls-4"
         x="0"
         y="0"
         style="fill:none" />
      <g
         id="g1733"
         class="cls-5"
         style="opacity:0.1">
        <path
           id="path1731"
           d="m 193.4,89.72 v 54.65 a 3.2,3.2 0 0 1 -5.48,2.26 L 171.19,129.9 H 158 a 3.27,3.27 0 0 1 -3.22,-3.22 v -19.27 a 3.27,3.27 0 0 1 3.22,-3.22 h 13.16 l 16.73,-16.73 a 3.22,3.22 0 0 1 5.48,2.26 z m 19.35,20.12 a 13.1,13.1 0 0 1 2.16,7.21 13,13 0 0 1 -2.16,7.18 12,12 0 0 1 -5.75,4.77 2.81,2.81 0 0 1 -1.27,0.25 3.16,3.16 0 0 1 -2.28,-0.94 3.1,3.1 0 0 1 -1,-2.31 2.72,2.72 0 0 1 0.61,-1.8 5.91,5.91 0 0 1 1.47,-1.27 c 0.57,-0.36 1.15,-0.74 1.73,-1.17 a 5.14,5.14 0 0 0 1.47,-1.8 7.21,7.21 0 0 0 0,-5.79 5.19,5.19 0 0 0 -1.47,-1.8 c -0.57,-0.42 -1.15,-0.81 -1.73,-1.17 a 5.91,5.91 0 0 1 -1.47,-1.27 2.72,2.72 0 0 1 -0.61,-1.8 3.09,3.09 0 0 1 1,-2.31 3.17,3.17 0 0 1 2.28,-0.94 2.81,2.81 0 0 1 1.27,0.26 11.68,11.68 0 0 1 5.74,4.7 z M 226,102.71 a 26,26 0 0 1 0,28.68 25,25 0 0 1 -11.4,9.61 3.51,3.51 0 0 1 -1.27,0.26 3.17,3.17 0 0 1 -2.33,-1 3.11,3.11 0 0 1 -1,-2.28 3.22,3.22 0 0 1 2,-3 31.6,31.6 0 0 0 3.86,-2.23 19.41,19.41 0 0 0 0,-31.38 31.6,31.6 0 0 0 -3.86,-2.24 3.22,3.22 0 0 1 -2,-3 3.29,3.29 0 0 1 3.25,-3.25 3.71,3.71 0 0 1 1.32,0.25 25.06,25.06 0 0 1 11.43,9.58 z m 13.3,-7.11 a 39,39 0 0 1 -17.16,57.29 3.62,3.62 0 0 1 -1.32,0.26 3.3,3.3 0 0 1 -3.25,-3.25 3.43,3.43 0 0 1 2,-3 10.69,10.69 0 0 1 1.14,-0.53 10.91,10.91 0 0 0 1.14,-0.53 38.49,38.49 0 0 0 4.16,-2.59 32.34,32.34 0 0 0 9.75,-11.52 32.49,32.49 0 0 0 0,-29.34 32.4,32.4 0 0 0 -9.76,-11.54 39.08,39.08 0 0 0 -4.16,-2.59 10.91,10.91 0 0 0 -1.14,-0.53 10.69,10.69 0 0 1 -1.14,-0.53 3.43,3.43 0 0 1 -2,-3 3.3,3.3 0 0 1 3.28,-3.2 3.62,3.62 0 0 1 1.32,0.26 38.34,38.34 0 0 1 17.16,14.34 z"
           inkscape:connector-curvature="0" />
      </g>
      <path
         id="path1735"
         d="m 197.4,85.72 v 54.65 a 3.2,3.2 0 0 1 -5.48,2.26 L 175.19,125.9 H 162 a 3.27,3.27 0 0 1 -3.22,-3.22 v -19.27 a 3.27,3.27 0 0 1 3.22,-3.22 h 13.16 l 16.73,-16.73 a 3.22,3.22 0 0 1 5.48,2.26 z m 19.35,20.12 a 13.1,13.1 0 0 1 2.16,7.21 13,13 0 0 1 -2.16,7.18 12,12 0 0 1 -5.75,4.77 2.81,2.81 0 0 1 -1.27,0.25 3.16,3.16 0 0 1 -2.28,-0.94 3.1,3.1 0 0 1 -1,-2.31 2.72,2.72 0 0 1 0.61,-1.8 5.91,5.91 0 0 1 1.47,-1.27 c 0.57,-0.36 1.15,-0.74 1.73,-1.17 a 5.14,5.14 0 0 0 1.47,-1.8 7.21,7.21 0 0 0 0,-5.79 5.19,5.19 0 0 0 -1.47,-1.8 c -0.57,-0.42 -1.15,-0.81 -1.73,-1.17 a 5.91,5.91 0 0 1 -1.47,-1.27 2.72,2.72 0 0 1 -0.61,-1.8 3.09,3.09 0 0 1 1,-2.31 3.17,3.17 0 0 1 2.28,-0.94 2.81,2.81 0 0 1 1.27,0.26 11.68,11.68 0 0 1 5.74,4.7 z M 230,98.71 a 26,26 0 0 1 0,28.68 25,25 0 0 1 -11.4,9.61 3.51,3.51 0 0 1 -1.27,0.26 3.17,3.17 0 0 1 -2.33,-1 3.11,3.11 0 0 1 -1,-2.28 3.22,3.22 0 0 1 2,-3 31.6,31.6 0 0 0 3.86,-2.23 19.41,19.41 0 0 0 0,-31.38 31.6,31.6 0 0 0 -3.86,-2.24 3.22,3.22 0 0 1 -2,-3 3.29,3.29 0 0 1 3.25,-3.25 3.71,3.71 0 0 1 1.32,0.25 25.06,25.06 0 0 1 11.43,9.58 z m 13.3,-7.11 a 39,39 0 0 1 -17.16,57.29 3.62,3.62 0 0 1 -1.32,0.26 3.3,3.3 0 0 1 -3.25,-3.25 3.43,3.43 0 0 1 2,-3 10.69,10.69 0 0 1 1.14,-0.53 10.91,10.91 0 0 0 1.14,-0.53 38.49,38.49 0 0 0 4.16,-2.59 32.34,32.34 0 0 0 9.75,-11.52 32.49,32.49 0 0 0 0,-29.34 32.4,32.4 0 0 0 -9.76,-11.54 39.08,39.08 0 0 0 -4.16,-2.59 10.91,10.91 0 0 0 -1.14,-0.53 10.69,10.69 0 0 1 -1.14,-0.53 3.43,3.43 0 0 1 -2,-3 3.3,3.3 0 0 1 3.28,-3.2 3.62,3.62 0 0 1 1.32,0.26 38.34,38.34 0 0 1 17.16,14.34 z"
         class="cls-6"
         inkscape:connector-curvature="0"
         style="fill:#ffffff" />
    </g>
  </g>
</svg>
