<?xml version="1.0" encoding="UTF-8" standalone="no"?>
<svg
   xmlns:dc="http://purl.org/dc/elements/1.1/"
   xmlns:cc="http://creativecommons.org/ns#"
   xmlns:rdf="http://www.w3.org/1999/02/22-rdf-syntax-ns#"
   xmlns:svg="http://www.w3.org/2000/svg"
   xmlns="http://www.w3.org/2000/svg"
   xmlns:sodipodi="http://sodipodi.sourceforge.net/DTD/sodipodi-0.dtd"
   xmlns:inkscape="http://www.inkscape.org/namespaces/inkscape"
   height="24px"
   width="24px"
   viewBox="0 0 100 100"
   enable-background="new 0 0 100 100"
   version="1.1"
   id="svg32"
   sodipodi:docname="icon.svg"
   inkscape:version="0.92.2 5c3e80d, 2017-08-06">
  <metadata
     id="metadata38">
    <rdf:RDF>
      <cc:Work
         rdf:about="">
        <dc:format>image/svg+xml</dc:format>
        <dc:type
           rdf:resource="http://purl.org/dc/dcmitype/StillImage" />
        <dc:title></dc:title>
      </cc:Work>
    </rdf:RDF>
  </metadata>
  <defs
     id="defs36">
    <style
       id="style1183">
      .cls-1 {
        isolation: isolate;
      }

      .cls-2 {
        fill: none;
      }

      .cls-3 {
        fill: #6bc9a7;
      }

      .cls-4 {
        opacity: 0.15;
        mix-blend-mode: multiply;
      }

      .cls-5 {
        fill: #fff;
      }

      .cls-6 {
        fill: #cde6fc;
      }

      .cls-7 {
        fill: #8db7e2;
      }

      .cls-8 {
        opacity: 0.2;
      }

      .cls-9 {
        fill: #231f20;
      }

      .cls-10 {
        fill: #ddd;
      }

      .cls-11 {
        fill: #239630;
      }
    </style>
    <style
       id="style1586">
      .cls-1 {
        fill: #ea964d;
      }

      .cls-2 {
        fill: #f0f1f5;
      }

      .cls-3 {
        fill: #b8b8bf;
      }

      .cls-4 {
        fill: #34495e;
      }

      .cls-5 {
        fill: #e94c3d;
      }

      .cls-6 {
        fill: #c1392b;
      }

      .cls-7 {
        fill: #3497da;
      }

      .cls-8 {
        fill: #2a80bb;
      }

      .cls-9 {
        fill: #2c3e50;
        opacity: 0.1;
      }

      .cls-10 {
        fill: #8e44ad;
      }

      .cls-11 {
        fill: none;
      }
    </style>
    <style
       id="style6156">
      .cls-1 {
        fill: #f06060;
      }

      .cls-2 {
        opacity: 0.15;
      }

      .cls-3 {
        fill: #231f20;
      }

      .cls-4 {
        fill: #fff;
      }

      .cls-5 {
        fill: #79aad3;
      }

      .cls-6 {
        fill: #b0afad;
      }

      .cls-7 {
        fill: none;
      }
    </style>
    <style
       id="style1377">
      .cls-1 {
        isolation: isolate;
      }

      .cls-2 {
        fill: #3d6084;
      }

      .cls-3 {
        opacity: 0.2;
        mix-blend-mode: multiply;
      }

      .cls-4 {
        fill: #fff;
      }

      .cls-5 {
        fill: none;
      }
    </style>
    <style
       id="style169">
      .cls-1 {
        fill: #bbd39f;
      }

      .cls-2 {
        fill: #31387a;
      }

      .cls-3 {
        fill: none;
      }
    </style>
    <style
       id="style397">
      .cls-1 {
        fill: #fff;
      }

      .cls-2 {
        fill: #34495e;
      }

      .cls-3 {
        opacity: 0.25;
      }

      .cls-4 {
        fill: #e58833;
      }

      .cls-5 {
        fill: #97baf6;
      }

      .cls-6 {
        fill: none;
      }
    </style>
  </defs>
  <sodipodi:namedview
     pagecolor="#ffffff"
     bordercolor="#666666"
     borderopacity="1"
     objecttolerance="10"
     gridtolerance="10"
     guidetolerance="10"
     inkscape:pageopacity="0"
     inkscape:pageshadow="2"
     inkscape:window-width="1440"
     inkscape:window-height="856"
     id="namedview34"
     showgrid="false"
     inkscape:zoom="22.112405"
     inkscape:cx="7.3000151"
     inkscape:cy="11.972685"
     inkscape:window-x="75"
     inkscape:window-y="47"
     inkscape:window-maximized="0"
     inkscape:current-layer="svg32" />
  <g
     stroke-miterlimit="10"
     id="g22"
     style="display:none;stroke-miterlimit:10">
    <g
       id="g14"
       style="stroke-width:3;stroke-linecap:round;stroke-linejoin:round">
      <g
         id="g10"
         style="stroke:#999999"
         transform="translate(29.166667)">
        <g
           id="g6"
           style="fill:#ffffff">
          <path
             d="m 41.566667,28.1 h 18.4 l -23.3,-24.1 v 18.9 c 0,2.8 2.2,5.2 4.9,5.2 z"
             id="path2"
             inkscape:connector-curvature="0" />
          <path
             d="m 41.566667,28.1 c -2.7,0 -4.8,-2.3 -4.8,-5.2 V 4 H -8.5666667 c -2.7000003,0 -4.8000003,2.3 -4.8000003,5.2 v 83.2 c 0,2.9 2.1,5.2 4.8000003,5.2 H 55.066667 c 2.7,0 4.8,-2.3 4.8,-5.2 V 28.1 Z"
             id="path4"
             inkscape:connector-curvature="0"
             sodipodi:nodetypes="sscsssssscs" />
        </g>
      </g>
    </g>
  </g>
  <style
     id="style131"
     type="text/css">
	.st0{fill:#1D1D1D;}
	.st1{fill:#FFFFFF;}
</style>
  <style
     id="style900"
     type="text/css">
	.st0{fill:none;}
	.st1{fill:#88C87A;}
	.st2{opacity:0.15;}
	.st3{fill:#231F20;}
	.st4{fill:#FFFFFF;}
	.st5{fill:#F05F5F;}
</style>
  <style
     id="style214"
     type="text/css">
	.st0{fill:#DDDDDD;}
	.st1{fill:#C6C6C6;}
	.st2{fill:#8DB7E2;}
	.st3{fill:#2376C1;}
	.st4{fill:none;}
</style>
  <style
     id="style796"
     type="text/css">
	.st0{fill:#41CC8D;}
	.st1{fill:#FF2E63;}
	.st2{fill:none;}
</style>
  <style
     id="style256"
     type="text/css">
	.st0{fill:none;}
	.st1{fill:#F5C357;}
	.st2{fill:#34485E;}
	.st3{fill:#54B3ED;}
	.st4{fill:#FFFFFF;}
</style>
  <g
     id="g294"
     transform="matrix(0.44838146,0,0,0.44838146,-39.491239,0.42462469)">
    <g
       id="Layer_2">
      <g
         id="flashcards">
        <rect
           id="rect260"
           height="225"
           width="400"
           class="st0"
           y="0"
           x="0"
           style="fill:none" />
        <path
           id="path262"
           d="m 214.1,90.4 c -0.8,10.6 7.9,19.3 18.5,18.5 8.3,-0.7 15,-7.4 15.7,-15.7 0.8,-10.6 -7.9,-19.3 -18.5,-18.5 -8.3,0.7 -15,7.4 -15.7,15.7 z"
           class="st1"
           inkscape:connector-curvature="0"
           style="fill:#f5c357" />
        <g
           id="g266">
          <path
             id="path264"
             d="m 119.5,90.2 c 0,-0.6 0.2,-1.1 0.6,-1.5 l 4.5,-4.5 c 0.2,-0.3 0.3,-0.7 0.3,-1.1 0,-0.6 -0.2,-1.1 -0.6,-1.5 l -1.2,-1.2 c -0.4,-0.4 -0.9,-0.6 -1.5,-0.6 -0.6,0 -1.1,0.2 -1.5,0.6 l -8.4,8.3 c -0.4,0.4 -0.6,0.9 -0.6,1.5 0,0.6 0.2,1.1 0.6,1.5 l 8.4,8.4 c 0.4,0.4 0.9,0.6 1.5,0.6 0.6,0 1.1,-0.2 1.5,-0.6 l 1.2,-1.2 c 0.4,-0.4 0.6,-0.9 0.6,-1.5 0,-0.3 -0.1,-0.7 -0.3,-1 L 120,91.8 c -0.3,-0.5 -0.5,-1 -0.5,-1.6 z"
             class="st2"
             inkscape:connector-curvature="0"
             style="fill:#34485e" />
        </g>
        <g
           id="g270">
          <path
             id="path268"
             d="m 280.3,90.2 c 0,0.6 -0.2,1.1 -0.6,1.5 l -4.5,4.5 c -0.2,0.3 -0.3,0.7 -0.3,1.1 0,0.6 0.2,1.1 0.6,1.5 l 1.2,1.2 c 0.4,0.4 0.9,0.6 1.5,0.6 0.6,0 1.1,-0.2 1.5,-0.6 l 8.4,-8.3 c 0.4,-0.4 0.6,-0.9 0.6,-1.5 0,-0.6 -0.2,-1.1 -0.6,-1.5 l -8.4,-8.4 c -0.4,-0.4 -0.9,-0.6 -1.5,-0.6 -0.6,0 -1.1,0.2 -1.5,0.6 l -1.2,1.2 c -0.4,0.4 -0.6,0.9 -0.6,1.5 0,0.3 0.1,0.7 0.3,1 l 4.6,4.6 c 0.3,0.5 0.5,1 0.5,1.6 z"
             class="st2"
             inkscape:connector-curvature="0"
             style="fill:#34485e" />
        </g>
        <g
           id="g282">
          <path
             id="path272"
             d="m 277,110 v 46 c 0,7.3 -5.6,13 -12.9,13 h -31.2 c 0.6,1 1,2.4 1,3.9 0,2 -0.6,4.1 -1.7,5.1 h 32 c 12.6,0 22.9,-9.4 22.9,-22 v -45 c 0,0.5 -2.8,0.9 -4.2,0.9 -2.2,-0.1 -3.9,-0.8 -5.9,-1.9 z"
             class="st3"
             inkscape:connector-curvature="0"
             style="fill:#54b3ed" />
          <path
             id="path274"
             d="m 167.1,169 h -29.6 c -7.3,0 -13.5,-5.6 -13.5,-13 v -45.7 c -1,1 -3,1.5 -4.9,1.5 v 0 c -1.6,0 -4.1,-0.4 -4.1,-1.1 V 156 c 0,12.6 10,22 22.5,22 h 30.3 c -1.1,-1 -1.7,-3.1 -1.7,-5.1 0.1,-1.5 0.4,-2.9 1,-3.9 z"
             class="st3"
             inkscape:connector-curvature="0"
             style="fill:#54b3ed" />
          <path
             id="path276"
             d="m 119.1,70.1 c 0.9,0 1.6,0.1 2.4,0.3 1,0.2 2.5,0.5 2.5,1 V 66.9 C 124,59.6 130.2,54 137.5,54 H 264 c 7.3,0 12.9,5.6 12.9,12.9 v 4.8 c 2,-0.5 1.9,-0.9 2.9,-1.2 0.9,-0.3 2.1,-0.5 3.1,-0.5 0.9,0 1.9,0.1 2.7,0.4 0.4,0.1 1.2,0.2 1.2,0.3 v -3.9 c 0,-12.6 -10.4,-21.9 -22.9,-21.9 H 137.5 C 125,45 115,54.3 115,66.9 v 4.2 c 0,-0.2 0.7,-0.3 1.1,-0.4 1,-0.4 1.9,-0.6 3,-0.6 z"
             class="st3"
             inkscape:connector-curvature="0"
             style="fill:#54b3ed" />
          <path
             id="path278"
             d="m 280.2,70.6 c 1,-0.3 2.1,-0.4 3.1,-0.4 0.9,0 1.7,0.1 2.5,0.3 -0.9,-0.3 -1.8,-0.4 -2.7,-0.4 -1,0 -2,0.2 -2.9,0.5 z"
             class="st4"
             inkscape:connector-curvature="0"
             style="fill:#ffffff" />
          <path
             id="path280"
             d="m 121.6,70.5 c -0.8,-0.2 -1.6,-0.3 -2.5,-0.3 v 0 c -1.1,0 -2.1,0.2 -3.1,0.5 1,-0.3 2.1,-0.4 3.1,-0.4 0.8,-0.1 1.7,0 2.5,0.2 z"
             class="st4"
             inkscape:connector-curvature="0"
             style="fill:#ffffff" />
        </g>
        <path
           id="path284"
           d="m 204.1,170.7 c 2.6,4.6 -2.1,9.3 -6.7,6.7 -0.6,-0.3 -1,-0.8 -1.4,-1.4 -2.6,-4.6 2.1,-9.3 6.7,-6.7 0.6,0.3 1.1,0.8 1.4,1.4 z"
           class="st2"
           inkscape:connector-curvature="0"
           style="fill:#34485e" />
        <path
           id="path286"
           d="m 189.2,170.7 c 2.6,4.6 -2.1,9.3 -6.7,6.7 -0.6,-0.3 -1,-0.8 -1.4,-1.4 -2.6,-4.6 2.1,-9.3 6.7,-6.7 0.6,0.3 1,0.8 1.4,1.4 z"
           class="st2"
           inkscape:connector-curvature="0"
           style="fill:#34485e" />
        <path
           id="path288"
           d="m 219,170.7 c 2.6,4.6 -2.1,9.3 -6.7,6.7 -0.6,-0.3 -1,-0.8 -1.4,-1.4 -2.6,-4.6 2.1,-9.3 6.7,-6.7 0.6,0.3 1,0.8 1.4,1.4 z"
           class="st2"
           inkscape:connector-curvature="0"
           style="fill:#34485e" />
        <path
           id="path290"
           d="m 243.8,118 -14.4,18.9 -47.6,-51.3 -43.6,47 v 13 1.4 c 0,5 4.1,9 9,9 h 0.2 107.1 c 2.1,0 3.9,-0.7 5.5,-1.9 2.2,-1.9 3.5,-5.1 3.5,-8.6 v -1.7 z"
           class="st2"
           inkscape:connector-curvature="0"
           style="fill:#34485e" />
      </g>
    </g>
  </g>
</svg>
