<?xml version="1.0" encoding="utf-8"?>
<!-- Generator: Adobe Illustrator 15.0.0, SVG Export Plug-In . SVG Version: 6.00 Build 0)  -->
<!DOCTYPE svg PUBLIC "-//W3C//DTD SVG 1.1//EN" "http://www.w3.org/Graphics/SVG/1.1/DTD/svg11.dtd">
<svg version="1.1"
	 id="svg4" sodipodi:docname="leganto.svg" inkscape:export-filename="/home/tony/Pictures/leganto12.png" inkscape:export-xdpi="96" xmlns:rdf="http://www.w3.org/1999/02/22-rdf-syntax-ns#" xmlns:dc="http://purl.org/dc/elements/1.1/" xmlns:cc="http://creativecommons.org/ns#" inkscape:version="0.92.1 r15371" xmlns:inkscape="http://www.inkscape.org/namespaces/inkscape" xmlns:svg="http://www.w3.org/2000/svg" inkscape:export-ydpi="96" xmlns:sodipodi="http://sodipodi.sourceforge.net/DTD/sodipodi-0.dtd"
	 xmlns="http://www.w3.org/2000/svg" xmlns:xlink="http://www.w3.org/1999/xlink" x="0px" y="0px" width="24px" height="24px"
	 viewBox="0 0 24 24" enable-background="new 0 0 24 24" xml:space="preserve">
<sodipodi:namedview  inkscape:zoom="9.8333333" inkscape:current-layer="svg4" inkscape:pageshadow="2" guidetolerance="10" gridtolerance="10" borderopacity="1" bordercolor="#666666" objecttolerance="10" pagecolor="#ffffff" inkscape:window-maximized="1" id="namedview6" inkscape:window-height="1176" inkscape:cx="12" inkscape:window-y="24" inkscape:window-x="65" inkscape:pageopacity="0" inkscape:window-width="1855" showgrid="false" inkscape:cy="12">
	</sodipodi:namedview>
<polygon fill="#FFFFFF" points="22,19 23,18.883 23,5 22,3 "/>
<path fill="#FFFFFF" d="M20,17.161c-2.863,0.215-5.055,0.712-7,1.483V7.032c2.004-1.247,4.648-1.725,7-1.922V17.161z"/>
<path fill="#FFFFFF" d="M11,18.645c-1.946-0.771-4.137-1.269-7-1.483V5.11c2.352,0.197,4.996,0.675,7,1.922V18.645z"/>
<polygon fill="#FFFFFF" points="2,19 1,18.883 1,5 2,3 "/>
<path id="path2" fill="#008080" d="M23,5v13.883L22,19V3c-3.895,0.119-7.505,0.762-10.002,2.316C9.502,3.762,5.896,3.119,2,3v16
	l-1-0.117V5H0v15h9.057c1.479,0,1.641,1,2.941,1c1.304,0,1.461-1,2.941-1H24V5H23z M11,18.645c-1.946-0.771-4.137-1.269-7-1.483
	V5.11c2.352,0.197,4.996,0.675,7,1.922V18.645z M20,17.161c-2.863,0.215-5.055,0.712-7,1.483V7.032c2.004-1.247,4.648-1.725,7-1.922
	V17.161z"/>
</svg>
