<?xml version="1.0" encoding="UTF-8" standalone="no"?>
<svg
   xmlns:dc="http://purl.org/dc/elements/1.1/"
   xmlns:cc="http://creativecommons.org/ns#"
   xmlns:rdf="http://www.w3.org/1999/02/22-rdf-syntax-ns#"
   xmlns:svg="http://www.w3.org/2000/svg"
   xmlns="http://www.w3.org/2000/svg"
   xmlns:sodipodi="http://sodipodi.sourceforge.net/DTD/sodipodi-0.dtd"
   xmlns:inkscape="http://www.inkscape.org/namespaces/inkscape"
   height="24px"
   width="24px"
   viewBox="0 0 100 100"
   enable-background="new 0 0 100 100"
   version="1.1"
   id="svg32"
   sodipodi:docname="icon.svg"
   inkscape:version="0.92.2 5c3e80d, 2017-08-06">
  <metadata
     id="metadata38">
    <rdf:RDF>
      <cc:Work
         rdf:about="">
        <dc:format>image/svg+xml</dc:format>
        <dc:type
           rdf:resource="http://purl.org/dc/dcmitype/StillImage" />
        <dc:title></dc:title>
      </cc:Work>
    </rdf:RDF>
  </metadata>
  <defs
     id="defs36">
    <style
       id="style1183">
      .cls-1 {
        isolation: isolate;
      }

      .cls-2 {
        fill: none;
      }

      .cls-3 {
        fill: #6bc9a7;
      }

      .cls-4 {
        opacity: 0.15;
        mix-blend-mode: multiply;
      }

      .cls-5 {
        fill: #fff;
      }

      .cls-6 {
        fill: #cde6fc;
      }

      .cls-7 {
        fill: #8db7e2;
      }

      .cls-8 {
        opacity: 0.2;
      }

      .cls-9 {
        fill: #231f20;
      }

      .cls-10 {
        fill: #ddd;
      }

      .cls-11 {
        fill: #239630;
      }
    </style>
    <style
       id="style1586">
      .cls-1 {
        fill: #ea964d;
      }

      .cls-2 {
        fill: #f0f1f5;
      }

      .cls-3 {
        fill: #b8b8bf;
      }

      .cls-4 {
        fill: #34495e;
      }

      .cls-5 {
        fill: #e94c3d;
      }

      .cls-6 {
        fill: #c1392b;
      }

      .cls-7 {
        fill: #3497da;
      }

      .cls-8 {
        fill: #2a80bb;
      }

      .cls-9 {
        fill: #2c3e50;
        opacity: 0.1;
      }

      .cls-10 {
        fill: #8e44ad;
      }

      .cls-11 {
        fill: none;
      }
    </style>
  </defs>
  <sodipodi:namedview
     pagecolor="#ffffff"
     bordercolor="#666666"
     borderopacity="1"
     objecttolerance="10"
     gridtolerance="10"
     guidetolerance="10"
     inkscape:pageopacity="0"
     inkscape:pageshadow="2"
     inkscape:window-width="1689"
     inkscape:window-height="1016"
     id="namedview34"
     showgrid="false"
     inkscape:zoom="21.670975"
     inkscape:cx="23.160833"
     inkscape:cy="16.122761"
     inkscape:window-x="75"
     inkscape:window-y="47"
     inkscape:window-maximized="0"
     inkscape:current-layer="svg32" />
  <g
     stroke-miterlimit="10"
     id="g22"
     style="display:none;stroke-miterlimit:10">
    <g
       id="g14"
       style="stroke-width:3;stroke-linecap:round;stroke-linejoin:round">
      <g
         id="g10"
         style="stroke:#999999"
         transform="translate(29.166667)">
        <g
           id="g6"
           style="fill:#ffffff">
          <path
             d="m 41.566667,28.1 h 18.4 l -23.3,-24.1 v 18.9 c 0,2.8 2.2,5.2 4.9,5.2 z"
             id="path2"
             inkscape:connector-curvature="0" />
          <path
             d="m 41.566667,28.1 c -2.7,0 -4.8,-2.3 -4.8,-5.2 V 4 H -8.5666667 c -2.7000003,0 -4.8000003,2.3 -4.8000003,5.2 v 83.2 c 0,2.9 2.1,5.2 4.8000003,5.2 H 55.066667 c 2.7,0 4.8,-2.3 4.8,-5.2 V 28.1 Z"
             id="path4"
             inkscape:connector-curvature="0"
             sodipodi:nodetypes="sscsssssscs" />
        </g>
      </g>
    </g>
  </g>
  <style
     id="style131"
     type="text/css">
	.st0{fill:#1D1D1D;}
	.st1{fill:#FFFFFF;}
</style>
  <style
     id="style900"
     type="text/css">
	.st0{fill:none;}
	.st1{fill:#88C87A;}
	.st2{opacity:0.15;}
	.st3{fill:#231F20;}
	.st4{fill:#FFFFFF;}
	.st5{fill:#F05F5F;}
</style>
  <style
     id="style244"
     type="text/css">
	.st0{fill:none;}
	.st1{fill:#3497DA;}
	.st2{fill:#4AA867;}
	.st3{fill:#E94C3D;}
	.st4{opacity:0.2;}
	.st5{fill:#020202;}
	.st6{fill:#34495E;}
	.st7{fill:#FFFFFF;}
	.st8{opacity:0.8;fill:#FFFFFF;}
</style>
  <g
     id="g376"
     transform="matrix(0.40188208,0,0,0.40188208,-30.491709,3.9777712)">
    <rect
       id="rect248"
       height="225"
       width="400"
       class="st0"
       y="0"
       x="0"
       style="fill:none" />
    <path
       id="path250"
       d="M 267.1,44.3 H 136.4 c -0.7,0 -1.3,0.6 -1.3,1.3 v 30.9 c 0,0.7 0.6,1.3 1.3,1.3 h 0.6 130.1 c 0.7,0 1.3,-0.6 1.3,-1.3 V 46 45.6 c 0,-0.7 -0.6,-1.3 -1.3,-1.3 z"
       class="st1"
       inkscape:connector-curvature="0"
       style="fill:#3497da" />
    <path
       id="path252"
       d="m 133.5,114.2 c -5.1,0 -9.2,4.1 -9.2,9.2 0,5.1 4.1,9.2 9.2,9.2 5.1,0 9.2,-4.1 9.2,-9.2 0,-5 -4.1,-9.2 -9.2,-9.2 z"
       class="st1"
       inkscape:connector-curvature="0"
       style="fill:#3497da" />
    <path
       id="path254"
       d="m 200.5,114.2 c -5.1,0 -9.2,4.1 -9.2,9.2 0,5.1 4.1,9.2 9.2,9.2 5.1,0 9.2,-4.1 9.2,-9.2 0,-5 -4.1,-9.2 -9.2,-9.2 z"
       class="st1"
       inkscape:connector-curvature="0"
       style="fill:#3497da" />
    <path
       id="path256"
       d="m 107.7,152.9 c -7.7,0 -13.9,6.2 -13.9,13.9 0,7.7 6.2,13.9 13.9,13.9 7.7,0 13.9,-6.2 13.9,-13.9 0,-7.7 -6.2,-13.9 -13.9,-13.9 z"
       class="st2"
       inkscape:connector-curvature="0"
       style="fill:#4aa867" />
    <path
       id="path258"
       d="m 155.8,152.9 c -7.7,0 -13.9,6.2 -13.9,13.9 0,7.7 6.2,13.9 13.9,13.9 7.7,0 13.9,-6.2 13.9,-13.9 0,-7.7 -6.3,-13.9 -13.9,-13.9 z"
       class="st3"
       inkscape:connector-curvature="0"
       style="fill:#e94c3d" />
    <g
       id="g262"
       class="st4"
       style="opacity:0.2">
      <path
         id="path260"
         d="m 203.7,114.9 c 2.5,1.6 4.1,4.3 4.1,7.4 0,4.8 -3.9,8.8 -8.8,8.8 -2.5,0 -4.8,-1.1 -6.4,-2.8 1.6,2.7 4.5,4.4 7.9,4.4 5.1,0 9.2,-4.1 9.2,-9.2 0,-4 -2.5,-7.3 -6,-8.6 z"
         class="st5"
         inkscape:connector-curvature="0"
         style="fill:#020202" />
    </g>
    <g
       id="g266"
       class="st4"
       style="opacity:0.2">
      <path
         id="path264"
         d="m 136.8,114.9 c 2.5,1.6 4.1,4.3 4.1,7.4 0,4.8 -3.9,8.8 -8.8,8.8 -2.5,0 -4.8,-1.1 -6.4,-2.8 1.6,2.7 4.5,4.4 7.9,4.4 5.1,0 9.2,-4.1 9.2,-9.2 -0.1,-4 -2.5,-7.3 -6,-8.6 z"
         class="st5"
         inkscape:connector-curvature="0"
         style="fill:#020202" />
    </g>
    <path
       id="path268"
       d="m 264.9,114.1 c -5.1,0 -9.2,4.1 -9.2,9.2 0,5.1 4.1,9.2 9.2,9.2 5.1,0 9.2,-4.1 9.2,-9.2 0,-5.1 -4.1,-9.2 -9.2,-9.2 z"
       class="st1"
       inkscape:connector-curvature="0"
       style="fill:#3497da" />
    <path
       id="path270"
       d="m 239.8,152.9 c -7.7,0 -13.9,6.2 -13.9,13.9 0,7.7 6.2,13.9 13.9,13.9 7.7,0 13.9,-6.2 13.9,-13.9 0,-7.7 -6.3,-13.9 -13.9,-13.9 z"
       class="st2"
       inkscape:connector-curvature="0"
       style="fill:#4aa867" />
    <path
       id="path272"
       d="m 292.2,152.9 c -7.7,0 -13.9,6.2 -13.9,13.9 0,7.7 6.2,13.9 13.9,13.9 7.7,0 13.9,-6.2 13.9,-13.9 0,-7.7 -6.2,-13.9 -13.9,-13.9 z"
       class="st3"
       inkscape:connector-curvature="0"
       style="fill:#e94c3d" />
    <g
       id="g292">
      <path
         id="path274"
         d="m 273.1,127 0.2,0.2 c 0,-0.1 0.1,-0.2 0.1,-0.2 z"
         class="st0"
         inkscape:connector-curvature="0"
         style="fill:none" />
      <path
         id="path276"
         d="m 191.3,123.5 c 0,5.1 4.1,9.2 9.2,9.2 5.1,0 9.2,-4.1 9.2,-9.2 0,-5.1 -4.1,-9.2 -9.2,-9.2 -5,-0.1 -9.2,4.1 -9.2,9.2 z"
         class="st0"
         inkscape:connector-curvature="0"
         style="fill:none" />
      <path
         id="path278"
         d="m 141.9,166.8 c 0,7.7 6.2,13.9 13.9,13.9 7.7,0 13.9,-6.2 13.9,-13.9 0,-7.7 -6.2,-13.9 -13.9,-13.9 -7.7,0 -13.9,6.2 -13.9,13.9 z"
         class="st0"
         inkscape:connector-curvature="0"
         style="fill:none" />
      <path
         id="path280"
         d="m 123.4,132.6 -11.9,16.3 c 2,0.4 3.8,1.2 5.5,2.2 L 128,136 c -1.7,-0.9 -3.3,-2 -4.6,-3.4 z"
         class="st6"
         inkscape:connector-curvature="0"
         style="fill:#34495e" />
      <path
         id="path282"
         d="m 247,89.7 v 0 C 246.6,89.3 245.8,89 245.4,89 H 204 l -0.1,-8 h -6.2 v 8 h -41.3 c -0.7,0 -1.1,0 -5.9,6.5 L 139.1,111 c 1.7,0.8 3.3,2 4.5,3.4 L 158,94.6 c 0.2,-0.1 0.5,-0.2 0.7,-0.2 l 38.8,-0.2 v 15.9 c 0.9,-0.2 1.9,-0.3 2.9,-0.3 1.2,0 2.3,0.2 3.3,0.4 v -16 l 38.5,0.2 c 0.9,0.9 5.4,7 13.6,18.6 1.5,-1.3 3.3,-2.3 5.4,-2.9 z"
         class="st6"
         inkscape:connector-curvature="0"
         style="fill:#34495e" />
      <path
         id="path284"
         d="m 253.2,130.3 -12.9,18.2 c 2.2,0.1 4.2,0.5 6.1,1.3 l 10.8,-15.1 c -1.6,-1.2 -3,-2.7 -4,-4.4 z"
         class="st6"
         inkscape:connector-curvature="0"
         style="fill:#34495e" />
      <path
         id="path286"
         d="m 139.5,135.6 10,13.9 c 1.9,-0.7 3.9,-1.1 6,-1.1 L 144,132 c -1.2,1.5 -2.8,2.8 -4.5,3.6 z"
         class="st6"
         inkscape:connector-curvature="0"
         style="fill:#34495e" />
      <path
         id="path288"
         d="m 276,131.2 c -1.2,1.6 -2.7,3 -4.4,4 1.8,2.6 3.7,5.2 5.6,8 l 5.6,7.9 c 1.7,-1 3.6,-1.8 5.6,-2.2 z"
         class="st6"
         inkscape:connector-curvature="0"
         style="fill:#34495e" />
      <path
         id="path290"
         d="m 301.6,177.7 0.3,-1 c -0.2,0.2 -0.4,0.4 -0.6,0.6 z"
         class="st7"
         inkscape:connector-curvature="0"
         style="fill:#ffffff" />
    </g>
    <g
       id="g296"
       class="st4"
       style="opacity:0.2">
      <path
         id="path294"
         d="m 268.4,76.5 v -31 c 0,0 0,-0.5 -0.4,-0.8 -0.4,-0.4 -0.9,-0.4 -0.9,-0.4 h -0.5 v 30.2 c 0,0.7 -0.6,1.3 -1.3,1.3 H 135.1 c 0,0 -0.1,0.8 0.2,1.3 0.3,0.6 1,0.7 1,0.7 h 130.9 c 0.6,0 1.2,-0.5 1.2,-1.3 z"
         class="st5"
         inkscape:connector-curvature="0"
         style="fill:#020202" />
    </g>
    <g
       id="g302"
       class="st4"
       style="opacity:0.2">
      <g
         id="g300">
        <path
           id="path298"
           d="m 268.1,114.7 c 2.5,1.6 4.1,4.3 4.1,7.4 0,4.8 -3.9,8.8 -8.8,8.8 -2.5,0 -4.8,-1.1 -6.4,-2.8 1.6,2.7 4.5,4.4 7.9,4.4 5.1,0 9.2,-4.1 9.2,-9.2 -0.1,-4 -2.5,-7.3 -6,-8.6 z"
           class="st5"
           inkscape:connector-curvature="0"
           style="fill:#020202" />
      </g>
    </g>
    <path
       id="path304"
       d="m 258.2,57.4 h -93.8 c -0.2,0 -0.4,-0.2 -0.4,-0.4 v -3.3 c 0,-0.2 0.2,-0.4 0.4,-0.4 h 93.8 c 0.2,0 0.4,0.2 0.4,0.4 V 57 c 0,0.2 -0.2,0.4 -0.4,0.4 z"
       class="st8"
       inkscape:connector-curvature="0"
       style="opacity:0.8;fill:#ffffff" />
    <path
       id="path306"
       d="m 233.9,66.6 h -69.5 c -0.2,0 -0.4,-0.2 -0.4,-0.4 v -3.3 c 0,-0.2 0.2,-0.4 0.4,-0.4 h 69.5 c 0.2,0 0.4,0.2 0.4,0.4 v 3.3 c 0,0.2 -0.2,0.4 -0.4,0.4 z"
       class="st8"
       inkscape:connector-curvature="0"
       style="opacity:0.8;fill:#ffffff" />
    <path
       id="path308"
       d="m 154.9,56.3 c 0,3.5 -3.8,3.5 -3.8,4.8 v 0.3 c 0,0.3 -0.3,0.6 -0.6,0.6 h -2.4 c -0.3,0 -0.6,-0.3 -0.6,-0.6 V 61 c 0,-1.9 1.4,-2.6 2.5,-3.2 0.9,-0.5 1.5,-0.9 1.5,-1.5 0,-0.9 -1.1,-1.5 -2.1,-1.5 -1.2,0 -1.8,0.6 -2.5,1.6 -0.2,0.3 -0.6,0.3 -0.9,0.1 l -1.4,-1.1 c -0.3,-0.2 -0.3,-0.6 -0.1,-0.9 1.2,-1.8 2.8,-2.8 5.2,-2.8 2.5,-0.1 5.2,1.9 5.2,4.6 z"
       class="st8"
       inkscape:connector-curvature="0"
       style="opacity:0.8;fill:#ffffff" />
    <circle
       id="circle310"
       r="2.2"
       cy="65.699997"
       cx="149.39999"
       class="st8"
       style="opacity:0.8;fill:#ffffff" />
    <g
       id="g314"
       class="st4"
       style="opacity:0.2">
      <path
         id="path312"
         d="m 112.7,153.8 c 3.7,2.3 6.2,6.5 6.2,11.2 0,7.3 -5.9,13.2 -13.2,13.2 -3.8,0 -7.3,-1.6 -9.7,-4.3 2.4,4 6.8,6.7 11.8,6.7 7.6,0 13.8,-6.2 13.8,-13.8 0,-5.9 -3.7,-11 -8.9,-13 z"
         class="st5"
         inkscape:connector-curvature="0"
         style="fill:#020202" />
    </g>
    <g
       id="g318"
       class="st4"
       style="opacity:0.2">
      <path
         id="path316"
         d="m 160.8,153.8 c 3.7,2.3 6.2,6.5 6.2,11.2 0,7.3 -5.9,13.2 -13.2,13.2 -3.8,0 -7.3,-1.6 -9.7,-4.3 2.4,4 6.8,6.7 11.8,6.7 7.6,0 13.8,-6.2 13.8,-13.8 0.1,-5.9 -3.7,-11 -8.9,-13 z"
         class="st5"
         inkscape:connector-curvature="0"
         style="fill:#020202" />
    </g>
    <g
       id="g322"
       class="st4"
       style="opacity:0.2">
      <path
         id="path320"
         d="m 244.7,153.8 c 3.7,2.3 6.2,6.5 6.2,11.2 0,7.3 -5.9,13.2 -13.2,13.2 -3.8,0 -7.3,-1.6 -9.7,-4.3 2.4,4 6.8,6.7 11.8,6.7 7.6,0 13.8,-6.2 13.8,-13.8 0.1,-5.9 -3.6,-11 -8.9,-13 z"
         class="st5"
         inkscape:connector-curvature="0"
         style="fill:#020202" />
    </g>
    <g
       id="g326"
       class="st4"
       style="opacity:0.2">
      <path
         id="path324"
         d="m 297.2,153.8 c 3.7,2.3 6.2,6.5 6.2,11.2 0,7.3 -5.9,13.2 -13.2,13.2 -3.8,0 -7.3,-1.6 -9.7,-4.3 2.4,4 6.8,6.7 11.8,6.7 7.6,0 13.8,-6.2 13.8,-13.8 0.1,-5.9 -3.6,-11 -8.9,-13 z"
         class="st5"
         inkscape:connector-curvature="0"
         style="fill:#020202" />
    </g>
  </g>
</svg>
