<?xml version="1.0" encoding="UTF-8" standalone="no"?>
<svg
   xmlns:dc="http://purl.org/dc/elements/1.1/"
   xmlns:cc="http://creativecommons.org/ns#"
   xmlns:rdf="http://www.w3.org/1999/02/22-rdf-syntax-ns#"
   xmlns:svg="http://www.w3.org/2000/svg"
   xmlns="http://www.w3.org/2000/svg"
   xmlns:sodipodi="http://sodipodi.sourceforge.net/DTD/sodipodi-0.dtd"
   xmlns:inkscape="http://www.inkscape.org/namespaces/inkscape"
   height="24px"
   width="24px"
   viewBox="0 0 100 100"
   enable-background="new 0 0 100 100"
   version="1.1"
   id="svg18"
   sodipodi:docname="icon.svg"
   inkscape:version="0.92.2 5c3e80d, 2017-08-06">
  <metadata
     id="metadata24">
    <rdf:RDF>
      <cc:Work
         rdf:about="">
        <dc:format>image/svg+xml</dc:format>
        <dc:type
           rdf:resource="http://purl.org/dc/dcmitype/StillImage" />
        <dc:title></dc:title>
      </cc:Work>
    </rdf:RDF>
  </metadata>
  <defs
     id="defs22" />
  <sodipodi:namedview
     pagecolor="#ffffff"
     bordercolor="#666666"
     borderopacity="1"
     objecttolerance="10"
     gridtolerance="10"
     guidetolerance="10"
     inkscape:pageopacity="0"
     inkscape:pageshadow="2"
     inkscape:window-width="1089"
     inkscape:window-height="636"
     id="namedview20"
     showgrid="false"
     inkscape:zoom="14.202256"
     inkscape:cx="11.986974"
     inkscape:cy="13.520752"
     inkscape:window-x="0"
     inkscape:window-y="22"
     inkscape:window-maximized="0"
     inkscape:current-layer="g14" />
  <g
     stroke-linejoin="round"
     stroke-linecap="round"
     stroke-width="3"
     stroke-miterlimit="10"
     id="g14">
    <g
       stroke="#999"
       id="g10">
      <g
         id="g6"
         transform="translate(-8.3333333)"
         style="fill:#ffffff">
        <path
           d="M 77.8,27.1 H 98 L 72.5,2.7 v 19.1 c 0,3 2.4,5.3 5.3,5.3 z"
           id="path2"
           inkscape:connector-curvature="0" />
        <path
           d="m 77.8,27.1 c -3,0 -5.3,-2.3 -5.3,-5.3 V 2.7 H 32 C 29,2.7 26.7,5 26.7,8 v 84.3 c 0,3 2.3,5.3 5.3,5.3 h 60.6 c 3,0 5.3,-2.3 5.3,-5.3 V 27.1 c 0,0 -20.1,0 -20.1,0 z"
           id="path4"
           inkscape:connector-curvature="0" />
      </g>
    </g>
    <circle
       cx="54.016556"
       cy="47.375145"
       r="19.013033"
       id="circle12"
       style="fill:#009688;stroke:#009688;stroke-width:2.35698748" />
    <text
       xml:space="preserve"
       style="font-style:normal;font-weight:normal;font-size:166.66667175px;line-height:1.25;font-family:sans-serif;letter-spacing:0px;word-spacing:0px;fill:#999999;fill-opacity:1;stroke:none;stroke-width:12.5;"
       x="40.486526"
       y="87.678017"
       id="text358"><tspan
         sodipodi:role="line"
         id="tspan356"
         x="40.486526"
         y="87.678017"
         style="font-style:normal;font-variant:normal;font-weight:normal;font-stretch:normal;font-size:22.22222137px;font-family:sans-serif;-inkscape-font-specification:'sans-serif, Normal';font-variant-ligatures:normal;font-variant-caps:normal;font-variant-numeric:normal;font-feature-settings:normal;text-align:start;writing-mode:lr-tb;text-anchor:start;stroke-width:12.5;fill:#999999;fill-opacity:1;">Aa</tspan></text>
  </g>
  <path
     d="M 58.730528,50.046395 H 57.709167 L 57.394902,49.73213 c 1.25706,-1.414193 1.964156,-3.299783 1.964156,-5.342505 0,-4.556842 -3.692613,-8.17089 -8.170889,-8.17089 -4.478276,0 -8.170888,3.692614 -8.170888,8.17089 0,4.478276 3.692612,8.17089 8.170888,8.17089 2.042722,0 3.849746,-0.785663 5.342505,-1.964156 l 0.314265,0.314265 v 1.021361 l 6.285299,6.2853 1.88559,-1.88559 c 0,0 -6.2853,-6.2853 -6.2853,-6.2853 m -7.542359,0 c -3.14265,0 -5.656768,-2.51412 -5.656768,-5.65677 0,-3.14265 2.514118,-5.65677 5.656768,-5.65677 3.14265,0 5.65677,2.51412 5.65677,5.65677 0,3.14265 -2.51412,5.65677 -5.65677,5.65677"
     id="path16"
     inkscape:connector-curvature="0"
     style="fill:#ffffff;stroke-width:0.78566247" />
</svg>
