<?xml version="1.0" encoding="utf-8"?>
<!-- Generator: Adobe Illustrator 15.0.0, SVG Export Plug-In . SVG Version: 6.00 Build 0)  -->
<!DOCTYPE svg PUBLIC "-//W3C//DTD SVG 1.1//EN" "http://www.w3.org/Graphics/SVG/1.1/DTD/svg11.dtd">
<svg version="1.1" id="Layer_1" xmlns="http://www.w3.org/2000/svg" xmlns:xlink="http://www.w3.org/1999/xlink" x="0px" y="0px"
	 width="24px" height="24px" viewBox="0 0 24 24" enable-background="new 0 0 24 24" xml:space="preserve">
<path id="path4" fill="#FFFFFF" stroke="#BBBBBB" stroke-linecap="round" stroke-linejoin="round" stroke-miterlimit="10" d="
	M16.977,6.744c-0.646,0-1.15-0.552-1.15-1.248V0.96H4.944c-0.648,0-1.152,0.552-1.152,1.248v19.968c0,0.696,0.504,1.248,1.152,1.248
	h15.272c0.647,0,1.152-0.552,1.152-1.248V6.744H16.977z"/>
<g>
	<circle fill="#009688" cx="12.58" cy="9.327" r="5.807"/>
	<path fill="#FFFFFF" d="M14.02,10.144h-0.312l-0.1-0.097c0.387-0.432,0.604-1.008,0.604-1.632c0-1.392-1.129-2.496-2.497-2.496
		S9.218,7.047,9.218,8.415c0,1.368,1.128,2.496,2.496,2.496c0.623,0,1.175-0.239,1.632-0.6l0.096,0.096v0.312l1.92,1.92l0.576-0.575
		L14.02,10.144 M11.716,10.144c-0.961,0-1.729-0.768-1.729-1.729c0-0.96,0.768-1.728,1.729-1.728c0.958,0,1.728,0.768,1.728,1.728
		C13.443,9.376,12.674,10.144,11.716,10.144"/>
</g>
<text transform="matrix(1 0 0 1 8.7397 20.8633)" fill="#999999" font-family="'Sathu'" font-size="6">Aa</text>
<path id="path2" fill="#FFFFFF" stroke="#BBBBBB" stroke-linecap="round" stroke-linejoin="round" stroke-miterlimit="10" d="
	M16.977,6.744h4.416L15.8,0.96v4.536C15.8,6.168,16.328,6.744,16.977,6.744z"/>
</svg>
