<?xml version="1.0" encoding="UTF-8" standalone="no"?>
<svg
   xmlns:dc="http://purl.org/dc/elements/1.1/"
   xmlns:cc="http://creativecommons.org/ns#"
   xmlns:rdf="http://www.w3.org/1999/02/22-rdf-syntax-ns#"
   xmlns:svg="http://www.w3.org/2000/svg"
   xmlns="http://www.w3.org/2000/svg"
   xmlns:sodipodi="http://sodipodi.sourceforge.net/DTD/sodipodi-0.dtd"
   xmlns:inkscape="http://www.inkscape.org/namespaces/inkscape"
   height="24px"
   width="24px"
   viewBox="0 0 100 100"
   enable-background="new 0 0 100 100"
   version="1.1"
   id="svg32"
   sodipodi:docname="icon.svg"
   inkscape:version="0.92.2 5c3e80d, 2017-08-06">
  <metadata
     id="metadata38">
    <rdf:RDF>
      <cc:Work
         rdf:about="">
        <dc:format>image/svg+xml</dc:format>
        <dc:type
           rdf:resource="http://purl.org/dc/dcmitype/StillImage" />
        <dc:title></dc:title>
      </cc:Work>
    </rdf:RDF>
  </metadata>
  <defs
     id="defs36">
    <style
       id="style1183">
      .cls-1 {
        isolation: isolate;
      }

      .cls-2 {
        fill: none;
      }

      .cls-3 {
        fill: #6bc9a7;
      }

      .cls-4 {
        opacity: 0.15;
        mix-blend-mode: multiply;
      }

      .cls-5 {
        fill: #fff;
      }

      .cls-6 {
        fill: #cde6fc;
      }

      .cls-7 {
        fill: #8db7e2;
      }

      .cls-8 {
        opacity: 0.2;
      }

      .cls-9 {
        fill: #231f20;
      }

      .cls-10 {
        fill: #ddd;
      }

      .cls-11 {
        fill: #239630;
      }
    </style>
    <style
       id="style1586">
      .cls-1 {
        fill: #ea964d;
      }

      .cls-2 {
        fill: #f0f1f5;
      }

      .cls-3 {
        fill: #b8b8bf;
      }

      .cls-4 {
        fill: #34495e;
      }

      .cls-5 {
        fill: #e94c3d;
      }

      .cls-6 {
        fill: #c1392b;
      }

      .cls-7 {
        fill: #3497da;
      }

      .cls-8 {
        fill: #2a80bb;
      }

      .cls-9 {
        fill: #2c3e50;
        opacity: 0.1;
      }

      .cls-10 {
        fill: #8e44ad;
      }

      .cls-11 {
        fill: none;
      }
    </style>
    <style
       id="style6156">
      .cls-1 {
        fill: #f06060;
      }

      .cls-2 {
        opacity: 0.15;
      }

      .cls-3 {
        fill: #231f20;
      }

      .cls-4 {
        fill: #fff;
      }

      .cls-5 {
        fill: #79aad3;
      }

      .cls-6 {
        fill: #b0afad;
      }

      .cls-7 {
        fill: none;
      }
    </style>
    <style
       id="style217">
      .cls-1 {
        isolation: isolate;
      }

      .cls-2 {
        fill: #d35400;
      }

      .cls-3 {
        opacity: 0.25;
        mix-blend-mode: multiply;
      }

      .cls-4 {
        fill: #fff;
      }

      .cls-5 {
        fill: #34495e;
      }

      .cls-6 {
        fill: #2ecc71;
      }

      .cls-7 {
        fill: #2980b9;
      }

      .cls-8 {
        fill: none;
      }
    </style>
    <style
       id="style504">
      .cls-1 {
        isolation: isolate;
      }

      .cls-2 {
        fill: #97baf6;
      }

      .cls-3 {
        fill: #dedede;
      }

      .cls-4 {
        opacity: 0.2;
        mix-blend-mode: multiply;
      }

      .cls-5 {
        fill: #62c485;
      }

      .cls-6 {
        fill: #34495e;
      }

      .cls-7 {
        fill: none;
      }
    </style>
  </defs>
  <sodipodi:namedview
     pagecolor="#ffffff"
     bordercolor="#666666"
     borderopacity="1"
     objecttolerance="10"
     gridtolerance="10"
     guidetolerance="10"
     inkscape:pageopacity="0"
     inkscape:pageshadow="2"
     inkscape:window-width="1440"
     inkscape:window-height="856"
     id="namedview34"
     showgrid="false"
     inkscape:zoom="19.749796"
     inkscape:cx="11.832723"
     inkscape:cy="12.213635"
     inkscape:window-x="75"
     inkscape:window-y="47"
     inkscape:window-maximized="0"
     inkscape:current-layer="svg32" />
  <g
     stroke-miterlimit="10"
     id="g22"
     style="display:none;stroke-miterlimit:10">
    <g
       id="g14"
       style="stroke-width:3;stroke-linecap:round;stroke-linejoin:round">
      <g
         id="g10"
         style="stroke:#999999"
         transform="translate(29.166667)">
        <g
           id="g6"
           style="fill:#ffffff">
          <path
             d="m 41.566667,28.1 h 18.4 l -23.3,-24.1 v 18.9 c 0,2.8 2.2,5.2 4.9,5.2 z"
             id="path2"
             inkscape:connector-curvature="0" />
          <path
             d="m 41.566667,28.1 c -2.7,0 -4.8,-2.3 -4.8,-5.2 V 4 H -8.5666667 c -2.7000003,0 -4.8000003,2.3 -4.8000003,5.2 v 83.2 c 0,2.9 2.1,5.2 4.8000003,5.2 H 55.066667 c 2.7,0 4.8,-2.3 4.8,-5.2 V 28.1 Z"
             id="path4"
             inkscape:connector-curvature="0"
             sodipodi:nodetypes="sscsssssscs" />
        </g>
      </g>
    </g>
  </g>
  <style
     id="style131"
     type="text/css">
	.st0{fill:#1D1D1D;}
	.st1{fill:#FFFFFF;}
</style>
  <style
     id="style900"
     type="text/css">
	.st0{fill:none;}
	.st1{fill:#88C87A;}
	.st2{opacity:0.15;}
	.st3{fill:#231F20;}
	.st4{fill:#FFFFFF;}
	.st5{fill:#F05F5F;}
</style>
  <style
     id="style214"
     type="text/css">
	.st0{fill:#DDDDDD;}
	.st1{fill:#C6C6C6;}
	.st2{fill:#8DB7E2;}
	.st3{fill:#2376C1;}
	.st4{fill:none;}
</style>
  <g
     id="g536"
     class="cls-1"
     style="isolation:isolate"
     transform="matrix(0.40960267,0,0,0.40960267,-31.801678,1.0779364)">
    <g
       data-name="Layer 2"
       id="Layer_2-7">
      <g
         data-name="drag and drop"
         id="drag_and_drop">
        <g
           id="g530">
          <path
             id="path510"
             d="m 191.81,111.4 h -5.34 v -4.71 h 5.34 z m -10.65,0 h -5.31 v -4.71 h 5.31 z m -10.62,0 h -5.31 v -4.71 h 5.31 z m -10.62,0 h -5.31 v -4.71 h 5.31 z m -10.62,0 H 144 v -4.71 h 5.31 z m -10.62,0 h -5.31 v -4.71 h 5.31 z m -10.62,0 h -2.71 A 9.73,9.73 0 0 1 122,110.81 l 1.62,-4.42 a 5,5 0 0 0 1.73,0.31 h 2.71 z m 70.15,-2.4 -3.09,-3.55 a 5.11,5.11 0 0 0 1.71,-3.12 l 4.66,0.67 a 9.82,9.82 0 0 1 -3.28,6 z m -81.39,-2.6 a 9.78,9.78 0 0 1 -1.25,-4.79 v -1.51 h 4.71 v 1.51 a 5.06,5.06 0 0 0 0.65,2.48 z m 84.76,-9 h -4.71 V 92 h 4.71 z m -81.31,-2.57 h -4.71 v -5.36 h 4.71 z m 81.31,-8.05 h -4.71 v -5.36 h 4.71 z m -81.31,-2.57 h -4.71 v -5.36 h 4.71 z m 81.31,-8 h -4.71 V 70.8 h 4.71 z m -81.31,-2.57 h -4.71 v -5.41 h 4.71 z m 81.31,-8.05 h -4.71 v -5.41 h 4.71 z m -81.31,-2.57 h -4.71 v -5.4 h 4.71 z m 81.31,-8 h -4.71 v -5.45 h 4.71 z m -81.31,-2.57 h -4.71 V 47 h 4.71 z m 81.31,-8.05 h -4.71 v -1.63 a 5.06,5.06 0 0 0 -0.65,-2.49 l 4.1,-2.32 a 9.78,9.78 0 0 1 1.26,4.8 z M 120.32,42 115.66,41.32 a 9.82,9.82 0 0 1 3.28,-6 l 3.06,3.6 A 5.11,5.11 0 0 0 120.32,42 Z m 73.18,-4 a 5,5 0 0 0 -1.72,-0.3 h -2.73 V 33 h 2.73 a 9.72,9.72 0 0 1 3.33,0.59 z m -9.76,-0.3 h -5.31 V 33 h 5.31 z m -10.62,0 h -5.31 V 33 h 5.31 z m -10.62,0 h -5.3 V 33 h 5.31 z m -10.62,0 h -5.31 V 33 h 5.31 z m -10.62,0 H 136 V 33 h 5.31 z m -10.62,0 h -5.29 V 33 h 5.31 z"
             class="cls-2"
             inkscape:connector-curvature="0"
             style="fill:#97baf6" />
          <path
             id="path512"
             d="m 282.66,111.4 h -5.34 v -4.71 h 5.34 z m -10.65,0 h -5.31 v -4.71 h 5.3 z m -10.62,0 h -5.31 v -4.71 h 5.31 z m -10.62,0 h -5.31 v -4.71 h 5.31 z m -10.62,0 h -5.31 v -4.71 h 5.31 z m -10.62,0 h -5.31 v -4.71 h 5.31 z m -10.62,0 h -2.71 a 9.72,9.72 0 0 1 -3.35,-0.59 l 1.62,-4.42 a 5,5 0 0 0 1.73,0.31 h 2.71 z M 289.06,109 286,105.43 a 5.11,5.11 0 0 0 1.71,-3.12 l 4.66,0.67 a 9.82,9.82 0 0 1 -3.31,6.02 z m -81.39,-2.6 a 9.78,9.78 0 0 1 -1.25,-4.79 v -1.51 h 4.71 v 1.51 a 5.07,5.07 0 0 0 0.65,2.48 z m 84.76,-9 h -4.71 V 92 h 4.71 z m -81.31,-2.57 h -4.71 v -5.36 h 4.71 z m 81.31,-8.05 h -4.71 v -5.36 h 4.71 z m -81.31,-2.57 h -4.71 v -5.36 h 4.71 z m 81.31,-8.05 h -4.71 V 70.8 h 4.71 z m -81.31,-2.57 h -4.71 v -5.36 h 4.71 z m 81.31,-8.05 h -4.71 v -5.36 h 4.71 z m -81.31,-2.57 h -4.71 v -5.35 h 4.71 z m 81.31,-8.05 h -4.71 v -5.35 h 4.71 z m -81.31,-2.57 h -4.71 V 47 h 4.71 z m 81.31,-8.05 h -4.71 v -1.53 a 5.07,5.07 0 0 0 -0.65,-2.49 l 4.1,-2.32 a 9.78,9.78 0 0 1 1.26,4.8 z M 211.17,42 206.51,41.33 a 9.82,9.82 0 0 1 3.28,-6 l 3.09,3.55 A 5.11,5.11 0 0 0 211.17,42 Z m 73.18,-4 a 5,5 0 0 0 -1.72,-0.3 H 279.9 V 33 h 2.73 a 9.72,9.72 0 0 1 3.33,0.59 z m -9.76,-0.3 h -5.31 V 33 h 5.31 z m -10.62,0 h -5.31 V 33 H 264 Z m -10.62,0 h -5.31 V 33 h 5.31 z m -10.62,0 h -5.31 V 33 h 5.31 z m -10.62,0 H 226.8 V 33 h 5.31 z m -10.62,0 H 216.2 V 33 h 5.31 z"
             class="cls-3"
             inkscape:connector-curvature="0"
             style="fill:#dedede" />
          <path
             id="path514"
             d="m 191.81,194 h -5.34 v -4.71 h 5.34 z m -10.65,0 h -5.31 v -4.71 h 5.31 z m -10.62,0 h -5.31 v -4.71 h 5.31 z m -10.62,0 h -5.31 v -4.71 h 5.31 z m -10.62,0 H 144 v -4.71 h 5.31 z m -10.62,0 h -5.31 v -4.71 h 5.31 z m -10.62,0 h -2.71 A 9.73,9.73 0 0 1 122,193.41 l 1.62,-4.42 a 5,5 0 0 0 1.73,0.31 h 2.71 z m 70.13,-2.42 -3.09,-3.55 a 5.11,5.11 0 0 0 1.71,-3.12 l 4.66,0.67 a 9.82,9.82 0 0 1 -3.26,6.04 z M 116.82,189 a 9.78,9.78 0 0 1 -1.25,-4.79 v -1.51 h 4.71 v 1.51 a 5.06,5.06 0 0 0 0.65,2.48 z m 84.76,-9 h -4.71 v -5.31 h 4.71 z m -81.31,-2.57 h -4.71 v -5.31 h 4.71 z m 81.31,-8.05 h -4.71 v -5.31 h 4.71 z m -81.31,-2.57 h -4.71 v -5.31 h 4.71 z m 81.31,-8 h -4.71 v -5.31 h 4.71 z m -81.31,-2.57 h -4.71 v -5.31 h 4.71 z m 81.31,-8.05 h -4.71 v -5.31 h 4.71 z m -81.31,-2.57 h -4.71 v -5.31 h 4.71 z m 81.31,-8 h -4.71 v -5.31 h 4.71 z M 120.27,135 h -4.71 v -5.31 h 4.71 z m 81.31,-8.05 h -4.71 v -1.49 a 5.06,5.06 0 0 0 -0.65,-2.49 l 4.1,-2.32 a 9.78,9.78 0 0 1 1.26,4.8 z m -81.26,-2.22 -4.66,-0.68 a 9.82,9.82 0 0 1 3.28,-6 l 3.09,3.55 a 5.11,5.11 0 0 0 -1.71,3.08 z m 73.18,-4.07 a 5,5 0 0 0 -1.72,-0.3 h -2.73 v -4.76 h 2.73 a 9.72,9.72 0 0 1 3.33,0.59 z m -9.76,-0.3 h -5.31 v -4.76 h 5.31 z m -10.62,0 h -5.31 v -4.76 h 5.31 z m -10.62,0 h -5.3 v -4.76 h 5.31 z m -10.62,0 h -5.31 v -4.76 h 5.31 z m -10.62,0 H 136 v -4.76 h 5.31 z m -10.62,0 h -5.29 v -4.76 h 5.31 z"
             class="cls-3"
             inkscape:connector-curvature="0"
             style="fill:#dedede" />
          <path
             id="path516"
             d="m 282.66,194 h -5.34 v -4.71 h 5.34 z M 272,194 h -5.31 v -4.71 H 272 Z m -10.62,0 h -5.31 v -4.71 h 5.31 z m -10.62,0 h -5.31 v -4.71 h 5.31 z m -10.62,0 h -5.31 v -4.71 h 5.31 z m -10.62,0 h -5.31 v -4.71 h 5.31 z m -10.62,0 h -2.71 a 9.72,9.72 0 0 1 -3.35,-0.59 l 1.62,-4.42 a 5,5 0 0 0 1.73,0.31 h 2.71 z m 70.13,-2.42 -3.03,-3.51 a 5.11,5.11 0 0 0 1.71,-3.12 l 4.66,0.67 a 9.82,9.82 0 0 1 -3.31,6 z M 207.67,189 a 9.78,9.78 0 0 1 -1.25,-4.79 v -1.51 h 4.71 v 1.51 a 5.07,5.07 0 0 0 0.65,2.48 z m 84.76,-9 h -4.71 v -5.31 h 4.71 z m -81.31,-2.57 h -4.71 v -5.31 h 4.71 z m 81.31,-8.05 h -4.71 v -5.31 h 4.71 z m -81.31,-2.57 h -4.71 v -5.31 h 4.71 z m 81.31,-8.05 h -4.71 v -5.31 h 4.71 z m -81.31,-2.57 h -4.71 v -5.31 h 4.71 z m 81.31,-8.05 h -4.71 v -5.31 h 4.71 z m -81.31,-2.57 h -4.71 v -5.31 h 4.71 z m 81.31,-8.05 h -4.71 v -5.31 h 4.71 z M 211.12,135 h -4.71 v -5.31 h 4.71 z m 81.31,-8.05 h -4.71 v -1.49 a 5.07,5.07 0 0 0 -0.65,-2.49 l 4.1,-2.32 a 9.78,9.78 0 0 1 1.26,4.8 z m -81.26,-2.22 -4.66,-0.67 a 9.82,9.82 0 0 1 3.28,-6 l 3.09,3.55 a 5.11,5.11 0 0 0 -1.71,3.07 z m 73.18,-4.07 a 5,5 0 0 0 -1.72,-0.3 h -2.73 v -4.76 h 2.73 a 9.72,9.72 0 0 1 3.33,0.59 z m -9.76,-0.3 h -5.31 v -4.76 h 5.31 z m -10.62,0 h -5.31 V 115.6 H 264 Z m -10.62,0 h -5.31 v -4.76 h 5.31 z m -10.62,0 h -5.31 v -4.76 h 5.31 z m -10.62,0 h -5.31 v -4.76 h 5.31 z m -10.62,0 h -5.29 v -4.76 h 5.31 z"
             class="cls-3"
             inkscape:connector-curvature="0"
             style="fill:#dedede" />
          <g
             id="g524">
            <g
               id="g520"
               class="cls-4"
               style="opacity:0.2;mix-blend-mode:multiply">
              <rect
                 id="rect518"
                 ry="6.27"
                 rx="6.27"
                 height="73.730003"
                 width="81.57"
                 y="87.080002"
                 x="191.39" />
            </g>
            <rect
               id="rect522"
               ry="6.27"
               rx="6.27"
               height="73.730003"
               width="81.57"
               y="76.620003"
               x="180.92999"
               class="cls-5"
               style="fill:#62c485" />
          </g>
          <polygon
             id="polygon526"
             points="216.77,120.44 236.48,100.94 253.37,117.71 258,121.96 258,144.5 186,144.5 186,134.87 202.25,118.73 210.38,126.8 "
             class="cls-6"
             style="fill:#34495e" />
          <circle
             id="circle528"
             r="9.6099997"
             cy="91.589996"
             cx="195.77"
             class="cls-6"
             style="fill:#34495e" />
        </g>
        <rect
           id="rect532"
           height="225"
           width="400"
           class="cls-7"
           x="0"
           y="0"
           style="fill:none" />
      </g>
    </g>
  </g>
</svg>
