<?xml version="1.0" encoding="utf-8"?>
<!-- Generator: Adobe Illustrator 15.0.0, SVG Export Plug-In . SVG Version: 6.00 Build 0)  -->
<!DOCTYPE svg PUBLIC "-//W3C//DTD SVG 1.1//EN" "http://www.w3.org/Graphics/SVG/1.1/DTD/svg11.dtd">
<svg version="1.1"
	 id="svg32" sodipodi:docname="icon.svg" xmlns:inkscape="http://www.inkscape.org/namespaces/inkscape" inkscape:version="0.92.2 5c3e80d, 2017-08-06" xmlns:sodipodi="http://sodipodi.sourceforge.net/DTD/sodipodi-0.dtd" xmlns:rdf="http://www.w3.org/1999/02/22-rdf-syntax-ns#" xmlns:svg="http://www.w3.org/2000/svg" xmlns:cc="http://creativecommons.org/ns#" xmlns:dc="http://purl.org/dc/elements/1.1/"
	 xmlns="http://www.w3.org/2000/svg" xmlns:xlink="http://www.w3.org/1999/xlink" x="0px" y="0px" width="24px" height="24px"
	 viewBox="0 0 24 24" enable-background="new 0 0 24 24" xml:space="preserve">
<path id="path4" inkscape:connector-curvature="0" sodipodi:nodetypes="sscsssssscs" fill="#FFFFFF" stroke="#999999" stroke-linecap="round" stroke-linejoin="round" stroke-miterlimit="10" d="
	M16.977,6.744c-0.647,0-1.151-0.552-1.151-1.248V0.96H4.944c-0.648,0-1.152,0.552-1.152,1.248v19.968
	c0,0.696,0.504,1.248,1.152,1.248h15.272c0.647,0,1.152-0.552,1.152-1.248V6.744H16.977z"/>
<sodipodi:namedview  bordercolor="#666666" borderopacity="1" id="namedview34" inkscape:window-height="699" objecttolerance="10" pagecolor="#ffffff" gridtolerance="10" guidetolerance="10" inkscape:pageopacity="0" inkscape:pageshadow="2" inkscape:window-width="1205" showgrid="false" inkscape:cy="11.84843" inkscape:zoom="9.8333333" inkscape:cx="12" inkscape:window-x="0" inkscape:window-y="0" inkscape:window-maximized="0" inkscape:current-layer="svg32">
	</sodipodi:namedview>
<line fill="#FFFFFF" stroke="#999999" stroke-linecap="round" stroke-linejoin="round" stroke-miterlimit="10" x1="8.897" y1="9.621" x2="18.188" y2="9.621"/>
<line fill="#FFFFFF" stroke="#999999" stroke-linecap="round" stroke-linejoin="round" stroke-miterlimit="10" x1="8.897" y1="12.621" x2="18.188" y2="12.621"/>
<line fill="#FFFFFF" stroke="#999999" stroke-linecap="round" stroke-linejoin="round" stroke-miterlimit="10" x1="8.897" y1="15.621" x2="18.188" y2="15.621"/>
<line fill="#FFFFFF" stroke="#999999" stroke-linecap="round" stroke-linejoin="round" stroke-miterlimit="10" x1="8.897" y1="18.621" x2="18.188" y2="18.621"/>
<path id="stroke_2_" inkscape:connector-curvature="0" sodipodi:nodetypes="sssssssss" fill="#153E68" d="M14.423,16.832
	c0,2.173-1.763,3.936-3.935,3.936H3.936C1.762,20.768,0,19.005,0,16.832V9.127c0-2.175,1.762-3.936,3.936-3.936h6.552
	c2.172,0,3.935,1.761,3.935,3.936V16.832z"/>
<path id="gradient_2_" inkscape:connector-curvature="0" sodipodi:nodetypes="sssssssss" fill="#1A4C87" d="M13.763,16.454
	c0,2.017-1.637,3.654-3.653,3.654H4.314c-2.02,0-3.655-1.638-3.655-3.654V9.507c0-2.021,1.635-3.656,3.655-3.656h5.795
	c2.016,0,3.653,1.635,3.653,3.656V16.454z"/>
<g id="g40" transform="matrix(0.70436278,0,0,0.70436278,19.025733,18.752417)">
	<g id="g30_1_">
		<path id="path28" inkscape:connector-curvature="0" fill="#FFFFFF" d="M-18.971-10.58c1.203,0,2.333,0.472,3.184,1.326
			c0.852,0.855,1.322,1.994,1.322,3.207h1.853c0-3.522-2.851-6.387-6.359-6.387V-10.58L-18.971-10.58z"/>
	</g>
	<g id="g34">
		<path id="path32" inkscape:connector-curvature="0" fill="#FFFFFF" d="M-18.969-13.867c4.29,0,7.778,3.51,7.778,7.823h1.856
			c0-5.336-4.32-9.678-9.634-9.678V-13.867z"/>
	</g>
	<g id="g38">
		<path id="path36" inkscape:connector-curvature="0" fill="#FFFFFF" d="M-15.977-5.128c0,1.162-0.394,2.155-1.183,2.982
			c-0.79,0.828-1.741,1.242-2.854,1.242c-1.122,0-2.078-0.41-2.868-1.235c-0.79-0.822-1.184-1.818-1.184-2.989v-5.951
			c0-0.399,0.12-0.706,0.358-0.926c0.239-0.219,0.521-0.33,0.847-0.33c0.324,0,0.608,0.111,0.847,0.33
			c0.239,0.22,0.359,0.531,0.359,0.929v5.96c0,0.487,0.16,0.898,0.482,1.237c0.322,0.34,0.711,0.507,1.165,0.507
			c0.445,0,0.831-0.168,1.157-0.507c0.327-0.34,0.491-0.754,0.491-1.24c0-0.487-0.152-0.867-0.451-1.133
			c-0.298-0.268-0.704-0.405-1.219-0.405c-0.37,0-0.665-0.125-0.884-0.383c-0.2-0.219-0.299-0.495-0.299-0.828
			c0-0.324,0.103-0.606,0.313-0.85c0.209-0.24,0.5-0.362,0.87-0.362c1.179,0,2.15,0.367,2.912,1.104
			C-16.355-7.237-15.977-6.287-15.977-5.128z"/>
	</g>
</g>
<path id="path2" inkscape:connector-curvature="0" fill="#FFFFFF" stroke="#999999" stroke-linecap="round" stroke-linejoin="round" stroke-miterlimit="10" d="
	M16.977,6.744h4.416L15.8,0.96v4.536C15.8,6.168,16.328,6.744,16.977,6.744z"/>
</svg>
