<?xml version="1.0" encoding="utf-8"?>
<!-- Generator: Adobe Illustrator 15.0.0, SVG Export Plug-In . SVG Version: 6.00 Build 0)  -->
<!DOCTYPE svg PUBLIC "-//W3C//DTD SVG 1.1//EN" "http://www.w3.org/Graphics/SVG/1.1/DTD/svg11.dtd">
<svg version="1.1" id="Layer_1" xmlns="http://www.w3.org/2000/svg" xmlns:xlink="http://www.w3.org/1999/xlink" x="0px" y="0px"
	 width="24px" height="24px" viewBox="0 0 24 24" enable-background="new 0 0 24 24" xml:space="preserve">
<path id="path4_2_" fill="#FFFFFF" stroke="#BBBBBB" stroke-linecap="round" stroke-linejoin="round" stroke-miterlimit="10" d="
	M20.808,2.016c0-0.696-0.504-1.248-1.15-1.248H4.383c-0.648,0-1.152,0.552-1.152,1.248v19.968c0,0.695,0.504,1.248,1.152,1.248
	h15.272c0.647,0,1.152-0.553,1.152-1.248V2.016z"/>
<rect id="polyline13_2_" x="5.318" y="5.174" fill="none" stroke="#DBDBDB" width="13.25" height="10.167"/>
<g enable-background="new    ">
	<path fill="#999999" d="M8.783,17.355c0.139,0.192,0.208,0.424,0.208,0.691c0,0.276-0.07,0.499-0.21,0.667
		c-0.078,0.095-0.193,0.181-0.346,0.259c0.231,0.084,0.406,0.217,0.523,0.399c0.118,0.183,0.176,0.403,0.176,0.663
		c0,0.27-0.067,0.51-0.202,0.723c-0.084,0.143-0.191,0.262-0.32,0.357c-0.145,0.109-0.315,0.187-0.512,0.228
		c-0.197,0.041-0.41,0.062-0.64,0.062H5.419v-4.53h2.189C8.161,16.882,8.552,17.043,8.783,17.355z M6.323,17.661v0.999h1.101
		c0.197,0,0.356-0.038,0.479-0.112c0.123-0.075,0.184-0.208,0.184-0.397c0-0.211-0.081-0.352-0.243-0.418
		c-0.14-0.047-0.318-0.07-0.536-0.07L6.323,17.661L6.323,17.661z M6.323,19.409v1.208h1.1c0.196,0,0.349-0.026,0.458-0.08
		c0.199-0.098,0.298-0.286,0.298-0.564c0-0.236-0.096-0.397-0.289-0.486c-0.107-0.049-0.258-0.073-0.453-0.076L6.323,19.409
		L6.323,19.409z"/>
	<path fill="#999999" d="M12.83,16.874h1.361v4.53h-0.881V18.34c0-0.088,0-0.211,0.002-0.37s0.004-0.28,0.004-0.366l-0.859,3.802
		h-0.919l-0.853-3.802c0,0.086,0.001,0.207,0.003,0.366s0.003,0.282,0.003,0.37v3.064H9.809v-4.53h1.378l0.824,3.562L12.83,16.874z"
		/>
	<path fill="#999999" d="M18.234,19.443c-0.267,0.222-0.646,0.332-1.137,0.332h-0.943v1.629h-0.939v-4.53h1.945
		c0.447,0,0.805,0.117,1.072,0.351c0.266,0.233,0.398,0.596,0.398,1.086C18.632,18.844,18.5,19.223,18.234,19.443z M17.512,17.812
		c-0.119-0.102-0.287-0.15-0.504-0.15h-0.854v1.334h0.854c0.217,0,0.385-0.055,0.504-0.163c0.12-0.108,0.18-0.281,0.18-0.517
		C17.691,18.08,17.632,17.912,17.512,17.812z"/>
</g>
<polyline fill="#DBDBDB" points="6.892,13.781 8.12,10.682 9.208,11.827 13.607,7.583 15.52,10.16 17.199,8.903 17.199,13.781 
	6.892,13.781 "/>
<polyline fill="#5B2D8D" points="10.913,13.78 0,13.78 0,3.357 10.913,3.357 10.913,13.78 "/>
<polyline fill="#FFFFFF" points="1.596,11.022 3.171,9.841 3.972,10.427 7.151,8.074 8.332,8.952 9.133,8.368 9.133,11.022 
	1.596,11.022 "/>
<path fill="#FFFFFF" d="M2.997,5.948c0.587,0,1.062,0.443,1.062,0.99S3.583,7.929,2.997,7.929c-0.588,0-1.064-0.443-1.064-0.991
	C1.933,6.392,2.409,5.948,2.997,5.948"/>
</svg>
