<?xml version="1.0" encoding="utf-8"?>
<!-- Generator: Adobe Illustrator 15.0.0, SVG Export Plug-In . SVG Version: 6.00 Build 0)  -->
<!DOCTYPE svg PUBLIC "-//W3C//DTD SVG 1.1//EN" "http://www.w3.org/Graphics/SVG/1.1/DTD/svg11.dtd">
<svg version="1.1" id="Layer_1" xmlns="http://www.w3.org/2000/svg" xmlns:xlink="http://www.w3.org/1999/xlink" x="0px" y="0px"
	 width="24px" height="24px" viewBox="0 0 24 24" enable-background="new 0 0 24 24" xml:space="preserve">
<path id="path1096_1_" fill="#FFFFFF" stroke="#999999" stroke-linecap="round" stroke-linejoin="round" stroke-miterlimit="10" d="
	M19.068,0.5c0.814,0,1.438,0.624,1.438,1.368V21.98c0,0.768-0.647,1.367-1.438,1.367H4.812c-0.792,0-1.44-0.625-1.44-1.367V1.868
	C3.372,1.1,4.02,0.5,4.812,0.5H19.068L19.068,0.5z"/>
<path fill="#2372BA" d="M10.913,13.861H0V3.439h10.913V13.861 M1.048,12.812h8.815V4.487H1.048"/>
<polyline fill="#2372BA" points="0.799,4.001 10.469,4.001 10.469,13.134 0.799,13.134 0.799,4.001 "/>
<polyline fill="#FFFFFF" points="9.208,6.557 7.612,11.401 6.287,11.401 5.377,8.594 4.421,11.401 3.101,11.401 1.612,6.557 
	2.969,6.557 3.836,9.687 4.893,6.557 5.925,6.557 6.91,9.687 7.853,6.557 9.208,6.557 "/>
<rect id="polyline13_2_" x="5.318" y="5.094" fill="none" stroke="#DBDBDB" width="13.25" height="9.882"/>
<line id="line21_9_" fill="none" stroke="#DBDBDB" x1="5.318" y1="8.205" x2="18.568" y2="8.205"/>
<line id="line21_8_" fill="none" stroke="#DBDBDB" x1="14.262" y1="15.291" x2="14.262" y2="4.791"/>
<line id="line21_7_" fill="none" stroke="#DBDBDB" x1="9.565" y1="15.291" x2="9.565" y2="4.791"/>
<line id="line21_6_" fill="none" stroke="#DBDBDB" x1="5.318" y1="11.205" x2="18.568" y2="11.205"/>
<line id="line21_5_" fill="none" stroke="#DBDBDB" x1="5.318" y1="14.205" x2="18.568" y2="14.205"/>
<rect x="5.318" y="13.883" fill="#DCDBDB" stroke="#DBDBDB" width="13.25" height="1.594"/>
<polyline fill="#DD5B26" points="10.936,13.883 0,13.883 0,3.439 10.936,3.439 10.936,13.883 "/>
<path fill="#FFFFFF" d="M6.308,8.148c0-0.194-0.06-0.351-0.179-0.467C6.008,7.563,5.803,7.505,5.514,7.505H5.032v1.304h0.479
	c0.31,0,0.524-0.064,0.64-0.192C6.256,8.501,6.308,8.345,6.308,8.148 M7.585,8.135c0,0.43-0.108,0.787-0.325,1.068
	C6.979,9.568,6.512,9.75,5.86,9.75H5.032v1.666H3.755V6.563h2.083c0.592,0,1.042,0.165,1.349,0.493
	C7.453,7.337,7.585,7.697,7.585,8.135z"/>
<polyline id="polyline5_1_" fill="#08743B" points="10.912,13.861 0,13.861 0,3.439 10.912,3.439 10.912,13.861 "/>
<rect id="rect4141_1_" x="0.365" y="4.034" fill="#08743B" width="10.183" height="9.351"/>
<rect id="rect4143_1_" x="0.462" y="4.457" fill="#FFFFFF" width="2.959" height="1.434"/>
<rect id="rect4143-3_1_" x="3.948" y="4.479" fill="#FFFFFF" width="2.959" height="1.433"/>
<rect id="rect4143-3-6_1_" x="7.506" y="4.467" fill="#FFFFFF" width="2.959" height="1.434"/>
<rect id="rect4143-5_1_" x="0.42" y="6.465" fill="#FFFFFF" width="2.96" height="1.434"/>
<rect id="rect4143-3-3_1_" x="3.908" y="6.488" fill="#FFFFFF" width="2.958" height="1.433"/>
<rect id="rect4143-3-6-5_1_" x="7.464" y="6.476" fill="#FFFFFF" width="2.959" height="1.434"/>
<rect id="rect4143-5-2_1_" x="0.408" y="8.444" fill="#FFFFFF" width="2.959" height="1.434"/>
<rect id="rect4143-3-3-9_1_" x="3.895" y="8.468" fill="#FFFFFF" width="2.96" height="1.433"/>
<rect id="rect4143-3-6-5-1_1_" x="7.453" y="8.455" fill="#FFFFFF" width="2.958" height="1.433"/>
<rect id="rect4143-5-2-7_1_" x="0.408" y="10.387" fill="#FFFFFF" width="2.959" height="1.433"/>
<rect id="rect4143-3-3-9-0_1_" x="3.895" y="10.409" fill="#FFFFFF" width="2.96" height="1.432"/>
<rect id="rect4143-3-6-5-1-9_1_" x="7.453" y="10.396" fill="#FFFFFF" width="2.958" height="1.434"/>
<g>
	<path fill="#999999" d="M8.914,21.009c-0.336,0.346-0.823,0.52-1.459,0.52c-0.637,0-1.123-0.174-1.459-0.52
		c-0.451-0.425-0.677-1.037-0.677-1.837c0-0.815,0.226-1.428,0.677-1.837c0.336-0.346,0.822-0.52,1.459-0.52
		c0.636,0,1.123,0.174,1.459,0.52c0.449,0.409,0.673,1.021,0.673,1.837C9.587,19.972,9.363,20.584,8.914,21.009z M8.333,20.332
		c0.216-0.271,0.325-0.658,0.325-1.16c0-0.499-0.108-0.886-0.325-1.158c-0.217-0.273-0.509-0.409-0.877-0.409
		c-0.369,0-0.663,0.136-0.882,0.407c-0.219,0.272-0.329,0.659-0.329,1.16c0,0.502,0.11,0.889,0.329,1.16
		c0.22,0.271,0.514,0.407,0.882,0.407C7.823,20.739,8.116,20.604,8.333,20.332z"/>
	<path fill="#999999" d="M13.02,17.049c0.312,0.103,0.566,0.291,0.76,0.564c0.154,0.222,0.26,0.461,0.316,0.719
		s0.086,0.504,0.086,0.737c0,0.592-0.119,1.094-0.357,1.504c-0.322,0.554-0.82,0.831-1.494,0.831h-1.919v-4.452h1.919
		C12.607,16.956,12.836,16.988,13.02,17.049z M11.314,17.725v2.906h0.859c0.44,0,0.747-0.217,0.92-0.649
		c0.094-0.237,0.141-0.521,0.141-0.849c0-0.453-0.07-0.801-0.213-1.044c-0.143-0.242-0.424-0.364-0.848-0.364H11.314z"/>
	<path fill="#999999" d="M15.827,20.03c0.028,0.203,0.085,0.355,0.17,0.456c0.154,0.183,0.418,0.274,0.792,0.274
		c0.225,0,0.406-0.024,0.546-0.072c0.266-0.093,0.398-0.265,0.398-0.517c0-0.147-0.065-0.261-0.195-0.342
		c-0.13-0.078-0.336-0.147-0.618-0.208l-0.481-0.105c-0.475-0.104-0.8-0.219-0.977-0.342c-0.301-0.205-0.45-0.526-0.45-0.964
		c0-0.398,0.146-0.729,0.44-0.993c0.293-0.264,0.725-0.396,1.293-0.396c0.476,0,0.881,0.124,1.216,0.373
		c0.335,0.248,0.511,0.609,0.527,1.083h-0.894c-0.017-0.269-0.137-0.459-0.359-0.571c-0.149-0.074-0.334-0.112-0.555-0.112
		c-0.246,0-0.441,0.049-0.588,0.146c-0.147,0.097-0.221,0.231-0.221,0.404c0,0.159,0.072,0.278,0.217,0.356
		c0.093,0.053,0.29,0.114,0.592,0.185l0.781,0.185c0.343,0.08,0.6,0.188,0.771,0.323c0.266,0.209,0.398,0.513,0.398,0.909
		c0,0.406-0.158,0.744-0.473,1.014c-0.314,0.269-0.759,0.403-1.332,0.403c-0.587,0-1.048-0.133-1.384-0.397
		s-0.503-0.629-0.503-1.092H15.827z"/>
</g>
</svg>
