<?xml version="1.0" encoding="utf-8"?>
<!-- Generator: Adobe Illustrator 15.0.0, SVG Export Plug-In . SVG Version: 6.00 Build 0)  -->
<!DOCTYPE svg PUBLIC "-//W3C//DTD SVG 1.1//EN" "http://www.w3.org/Graphics/SVG/1.1/DTD/svg11.dtd">
<svg version="1.1"
	 id="svg75" sodipodi:docname="icon.svg" inkscape:version="0.92.2 5c3e80d, 2017-08-06" xmlns:cc="http://creativecommons.org/ns#" xmlns:inkscape="http://www.inkscape.org/namespaces/inkscape" xmlns:sodipodi="http://sodipodi.sourceforge.net/DTD/sodipodi-0.dtd" xmlns:rdf="http://www.w3.org/1999/02/22-rdf-syntax-ns#" xmlns:svg="http://www.w3.org/2000/svg" xmlns:dc="http://purl.org/dc/elements/1.1/"
	 xmlns="http://www.w3.org/2000/svg" xmlns:xlink="http://www.w3.org/1999/xlink" x="0px" y="0px" width="24px" height="24px"
	 viewBox="0 0 24 24" enable-background="new 0 0 24 24" xml:space="preserve">
<sodipodi:namedview  objecttolerance="10" id="namedview77" borderopacity="1" inkscape:window-y="155" bordercolor="#666666" inkscape:window-x="328" inkscape:window-width="1114" inkscape:cx="12" showgrid="false" inkscape:cy="12" gridtolerance="10" inkscape:pageopacity="0" inkscape:zoom="9.8333333" inkscape:pageshadow="2" inkscape:window-maximized="0" inkscape:window-height="563" pagecolor="#ffffff" guidetolerance="10" inkscape:current-layer="svg75">
	</sodipodi:namedview>
<path id="path4_2_" inkscape:connector-curvature="0" sodipodi:nodetypes="sscsssssscs" fill="#FFFFFF" stroke="#BBBBBB" stroke-linecap="round" stroke-linejoin="round" stroke-miterlimit="10" d="
	M20.808,2.016c0-0.696-0.504-1.248-1.15-1.248H4.383c-0.648,0-1.152,0.552-1.152,1.248v19.968c0,0.695,0.504,1.248,1.152,1.248
	h15.272c0.647,0,1.152-0.553,1.152-1.248V2.016z"/>
<g>
	<path fill="#2372BA" d="M10.913,13.938H0V3.515h10.913V13.938 M1.048,12.889h8.815V4.563H1.048"/>
	<polyline fill="#2372BA" points="0.799,4.077 10.469,4.077 10.469,13.21 0.799,13.21 0.799,4.077 	"/>
	<polyline fill="#FFFFFF" points="9.208,6.633 7.612,11.477 6.287,11.477 5.377,8.67 4.421,11.477 3.101,11.477 1.612,6.633 
		2.969,6.633 3.836,9.763 4.893,6.633 5.925,6.633 6.91,9.763 7.853,6.633 9.208,6.633 	"/>
</g>
<line fill="none" stroke="#DBDBDB" stroke-linecap="round" stroke-linejoin="round" stroke-miterlimit="10" x1="13.188" y1="5.515" x2="17.875" y2="5.515"/>
<line fill="none" stroke="#DBDBDB" stroke-linecap="round" stroke-linejoin="round" stroke-miterlimit="10" x1="13.188" y1="3.515" x2="17.875" y2="3.515"/>
<line fill="none" stroke="#DBDBDB" stroke-linecap="round" stroke-linejoin="round" stroke-miterlimit="10" x1="13.188" y1="7.515" x2="17.875" y2="7.515"/>
<line fill="none" stroke="#DBDBDB" stroke-linecap="round" stroke-linejoin="round" stroke-miterlimit="10" x1="13.188" y1="9.515" x2="17.875" y2="9.515"/>
<line fill="none" stroke="#DBDBDB" stroke-linecap="round" stroke-linejoin="round" stroke-miterlimit="10" x1="13.188" y1="11.515" x2="17.875" y2="11.515"/>
<line fill="none" stroke="#DBDBDB" stroke-linecap="round" stroke-linejoin="round" stroke-miterlimit="10" x1="13.188" y1="13.516" x2="17.875" y2="13.516"/>
<line fill="none" stroke="#DBDBDB" stroke-linecap="round" stroke-linejoin="round" stroke-miterlimit="10" x1="6.188" y1="15.516" x2="17.875" y2="15.516"/>
<g>
	<path fill="#999999" d="M8.107,17.049c0.312,0.104,0.565,0.291,0.759,0.564c0.155,0.222,0.261,0.461,0.317,0.719
		c0.057,0.258,0.085,0.504,0.085,0.736c0,0.593-0.119,1.095-0.357,1.505c-0.322,0.554-0.82,0.831-1.493,0.831h-1.92v-4.452h1.92
		C7.694,16.956,7.924,16.988,8.107,17.049z M6.401,17.725v2.906H7.26c0.439,0,0.746-0.217,0.919-0.648
		c0.095-0.237,0.142-0.521,0.142-0.85c0-0.453-0.071-0.801-0.213-1.044c-0.143-0.241-0.425-0.364-0.849-0.364H6.401z"/>
	<path fill="#999999" d="M13.395,21.009c-0.336,0.347-0.822,0.521-1.458,0.521c-0.637,0-1.123-0.174-1.459-0.521
		C10.025,20.584,9.8,19.973,9.8,19.172c0-0.814,0.226-1.428,0.677-1.837c0.336-0.346,0.822-0.521,1.459-0.521
		c0.636,0,1.123,0.175,1.458,0.521c0.448,0.409,0.674,1.021,0.674,1.837C14.066,19.973,13.843,20.584,13.395,21.009z M12.812,20.332
		c0.217-0.271,0.324-0.658,0.324-1.16c0-0.499-0.107-0.886-0.324-1.158s-0.509-0.408-0.877-0.408c-0.369,0-0.663,0.136-0.882,0.406
		c-0.219,0.272-0.329,0.659-0.329,1.16c0,0.502,0.11,0.889,0.329,1.16c0.22,0.271,0.514,0.407,0.882,0.407
		C12.304,20.739,12.596,20.604,12.812,20.332z"/>
	<path fill="#999999" d="M15.203,17.417c0.357-0.366,0.814-0.55,1.367-0.55c0.742,0,1.283,0.246,1.627,0.736
		c0.189,0.275,0.291,0.554,0.305,0.83h-0.93c-0.061-0.213-0.137-0.373-0.229-0.482c-0.166-0.193-0.411-0.29-0.735-0.29
		c-0.332,0-0.594,0.137-0.784,0.409c-0.191,0.272-0.287,0.658-0.287,1.158s0.101,0.873,0.303,1.123
		c0.202,0.248,0.458,0.373,0.771,0.373c0.318,0,0.562-0.106,0.729-0.32c0.094-0.114,0.17-0.287,0.23-0.518h0.925
		c-0.08,0.485-0.283,0.881-0.611,1.186c-0.327,0.304-0.747,0.455-1.26,0.455c-0.634,0-1.131-0.205-1.494-0.615
		c-0.362-0.413-0.544-0.979-0.544-1.698C14.584,18.438,14.79,17.838,15.203,17.417z"/>
</g>
</svg>
