<?xml version="1.0" encoding="utf-8"?>
<!-- Generator: Adobe Illustrator 15.0.0, SVG Export Plug-In . SVG Version: 6.00 Build 0)  -->
<!DOCTYPE svg PUBLIC "-//W3C//DTD SVG 1.1//EN" "http://www.w3.org/Graphics/SVG/1.1/DTD/svg11.dtd">
<svg version="1.1" id="Layer_1" xmlns="http://www.w3.org/2000/svg" xmlns:xlink="http://www.w3.org/1999/xlink" x="0px" y="0px"
	 width="24px" height="24px" viewBox="0 0 24 24" enable-background="new 0 0 24 24" xml:space="preserve">
<path id="path4_2_" fill="#FFFFFF" stroke="#BBBBBB" stroke-linecap="round" stroke-linejoin="round" stroke-miterlimit="10" d="
	M20.808,2.016c0-0.696-0.504-1.248-1.15-1.248H4.383c-0.648,0-1.152,0.552-1.152,1.248v19.968c0,0.695,0.504,1.248,1.152,1.248
	h15.272c0.647,0,1.152-0.553,1.152-1.248V2.016z"/>
<rect id="polyline13_2_" x="5.318" y="5.174" fill="none" stroke="#DBDBDB" width="13.25" height="10.167"/>
<g enable-background="new    ">
	<path fill="#999999" d="M9.828,18.288c-0.072-0.31-0.247-0.524-0.526-0.647c-0.156-0.068-0.329-0.103-0.519-0.103
		c-0.365,0-0.665,0.138-0.899,0.412c-0.235,0.274-0.352,0.688-0.352,1.241c0,0.556,0.127,0.949,0.381,1.181s0.543,0.347,0.867,0.347
		c0.318,0,0.578-0.091,0.781-0.273c0.203-0.182,0.328-0.42,0.375-0.715H8.887v-0.756h1.887v2.431h-0.627l-0.095-0.565
		c-0.182,0.215-0.346,0.365-0.492,0.453c-0.25,0.152-0.557,0.229-0.922,0.229c-0.601,0-1.092-0.207-1.476-0.623
		c-0.399-0.418-0.599-0.989-0.599-1.715c0-0.732,0.202-1.319,0.605-1.763c0.403-0.442,0.938-0.664,1.601-0.664
		c0.576,0,1.039,0.146,1.388,0.438c0.35,0.291,0.55,0.656,0.601,1.093H9.828z"/>
	<path fill="#999999" d="M12.994,21.404h-0.94v-4.53h0.94V21.404z"/>
	<path fill="#999999" d="M14.255,16.88h3.229v0.796h-2.289v1.042h2.007v0.787h-2.007v1.899h-0.94V16.88z"/>
</g>
<polyline fill="#DBDBDB" points="6.892,13.781 8.12,10.682 9.208,11.827 13.607,7.583 15.52,10.16 17.199,8.903 17.199,13.781 
	6.892,13.781 "/>
<path fill="#DBDBDB" d="M8.808,6.939c0.803,0,1.452,0.605,1.452,1.354S9.61,9.648,8.808,9.648c-0.804,0-1.455-0.606-1.455-1.355
	C7.353,7.546,8.003,6.939,8.808,6.939"/>
<polyline fill="#5B2D8D" points="10.913,13.78 0,13.78 0,3.357 10.913,3.357 10.913,13.78 "/>
<polyline fill="#FFFFFF" points="1.596,11.022 3.171,9.841 3.972,10.427 7.151,8.074 8.332,8.952 9.133,8.368 9.133,11.022 
	1.596,11.022 "/>
<path fill="#FFFFFF" d="M2.997,5.948c0.587,0,1.062,0.443,1.062,0.99S3.583,7.929,2.997,7.929c-0.588,0-1.064-0.443-1.064-0.991
	C1.933,6.392,2.409,5.948,2.997,5.948"/>
</svg>
