<?xml version="1.0" encoding="utf-8"?>
<!-- Generator: Adobe Illustrator 15.0.0, SVG Export Plug-In . SVG Version: 6.00 Build 0)  -->
<!DOCTYPE svg PUBLIC "-//W3C//DTD SVG 1.1//EN" "http://www.w3.org/Graphics/SVG/1.1/DTD/svg11.dtd">
<svg version="1.1" id="Layer_1" xmlns="http://www.w3.org/2000/svg" xmlns:xlink="http://www.w3.org/1999/xlink" x="0px" y="0px"
	 width="24px" height="24px" viewBox="0 0 24 24" enable-background="new 0 0 24 24" xml:space="preserve">
<path id="path4_2_" fill="#FFFFFF" stroke="#BBBBBB" stroke-linecap="round" stroke-linejoin="round" stroke-miterlimit="10" d="
	M20.808,2.016c0-0.696-0.504-1.248-1.15-1.248H4.383c-0.648,0-1.152,0.552-1.152,1.248v19.968c0,0.695,0.504,1.248,1.152,1.248
	h15.272c0.647,0,1.152-0.553,1.152-1.248V2.016z"/>
<rect id="polyline13_1_" x="5.318" y="5.174" fill="none" stroke="#DBDBDB" width="13.25" height="10.167"/>
<polyline fill="#DBDBDB" points="6.892,13.781 8.12,10.682 9.208,11.827 13.607,7.583 15.52,10.16 17.199,8.903 17.199,13.781 
	6.892,13.781 "/>
<path fill="#DBDBDB" d="M8.808,6.939c0.803,0,1.452,0.605,1.452,1.354S9.61,9.648,8.808,9.648c-0.804,0-1.455-0.606-1.455-1.355
	C7.353,7.546,8.003,6.939,8.808,6.939"/>
<polyline fill="#5B2D8D" points="10.913,13.78 0,13.78 0,3.357 10.913,3.357 10.913,13.78 "/>
<polyline fill="#FFFFFF" points="1.596,11.022 3.171,9.841 3.972,10.427 7.151,8.074 8.332,8.952 9.133,8.368 9.133,11.022 
	1.596,11.022 "/>
<path fill="#FFFFFF" d="M2.997,5.948c0.587,0,1.062,0.443,1.062,0.99S3.583,7.929,2.997,7.929c-0.588,0-1.064-0.443-1.064-0.991
	C1.933,6.392,2.409,5.948,2.997,5.948"/>
<path fill="#999999" d="M7.671,21.625H6.774v-4.318H7.67L7.671,21.625L7.671,21.625z"/>
<path fill="#999999" d="M11.379,17.307h1.298v4.318h-0.84v-2.921c0-0.084,0.001-0.201,0.003-0.353
	c0.002-0.152,0.003-0.27,0.003-0.352l-0.818,3.624h-0.877L9.336,18c0,0.082,0.001,0.199,0.003,0.352
	c0.002,0.151,0.003,0.269,0.003,0.353v2.921H8.5v-4.318h1.312l0.786,3.396L11.379,17.307z"/>
<path fill="#999999" d="M16.415,18.654c-0.067-0.295-0.233-0.502-0.5-0.618c-0.147-0.063-0.313-0.097-0.496-0.097
	c-0.349,0-0.633,0.131-0.854,0.394c-0.226,0.262-0.336,0.656-0.336,1.183c0,0.53,0.121,0.905,0.362,1.127
	c0.242,0.219,0.519,0.33,0.826,0.33c0.304,0,0.551-0.088,0.744-0.262c0.192-0.174,0.312-0.4,0.356-0.684h-1v-0.721h1.799v2.317
	h-0.596l-0.091-0.539c-0.174,0.204-0.33,0.349-0.469,0.433c-0.238,0.146-0.531,0.219-0.879,0.219c-0.572,0-1.041-0.198-1.406-0.596
	c-0.381-0.396-0.571-0.941-0.571-1.634c0-0.698,0.192-1.259,0.577-1.68c0.386-0.423,0.894-0.634,1.525-0.634
	c0.549,0,0.989,0.14,1.323,0.418c0.332,0.277,0.523,0.625,0.572,1.041h-0.888V18.654z"/>
</svg>
