<?xml version="1.0" encoding="utf-8"?>
<!-- Generator: Adobe Illustrator 15.0.0, SVG Export Plug-In  -->
<!DOCTYPE svg PUBLIC "-//W3C//DTD SVG 1.1//EN" "http://www.w3.org/Graphics/SVG/1.1/DTD/svg11.dtd" [
	<!ENTITY ns_flows "http://ns.adobe.com/Flows/1.0/">
]>
<svg version="1.1"
	 xmlns="http://www.w3.org/2000/svg" xmlns:xlink="http://www.w3.org/1999/xlink" xmlns:a="http://ns.adobe.com/AdobeSVGViewerExtensions/3.0/"
	 x="0px" y="0px" width="24px" height="24px" viewBox="0 0 24 24" overflow="visible" enable-background="new 0 0 24 24"
	 xml:space="preserve">
<defs>
</defs>
<path id="path1096_2_" fill="#FFFFFF" stroke="#999999" stroke-linecap="round" stroke-linejoin="round" stroke-miterlimit="10" d="
	M19.068,0.5c0.813,0,1.438,0.624,1.438,1.368V21.98c0,0.768-0.646,1.367-1.438,1.367H4.812c-0.792,0-1.44-0.625-1.44-1.367V1.868
	C3.372,1.1,4.02,0.5,4.812,0.5H19.068L19.068,0.5z"/>
<polyline fill="#2372BA" points="0.799,4.001 10.469,4.001 10.469,13.134 0.799,13.134 0.799,4.001 "/>
<polyline fill="#FFFFFF" points="9.208,6.557 7.612,11.401 6.287,11.401 5.377,8.594 4.421,11.401 3.101,11.401 1.612,6.557 
	2.969,6.557 3.836,9.687 4.893,6.557 5.925,6.557 6.91,9.687 7.853,6.557 9.208,6.557 "/>
<rect id="polyline13_1_" x="5.318" y="5.174" fill="none" stroke="#DBDBDB" width="13.25" height="10.167"/>
<path fill="#FFFFFF" d="M6.308,8.148c0-0.194-0.06-0.351-0.179-0.467C6.008,7.563,5.803,7.505,5.514,7.505H5.032v1.304h0.479
	c0.31,0,0.524-0.064,0.64-0.192C6.256,8.501,6.308,8.345,6.308,8.148 M7.585,8.135c0,0.43-0.108,0.787-0.325,1.068
	C6.979,9.568,6.512,9.75,5.86,9.75H5.032v1.666H3.755V6.563h2.083c0.592,0,1.042,0.165,1.349,0.493
	C7.453,7.337,7.585,7.697,7.585,8.135z"/>
<polyline fill="#DBDBDB" points="6.892,13.781 8.12,10.682 9.208,11.827 13.607,7.583 15.52,10.16 17.199,8.903 17.199,13.781 
	6.892,13.781 "/>
<path fill="#DBDBDB" d="M8.808,6.939c0.803,0,1.452,0.605,1.452,1.354S9.61,9.648,8.808,9.648c-0.804,0-1.455-0.606-1.455-1.355
	C7.353,7.546,8.003,6.939,8.808,6.939"/>
<polyline fill="#5B2D8D" points="10.913,13.78 0,13.78 0,3.357 10.913,3.357 10.913,13.78 "/>
<polyline fill="#FFFFFF" points="1.596,11.022 3.171,9.841 3.972,10.427 7.151,8.074 8.332,8.952 9.133,8.368 9.133,11.022 
	1.596,11.022 "/>
<path fill="#FFFFFF" d="M2.997,5.948c0.587,0,1.062,0.443,1.062,0.99S3.583,7.929,2.997,7.929c-0.588,0-1.064-0.443-1.064-0.991
	C1.933,6.392,2.409,5.948,2.997,5.948"/>
<path fill="#999999" d="M7.671,21.625H6.774v-4.318h0.896V21.625z"/>
<path fill="#999999" d="M11.379,17.307h1.298v4.318h-0.84v-2.921c0-0.084,0.001-0.201,0.003-0.353s0.003-0.269,0.003-0.351
	l-0.818,3.624h-0.877l-0.812-3.624c0,0.082,0.001,0.199,0.003,0.351s0.003,0.269,0.003,0.353v2.921H8.5v-4.318h1.312l0.786,3.396
	L11.379,17.307z"/>
<path fill="#999999" d="M16.415,18.654c-0.068-0.295-0.234-0.501-0.5-0.618c-0.148-0.064-0.314-0.097-0.496-0.097
	c-0.348,0-0.633,0.131-0.855,0.394c-0.225,0.262-0.336,0.656-0.336,1.183c0,0.53,0.121,0.905,0.363,1.126
	c0.242,0.22,0.518,0.33,0.826,0.33c0.303,0,0.551-0.087,0.744-0.261s0.312-0.401,0.357-0.683h-1v-0.721h1.799v2.317H16.72
	l-0.09-0.539c-0.174,0.204-0.33,0.348-0.469,0.432c-0.238,0.146-0.531,0.219-0.879,0.219c-0.572,0-1.041-0.198-1.406-0.595
	c-0.381-0.397-0.572-0.942-0.572-1.634c0-0.698,0.193-1.259,0.578-1.68c0.385-0.422,0.893-0.633,1.525-0.633
	c0.549,0,0.99,0.139,1.324,0.418c0.332,0.277,0.523,0.625,0.572,1.041H16.415z"/>
</svg>
