<?xml version="1.0" encoding="utf-8"?>
<!-- Generator: Adobe Illustrator 15.0.0, SVG Export Plug-In . SVG Version: 6.00 Build 0)  -->
<!DOCTYPE svg PUBLIC "-//W3C//DTD SVG 1.1//EN" "http://www.w3.org/Graphics/SVG/1.1/DTD/svg11.dtd">
<svg version="1.1" id="Layer_1" xmlns="http://www.w3.org/2000/svg" xmlns:xlink="http://www.w3.org/1999/xlink" x="0px" y="0px"
	 width="24px" height="24px" viewBox="0 0 24 24" enable-background="new 0 0 24 24" xml:space="preserve">
<path id="path4_2_" fill="#FFFFFF" stroke="#BBBBBB" stroke-linecap="round" stroke-linejoin="round" stroke-miterlimit="10" d="
	M20.808,2.016c0-0.696-0.504-1.248-1.15-1.248H4.383c-0.648,0-1.152,0.552-1.152,1.248v19.968c0,0.695,0.504,1.248,1.152,1.248
	h15.272c0.647,0,1.152-0.553,1.152-1.248V2.016z"/>
<rect id="polyline13_2_" x="5.318" y="5.174" fill="none" stroke="#DBDBDB" width="13.25" height="10.167"/>
<polyline fill="#DBDBDB" points="6.892,13.781 8.12,10.682 9.208,11.827 13.607,7.583 15.52,10.16 17.199,8.903 17.199,13.781 
	6.892,13.781 "/>
<path fill="#DBDBDB" d="M8.808,6.939c0.803,0,1.452,0.605,1.452,1.354S9.61,9.648,8.808,9.648c-0.804,0-1.455-0.606-1.455-1.355
	C7.353,7.546,8.003,6.939,8.808,6.939"/>
<polyline fill="#5B2D8D" points="10.913,13.78 0,13.78 0,3.357 10.913,3.357 10.913,13.78 "/>
<polyline fill="#FFFFFF" points="1.596,11.022 3.171,9.841 3.972,10.427 7.151,8.074 8.332,8.952 9.133,8.368 9.133,11.022 
	1.596,11.022 "/>
<path fill="#FFFFFF" d="M2.997,5.948c0.587,0,1.062,0.443,1.062,0.99S3.583,7.929,2.997,7.929c-0.588,0-1.064-0.443-1.064-0.991
	C1.933,6.392,2.409,5.948,2.997,5.948"/>
<g>
	<path fill="#999999" d="M6.826,19.716v0.103c0.007,0.346,0.043,0.588,0.106,0.728s0.199,0.21,0.407,0.21
		c0.207,0,0.343-0.076,0.409-0.229c0.04-0.092,0.06-0.244,0.06-0.459v-3.114h0.931v3.099c0,0.379-0.064,0.68-0.192,0.9
		c-0.216,0.375-0.607,0.562-1.172,0.562s-0.944-0.151-1.137-0.455c-0.193-0.304-0.29-0.717-0.29-1.24v-0.103h0.878V19.716z"/>
	<path fill="#999999" d="M12.711,19.479c-0.26,0.217-0.632,0.326-1.116,0.326h-0.927v1.601H9.743v-4.452h1.912
		c0.44,0,0.792,0.113,1.054,0.344c0.262,0.23,0.395,0.585,0.395,1.066C13.104,18.889,12.973,19.26,12.711,19.479z M12.001,17.873
		c-0.118-0.1-0.283-0.148-0.495-0.148h-0.839v1.312h0.839c0.212,0,0.377-0.055,0.495-0.16s0.177-0.275,0.177-0.508
		S12.119,17.973,12.001,17.873z"/>
	<path fill="#999999" d="M16.842,18.341c-0.07-0.304-0.242-0.516-0.517-0.637c-0.153-0.065-0.323-0.101-0.511-0.101
		c-0.358,0-0.652,0.136-0.883,0.405c-0.231,0.271-0.347,0.677-0.347,1.22c0,0.547,0.124,0.935,0.374,1.16
		c0.25,0.229,0.534,0.342,0.852,0.342c0.312,0,0.568-0.09,0.769-0.27c0.198-0.179,0.321-0.414,0.368-0.704h-1.029v-0.743h1.854
		v2.391h-0.615l-0.094-0.557c-0.181,0.211-0.342,0.358-0.483,0.445c-0.246,0.15-0.548,0.227-0.906,0.227
		c-0.59,0-1.073-0.205-1.45-0.613c-0.393-0.41-0.589-0.973-0.589-1.686c0-0.721,0.198-1.298,0.597-1.731
		c0.396-0.435,0.92-0.652,1.572-0.652c0.566,0,1.021,0.144,1.364,0.431s0.54,0.646,0.59,1.073H16.842z"/>
</g>
</svg>
