<?xml version="1.0" encoding="utf-8"?>
<!-- Generator: Adobe Illustrator 15.0.0, SVG Export Plug-In . SVG Version: 6.00 Build 0)  -->
<!DOCTYPE svg PUBLIC "-//W3C//DTD SVG 1.1//EN" "http://www.w3.org/Graphics/SVG/1.1/DTD/svg11.dtd">
<svg version="1.1" id="Layer_1" xmlns="http://www.w3.org/2000/svg" xmlns:xlink="http://www.w3.org/1999/xlink" x="0px" y="0px"
	 width="24px" height="24px" viewBox="0 0 24 24" enable-background="new 0 0 24 24" xml:space="preserve">
<path id="path1096_1_" fill="#FFFFFF" stroke="#999999" stroke-linecap="round" stroke-linejoin="round" stroke-miterlimit="10" d="
	M19.068,0.5c0.813,0,1.438,0.624,1.438,1.368V21.98c0,0.768-0.646,1.367-1.438,1.367H4.812c-0.792,0-1.44-0.625-1.44-1.367V1.868
	C3.372,1.1,4.02,0.5,4.812,0.5H19.068L19.068,0.5z"/>
<polyline fill="#2372BA" points="0.799,4.001 10.469,4.001 10.469,13.134 0.799,13.134 0.799,4.001 "/>
<polyline fill="#FFFFFF" points="9.208,6.557 7.612,11.401 6.287,11.401 5.377,8.594 4.421,11.401 3.101,11.401 1.612,6.557 
	2.969,6.557 3.836,9.687 4.893,6.557 5.925,6.557 6.91,9.687 7.853,6.557 9.208,6.557 "/>
<rect id="polyline13_2_" x="5.318" y="5.174" fill="none" stroke="#DBDBDB" width="13.25" height="10.167"/>
<path fill="#FFFFFF" d="M6.308,8.148c0-0.194-0.06-0.351-0.179-0.467C6.008,7.563,5.803,7.505,5.514,7.505H5.032v1.304h0.479
	c0.31,0,0.524-0.064,0.64-0.192C6.256,8.501,6.308,8.345,6.308,8.148 M7.585,8.135c0,0.43-0.108,0.787-0.325,1.068
	C6.979,9.568,6.512,9.75,5.86,9.75H5.032v1.666H3.755V6.563h2.083c0.592,0,1.042,0.165,1.349,0.493
	C7.453,7.337,7.585,7.697,7.585,8.135z"/>
<polyline fill="#DBDBDB" points="6.892,13.781 8.12,10.682 9.208,11.827 13.607,7.583 15.52,10.16 17.199,8.903 17.199,13.781 
	6.892,13.781 "/>
<path fill="#DBDBDB" d="M8.808,6.939c0.803,0,1.452,0.605,1.452,1.354S9.61,9.648,8.808,9.648c-0.804,0-1.455-0.606-1.455-1.355
	C7.353,7.546,8.003,6.939,8.808,6.939"/>
<polyline fill="#5B2D8D" points="10.913,13.78 0,13.78 0,3.357 10.913,3.357 10.913,13.78 "/>
<polyline fill="#FFFFFF" points="1.596,11.022 3.171,9.841 3.972,10.427 7.151,8.074 8.332,8.952 9.133,8.368 9.133,11.022 
	1.596,11.022 "/>
<path fill="#FFFFFF" d="M2.997,5.948c0.587,0,1.062,0.443,1.062,0.99S3.583,7.929,2.997,7.929c-0.588,0-1.064-0.443-1.064-0.991
	C1.933,6.392,2.409,5.948,2.997,5.948"/>
<g>
	<path fill="#999999" d="M6.826,19.716v0.103c0.007,0.345,0.043,0.587,0.106,0.727c0.063,0.14,0.199,0.21,0.407,0.21
		c0.207,0,0.343-0.076,0.409-0.229c0.04-0.091,0.06-0.244,0.06-0.459v-3.114h0.931v3.099c0,0.379-0.064,0.679-0.192,0.9
		c-0.216,0.375-0.607,0.562-1.172,0.562s-0.944-0.151-1.137-0.454c-0.193-0.304-0.29-0.717-0.29-1.24v-0.103H6.826z"/>
	<path fill="#999999" d="M12.711,19.478c-0.26,0.217-0.632,0.326-1.116,0.326h-0.927v1.601H9.743v-4.452h1.912
		c0.44,0,0.792,0.114,1.054,0.344s0.394,0.585,0.394,1.066C13.103,18.888,12.972,19.26,12.711,19.478z M12.001,17.873
		c-0.118-0.099-0.283-0.148-0.495-0.148h-0.839v1.312h0.839c0.212,0,0.377-0.054,0.495-0.16c0.118-0.106,0.177-0.276,0.177-0.508
		S12.119,17.972,12.001,17.873z"/>
	<path fill="#999999" d="M16.842,18.341c-0.07-0.304-0.242-0.516-0.517-0.637c-0.153-0.066-0.323-0.1-0.511-0.1
		c-0.358,0-0.652,0.135-0.883,0.405s-0.346,0.677-0.346,1.22c0,0.547,0.124,0.934,0.374,1.16c0.25,0.228,0.534,0.341,0.852,0.341
		c0.312,0,0.568-0.089,0.768-0.269c0.199-0.179,0.322-0.414,0.368-0.704h-1.029v-0.743h1.854v2.39h-0.616l-0.094-0.556
		c-0.18,0.21-0.341,0.358-0.483,0.445c-0.246,0.15-0.548,0.226-0.906,0.226c-0.59,0-1.073-0.205-1.45-0.613
		c-0.393-0.41-0.589-0.972-0.589-1.685c0-0.721,0.198-1.298,0.596-1.732c0.396-0.435,0.921-0.652,1.573-0.652
		c0.566,0,1.021,0.144,1.364,0.431c0.343,0.287,0.54,0.645,0.59,1.073H16.842z"/>
</g>
</svg>
