<?xml version="1.0" encoding="utf-8"?>
<!-- Generator: Adobe Illustrator 15.0.0, SVG Export Plug-In . SVG Version: 6.00 Build 0)  -->
<!DOCTYPE svg PUBLIC "-//W3C//DTD SVG 1.1//EN" "http://www.w3.org/Graphics/SVG/1.1/DTD/svg11.dtd">
<svg version="1.1"
	 id="svg75" sodipodi:docname="icon.svg" inkscape:version="0.92.2 5c3e80d, 2017-08-06" xmlns:cc="http://creativecommons.org/ns#" xmlns:inkscape="http://www.inkscape.org/namespaces/inkscape" xmlns:sodipodi="http://sodipodi.sourceforge.net/DTD/sodipodi-0.dtd" xmlns:rdf="http://www.w3.org/1999/02/22-rdf-syntax-ns#" xmlns:svg="http://www.w3.org/2000/svg" xmlns:dc="http://purl.org/dc/elements/1.1/"
	 xmlns="http://www.w3.org/2000/svg" xmlns:xlink="http://www.w3.org/1999/xlink" x="0px" y="0px" width="24px" height="24px"
	 viewBox="0 0 24 24" enable-background="new 0 0 24 24" xml:space="preserve">
<sodipodi:namedview  objecttolerance="10" id="namedview77" borderopacity="1" inkscape:window-y="155" bordercolor="#666666" inkscape:window-x="328" inkscape:window-width="1114" inkscape:cx="12" showgrid="false" inkscape:cy="12" gridtolerance="10" inkscape:pageopacity="0" inkscape:zoom="9.8333333" inkscape:pageshadow="2" inkscape:window-maximized="0" inkscape:window-height="563" pagecolor="#ffffff" guidetolerance="10" inkscape:current-layer="svg75">
	</sodipodi:namedview>
<path id="path4_2_" inkscape:connector-curvature="0" sodipodi:nodetypes="sscsssssscs" fill="#FFFFFF" stroke="#BBBBBB" stroke-linecap="round" stroke-linejoin="round" stroke-miterlimit="10" d="
	M20.808,2.016c0-0.696-0.504-1.248-1.15-1.248H4.383c-0.648,0-1.152,0.552-1.152,1.248v19.968c0,0.695,0.504,1.248,1.152,1.248
	h15.272c0.647,0,1.152-0.553,1.152-1.248V2.016z"/>
<line fill="none" stroke="#DBDBDB" stroke-linecap="round" stroke-linejoin="round" stroke-miterlimit="10" x1="13.279" y1="5.515" x2="17.967" y2="5.515"/>
<line fill="none" stroke="#DBDBDB" stroke-linecap="round" stroke-linejoin="round" stroke-miterlimit="10" x1="13.279" y1="3.515" x2="17.967" y2="3.515"/>
<line fill="none" stroke="#DBDBDB" stroke-linecap="round" stroke-linejoin="round" stroke-miterlimit="10" x1="13.279" y1="7.515" x2="17.967" y2="7.515"/>
<line fill="none" stroke="#DBDBDB" stroke-linecap="round" stroke-linejoin="round" stroke-miterlimit="10" x1="13.279" y1="9.515" x2="17.967" y2="9.515"/>
<line fill="none" stroke="#DBDBDB" stroke-linecap="round" stroke-linejoin="round" stroke-miterlimit="10" x1="13.279" y1="11.516" x2="17.967" y2="11.516"/>
<line fill="none" stroke="#DBDBDB" stroke-linecap="round" stroke-linejoin="round" stroke-miterlimit="10" x1="13.279" y1="13.516" x2="17.967" y2="13.516"/>
<line fill="none" stroke="#DBDBDB" stroke-linecap="round" stroke-linejoin="round" stroke-miterlimit="10" x1="6.28" y1="15.516" x2="17.967" y2="15.516"/>
<polyline fill="#CC0000" points="10.913,13.891 0.068,13.891 0.068,3.515 10.913,3.515 10.913,13.891 "/>
<path fill="none" stroke="#FFFFFF" stroke-width="0.5" stroke-linejoin="round" stroke-miterlimit="10" d="M5.635,5.105
	c0.181,0.072,0.144,0.181,0.072,0.651C5.671,6.226,5.49,7.129,5.165,7.998c-0.325,0.868-0.832,1.735-1.266,2.35
	c-0.434,0.65-0.795,1.048-1.084,1.301c-0.29,0.253-0.47,0.289-0.614,0.326c-0.109,0.036-0.182,0-0.217-0.073
	c-0.037-0.073-0.037-0.18,0-0.29c0.035-0.145,0.108-0.289,0.289-0.47s0.506-0.434,0.976-0.651c0.434-0.216,1.013-0.434,1.482-0.542
	c0.47-0.145,0.832-0.216,1.157-0.252c0.326-0.073,0.579-0.108,0.867-0.108c0.253-0.037,0.543-0.037,0.795,0
	C7.804,9.624,8.057,9.66,8.274,9.697c0.217,0.036,0.397,0.108,0.578,0.217c0.145,0.108,0.29,0.252,0.361,0.397
	c0.073,0.145,0.073,0.325,0,0.435c-0.071,0.108-0.181,0.181-0.289,0.252c-0.145,0.037-0.289,0.037-0.47,0
	c-0.181-0.036-0.398-0.181-0.615-0.325c-0.217-0.144-0.434-0.361-0.759-0.65c-0.288-0.29-0.65-0.688-0.976-1.086
	C5.779,8.54,5.526,8.178,5.382,7.853C5.201,7.527,5.128,7.275,5.057,6.985C4.984,6.732,4.912,6.443,4.912,6.226
	c0-0.217,0-0.434,0-0.614c0.036-0.181,0.072-0.29,0.108-0.397C5.092,5.142,5.165,5.106,5.201,5.07
	C5.237,5.034,5.31,5.034,5.31,5.034s0.072,0,0.109,0C5.526,5.034,5.562,5.069,5.635,5.105"/>
<g>
	<path fill="#999999" d="M9.101,19.479c-0.261,0.217-0.633,0.326-1.117,0.326H7.057v1.601H6.132v-4.452h1.912
		c0.44,0,0.792,0.113,1.054,0.344c0.262,0.229,0.393,0.585,0.393,1.066C9.492,18.889,9.361,19.26,9.101,19.479z M8.391,17.873
		c-0.118-0.1-0.283-0.148-0.495-0.148H7.057v1.312h0.839c0.212,0,0.377-0.055,0.495-0.16c0.118-0.105,0.177-0.275,0.177-0.508
		S8.508,17.973,8.391,17.873z"/>
	<path fill="#999999" d="M12.848,17.049c0.312,0.104,0.564,0.291,0.758,0.564c0.156,0.222,0.262,0.461,0.317,0.719
		s0.085,0.504,0.085,0.736c0,0.593-0.119,1.095-0.357,1.505c-0.321,0.554-0.819,0.831-1.492,0.831h-1.92v-4.452h1.92
		C12.434,16.956,12.663,16.988,12.848,17.049z M11.141,17.725v2.906H12c0.439,0,0.746-0.217,0.919-0.648
		c0.095-0.237,0.142-0.521,0.142-0.85c0-0.453-0.069-0.801-0.213-1.044c-0.143-0.241-0.425-0.364-0.848-0.364H11.141z"/>
	<path fill="#999999" d="M14.705,16.958h3.175v0.782h-2.251v1.023h1.973v0.772h-1.973v1.866h-0.924V16.958z"/>
</g>
</svg>
