<?xml version="1.0" encoding="utf-8"?>
<!-- Generator: Adobe Illustrator 15.0.0, SVG Export Plug-In . SVG Version: 6.00 Build 0)  -->
<!DOCTYPE svg PUBLIC "-//W3C//DTD SVG 1.1//EN" "http://www.w3.org/Graphics/SVG/1.1/DTD/svg11.dtd">
<svg version="1.1" id="Layer_1" xmlns="http://www.w3.org/2000/svg" xmlns:xlink="http://www.w3.org/1999/xlink" x="0px" y="0px"
	 width="24px" height="24px" viewBox="0 0 24 24" enable-background="new 0 0 24 24" xml:space="preserve">
<path id="path4_2_" fill="#FFFFFF" stroke="#BBBBBB" stroke-linecap="round" stroke-linejoin="round" stroke-miterlimit="10" d="
	M20.808,2.016c0-0.696-0.504-1.248-1.15-1.248H4.383c-0.648,0-1.152,0.552-1.152,1.248v19.968c0,0.695,0.504,1.248,1.152,1.248
	h15.272c0.647,0,1.152-0.553,1.152-1.248V2.016z"/>
<rect id="polyline13_1_" x="5.318" y="5.174" fill="none" stroke="#DBDBDB" width="13.25" height="10.167"/>
<polyline fill="#DBDBDB" points="6.892,13.781 8.12,10.682 9.208,11.827 13.607,7.583 15.52,10.16 17.199,8.903 17.199,13.781 
	6.892,13.781 "/>
<path fill="#DBDBDB" d="M8.808,6.939c0.803,0,1.452,0.605,1.452,1.354S9.61,9.648,8.808,9.648c-0.804,0-1.455-0.606-1.455-1.355
	C7.353,7.546,8.003,6.939,8.808,6.939"/>
<polyline fill="#5B2D8D" points="10.913,13.78 0,13.78 0,3.357 10.913,3.357 10.913,13.78 "/>
<polyline fill="#FFFFFF" points="1.596,11.022 3.171,9.841 3.972,10.427 7.151,8.074 8.332,8.952 9.133,8.368 9.133,11.022 
	1.596,11.022 "/>
<path fill="#FFFFFF" d="M2.997,5.948c0.587,0,1.062,0.443,1.062,0.99S3.583,7.929,2.997,7.929c-0.588,0-1.064-0.443-1.064-0.991
	C1.933,6.392,2.409,5.948,2.997,5.948"/>
<path fill="#999999" d="M8.758,19.479c-0.261,0.217-0.633,0.326-1.117,0.326H6.714v1.601H5.79v-4.452h1.912
	c0.44,0,0.792,0.113,1.054,0.344c0.262,0.229,0.393,0.585,0.393,1.066C9.149,18.889,9.019,19.26,8.758,19.479z M8.048,17.873
	c-0.118-0.1-0.283-0.148-0.495-0.148H6.714v1.312h0.839c0.212,0,0.377-0.055,0.495-0.16c0.118-0.105,0.177-0.275,0.177-0.508
	S8.166,17.973,8.048,17.873z"/>
<path fill="#999999" d="M9.88,16.952h0.976l1.767,3.104v-3.104h0.867v4.452h-0.93l-1.812-3.159v3.159H9.88V16.952z"/>
<path fill="#999999" d="M17.355,18.341c-0.07-0.304-0.242-0.516-0.518-0.637c-0.152-0.065-0.322-0.101-0.511-0.101
	c-0.358,0-0.652,0.136-0.884,0.405c-0.23,0.271-0.346,0.677-0.346,1.22c0,0.547,0.125,0.935,0.375,1.16
	c0.25,0.229,0.533,0.342,0.852,0.342c0.312,0,0.568-0.09,0.768-0.27c0.199-0.179,0.322-0.414,0.368-0.704h-1.028v-0.743h1.854v2.391
	H17.67l-0.094-0.557c-0.18,0.211-0.342,0.358-0.483,0.445c-0.245,0.15-0.548,0.227-0.905,0.227c-0.59,0-1.074-0.205-1.451-0.613
	c-0.393-0.41-0.588-0.973-0.588-1.686c0-0.721,0.197-1.298,0.596-1.731c0.396-0.435,0.921-0.652,1.572-0.652
	c0.566,0,1.021,0.144,1.365,0.431c0.342,0.287,0.539,0.646,0.59,1.073H17.355z"/>
</svg>
