<?xml version="1.0" encoding="utf-8"?>
<!-- Generator: Adobe Illustrator 15.0.0, SVG Export Plug-In . SVG Version: 6.00 Build 0)  -->
<!DOCTYPE svg PUBLIC "-//W3C//DTD SVG 1.1//EN" "http://www.w3.org/Graphics/SVG/1.1/DTD/svg11.dtd">
<svg version="1.1"
	 id="svg75" sodipodi:docname="icon.svg" inkscape:version="0.92.2 5c3e80d, 2017-08-06" xmlns:cc="http://creativecommons.org/ns#" xmlns:inkscape="http://www.inkscape.org/namespaces/inkscape" xmlns:sodipodi="http://sodipodi.sourceforge.net/DTD/sodipodi-0.dtd" xmlns:rdf="http://www.w3.org/1999/02/22-rdf-syntax-ns#" xmlns:svg="http://www.w3.org/2000/svg" xmlns:dc="http://purl.org/dc/elements/1.1/"
	 xmlns="http://www.w3.org/2000/svg" xmlns:xlink="http://www.w3.org/1999/xlink" x="0px" y="0px" width="24px" height="24px"
	 viewBox="0 0 24 24" enable-background="new 0 0 24 24" xml:space="preserve">
<sodipodi:namedview  objecttolerance="10" id="namedview77" borderopacity="1" inkscape:window-y="155" bordercolor="#666666" inkscape:window-x="328" inkscape:window-width="1114" inkscape:cx="12" showgrid="false" inkscape:cy="12" gridtolerance="10" inkscape:pageopacity="0" inkscape:zoom="9.8333333" inkscape:pageshadow="2" inkscape:window-maximized="0" inkscape:window-height="563" pagecolor="#ffffff" guidetolerance="10" inkscape:current-layer="svg75">
	</sodipodi:namedview>
<path id="path4_2_" inkscape:connector-curvature="0" sodipodi:nodetypes="sscsssssscs" fill="#FFFFFF" stroke="#BBBBBB" stroke-linecap="round" stroke-linejoin="round" stroke-miterlimit="10" d="
	M20.808,2.016c0-0.696-0.504-1.248-1.15-1.248H4.383c-0.648,0-1.152,0.552-1.152,1.248v19.968c0,0.695,0.504,1.248,1.152,1.248
	h15.272c0.647,0,1.152-0.553,1.152-1.248V2.016z"/>
<g id="_375-Present">
	<g>
		<rect id="polyline13_1_" x="5.318" y="5.25" fill="none" stroke="#DBDBDB" width="13.25" height="10.25"/>
	</g>
	<line id="line19" fill="none" stroke="#DBDBDB" x1="9.002" y1="13.923" x2="9.002" y2="9.105"/>
	<line id="line21" fill="none" stroke="#DBDBDB" x1="10.562" y1="13.923" x2="10.562" y2="6.827"/>
	<line id="line23" fill="none" stroke="#DBDBDB" x1="12.121" y1="13.923" x2="12.121" y2="8.061"/>
	<line id="line19_1_" fill="none" stroke="#DBDBDB" x1="13.654" y1="13.923" x2="13.654" y2="9.981"/>
	<line id="line21_1_" fill="none" stroke="#DBDBDB" x1="15.214" y1="13.923" x2="15.214" y2="6.827"/>
	<line id="line21_2_" fill="none" stroke="#DBDBDB" x1="7.41" y1="13.923" x2="7.41" y2="6.827"/>
	<line id="line23_1_" fill="none" stroke="#DBDBDB" x1="16.773" y1="13.923" x2="16.773" y2="9.981"/>
</g>
<g>
	<polyline fill="#DD5B26" points="10.936,13.959 0,13.959 0,3.515 10.936,3.515 10.936,13.959 	"/>
	<path fill="#FFFFFF" d="M6.308,8.224c0-0.194-0.06-0.351-0.179-0.467C6.008,7.639,5.803,7.581,5.514,7.581H5.032v1.304h0.479
		c0.31,0,0.524-0.064,0.64-0.192C6.256,8.577,6.308,8.421,6.308,8.224 M7.585,8.211c0,0.43-0.108,0.787-0.325,1.068
		c-0.281,0.365-0.748,0.547-1.4,0.547H5.032v1.666H3.755V6.639h2.083c0.592,0,1.042,0.165,1.349,0.493
		C7.453,7.413,7.585,7.773,7.585,8.211z"/>
</g>
<g>
	<path fill="#999999" d="M9.235,19.479c-0.261,0.217-0.633,0.326-1.117,0.326H7.191v1.601H6.267v-4.452h1.912
		c0.44,0,0.792,0.113,1.055,0.344c0.262,0.229,0.393,0.585,0.393,1.066C9.626,18.889,9.496,19.26,9.235,19.479z M8.525,17.873
		c-0.118-0.1-0.283-0.148-0.495-0.148H7.191v1.312H8.03c0.212,0,0.377-0.055,0.495-0.16c0.117-0.105,0.177-0.275,0.177-0.508
		S8.643,17.973,8.525,17.873z"/>
	<path fill="#999999" d="M13.361,19.479c-0.262,0.217-0.633,0.326-1.116,0.326h-0.928v1.601h-0.924v-4.452h1.912
		c0.44,0,0.792,0.113,1.054,0.344s0.394,0.585,0.394,1.066C13.753,18.889,13.622,19.26,13.361,19.479z M12.65,17.873
		c-0.117-0.1-0.282-0.148-0.495-0.148h-0.839v1.312h0.839c0.212,0,0.377-0.055,0.495-0.16c0.119-0.105,0.178-0.275,0.178-0.508
		S12.77,17.973,12.65,17.873z"/>
	<path fill="#999999" d="M17.732,16.952v0.788H16.4v3.664h-0.937V17.74h-1.338v-0.788H17.732z"/>
</g>
</svg>
