<?xml version="1.0" encoding="utf-8"?>
<!-- Generator: Adobe Illustrator 15.0.0, SVG Export Plug-In . SVG Version: 6.00 Build 0)  -->
<!DOCTYPE svg PUBLIC "-//W3C//DTD SVG 1.1//EN" "http://www.w3.org/Graphics/SVG/1.1/DTD/svg11.dtd">
<svg version="1.1" id="Layer_1" xmlns="http://www.w3.org/2000/svg" xmlns:xlink="http://www.w3.org/1999/xlink" x="0px" y="0px"
	 width="24px" height="24px" viewBox="0 0 24 24" enable-background="new 0 0 24 24" xml:space="preserve">
<path id="path4_2_" fill="#FFFFFF" stroke="#BBBBBB" stroke-linecap="round" stroke-linejoin="round" stroke-miterlimit="10" d="
	M20.808,2.016c0-0.696-0.504-1.248-1.15-1.248H4.383c-0.648,0-1.152,0.552-1.152,1.248v19.968c0,0.695,0.504,1.248,1.152,1.248
	h15.272c0.647,0,1.152-0.553,1.152-1.248V2.016z"/>
<rect id="polyline13_1_" x="5.318" y="5.174" fill="none" stroke="#DBDBDB" width="13.25" height="10.167"/>
<path fill="#FFFFFF" d="M6.308,8.148c0-0.194-0.06-0.351-0.179-0.467C6.008,7.563,5.803,7.505,5.514,7.505H5.032v1.304h0.479
	c0.31,0,0.524-0.064,0.64-0.192C6.256,8.501,6.308,8.345,6.308,8.148 M7.585,8.135c0,0.43-0.108,0.787-0.325,1.068
	C6.979,9.568,6.512,9.75,5.86,9.75H5.032v1.666H3.755V6.563h2.083c0.592,0,1.042,0.165,1.349,0.493
	C7.453,7.337,7.585,7.697,7.585,8.135z"/>
<polyline fill="#DBDBDB" points="6.892,13.781 8.12,10.682 9.208,11.827 13.607,7.583 15.52,10.16 17.199,8.903 17.199,13.781 
	6.892,13.781 "/>
<path fill="#DBDBDB" d="M8.808,6.939c0.803,0,1.452,0.605,1.452,1.354S9.61,9.648,8.808,9.648c-0.804,0-1.455-0.606-1.455-1.355
	C7.353,7.546,8.003,6.939,8.808,6.939"/>
<polyline fill="#5B2D8D" points="10.913,13.78 0,13.78 0,3.357 10.913,3.357 10.913,13.78 "/>
<polyline fill="#FFFFFF" points="1.596,11.022 3.171,9.841 3.972,10.427 7.151,8.074 8.332,8.952 9.133,8.368 9.133,11.022 
	1.596,11.022 "/>
<path fill="#FFFFFF" d="M2.997,5.948c0.587,0,1.062,0.443,1.062,0.99S3.583,7.929,2.997,7.929c-0.588,0-1.064-0.443-1.064-0.991
	C1.933,6.392,2.409,5.948,2.997,5.948"/>
<path fill="#999999" d="M9.101,19.479c-0.261,0.217-0.633,0.326-1.117,0.326H7.057v1.601H6.132v-4.452h1.912
	c0.44,0,0.792,0.113,1.054,0.344c0.262,0.229,0.393,0.585,0.393,1.066C9.492,18.889,9.361,19.26,9.101,19.479z M8.391,17.873
	c-0.118-0.1-0.283-0.148-0.495-0.148H7.057v1.312h0.839c0.212,0,0.377-0.055,0.495-0.16c0.118-0.105,0.177-0.275,0.177-0.508
	S8.508,17.973,8.391,17.873z"/>
<path fill="#999999" d="M10.908,20.03c0.029,0.202,0.085,0.354,0.17,0.456c0.154,0.183,0.418,0.273,0.792,0.273
	c0.224,0,0.406-0.023,0.546-0.072c0.266-0.093,0.398-0.265,0.398-0.517c0-0.147-0.065-0.261-0.195-0.342
	c-0.129-0.078-0.335-0.147-0.618-0.208l-0.482-0.105c-0.474-0.104-0.799-0.219-0.977-0.342c-0.3-0.205-0.45-0.525-0.45-0.964
	c0-0.397,0.147-0.729,0.44-0.993c0.293-0.264,0.725-0.396,1.293-0.396c0.475,0,0.88,0.125,1.215,0.373s0.511,0.609,0.526,1.084
	h-0.894c-0.017-0.27-0.137-0.459-0.359-0.571c-0.149-0.074-0.333-0.112-0.554-0.112c-0.246,0-0.442,0.049-0.588,0.146
	c-0.147,0.097-0.22,0.23-0.22,0.404c0,0.158,0.072,0.277,0.217,0.355c0.093,0.053,0.29,0.114,0.592,0.186l0.781,0.185
	c0.343,0.08,0.601,0.188,0.771,0.323c0.267,0.209,0.398,0.513,0.398,0.908c0,0.406-0.158,0.744-0.473,1.015
	c-0.314,0.269-0.758,0.403-1.333,0.403c-0.586,0-1.047-0.134-1.383-0.397c-0.336-0.265-0.503-0.629-0.503-1.092H10.908z"/>
<path fill="#999999" d="M16.973,17.049c0.312,0.104,0.565,0.291,0.76,0.564c0.154,0.222,0.261,0.461,0.316,0.719
	c0.057,0.258,0.085,0.504,0.085,0.736c0,0.593-0.118,1.095-0.356,1.505c-0.322,0.554-0.82,0.831-1.493,0.831h-1.921v-4.452h1.921
	C16.561,16.956,16.789,16.988,16.973,17.049z M15.268,17.725v2.906h0.858c0.438,0,0.746-0.217,0.92-0.648
	c0.095-0.237,0.142-0.521,0.142-0.85c0-0.453-0.069-0.801-0.213-1.044c-0.143-0.241-0.425-0.364-0.849-0.364H15.268z"/>
</svg>
