<?xml version="1.0" encoding="utf-8"?>
<!-- Generator: Adobe Illustrator 15.0.0, SVG Export Plug-In  -->
<!DOCTYPE svg PUBLIC "-//W3C//DTD SVG 1.1//EN" "http://www.w3.org/Graphics/SVG/1.1/DTD/svg11.dtd" [
	<!ENTITY ns_flows "http://ns.adobe.com/Flows/1.0/">
]>
<svg version="1.1"
	 xmlns="http://www.w3.org/2000/svg" xmlns:xlink="http://www.w3.org/1999/xlink" xmlns:a="http://ns.adobe.com/AdobeSVGViewerExtensions/3.0/"
	 x="0px" y="0px" width="24px" height="24px" viewBox="0 0 24 24" overflow="visible" enable-background="new 0 0 24 24"
	 xml:space="preserve">
<defs>
</defs>
<path id="path1096_2_" fill="#FFFFFF" stroke="#999999" stroke-linecap="round" stroke-linejoin="round" stroke-miterlimit="10" d="
	M19.068,0.5c0.813,0,1.438,0.624,1.438,1.368V21.98c0,0.768-0.646,1.367-1.438,1.367H4.812c-0.792,0-1.44-0.625-1.44-1.367V1.868
	C3.372,1.1,4.02,0.5,4.812,0.5H19.068L19.068,0.5z"/>
<polyline fill="#2372BA" points="0.799,4.001 10.469,4.001 10.469,13.134 0.799,13.134 0.799,4.001 "/>
<polyline fill="#FFFFFF" points="9.208,6.557 7.612,11.401 6.287,11.401 5.377,8.594 4.421,11.401 3.101,11.401 1.612,6.557 
	2.969,6.557 3.836,9.687 4.893,6.557 5.925,6.557 6.91,9.687 7.853,6.557 9.208,6.557 "/>
<rect id="polyline13_1_" x="5.318" y="5.174" fill="none" stroke="#DBDBDB" width="13.25" height="10.167"/>
<path fill="#FFFFFF" d="M6.308,8.148c0-0.194-0.06-0.351-0.179-0.467C6.008,7.563,5.803,7.505,5.514,7.505H5.032v1.304h0.479
	c0.31,0,0.524-0.064,0.64-0.192C6.256,8.501,6.308,8.345,6.308,8.148 M7.585,8.135c0,0.43-0.108,0.787-0.325,1.068
	C6.979,9.568,6.512,9.75,5.86,9.75H5.032v1.666H3.755V6.563h2.083c0.592,0,1.042,0.165,1.349,0.493
	C7.453,7.337,7.585,7.697,7.585,8.135z"/>
<polyline fill="#DBDBDB" points="6.892,13.781 8.12,10.682 9.208,11.827 13.607,7.583 15.52,10.16 17.199,8.903 17.199,13.781 
	6.892,13.781 "/>
<path fill="#DBDBDB" d="M8.808,6.939c0.803,0,1.452,0.605,1.452,1.354S9.61,9.648,8.808,9.648c-0.804,0-1.455-0.606-1.455-1.355
	C7.353,7.546,8.003,6.939,8.808,6.939"/>
<polyline fill="#5B2D8D" points="10.913,13.78 0,13.78 0,3.357 10.913,3.357 10.913,13.78 "/>
<polyline fill="#FFFFFF" points="1.596,11.022 3.171,9.841 3.972,10.427 7.151,8.074 8.332,8.952 9.133,8.368 9.133,11.022 
	1.596,11.022 "/>
<path fill="#FFFFFF" d="M2.997,5.948c0.587,0,1.062,0.443,1.062,0.99S3.583,7.929,2.997,7.929c-0.588,0-1.064-0.443-1.064-0.991
	C1.933,6.392,2.409,5.948,2.997,5.948"/>
<path fill="#999999" d="M9.101,19.478c-0.261,0.217-0.633,0.326-1.117,0.326H7.057v1.601H6.132v-4.452h1.912
	c0.44,0,0.792,0.114,1.054,0.344c0.262,0.229,0.393,0.585,0.393,1.066C9.492,18.888,9.361,19.26,9.101,19.478z M8.391,17.873
	c-0.118-0.099-0.283-0.148-0.495-0.148H7.057v1.312h0.839c0.212,0,0.377-0.054,0.495-0.16c0.118-0.106,0.177-0.276,0.177-0.508
	S8.508,17.972,8.391,17.873z"/>
<path fill="#999999" d="M10.908,20.03c0.029,0.203,0.085,0.355,0.17,0.456c0.154,0.183,0.418,0.274,0.792,0.274
	c0.224,0,0.406-0.024,0.546-0.072c0.265-0.093,0.398-0.265,0.398-0.517c0-0.147-0.065-0.261-0.195-0.342
	c-0.129-0.078-0.335-0.147-0.618-0.208l-0.482-0.105c-0.474-0.104-0.799-0.219-0.977-0.342c-0.3-0.205-0.45-0.526-0.45-0.964
	c0-0.398,0.147-0.729,0.44-0.993s0.725-0.396,1.293-0.396c0.475,0,0.88,0.124,1.215,0.373c0.335,0.248,0.511,0.609,0.527,1.083
	h-0.894c-0.017-0.269-0.137-0.459-0.359-0.571c-0.149-0.074-0.333-0.112-0.554-0.112c-0.246,0-0.442,0.049-0.588,0.146
	c-0.147,0.097-0.22,0.231-0.22,0.404c0,0.159,0.072,0.278,0.217,0.356c0.093,0.053,0.29,0.114,0.592,0.185l0.781,0.185
	c0.343,0.08,0.6,0.188,0.771,0.323c0.266,0.209,0.398,0.513,0.398,0.909c0,0.406-0.158,0.744-0.473,1.014
	c-0.314,0.269-0.758,0.403-1.332,0.403c-0.586,0-1.047-0.133-1.383-0.397s-0.503-0.629-0.503-1.092H10.908z"/>
<path fill="#999999" d="M16.973,17.049c0.312,0.103,0.565,0.291,0.759,0.564c0.155,0.222,0.261,0.461,0.317,0.719
	s0.085,0.504,0.085,0.737c0,0.592-0.119,1.094-0.357,1.504c-0.322,0.554-0.82,0.831-1.493,0.831h-1.92v-4.452h1.92
	C16.56,16.956,16.789,16.988,16.973,17.049z M15.267,17.725v2.906h0.859c0.439,0,0.746-0.217,0.92-0.649
	c0.095-0.237,0.142-0.521,0.142-0.849c0-0.453-0.07-0.801-0.213-1.044c-0.143-0.242-0.425-0.364-0.849-0.364H15.267z"/>
</svg>
