<?xml version="1.0" encoding="utf-8"?>
<!-- Generator: Adobe Illustrator 15.0.0, SVG Export Plug-In . SVG Version: 6.00 Build 0)  -->
<!DOCTYPE svg PUBLIC "-//W3C//DTD SVG 1.1//EN" "http://www.w3.org/Graphics/SVG/1.1/DTD/svg11.dtd">
<svg version="1.1"
	 id="svg75" sodipodi:docname="icon.svg" inkscape:version="0.92.2 5c3e80d, 2017-08-06" xmlns:cc="http://creativecommons.org/ns#" xmlns:inkscape="http://www.inkscape.org/namespaces/inkscape" xmlns:sodipodi="http://sodipodi.sourceforge.net/DTD/sodipodi-0.dtd" xmlns:rdf="http://www.w3.org/1999/02/22-rdf-syntax-ns#" xmlns:svg="http://www.w3.org/2000/svg" xmlns:dc="http://purl.org/dc/elements/1.1/"
	 xmlns="http://www.w3.org/2000/svg" xmlns:xlink="http://www.w3.org/1999/xlink" x="0px" y="0px" width="24px" height="24px"
	 viewBox="0 0 24 24" enable-background="new 0 0 24 24" xml:space="preserve">
<sodipodi:namedview  objecttolerance="10" id="namedview77" borderopacity="1" inkscape:window-y="155" bordercolor="#666666" inkscape:window-x="328" inkscape:window-width="1114" inkscape:cx="12" showgrid="false" inkscape:cy="12" gridtolerance="10" inkscape:pageopacity="0" inkscape:zoom="9.8333333" inkscape:pageshadow="2" inkscape:window-maximized="0" inkscape:window-height="563" pagecolor="#ffffff" guidetolerance="10" inkscape:current-layer="svg75">
	</sodipodi:namedview>
<path id="path4_2_" inkscape:connector-curvature="0" sodipodi:nodetypes="sscsssssscs" fill="#FFFFFF" stroke="#BBBBBB" stroke-linecap="round" stroke-linejoin="round" stroke-miterlimit="10" d="
	M20.808,2.016c0-0.696-0.504-1.248-1.15-1.248H4.383c-0.648,0-1.152,0.552-1.152,1.248v19.968c0,0.695,0.504,1.248,1.152,1.248
	h15.272c0.647,0,1.152-0.553,1.152-1.248V2.016z"/>
<g>
	<path fill="#2372BA" d="M10.913,13.938H0V3.515h10.913V13.938 M1.048,12.889h8.815V4.563H1.048"/>
	<polyline fill="#2372BA" points="0.799,4.077 10.469,4.077 10.469,13.21 0.799,13.21 0.799,4.077 	"/>
	<polyline fill="#FFFFFF" points="9.208,6.633 7.612,11.477 6.287,11.477 5.377,8.67 4.421,11.477 3.101,11.477 1.612,6.633 
		2.969,6.633 3.836,9.763 4.893,6.633 5.925,6.633 6.91,9.763 7.853,6.633 9.208,6.633 	"/>
</g>
<g id="_375-Present">
	<rect x="5.318" y="5.25" fill="#999999" width="13.25" height="1.882"/>
	<g>
		<rect id="polyline13_1_" x="5.318" y="5.25" fill="none" stroke="#DBDBDB" width="13.25" height="9.917"/>
	</g>
	<line id="line23_1_" fill="none" stroke="#DBDBDB" x1="14.568" y1="15.051" x2="14.568" y2="5.683"/>
	<line id="line23_3_" fill="none" stroke="#DBDBDB" x1="5.318" y1="7.132" x2="18.568" y2="7.132"/>
	<line id="line23_4_" fill="none" stroke="#DBDBDB" x1="5.318" y1="9.132" x2="18.568" y2="9.132"/>
	<line id="line23_5_" fill="none" stroke="#DBDBDB" x1="5.318" y1="11.132" x2="18.568" y2="11.132"/>
	<line id="line23_6_" fill="none" stroke="#DBDBDB" x1="5.318" y1="13.133" x2="18.568" y2="13.133"/>
	<line id="line23_2_" fill="none" stroke="#DBDBDB" x1="9.568" y1="15.051" x2="9.568" y2="5.683"/>
</g>
<g>
	<polyline fill="#DD5B26" points="10.936,13.959 0,13.959 0,3.515 10.936,3.515 10.936,13.959 	"/>
	<path fill="#FFFFFF" d="M6.308,8.224c0-0.194-0.06-0.351-0.179-0.467C6.008,7.639,5.803,7.581,5.514,7.581H5.032v1.304h0.479
		c0.31,0,0.524-0.064,0.64-0.192C6.256,8.577,6.308,8.421,6.308,8.224 M7.585,8.211c0,0.43-0.108,0.787-0.325,1.068
		c-0.281,0.365-0.748,0.547-1.4,0.547H5.032v1.666H3.755V6.639h2.083c0.592,0,1.042,0.165,1.349,0.493
		C7.453,7.413,7.585,7.773,7.585,8.211z"/>
</g>
<g>
	<polyline fill="#08743B" points="10.913,13.938 0,13.938 0,3.515 10.913,3.515 10.913,13.938 	"/>
	<polyline fill="#FFFFFF" points="8.443,11.435 6.615,11.435 5.368,9.67 4.057,11.435 2.223,11.435 4.5,8.57 2.66,6.064 
		4.516,6.064 5.377,7.427 6.294,6.064 8.18,6.064 6.253,8.57 8.443,11.435 	"/>
</g>
<g>
	<path fill="#999999" d="M6.957,21.404H5.875l1.432-2.27l-1.362-2.184h1.111L7.85,18.4l0.816-1.449h1.075L8.38,19.1l1.447,2.306
		h-1.13l-0.846-1.52L6.957,21.404z"/>
	<path fill="#999999" d="M10.622,16.952h0.931v3.651h2.222v0.801h-3.152L10.622,16.952L10.622,16.952z"/>
	<path fill="#999999" d="M15.305,20.03c0.029,0.202,0.086,0.354,0.17,0.456c0.154,0.183,0.42,0.273,0.793,0.273
		c0.226,0,0.406-0.023,0.547-0.072c0.267-0.093,0.396-0.265,0.396-0.517c0-0.147-0.064-0.261-0.193-0.342
		c-0.131-0.078-0.336-0.147-0.619-0.208l-0.481-0.105c-0.474-0.104-0.799-0.219-0.978-0.342c-0.299-0.205-0.448-0.525-0.448-0.964
		c0-0.397,0.146-0.729,0.438-0.993c0.295-0.264,0.725-0.396,1.295-0.396c0.476,0,0.879,0.125,1.215,0.373s0.513,0.609,0.527,1.084
		h-0.895c-0.016-0.27-0.137-0.459-0.359-0.571c-0.148-0.074-0.332-0.112-0.553-0.112c-0.246,0-0.443,0.049-0.59,0.146
		c-0.147,0.097-0.219,0.23-0.219,0.404c0,0.158,0.071,0.277,0.217,0.355c0.092,0.053,0.289,0.114,0.592,0.186l0.781,0.185
		c0.342,0.08,0.598,0.188,0.77,0.323c0.266,0.209,0.398,0.513,0.398,0.908c0,0.406-0.158,0.744-0.473,1.015
		c-0.314,0.269-0.759,0.403-1.332,0.403c-0.587,0-1.048-0.134-1.384-0.397c-0.336-0.265-0.504-0.629-0.504-1.092H15.305z"/>
</g>
</svg>
