<?xml version="1.0" encoding="utf-8"?>
<!-- Generator: Adobe Illustrator 15.0.0, SVG Export Plug-In  -->
<!DOCTYPE svg PUBLIC "-//W3C//DTD SVG 1.1//EN" "http://www.w3.org/Graphics/SVG/1.1/DTD/svg11.dtd" [
	<!ENTITY ns_flows "http://ns.adobe.com/Flows/1.0/">
]>
<svg version="1.1"
	 xmlns="http://www.w3.org/2000/svg" xmlns:xlink="http://www.w3.org/1999/xlink" xmlns:a="http://ns.adobe.com/AdobeSVGViewerExtensions/3.0/"
	 x="0px" y="0px" width="24px" height="24px" viewBox="0 0 24 24" overflow="visible" enable-background="new 0 0 24 24"
	 xml:space="preserve">
<defs>
</defs>
<path id="path1096_2_" fill="#FFFFFF" stroke="#999999" stroke-linecap="round" stroke-linejoin="round" stroke-miterlimit="10" d="
	M19.068,0.5c0.813,0,1.438,0.624,1.438,1.368V21.98c0,0.768-0.646,1.367-1.438,1.367H4.812c-0.792,0-1.44-0.625-1.44-1.367V1.868
	C3.372,1.1,4.02,0.5,4.812,0.5H19.068L19.068,0.5z"/>
<polyline fill="#2372BA" points="0.799,4.001 10.469,4.001 10.469,13.134 0.799,13.134 0.799,4.001 "/>
<polyline fill="#FFFFFF" points="9.208,6.557 7.612,11.401 6.287,11.401 5.377,8.594 4.421,11.401 3.101,11.401 1.612,6.557 
	2.969,6.557 3.836,9.687 4.893,6.557 5.925,6.557 6.91,9.687 7.853,6.557 9.208,6.557 "/>
<rect id="polyline13_1_" x="5.318" y="5.174" fill="none" stroke="#DBDBDB" width="13.25" height="10.167"/>
<path fill="#FFFFFF" d="M6.308,8.148c0-0.194-0.06-0.351-0.179-0.467C6.008,7.563,5.803,7.505,5.514,7.505H5.032v1.304h0.479
	c0.31,0,0.524-0.064,0.64-0.192C6.256,8.501,6.308,8.345,6.308,8.148 M7.585,8.135c0,0.43-0.108,0.787-0.325,1.068
	C6.979,9.568,6.512,9.75,5.86,9.75H5.032v1.666H3.755V6.563h2.083c0.592,0,1.042,0.165,1.349,0.493
	C7.453,7.337,7.585,7.697,7.585,8.135z"/>
<polyline fill="#DBDBDB" points="6.892,13.781 8.12,10.682 9.208,11.827 13.607,7.583 15.52,10.16 17.199,8.903 17.199,13.781 
	6.892,13.781 "/>
<path fill="#DBDBDB" d="M8.808,6.939c0.803,0,1.452,0.605,1.452,1.354S9.61,9.648,8.808,9.648c-0.804,0-1.455-0.606-1.455-1.355
	C7.353,7.546,8.003,6.939,8.808,6.939"/>
<polyline fill="#5B2D8D" points="10.913,13.78 0,13.78 0,3.357 10.913,3.357 10.913,13.78 "/>
<polyline fill="#FFFFFF" points="1.596,11.022 3.171,9.841 3.972,10.427 7.151,8.074 8.332,8.952 9.133,8.368 9.133,11.022 
	1.596,11.022 "/>
<path fill="#FFFFFF" d="M2.997,5.948c0.587,0,1.062,0.443,1.062,0.99S3.583,7.929,2.997,7.929c-0.588,0-1.064-0.443-1.064-0.991
	C1.933,6.392,2.409,5.948,2.997,5.948"/>
<path fill="#999999" d="M8.925,16.952v0.788H7.593v3.664H6.656V17.74H5.318v-0.788H8.925z"/>
<path fill="#999999" d="M10.571,21.404H9.646v-4.452h0.924V21.404z"/>
<path fill="#999999" d="M11.441,16.958h3.174v0.782h-2.25v1.024h1.973v0.772h-1.973v1.867h-0.924V16.958z"/>
<path fill="#999999" d="M15.22,16.958h3.175v0.782h-2.251v1.024h1.973v0.772h-1.973v1.867H15.22V16.958z"/>
</svg>
