<?xml version="1.0" encoding="UTF-8" standalone="no"?>
<svg
   xmlns:dc="http://purl.org/dc/elements/1.1/"
   xmlns:cc="http://creativecommons.org/ns#"
   xmlns:rdf="http://www.w3.org/1999/02/22-rdf-syntax-ns#"
   xmlns:svg="http://www.w3.org/2000/svg"
   xmlns="http://www.w3.org/2000/svg"
   xmlns:sodipodi="http://sodipodi.sourceforge.net/DTD/sodipodi-0.dtd"
   xmlns:inkscape="http://www.inkscape.org/namespaces/inkscape"
   height="24px"
   width="24px"
   viewBox="0 0 100 100"
   enable-background="new 0 0 100 100"
   version="1.1"
   id="svg32"
   sodipodi:docname="icon.svg"
   inkscape:version="0.92.2 5c3e80d, 2017-08-06">
  <metadata
     id="metadata38">
    <rdf:RDF>
      <cc:Work
         rdf:about="">
        <dc:format>image/svg+xml</dc:format>
        <dc:type
           rdf:resource="http://purl.org/dc/dcmitype/StillImage" />
        <dc:title></dc:title>
      </cc:Work>
    </rdf:RDF>
  </metadata>
  <defs
     id="defs36">
    <style
       id="style1183">
      .cls-1 {
        isolation: isolate;
      }

      .cls-2 {
        fill: none;
      }

      .cls-3 {
        fill: #6bc9a7;
      }

      .cls-4 {
        opacity: 0.15;
        mix-blend-mode: multiply;
      }

      .cls-5 {
        fill: #fff;
      }

      .cls-6 {
        fill: #cde6fc;
      }

      .cls-7 {
        fill: #8db7e2;
      }

      .cls-8 {
        opacity: 0.2;
      }

      .cls-9 {
        fill: #231f20;
      }

      .cls-10 {
        fill: #ddd;
      }

      .cls-11 {
        fill: #239630;
      }
    </style>
    <style
       id="style1586">
      .cls-1 {
        fill: #ea964d;
      }

      .cls-2 {
        fill: #f0f1f5;
      }

      .cls-3 {
        fill: #b8b8bf;
      }

      .cls-4 {
        fill: #34495e;
      }

      .cls-5 {
        fill: #e94c3d;
      }

      .cls-6 {
        fill: #c1392b;
      }

      .cls-7 {
        fill: #3497da;
      }

      .cls-8 {
        fill: #2a80bb;
      }

      .cls-9 {
        fill: #2c3e50;
        opacity: 0.1;
      }

      .cls-10 {
        fill: #8e44ad;
      }

      .cls-11 {
        fill: none;
      }
    </style>
    <style
       id="style6156">
      .cls-1 {
        fill: #f06060;
      }

      .cls-2 {
        opacity: 0.15;
      }

      .cls-3 {
        fill: #231f20;
      }

      .cls-4 {
        fill: #fff;
      }

      .cls-5 {
        fill: #79aad3;
      }

      .cls-6 {
        fill: #b0afad;
      }

      .cls-7 {
        fill: none;
      }
    </style>
    <style
       id="style1377">
      .cls-1 {
        isolation: isolate;
      }

      .cls-2 {
        fill: #3d6084;
      }

      .cls-3 {
        opacity: 0.2;
        mix-blend-mode: multiply;
      }

      .cls-4 {
        fill: #fff;
      }

      .cls-5 {
        fill: none;
      }
    </style>
    <style
       id="style169">
      .cls-1 {
        fill: #bbd39f;
      }

      .cls-2 {
        fill: #31387a;
      }

      .cls-3 {
        fill: none;
      }
    </style>
    <style
       id="style397">
      .cls-1 {
        fill: #fff;
      }

      .cls-2 {
        fill: #34495e;
      }

      .cls-3 {
        opacity: 0.25;
      }

      .cls-4 {
        fill: #e58833;
      }

      .cls-5 {
        fill: #97baf6;
      }

      .cls-6 {
        fill: none;
      }
    </style>
    <style
       id="style211">
      .cls-1 {
        fill: #fff;
      }

      .cls-2 {
        fill: #34495e;
      }

      .cls-3 {
        opacity: 0.25;
      }

      .cls-4 {
        fill: #e64c3b;
      }

      .cls-5 {
        fill: #f1c40f;
      }

      .cls-6 {
        fill: #2ecc71;
      }

      .cls-7 {
        fill: #96b9f6;
      }

      .cls-8 {
        fill: none;
      }
    </style>
  </defs>
  <sodipodi:namedview
     pagecolor="#ffffff"
     bordercolor="#666666"
     borderopacity="1"
     objecttolerance="10"
     gridtolerance="10"
     guidetolerance="10"
     inkscape:pageopacity="0"
     inkscape:pageshadow="2"
     inkscape:window-width="1440"
     inkscape:window-height="856"
     id="namedview34"
     showgrid="false"
     inkscape:zoom="24.587411"
     inkscape:cx="9.5882922"
     inkscape:cy="12.250799"
     inkscape:window-x="75"
     inkscape:window-y="47"
     inkscape:window-maximized="0"
     inkscape:current-layer="svg32" />
  <g
     stroke-miterlimit="10"
     id="g22"
     style="display:none;stroke-miterlimit:10">
    <g
       id="g14"
       style="stroke-width:3;stroke-linecap:round;stroke-linejoin:round">
      <g
         id="g10"
         style="stroke:#999999"
         transform="translate(29.166667)">
        <g
           id="g6"
           style="fill:#ffffff">
          <path
             d="m 41.566667,28.1 h 18.4 l -23.3,-24.1 v 18.9 c 0,2.8 2.2,5.2 4.9,5.2 z"
             id="path2"
             inkscape:connector-curvature="0" />
          <path
             d="m 41.566667,28.1 c -2.7,0 -4.8,-2.3 -4.8,-5.2 V 4 H -8.5666667 c -2.7000003,0 -4.8000003,2.3 -4.8000003,5.2 v 83.2 c 0,2.9 2.1,5.2 4.8000003,5.2 H 55.066667 c 2.7,0 4.8,-2.3 4.8,-5.2 V 28.1 Z"
             id="path4"
             inkscape:connector-curvature="0"
             sodipodi:nodetypes="sscsssssscs" />
        </g>
      </g>
    </g>
  </g>
  <style
     id="style131"
     type="text/css">
	.st0{fill:#1D1D1D;}
	.st1{fill:#FFFFFF;}
</style>
  <style
     id="style900"
     type="text/css">
	.st0{fill:none;}
	.st1{fill:#88C87A;}
	.st2{opacity:0.15;}
	.st3{fill:#231F20;}
	.st4{fill:#FFFFFF;}
	.st5{fill:#F05F5F;}
</style>
  <style
     id="style214"
     type="text/css">
	.st0{fill:#DDDDDD;}
	.st1{fill:#C6C6C6;}
	.st2{fill:#8DB7E2;}
	.st3{fill:#2376C1;}
	.st4{fill:none;}
</style>
  <style
     id="style796"
     type="text/css">
	.st0{fill:#41CC8D;}
	.st1{fill:#FF2E63;}
	.st2{fill:none;}
</style>
  <style
     id="style555"
     type="text/css">
	.st0{fill:#F67E4F;}
	.st1{fill:#FEE64C;}
	.st2{fill:#40F99B;}
	.st3{fill:#4C5B5C;}
	.st4{opacity:0.5;}
	.st5{fill:#FFFFFF;}
	.st6{fill:none;}
</style>
  <g
     id="Layer_2-7"
     transform="matrix(0.41921843,0,0,0.41921843,-36.383333,2.4707836)">
    <g
       id="personality_quiz">
      <g
         id="g607">
        <path
           id="path559"
           d="m 276.8,116.4 c -13.7,5.3 -31.2,11.3 -45.3,6.3 0.2,0.9 19,-2.2 20.3,-6.8 -39.4,-8.7 -27.6,-55.9 12.3,-55.4 41.4,0.4 50.9,41.1 12.7,55.9 z"
           class="st0"
           inkscape:connector-curvature="0"
           style="fill:#f67e4f" />
        <path
           id="path561"
           d="m 217,75.4 c -12.5,4.8 -17.5,11.2 -26.2,9.9 0.2,0.8 6.7,-3.8 7.9,-8.1 C 151.4,64 169.2,24 205.4,24.4 c 37.7,0.5 46.3,37.6 11.6,51 z"
           class="st1"
           inkscape:connector-curvature="0"
           style="fill:#fee64c" />
        <path
           id="path563"
           d="m 139.6,43 c 30.9,-0.3 40,36.2 9.5,42.9 1,3.6 15.6,6 15.7,5.3 -11,3.9 -24.5,-0.7 -35.1,-4.8 C 100.2,74.9 107.5,43.3 139.6,43 Z"
           class="st2"
           inkscape:connector-curvature="0"
           style="fill:#40f99b" />
        <circle
           id="circle565"
           r="33.599998"
           cy="126"
           cx="188"
           class="st3"
           style="fill:#4c5b5c" />
        <path
           id="path567"
           d="m 238.5,167.7 -8,-8 c 0,0 -4.9,-5.5 -7.8,-5.6 -3.3,-0.1 -16.8,14.5 -34.4,14.4 0,0 0.7,0 -0.4,0 v 0 c 0,0 0.1,0 0,0 -0.1,0 0,0 0,0 v 0 c -17.7,0.1 -30.9,-14.5 -34.2,-14.4 -2.9,0.1 -7.8,5.6 -7.8,5.6 l -8.1,8 c 0,0 19.9,21.1 50.2,21.4 v 0 c 0,0 -0.1,0 0,0 0.1,0 0,0 0,0 v 0 c 30.3,-0.3 50.5,-21.4 50.5,-21.4 z"
           class="st3"
           inkscape:connector-curvature="0"
           style="fill:#4c5b5c" />
        <g
           id="g593"
           class="st4"
           style="opacity:0.5">
          <g
             id="g571"
             class="st4"
             style="opacity:0.5">
            <path
               id="path569"
               d="m 148.5,62.1 c 0,1.1 -0.3,2.2 -0.9,3.1 -0.3,0.4 -0.6,0.7 -1,1 -0.3,0.3 -0.6,0.5 -1,0.8 l -1.1,0.6 c -0.5,0.3 -0.9,0.7 -1.2,1.1 -0.3,0.3 -0.4,0.7 -0.5,1.2 0,0.2 -0.1,0.4 -0.2,0.6 -0.1,0.2 -0.3,0.3 -0.5,0.3 H 138 c -0.2,0 -0.4,-0.1 -0.4,-0.3 -0.1,-0.2 -0.2,-0.4 -0.2,-0.7 V 69 c 0,-1 0.4,-2 1.1,-2.7 0.7,-0.8 1.5,-1.4 2.5,-1.9 0.6,-0.2 1,-0.6 1.5,-1 0.3,-0.4 0.4,-0.8 0.4,-1.3 0,-0.5 -0.3,-1 -0.8,-1.3 -0.5,-0.4 -1.2,-0.6 -1.9,-0.5 -0.7,0 -1.3,0.1 -1.9,0.5 -0.7,0.6 -1.3,1.3 -1.9,2 -0.1,0.2 -0.3,0.3 -0.5,0.3 -0.2,0 -0.3,-0.1 -0.4,-0.1 l -2.8,-2.2 c -0.1,-0.1 -0.2,-0.3 -0.3,-0.4 0,-0.2 0,-0.3 0.1,-0.5 1.6,-2.9 4.7,-4.7 8,-4.6 1,0 1.9,0.2 2.8,0.5 1,0.3 1.8,0.8 2.6,1.4 0.8,0.6 1.4,1.4 1.8,2.2 0.6,0.8 0.8,1.7 0.8,2.7 z M 143,72.5 v 4.2 c 0,0.4 -0.3,0.7 -0.7,0.7 h -4.2 c -0.4,0 -0.7,-0.3 -0.7,-0.7 v -4.2 c 0,-0.4 0.3,-0.7 0.7,-0.7 h 4.2 c 0.4,0 0.7,0.3 0.7,0.7 z"
               class="st3"
               inkscape:connector-curvature="0"
               style="fill:#4c5b5c" />
          </g>
          <g
             id="g575"
             class="st4"
             style="opacity:0.5">
            <path
               id="path573"
               d="m 277.6,84.4 c 0,1.6 -0.4,3.2 -1.3,4.6 -0.4,0.6 -0.9,1.1 -1.4,1.5 -0.5,0.4 -1,0.8 -1.5,1.1 -0.4,0.2 -0.9,0.5 -1.6,0.9 -0.7,0.4 -1.3,1 -1.8,1.7 -0.4,0.5 -0.6,1.1 -0.7,1.8 0,0.3 -0.1,0.6 -0.3,0.8 -0.2,0.2 -0.4,0.4 -0.7,0.4 h -6.2 c -0.3,0 -0.5,-0.2 -0.7,-0.5 -0.2,-0.3 -0.3,-0.6 -0.3,-1 v -1.2 c 0,-1.5 0.6,-2.9 1.7,-4 1,-1.2 2.3,-2.1 3.7,-2.8 0.8,-0.3 1.6,-0.8 2.2,-1.4 0.5,-0.6 0.7,-1.3 0.6,-2 0,-0.8 -0.5,-1.5 -1.2,-1.9 -0.8,-0.6 -1.8,-0.8 -2.8,-0.8 -1,0 -2,0.2 -2.8,0.8 -1,0.9 -2,1.9 -2.8,3 -0.2,0.3 -0.5,0.4 -0.8,0.4 -0.2,0 -0.5,-0.1 -0.6,-0.2 l -4.2,-3.2 c -0.2,-0.2 -0.4,-0.4 -0.4,-0.7 0,-0.2 0,-0.5 0.1,-0.7 2.4,-4.4 7,-7 12,-6.9 1.4,0 2.8,0.3 4.2,0.8 1.4,0.5 2.6,1.2 3.8,2.1 1.1,0.9 2.1,2 2.7,3.3 0.7,1.2 1.1,2.6 1.1,4.1 z m -8.2,15.5 v 6.2 c 0,0.5 -0.5,1 -1,1 h -6.2 c -0.5,0 -1,-0.5 -1,-1 v -6.2 c 0,-0.5 0.5,-1 1,-1 h 6.2 c 0.5,0 1,0.4 1,1 z"
               class="st3"
               inkscape:connector-curvature="0"
               style="fill:#4c5b5c" />
          </g>
          <g
             id="g579"
             class="st4"
             style="opacity:0.5">
            <path
               id="path577"
               d="m 206.8,41.9 h 17.9 c 1.2,0 2.2,1 2.2,2.2 v 0 c 0,1.2 -1,2.2 -2.2,2.2 h -17.9 c -1.2,0 -2.2,-1 -2.2,-2.2 v 0 c 0,-1.2 1,-2.2 2.2,-2.2 z"
               class="st3"
               inkscape:connector-curvature="0"
               style="fill:#4c5b5c" />
          </g>
          <g
             id="g583"
             class="st4"
             style="opacity:0.5">
            <path
               id="path581"
               d="m 206.8,53.9 h 17.9 c 1.2,0 2.2,1 2.2,2.2 v 0 c 0,1.2 -1,2.2 -2.2,2.2 h -17.9 c -1.2,0 -2.2,-1 -2.2,-2.2 v 0 c 0,-1.3 1,-2.2 2.2,-2.2 z"
               class="st3"
               inkscape:connector-curvature="0"
               style="fill:#4c5b5c" />
          </g>
          <g
             id="g587"
             class="st4"
             style="opacity:0.5">
            <circle
               id="circle585"
               r="4.0999999"
               cy="56.299999"
               cx="193.8"
               class="st3"
               style="fill:#4c5b5c" />
          </g>
          <g
             id="g591"
             class="st4"
             style="opacity:0.5">
            <path
               id="path589"
               d="m 193.8,48.6 c -2.3,0 -4.2,-1.9 -4.2,-4.2 0,-2.3 1.9,-4.2 4.2,-4.2 2.3,0 4.2,1.9 4.2,4.2 0,2.3 -1.9,4.2 -4.2,4.2 z m 0,-6.4 c -1.2,0 -2.2,1 -2.2,2.2 0,1.2 1,2.2 2.2,2.2 1.2,0 2.2,-1 2.2,-2.2 -0.1,-1.2 -1,-2.2 -2.2,-2.2 0,0 0,0 0,0 z"
               class="st3"
               inkscape:connector-curvature="0"
               style="fill:#4c5b5c" />
          </g>
        </g>
        <path
           id="path595"
           d="m 147,60.6 c 0,1.1 -0.3,2.2 -0.9,3.1 -0.3,0.4 -0.6,0.7 -1,1 -0.3,0.3 -0.6,0.5 -1,0.8 l -1.1,0.6 c -0.5,0.3 -0.9,0.7 -1.2,1.1 -0.3,0.3 -0.4,0.7 -0.5,1.2 0,0.2 -0.1,0.4 -0.2,0.6 -0.1,0.2 -0.3,0.3 -0.5,0.3 h -4.2 c -0.2,0 -0.4,-0.1 -0.4,-0.3 -0.1,-0.2 -0.2,-0.4 -0.2,-0.7 v -0.8 c 0,-1 0.4,-2 1.1,-2.7 0.7,-0.8 1.5,-1.4 2.5,-1.9 0.6,-0.2 1,-0.6 1.5,-1 0.3,-0.4 0.4,-0.8 0.4,-1.3 0,-0.5 -0.3,-1 -0.8,-1.3 -0.5,-0.4 -1.2,-0.6 -1.9,-0.5 -0.7,0 -1.3,0.1 -1.9,0.5 -0.7,0.6 -1.3,1.3 -1.9,2 -0.1,0.2 -0.3,0.3 -0.5,0.3 -0.2,0 -0.3,-0.1 -0.4,-0.1 l -2.8,-2.2 c -0.1,-0.1 -0.2,-0.3 -0.3,-0.4 0,-0.2 0,-0.3 0.1,-0.5 1.6,-2.9 4.7,-4.7 8,-4.6 1,0 1.9,0.2 2.8,0.5 0.9,0.3 1.8,0.8 2.5,1.4 0.8,0.6 1.4,1.4 1.8,2.2 0.7,0.7 1,1.7 1,2.7 z M 141.5,71 v 4.2 c 0,0.4 -0.3,0.7 -0.7,0.7 h -4.2 c -0.4,0 -0.7,-0.3 -0.7,-0.7 V 71 c 0,-0.4 0.3,-0.7 0.7,-0.7 h 4.2 c 0.4,0 0.7,0.3 0.7,0.7 z"
           class="st5"
           inkscape:connector-curvature="0"
           style="fill:#ffffff" />
        <path
           id="path597"
           d="m 276,82.8 c 0,1.6 -0.4,3.2 -1.3,4.6 -0.4,0.6 -0.9,1.1 -1.4,1.6 -0.5,0.4 -1,0.8 -1.5,1.1 -0.4,0.2 -0.9,0.5 -1.6,0.9 -0.7,0.4 -1.3,1 -1.8,1.7 -0.4,0.5 -0.6,1.1 -0.7,1.7 0,0.3 -0.1,0.6 -0.3,0.8 -0.2,0.2 -0.4,0.4 -0.7,0.4 h -6.2 c -0.3,0 -0.5,-0.2 -0.7,-0.5 -0.2,-0.3 -0.3,-0.6 -0.3,-1 v -1.2 c 0,-1.5 0.6,-2.9 1.7,-4 1,-1.2 2.3,-2.1 3.7,-2.8 0.8,-0.3 1.6,-0.8 2.2,-1.4 0.5,-0.6 0.7,-1.3 0.6,-2 0,-0.8 -0.5,-1.5 -1.2,-1.9 -0.8,-0.6 -1.8,-0.8 -2.8,-0.8 -1,0 -2,0.2 -2.8,0.8 -1,0.9 -2,1.9 -2.8,3 -0.2,0.3 -0.5,0.4 -0.8,0.4 -0.2,0 -0.5,-0.1 -0.7,-0.2 l -4.2,-3.2 c -0.2,-0.2 -0.4,-0.4 -0.4,-0.7 0,-0.2 0,-0.5 0.1,-0.7 2.4,-4.4 7,-7 12,-6.9 1.4,0 2.8,0.3 4.2,0.8 1.4,0.5 2.6,1.2 3.8,2.1 1.1,0.9 2.1,2 2.8,3.3 0.8,1.3 1.1,2.7 1.1,4.1 z m -8.2,15.5 v 6.2 c 0,0.5 -0.5,1 -1,1 h -6.2 c -0.5,0 -1,-0.5 -1,-1 v -6.2 c 0,-0.5 0.5,-1 1,-1 h 6.2 c 0.6,0.1 1,0.5 1,1 z"
           class="st5"
           inkscape:connector-curvature="0"
           style="fill:#ffffff" />
        <path
           id="path599"
           d="m 205.3,40.4 h 17.9 c 1.2,0 2.2,1 2.2,2.2 v 0 c 0,1.2 -1,2.2 -2.2,2.2 h -17.9 c -1.2,0 -2.2,-1 -2.2,-2.2 v 0 c 0,-1.2 1,-2.2 2.2,-2.2 z"
           class="st5"
           inkscape:connector-curvature="0"
           style="fill:#ffffff" />
        <path
           id="path601"
           d="m 205.3,52.3 h 17.9 c 1.2,0 2.2,1 2.2,2.2 v 0 c 0,1.2 -1,2.2 -2.2,2.2 h -17.9 c -1.2,0 -2.2,-1 -2.2,-2.2 v 0 c 0,-1.2 1,-2.2 2.2,-2.2 z"
           class="st5"
           inkscape:connector-curvature="0"
           style="fill:#ffffff" />
        <circle
           id="circle603"
           r="4.0999999"
           cy="54.799999"
           cx="192.2"
           class="st5"
           style="fill:#ffffff" />
        <path
           id="path605"
           d="m 192.2,47 c -2.3,0 -4.2,-1.9 -4.2,-4.2 0,-2.3 1.9,-4.2 4.2,-4.2 2.3,0 4.2,1.9 4.2,4.2 0,2.3 -1.9,4.2 -4.2,4.2 z m 0,-6.4 c -1.2,0 -2.2,1 -2.2,2.2 0,1.2 1,2.2 2.2,2.2 1.2,0 2.2,-1 2.2,-2.2 0,-1.2 -1,-2.2 -2.2,-2.2 z"
           class="st5"
           inkscape:connector-curvature="0"
           style="fill:#ffffff" />
      </g>
      <rect
         id="rect609"
         height="225"
         width="400"
         class="st6"
         x="0"
         y="0"
         style="fill:none" />
    </g>
  </g>
</svg>
