<?xml version="1.0" encoding="UTF-8" standalone="no"?>
<svg
   xmlns:dc="http://purl.org/dc/elements/1.1/"
   xmlns:cc="http://creativecommons.org/ns#"
   xmlns:rdf="http://www.w3.org/1999/02/22-rdf-syntax-ns#"
   xmlns:svg="http://www.w3.org/2000/svg"
   xmlns="http://www.w3.org/2000/svg"
   xmlns:sodipodi="http://sodipodi.sourceforge.net/DTD/sodipodi-0.dtd"
   xmlns:inkscape="http://www.inkscape.org/namespaces/inkscape"
   height="24px"
   width="24px"
   viewBox="0 0 100 100"
   enable-background="new 0 0 100 100"
   version="1.1"
   id="svg32"
   sodipodi:docname="icon.svg"
   inkscape:version="0.92.2 5c3e80d, 2017-08-06">
  <metadata
     id="metadata38">
    <rdf:RDF>
      <cc:Work
         rdf:about="">
        <dc:format>image/svg+xml</dc:format>
        <dc:type
           rdf:resource="http://purl.org/dc/dcmitype/StillImage" />
        <dc:title></dc:title>
      </cc:Work>
    </rdf:RDF>
  </metadata>
  <defs
     id="defs36">
    <style
       id="style1183">
      .cls-1 {
        isolation: isolate;
      }

      .cls-2 {
        fill: none;
      }

      .cls-3 {
        fill: #6bc9a7;
      }

      .cls-4 {
        opacity: 0.15;
        mix-blend-mode: multiply;
      }

      .cls-5 {
        fill: #fff;
      }

      .cls-6 {
        fill: #cde6fc;
      }

      .cls-7 {
        fill: #8db7e2;
      }

      .cls-8 {
        opacity: 0.2;
      }

      .cls-9 {
        fill: #231f20;
      }

      .cls-10 {
        fill: #ddd;
      }

      .cls-11 {
        fill: #239630;
      }
    </style>
    <style
       id="style1586">
      .cls-1 {
        fill: #ea964d;
      }

      .cls-2 {
        fill: #f0f1f5;
      }

      .cls-3 {
        fill: #b8b8bf;
      }

      .cls-4 {
        fill: #34495e;
      }

      .cls-5 {
        fill: #e94c3d;
      }

      .cls-6 {
        fill: #c1392b;
      }

      .cls-7 {
        fill: #3497da;
      }

      .cls-8 {
        fill: #2a80bb;
      }

      .cls-9 {
        fill: #2c3e50;
        opacity: 0.1;
      }

      .cls-10 {
        fill: #8e44ad;
      }

      .cls-11 {
        fill: none;
      }
    </style>
    <style
       id="style6156">
      .cls-1 {
        fill: #f06060;
      }

      .cls-2 {
        opacity: 0.15;
      }

      .cls-3 {
        fill: #231f20;
      }

      .cls-4 {
        fill: #fff;
      }

      .cls-5 {
        fill: #79aad3;
      }

      .cls-6 {
        fill: #b0afad;
      }

      .cls-7 {
        fill: none;
      }
    </style>
    <style
       id="style1377">
      .cls-1 {
        isolation: isolate;
      }

      .cls-2 {
        fill: #3d6084;
      }

      .cls-3 {
        opacity: 0.2;
        mix-blend-mode: multiply;
      }

      .cls-4 {
        fill: #fff;
      }

      .cls-5 {
        fill: none;
      }
    </style>
    <style
       id="style169">
      .cls-1 {
        fill: #bbd39f;
      }

      .cls-2 {
        fill: #31387a;
      }

      .cls-3 {
        fill: none;
      }
    </style>
    <style
       id="style397">
      .cls-1 {
        fill: #fff;
      }

      .cls-2 {
        fill: #34495e;
      }

      .cls-3 {
        opacity: 0.25;
      }

      .cls-4 {
        fill: #e58833;
      }

      .cls-5 {
        fill: #97baf6;
      }

      .cls-6 {
        fill: none;
      }
    </style>
  </defs>
  <sodipodi:namedview
     pagecolor="#ffffff"
     bordercolor="#666666"
     borderopacity="1"
     objecttolerance="10"
     gridtolerance="10"
     guidetolerance="10"
     inkscape:pageopacity="0"
     inkscape:pageshadow="2"
     inkscape:window-width="1440"
     inkscape:window-height="856"
     id="namedview34"
     showgrid="false"
     inkscape:zoom="23.688756"
     inkscape:cx="11.758773"
     inkscape:cy="11.972685"
     inkscape:window-x="75"
     inkscape:window-y="47"
     inkscape:window-maximized="0"
     inkscape:current-layer="svg32" />
  <g
     stroke-miterlimit="10"
     id="g22"
     style="display:none;stroke-miterlimit:10">
    <g
       id="g14"
       style="stroke-width:3;stroke-linecap:round;stroke-linejoin:round">
      <g
         id="g10"
         style="stroke:#999999"
         transform="translate(29.166667)">
        <g
           id="g6"
           style="fill:#ffffff">
          <path
             d="m 41.566667,28.1 h 18.4 l -23.3,-24.1 v 18.9 c 0,2.8 2.2,5.2 4.9,5.2 z"
             id="path2"
             inkscape:connector-curvature="0" />
          <path
             d="m 41.566667,28.1 c -2.7,0 -4.8,-2.3 -4.8,-5.2 V 4 H -8.5666667 c -2.7000003,0 -4.8000003,2.3 -4.8000003,5.2 v 83.2 c 0,2.9 2.1,5.2 4.8000003,5.2 H 55.066667 c 2.7,0 4.8,-2.3 4.8,-5.2 V 28.1 Z"
             id="path4"
             inkscape:connector-curvature="0"
             sodipodi:nodetypes="sscsssssscs" />
        </g>
      </g>
    </g>
  </g>
  <style
     id="style131"
     type="text/css">
	.st0{fill:#1D1D1D;}
	.st1{fill:#FFFFFF;}
</style>
  <style
     id="style900"
     type="text/css">
	.st0{fill:none;}
	.st1{fill:#88C87A;}
	.st2{opacity:0.15;}
	.st3{fill:#231F20;}
	.st4{fill:#FFFFFF;}
	.st5{fill:#F05F5F;}
</style>
  <style
     id="style214"
     type="text/css">
	.st0{fill:#DDDDDD;}
	.st1{fill:#C6C6C6;}
	.st2{fill:#8DB7E2;}
	.st3{fill:#2376C1;}
	.st4{fill:none;}
</style>
  <style
     id="style796"
     type="text/css">
	.st0{fill:#41CC8D;}
	.st1{fill:#FF2E63;}
	.st2{fill:none;}
</style>
  <g
     data-name="Layer 2"
     id="Layer_2-7"
     transform="matrix(0.38551729,0,0,0.38551729,-28.067146,5.5553836)">
    <g
       data-name="image hotpots"
       id="image_hotpots">
      <g
         id="g443">
        <rect
           id="rect403"
           height="122.69"
           width="169.92"
           y="51.790001"
           x="118.96"
           class="cls-1"
           style="fill:#ffffff" />
        <polygon
           id="polygon405"
           points="290,175.5 118,175.5 118,152.62 157.01,113.13 176.5,132.88 191.96,117.3 239.43,69.6 280,110.63 290,121.03 "
           class="cls-2"
           style="fill:#34495e" />
        <circle
           id="circle407"
           r="18.08"
           cy="78.5"
           cx="146.28999"
           class="cls-2"
           style="fill:#34495e" />
        <g
           id="g415">
          <g
             id="g411"
             class="cls-3"
             style="opacity:0.25">
            <path
               id="path409"
               d="M 262.27,79 A 20.27,20.27 0 1 0 242,99.26 20.27,20.27 0 0 0 262.27,79 Z"
               inkscape:connector-curvature="0" />
          </g>
          <path
             id="path413"
             d="M 258.22,74.94 A 20.27,20.27 0 1 0 237.95,95.21 20.27,20.27 0 0 0 258.22,74.94 Z"
             class="cls-4"
             inkscape:connector-curvature="0"
             style="fill:#e58833" />
        </g>
        <path
           id="path417"
           d="m 249.52,76.51 a 1.58,1.58 0 0 1 -1.58,1.58 h -6.84 v 6.84 a 1.58,1.58 0 0 1 -1.58,1.58 h -3.15 a 1.58,1.58 0 0 1 -1.58,-1.58 V 78.09 H 228 a 1.58,1.58 0 0 1 -1.58,-1.58 V 73.36 A 1.58,1.58 0 0 1 228,71.78 h 6.84 v -6.84 a 1.58,1.58 0 0 1 1.58,-1.58 h 3.15 a 1.58,1.58 0 0 1 1.58,1.58 v 6.84 h 6.84 a 1.58,1.58 0 0 1 1.58,1.58 z"
           class="cls-1"
           inkscape:connector-curvature="0"
           style="fill:#ffffff" />
        <g
           id="g429">
          <g
             id="g425">
            <g
               id="g421"
               class="cls-3"
               style="opacity:0.25">
              <path
                 id="path419"
                 d="M 242.13,145 A 20.27,20.27 0 1 0 221.86,165.27 20.27,20.27 0 0 0 242.13,145 Z"
                 inkscape:connector-curvature="0" />
            </g>
            <path
               id="path423"
               d="m 238.08,140.91 a 20.27,20.27 0 1 0 -20.27,20.27 20.27,20.27 0 0 0 20.27,-20.27 z"
               class="cls-4"
               inkscape:connector-curvature="0"
               style="fill:#e58833" />
          </g>
          <path
             id="path427"
             d="m 229.38,142.49 a 1.58,1.58 0 0 1 -1.58,1.58 H 221 v 6.84 a 1.58,1.58 0 0 1 -1.58,1.58 h -3.15 a 1.58,1.58 0 0 1 -1.58,-1.58 v -6.84 h -6.84 a 1.58,1.58 0 0 1 -1.58,-1.58 v -3.16 a 1.58,1.58 0 0 1 1.58,-1.58 h 6.84 v -6.84 a 1.58,1.58 0 0 1 1.58,-1.58 h 3.15 a 1.58,1.58 0 0 1 1.58,1.58 v 6.84 h 6.84 a 1.58,1.58 0 0 1 1.58,1.58 z"
             class="cls-1"
             inkscape:connector-curvature="0"
             style="fill:#ffffff" />
        </g>
        <g
           id="g437">
          <g
             id="g433"
             class="cls-3"
             style="opacity:0.25">
            <path
               id="path431"
               d="m 182.4,100.51 a 20.27,20.27 0 1 0 -20.27,20.27 20.27,20.27 0 0 0 20.27,-20.27 z"
               inkscape:connector-curvature="0" />
          </g>
          <path
             id="path435"
             d="m 178.35,96.46 a 20.27,20.27 0 1 0 -20.27,20.27 20.27,20.27 0 0 0 20.27,-20.27 z"
             class="cls-4"
             inkscape:connector-curvature="0"
             style="fill:#e58833" />
        </g>
        <path
           id="path439"
           d="m 169.66,98 a 1.58,1.58 0 0 1 -1.58,1.58 h -6.84 v 6.84 a 1.58,1.58 0 0 1 -1.58,1.58 h -3.16 a 1.58,1.58 0 0 1 -1.58,-1.58 v -6.8 h -6.84 A 1.58,1.58 0 0 1 146.51,98 v -3.11 a 1.58,1.58 0 0 1 1.58,-1.58 h 6.84 v -6.84 a 1.58,1.58 0 0 1 1.58,-1.58 h 3.15 a 1.58,1.58 0 0 1 1.58,1.58 v 6.84 h 6.84 a 1.58,1.58 0 0 1 1.58,1.58 z"
           class="cls-1"
           inkscape:connector-curvature="0"
           style="fill:#ffffff" />
        <path
           id="path441"
           d="M 289.21,52.08 V 175.25 H 118.62 V 52.08 H 289.21 M 302.12,39.17 H 105.71 v 149 h 196.41 z"
           class="cls-5"
           inkscape:connector-curvature="0"
           style="fill:#97baf6" />
      </g>
      <rect
         id="rect445"
         height="225"
         width="400"
         class="cls-6"
         x="0"
         y="0"
         style="fill:none" />
    </g>
  </g>
</svg>
