<?xml version="1.0" encoding="UTF-8" standalone="no"?>
<svg
   xmlns:dc="http://purl.org/dc/elements/1.1/"
   xmlns:cc="http://creativecommons.org/ns#"
   xmlns:rdf="http://www.w3.org/1999/02/22-rdf-syntax-ns#"
   xmlns:svg="http://www.w3.org/2000/svg"
   xmlns="http://www.w3.org/2000/svg"
   xmlns:sodipodi="http://sodipodi.sourceforge.net/DTD/sodipodi-0.dtd"
   xmlns:inkscape="http://www.inkscape.org/namespaces/inkscape"
   height="24px"
   width="24px"
   viewBox="0 0 100 100"
   enable-background="new 0 0 100 100"
   version="1.1"
   id="svg32"
   sodipodi:docname="icon.svg"
   inkscape:version="0.92.2 5c3e80d, 2017-08-06">
  <metadata
     id="metadata38">
    <rdf:RDF>
      <cc:Work
         rdf:about="">
        <dc:format>image/svg+xml</dc:format>
        <dc:type
           rdf:resource="http://purl.org/dc/dcmitype/StillImage" />
        <dc:title></dc:title>
      </cc:Work>
    </rdf:RDF>
  </metadata>
  <defs
     id="defs36">
    <style
       id="style1183">
      .cls-1 {
        isolation: isolate;
      }

      .cls-2 {
        fill: none;
      }

      .cls-3 {
        fill: #6bc9a7;
      }

      .cls-4 {
        opacity: 0.15;
        mix-blend-mode: multiply;
      }

      .cls-5 {
        fill: #fff;
      }

      .cls-6 {
        fill: #cde6fc;
      }

      .cls-7 {
        fill: #8db7e2;
      }

      .cls-8 {
        opacity: 0.2;
      }

      .cls-9 {
        fill: #231f20;
      }

      .cls-10 {
        fill: #ddd;
      }

      .cls-11 {
        fill: #239630;
      }
    </style>
    <style
       id="style1586">
      .cls-1 {
        fill: #ea964d;
      }

      .cls-2 {
        fill: #f0f1f5;
      }

      .cls-3 {
        fill: #b8b8bf;
      }

      .cls-4 {
        fill: #34495e;
      }

      .cls-5 {
        fill: #e94c3d;
      }

      .cls-6 {
        fill: #c1392b;
      }

      .cls-7 {
        fill: #3497da;
      }

      .cls-8 {
        fill: #2a80bb;
      }

      .cls-9 {
        fill: #2c3e50;
        opacity: 0.1;
      }

      .cls-10 {
        fill: #8e44ad;
      }

      .cls-11 {
        fill: none;
      }
    </style>
    <style
       id="style6156">
      .cls-1 {
        fill: #f06060;
      }

      .cls-2 {
        opacity: 0.15;
      }

      .cls-3 {
        fill: #231f20;
      }

      .cls-4 {
        fill: #fff;
      }

      .cls-5 {
        fill: #79aad3;
      }

      .cls-6 {
        fill: #b0afad;
      }

      .cls-7 {
        fill: none;
      }
    </style>
    <style
       id="style1377">
      .cls-1 {
        isolation: isolate;
      }

      .cls-2 {
        fill: #3d6084;
      }

      .cls-3 {
        opacity: 0.2;
        mix-blend-mode: multiply;
      }

      .cls-4 {
        fill: #fff;
      }

      .cls-5 {
        fill: none;
      }
    </style>
    <style
       id="style1709">
      .cls-1 {
        fill: #3396da;
      }

      .cls-2 {
        opacity: 0.5;
      }

      .cls-3 {
        fill: url(#linear-gradient);
      }

      .cls-4 {
        fill: none;
      }

      .cls-5 {
        opacity: 0.1;
      }

      .cls-6 {
        fill: #fff;
      }
    </style>
    <linearGradient
       gradientUnits="userSpaceOnUse"
       y2="107.12"
       x2="219.09"
       y1="174.69"
       x1="151.52"
       id="linear-gradient">
      <stop
         id="stop1711"
         stop-color="#3081b9"
         offset="0" />
      <stop
         id="stop1713"
         stop-color="#3396da"
         offset="1" />
    </linearGradient>
    <style
       id="style1949">
      .cls-1 {
        fill: none;
      }

      .cls-2, .cls-7 {
        fill: #ba5454;
      }

      .cls-3 {
        fill: #54a36e;
      }

      .cls-4 {
        fill: #ef5f5f;
      }

      .cls-5 {
        fill: #61c385;
      }

      .cls-6, .cls-7 {
        opacity: 0.8;
      }

      .cls-8 {
        fill: #3aaa72;
      }

      .cls-9 {
        fill: #fff;
      }
    </style>
  </defs>
  <sodipodi:namedview
     pagecolor="#ffffff"
     bordercolor="#666666"
     borderopacity="1"
     objecttolerance="10"
     gridtolerance="10"
     guidetolerance="10"
     inkscape:pageopacity="0"
     inkscape:pageshadow="2"
     inkscape:window-width="1689"
     inkscape:window-height="1016"
     id="namedview34"
     showgrid="false"
     inkscape:zoom="26.389747"
     inkscape:cx="11.787691"
     inkscape:cy="11.482482"
     inkscape:window-x="75"
     inkscape:window-y="47"
     inkscape:window-maximized="0"
     inkscape:current-layer="svg32" />
  <g
     stroke-miterlimit="10"
     id="g22"
     style="display:none;stroke-miterlimit:10">
    <g
       id="g14"
       style="stroke-width:3;stroke-linecap:round;stroke-linejoin:round">
      <g
         id="g10"
         style="stroke:#999999"
         transform="translate(29.166667)">
        <g
           id="g6"
           style="fill:#ffffff">
          <path
             d="m 41.566667,28.1 h 18.4 l -23.3,-24.1 v 18.9 c 0,2.8 2.2,5.2 4.9,5.2 z"
             id="path2"
             inkscape:connector-curvature="0" />
          <path
             d="m 41.566667,28.1 c -2.7,0 -4.8,-2.3 -4.8,-5.2 V 4 H -8.5666667 c -2.7000003,0 -4.8000003,2.3 -4.8000003,5.2 v 83.2 c 0,2.9 2.1,5.2 4.8000003,5.2 H 55.066667 c 2.7,0 4.8,-2.3 4.8,-5.2 V 28.1 Z"
             id="path4"
             inkscape:connector-curvature="0"
             sodipodi:nodetypes="sscsssssscs" />
        </g>
      </g>
    </g>
  </g>
  <style
     id="style131"
     type="text/css">
	.st0{fill:#1D1D1D;}
	.st1{fill:#FFFFFF;}
</style>
  <style
     id="style900"
     type="text/css">
	.st0{fill:none;}
	.st1{fill:#88C87A;}
	.st2{opacity:0.15;}
	.st3{fill:#231F20;}
	.st4{fill:#FFFFFF;}
	.st5{fill:#F05F5F;}
</style>
  <style
     id="style214"
     type="text/css">
	.st0{fill:#DDDDDD;}
	.st1{fill:#C6C6C6;}
	.st2{fill:#8DB7E2;}
	.st3{fill:#2376C1;}
	.st4{fill:none;}
</style>
  <style
     id="style796"
     type="text/css">
	.st0{fill:#41CC8D;}
	.st1{fill:#FF2E63;}
	.st2{fill:none;}
</style>
  <g
     data-name="Layer 2"
     id="Layer_2-0"
     transform="matrix(0.47406354,0,0,0.47406354,-43.878834,-3.0022096)">
    <g
       data-name="Layer 42"
       id="Layer_42-2">
      <text
         id="text1955" />
    </g>
    <g
       data-name="audio recorder"
       id="audio_recorder">
      <rect
         id="rect1958"
         height="225"
         width="400"
         class="cls-1"
         x="0"
         y="0"
         style="fill:none" />
      <path
         id="path1960"
         d="m 140.52,163 h -22.31 v 6.18 a 25.07,25.07 0 0 0 25,25 h 49.19 l 8.5,-8.7 -61.9,-3 q 0.77,-9.88 1.52,-19.48 z"
         class="cls-2"
         inkscape:connector-curvature="0"
         style="fill:#ba5454" />
      <path
         id="path1962"
         d="m 233.91,163 -25.68,23.43 -7.67,7.85 57.52,0.16 a 23.62,23.62 0 0 0 23.55,-23.55 c 0,2.9 0.14,-1.19 0,-7.9 z"
         class="cls-3"
         inkscape:connector-curvature="0"
         style="fill:#54a36e" />
      <path
         id="path1964"
         d="m 143.21,185.65 h 57.57 l 80.91,-82.79 v -47 a 25.07,25.07 0 0 0 -25,-25 H 143.21 a 25.07,25.07 0 0 0 -25,25 v 104.79 a 25.07,25.07 0 0 0 25,25 z"
         class="cls-4"
         inkscape:connector-curvature="0"
         style="fill:#ef5f5f" />
      <path
         id="path1966"
         d="m 208.6,186.1 h 49.49 a 23.62,23.62 0 0 0 23.55,-23.55 v -51.18 z"
         class="cls-5"
         inkscape:connector-curvature="0"
         style="fill:#61c385" />
      <g
         id="g1970"
         class="cls-6"
         style="opacity:0.8">
        <path
           id="path1968"
           d="m 226.5,96 a 3.55,3.55 0 0 0 -3.5,3.62 v 3.87 a 25.5,25.5 0 0 1 -51,0 v -3.9 a 4,4 0 0 0 -8,0 v 3.87 c 0,16.73 13,30.51 30,32.32 v 6.72 h -14.46 a 3.5,3.5 0 1 0 0,7 h 36.16 a 3.5,3.5 0 1 0 0,-7 H 201 v -6.72 a 32.83,32.83 0 0 0 29,-32.32 V 99.59 A 3.55,3.55 0 0 0 226.5,96 Z"
           class="cls-2"
           inkscape:connector-curvature="0"
           style="fill:#ba5454" />
      </g>
      <rect
         id="rect1972"
         ry="16.15"
         rx="16.15"
         height="58.790001"
         width="37.189999"
         y="60.439999"
         x="179.22"
         class="cls-7"
         style="opacity:0.8;fill:#ba5454" />
      <path
         id="path1974"
         d="m 271.25,171.48 a 1.65,1.65 0 0 1 1.66,1.66 v 0.39 a 1.65,1.65 0 0 1 -1.66,1.66 h -21.69 a 1.65,1.65 0 0 1 -1.66,-1.66 v -0.39 a 1.65,1.65 0 0 1 1.66,-1.66 z m -1.92,-13.29 a 1,1 0 0 1 -0.24,1.21 l -7.73,7.73 a 1.08,1.08 0 0 1 -1.55,0 l -7.73,-7.73 a 1,1 0 0 1 -0.24,-1.21 1,1 0 0 1 1,-0.67 h 4.42 v -7.73 a 1.12,1.12 0 0 1 1.1,-1.1 h 4.42 a 1.12,1.12 0 0 1 1.1,1.1 v 7.73 h 4.42 a 1,1 0 0 1 1.02,0.66 z"
         class="cls-8"
         inkscape:connector-curvature="0"
         style="fill:#3aaa72" />
      <path
         id="path1976"
         d="m 269,169.26 a 1.65,1.65 0 0 1 1.66,1.66 v 0.39 A 1.65,1.65 0 0 1 269,173 h -21.65 a 1.65,1.65 0 0 1 -1.66,-1.66 v -0.39 a 1.65,1.65 0 0 1 1.66,-1.66 z M 267.11,156 a 1,1 0 0 1 -0.24,1.21 l -7.73,7.73 a 1.08,1.08 0 0 1 -1.55,0 l -7.73,-7.73 a 1,1 0 0 1 -0.24,-1.21 1,1 0 0 1 1,-0.67 H 255 v -7.73 a 1.12,1.12 0 0 1 1.1,-1.1 h 4.42 a 1.12,1.12 0 0 1 1.1,1.1 v 7.73 h 4.42 a 1,1 0 0 1 1.07,0.67 z"
         class="cls-9"
         inkscape:connector-curvature="0"
         style="fill:#ffffff" />
      <path
         id="path1978"
         d="m 222.5,92 a 3.55,3.55 0 0 0 -3.5,3.62 v 3.87 a 25.5,25.5 0 0 1 -51,0 v -3.9 a 4,4 0 0 0 -8,0 v 3.87 c 0,16.73 13,30.51 30,32.32 v 6.72 h -14.46 a 3.5,3.5 0 1 0 0,7 h 36.16 a 3.5,3.5 0 1 0 0,-7 H 197 v -6.72 A 32.83,32.83 0 0 0 226,99.46 V 95.59 A 3.55,3.55 0 0 0 222.5,92 Z"
         class="cls-9"
         inkscape:connector-curvature="0"
         style="fill:#ffffff" />
      <rect
         id="rect1980"
         ry="16.15"
         rx="16.15"
         height="58.790001"
         width="37.189999"
         y="56.439999"
         x="175.22"
         class="cls-9"
         style="fill:#ffffff" />
    </g>
  </g>
</svg>
