<?xml version="1.0" encoding="utf-8"?>
<!-- Generator: Adobe Illustrator 15.0.0, SVG Export Plug-In . SVG Version: 6.00 Build 0)  -->
<!DOCTYPE svg PUBLIC "-//W3C//DTD SVG 1.1//EN" "http://www.w3.org/Graphics/SVG/1.1/DTD/svg11.dtd">
<svg version="1.1"
	 id="svg8" sodipodi:docname="icon.svg" inkscape:version="0.92.2 5c3e80d, 2017-08-06" xmlns:cc="http://creativecommons.org/ns#" xmlns:inkscape="http://www.inkscape.org/namespaces/inkscape" xmlns:sodipodi="http://sodipodi.sourceforge.net/DTD/sodipodi-0.dtd" xmlns:rdf="http://www.w3.org/1999/02/22-rdf-syntax-ns#" xmlns:svg="http://www.w3.org/2000/svg" xmlns:dc="http://purl.org/dc/elements/1.1/"
	 xmlns="http://www.w3.org/2000/svg" xmlns:xlink="http://www.w3.org/1999/xlink" x="0px" y="0px" width="24px" height="24px"
	 viewBox="0 0 24 24" enable-background="new 0 0 24 24" xml:space="preserve">
<path id="path4" inkscape:connector-curvature="0" sodipodi:nodetypes="sscsssssscs" fill="#FFFFFF" stroke="#BBBBBB" stroke-linecap="round" stroke-linejoin="round" stroke-miterlimit="10" d="
	M16.977,6.744c-0.646,0-1.15-0.552-1.15-1.248V0.96H4.944c-0.648,0-1.152,0.552-1.152,1.248v19.968c0,0.696,0.504,1.248,1.152,1.248
	h15.272c0.647,0,1.152-0.552,1.152-1.248V6.744H16.977z"/>
<text transform="matrix(1 0 0 1 6.7056 6.2285)" fill="#999999" font-family="'Helvetica-Bold'" font-size="4.6227">URL</text>
<path fill="#BBBBBB" d="M18.455,9.472v9c0,0.678-0.549,1.228-1.227,1.228h-9C7.55,19.7,7,19.15,7,18.473v-9
	c0-0.678,0.549-1.228,1.228-1.228h9C17.906,8.245,18.455,8.794,18.455,9.472z M16.205,9.881h-2.863
	c-0.543,0-0.818,0.661-0.434,1.047l0.818,0.818l-4.999,4.999c-0.12,0.12-0.12,0.313,0,0.435l0.793,0.793
	c0.12,0.12,0.314,0.12,0.434,0l4.999-4.998l0.818,0.817c0.384,0.384,1.047,0.114,1.047-0.435v-2.863
	C16.818,10.156,16.545,9.881,16.205,9.881z"/>
<g id="final" transform="matrix(4.1666667,0,0,4.1666667,-0.09481365,0.25197717)">
	<g id="url_1_">
		<g id="g6917" enable-background="new    ">
			
				<radialGradient id="path6889_1_" cx="-53.1555" cy="119.6721" r="5.6387" gradientTransform="matrix(4.1667 0 0 4.1667 222.9597 -494.3943)" gradientUnits="userSpaceOnUse">
				<stop  offset="0" style="stop-color:#8BB4F0"/>
				<stop  offset="0.0772" style="stop-color:#88B1EF"/>
				<stop  offset="0.488" style="stop-color:#7FA7EC"/>
				<stop  offset="1" style="stop-color:#7CA4EB"/>
			</radialGradient>
			<path id="path6889" inkscape:connector-curvature="0" fill="url(#path6889_1_)" d="M1.477,5.594
				c-1.37-0.055-1.757-1.63-0.881-2.383c0.355-0.305,0.737-0.32,0.881-0.326c0.075,0,0.148,0.006,0.22,0.017
				c0.071,0.012,0.141,0.029,0.208,0.052c0.068,0.022,0.132,0.05,0.194,0.082c0.062,0.033,0.122,0.07,0.178,0.11
				c0.056,0.041,0.108,0.086,0.158,0.135c0.047,0.05,0.093,0.102,0.134,0.159c0.041,0.056,0.078,0.115,0.11,0.177
				c0.032,0.062,0.06,0.127,0.082,0.195c0.022,0.067,0.04,0.136,0.051,0.208C2.824,4.091,2.83,4.165,2.83,4.24
				c0,0.075-0.006,0.148-0.018,0.22C2.801,4.531,2.784,4.601,2.761,4.668C2.739,4.735,2.711,4.8,2.679,4.862
				C2.647,4.924,2.61,4.984,2.569,5.04C2.528,5.096,2.482,5.148,2.434,5.197c-0.05,0.049-0.102,0.095-0.158,0.135
				C2.22,5.374,2.161,5.41,2.099,5.442c-0.062,0.033-0.127,0.06-0.194,0.083C1.837,5.547,1.768,5.564,1.696,5.576
				C1.624,5.589,1.551,5.594,1.477,5.594"/>
			
				<radialGradient id="path6900_1_" cx="-53.1555" cy="119.6718" r="5.2258" gradientTransform="matrix(4.1667 0 0 4.1667 222.9597 -494.3943)" gradientUnits="userSpaceOnUse">
				<stop  offset="0" style="stop-color:#8BB4F0"/>
				<stop  offset="0.0772" style="stop-color:#88B1EF"/>
				<stop  offset="0.488" style="stop-color:#7FA7EC"/>
				<stop  offset="1" style="stop-color:#7CA4EB"/>
			</radialGradient>
			<path id="path6900" inkscape:connector-curvature="0" fill="url(#path6900_1_)" d="M1.477,5.494
				c-1.269-0.051-1.628-1.51-0.816-2.207C0.989,3.005,1.344,2.99,1.477,2.985c0.069,0,0.137,0.006,0.203,0.017
				c0.066,0.01,0.131,0.026,0.193,0.047c0.062,0.02,0.123,0.046,0.18,0.076c0.058,0.03,0.112,0.064,0.164,0.102
				c0.052,0.039,0.101,0.081,0.146,0.126C2.409,3.398,2.45,3.447,2.489,3.499c0.038,0.052,0.072,0.107,0.102,0.165
				c0.03,0.057,0.055,0.118,0.076,0.18c0.021,0.062,0.037,0.127,0.047,0.193c0.011,0.066,0.017,0.134,0.017,0.204
				c0,0.069-0.006,0.137-0.017,0.203C2.704,4.51,2.687,4.575,2.667,4.637c-0.021,0.062-0.046,0.122-0.076,0.18
				C2.561,4.875,2.527,4.93,2.489,4.982c-0.038,0.052-0.08,0.101-0.126,0.146C2.318,5.173,2.269,5.215,2.217,5.253
				C2.165,5.291,2.11,5.325,2.053,5.355c-0.057,0.03-0.117,0.055-0.18,0.076C1.811,5.451,1.746,5.467,1.68,5.478
				C1.614,5.489,1.546,5.494,1.477,5.494"/>
			<path id="path6902" inkscape:connector-curvature="0" fill="#B3E710" d="M1.201,3.131L1.201,3.131
				c0.002-0.016,0.002-0.016-0.003-0.02c0,0,0,0-0.001,0s-0.002,0-0.003,0C1.193,3.113,1.191,3.114,1.19,3.116
				C1.183,3.12,1.174,3.123,1.166,3.127c0,0,0.015,0.008,0.018,0.009C1.191,3.137,1.201,3.132,1.201,3.131 M0.597,3.564
				c0,0,0.377,0,0.704,0c-0.008,0,0.069-0.016,0.069-0.017l0,0V3.543l0,0V3.541V3.54l0,0l0,0l0,0c0-0.012-0.053-0.02-0.068-0.023
				c0.004-0.022-0.03-0.046-0.02-0.068C1.281,3.447,1.27,3.444,1.268,3.444c-0.023-0.01-0.054-0.01-0.077-0.016
				C1.17,3.422,1.157,3.401,1.137,3.395C1.125,3.39,1.123,3.39,1.097,3.396C1.096,3.395,1.095,3.393,1.094,3.392
				c0.012-0.026,0.012-0.026-0.018-0.04c0.002-0.033,0.032-0.054,0.083-0.09c-0.001,0-0.003-0.002-0.004-0.003
				C1.154,3.258,1.154,3.258,1.154,3.258l0.001-0.001c0.009-0.002,0.019-0.001,0.027-0.005c0-0.002,0.001-0.002,0.001-0.004
				C1.176,3.241,1.176,3.241,1.169,3.234C1.167,3.232,1.176,3.232,1.176,3.232V3.231c0,0.003,0.017,0.014,0.032,0.007
				C1.21,3.236,1.206,3.232,1.207,3.229c0.028,0,0.029,0,0.044-0.019c0.002-0.003,0.001-0.003,0.001-0.003
				C1.237,3.206,1.226,3.195,1.213,3.19c0.012-0.003,0.019-0.004,0.031,0.011c0.004,0,0.012,0,0.033-0.017
				C1.275,3.182,1.271,3.177,1.269,3.177l0,0l0.002-0.001c0.005-0.002,0.011-0.002,0.017-0.002c0,0.002,0,0.003,0,0.004
				C1.294,3.181,1.3,3.181,1.306,3.181c-0.003-0.007-0.003-0.007-0.01-0.013L1.3,3.166c0.008,0.003,0.01,0.01,0.016,0.014
				c0.028-0.015,0.028-0.015,0.031-0.02C1.352,3.149,1.338,3.144,1.34,3.134c0.001,0,0.003-0.001,0.004-0.001
				c0.002,0.001,0.005,0.003,0.008,0.003C1.356,3.132,1.358,3.13,1.356,3.122c-0.013,0-0.023-0.012-0.037-0.008
				C1.318,3.116,1.316,3.119,1.315,3.122c0.002,0.002,0.004,0.004,0.006,0.006C1.317,3.135,1.274,3.162,1.273,3.163
				C1.262,3.156,1.268,3.143,1.27,3.142c0.011-0.006,0.015-0.009,0.007-0.019c-0.01,0.003-0.016,0.011-0.024,0.016
				c0-0.001,0.002-0.016,0.008-0.02c0-0.001,0-0.003-0.001-0.004c-0.004,0-0.008,0.001-0.012-0.001
				C1.249,3.11,1.249,3.11,1.263,3.103c0-0.009,0.007-0.015,0.006-0.025C1.267,3.077,1.264,3.075,1.262,3.075
				c-0.01,0.001-0.035,0.018-0.035,0.018c0,0.002,0.001,0.003,0.001,0.004C1.216,3.106,1.216,3.106,1.216,3.109
				c0.005,0.005,0.005,0.005,0.012,0.005C1.23,3.116,1.233,3.118,1.236,3.118c0.003,0,0.003,0,0.003,0s-0.001,0-0.001,0.002
				c0,0-0.001,0-0.001,0.001c0,0-0.001,0-0.001,0.001c0,0-0.001,0-0.001,0.001c0,0,0,0-0.001,0.001c-0.001,0-0.001,0-0.001,0.001
				c0,0-0.001,0.001-0.001,0.002L1.231,3.128c0-0.001-0.002-0.003-0.002-0.004c-0.009,0-0.009,0-0.014,0.004
				C1.212,3.13,1.19,3.13,1.189,3.13c0.003,0-0.013-0.001-0.013-0.002c0,0.001,0,0.004,0,0.004L1.15,3.164
				c-0.001,0,0.009-0.002,0.008-0.003c0.003-0.006,0.008-0.006,0.016-0.013c-0.003-0.009-0.01-0.01-0.015-0.006
				c0.003,0.001,0.007,0.003,0.009,0.005C1.167,3.15,1.165,3.152,1.163,3.154c-0.001,0-0.001,0-0.001,0l0,0l0,0l0,0l0,0l0,0l0,0l0,0
				c-0.001,0-0.003-0.002-0.004-0.003c0-0.001-0.001-0.003-0.001-0.004c-0.02,0.005-0.02,0.005-0.065-0.008l0,0l0,0l0,0l0,0l0,0l0,0
				l0,0l0,0C1.052,3.16,1.052,3.16,1.037,3.175c0.002-0.01,0.002-0.01,0.012-0.016c0-0.002-0.001-0.003-0.001-0.005
				c-0.001,0-0.003-0.002-0.004-0.005c-0.015,0-0.029,0.007-0.044,0C1.01,3.142,1.025,3.144,1.029,3.13
				C1.01,3.126,1.01,3.126,1.013,3.112C1.002,3.108,0.995,3.117,0.986,3.12C0.99,3.117,0.994,3.114,0.998,3.112
				C0.991,3.113,0.985,3.117,0.979,3.12c0.002-0.004,0.002-0.004,0.028-0.022C1.006,3.099,0.941,3.122,0.915,3.137
				c0.004-0.002,0.008-0.005,0.011-0.008C0.945,3.12,0.965,3.146,0.984,3.138C0.975,3.137,0.967,3.177,0.959,3.177H0.958
				c-0.013,0-0.013-0.004-0.017-0.006c-0.01,0.004-0.019,0.006-0.028,0.006h0.07V3.155c0-0.02-0.014-0.032-0.001-0.039
				c-0.001,0-0.02-0.005-0.022-0.005c0.004-0.003-0.002-0.007,0.002-0.01C0.947,3.109,0.921,3.119,0.905,3.127
				C0.854,3.155,0.787,3.195,0.739,3.228C0.714,3.247,0.68,3.272,0.656,3.292C0.653,3.296,0.648,3.298,0.645,3.301L0.644,3.302
				L0.61,3.333V3.332C0.623,3.321,0.636,3.31,0.648,3.298c0.001,0,0.002-0.002,0.004-0.003C0.646,3.301,0.641,3.307,0.636,3.313
				C0.637,3.312,0.638,3.311,0.639,3.31C0.636,3.314,0.633,3.317,0.63,3.32c0.001,0.001,0.002,0.002,0.003,0.003
				c0.001-0.001,0.003-0.002,0.004-0.002C0.635,3.323,0.633,3.326,0.632,3.328c0.001,0,0.003,0,0.004-0.001
				c-0.006,0.011-0.013,0.02-0.02,0.03c0.001,0,0.003,0.001,0.004,0.001c0.002-0.002-0.011-0.004-0.009-0.007
				C0.612,3.35,0.597,3.35,0.597,3.35l0,0c0,0.005,0.012,0.008,0.011,0.012c0,0.001,0.008,0.001,0.008,0.001
				c0.007-0.008,0.017,0,0.024-0.007c0,0,0.004,0.015,0.005,0.015c0.001,0,0,0,0.001,0c-0.014,0-0.014,0.001-0.024,0.02L0.617,3.386
				C0.607,3.4,0.6,3.413,0.588,3.426c0.003,0,0.008-0.004,0.008-0.004V3.421c0,0.01-0.014,0.016-0.016,0.028
				C0.584,3.446,0.588,3.442,0.591,3.44l0.001-0.001C0.584,3.454,0.569,3.464,0.565,3.481C0.567,3.48,0.571,3.511,0.573,3.51
				c-0.004,0.007-0.007,0.054-0.01,0.054l0,0c0,0,0,0,0.001,0l0,0l0,0l0,0h0.001l0,0l0,0c-0.002,0-0.005-0.026-0.007-0.021
				c0.001,0,0.003-0.016,0.004-0.015C0.56,3.533,0.554,3.529,0.55,3.533C0.548,3.535,0.548,3.53,0.548,3.53
				c0.001,0.001,0.002,0,0.004,0.001C0.548,3.537,0.543,3.54,0.541,3.547c0.001,0,0.002,0.009,0.003,0.009
				c0.002,0,0.004,0.008,0.007,0.008 M1.625,3.066c0,0-0.001-0.001-0.002-0.002v0.001C1.622,3.068,1.622,3.068,1.626,3.069
				C1.627,3.068,1.626,3.067,1.625,3.066 M1.621,3.069c0-0.002-0.021-0.01-0.026-0.01c-0.005,0-0.004,0.003-0.004,0.003
				c0.001,0.002,0.003,0.001,0.004,0.002c-0.001,0-0.002,0-0.002,0v0.002c0.002,0,0.004,0.002,0.005,0.003c-0.001,0-0.002,0-0.004,0
				c0,0,0,0,0.001,0h0.003c0.002,0,0.004,0.001,0.006,0l0,0L1.605,3.07h0.002l0,0c-0.001,0-0.002,0-0.003,0
				c0,0-0.001,0.001-0.002,0.001C1.607,3.077,1.62,3.075,1.621,3.069L1.621,3.069 M1.165,3.116L1.165,3.116
				c0.009-0.01,0.01-0.012,0.003-0.016C1.163,3.098,1.164,3.097,1.164,3.095c0.003-0.006,0.003-0.006,0.014-0.013
				C1.182,3.08,1.207,3.059,1.207,3.059l0.001-0.002C1.21,3.053,1.204,3.052,1.204,3.052c-0.001,0-0.002,0-0.003,0.001
				C1.187,3.061,1.175,3.072,1.16,3.078C1.164,3.073,1.17,3.07,1.175,3.067C1.178,3.065,1.182,3.065,1.183,3.06
				c0-0.001-0.002-0.002-0.002-0.002l0,0C1.16,3.068,1.16,3.068,1.153,3.069c0.013-0.008,0.013-0.008,0.012-0.01
				c-0.008-0.003-0.013,0.004-0.02,0.004c0.007-0.004,0.015-0.006,0.022-0.01C1.16,3.052,1.101,3.071,1.095,3.077
				c0,0,0,0,0.001,0.001C1.095,3.08,1.093,3.081,1.092,3.082c0.004,0,0.009,0,0.013-0.001C1.104,3.082,1.102,3.082,1.101,3.083
				L1.098,3.085c-0.001,0-0.003,0.001-0.004,0.001C1.085,3.089,1.073,3.082,1.066,3.093c0.002,0.002,0.002,0.002,0.013,0.002
				c0.018,0,0.019,0.002,0.016,0.008c-0.013,0.003-0.027,0-0.04,0.003l0,0h0.001l0,0l0,0l0,0l0,0c0,0,0,0-0.001,0l0,0
				c-0.003,0-0.005,0.001-0.007,0.003l0,0C1.04,3.114,1.037,3.118,1.037,3.12C1.038,3.123,1.04,3.121,1.042,3.122
				c0.002,0,0.005,0,0.007,0.001C1.048,3.131,1.038,3.127,1.037,3.135c0,0,0.025,0.002,0.039-0.004
				C1.079,3.13,1.081,3.129,1.084,3.128c0.005-0.002,0.01-0.001,0.015-0.003c0.005-0.002,0.009-0.007,0.015-0.007h0.001
				c-0.009,0.017,0.022,0.01,0.022,0.01c0.009-0.003,0.009-0.003,0.014-0.009C1.146,3.118,1.142,3.12,1.138,3.12
				C1.14,3.118,1.143,3.116,1.145,3.114c0.004,0,0.009-0.002,0.013-0.004C1.16,3.112,1.161,3.116,1.165,3.116 M1.613,3.175
				L1.613,3.175c-0.005-0.003-0.01-0.006-0.014-0.009C1.595,3.17,1.594,3.17,1.587,3.169c0-0.002,0-0.004-0.001-0.005
				c-0.007,0-0.013,0.001-0.02,0.001c0,0,0,0,0-0.001l0,0l0,0l0,0l0,0V3.162c0,0,0,0,0-0.001l0,0c0.003,0,0.005-0.001,0.008-0.002
				l0,0C1.565,3.15,1.559,3.149,1.559,3.148c-0.003,0-0.023,0.001-0.023,0.001c-0.006-0.01-0.02-0.01-0.027-0.018
				c0.003,0,0.005-0.001,0.008-0.001c0,0,0-0.001,0.001-0.002C1.515,3.127,1.512,3.125,1.51,3.123l0,0l0.002-0.001
				c0.007,0,0.013,0.004,0.021,0.003c-0.006-0.006-0.016-0.001-0.02-0.01c0.004-0.001,0.008-0.001,0.012-0.001
				C1.523,3.109,1.52,3.105,1.513,3.104C1.509,3.107,1.509,3.108,1.498,3.109c0,0-0.002-0.001-0.002-0.002V3.106
				C1.5,3.103,1.505,3.103,1.507,3.098C1.501,3.093,1.485,3.102,1.484,3.09C1.48,3.089,1.476,3.092,1.471,3.092
				C1.474,3.09,1.476,3.088,1.478,3.086l0,0C1.474,3.082,1.469,3.082,1.465,3.08C1.462,3.082,1.46,3.086,1.457,3.089
				C1.455,3.086,1.454,3.082,1.452,3.08c-0.004,0-0.008,0.004-0.012,0.004L1.438,3.082c0.003-0.003,0.006-0.005,0.01-0.006V3.075
				c-0.01-0.01-0.011-0.012-0.028-0.011c-0.008,0-0.008,0.009-0.014,0.013c-0.001,0-0.002-0.001-0.003-0.001
				c0-0.002,0.001-0.004,0.001-0.006c-0.002-0.001-0.004,0-0.007,0C1.394,3.073,1.392,3.075,1.386,3.074
				C1.385,3.073,1.385,3.072,1.385,3.072l0,0c0,0,0,0,0-0.001c0,0,0,0,0.001,0V3.07l0,0l0,0l0,0c0.003-0.003,0.007-0.007,0.01-0.01
				c-0.001-0.01-0.005-0.023-0.03-0.008C1.367,3.054,1.369,3.055,1.37,3.057c-0.019,0-0.019,0.005-0.018,0.008
				C1.353,3.067,1.357,3.067,1.357,3.07c-0.009,0-0.009,0-0.013,0.004c0,0.003,0.002,0.005,0.004,0.007
				C1.345,3.09,1.338,3.089,1.332,3.089c-0.001-0.001,0-0.001,0-0.003c0.003,0,0.005-0.001,0.008-0.004
				c-0.004-0.01-0.004-0.01,0.003-0.015c0-0.001-0.001-0.003-0.002-0.004c0.006-0.009,0.017-0.011,0.026-0.016
				C1.364,3.045,1.36,3.045,1.356,3.046c-0.027,0.006-0.04,0.018-0.044,0.022c0,0.001,0.001,0.002,0.001,0.004
				c-0.005,0.003-0.011,0.006-0.015,0.01C1.316,3.087,1.316,3.087,1.317,3.09C1.31,3.093,1.304,3.091,1.298,3.091
				c-0.01,0.012,0.012,0.01,0.012,0.01c0.001,0,0.002-0.001,0.003-0.003c0.001,0,0.002,0,0.003,0c0,0.002,0,0.004-0.001,0.005
				c0,0.001,0.001,0.002,0.002,0.002c0.001,0,0.001,0,0.002,0c0,0,0.001,0,0.002,0c0.001,0,0.001,0,0.002,0c0.001,0,0.001,0,0.002,0
				c0,0,0.001,0,0.002,0c0,0,0.001,0,0.002,0c0.001,0,0.001,0,0.002,0c0.001,0,0.001,0,0.002,0c0.003,0,0.006,0.002,0.009,0.002
				c0.01,0.001,0.02-0.003,0.028,0.005L1.371,3.11c0-0.002-0.001-0.003,0-0.005l0,0c0.003,0,0.004,0,0.009,0.001
				c0.017,0.009,0.016-0.004,0.014-0.005C1.388,3.1,1.382,3.1,1.379,3.095l0.002-0.001c0.005,0,0.009,0.004,0.014,0.002
				C1.399,3.101,1.407,3.102,1.406,3.11c0.001,0.001,0.002,0.001,0.003,0.002c0.005,0,0.005,0,0.018,0.011v0.002
				c-0.004,0-0.009,0.001-0.013,0.002c0,0.001,0,0.003,0,0.004c0,0.002,0,0.002,0,0.002c0.004,0,0.008-0.002,0.012-0.003h0.001
				h0.001c0,0,0,0,0.001,0l0,0l0,0H1.43c0,0,0,0,0.001,0h0.001c0.002-0.001,0.004-0.002,0.006-0.003
				C1.439,3.129,1.44,3.132,1.441,3.134c0.004,0.004,0.011,0.004,0.015,0.008c0.002,0.003,0.007,0.011,0.009,0.019
				C1.458,3.167,1.454,3.175,1.446,3.178C1.442,3.18,1.437,3.18,1.435,3.185C1.438,3.19,1.445,3.193,1.445,3.2l0,0
				c-0.009,0-0.018,0.003-0.028,0.003c0,0.003,0,0.006,0,0.007l0,0C1.404,3.196,1.39,3.201,1.389,3.202
				c0,0.001-0.001,0.003-0.001,0.005C1.377,3.211,1.376,3.211,1.375,3.22c0.026,0.009,0.03,0.005,0.039-0.002
				c0.005,0.002,0.01,0.005,0.015,0.004c0.001-0.002,0-0.004,0-0.007c0-0.001,0-0.001,0-0.002c0.006,0.001,0.013,0.004,0.02,0.005
				l0,0l0,0l0,0l0,0l0,0l0,0l0,0l0,0c0,0.007,0,0.007,0.029,0.022C1.476,3.243,1.474,3.244,1.471,3.247
				c0.006,0.01,0.018,0.008,0.026,0.012c0.009,0.001,0.014,0.008,0.022,0.01C1.532,3.27,1.532,3.27,1.557,3.278
				c0.003,0,0.006,0.002,0.009,0.003C1.561,3.27,1.553,3.261,1.535,3.253C1.52,3.247,1.518,3.243,1.516,3.237
				c0.007,0.001,0.012,0.004,0.019,0.007C1.534,3.241,1.533,3.239,1.532,3.236C1.538,3.24,1.543,3.246,1.549,3.25
				c0.002,0,0.003,0.001,0.004,0.002c0.004,0.001,0.008,0,0.012,0.001c0.007,0.004,0.011,0.01,0.017,0.012
				C1.58,3.262,1.578,3.257,1.575,3.254c0.002,0.001,0.004,0.001,0.007,0.001l0,0C1.579,3.247,1.572,3.242,1.57,3.234
				c0.006,0.003,0.009,0.01,0.015,0.014C1.584,3.243,1.584,3.243,1.566,3.225c0,0,0-0.001,0-0.002H1.57c0,0,0,0,0.001,0
				C1.564,3.219,1.558,3.214,1.551,3.21C1.55,3.211,1.549,3.212,1.548,3.213L1.547,3.214C1.542,3.209,1.538,3.202,1.534,3.196
				c-0.003,0-0.005-0.001-0.008-0.001C1.523,3.191,1.52,3.187,1.518,3.182c0.016,0.007,0.016,0.007,0.017,0.006
				C1.532,3.185,1.529,3.182,1.526,3.18C1.527,3.177,1.53,3.176,1.532,3.175c0.012,0.002,0.021,0.01,0.032,0.014
				c0,0.006,0.002,0.013,0.011,0.009c0.009,0.01,0.009,0.01,0.017,0.011c0.001,0,0.001,0,0.001,0C1.589,3.2,1.589,3.2,1.588,3.19
				c0,0,0,0,0.001,0c0.003,0.003,0.005,0.005,0.009,0.006C1.599,3.192,1.599,3.19,1.606,3.188C1.603,3.185,1.599,3.184,1.596,3.18
				c0.005-0.003,0.009,0.001,0.013,0.001C1.61,3.179,1.612,3.177,1.613,3.175 M1.257,3.068l0.005-0.003
				C1.27,3.057,1.263,3.057,1.263,3.057c-0.001,0-0.002,0-0.004,0c0.004-0.007,0.013-0.006,0.02-0.009
				c0.002,0,0.004-0.001,0.006-0.002c0.001-0.002-0.003-0.002-0.003-0.002H1.281C1.277,3.046,1.273,3.048,1.269,3.047
				c0-0.001,0.001-0.001,0.001-0.003c-0.001,0-0.011,0.002-0.011,0.002L1.258,3.048L1.253,3.054
				C1.252,3.055,1.252,3.055,1.251,3.056c-0.005,0.001-0.01,0.006-0.016,0.006c-0.003,0,0-0.004-0.001-0.006
				C1.213,3.065,1.221,3.07,1.221,3.07c0.006,0.002-0.002,0.008-0.002,0.013c0,0,0.008,0.005,0.012-0.005
				c0.001,0,0.001-0.001,0.002-0.002c0.001,0.001,0.001,0.002,0.001,0.002c0,0.003,0.001,0.003,0.004,0.002
				C1.246,3.078,1.251,3.071,1.257,3.068 M1.59,3.047C1.589,3.046,1.587,3.045,1.586,3.044l0,0C1.584,3.047,1.589,3.048,1.591,3.048
				L1.59,3.047 M1.331,3.045L1.331,3.045c0.001-0.001,0.001-0.003,0-0.003H1.33c-0.003,0-0.005,0-0.007,0.001
				c-0.004,0-0.007-0.004-0.012-0.003C1.303,3.042,1.303,3.042,1.299,3.047c-0.004,0-0.006,0-0.016,0.007
				c-0.006,0.004-0.01,0.01-0.014,0.015c0.002,0.002,0.006,0.003,0.016-0.004c0-0.002,0.001-0.004,0.001-0.005
				c0.006-0.001,0.011,0.002,0.017,0C1.304,3.06,1.331,3.046,1.331,3.045 M1.587,3.041c-0.001-0.001-0.003,0-0.004-0.001l0,0
				C1.585,3.041,1.587,3.042,1.587,3.041L1.587,3.041 M1.17,3.049l0.003-0.001c0.003-0.002,0.007-0.004,0.01-0.007l0,0
				c-0.003,0-0.006,0-0.009,0.001c0.001-0.004,0.005-0.004,0.008-0.006c0,0,0,0-0.001,0c-0.006,0.001-0.012,0-0.018,0.002
				c-0.009,0.003-0.018,0.007-0.028,0.01c-0.009,0.004-0.019,0.009-0.029,0.01l0,0l0,0l0,0l0,0l0,0l0,0l0,0l0,0
				c-0.008,0.004-0.015,0.007-0.023,0.01C1.079,3.069,1.076,3.07,1.073,3.072c-0.002,0-0.004,0-0.004,0.003H1.07l0,0
				C1.064,3.081,1.057,3.084,1.05,3.087c0,0,0,0,0.001,0c0.001,0.001,0.002,0,0.003,0c0.007-0.001,0.012-0.004,0.019-0.005
				C1.085,3.08,1.095,3.071,1.108,3.068C1.116,3.066,1.124,3.062,1.131,3.06C1.144,3.056,1.157,3.053,1.17,3.049 M1.549,3.02
				C1.548,3.019,1.547,3.019,1.546,3.018l0,0C1.544,3.021,1.548,3.021,1.549,3.02C1.549,3.021,1.549,3.02,1.549,3.02 M1.423,3.026
				L1.423,3.026c0-0.003-0.003-0.003-0.005-0.004C1.416,3.021,1.416,3.02,1.415,3.019c-0.001,0-0.002,0-0.002,0
				s-0.018,0-0.027,0.004C1.382,3.025,1.382,3.025,1.38,3.022c-0.001-0.003-0.004,0-0.005,0c-0.003,0-0.005,0.002-0.008,0.002
				c0-0.003,0.002-0.004,0.004-0.005C1.368,3.018,1.366,3.018,1.364,3.018c0.004-0.003,0.01-0.003,0.015-0.005
				c-0.001,0-0.001-0.001-0.002-0.002c0,0,0,0-0.001,0c-0.001,0-0.001,0-0.001,0s0,0-0.001,0c0,0,0,0-0.001,0c0,0,0,0-0.001,0l0,0
				H1.371H1.37c-0.003,0-0.006,0-0.008,0.002C1.354,3.019,1.346,3.025,1.338,3.032C1.341,3.033,1.343,3.031,1.346,3.03l0,0
				C1.345,3.033,1.344,3.038,1.352,3.034c0.001-0.001,0.003-0.001,0.004-0.002C1.358,3.031,1.36,3.031,1.363,3.03
				C1.361,3.032,1.359,3.033,1.358,3.036c0.01,0.002,0.015-0.002,0.016-0.003c0.004,0,0.008,0.003,0.012,0.001
				c0.004,0,0.006-0.004,0.009-0.005c0.001,0,0.001,0,0.002,0.001c0,0.001-0.001,0.002-0.002,0.004
				c0.003,0.003,0.003,0.003,0.017,0.001C1.413,3.032,1.413,3.032,1.423,3.026 M1.33,3.019c0.015-0.007,0.015-0.008,0.015-0.008
				s-0.001,0-0.002,0C1.34,3.012,1.338,3.012,1.337,3.013l0,0c0-0.001,0.002-0.001,0.002-0.003c0,0,0,0-0.001,0
				C1.336,3.011,1.335,3.011,1.334,3.011C1.329,3.014,1.326,3.017,1.322,3.018l0,0c0.001-0.004,0.006-0.002,0.007-0.005
				C1.323,3.01,1.319,3.015,1.315,3.017l0,0C1.312,3.018,1.31,3.018,1.307,3.018l0,0c0,0,0,0-0.001,0H1.305c0,0,0,0-0.001,0
				c0,0,0,0-0.001,0c0,0,0,0,0,0.001c0,0,0,0-0.001,0c-0.001,0,0,0,0,0C1.301,3.019,1.301,3.02,1.3,3.02
				c0.005,0.001,0.009-0.002,0.014,0c0,0.001-0.001,0.001-0.003,0.001C1.31,3.022,1.31,3.023,1.309,3.023
				c-0.002,0-0.012,0.003-0.012,0.005c0,0,0.01,0.001,0.012,0C1.316,3.024,1.323,3.022,1.33,3.019 M1.289,3.02
				c0.002,0,0.004-0.002,0.006-0.003c0-0.001,0-0.001,0-0.001c-0.005,0-0.008,0.003-0.012,0.004c0.001,0,0.002-0.001,0.002-0.002
				C1.293,3.015,1.302,3.013,1.31,3.009c0,0,0,0-0.001,0C1.303,3.01,1.297,3.011,1.291,3.013C1.276,3.021,1.27,3.022,1.261,3.022
				C1.264,3.018,1.27,3.018,1.274,3.016c-0.002,0-0.004,0.001-0.005,0.001c0.003-0.001,0.006-0.002,0.009-0.004
				c-0.005,0-0.01,0.001-0.015,0.003c-0.005,0-0.01,0.002-0.014,0.004C1.247,3.022,1.244,3.021,1.241,3.021
				c-0.004,0-0.007,0.002-0.011,0.003c-0.001,0-0.002,0-0.002,0C1.226,3.025,1.224,3.025,1.223,3.027c0.002,0,0.004,0,0.006-0.001
				c-0.001,0-0.002,0.001-0.003,0.002C1.244,3.024,1.244,3.024,1.25,3.025l0,0C1.243,3.028,1.235,3.029,1.227,3.03
				c-0.002,0-0.005,0-0.007,0.001S1.216,3.033,1.215,3.033c0,0.001,0,0.002-0.001,0.002l0,0l0,0c0.003,0.001,0.006,0,0.009-0.001
				C1.228,3.033,1.234,3.031,1.239,3.03c0.01-0.001,0.01-0.001,0.017-0.001c0.003,0,0.006,0,0.009,0h0.001
				C1.274,3.027,1.281,3.023,1.289,3.02 M1.366,3.01c0.001,0,0.002-0.001,0.003-0.002c-0.001,0-0.002,0-0.003,0
				c0-0.001,0-0.001,0-0.001H1.365l0,0l0,0l0,0l0,0l0,0l0,0l0,0l0,0c-0.001,0-0.002,0-0.002,0l0,0l0,0l0,0l0,0l0,0l0,0l0,0l0,0
				c-0.004,0-0.007,0.003-0.01,0.005l0,0C1.357,3.012,1.362,3.012,1.366,3.01 M1.308,3.004C1.31,3.003,1.312,3.003,1.314,3.002
				H1.313C1.311,3.002,1.309,3.003,1.308,3.004L1.305,3.003l0,0l0,0l0,0l0,0l0,0l0,0l0,0c-0.02,0.002-0.063,0.012-0.064,0.013
				c0.003,0,0.005-0.001,0.008-0.002c-0.003,0.001-0.007,0.002-0.01,0.004c0.006,0.002,0.01-0.003,0.015-0.004
				c0.01-0.002,0.019-0.004,0.029-0.006C1.277,3.01,1.271,3.011,1.265,3.013c0.006,0.001,0.012-0.004,0.018-0.004
				C1.291,3.009,1.299,3.005,1.308,3.004 M1.345,3L1.345,3L1.345,3L1.345,3L1.345,3L1.345,3L1.345,3L1.345,3L1.345,3L1.345,3
				L1.345,3L1.345,3C1.341,3,1.336,3,1.332,3C1.328,3.001,1.325,3.001,1.323,3.002c0,0,0,0,0,0.001C1.33,3.004,1.338,3.001,1.345,3
				 M1.399,2.996c0.002,0,0.005-0.001,0.006-0.003l0,0l0,0l0,0l0,0l0,0l0,0l0,0l0,0l0,0l0,0c-0.001,0-0.003,0-0.004,0
				C1.395,2.995,1.39,2.994,1.386,2.998l0,0C1.39,3,1.394,2.997,1.399,2.996 M1.375,3c0,0,0.022-0.006,0.024-0.007l0,0
				C1.403,2.99,1.407,2.991,1.411,2.989c0,0,0,0-0.001,0c-0.003,0-0.006,0-0.008,0.001H1.401c-0.001,0-0.015,0.004-0.016,0.004
				c0,0,0-0.001,0.001-0.001C1.383,2.992,1.382,2.994,1.381,2.994C1.378,2.995,1.375,2.995,1.373,2.996c0.002,0.001,0.004,0,0.007,0
				C1.376,2.998,1.372,2.998,1.369,3l0,0C1.371,3,1.374,3,1.375,3 M1.443,2.99c0.001,0,0.001,0,0.001,0
				C1.444,2.989,1.443,2.989,1.443,2.99c0-0.001,0.001-0.002,0.002-0.002h0.001h0.001h0.001c0,0,0,0,0.001,0H1.45
				c0.001,0,0.001,0,0.001,0h0.001h0.001c0.002,0,0.004-0.001,0.006-0.001H1.458c-0.002,0-0.004,0-0.005,0
				c0.003-0.001,0.007,0,0.01-0.001c-0.001,0-0.002,0-0.002,0c0.005,0,0.011,0,0.016,0l0,0c-0.003,0-0.006,0-0.008,0l0,0
				c-0.004,0-0.007,0-0.011,0c-0.006,0-0.012,0.001-0.017,0.001l0,0l0,0C1.436,2.988,1.431,2.988,1.426,2.99
				c0.002,0,0.004,0,0.007-0.001C1.432,2.991,1.43,2.991,1.428,2.992c0-0.002-0.008-0.002-0.02,0.004h0.001
				c0.001,0,0.002,0.001,0.003,0.001l0,0c0.003,0,0.005-0.001,0.008-0.003C1.419,2.995,1.418,2.996,1.417,2.996
				c0.004,0,0.007-0.003,0.012-0.004H1.428C1.432,2.994,1.435,2.991,1.439,2.99C1.441,2.99,1.442,2.99,1.443,2.99
				C1.444,2.99,1.443,2.99,1.443,2.99 M1.477,2.985L1.477,2.985C1.477,2.985,1.476,2.985,1.477,2.985c-0.003,0-0.004,0-0.007,0
				c-0.001,0-0.002,0-0.004,0C1.47,2.985,1.473,2.985,1.477,2.985 M1.477,2.985L1.477,2.985H1.475c-0.001,0-0.001,0-0.002,0
				c-0.003,0-0.006,0-0.009,0c0.002,0,0.004,0,0.006,0c-0.001,0-0.002,0-0.002,0c0.002,0,0.004,0,0.006,0c-0.001,0-0.001,0-0.002,0
				c-0.001,0-0.003,0-0.004,0l0,0l0,0l0,0l0,0l0,0l0,0l0,0l0,0C1.463,2.986,1.46,2.989,1.456,2.988c0.001,0,0.003-0.001,0.004-0.001
				l0,0l0,0l0,0l0,0l0,0l0,0l0,0l0,0c-0.001,0-0.001,0-0.002,0H1.455c-0.002,0-0.004,0.001-0.005,0.001h0.002
				C1.45,2.989,1.448,2.989,1.446,2.99c0,0.001,0,0.002,0,0.003c0,0-0.003,0.002-0.004,0C1.439,2.99,1.427,2.995,1.423,2.996
				c0,0,0,0-0.001,0c0.002,0,0.004,0,0.006,0l0,0C1.426,2.998,1.424,3,1.422,3.001c0.002,0.001,0.004,0,0.006,0l0,0L1.425,3.002
				L1.424,3.004l0,0c-0.002,0.001-0.006,0.001-0.007,0c-0.001-0.002,0-0.003,0-0.004C1.415,3,1.413,3,1.411,3
				C1.409,3.001,1.407,3.002,1.406,3.005C1.399,3.007,1.391,3.007,1.385,3.011c0,0,0.001,0.001,0.002,0.001
				c0.002,0,0.004-0.002,0.007-0.003c0,0.001,0,0.002,0,0.003c0.004,0,0.008,0.002,0.013,0c0.002-0.001,0.004-0.004,0.006-0.004
				c0,0.003,0,0.004,0.006,0.004l0,0c0.001,0,0.001-0.001,0.002-0.002c0.001,0,0.001-0.001,0.001-0.001S1.423,3.01,1.423,3.011
				c0.001,0,0.002-0.001,0.003-0.001c0,0.002-0.001,0.003-0.001,0.005c0,0,0.013-0.001,0.02-0.005l0,0l0,0l0,0l0,0l0,0l0,0l0,0l0,0
				V3.007c-0.005-0.002-0.011,0-0.016-0.003l0,0c0.007-0.003,0.016,0.001,0.022-0.006c0.003,0,0.006,0.001,0.008,0V2.997
				c0,0,0.001,0,0.001-0.001c0.004,0,0.008-0.004,0.008-0.005C1.466,2.99,1.464,2.99,1.462,2.99c0.004-0.003,0.007,0,0.01-0.002l0,0
				c0,0-0.001,0-0.001-0.001c0.003,0,0.006,0.003,0.008,0H1.478c0,0,0,0,0.001,0c0-0.001,0-0.001,0-0.001
				C1.478,2.985,1.478,2.985,1.477,2.985 M1.755,3.22C1.677,3.072,1.581,2.985,1.477,2.985l0,0h0.001h0.001c0.001,0,0.001,0,0.002,0
				h0.001l0,0l0,0l0,0l0,0c0.001,0.001,0.002,0.001,0.003,0.001c0.001,0,0.001,0,0.001,0l0,0l0,0l0,0l0,0l0,0
				c0.001,0,0.002,0,0.004,0l0,0h0.001c-0.001,0-0.002,0-0.003,0l0,0c0.001,0,0.002,0,0.003,0c-0.002,0-0.004,0-0.006,0.001h0.001
				h0.001c0.001,0,0.003,0.001,0.004,0.001c0,0.004-0.001,0.004-0.002,0.004v0.001c0.002,0.001,0.003,0.002,0.005,0.002
				c0-0.001,0-0.001,0-0.001h0.002l0,0l0,0c0,0,0.001-0.001,0.002-0.001c0,0.001,0.001,0.001,0.001,0.002c0,0,0,0,0-0.001H1.5V2.993
				l0.001,0.001l0,0l0.001-0.001c0,0,0.001,0.001,0.002,0.001h0.001c0.002,0,0.004,0.001,0.005,0.002c0.001,0,0.003,0,0.004,0.001
				h0.002c0.003,0.002,0.007,0.004,0.01,0.005C1.53,3.003,1.534,3.006,1.538,3.007c0,0,0,0,0,0.001h0.001c0,0,0,0-0.001,0.001
				c0,0.003,0,0.003,0,0.003c0.001,0,0.002,0,0.003,0c0.002,0.001,0.005,0.002,0.007,0.003l0,0H1.547
				c0,0.001,0.001,0.001,0.002,0.002l0.003,0.001h0.002L1.556,3.02c0,0,0,0.001,0,0.002c0.001,0,0.001,0,0.002,0H1.56h0.001l0,0
				c0.001,0.001,0.002,0.002,0.002,0.002l0,0c0.002,0.001,0.004,0.002,0.006,0.004H1.567l0,0l0,0H1.566l0,0l0,0l0,0l0,0l0,0
				c-0.001,0-0.002,0-0.004,0c0.003,0,0.006,0,0.008,0.003c-0.001,0-0.001,0.002-0.002,0.003c0.001,0,0.003,0.001,0.004,0
				c0,0,0.001,0,0.001-0.001h0.001C1.572,3.038,1.571,3.038,1.568,3.039c0,0.001,0.001,0.001,0.001,0.002L1.57,3.042l0.003,0.001
				c0.003,0,0.006,0.001,0.008,0c0-0.002,0-0.003-0.001-0.004c0-0.001,0-0.002,0-0.003l0.001,0.001l0,0l0,0V3.036
				c0.001,0,0.001,0,0.001,0C1.585,3.037,1.587,3.039,1.589,3.04l0,0l0,0l0,0l0,0l0,0l0,0l0,0l0,0c0.001,0,0.002-0.001,0.003-0.002
				h0.001c0,0.001-0.002,0.002-0.002,0.002s0,0.001,0.001,0.002c0.001,0,0.001,0,0.002,0c0-0.001,0.001-0.001,0.002-0.001
				c0.001,0,0.001,0,0.001,0c-0.001,0-0.002,0.002-0.002,0.003v0.002c0.002,0,0.003-0.001,0.004-0.002
				c0.001,0,0.002,0.002,0.004,0.002c0.002,0,0.003,0,0.004,0.001c-0.002,0-0.004,0-0.006,0l0,0l0,0
				c0.004,0.002,0.008,0,0.011,0.003c-0.001,0-0.001,0-0.002,0.001c0.002,0.001,0.004,0.001,0.005,0.003c-0.001,0-0.002,0-0.003,0
				l0,0c0.002,0.001,0.004,0.001,0.005,0h0.001v0.002c-0.011,0-0.02-0.004-0.03-0.006l0,0c-0.001,0-0.001,0-0.002,0.001L1.585,3.052
				c0.001,0,0.002,0.001,0.004,0.002L1.59,3.056c0.003,0.001,0.006,0.001,0.009,0.002l0,0c0.001,0,0.001,0,0.002,0
				C1.607,3.06,1.613,3.062,1.619,3.063L1.62,3.062h0.001l0,0v0.001h0.001c0.001,0,0.003-0.001,0.004-0.002
				c0,0,0.001,0.001,0.001,0.002l0.001,0.002v0.001l0.003,0.001H1.629l0.002,0.001h0.001l0,0H1.631L1.633,3.07v0.005l0,0
				c0.001,0,0.002-0.001,0.003-0.002C1.637,3.074,1.639,3.074,1.64,3.075l0,0l0,0c-0.001,0-0.002,0.001-0.004,0.001
				c0,0.001-0.001,0.002-0.001,0.003h0.001V3.08l0.001,0.003C1.638,3.082,1.639,3.081,1.64,3.081c0.002,0,0.002,0.001,0.003,0.003
				c-0.001,0-0.002,0-0.003,0.001C1.635,3.087,1.63,3.088,1.626,3.092c0.003,0.001,0.006,0,0.009,0c0.003,0,0.006,0,0.008-0.002
				H1.641h0.004c0,0,0,0.002,0,0.003c0.003,0.002,0.007,0.001,0.009,0.004C1.645,3.094,1.636,3.095,1.628,3.094l0,0l0,0
				C1.63,3.096,1.633,3.096,1.636,3.097c-0.003,0-0.006-0.001-0.009,0.001c-0.001,0.002-0.001,0.006,0,0.008
				c0.004,0,0.004-0.004,0.007-0.005C1.636,3.1,1.637,3.099,1.639,3.098c0,0,0.001,0,0.001,0.001C1.641,3.1,1.643,3.1,1.644,3.1
				c0.001,0,0.002,0,0.003,0c0,0,0-0.001,0.001-0.001L1.647,3.098l0,0c0.002,0,0.004,0,0.006,0c-0.002,0-0.002,0.002-0.002,0.003
				c0.001,0,0.002,0.001,0.004,0.001c-0.017,0-0.017,0-0.026,0.006L1.627,3.109C1.634,3.111,1.64,3.108,1.646,3.107l0.003,0.001
				l0.003-0.001c0.003,0.001,0.005,0.002,0.007,0.004C1.644,3.109,1.641,3.11,1.631,3.113c0.003,0.001,0.005,0.003,0.008,0.004
				h0.008h0.002c0.001,0,0.003,0,0.004,0.002C1.65,3.123,1.645,3.121,1.641,3.123l0,0C1.644,3.124,1.647,3.124,1.65,3.125
				c-0.002,0-0.004,0.001-0.005,0.001c-0.004,0-0.004,0-0.005,0.002C1.641,3.13,1.643,3.131,1.645,3.131L1.643,3.133
				c0.006,0.005,0.01-0.006,0.015-0.009C1.66,3.119,1.66,3.117,1.672,3.114h0.003v0.003c-0.004,0.001-0.007,0-0.01,0.001
				C1.664,3.12,1.662,3.12,1.661,3.121v0.001c0,0.002-0.001,0.002-0.002,0.003L1.66,3.126C1.655,3.128,1.651,3.133,1.647,3.137
				l0.002,0.001c0.002,0.001,0.004,0.001,0.006,0c0,0,0.001,0,0.001,0.001C1.655,3.141,1.653,3.142,1.652,3.143
				c0.005,0.002,0.006,0.001,0.007-0.001c0.004,0,0.004,0.004,0.006,0.007c0.002-0.001,0.004-0.002,0.006-0.003l0,0l0,0
				C1.67,3.147,1.668,3.149,1.666,3.151C1.667,3.152,1.669,3.152,1.67,3.153c0.001,0,0.003,0,0.005,0v0.003H1.673
				c0.003,0.002,0.007,0.001,0.01,0.003C1.681,3.161,1.681,3.161,1.686,3.175l0.001,0.001c0,0,0.006-0.004,0.003-0.01l0.001-0.003
				l0,0c0.002,0,0.003,0.001,0.005,0.003l0,0V3.164C1.694,3.16,1.692,3.157,1.692,3.153l0.004,0.002v0.001
				C1.699,3.161,1.701,3.16,1.705,3.159c0.004,0.004,0.007,0.007,0.012,0.008C1.719,3.168,1.72,3.169,1.722,3.17
				c-0.001,0-0.001,0-0.001,0C1.714,3.169,1.705,3.157,1.699,3.166l0.004,0.002L1.701,3.17C1.699,3.172,1.696,3.174,1.692,3.176
				C1.699,3.18,1.708,3.173,1.71,3.171c0.002,0.001,0.004,0.002,0.005,0.003C1.709,3.175,1.703,3.178,1.698,3.18
				c0,0.001,0.001,0.003,0.004,0.004l0,0C1.701,3.185,1.7,3.185,1.699,3.186c0.003,0.001,0.004,0.003,0.006,0.005
				c0.004,0,0.007-0.004,0.011-0.004C1.715,3.19,1.713,3.192,1.711,3.195l0,0c0.001,0,0.001,0,0.001,0
				c0.012-0.002,0.012-0.002,0.014,0.004c0,0.001-0.001,0.002-0.002,0.003C1.725,3.205,1.725,3.205,1.73,3.204
				c0.001,0,0.001,0,0.001,0v0.004l0,0c0.003-0.002,0.004-0.004,0.005-0.006c0.001,0,0.002,0,0.002,0v0.004
				C1.737,3.217,1.737,3.217,1.743,3.219h0.001c0,0,0,0,0.001,0h0.001h0.001c0,0,0,0,0.001,0c0,0,0,0,0.001,0H1.75h0.001
				C1.752,3.219,1.754,3.219,1.755,3.22C1.754,3.219,1.755,3.22,1.755,3.22"/>
			<path id="path6904" inkscape:connector-curvature="0" fill="#B3E710" d="M1.447,5.479L1.447,5.479
				C1.446,5.478,1.446,5.478,1.445,5.478H1.444C1.448,5.483,1.45,5.484,1.452,5.485V5.484C1.45,5.483,1.448,5.481,1.447,5.479
				C1.447,5.48,1.447,5.48,1.447,5.479 M1.84,4.933C1.84,4.933,1.841,4.932,1.84,4.933C1.827,4.932,1.814,4.932,1.8,4.932
				C1.799,4.937,1.797,4.942,1.799,4.95C1.8,4.95,1.828,4.957,1.84,4.933 M1.724,5.314c0.06-0.095,0.112-0.224,0.151-0.377
				C1.872,4.936,1.87,4.934,1.868,4.932c-0.005,0-0.009,0-0.013,0c-0.018,0.003-0.023,0.023-0.038,0.03
				C1.818,4.96,1.819,4.957,1.82,4.954c-0.008-0.001-0.016,0-0.023,0c-0.003-0.005-0.004-0.01-0.005-0.015
				c-0.02,0.009-0.02,0.001-0.024,0c0.004-0.004,0.007-0.022,0.011-0.022c-0.104,0-0.214,0-0.328,0c-0.096,0-0.189,0-0.277,0
				c-0.002,0-0.004,0.011-0.006,0.011c-0.001,0.01,0.007,0.02,0.004,0.03L1.171,4.961c0.011,0.01,0.013,0.008,0.021,0
				C1.209,4.976,1.178,4.99,1.171,5.005c0.004,0.009,0.014,0.014,0.016,0.024c-0.002,0-0.005,0.001-0.007,0.003
				C1.205,5.044,1.226,5.056,1.3,5.159c0,0,0,0.001,0,0.002s0.034,0.001,0.034,0.001s0.035,0.001,0.035,0.002
				c0,0.001,0,0.001,0,0.001s0,0.001,0,0.002s-0.033-0.001-0.033,0S1.319,5.168,1.319,5.169c0,0-0.008,0-0.008,0.001
				C1.34,5.2,1.381,5.2,1.41,5.232C1.422,5.245,1.398,5.292,1.398,5.3c-0.001,0-0.028,0-0.028,0.001l0,0v0.001l0,0l0,0l0,0l0,0
				c0,0,0,0,0,0.001l0,0l0.026,0.005c-0.002,0.014,0.02,0.14,0.02,0.141c0,0,0.004,0.001,0.003,0.001
				C1.42,5.451,1.424,5.452,1.425,5.453c0.001,0.001,0.003,0.002,0.003,0.002h0.001H1.43c0,0.001,0,0.001,0,0.001h0.001
				c0,0,0,0,0.001,0l0,0c0,0.001-0.034,0.001-0.033,0.001C1.4,5.46,1.37,5.463,1.37,5.465l0,0c0,0.009,0.043,0.01,0.048,0.014
				C1.42,5.482,1.439,5.486,1.443,5.487C1.445,5.49,1.455,5.492,1.458,5.493L1.46,5.492h0.003l0,0L1.462,5.493l0.002,0.003
				c0.001,0,0.001,0,0.002,0H1.47c0.002,0,0.002,0,0.003,0h0.001c0.001,0,0.001,0,0.002,0l0,0h0.003c0,0-0.002-0.003-0.002-0.004
				c0.003-0.003,0.005,0,0.009-0.003L1.481,5.496h0.004l0.001-0.008v0.001L1.485,5.496l0,0c-0.003,0-0.004-0.013-0.003-0.016
				c0.005,0.001,0.005-0.003,0.019-0.015c0.006,0.001,0.028,0.001,0.042-0.018C1.542,5.443,1.541,5.441,1.546,5.436
				C1.544,5.433,1.541,5.431,1.54,5.427l0.003-0.003c0.001,0.001,0.002,0.002,0.002,0.003c0.002,0,0.005,0,0.007,0
				C1.553,5.429,1.555,5.43,1.555,5.431c0.014-0.003,0.04-0.008,0.071-0.043c0.002-0.003,0.002-0.003,0.002-0.003
				c0.001,0,0.002,0.001,0.004,0.001s0.002,0,0.002,0C1.629,5.392,1.622,5.397,1.616,5.401C1.648,5.384,1.648,5.384,1.69,5.335
				c0-0.004,0.001-0.004,0.001-0.005C1.7,5.33,1.724,5.314,1.724,5.314 M2.667,4.591c0.001-0.001,0.001-0.003,0-0.005l0,0
				C2.665,4.59,2.665,4.593,2.663,4.595c0,0.001-0.001,0.003-0.001,0.004V4.6C2.665,4.598,2.665,4.594,2.667,4.591 M2.734,4.037
				C2.726,3.99,2.722,3.944,2.722,3.898V3.897c0-0.013-0.027-0.026-0.033-0.038c-0.007-0.008-0.017-0.008-0.056-0.11
				c0,0.002-0.004,0.006-0.004,0.008c-0.004-0.011-0.007-0.011-0.01-0.014c0,0.003,0,0.005,0,0.008
				C2.617,3.75,2.614,3.749,2.612,3.749c-0.003,0.002-0.005,0.007-0.006,0.01C2.603,3.757,2.598,3.755,2.595,3.753
				C2.594,3.76,2.593,3.761,2.581,3.764C2.58,3.767,2.579,3.773,2.579,3.777c-0.008,0.005-0.006,0.015-0.01,0.022
				C2.565,3.798,2.56,3.795,2.557,3.794C2.546,3.799,2.546,3.799,2.53,3.778C2.529,3.779,2.507,3.871,2.522,3.909
				c0.021,0.053-0.031,0.083-0.039,0.126C2.475,4.079,2.455,4.12,2.459,4.165C2.46,4.164,2.461,4.162,2.461,4.16
				c0.015,0.013,0.013,0.137-0.008,0.158c0.006,0.008,0.008,0.019,0.012,0.028c0,0.001-0.002,0.004-0.003,0.006
				C2.46,4.36,2.46,4.368,2.459,4.376C2.462,4.38,2.462,4.38,2.462,4.38l0,0l0,0l0,0l0,0l0,0l0,0l0,0l0.004-0.021
				C2.467,4.36,2.469,4.336,2.47,4.336c0.002,0,0.004,0,0.006,0c0.001,0,0.002,0.03,0.003,0.032c0,0.003,0.023,0.018,0.022,0.021
				c0.002,0.002,0.028,0.019,0.028,0.022v0.004c0,0.001-0.02,0.002-0.018,0.003C2.51,4.427,2.512,4.427,2.526,4.455
				C2.527,4.46,2.529,4.461,2.529,4.461v0.001c0,0,0,0,0,0.001v0.001c0,0.001,0,0.001,0,0.001v0.001c0,0,0,0,0,0.001
				c0,0,0,0,0,0.001V4.47v0.002L2.498,4.53c0,0,0,0-0.001,0c0.004,0,0.048,0.066,0.049,0.067c0.017-0.003,0.029-0.044,0.048-0.03
				c0.001-0.001,0.003-0.009,0.004-0.01C2.601,4.56,2.603,4.562,2.604,4.565c0.014-0.01,0.055-0.044,0.055-0.044
				C2.662,4.529,2.692,4.53,2.691,4.542h0.031v0.002c0,0.013-0.034,0.018-0.033,0.027C2.693,4.57,2.682,4.568,2.686,4.567
				c0-0.001,0.018-0.004,0.019-0.004c0.001,0.006,0.018,0.013,0.018,0.02v0.001L2.695,4.586C2.692,4.603,2.674,4.623,2.664,4.644
				L2.658,4.645C2.656,4.652,2.65,4.657,2.649,4.664C2.648,4.669,2.646,4.669,2.646,4.669C2.644,4.673,2.637,4.684,2.631,4.7
				L2.628,4.709L2.627,4.711C2.625,4.717,2.623,4.716,2.621,4.723c-0.022,0.086-0.099,0.194-0.1,0.194c0.001,0,0.001,0,0.002,0l0,0
				c0.024,0,0.047-0.067,0.068-0.108c0.03-0.058,0.055-0.113,0.076-0.176c0.021-0.062,0.037-0.124,0.047-0.191
				C2.725,4.376,2.741,4.309,2.741,4.24C2.741,4.17,2.744,4.103,2.734,4.037 M2.619,3.722L2.619,3.722L2.619,3.722
				c0,0.001,0.002,0.002,0.001,0.004C2.618,3.725,2.617,3.722,2.616,3.72c0,0.001,0,0.002,0,0.002
				c0.003,0.013,0.012,0.024,0.018,0.036C2.63,3.746,2.624,3.734,2.619,3.722 M2.582,3.665C2.579,3.659,2.575,3.653,2.57,3.647
				c0,0.001,0,0.002,0.001,0.002c0.001,0.002,0.001,0.004,0,0.006l0,0C2.572,3.658,2.574,3.66,2.575,3.662
				C2.579,3.67,2.583,3.677,2.587,3.685c0.002,0.006,0.004,0.013,0.009,0.017c0-0.002-0.001-0.004-0.002-0.006V3.695l0,0
				c0.001,0.001,0.001,0.001,0.002,0.002C2.592,3.686,2.587,3.676,2.582,3.665 M2.557,3.621C2.553,3.615,2.55,3.608,2.546,3.603l0,0
				L2.55,3.609C2.551,3.613,2.551,3.617,2.553,3.62v0.002c0.002,0.003,0.003,0.004,0.004,0.007c0,0.001,0.001,0.001,0.001,0.002
				c0,0,0,0,0-0.001c0,0.001,0,0.001,0,0.001l0.001,0.002v0.001l0.002,0.002l0.001,0.003L2.565,3.64l0.001,0.001
				c0,0,0.001,0.001,0.001,0.002v0.001C2.565,3.635,2.561,3.628,2.557,3.621 M2.591,3.663c-0.003-0.006-0.006-0.012-0.01-0.019l0,0
				C2.579,3.642,2.578,3.64,2.577,3.639C2.576,3.637,2.575,3.634,2.573,3.632c0-0.001-0.048-0.079-0.054-0.083V3.548
				c-0.008,0-0.028,0-0.059,0c0,0.001,0.001,0.001,0.001,0.002c0,0,0-0.001-0.001-0.001C2.459,3.548,2.458,3.548,2.457,3.548
				c0.003,0.005,0.005,0.01,0.008,0.014c0-0.001,0-0.001,0-0.001l0.001,0.002v0.001c0.005,0.01,0.009,0.019,0.013,0.029
				C2.474,3.596,2.471,3.59,2.467,3.588c0.001,0.013-0.018-0.005-0.028-0.003c-0.005,0.008-0.014-0.004-0.02,0.001
				c0,0.003,0.001,0.004,0.002,0.007C2.42,3.594,2.419,3.594,2.418,3.594c-0.006,0.001-0.003,0.007,0,0.012
				c0.009,0.004,0.01,0.006,0.017,0.027C2.452,3.66,2.456,3.682,2.461,3.705c0,0.002,0.002,0.004,0.003,0.004
				c0.001-0.001,0.001-0.004,0.002-0.005l0.002,0.004c0,0.002,0,0.003-0.002,0.003c-0.001,0-0.001,0.001-0.001,0.001l0.002,0.004
				c0.001,0,0.003,0,0.004-0.001c0,0,0.001,0,0.001,0.001c0.002,0.003,0.004,0.007,0.004,0.012c0.005,0.007,0.005,0.015,0.008,0.023
				v0.001c0.003-0.004,0.003-0.004,0.012-0.001c0.003-0.002,0.003-0.007,0.007-0.005C2.51,3.75,2.511,3.758,2.517,3.761
				c0.007,0.015,0.011,0.015,0.012,0.014c0-0.001,0-0.002,0-0.003l0,0L2.53,3.775l0,0C2.529,3.769,2.533,3.764,2.534,3.759
				c0.005,0,0.011,0,0.016,0c0-0.001,0.001-0.002,0.001-0.003c0.001,0.001,0.002,0.001,0.003,0.002
				c0.001-0.006-0.003-0.011-0.002-0.017c0-0.003,0.004-0.003,0.004-0.004C2.552,3.728,2.549,3.719,2.552,3.708
				c0-0.001,0-0.001-0.001-0.002C2.549,3.704,2.543,3.699,2.54,3.691c-0.004-0.01-0.003-0.022-0.007-0.032L2.531,3.656
				C2.529,3.65,2.535,3.645,2.533,3.64C2.531,3.626,2.531,3.626,2.528,3.621C2.515,3.598,2.515,3.598,2.515,3.592
				c0.003,0,0.004,0.003,0.007,0.004c0,0,0-0.001,0.001-0.001c0.004,0,0.004,0.005,0.008,0.007c0,0,0.001-0.001,0.002-0.001
				c0-0.006-0.008-0.027-0.008-0.027C2.524,3.572,2.523,3.57,2.524,3.568C2.53,3.571,2.586,3.656,2.586,3.657
				c0,0-0.001-0.001-0.001-0.002l0,0l0.002,0.003L2.588,3.66l0.001,0.002c0,0,0-0.001-0.001-0.002
				C2.589,3.661,2.59,3.663,2.591,3.663c0.002,0.004,0.004,0.009,0.006,0.012l0,0c0.006,0.011,0.011,0.021,0.016,0.033
				c0,0.001,0,0.001,0.001,0.001l0,0V3.71c0.002,0.004,0.003,0.007,0.005,0.011C2.62,3.723,2.621,3.725,2.622,3.727l0.001,0.002l0,0
				C2.62,3.725,2.619,3.722,2.617,3.718C2.609,3.699,2.6,3.681,2.591,3.663 M2.523,3.549C2.523,3.549,2.522,3.549,2.523,3.549
				C2.522,3.548,2.522,3.548,2.523,3.549c0.002,0.003,0.004,0.007,0.006,0.01C2.527,3.556,2.525,3.552,2.523,3.549 M2.549,3.59
				C2.541,3.576,2.532,3.562,2.523,3.548l0,0l0,0C2.524,3.55,2.526,3.552,2.527,3.555c0.004,0.006,0.01,0.01,0.011,0.017
				c0,0.001,0,0.001,0,0.001c0.005,0.006,0.008,0.012,0.013,0.019C2.55,3.591,2.55,3.59,2.549,3.59 M1.805,3.538V3.536L1.804,3.533
				H1.801H1.8C1.784,3.538,1.784,3.538,1.776,3.548c0.007,0,0.015,0,0.023,0c0-0.003-0.001-0.005-0.002-0.008
				C1.8,3.54,1.803,3.539,1.805,3.538 M0.552,3.474C0.556,3.47,0.55,3.47,0.547,3.47c0,0.001-0.001,0.001-0.002,0.001
				C0.542,3.476,0.539,3.483,0.537,3.489C0.544,3.486,0.547,3.479,0.552,3.474 M0.576,3.44l0.001-0.001
				c0.001-0.006,0.006-0.01,0.009-0.015c0.001-0.003,0.003-0.008,0.002-0.009c0,0-0.001,0-0.001,0.001
				C0.573,3.433,0.571,3.439,0.568,3.45l0.001-0.001L0.57,3.448l0.001-0.001c0-0.001,0-0.001,0.001-0.001c0,0,0.001,0,0.001-0.001
				c0-0.001,0.001-0.001,0.001-0.001C0.575,3.441,0.575,3.441,0.576,3.44 M0.591,3.401c0.004-0.004,0.007-0.009,0.011-0.013
				C0.601,3.387,0.601,3.386,0.601,3.385v0.001C0.594,3.393,0.588,3.4,0.584,3.409c0,0,0,0.001-0.001,0.001l0,0
				C0.585,3.406,0.588,3.404,0.591,3.401 M0.606,3.382c0.004-0.005,0.007-0.008,0.01-0.013C0.614,3.37,0.615,3.367,0.615,3.366
				H0.614C0.607,3.372,0.607,3.372,0.599,3.384c0.003-0.002,0.005-0.005,0.007-0.006C0.607,3.379,0.606,3.379,0.606,3.382
				 M1.756,3.564V3.517c0-0.004,0.013-0.007,0.009-0.011C1.774,3.475,1.757,3.48,1.757,3.48c-0.002,0,0.001,0.003-0.001,0.004
				c-0.001-0.001,0-0.003-0.001-0.004c0-0.002,0.002-0.004,0.003-0.006C1.755,3.47,1.748,3.466,1.741,3.468
				c-0.015,0.004-0.025,0.016-0.039,0.02c0-0.009,0.001-0.01,0.003-0.013c0.02-0.001,0.043-0.017,0.044-0.019
				C1.696,3.444,1.696,3.421,1.688,3.421C1.69,3.411,1.691,3.37,1.667,3.37H1.666H1.665H1.664H1.663H1.662H1.661c0,0,0,0-0.001,0
				c0,0,0,0-0.001,0c-0.005,0-0.009,0.014-0.013,0.009V3.39c0.006-0.001,0.011,0.007,0.017,0.006
				c0.003-0.011-0.009-0.008-0.015-0.013C1.65,3.382,1.651,3.382,1.653,3.382C1.65,3.371,1.638,3.37,1.634,3.361
				c-0.002,0-0.004,0-0.005,0c0-0.002,0-0.004,0-0.006c-0.01-0.014-0.024-0.024-0.036-0.036C1.59,3.326,1.589,3.327,1.581,3.33
				c0,0.003,0,0.008,0.004,0.013C1.576,3.355,1.576,3.37,1.577,3.37l0,0c-0.003,0-0.006-0.012-0.011-0.014
				c-0.007,0.015-0.017,0.016-0.03,0.01c0-0.001,0.001,0.003,0.001,0.003C1.531,3.357,1.526,3.37,1.507,3.37l0,0
				c-0.004,0-0.001-0.015,0-0.016c0.002,0,0.004,0.032,0.005,0.032C1.514,3.377,1.509,3.37,1.509,3.37l0,0
				c-0.02,0-0.04-0.042-0.039-0.046c0-0.001,0.001-0.019,0.002-0.02C1.461,3.298,1.455,3.279,1.443,3.277
				c-0.01-0.003-0.019,0-0.029,0c-0.012,0-0.022-0.009-0.034-0.01c-0.001,0-0.003-0.001-0.004-0.001
				C1.375,3.267,1.36,3.274,1.379,3.288C1.376,3.295,1.37,3.299,1.37,3.306l0,0c0,0,0.003,0,0.007,0
				C1.375,3.315,1.378,3.322,1.373,3.33L1.347,3.354c0.008,0.018,0.04,0.023,0.031,0.05C1.374,3.415,1.36,3.484,1.312,3.497
				c0.001,0.01,0.011,0.067,0.011,0.067c-0.001,0-0.003,0-0.004,0c0.001,0,0.05-0.079,0.05-0.075c0,0.001,0,0.001,0,0.002
				c0,0,0,0,0,0.001l0,0c0,0.001,0,0.001,0,0.001v0.001c0,0,0,0,0,0.001s0,0.001,0,0.001l0,0c0,0.024-0.02,0.024-0.026,0.03
				c0,0.006-0.013,0.011-0.014,0.016C1.326,3.54,1.318,3.535,1.314,3.532C1.311,3.535,1.305,3.537,1.303,3.54
				c0.001,0.002,0.001,0.011,0.002,0.014c0.048,0.002,0.096,0.01,0.146,0.01c0.099,0,0.195,0,0.286,0
				c0.003,0-0.015-0.015-0.012-0.018c0.033-0.003,0.031-0.011,0.031-0.028 M1.759,3.226C1.759,3.225,1.758,3.225,1.759,3.226
				L1.759,3.226L1.759,3.226 M1.34,3.237L1.34,3.237C1.334,3.233,1.334,3.233,1.317,3.231C1.318,3.227,1.32,3.22,1.319,3.218
				c0,0-0.001-0.001-0.002-0.002C1.313,3.214,1.309,3.214,1.305,3.212C1.3,3.209,1.296,3.203,1.291,3.201
				C1.29,3.202,1.288,3.204,1.287,3.205C1.284,3.204,1.282,3.203,1.28,3.201C1.282,3.2,1.283,3.197,1.284,3.196
				C1.283,3.194,1.281,3.192,1.28,3.191C1.279,3.192,1.278,3.193,1.277,3.194C1.26,3.214,1.258,3.218,1.258,3.228
				C1.246,3.232,1.243,3.233,1.238,3.24c0,0.001,0,0.001,0,0.001C1.245,3.24,1.253,3.239,1.261,3.237
				c0,0.004-0.002,0.008-0.003,0.012c0.003,0,0.007-0.001,0.009-0.002c0.005-0.002,0.009-0.006,0.015-0.008
				c0.004-0.001,0.007-0.001,0.01-0.003c0-0.003,0.001-0.006,0.003-0.008c0.003,0,0.006,0,0.009,0.002
				c0.003,0.003,0.003,0.007,0.005,0.009c0.007,0.004,0.015,0.002,0.022,0.004C1.333,3.241,1.336,3.239,1.34,3.237 M1.428,3.146
				c0-0.001,0-0.001,0-0.002C1.425,3.141,1.421,3.139,1.418,3.14c-0.02,0.004-0.02,0.018-0.017,0.02
				C1.401,3.161,1.424,3.172,1.428,3.146"/>
			<path id="path6906" inkscape:connector-curvature="0" fill="#B3E710" d="M1.88,3.642c0-0.001,0-0.004-0.001-0.005
				c-0.003,0-0.005,0.001-0.007-0.001c-0.002-0.002,0-0.006-0.002-0.008L1.865,3.626C1.864,3.628,1.863,3.63,1.862,3.632
				c0,0,0,0-0.001,0C1.859,3.629,1.856,3.625,1.854,3.621V3.62c0.005-0.003,0.01-0.004,0.013-0.008c0-0.001,0-0.002,0-0.003
				L1.863,3.608C1.856,3.613,1.856,3.613,1.845,3.604C1.848,3.6,1.852,3.596,1.855,3.592C1.851,3.589,1.842,3.585,1.832,3.586
				C1.831,3.588,1.83,3.59,1.83,3.591C1.821,3.593,1.813,3.588,1.804,3.583V3.582V3.581C1.806,3.578,1.808,3.576,1.81,3.574
				C1.807,3.573,1.804,3.569,1.8,3.57C1.794,3.571,1.793,3.578,1.787,3.58c0-0.011,0.01-0.021,0.012-0.032c-0.007,0-0.015,0-0.023,0
				C1.768,3.561,1.763,3.572,1.76,3.586c0.003,0.003,0.005,0.005,0.008,0.008c0,0-0.001,0.001-0.002,0.002
				C1.763,3.598,1.759,3.597,1.756,3.6C1.754,3.602,1.754,3.605,1.752,3.607C1.756,3.608,1.76,3.609,1.763,3.609
				c-0.006,0.005-0.014,0.007-0.02,0.013C1.741,3.626,1.741,3.626,1.745,3.634c0.021-0.003,0.021-0.003,0.045,0
				c0.005,0,0.019,0.003,0.02-0.004c0,0,0,0,0-0.001c0.002,0,0.004,0,0.007-0.001c0,0.001,0,0.001,0,0.001V3.63c0,0,0,0,0,0.001
				c0,0,0,0,0,0.001c0,0,0,0,0,0.001l0,0v0.001c0,0,0,0,0,0.001l0.001,0.002h0.003c0.002-0.001,0.002-0.002,0.003-0.005
				c0.004,0,0.008,0,0.012,0.001l0,0C1.83,3.637,1.826,3.645,1.818,3.648c0,0.001,0,0.002,0,0.004
				c0.003,0.001,0.007,0.001,0.01,0.001c0.007-0.007,0.015-0.012,0.02-0.021c0,0,0.002,0,0.002,0.001l0.006,0.004
				c0.001,0.005,0,0.007-0.002,0.011c0,0.001,0.001,0.003,0.001,0.004h0.004l0.005-0.004c0,0.002,0,0.005,0.001,0.008
				c0.004,0,0.008,0.002,0.012,0.003C1.878,3.653,1.88,3.648,1.88,3.642 M2.457,3.548c0.001,0,0.002,0,0.003,0
				C2.458,3.546,2.456,3.544,2.454,3.542l0,0C2.455,3.544,2.456,3.546,2.457,3.548 M2.264,3.338c-0.003-0.004-0.027-0.03-0.03-0.019
				c-0.003,0-0.005-0.003-0.007-0.004c0,0.001-0.001,0.001-0.001,0.001c-0.001,0.001,0,0.004,0.005,0.011c0,0-0.001,0-0.001,0.001
				l0.001,0.001c0,0,0,0,0.001,0c0,0,0,0,0.001,0h0.001h0.001c0,0,0,0,0.001,0c0,0,0,0,0.001,0c0,0,0,0,0.001,0c0,0,0,0,0.001,0
				c0.002,0.004,0.003,0.005,0.002,0.006c0.001,0.001,0.003,0.003,0.004,0.004c-0.004,0-0.009-0.001-0.013-0.003
				c0.001,0.003,0.003,0.005,0.004,0.007c0.001,0.001,0.001,0.002,0.002,0.002C2.239,3.344,2.24,3.344,2.243,3.346l0,0
				c-0.003,0.002-0.002,0.004,0,0.005C2.242,3.352,2.241,3.352,2.241,3.352l0.002,0.002l0.001,0.003c0,0,0.011,0.004,0.012,0.002
				C2.257,3.36,2.258,3.361,2.259,3.363C2.257,3.366,2.257,3.366,2.261,3.37l0.002,0.004l0,0h0.001c0.001,0,0.001,0,0.001,0h0.001
				c0.003,0.003,0.001,0.003-0.001,0.004c0.001,0.001,0.003,0.004,0.004,0.005L2.268,3.384c-0.001,0-0.003,0-0.004,0
				c0.001,0,0.001,0.001,0.002,0.003c0.002,0,0.003,0,0.005,0l0,0L2.269,3.389C2.27,3.391,2.272,3.393,2.273,3.394
				c0.002-0.001,0.003-0.001,0.004-0.001C2.28,3.396,2.282,3.398,2.284,3.402c0.003-0.001,0.004-0.004,0.008-0.004
				c0-0.004-0.001-0.007-0.001-0.01c0.002,0,0.004-0.001,0.005-0.001c0-0.001-0.001-0.002-0.001-0.002c0.001,0,0.002,0,0.004,0
				c-0.02-0.027-0.02-0.027-0.034-0.039C2.266,3.344,2.266,3.343,2.264,3.338 M2.241,3.314L2.239,3.311
				C2.237,3.309,2.235,3.308,2.234,3.306l0,0C2.235,3.309,2.237,3.312,2.241,3.314 M2.309,3.304C2.307,3.302,2.306,3.3,2.303,3.299
				L2.305,3.3c0.003,0.002,0.006,0.005,0.009,0.008C2.31,3.306,2.308,3.304,2.305,3.302C2.308,3.305,2.311,3.307,2.313,3.31
				c0.003,0.002,0.004,0.007,0.009,0.007l0,0C2.324,3.319,2.326,3.32,2.328,3.322C2.326,3.319,2.324,3.317,2.321,3.315L2.319,3.313
				L2.318,3.312C2.315,3.309,2.312,3.306,2.309,3.304 M2.258,3.263c-0.001,0-0.002-0.001-0.003-0.002L2.258,3.263
				C2.26,3.267,2.265,3.27,2.268,3.274c0,0,0,0.001,0,0.002C2.272,3.28,2.276,3.283,2.281,3.287C2.278,3.283,2.275,3.28,2.272,3.278
				c0.001-0.001,0.002,0.001,0.003,0C2.269,3.273,2.264,3.268,2.258,3.263 M1.836,3.251L1.836,3.251
				c0-0.001-0.001-0.002-0.001-0.002c-0.001,0-0.001,0-0.002,0c0,0.003-0.003,0.003-0.002,0.004v0.001
				C1.833,3.253,1.835,3.252,1.836,3.251 M2.354,3.385c0,0-0.012-0.017-0.02-0.018c0,0.001,0,0.003,0.001,0.004
				c-0.003,0-0.004-0.002-0.006-0.004c0,0-0.015-0.017-0.037-0.034C2.263,3.31,2.253,3.302,2.246,3.299
				C2.245,3.3,2.244,3.301,2.244,3.301c-0.002,0-0.004-0.001-0.005-0.002c0.001,0,0.001,0,0.001,0c0.001,0,0.002-0.001,0.003-0.001
				c0-0.001-0.001-0.002-0.001-0.004C2.239,3.293,2.237,3.292,2.235,3.291c0-0.006-0.02-0.024-0.02-0.024
				c-0.005-0.003-0.011,0-0.016-0.003C2.194,3.259,2.192,3.253,2.187,3.248c0,0-0.004-0.005-0.007-0.004
				c0,0.001,0,0.002-0.001,0.002C2.176,3.249,2.174,3.245,2.171,3.244c0.001,0.001,0.002,0.003,0.003,0.004L2.18,3.252v0.001
				c0.002,0.004,0.006,0.006,0.01,0.009c-0.001,0-0.003-0.001-0.004-0.001c0,0.007,0.008,0.006,0.01,0.011
				c0.006,0.005,0.011,0.011,0.016,0.017L2.216,3.29C2.215,3.288,2.214,3.286,2.212,3.285l0.004,0.003
				c0.005,0.005,0.01,0.011,0.015,0.016c0,0,0.001,0,0.001,0.001C2.231,3.301,2.231,3.299,2.229,3.296l0,0L2.235,3.3
				c0.016,0.023,0.024,0.026,0.027,0.027C2.261,3.326,2.26,3.325,2.259,3.324c0.001,0,0.003,0.001,0.004,0.001h0.001
				c0,0,0,0,0-0.001c0,0,0-0.001,0.001-0.001C2.27,3.325,2.271,3.329,2.273,3.332c0.003,0.004,0.006,0.005,0.01,0.008l0.001-0.001
				c0.001,0,0.001,0,0.001,0c0.006,0.007,0.012,0.014,0.018,0.02l0,0C2.296,3.36,2.296,3.362,2.3,3.369l0,0c0,0,0,0,0.001,0l0,0l0,0
				l0,0l0,0l0,0l0,0l0,0c0,0.001,0.001,0.001,0.001,0.001C2.305,3.373,2.308,3.375,2.31,3.379s0,0.008,0.002,0.013l0.005,0.003
				c0.007,0,0.007,0,0.016,0.006l0,0l0,0C2.338,3.4,2.337,3.398,2.337,3.397C2.339,3.4,2.341,3.403,2.343,3.407
				C2.34,3.408,2.338,3.406,2.335,3.406c0,0,0,0.001-0.001,0.001C2.335,3.409,2.336,3.41,2.337,3.411H2.336
				C2.343,3.422,2.343,3.427,2.341,3.43c0,0,0,0,0,0.001c0.003,0.002,0.005,0.003,0.008,0.004C2.348,3.433,2.347,3.43,2.347,3.427
				c0.001,0,0.002,0,0.002,0c0-0.001,0-0.001,0-0.001c0.002,0.001,0.004,0.002,0.005,0.003c0,0,0.001-0.001,0.001-0.002
				C2.354,3.425,2.352,3.423,2.35,3.42c0.004-0.001,0.008,0,0.012,0.001C2.361,3.42,2.36,3.419,2.359,3.418
				c0.002-0.001,0.003-0.001,0.004-0.002c0.002,0,0.003,0.001,0.004,0.002c0.001-0.001,0.001-0.001,0.002-0.002
				c0.002,0.001,0.003,0.001,0.005,0.002c0,0,0-0.002,0-0.003c0,0,0,0,0.001,0C2.373,3.412,2.372,3.41,2.373,3.409
				C2.371,3.406,2.369,3.405,2.368,3.403l0,0C2.365,3.402,2.363,3.402,2.36,3.401l0,0C2.36,3.396,2.356,3.388,2.354,3.385
				 M1.942,3.118C1.935,3.114,1.927,3.112,1.92,3.109C1.916,3.107,1.913,3.105,1.909,3.103C1.902,3.101,1.895,3.097,1.887,3.096
				c0,0,0,0.001,0.001,0.001h0.001c0.001,0,0.001,0.001,0.001,0.001h0.001h0.001c0,0,0.001,0,0.001,0.001c0,0,0.001,0,0.001,0.001
				h0.001l0.001,0.001c-0.003,0.004-0.006,0-0.01,0c0.004,0.003,0.007,0.004,0.01,0.005c-0.005,0-0.009-0.005-0.014-0.005
				c0,0,0,0-0.001,0.001c0.002,0.004,0.005,0.004,0.008,0.005c0,0,0,0,0,0.001v0.001C1.884,3.106,1.878,3.104,1.873,3.101l0,0
				l0.001,0.001c0.004,0.002,0.008,0.004,0.012,0.007c0.001,0.001,0,0.002,0,0.002c0,0.002,0.001,0.003,0.002,0.005
				C1.887,3.115,1.886,3.114,1.885,3.114C1.873,3.108,1.861,3.099,1.847,3.096c0,0.001,0.001,0.001,0.001,0.002l0,0
				c0.003,0.001,0.006,0.003,0.009,0.004l0,0c0,0.001,0,0.001,0,0.001C1.855,3.104,1.852,3.1,1.849,3.101
				c0.002,0.004,0.007,0.005,0.01,0.006C1.858,3.108,1.856,3.108,1.855,3.109c0.001,0,0.003,0.001,0.004,0.002
				c0.005,0.003,0.005,0.003,0.01,0c0,0,0.007,0,0.016,0.005l0.002,0.002c0,0,0,0,0,0.001C1.885,3.121,1.882,3.12,1.881,3.124
				c0,0,0.001,0.001,0.002,0.001l0.002,0.002c0.003,0,0.005,0,0.007-0.002c0.016,0.006,0.017,0.007,0.017,0.011
				c0,0.004,0.001,0.004,0.005,0.005C1.92,3.143,1.926,3.14,1.931,3.142h0.001C1.937,3.145,1.949,3.151,1.957,3.15l0,0
				C1.956,3.146,1.954,3.145,1.953,3.143c0.002,0,0.004-0.001,0.006-0.001c0-0.005-0.003-0.007-0.004-0.01
				c0.001,0.001,0.002,0.002,0.004,0.001C1.957,3.128,1.953,3.127,1.95,3.125c0.001,0,0.001,0,0.002-0.001
				C1.948,3.122,1.945,3.12,1.942,3.118 M1.687,3.019C1.684,3.017,1.68,3.017,1.676,3.016l0,0c0.006,0.003,0.013,0.006,0.02,0.009
				l0.001-0.001C1.696,3.023,1.694,3.023,1.693,3.023V3.022L1.69,3.02l0,0h0.002C1.69,3.02,1.689,3.02,1.687,3.019 M2.363,3.352
				C2.358,3.347,2.352,3.341,2.346,3.335l0,0C2.352,3.341,2.358,3.347,2.363,3.352C2.356,3.347,2.35,3.341,2.343,3.335l0,0l0,0l0,0
				c0.003,0.004,0.006,0.008,0.01,0.012l0,0L2.35,3.344l0,0H2.349C2.346,3.341,2.344,3.338,2.341,3.336
				c-0.004,0-0.006-0.004-0.009-0.007C2.324,3.322,2.316,3.315,2.308,3.308l0,0C2.305,3.304,2.3,3.3,2.296,3.296L2.3,3.299
				L2.299,3.297l-0.01-0.008c-0.005-0.002-0.007-0.008-0.013-0.01c0.002,0.004,0.007,0.006,0.01,0.009L2.28,3.284
				C2.282,3.286,2.285,3.288,2.286,3.29c0,0-0.001,0-0.002,0c0.002,0.001,0.023,0.02,0.025,0.021L2.307,3.31
				C2.319,3.32,2.328,3.331,2.34,3.34l0.003,0.003l0.001,0.001l0.002,0.001l0.003,0.002c-0.001,0-0.001,0-0.002,0
				C2.349,3.35,2.352,3.352,2.354,3.355c-0.001,0-0.002-0.002-0.003-0.002c0.001,0.001,0.002,0.003,0.004,0.004l0.001,0.001h0.001
				H2.356C2.353,3.356,2.351,3.353,2.349,3.351L2.348,3.352c0,0.002,0.002,0.004,0.003,0.005C2.353,3.359,2.355,3.36,2.357,3.362
				l0,0L2.351,3.358c0,0-0.001,0-0.001-0.001c0,0,0,0.001-0.001,0.001c0.002,0.007,0.009,0.013,0.01,0.013
				C2.363,3.375,2.367,3.379,2.37,3.383C2.366,3.382,2.364,3.379,2.362,3.376c0,0,0,0,0-0.001L2.36,3.373
				C2.358,3.371,2.357,3.37,2.355,3.369c0,0,0.001,0.006,0.025,0.034H2.379H2.378c0,0.003,0.001,0.004,0.002,0.007H2.379
				c0,0.001,0,0.003,0,0.004c0.004,0.007,0.01,0.011,0.014,0.019c0.002,0.004-0.001,0.009,0.003,0.013l0.002,0.001
				c0,0.001,0,0.002,0,0.003c-0.002,0-0.004-0.001-0.007,0C2.387,3.447,2.385,3.444,2.383,3.442c-0.001,0-0.003,0-0.004,0
				C2.384,3.451,2.392,3.458,2.4,3.466c0,0,0,0,0,0.001C2.398,3.466,2.397,3.465,2.396,3.464c0,0.001-0.002,0.003-0.003,0.004
				C2.39,3.466,2.388,3.463,2.384,3.461c0,0.001-0.001,0.001-0.001,0.001c0,0.001,0,0.003,0,0.003H2.38V3.464
				C2.379,3.466,2.378,3.468,2.377,3.469C2.378,3.47,2.379,3.472,2.38,3.474c0.001-0.001,0.002-0.001,0.002-0.001
				s0.001,0.002,0.001,0.003c0,0.001,0.002,0.001,0.002,0.002L2.386,3.48l0,0c0,0-0.001,0-0.002,0
				C2.385,3.483,2.388,3.484,2.39,3.486c0.006,0,0.012,0.004,0.018,0.008l0.001-0.001L2.41,3.494l0.002,0.005
				c0.007,0.002,0.011,0.005,0.014,0.01c0.02,0.02,0.02,0.02,0.035,0.04c0.031,0,0.051,0,0.059,0L2.517,3.545
				C2.516,3.542,2.515,3.54,2.513,3.537L2.517,3.54C2.519,3.543,2.52,3.545,2.522,3.548c0.001,0.001,0.001,0.001,0.001,0.001
				c0-0.001-0.001-0.002-0.002-0.003c0.001,0,0.002,0.002,0.002,0.003l0,0l0,0C2.512,3.532,2.5,3.515,2.488,3.499
				C2.451,3.446,2.409,3.398,2.363,3.352 M2.053,3.125C2.016,3.106,1.979,3.089,1.941,3.074l0,0C1.94,3.073,1.938,3.072,1.937,3.072
				c-0.001,0-0.002,0-0.002,0c0.004,0.001,0.009,0.003,0.013,0.005c0.001,0,0.002,0,0.003,0.001c0.001,0,0.004,0.002,0.005,0.002
				c0,0-0.001,0-0.002,0c0.007,0.003,0.014,0.006,0.022,0.009C1.978,3.09,1.981,3.09,1.984,3.092l0,0
				C1.989,3.095,1.996,3.098,2.001,3.1l0,0C2.01,3.105,2.018,3.109,2.027,3.113c0.01,0.004,0.019,0.011,0.029,0.016l0,0
				C2.067,3.138,2.08,3.143,2.092,3.151L2.09,3.15C2.095,3.154,2.1,3.157,2.105,3.16C2.104,3.158,2.102,3.158,2.101,3.158l0,0l0,0
				l0,0l0,0l0,0l0,0l0,0l0,0L2.102,3.16C2.106,3.162,2.11,3.163,2.113,3.165c-0.001,0-0.002,0-0.002,0
				c0.004,0.004,0.008,0.007,0.013,0.01C2.126,3.176,2.128,3.177,2.13,3.179c0,0,0.001,0,0.002,0.001
				c0.005,0.007,0.014,0.01,0.021,0.015C2.156,3.197,2.159,3.2,2.163,3.202c0.001,0.001,0.003,0.002,0.005,0.003
				C2.173,3.21,2.181,3.213,2.187,3.218L2.19,3.22c0.001,0.001,0.003,0.002,0.003,0.003c-0.001,0,0,0,0.001,0.001l0,0L2.19,3.221
				H2.189l0.005,0.004L2.2,3.229L2.201,3.23L2.2,3.229L2.202,3.23L2.196,3.225c0.001,0,0.003,0.001,0.004,0.003
				c0.001,0,0.001,0,0.001,0L2.198,3.225C2.2,3.226,2.202,3.228,2.203,3.23c0.001,0,0.001,0,0.002,0.001
				c0.001,0.001,0.004,0.002,0.006,0.005c0.001,0,0.001,0,0.001,0c0.001,0.001,0.003,0.003,0.004,0.003
				c-0.001,0-0.001,0-0.002-0.001c0,0,0,0,0,0.001L2.211,3.236H2.21c0.009,0.006,0.019,0.011,0.027,0.019l0.002,0.001L2.237,3.254
				C2.238,3.255,2.24,3.256,2.241,3.258c0-0.001,0.001-0.002,0.001-0.003C2.23,3.244,2.218,3.233,2.206,3.223
				c0.004,0.003,0.007,0.009,0.013,0.01C2.227,3.238,2.235,3.244,2.242,3.25l0,0l0.003,0.003C2.254,3.258,2.26,3.267,2.269,3.272
				C2.278,3.277,2.286,3.283,2.294,3.29l0,0l0.002,0.002l0.002,0.002C2.305,3.3,2.312,3.307,2.32,3.314
				c0-0.001-0.001-0.002-0.001-0.002C2.315,3.307,2.31,3.304,2.306,3.3L2.303,3.297c0-0.001-0.001-0.002-0.001-0.002
				c0.001,0,0.002,0.002,0.003,0.003h0.001C2.298,3.292,2.291,3.287,2.284,3.28C2.262,3.262,2.24,3.244,2.217,3.228
				C2.165,3.189,2.11,3.155,2.053,3.125 M1.63,3.002L1.63,3.002C1.627,3.002,1.624,3.001,1.622,3H1.62l0,0C1.618,3,1.616,3,1.613,3
				l0,0c0.004,0.002,0.008,0.003,0.012,0.003l0,0l0,0l0,0l0,0l0,0l0,0l0,0l0,0C1.627,3.002,1.629,3.002,1.63,3.002l0.002,0.001
				C1.631,3.002,1.631,3.002,1.63,3.002 M1.607,2.998H1.606l0,0l0,0l0,0c0,0,0,0-0.001,0C1.607,2.998,1.61,3,1.612,3l0,0l0,0
				C1.611,2.998,1.609,2.998,1.607,2.998 M1.602,2.998c-0.001,0-0.003,0-0.004,0l0,0l0,0l0,0l0,0l0,0l0,0l0,0l0,0
				c0.001,0,0.005,0.001,0.005,0.001C1.603,2.998,1.603,2.998,1.602,2.998 M1.565,2.991H1.562c-0.002,0-0.003,0-0.005,0
				c0,0,0.01,0.002,0.011,0.002C1.567,2.991,1.566,2.991,1.565,2.991 M1.542,2.988c-0.002,0-0.004,0-0.005,0H1.536l0,0
				c0.003,0,0.005,0,0.008,0C1.544,2.988,1.543,2.988,1.542,2.988 M1.525,2.987H1.522l0,0C1.523,2.987,1.524,2.987,1.525,2.987
				c-0.003,0-0.005,0-0.007,0h0.001c0.004,0,0.009,0,0.013,0.001h0.002C1.529,2.987,1.527,2.987,1.525,2.987 M1.505,2.985
				L1.505,2.985H1.5c-0.004,0-0.009,0-0.013,0h0.001c0.004,0,0.007,0,0.011,0C1.501,2.985,1.503,2.985,1.505,2.985L1.505,2.985
				 M1.547,2.987c-0.016,0-0.032-0.002-0.047-0.002l0,0c0.005,0,0.011,0,0.016,0C1.526,2.985,1.536,2.986,1.547,2.987 M1.487,2.985
				c-0.003,0-0.007,0-0.01,0h0.002c0.005,0,0.011,0,0.016,0C1.492,2.985,1.489,2.985,1.487,2.985 M1.573,2.992L1.573,2.992
				L1.573,2.992L1.573,2.992L1.573,2.992 M1.756,2.984H1.702C1.7,2.984,1.698,3,1.696,3C1.697,3,1.699,3.01,1.7,3.01
				c0,0.001,0,0.006-0.001,0.007c-0.001-0.001,0.02,0.001,0.018,0.001c0.006,0.003,0.039,0.008,0.039,0.011
				C1.756,3.03,1.756,2.984,1.756,2.984H1.708v0.022C1.705,3.004,1.702,3.014,1.699,3.012L1.696,2.996
				c0.001,0.001,0.002-0.012,0.003-0.012c-0.001,0-0.002,0-0.003,0c0,0,0.029,0.022,0.03,0.022c0.001,0.001,0.03,0.012,0.03,0.012
				v0.005c0-0.003-0.043-0.014-0.048-0.021C1.704,2.999,1.67,2.984,1.665,2.984H1.663c0,0,0.001,0,0.002,0.001
				c-0.001,0-0.002-0.001-0.002-0.001c-0.001,0-0.001,0-0.001,0L1.756,3v0.007C1.563,3.006,1.703,3.009,1.699,3.008L1.675,2.996
				c-0.002,0-0.027-0.013-0.029-0.013l0,0c0.008,0,0.016-0.001,0.023,0h0.004h0.001L1.68,3c0.002,0,0.005,0.008,0.007,0.009
				c0,0-0.001,0.003-0.002,0.002c-0.004-0.001-0.008,0-0.011-0.001c0.004,0.001,0.008,0.004,0.012,0.004H1.684
				C1.681,3.013,1.678,2.999,1.675,2.998L1.672,2.984h0.046c-0.002,0,0.038,0.014,0.038,0.013V2.984H1.62
				c-0.005,0-0.058,0.023-0.058,0.022V2.993c0,0.001,0.093-0.01,0.095-0.01l0,0L1.652,2.995C1.65,2.994,1.647,3,1.645,3
				c0,0,0.001-0.008,0.002-0.008c-0.001,0-0.002-0.008-0.003-0.008c-0.001,0-0.082,0-0.082,0v0.011l0,0l0,0V2.989l0,0l0,0l0,0
				l0.077-0.006l0,0l0,0l0,0c-0.001,0-0.076,0-0.076,0l0,0v0.011V3l0,0v0.003v0.001l0,0c0,0,0.033-0.011,0.031-0.011
				c0.002-0.001,0.043-0.009,0.045-0.009l0,0c-0.003,0-0.005,0.011-0.008,0.009L1.625,2.997C1.623,2.997,1.621,3,1.619,3
				C1.62,3,1.622,3.002,1.623,3.003c0.002,0,0.004,0.001,0.005,0.002C1.623,3.003,1.618,3.002,1.614,3C1.612,3,1.611,3,1.609,3
				C1.61,3,1.611,3.001,1.612,3.001c0.002,0.001,0.004,0.001,0.005,0.002l0,0C1.614,3.002,1.61,3.001,1.607,3l0,0l0,0
				C1.605,3,1.602,2.999,1.6,2.998c-0.001,0-0.003-0.001-0.004-0.001c-0.001,0-0.015,0-0.016-0.001c-0.002,0-0.017,0-0.017-0.001
				V2.984h0.025L1.587,2.989L1.59,2.993c0,0,0.001-0.005,0.001-0.004c0.001,0,0.003-0.005,0.005-0.005c0.001,0-0.032,0-0.032,0V2.99
				v0.003l0,0v0.002l0,0v0.001V2.991c0-0.001,0.027-0.007,0.024-0.007l0,0c-0.005,0-0.016,0.003-0.022,0.003
				c0.001,0-0.001,0.003-0.001,0.003v0.001v0.001V2.984H1.57h0.002h0.001h0.001H1.569H1.563v0.005c0,0,0.006-0.005,0.005-0.005
				c-0.002,0-0.002,0-0.002,0l0.002,0.004c-0.003,0-0.005,0.001-0.005,0c0,0,0,0.001,0,0c0,0-0.011,0-0.015,0
				c0.002,0,0.002,0,0.004,0.001H1.545c-0.001,0-0.004-0.003-0.005-0.003c0.001,0,0.003-0.001,0.004-0.001c-0.001,0-0.001,0-0.002,0
				l0,0H1.54c-0.002,0-0.003,0-0.005,0H1.534c-0.002,0-0.004,0-0.006,0l0,0c0.001,0,0.003,0,0.004,0c-0.006,0-0.012,0-0.018,0l0,0
				c0.001,0,0.003,0,0.004,0c-0.004,0-0.008,0-0.012,0c0.001,0,0.002,0,0.002,0c0.002,0,0.002,0,0.002,0c-0.002,0-0.004,0-0.005,0
				c-0.003,0-0.005,0-0.007,0H1.496c0.001,0,0.001,0,0.002,0c-0.001,0-0.002,0-0.003,0c-0.002,0-0.004,0-0.005,0
				c-0.001,0-0.001,0-0.001,0H1.488H1.487c-0.001,0-0.002,0-0.003,0c-0.003,0-0.005,0-0.007,0c0.104,0,0.2,0.088,0.279,0.236
				c0.002,0,0.004,0.002,0.005,0.003c0,0-0.001,0.001-0.002,0.002c-0.001,0-0.001,0.001,0,0.001l0.002,0.001
				c0.001,0,0.003-0.001,0.004-0.001l0,0L1.764,3.226C1.763,3.228,1.762,3.229,1.761,3.231c0.003,0,0.005-0.002,0.007-0.004
				C1.769,3.228,1.769,3.229,1.77,3.229c0,0.001-0.001,0.004-0.002,0.004c0.001,0,0.003,0.002,0.004,0.002
				c0,0-0.001,0.001-0.002,0.002c0,0.001,0.001-0.029,0.001-0.029C1.775,3.21,1.777,3.177,1.779,3.177c0.001,0,0.002,0,0.002,0
				h0.001c0.001,0,0.002,0,0.003,0c0.001,0,0.001,0.03,0.001,0.03c0,0.002-0.002,0.017-0.003,0.018
				c0.005,0.002,0.014,0.007,0.014,0.014C1.799,3.241,1.799,3.244,1.8,3.244h0.001c0.001,0,0.002,0,0.003,0
				C1.806,3.246,1.807,3.248,1.808,3.25C1.807,3.251,1.805,3.252,1.804,3.252c0.004,0.001,0.009,0.002,0.013,0
				c0-0.001-0.001-0.001-0.001-0.002l0,0h0.003L1.82,3.249l0,0l0,0l0,0l0,0c0.005,0-0.034,0-0.031-0.002
				c0.002,0-0.033-0.002-0.033-0.003V3.242V3.241c0-0.001,0-0.002,0-0.003c0-0.001,0.04-0.001,0.04-0.001
				C1.798,3.239,1.82,3.24,1.821,3.241c0,0.002,0.008,0.004,0.008,0.005c0.001,0,0.008-0.002,0.01-0.002l0.004-0.003l0.004,0.003
				l0.004,0.003c0,0.001-0.046,0.004-0.047,0.005C1.803,3.254,1.756,3.255,1.756,3.256v-0.04c0,0,0.096-0.039,0.098-0.039l0,0
				c0,0,0.001,0.039,0.001,0.038L1.854,3.233c0,0,0.001,0.009,0.001,0.008c0.003,0,0.003,0.005,0.006,0.012
				c0.001,0.001,0.002,0.004,0.002,0.004c0.002-0.003,0.002-0.004,0.003-0.005c0,0.001,0,0.005,0.002,0.006
				c0,0,0.001,0.002,0.001,0.003S1.868,3.264,1.868,3.265C1.869,3.266,1.87,3.267,1.87,3.268c0.004-0.001,0.009,0,0.013,0
				c0-0.002,0.022-0.005,0.023-0.007c0.006,0,0.042,0.002,0.042,0.001c0,0,0-0.001,0-0.002c0-0.003-0.028-0.004-0.03-0.006
				c-0.004,0.003,0.01,0.003,0.006,0C1.928,3.252,1.949,3.25,1.949,3.247V3.176c0,0-0.053,0-0.054,0c0,0-0.001,0-0.002,0
				c-0.002,0-0.002,0-0.002,0c-0.003,0-0.005,0.034-0.007,0.033c0.002,0,0.004-0.016,0.005-0.016c-0.001,0-0.002-0.016-0.003-0.016
				l0,0l0.003,0.031C1.888,3.206,1.887,3.22,1.886,3.218c0.001,0,0.001,0.007,0,0.007c-0.004,0-0.008,0.005-0.011,0
				c0,0,0.001,0.001,0.002,0c0.002,0,0.004,0.002,0.006,0.002L1.88,3.222c0-0.002,0-0.004-0.001-0.005c-0.001,0-0.003,0.001-0.005,0
				c0.001,0,0.002-0.001,0.003-0.001c0-0.005-0.004-0.008-0.023-0.015c0.003,0,0.007,0.003,0.01,0H1.863
				C1.859,3.2,1.855,3.197,1.851,3.194C1.852,3.192,1.853,3.191,1.855,3.19c0-0.001-0.001-0.002-0.001-0.003L1.852,3.185
				C1.849,3.184,1.894,3.183,1.893,3.18c0.003,0.001-0.137,0.002,0.056,0.001l0,0C1.756,3.18,1.897,3.177,1.894,3.177H1.871
				c0.001,0-0.009,0-0.007,0.001c0-0.001-0.006-0.001-0.006-0.002H1.85c0,0-0.003,0.001-0.004,0.001c0.002,0-0.09,0-0.09,0V3.175
				l0,0l0,0l0,0v0.002h0.046H1.756V3.171L1.805,3.17c-0.001-0.001,0.021,0.003,0.02,0.002c-0.001,0.001,0.02,0.005,0.018,0.005
				c-0.002,0-0.003,0-0.004,0L1.756,3.17v0.003c0,0,0.083,0.003,0.085,0.003c0,0,0,0,0.001,0l0,0l0,0c0,0,0,0,0.001,0l0,0
				c0,0,0,0,0.001,0l0,0c0,0,0,0,0.001,0L1.848,3.17c-0.003-0.003-0.006-0.007-0.01-0.008L1.836,3.16L1.832,3.158
				c-0.001,0-0.004-0.001-0.005-0.002c0.002-0.004,0.002-0.005,0.006-0.005C1.831,3.149,1.828,3.146,1.825,3.145L1.822,3.143
				L1.819,3.142C1.815,3.141,1.811,3.138,1.807,3.137c0.003-0.002,0.007,0,0.01,0c0,0,0.001,0.024,0.002,0.023
				C1.815,3.153,1.812,3.177,1.806,3.177c-0.001,0-0.001,0-0.001,0c0.001,0,0.002,0.002,0.002,0.002
				C1.806,3.177,1.806,3.177,1.805,3.177c0,0,0,0,0.001,0c0.002,0-0.049-0.025-0.049-0.025V3.137c0-0.001,0.023-0.009,0.021-0.01
				c0.001,0,0.017-0.003,0.019-0.002h0.009c0.001,0,0.005,0,0.006,0c0,0,0.003-0.001,0.003-0.002c-0.001,0,0-0.002-0.001-0.002
				c0-0.001-0.023-0.001-0.022-0.001C1.788,3.116,1.756,3.114,1.756,3.113s0-0.001,0-0.002c0-0.002,0.047,0.065,0.046,0.065l0,0
				c-0.001,0-0.003-0.037-0.004-0.038C1.804,3.139,1.809,3.157,1.813,3.16c0.002,0.002,0.003,0.017,0.006,0.017
				c0.002,0,0.002,0,0.002,0c-0.003,0-0.004-0.035-0.006-0.037c0.001,0,0.003-0.014,0.004-0.013c0.001,0-0.028-0.007-0.028-0.007
				C1.789,3.117,1.756,3.112,1.756,3.11v0.067c0,0,0.033,0,0.034,0c-0.001,0,0.011-0.039,0.009-0.041
				c-0.002-0.001,0.003-0.019,0-0.02c0.004-0.002,0.008-0.01,0.013-0.009C1.811,3.101,1.808,3.141,1.804,3.138L1.8,3.177l0,0
				c-0.001,0-0.004-0.049-0.006-0.05L1.788,3.1L1.786,3.086C1.782,3.083,1.78,3.035,1.776,3.033c-0.004-0.004-0.005-0.05-0.009-0.05
				C1.767,2.984,1.756,2.984,1.756,2.984v0.038c0-0.001-0.002,0.018-0.006,0.015l0,0C1.755,3.039,1.763,3.049,1.768,3.05
				C1.77,3.051,1.771,3.055,1.771,3.055s0,0.001-0.001,0.001c-0.001-0.001-0.001,0-0.002,0c0.001,0,0.002,0.001,0.003,0.001
				C1.77,3.055,1.766,3.055,1.764,3.052c0.002,0,0.003,0.001,0.004,0.002C1.765,3.051,1.763,3.048,1.76,3.046
				C1.759,3.044,1.756,3.043,1.755,3.042c-0.001,0-0.001,0,0,0L1.754,3.041L1.75,3.04L1.747,3.038l0,0
				C1.739,3.034,1.732,3.032,1.725,3.029c0-0.001,0.023-0.001,0.023-0.001C1.743,3.027,1.756,3.005,1.756,3.003V2.984H1.733H1.756
				v0.019l0,0V2.984H1.733l0,0H1.756L1.756,2.984v0.038H1.73c-0.002,0-0.015-0.019-0.016-0.019c0-0.001-0.012-0.019-0.013-0.019"/>
			<path id="path6908" inkscape:connector-curvature="0" fill="#B3E710" d="M2.028,5.062c0.005-0.008,0.014-0.038,0.011-0.046
				c-0.009-0.003-0.02,0-0.026-0.009C1.99,4.976,1.99,4.976,1.985,4.974c-0.01-0.003-0.019,0.001-0.029,0
				c-0.009-0.002-0.015-0.011-0.024-0.01c-0.007,0-0.013,0.004-0.03,0.014C1.903,4.969,1.915,4.957,1.903,4.95
				c-0.002,0-0.004,0.002-0.006,0.003c-0.001,0-0.001,0-0.002,0c0-0.009,0-0.009-0.02-0.016C1.836,5.09,1.784,5.219,1.724,5.314
				C1.737,5.309,1.737,5.309,1.741,5.31c0.006-0.003,0.011-0.008,0.018-0.011c0.009-0.003,0.017,0.001,0.026,0
				c0.01-0.001,0.016-0.011,0.026-0.012c0.008-0.017,0.028-0.022,0.04-0.036C1.862,5.237,1.872,5.223,1.885,5.21
				c0.009-0.009,0.01-0.01,0.043-0.065c0,0,0.001,0,0.002,0c0,0.001,0,0.003,0,0.004c0,0.001,0,0.002,0.001,0.002
				c0.005-0.004,0.01-0.007,0.014-0.011c0.008-0.007,0.013-0.016,0.021-0.023c0.012-0.01,0.027-0.015,0.038-0.024
				C2.018,5.078,2.027,5.065,2.028,5.062 M2.489,4.981c0.012-0.016,0.023-0.033,0.035-0.049l0,0c0,0-0.001,0-0.002,0
				C2.519,4.934,2.518,4.936,2.516,4.939c-0.123,0.175-0.209,0.243-0.26,0.283c0.037-0.03,0.073-0.062,0.107-0.095
				C2.409,5.081,2.451,5.033,2.489,4.981 M1.855,4.932c0.004,0,0.008,0,0.012,0c-0.001,0-0.001-0.002-0.002-0.002
				C1.862,4.931,1.859,4.931,1.855,4.932 M1.844,4.926C1.844,4.926,1.844,4.925,1.844,4.926C1.842,4.922,1.83,4.921,1.81,4.921
				c0,0,0,0-0.001,0c0,0,0,0-0.001,0l0,0c0,0,0,0-0.001,0l0,0l0,0H1.806l0,0C1.803,4.924,1.801,4.927,1.8,4.932
				c0.014,0,0.028,0,0.041,0C1.842,4.929,1.842,4.927,1.844,4.926 M1.598,4.69L1.598,4.69c-0.001,0-0.002,0-0.003,0
				C1.589,4.692,1.583,4.692,1.581,4.691c0,0.001-0.001,0.001-0.001,0.002c0.002,0,0.004,0.001,0.005,0.002
				c-0.001,0.002-0.001,0.004,0,0.006c-0.003,0.001-0.007,0.001-0.01,0.005l0,0c0.007,0,0.013,0,0.02-0.001
				C1.596,4.7,1.596,4.695,1.598,4.69 M1.343,4.422V4.419C1.334,4.408,1.311,4.406,1.302,4.406l0,0l0,0l0,0l0,0l0,0l0,0l0,0l0,0
				L1.293,4.411C1.296,4.414,1.31,4.422,1.316,4.422c0.005,0.002,0.008-0.004,0.013-0.004C1.334,4.418,1.338,4.422,1.343,4.422
				L1.343,4.422L1.343,4.422L1.343,4.422 M1.614,4.412c0,0,0-0.001,0-0.003c-0.001,0-0.029-0.008-0.036-0.001
				c0.001,0.004,0.001,0.007,0.001,0.011c0.002,0.001,0.03-0.001,0.03-0.001C1.61,4.417,1.613,4.417,1.614,4.412 M1.547,4.406
				c0,0,0.001-0.001,0.001-0.002C1.536,4.392,1.516,4.393,1.507,4.377c-0.02-0.003-0.02-0.003-0.024-0.007H1.482H1.481
				C1.478,4.371,1.475,4.373,1.472,4.372c-0.004,0-0.007-0.002-0.01,0C1.458,4.375,1.456,4.375,1.45,4.374
				C1.427,4.37,1.427,4.37,1.417,4.371L1.416,4.373c0,0.001,0,0.002,0,0.003c0.006,0.002,0.013,0.002,0.019,0.006l0.001,0.001
				c0.002,0.004-0.002,0.008,0,0.012c0.003,0.004,0.007,0.004,0.01,0.007C1.432,4.41,1.406,4.404,1.395,4.401
				c0,0.001-0.002,0.003-0.003,0.004l0,0C1.395,4.41,1.401,4.412,1.405,4.416c0.004-0.002,0.006-0.004,0.009-0.005
				c0.004,0,0.007,0,0.01,0.001c0.01,0.002,0.021,0.001,0.031,0C1.46,4.417,1.464,4.423,1.471,4.426
				c0.005-0.012,0.009-0.015,0.018-0.02C1.491,4.408,1.493,4.41,1.495,4.412c0.008,0.003,0.011-0.009,0.02-0.006
				c0.003,0,0.005,0,0.008,0c0.006-0.001,0.01,0.002,0.014,0.006C1.538,4.413,1.54,4.414,1.541,4.415
				C1.543,4.412,1.545,4.409,1.547,4.406 M1.397,4.365L1.397,4.365C1.384,4.354,1.379,4.352,1.361,4.351l0,0l0,0l0,0l0,0l0,0l0,0
				l0,0l0,0L1.358,4.35l0.003-0.007c-0.013-0.009-0.031,0-0.043-0.013C1.313,4.325,1.31,4.32,1.304,4.317
				c-0.005-0.001-0.01-0.003-0.015-0.004C1.269,4.31,1.269,4.31,1.251,4.294c-0.002,0-0.005,0-0.007,0
				C1.222,4.289,1.215,4.289,1.198,4.288l0,0l0,0l0,0l0,0l0,0l0,0l0,0l0,0C1.174,4.29,1.138,4.296,1.142,4.316
				C1.141,4.317,1.138,4.319,1.137,4.321L1.135,4.323c0.008,0.003,0.015-0.002,0.017-0.01c0.044-0.014,0.044-0.014,0.054-0.012
				c0,0.001,0.001,0.002,0.002,0.003l0,0c-0.001,0-0.002,0-0.003,0.001c-0.001,0-0.002,0-0.003,0C1.2,4.307,1.199,4.307,1.198,4.307
				c-0.001,0-0.002,0-0.003,0c0.011,0.007,0.024,0.004,0.036,0.007c0.01,0.004,0.019,0.01,0.029,0.013c0.002,0.001,0.005,0,0.007,0
				C1.28,4.326,1.286,4.325,1.288,4.344c0.011,0.005,0.023,0.005,0.034,0.01C1.321,4.363,1.313,4.366,1.309,4.371c0,0,0,0,0,0.001
				c0.008,0,0.017-0.002,0.025-0.004C1.346,4.367,1.357,4.372,1.369,4.37C1.379,4.37,1.388,4.366,1.397,4.365 M1.369,3.945
				l0.002,0.001C1.368,3.943,1.367,3.939,1.365,3.934v0.001C1.366,3.94,1.369,3.945,1.369,3.945 M1.364,3.934L1.364,3.934V3.931
				V3.934 M1.363,3.931C1.364,3.931,1.364,3.931,1.363,3.931V3.929C1.363,3.93,1.363,3.93,1.363,3.931 M1.363,3.929L1.363,3.929
				V3.927C1.363,3.928,1.363,3.928,1.363,3.929 M1.362,3.927C1.363,3.927,1.363,3.927,1.362,3.927L1.362,3.927
				C1.362,3.926,1.362,3.926,1.362,3.927 M1.737,3.676C1.738,3.676,1.738,3.676,1.737,3.676C1.736,3.673,1.732,3.669,1.728,3.671
				c-0.006,0.001-0.007,0.008-0.013,0.01C1.714,3.68,1.712,3.68,1.711,3.679c-0.001-0.004,0-0.005,0.006-0.008
				C1.723,3.667,1.723,3.66,1.725,3.654C1.722,3.652,1.719,3.65,1.715,3.648v0.001C1.712,3.656,1.706,3.661,1.703,3.668
				c-0.002,0.004-0.002,0.007-0.001,0.01c0.003,0.008,0.015,0.011,0.024,0.008C1.732,3.684,1.736,3.68,1.737,3.676 M0.542,3.613
				l0.004-0.004c0.001-0.003,0.003-0.007,0.004-0.01c0-0.001,0-0.002,0-0.003c0-0.004-0.004-0.007-0.004-0.011
				c0-0.007,0.004-0.013,0.004-0.02V3.564C0.541,3.56,0.541,3.56,0.539,3.556C0.535,3.549,0.534,3.55,0.53,3.552H0.529
				C0.527,3.559,0.526,3.57,0.528,3.573c0.001,0,0.002-0.001,0.003-0.001c0,0.006,0,0.006-0.003,0.01v0.003
				c0.003,0,0.006,0.002,0.003,0.007C0.528,3.596,0.528,3.596,0.53,3.598c0.003-0.003,0.005-0.003,0.008-0.003
				C0.537,3.597,0.534,3.599,0.533,3.601c0,0.001-0.001,0.002-0.001,0.002C0.534,3.61,0.536,3.613,0.542,3.613L0.542,3.613
				L0.542,3.613 M1.823,4.883c0-0.003,0-0.002,0-0.004C1.808,4.87,1.808,4.872,1.805,4.833C1.802,4.83,1.728,4.776,1.71,4.798
				C1.705,4.796,1.698,4.796,1.693,4.795c-0.006-0.001-0.006,0-0.006,0L1.684,4.797c-0.01-0.017-0.06-0.019-0.071-0.021
				c-0.002,0.002-0.05,0.003-0.05,0.005v0.001c0-0.038,0.023-0.04-0.023-0.043c-0.004,0,0.019,0,0.019-0.001
				C1.576,4.73,1.592,4.723,1.593,4.721c-0.014-0.007-0.009-0.007-0.011-0.01C1.577,4.709,1.574,4.708,1.57,4.707
				C1.569,4.709,1.568,4.711,1.567,4.713c-0.002-0.004-0.005-0.01-0.009-0.012C1.553,4.698,1.553,4.697,1.553,4.696
				c0.006,0,0.012,0.002,0.017-0.001l0.001-0.002V4.692C1.538,4.687,1.505,4.696,1.473,4.693C1.444,4.69,1.419,4.674,1.39,4.673
				C1.388,4.669,1.385,4.662,1.383,4.658c-0.002,0-0.006,0.001-0.008,0.001c0,0.003,0.001,0.007,0.002,0.009l0.007-0.001L1.387,4.67
				C1.38,4.676,1.379,4.676,1.345,4.687c0,0,0.001,0.001,0.002,0.001c0.002,0.011,0.01,0.021,0.011,0.034
				c-0.004,0.002-0.01,0.004-0.014,0.004C1.333,4.712,1.331,4.708,1.342,4.691C1.337,4.674,1.337,4.674,1.337,4.669
				c0.005-0.002,0.011-0.003,0.016-0.004c0.001-0.001,0.028-0.002,0.029-0.003C1.38,4.659,1.37,4.659,1.37,4.669
				c0-0.003,0-0.005,0-0.007c0,0.001-0.051,0.06-0.05,0.06l0,0c0.009,0,0.009-0.067-0.044-0.074c-0.023-0.003-0.042-0.003-0.064,0
				c-0.02-0.017-0.077-0.072-0.041-0.124c0.005-0.008,0.001-0.025-0.003-0.033C1.164,4.49,1.158,4.487,1.154,4.486
				c-0.006-0.021-0.03-0.01-0.043-0.017c-0.014,0.007-0.048,0.007-0.06,0.002C1.05,4.472,1.049,4.473,1.048,4.474H1.047L1.041,4.47
				c0.012-0.028,0.012-0.028,0.014-0.05c0.001-0.007,0.001-0.009,0.001-0.011L1.05,4.411c0.001-0.004,0.002-0.009,0.003-0.012
				l0.002-0.002C1.057,4.401,1.06,4.406,1.062,4.41C1.063,4.4,1.064,4.39,1.065,4.38c-0.001,0-0.002,0-0.003,0L1.061,4.379
				L1.068,4.36C1.083,4.344,1.083,4.344,1.08,4.333C1.05,4.321,1.014,4.335,1.003,4.34C0.988,4.347,0.998,4.333,0.991,4.344
				c0,0.011,0-0.008-0.016-0.008H0.974c0.002,0,0.004,0.035,0.005,0.036C0.977,4.373,0.975,4.39,0.974,4.392
				c-0.002,0-0.005,0.007-0.007,0.007c-0.002-0.003-0.002,0-0.002-0.003c-0.028,0.007-0.055,0-0.082,0
				C0.84,4.331,0.84,4.331,0.837,4.312C0.829,4.245,0.853,4.157,0.853,4.157L0.848,4.143H0.847c0.005,0,0.012,0.002,0.017-0.001
				c0-0.003,0-0.003,0.001-0.007c0.017,0,0.017,0.002,0.041-0.014c-0.001-0.004-0.001-0.009,0-0.013l0.001,0.021
				c0.021,0,0.041,0.014,0.062,0.014H0.97L0.966,4.124V4.115l0.006-0.004c0.004,0.004,0.01,0.016,0.014,0.021
				c0.007,0.004,0.015,0.011,0.022,0.011c0,0,0,0,0.001,0L0.983,4.125l0,0l0.011-0.003L1.001,4.12l0.006-0.004
				C1.016,4.12,1.024,4.128,1.035,4.127C1.031,4.124,1.027,4.12,1.023,4.117c0.002-0.003,0.004-0.007,0.006-0.01
				c-0.007-0.006-0.007-0.008-0.02-0.005c0-0.003,0-0.005,0-0.008c0.004,0.001,0.01,0.003,0.013,0.005
				c0.016-0.008,0.016-0.008,0.037-0.005c0-0.002,0.001-0.004,0.002-0.007c0-0.001,0.001-0.001,0.001-0.001
				c0.002,0.003,0.006,0.008,0.01,0.01c0.004-0.002,0.004-0.003,0.004-0.004c0.01,0.002,0.01,0.002,0.024,0
				c0.03,0.023,0.03,0.023,0.043,0.014c0.004-0.004,0.004-0.004,0.045,0.025c-0.001,0.01-0.003,0.021-0.005,0.031h0.002
				c0.002,0,0.005-0.002,0.007-0.003c0,0.001,0,0.003,0,0.005C1.191,4.166,1.189,4.168,1.187,4.17
				c0.002,0.004,0.004,0.01,0.006,0.013C1.197,4.188,1.198,4.188,1.2,4.188c0.001,0.003,0.004,0.009,0.006,0.011
				c0.003,0.014,0.014,0.023,0.02,0.036c0.004-0.002,0.011-0.05,0.015-0.051c0,0.002,0-0.041-0.001-0.041h0.001
				c0.021,0-0.042-0.065-0.018-0.126C1.238,3.98,1.299,3.973,1.348,3.948v0.011L1.347,3.962L1.339,3.968H1.335L1.332,3.964
				c0.002,0.002,0.004,0.004,0.006,0.005C1.34,3.967,1.342,3.965,1.344,3.964c0.002-0.002,0.002-0.002,0.002-0.003
				c-0.004-0.002,0.004-0.004,0-0.007c0.003,0,0.024,0.002,0.024,0.001c0-0.001,0-0.001,0-0.001c0,0.001-0.009,0.001-0.007,0.002
				C1.366,3.955,1.357,3.95,1.361,3.95c0.001,0,0.002,0,0.003,0l0.002,0.002C1.365,3.95,1.364,3.95,1.363,3.95c0,0,0,0-0.001,0H1.37
				v0.001c0-0.003-0.005-0.006-0.006-0.009C1.359,3.943,1.349,3.944,1.345,3.944c0-0.002,0.012-0.005,0.011-0.008
				C1.357,3.935,1.37,3.935,1.37,3.934v0.005L1.358,3.942L1.357,3.94L1.352,3.937l0.01,0.003l0.007-0.001V3.937L1.36,3.939
				C1.363,3.94,1.361,3.95,1.362,3.95c0.001,0,0.001,0,0.002,0c-0.001,0-0.002-0.01-0.003-0.012c-0.002-0.004-0.001-0.006,0-0.006
				L1.36,3.927l0.001,0.009L1.362,3.95c0,0,0,0,0.001,0c-0.001,0-0.002-0.016-0.002-0.018c-0.01-0.003-0.017-0.013-0.025-0.017
				L1.339,3.91c0.004,0.003,0.009,0.004,0.013,0.007c0-0.001,0-0.004,0.001-0.006C1.35,3.91,1.347,3.929,1.345,3.928
				C1.346,3.929,1.347,3.95,1.347,3.95c0.001,0,0.002,0,0.002,0V3.948L1.353,3.95c0,0,0,0,0.001,0L1.353,3.922
				C1.349,3.92,1.344,3.906,1.341,3.902c0.003,0.002,0.006-0.001,0.008,0.001c0.002-0.002,0.004-0.006,0.005-0.008
				c-0.008-0.006-0.02-0.009-0.025-0.02c0.002-0.001,0.024-0.003,0.025-0.004L1.37,3.874c0,0.001,0,0.076,0,0.076H1.33
				c0.002,0,0.005-0.035,0.007-0.034c0-0.001,0.002-0.019,0.002-0.02C1.343,3.9,1.348,3.931,1.352,3.933
				C1.349,3.93,1.347,3.95,1.344,3.95c0,0,0,0,0.001,0h0.006l0,0c-0.003,0-0.003-0.052-0.004-0.059c0.001,0,0.003-0.017,0.004-0.017
				l0.001,0.035L1.354,3.95l0,0l0.002-0.052V3.876l0.003-0.015l0.004,0.04L1.361,3.95h0.003l0.001-0.047L1.37,3.858V3.95
				c0,0-0.012,0-0.011,0L1.352,3.909l0.011-0.021L1.37,3.866c0,0.001,0,0.002,0,0.002L1.36,3.866h0.005L1.37,3.87c0,0,0,0,0,0.001
				c0,0-0.004,0-0.002,0c0,0-0.004,0.002-0.003,0.002l-0.01,0.003H1.353L1.355,3.88l0.004,0.003L1.365,3.88l0.004,0.007L1.37,3.89
				v0.06H1.365c0.001,0,0.003,0,0.004,0c-0.008,0-0.008-0.018-0.009-0.008l0.002-0.015c0.002-0.005,0.004-0.016,0.007-0.018
				c0.011-0.024,0.011-0.071,0.003-0.1c0.002-0.002,0.003-0.052,0.005-0.052l0,0L1.372,3.85c0.003,0.004,0.008,0.1,0.012,0.1
				c0.003,0-0.014,0-0.014,0V3.864l0.009,0.001C1.385,3.86,1.394,3.854,1.4,3.849c0.008-0.02,0.01-0.02,0.003-0.03l0.006-0.001
				C1.41,3.815,1.412,3.812,1.413,3.81c0.02-0.002,0.04-0.01,0.061-0.011c0-0.002,0.001-0.005,0.002-0.007
				C1.477,3.791,1.479,3.79,1.481,3.788c0,0.002,0,0.005,0,0.007c0,0,0.001,0,0.001,0.001C1.484,3.795,1.487,3.794,1.49,3.792
				C1.492,3.79,1.492,3.79,1.492,3.79c0.002,0.001,0.004,0.003,0.006,0.004c0.003-0.001,0.006-0.002,0.009-0.002
				C1.508,3.79,1.539,3.787,1.54,3.785C1.538,3.784,1.563,3.782,1.563,3.78l0,0L1.507,3.756c0.001,0,0.056,0,0.056,0s0,0.03,0,0.031
				L1.529,3.79L1.512,3.788c-0.003-0.007-0.015-0.012-0.017-0.02c0.002,0,0.002-0.002,0.004-0.002c0-0.001-0.001-0.001-0.001-0.002
				c-0.003,0,0.023-0.003,0.021-0.003c0.008-0.014,0.044-0.014,0.044-0.02c0-0.002,0-0.004,0-0.005L1.54,3.733L1.525,3.746
				l-0.012,0.01l0,0l0.005-0.017L1.517,3.738l0.004-0.001L1.523,3.73l0.003,0.002C1.529,3.729,1.533,3.744,1.535,3.74
				c0.002-0.004,0.002,0.016,0.002,0.016h0.001L1.536,3.74l0.001-0.009l0.007-0.004L1.542,3.721C1.545,3.72,1.548,3.718,1.55,3.718
				C1.551,3.719,1.553,3.72,1.554,3.721c0.002-0.002,0.004-0.004,0.005-0.006c0.002,0,0.004,0,0.006,0
				c0.004-0.003,0.009,0.02,0.013,0.019c0.001-0.001,0.001,0.022,0.001,0.022c-0.001,0-0.003,0-0.004,0l0.002-0.028L1.575,3.711
				l0.003-0.004C1.585,3.705,1.593,3.704,1.599,3.7c0,0-0.001-0.003-0.001-0.004l0.006,0.002c0.001,0,0.016-0.005,0.029-0.016
				L1.63,3.715l0.008,0.041l0,0c-0.003,0-0.008-0.029-0.013-0.027c0,0.001,0-0.016-0.001-0.015c0.022-0.006,0.034-0.01,0.034-0.01
				c-0.005,0-0.011-0.003-0.015-0.002c-0.002,0.002-0.04,0.001-0.04,0.002L1.563,3.7v0.057h0.038l0,0l0,0L1.62,3.749l0,0l0,0l0,0
				l0,0C1.614,3.75,1.624,3.756,1.608,3.756c-0.001,0-0.001,0-0.001,0L1.563,3.712l0,0l0.02-0.001
				C1.58,3.713,1.588,3.716,1.585,3.717l0.007,0.001l0.009-0.004C1.596,3.72,1.596,3.722,1.6,3.734c0.001,0,0.002,0,0.003,0.001
				c0.003,0.004,0.008,0.007,0.012,0.009C1.616,3.742,1.617,3.74,1.617,3.739c0.002,0,0.005-0.001,0.007-0.001
				c0.002-0.001,0.002-0.002,0.002-0.004l0.002,0.001c0.005-0.006,0.012-0.011,0.014-0.02c0.001-0.001,0.002,0.019,0.003,0.019
				l0.001,0.022l0,0l-0.04-0.023L1.563,3.712v0.004c0,0.001,0.053,0,0.057-0.003L1.643,3.71h0.012l0.009,0.003
				c0.021-0.01,0.024-0.01,0.033-0.011c0,0,0.001-0.001,0.001-0.002c0.002,0,0.005,0,0.008,0c0,0,0-0.001-0.001-0.001l0.001-0.002
				L1.71,3.698l0.005-0.002C1.711,3.695,1.707,3.694,1.703,3.692l0.003-0.001l0.001-0.002L1.702,3.684
				c-0.004,0-0.01-0.001-0.013-0.004c-0.004,0.003-0.01,0.041-0.014,0.042l0.001,0.034c-0.001,0-0.001,0-0.001,0L1.674,3.719
				c-0.005,0-0.012-0.02-0.017-0.021L1.651,3.73C1.649,3.729,1.646,3.756,1.644,3.756l0,0h-0.08v-0.08L1.61,3.675L1.6,3.674
				C1.581,3.669,1.563,3.669,1.563,3.659c0-0.003,0-0.005,0-0.007c0-0.001,0.026-0.002,0.023-0.004
				c0.003-0.005,0.022-0.012,0.025-0.017L1.587,3.629L1.563,3.631c0-0.001,0-0.002,0-0.002c0,0.005,0-0.003,0-0.005V3.623
				c0-0.016,0.058-0.016,0.059-0.018c-0.04-0.039-0.113,0.027-0.143,0.052C1.536,3.558,1.6,3.561,1.678,3.566
				c0.015,0.001,0.044,0.007,0.056-0.008C1.644,3.556,1.55,3.564,1.451,3.564c-0.05,0-0.099,0-0.146,0c-0.33,0-0.604,0-0.753,0
				c0,0-0.001-0.003-0.002,0c0.002,0,0.005-0.008,0.007-0.007C0.555,3.561,0.554,3.564,0.552,3.564c0.002,0,0.005,0,0.007,0
				c-0.007,0-0.005,0.052-0.019,0.071C0.536,3.633,0.536,3.636,0.536,3.636c0.003-0.004,0.007-0.007,0.01-0.011
				C0.545,3.624,0.543,3.622,0.542,3.62c-0.004-0.001-0.011-0.001-0.015,0C0.525,3.628,0.523,3.637,0.52,3.645
				C0.518,3.651,0.518,3.651,0.518,3.651L0.52,3.648l0.002,0.003L0.518,3.652c0,0.001,0,0.002-0.001,0.002
				c0,0-0.001,0.001-0.001,0.002c0,0.001-0.001,0.001-0.001,0.002c0,0,0,0.001-0.001,0.002c0,0.001-0.001,0.001-0.001,0.002
				c0,0-0.001,0.001-0.001,0.002c0,0.001-0.001,0.001-0.001,0.002c0,0-0.001,0.001-0.001,0.002c0.003,0.002,0.002,0.002,0,0.002
				C0.503,3.694,0.486,3.714,0.482,3.74C0.474,3.754,0.474,3.754,0.448,3.852c0,0.002-0.001,0.005-0.001,0.006
				c0,0.005,0,0.005-0.001,0.005l0.006,0.028l0.002,0.002c0-0.002,0.001-0.004,0.002-0.007l0,0c0,0.005,0,0.011,0.001,0.016
				c0-0.002,0-0.007-0.003-0.008L0.453,3.896C0.447,3.925,0.463,3.951,0.46,3.98c0.004,0.002,0.011,0.004,0.015,0.005
				C0.477,3.988,0.478,3.99,0.479,3.992c0.007,0.003,0.007,0.003,0.007,0.003l0.002,0.008C0.49,4.004,0.541,4.005,0.543,4.006
				c0.003,0.009-0.14,0.02,0.054,0.03c0,0.001,0,0.001,0,0.001v0.001c0,0.001,0,0.001,0,0.001V4.04c0,0,0,0,0,0.001
				C0.403,4.043,0.403,4.043,0.403,4.044v0.001c0,0.001,0,0.001,0,0.001c0.194,0.001,0.083,0.112,0.076,0.118
				c-0.002-0.001,0.02-0.002,0.017-0.002c0,0,0.066,0.106,0.096,0.133C0.595,4.291,0.604,4.284,0.605,4.28
				C0.599,4.274,0.602,4.274,0.597,4.26c-0.002,0-0.004,0-0.006,0C0.583,4.245,0.574,4.191,0.574,4.19
				c-0.003,0-0.005-0.002-0.007-0.002C0.566,4.183,0.565,4.175,0.563,4.17C0.562,4.168,0.559,4.167,0.557,4.166
				c-0.006-0.032-0.021-0.062-0.03-0.093C0.528,4.068,0.529,4.062,0.53,4.058C0.534,4.06,0.541,4.06,0.544,4.059l0.003,0.002
				c0,0.002,0.001,0.005,0.001,0.007C0.55,4.069,0.553,4.071,0.555,4.072c0.012,0.067,0.015,0.076,0.06,0.127
				c-0.002,0.018-0.002,0.018,0,0.023l0.006-0.001c0.016,0.033,0.041,0.06,0.062,0.09c0,0.002-0.001,0.005-0.002,0.007
				c0.007,0.011,0.005,0.024,0.007,0.035C0.686,4.355,0.684,4.357,0.683,4.358C0.684,4.36,0.686,4.363,0.687,4.365
				c0.017,0.031,0.107,0.078,0.108,0.078c0.018,0.008,0.036,0.018,0.054,0.025c0.024,0.009,0.045-0.015,0.069-0.006
				c0.03,0.01,0.043,0.044,0.074,0.054l0.077,0.02c0.001-0.002,0.002-0.01,0.002-0.012C1.074,4.527,1.078,4.53,1.08,4.53
				c-0.002,0-0.097,0-0.097,0s0,0.006,0,0.007c0.193,0.015,0.078,0.034,0.095,0.049l0.019,0.001l0.017,0.004L1.12,4.594
				c-0.001,0.002,0,0.005-0.001,0.007C1.124,4.61,1.127,4.614,1.139,4.62l0.025-0.005C1.161,4.612,1.176,4.608,1.176,4.604l0,0
				c0,0.009,0.02,0.028,0.02,0.029c0,0.002-0.011,0.005-0.012,0.008c0.003,0.003-0.001,0.005,0.003,0.004L1.176,4.64v0.036
				c0,0.003,0.013,0.047,0.015,0.047c0.001,0,0.003,0,0.004,0c0.016,0,0.016-0.005,0.037,0.01c0.001-0.002,0.002-0.01,0.003-0.01
				c0,0,0,0,0.001,0c0.003,0,0.003-0.022,0.007-0.018c0.004,0,0.011-0.018,0.015-0.02c0-0.002-0.038-0.014-0.038-0.015
				C1.219,4.668,1.176,4.657,1.176,4.656c0-0.002,0-0.005,0-0.007c0-0.002,0.048-0.005,0.052-0.006
				c0.001-0.002,0.021-0.005,0.021-0.007C1.267,4.633,1.28,4.635,1.288,4.648C1.29,4.647,1.298,4.682,1.3,4.681
				c0.002,0.002,0.01,0.042,0.011,0.042c-0.002,0-0.005,0-0.007,0c-0.002,0-0.002-0.027,0.006-0.015
				C1.301,4.714,1.29,4.695,1.28,4.697c0,0.003-0.002,0-0.004,0.002c-0.002-0.001-0.004-0.008-0.005-0.01
				c-0.03,0.006-0.029,0.037-0.047,0.053c0.002,0.003,0.004,0.005,0.005,0.007c0,0.001-0.001,0.002-0.001,0.003H1.227
				C1.223,4.749,1.219,4.744,1.215,4.74C1.211,4.737,1.211,4.737,1.21,4.737c0.003,0.004,0.007,0.011,0.009,0.015
				C1.218,4.754,1.216,4.756,1.214,4.758c-0.002,0-0.004-0.002-0.006-0.002c0,0.004-0.001,0.011-0.001,0.015
				C1.229,4.79,1.223,4.832,1.223,4.833c0.002,0.002,0.004,0.004,0.006,0.005c-0.001,0.008-0.001,0.008-0.01,0.026
				C1.215,4.866,1.208,4.868,1.204,4.869c0,0.009,0,0.009-0.009,0.015c0.001,0.001,0.001,0.005,0.002,0.007
				c-0.006,0.004-0.015,0.007-0.02,0.014c0.002,0.008-0.001,0.008-0.001,0.017C1.261,4.924,1.353,4.917,1.45,4.917
				c0.114,0,0.225,0,0.328,0C1.791,4.916,1.814,4.903,1.823,4.883"/>
			
				<linearGradient id="path6915_1_" gradientUnits="userSpaceOnUse" x1="-53.1587" y1="119.3257" x2="-53.1587" y2="131.3491" gradientTransform="matrix(4.1667 0 0 4.1667 222.9597 -494.3943)">
				<stop  offset="0" style="stop-color:#76A1F0"/>
				<stop  offset="1" style="stop-color:#6B90D5"/>
			</linearGradient>
			<path id="path6915" inkscape:connector-curvature="0" fill="url(#path6915_1_)" d="M1.466,2.797
				c-0.795,0-1.443,0.647-1.443,1.443c0,0.795,0.647,1.443,1.443,1.443c0.796,0,1.443-0.647,1.443-1.443
				C2.909,3.444,2.262,2.797,1.466,2.797z M2.667,4.637C2.646,4.699,2.62,4.759,2.591,4.817C2.561,4.875,2.527,4.93,2.489,4.982
				c-0.038,0.052-0.08,0.1-0.125,0.146C2.318,5.173,2.269,5.215,2.217,5.253C2.165,5.291,2.11,5.325,2.053,5.355
				c-0.057,0.03-0.118,0.055-0.18,0.076C1.811,5.451,1.746,5.467,1.68,5.478C1.614,5.489,1.546,5.494,1.477,5.494
				c-1.269-0.05-1.628-1.51-0.816-2.207C0.989,3.005,1.343,2.99,1.477,2.985c0.069,0,0.137,0.006,0.203,0.016
				c0.066,0.011,0.131,0.027,0.193,0.048c0.062,0.021,0.122,0.046,0.18,0.076c0.058,0.03,0.113,0.065,0.164,0.103
				c0.052,0.038,0.101,0.08,0.146,0.125S2.45,3.447,2.488,3.499C2.526,3.551,2.56,3.606,2.59,3.664
				c0.03,0.058,0.055,0.118,0.076,0.18c0.021,0.063,0.037,0.127,0.048,0.193C2.725,4.104,2.73,4.172,2.73,4.241
				S2.724,4.378,2.714,4.444C2.703,4.51,2.687,4.575,2.667,4.637z"/>
		</g>
	</g>
</g>
<path id="path2" inkscape:connector-curvature="0" fill="#FFFFFF" stroke="#BBBBBB" stroke-linecap="round" stroke-linejoin="round" stroke-miterlimit="10" d="
	M16.977,6.744h4.416L15.8,0.96v4.536C15.8,6.168,16.328,6.744,16.977,6.744z"/>
</svg>
