<?xml version="1.0" encoding="utf-8"?>
<!-- Generator: Adobe Illustrator 15.0.0, SVG Export Plug-In . SVG Version: 6.00 Build 0)  -->
<!DOCTYPE svg PUBLIC "-//W3C//DTD SVG 1.1//EN" "http://www.w3.org/Graphics/SVG/1.1/DTD/svg11.dtd">
<svg version="1.1"
	 id="svg8" sodipodi:docname="icon.svg" xmlns:inkscape="http://www.inkscape.org/namespaces/inkscape" inkscape:version="0.92.2 5c3e80d, 2017-08-06" xmlns:sodipodi="http://sodipodi.sourceforge.net/DTD/sodipodi-0.dtd" xmlns:rdf="http://www.w3.org/1999/02/22-rdf-syntax-ns#" xmlns:svg="http://www.w3.org/2000/svg" xmlns:cc="http://creativecommons.org/ns#" xmlns:dc="http://purl.org/dc/elements/1.1/"
	 xmlns="http://www.w3.org/2000/svg" xmlns:xlink="http://www.w3.org/1999/xlink" x="0px" y="0px" width="24px" height="24px"
	 viewBox="0 0 24 24" enable-background="new 0 0 24 24" xml:space="preserve">
<path fill="#FFFFFF" stroke="#AAAAAA" stroke-linecap="round" stroke-linejoin="round" stroke-miterlimit="10" d="M15.707,6.504
	c-0.72,0-1.271-0.552-1.271-1.272V0.648H4.716c-0.72,0-1.271,0.552-1.271,1.272v20.232c0,0.72,0.552,1.271,1.271,1.271h14.545
	c0.719,0,1.271-0.552,1.271-1.271V6.504H15.707z"/>
<text transform="matrix(1 0 0 1 5.9771 6.228)" fill="#999999" font-family="'Helvetica-Bold'" font-size="4.6227">URL</text>
<path fill="#FFFFFF" stroke="#AAAAAA" stroke-linecap="round" stroke-linejoin="round" stroke-miterlimit="10" d="M15.707,6.504
	h4.849l-6.119-5.856v4.584C14.437,5.952,15.013,6.504,15.707,6.504z"/>
<path fill="#BBBBBB" d="M17.727,9.472v9c0,0.679-0.549,1.228-1.227,1.228h-9c-0.678,0-1.228-0.549-1.228-1.228v-9
	c0-0.678,0.549-1.228,1.228-1.228h9C17.178,8.245,17.727,8.794,17.727,9.472z M15.477,9.881h-2.863
	c-0.544,0-0.819,0.661-0.434,1.047l0.818,0.818l-4.999,4.999c-0.12,0.12-0.12,0.314,0,0.435l0.793,0.793
	c0.12,0.12,0.314,0.12,0.434,0l4.999-4.999l0.818,0.818c0.384,0.384,1.047,0.114,1.047-0.435v-2.863
	C16.09,10.156,15.816,9.881,15.477,9.881z"/>
<g id="final" transform="matrix(4.1666667,0,0,4.1666667,-0.09481365,0.25197717)">
	<g id="url_1_">
		<g id="g6917" enable-background="new    ">
			
				<radialGradient id="path6889_1_" cx="1.4785" cy="1.6537" r="5.6367" gradientTransform="matrix(1 0 0 -1 -0.0055 5.8936)" gradientUnits="userSpaceOnUse">
				<stop  offset="0" style="stop-color:#8BB4F0"/>
				<stop  offset="0.0772" style="stop-color:#88B1EF"/>
				<stop  offset="0.488" style="stop-color:#7FA7EC"/>
				<stop  offset="1" style="stop-color:#7CA4EB"/>
			</radialGradient>
			<path id="path6889" inkscape:connector-curvature="0" fill="url(#path6889_1_)" d="M1.471,5.594
				C0.101,5.539-0.286,3.964,0.59,3.211c0.355-0.305,0.737-0.32,0.881-0.326c0.075,0,0.148,0.006,0.22,0.017
				c0.071,0.012,0.141,0.029,0.208,0.052c0.068,0.022,0.132,0.05,0.194,0.082c0.062,0.033,0.122,0.07,0.178,0.11
				c0.056,0.041,0.108,0.086,0.158,0.135C2.476,3.331,2.522,3.383,2.563,3.44c0.041,0.056,0.078,0.115,0.11,0.177
				c0.032,0.062,0.06,0.127,0.082,0.195c0.022,0.067,0.04,0.136,0.051,0.208c0.012,0.071,0.018,0.145,0.018,0.22
				c0,0.075-0.006,0.148-0.018,0.22C2.795,4.531,2.778,4.601,2.755,4.668C2.733,4.735,2.705,4.8,2.673,4.862
				C2.641,4.924,2.604,4.984,2.563,5.04C2.522,5.096,2.476,5.148,2.428,5.197C2.378,5.246,2.326,5.292,2.27,5.332
				C2.214,5.374,2.155,5.41,2.093,5.442c-0.062,0.033-0.127,0.06-0.194,0.083C1.831,5.547,1.762,5.564,1.69,5.576
				C1.618,5.589,1.545,5.594,1.471,5.594"/>
			
				<radialGradient id="path6900_1_" cx="1.4785" cy="1.6541" r="5.2227" gradientTransform="matrix(1 0 0 -1 -0.0055 5.8936)" gradientUnits="userSpaceOnUse">
				<stop  offset="0" style="stop-color:#8BB4F0"/>
				<stop  offset="0.0772" style="stop-color:#88B1EF"/>
				<stop  offset="0.488" style="stop-color:#7FA7EC"/>
				<stop  offset="1" style="stop-color:#7CA4EB"/>
			</radialGradient>
			<path id="path6900" inkscape:connector-curvature="0" fill="url(#path6900_1_)" d="M1.471,5.494
				C0.202,5.443-0.157,3.984,0.655,3.287C0.983,3.005,1.338,2.99,1.471,2.985c0.069,0,0.137,0.006,0.203,0.017
				C1.74,3.012,1.805,3.028,1.867,3.049c0.062,0.02,0.123,0.046,0.18,0.076c0.058,0.03,0.112,0.064,0.164,0.102
				c0.052,0.039,0.101,0.081,0.146,0.126c0.046,0.045,0.087,0.094,0.126,0.146c0.038,0.052,0.072,0.107,0.102,0.165
				c0.03,0.057,0.055,0.118,0.076,0.18c0.021,0.062,0.037,0.127,0.047,0.193c0.011,0.066,0.017,0.134,0.017,0.204
				c0,0.069-0.006,0.137-0.017,0.203C2.698,4.51,2.681,4.575,2.661,4.637C2.64,4.699,2.615,4.759,2.585,4.817
				c-0.03,0.058-0.064,0.113-0.102,0.165c-0.038,0.052-0.08,0.101-0.126,0.146C2.312,5.173,2.263,5.215,2.211,5.253
				C2.159,5.291,2.104,5.325,2.047,5.355C1.99,5.385,1.93,5.41,1.867,5.431C1.805,5.451,1.74,5.467,1.674,5.478
				C1.608,5.489,1.54,5.494,1.471,5.494"/>
			<path id="path6902" inkscape:connector-curvature="0" fill="#B3E710" d="M1.195,3.131L1.195,3.131
				c0.002-0.016,0.002-0.016-0.003-0.02c0,0,0,0-0.001,0c-0.001,0-0.002,0-0.003,0C1.187,3.113,1.185,3.114,1.184,3.116
				C1.177,3.12,1.168,3.123,1.16,3.127c0,0,0.015,0.008,0.018,0.009C1.185,3.137,1.195,3.132,1.195,3.131 M0.591,3.564
				c0,0,0.377,0,0.704,0c-0.008,0,0.069-0.016,0.069-0.017l0,0V3.543l0,0V3.541V3.54l0,0l0,0l0,0c0-0.012-0.053-0.02-0.068-0.023
				C1.3,3.495,1.266,3.471,1.276,3.449C1.275,3.447,1.264,3.444,1.262,3.444c-0.023-0.01-0.054-0.01-0.077-0.016
				C1.164,3.422,1.151,3.401,1.131,3.395C1.119,3.39,1.117,3.39,1.091,3.396C1.09,3.395,1.089,3.393,1.088,3.392
				C1.1,3.366,1.1,3.366,1.07,3.352c0.002-0.033,0.032-0.054,0.083-0.09c-0.001,0-0.003-0.002-0.004-0.003
				C1.148,3.258,1.148,3.258,1.148,3.258l0.001-0.001c0.009-0.002,0.019-0.001,0.027-0.005C1.176,3.25,1.177,3.25,1.177,3.248
				C1.17,3.241,1.17,3.241,1.163,3.234C1.161,3.232,1.17,3.232,1.17,3.232V3.231c0,0.003,0.017,0.014,0.032,0.007
				C1.204,3.236,1.2,3.232,1.201,3.229c0.028,0,0.029,0,0.044-0.019c0.002-0.003,0.001-0.003,0.001-0.003
				C1.231,3.206,1.22,3.195,1.207,3.19c0.012-0.003,0.019-0.004,0.031,0.011c0.004,0,0.012,0,0.033-0.017
				C1.269,3.182,1.265,3.177,1.263,3.177c0,0,0,0,0,0l0.002-0.001C1.27,3.174,1.276,3.174,1.282,3.174c0,0.002,0,0.003,0,0.004
				c0.006,0.003,0.012,0.003,0.018,0.003c-0.003-0.007-0.003-0.007-0.01-0.013l0.004-0.002C1.302,3.169,1.304,3.176,1.31,3.18
				c0.028-0.015,0.028-0.015,0.031-0.02c0.005-0.011-0.009-0.016-0.007-0.026c0.001,0,0.003-0.001,0.004-0.001
				c0.002,0.001,0.005,0.003,0.008,0.003C1.35,3.132,1.352,3.13,1.35,3.122c-0.013,0-0.023-0.012-0.037-0.008
				C1.312,3.116,1.31,3.119,1.309,3.122c0.002,0.002,0.004,0.004,0.006,0.006C1.311,3.135,1.268,3.162,1.267,3.163
				C1.256,3.156,1.262,3.143,1.264,3.142c0.011-0.006,0.015-0.009,0.007-0.019c-0.01,0.003-0.016,0.011-0.024,0.016
				c0-0.001,0.002-0.016,0.008-0.02c0-0.001,0-0.003-0.001-0.004C1.25,3.115,1.246,3.116,1.242,3.114
				c0.001-0.004,0.001-0.004,0.015-0.011C1.257,3.094,1.264,3.088,1.263,3.078C1.261,3.077,1.258,3.075,1.256,3.075
				c-0.01,0.001-0.035,0.018-0.035,0.018c0,0.002,0.001,0.003,0.001,0.004C1.21,3.106,1.21,3.106,1.21,3.109
				c0.005,0.005,0.005,0.005,0.012,0.005C1.224,3.116,1.227,3.118,1.23,3.118c0.003,0,0.003,0,0.003,0c0,0-0.001,0-0.001,0.002
				c0,0-0.001,0-0.001,0.001c0,0-0.001,0-0.001,0.001c0,0-0.001,0-0.001,0.001c0,0,0,0-0.001,0.001c-0.001,0-0.001,0-0.001,0.001
				c0,0-0.001,0.001-0.001,0.002c0,0-0.001,0.001-0.001,0.001c0-0.001-0.002-0.003-0.002-0.004c-0.009,0-0.009,0-0.014,0.004
				C1.206,3.13,1.184,3.13,1.183,3.13c0.003,0-0.013-0.001-0.013-0.002c0,0.001,0,0.004,0,0.004L1.144,3.164
				C1.143,3.164,1.153,3.162,1.152,3.161c0.003-0.006,0.008-0.006,0.016-0.013c-0.003-0.009-0.01-0.01-0.015-0.006
				C1.156,3.143,1.16,3.145,1.162,3.147C1.161,3.15,1.159,3.152,1.157,3.154c-0.001,0-0.001,0-0.001,0l0,0l0,0l0,0l0,0l0,0l0,0l0,0
				c-0.001,0-0.003-0.002-0.004-0.003c0-0.001-0.001-0.003-0.001-0.004c-0.02,0.005-0.02,0.005-0.065-0.008h0l0,0c0,0,0,0,0,0l0,0
				l0,0l0,0h0l0,0c-0.04,0.021-0.04,0.021-0.055,0.036c0.002-0.01,0.002-0.01,0.012-0.016c0-0.002-0.001-0.003-0.001-0.005
				C1.041,3.154,1.039,3.152,1.038,3.149c-0.015,0-0.029,0.007-0.044,0c0.01-0.007,0.025-0.005,0.029-0.019
				C1.004,3.126,1.004,3.126,1.007,3.112C0.996,3.108,0.989,3.117,0.98,3.12c0.004-0.003,0.008-0.006,0.012-0.008
				C0.985,3.113,0.979,3.117,0.973,3.12c0.002-0.004,0.002-0.004,0.028-0.022C1,3.099,0.935,3.122,0.909,3.137
				C0.913,3.135,0.917,3.132,0.92,3.129C0.939,3.12,0.959,3.146,0.978,3.138C0.969,3.137,0.961,3.177,0.953,3.177
				c0,0-0.001,0-0.001,0c-0.013,0-0.013-0.004-0.017-0.006c-0.01,0.004-0.019,0.006-0.028,0.006h0.07V3.155
				c0-0.02-0.014-0.032-0.001-0.039c-0.001,0-0.02-0.005-0.022-0.005c0.004-0.003-0.002-0.007,0.002-0.01
				C0.941,3.109,0.915,3.119,0.899,3.127C0.848,3.155,0.781,3.195,0.733,3.228C0.708,3.247,0.674,3.272,0.65,3.292
				C0.647,3.296,0.642,3.298,0.639,3.301L0.638,3.302L0.604,3.333l0-0.001C0.617,3.321,0.63,3.31,0.642,3.298
				c0.001,0,0.002-0.002,0.004-0.003C0.64,3.301,0.635,3.307,0.63,3.313C0.631,3.312,0.632,3.311,0.633,3.31
				C0.63,3.314,0.627,3.317,0.624,3.32c0.001,0.001,0.002,0.002,0.003,0.003C0.628,3.322,0.63,3.321,0.631,3.321
				C0.629,3.323,0.627,3.326,0.626,3.328c0.001,0,0.003,0,0.004-0.001c-0.006,0.011-0.013,0.02-0.02,0.03
				c0.001,0,0.003,0.001,0.004,0.001c0.002-0.002-0.011-0.004-0.009-0.007C0.606,3.35,0.591,3.35,0.591,3.35c0,0,0,0,0,0
				c0,0.005,0.012,0.008,0.011,0.012c0,0.001,0.008,0.001,0.008,0.001c0.007-0.008,0.017,0,0.024-0.007c0,0,0.004,0.015,0.005,0.015
				s0,0,0.001,0c-0.014,0-0.014,0.001-0.024,0.02L0.611,3.386C0.601,3.4,0.594,3.413,0.582,3.426c0.003,0,0.008-0.004,0.008-0.004
				V3.421c0,0.01-0.014,0.016-0.016,0.028C0.578,3.446,0.582,3.442,0.585,3.44l0.001-0.001C0.578,3.454,0.563,3.464,0.559,3.481
				C0.561,3.48,0.565,3.511,0.567,3.51C0.563,3.517,0.56,3.564,0.557,3.564c0,0,0,0,0,0c0,0,0,0,0.001,0c0,0,0,0,0,0c0,0,0,0,0,0h0
				h0.001h0h0c-0.002,0-0.005-0.026-0.007-0.021c0.001,0,0.003-0.016,0.004-0.015C0.554,3.533,0.548,3.529,0.544,3.533
				C0.542,3.535,0.542,3.53,0.542,3.53c0.001,0.001,0.002,0,0.004,0.001C0.542,3.537,0.537,3.54,0.535,3.547
				c0.001,0,0.002,0.009,0.003,0.009c0.002,0,0.004,0.008,0.007,0.008 M1.619,3.066c0,0-0.001-0.001-0.002-0.002l0,0.001
				C1.616,3.068,1.616,3.068,1.62,3.069C1.621,3.068,1.62,3.067,1.619,3.066 M1.615,3.069c0-0.002-0.021-0.01-0.026-0.01
				c-0.005,0-0.004,0.003-0.004,0.003c0.001,0.002,0.003,0.001,0.004,0.002c-0.001,0-0.002,0-0.002,0l0,0.002
				c0.002,0,0.004,0.002,0.005,0.003c-0.001,0-0.002,0-0.004,0c0,0,0,0,0.001,0l0.003,0c0.002,0,0.004,0.001,0.006,0c0,0,0,0,0,0
				L1.599,3.07h0.002l0,0c-0.001,0-0.002,0-0.003,0c0,0-0.001,0.001-0.002,0.001C1.601,3.077,1.614,3.075,1.615,3.069
				C1.615,3.069,1.615,3.069,1.615,3.069 M1.159,3.116L1.159,3.116C1.168,3.106,1.169,3.104,1.162,3.1
				C1.157,3.098,1.158,3.097,1.158,3.095c0.003-0.006,0.003-0.006,0.014-0.013C1.176,3.08,1.201,3.059,1.201,3.059
				c0,0,0.001-0.002,0.001-0.002c0.002-0.004-0.004-0.005-0.004-0.005c-0.001,0-0.002,0-0.003,0.001
				C1.181,3.061,1.169,3.072,1.154,3.078c0.004-0.005,0.01-0.008,0.015-0.011c0.003-0.002,0.007-0.002,0.008-0.007
				c0-0.001-0.002-0.002-0.002-0.002c0,0,0,0,0,0c-0.021,0.01-0.021,0.01-0.028,0.011C1.16,3.061,1.16,3.061,1.159,3.059
				c-0.008-0.003-0.013,0.004-0.02,0.004c0.007-0.004,0.015-0.006,0.022-0.01C1.154,3.052,1.095,3.071,1.089,3.077
				c0,0,0,0,0.001,0.001C1.089,3.08,1.087,3.081,1.086,3.082c0.004,0,0.009,0,0.013-0.001C1.098,3.082,1.096,3.082,1.095,3.083
				L1.092,3.085c-0.001,0-0.003,0.001-0.004,0.001C1.079,3.089,1.067,3.082,1.06,3.093c0.002,0.002,0.002,0.002,0.013,0.002
				c0.018,0,0.019,0.002,0.016,0.008c-0.013,0.003-0.027,0-0.04,0.003c0,0,0,0,0,0h0.001c0,0,0,0,0,0c0,0,0,0,0,0c0,0,0,0,0,0
				c0,0,0,0,0,0c0,0,0,0-0.001,0c0,0,0,0,0,0c-0.003,0-0.005,0.001-0.007,0.003h0C1.034,3.114,1.031,3.118,1.031,3.12
				c0.001,0.003,0.003,0.001,0.005,0.002c0.002,0,0.005,0,0.007,0.001C1.042,3.131,1.032,3.127,1.031,3.135
				c0,0,0.025,0.002,0.039-0.004c0.003-0.001,0.005-0.002,0.008-0.003c0.005-0.002,0.01-0.001,0.015-0.003
				c0.005-0.002,0.009-0.007,0.015-0.007c0,0,0.001,0,0.001,0C1.1,3.135,1.131,3.128,1.131,3.128C1.14,3.125,1.14,3.125,1.145,3.119
				C1.14,3.118,1.136,3.12,1.132,3.12c0.002-0.002,0.005-0.004,0.007-0.006c0.004,0,0.009-0.002,0.013-0.004
				C1.154,3.112,1.155,3.116,1.159,3.116 M1.607,3.175L1.607,3.175C1.602,3.172,1.597,3.169,1.593,3.166
				C1.589,3.17,1.588,3.17,1.581,3.169c0-0.002,0-0.004-0.001-0.005c-0.007,0-0.013,0.001-0.02,0.001c0,0,0,0,0-0.001c0,0,0,0,0,0
				c0,0,0,0,0,0l0,0c0,0,0,0,0,0V3.162c0,0,0,0,0-0.001c0,0,0,0,0,0c0.003,0,0.005-0.001,0.008-0.002c0,0,0,0,0,0
				C1.559,3.15,1.553,3.149,1.553,3.148c-0.003,0-0.023,0.001-0.023,0.001c-0.006-0.01-0.02-0.01-0.027-0.018
				c0.003,0,0.005-0.001,0.008-0.001c0,0,0-0.001,0.001-0.002C1.509,3.127,1.506,3.125,1.504,3.123v0l0.002-0.001
				c0.007,0,0.013,0.004,0.021,0.003c-0.006-0.006-0.016-0.001-0.02-0.01c0.004-0.001,0.008-0.001,0.012-0.001
				C1.517,3.109,1.514,3.105,1.507,3.104C1.503,3.107,1.503,3.108,1.492,3.109c0,0-0.002-0.001-0.002-0.002L1.49,3.106
				c0.004-0.003,0.009-0.003,0.011-0.008C1.495,3.093,1.479,3.102,1.478,3.09C1.474,3.089,1.47,3.092,1.465,3.092
				C1.468,3.09,1.47,3.088,1.472,3.086v0C1.468,3.082,1.463,3.082,1.459,3.08C1.456,3.082,1.454,3.086,1.451,3.089
				C1.449,3.086,1.448,3.082,1.446,3.08c-0.004,0-0.008,0.004-0.012,0.004L1.432,3.082c0.003-0.003,0.006-0.005,0.01-0.006
				c0,0,0-0.001,0-0.001c-0.01-0.01-0.011-0.012-0.028-0.011c-0.008,0-0.008,0.009-0.014,0.013c-0.001,0-0.002-0.001-0.003-0.001
				c0-0.002,0.001-0.004,0.001-0.006c-0.002-0.001-0.004,0-0.007,0C1.388,3.073,1.386,3.075,1.38,3.074
				C1.379,3.073,1.379,3.072,1.379,3.072c0,0,0,0,0,0c0,0,0,0,0-0.001c0,0,0,0,0.001,0c0,0,0-0.001,0-0.001c0,0,0,0,0,0c0,0,0,0,0,0
				s0,0,0,0c0.003-0.003,0.007-0.007,0.01-0.01C1.389,3.05,1.385,3.037,1.36,3.052c0.001,0.002,0.003,0.003,0.004,0.005
				c-0.019,0-0.019,0.005-0.018,0.008C1.347,3.067,1.351,3.067,1.351,3.07C1.342,3.07,1.342,3.07,1.338,3.074
				c0,0.003,0.002,0.005,0.004,0.007C1.339,3.09,1.332,3.089,1.326,3.089c-0.001-0.001,0-0.001,0-0.003
				c0.003,0,0.005-0.001,0.008-0.004C1.33,3.072,1.33,3.072,1.337,3.067c0-0.001-0.001-0.003-0.002-0.004
				c0.006-0.009,0.017-0.011,0.026-0.016C1.358,3.045,1.354,3.045,1.35,3.046C1.323,3.052,1.31,3.064,1.306,3.068
				c0,0.001,0.001,0.002,0.001,0.004c-0.005,0.003-0.011,0.006-0.015,0.01C1.31,3.087,1.31,3.087,1.311,3.09
				C1.304,3.093,1.298,3.091,1.292,3.091c-0.01,0.012,0.012,0.01,0.012,0.01C1.305,3.101,1.306,3.1,1.307,3.098
				c0.001,0,0.002,0,0.003,0c0,0.002,0,0.004-0.001,0.005c0,0.001,0.001,0.002,0.002,0.002c0.001,0,0.001,0,0.002,0
				c0,0,0.001,0,0.002,0c0.001,0,0.001,0,0.002,0c0.001,0,0.001,0,0.002,0c0,0,0.001,0,0.002,0c0,0,0.001,0,0.002,0
				c0.001,0,0.001,0,0.002,0c0.001,0,0.001,0,0.002,0c0.003,0,0.006,0.002,0.009,0.002c0.01,0.001,0.02-0.003,0.028,0.005
				c0,0,0.001-0.002,0.001-0.002c0-0.002-0.001-0.003,0-0.005v0c0.003,0,0.004,0,0.009,0.001c0.017,0.009,0.016-0.004,0.014-0.005
				C1.382,3.1,1.376,3.1,1.373,3.095l0.002-0.001c0.005,0,0.009,0.004,0.014,0.002C1.393,3.101,1.401,3.102,1.4,3.11
				c0.001,0.001,0.002,0.001,0.003,0.002c0.005,0,0.005,0,0.018,0.011c0,0,0,0.002,0,0.002c-0.004,0-0.009,0.001-0.013,0.002
				c0,0.001,0,0.003,0,0.004c0,0.002,0,0.002,0,0.002c0.004,0,0.008-0.002,0.012-0.003c0,0,0.001,0,0.001,0c0,0,0.001,0,0.001,0
				c0,0,0,0,0.001,0c0,0,0,0,0,0c0,0,0,0,0,0c0,0,0.001,0,0.001,0c0,0,0,0,0.001,0h0.001c0.002-0.001,0.004-0.002,0.006-0.003
				c0.001,0.002,0.002,0.005,0.003,0.007c0.004,0.004,0.011,0.004,0.015,0.008c0.002,0.003,0.007,0.011,0.009,0.019
				C1.452,3.167,1.448,3.175,1.44,3.178C1.436,3.18,1.431,3.18,1.429,3.185C1.432,3.19,1.439,3.193,1.439,3.2v0
				c-0.009,0-0.018,0.003-0.028,0.003C1.411,3.206,1.411,3.209,1.411,3.21h0C1.398,3.196,1.384,3.201,1.383,3.202
				C1.383,3.203,1.382,3.205,1.382,3.207C1.371,3.211,1.37,3.211,1.369,3.22c0.026,0.009,0.03,0.005,0.039-0.002
				c0.005,0.002,0.01,0.005,0.015,0.004c0.001-0.002,0-0.004,0-0.007c0-0.001,0-0.001,0-0.002c0.006,0.001,0.013,0.004,0.02,0.005
				l0,0h0c0,0,0,0,0,0l0,0l0,0l0,0h0l0,0c0,0.007,0,0.007,0.029,0.022C1.47,3.243,1.468,3.244,1.465,3.247
				c0.006,0.01,0.018,0.008,0.026,0.012C1.5,3.26,1.505,3.267,1.513,3.269C1.526,3.27,1.526,3.27,1.551,3.278
				c0.003,0,0.006,0.002,0.009,0.003C1.555,3.27,1.547,3.261,1.529,3.253C1.514,3.247,1.512,3.243,1.51,3.237
				c0.007,0.001,0.012,0.004,0.019,0.007C1.528,3.241,1.527,3.239,1.526,3.236c0.006,0.004,0.011,0.01,0.017,0.014
				c0.002,0,0.003,0.001,0.004,0.002c0.004,0.001,0.008,0,0.012,0.001c0.007,0.004,0.011,0.01,0.017,0.012
				C1.574,3.262,1.572,3.257,1.569,3.254c0.002,0.001,0.004,0.001,0.007,0.001c0,0,0,0,0,0c-0.003-0.008-0.01-0.013-0.012-0.021
				C1.57,3.237,1.573,3.244,1.579,3.248C1.578,3.243,1.578,3.243,1.56,3.225c0,0,0-0.001,0-0.002l0.004,0c0,0,0,0,0.001,0
				C1.558,3.219,1.552,3.214,1.545,3.21C1.544,3.211,1.543,3.212,1.542,3.213L1.541,3.214C1.536,3.209,1.532,3.202,1.528,3.196
				c-0.003,0-0.005-0.001-0.008-0.001C1.517,3.191,1.514,3.187,1.512,3.182c0.016,0.007,0.016,0.007,0.017,0.006
				C1.526,3.185,1.523,3.182,1.52,3.18c0.001-0.003,0.004-0.004,0.006-0.005c0.012,0.002,0.021,0.01,0.032,0.014
				C1.558,3.195,1.56,3.202,1.569,3.198c0.009,0.01,0.009,0.01,0.017,0.011c0.001,0,0.001,0,0.001,0C1.583,3.2,1.583,3.2,1.582,3.19
				c0,0,0,0,0.001,0c0.003,0.003,0.005,0.005,0.009,0.006C1.593,3.192,1.593,3.19,1.6,3.188C1.597,3.185,1.593,3.184,1.59,3.18
				c0.005-0.003,0.009,0.001,0.013,0.001C1.604,3.179,1.606,3.177,1.607,3.175 M1.251,3.068l0.005-0.003
				c0.008-0.008,0.001-0.008,0.001-0.008c-0.001,0-0.002,0-0.004,0c0.004-0.007,0.013-0.006,0.02-0.009
				c0.002,0,0.004-0.001,0.006-0.002C1.28,3.044,1.276,3.044,1.276,3.044c0,0-0.001,0-0.001,0C1.271,3.046,1.267,3.048,1.263,3.047
				c0-0.001,0.001-0.001,0.001-0.003c-0.001,0-0.011,0.002-0.011,0.002L1.252,3.048L1.247,3.054
				C1.246,3.055,1.246,3.055,1.245,3.056C1.24,3.057,1.235,3.062,1.229,3.062c-0.003,0,0-0.004-0.001-0.006
				C1.207,3.065,1.215,3.07,1.215,3.07c0.006,0.002-0.002,0.008-0.002,0.013c0,0,0.008,0.005,0.012-0.005
				c0.001,0,0.001-0.001,0.002-0.002c0.001,0.001,0.001,0.002,0.001,0.002c0,0.003,0.001,0.003,0.004,0.002
				C1.24,3.078,1.245,3.071,1.251,3.068 M1.584,3.047C1.583,3.046,1.581,3.045,1.58,3.044c0,0,0,0,0,0
				C1.578,3.047,1.583,3.048,1.585,3.048C1.585,3.048,1.584,3.047,1.584,3.047 M1.325,3.045C1.325,3.045,1.325,3.045,1.325,3.045
				c0.001-0.001,0.001-0.003,0-0.003H1.324c-0.003,0-0.005,0-0.007,0.001c-0.004,0-0.007-0.004-0.012-0.003
				C1.297,3.042,1.297,3.042,1.293,3.047c-0.004,0-0.006,0-0.016,0.007c-0.006,0.004-0.01,0.01-0.014,0.015
				c0.002,0.002,0.006,0.003,0.016-0.004c0-0.002,0.001-0.004,0.001-0.005c0.006-0.001,0.011,0.002,0.017,0
				C1.298,3.06,1.325,3.046,1.325,3.045 M1.581,3.041c-0.001-0.001-0.003,0-0.004-0.001v0C1.579,3.041,1.581,3.042,1.581,3.041
				L1.581,3.041 M1.164,3.049l0.003-0.001C1.17,3.046,1.174,3.044,1.177,3.041c0,0,0,0,0,0c-0.003,0-0.006,0-0.009,0.001
				c0.001-0.004,0.005-0.004,0.008-0.006c0,0,0,0-0.001,0c-0.006,0.001-0.012,0-0.018,0.002C1.148,3.041,1.139,3.045,1.129,3.048
				C1.12,3.052,1.11,3.057,1.1,3.058l0,0l0,0l0,0h0l0,0l0,0l0,0l0,0c-0.008,0.004-0.015,0.007-0.023,0.01
				C1.073,3.069,1.07,3.07,1.067,3.072c-0.002,0-0.004,0-0.004,0.003c0,0,0.001,0,0.001,0c0,0,0,0,0,0
				c-0.006,0.006-0.013,0.009-0.02,0.012c0,0,0,0,0.001,0c0.001,0.001,0.002,0,0.003,0C1.055,3.086,1.06,3.083,1.067,3.082
				C1.079,3.08,1.089,3.071,1.102,3.068C1.11,3.066,1.118,3.062,1.125,3.06C1.138,3.056,1.151,3.053,1.164,3.049 M1.543,3.02
				C1.542,3.019,1.541,3.019,1.54,3.018c0,0,0,0,0,0C1.538,3.021,1.542,3.021,1.543,3.02C1.543,3.021,1.543,3.02,1.543,3.02
				 M1.417,3.026L1.417,3.026c0-0.003-0.003-0.003-0.005-0.004C1.41,3.021,1.41,3.02,1.409,3.019c-0.001,0-0.002,0-0.002,0
				c0,0-0.018,0-0.027,0.004C1.376,3.025,1.376,3.025,1.374,3.022c-0.001-0.003-0.004,0-0.005,0
				C1.366,3.022,1.364,3.024,1.361,3.024c0-0.003,0.002-0.004,0.004-0.005C1.362,3.018,1.36,3.018,1.358,3.018
				c0.004-0.003,0.01-0.003,0.015-0.005C1.372,3.013,1.372,3.012,1.371,3.011c0,0,0,0-0.001,0s-0.001,0-0.001,0c0,0,0,0-0.001,0
				c0,0,0,0-0.001,0c0,0,0,0-0.001,0c0,0,0,0,0,0c0,0-0.001,0-0.001,0c0,0-0.001,0-0.001,0c-0.003,0-0.006,0-0.008,0.002
				C1.348,3.019,1.34,3.025,1.332,3.032C1.335,3.033,1.337,3.031,1.34,3.03H1.34C1.339,3.033,1.338,3.038,1.346,3.034
				C1.347,3.033,1.349,3.033,1.35,3.032C1.352,3.031,1.354,3.031,1.357,3.03C1.355,3.032,1.353,3.033,1.352,3.036
				c0.01,0.002,0.015-0.002,0.016-0.003C1.372,3.033,1.376,3.036,1.38,3.034c0.004,0,0.006-0.004,0.009-0.005
				c0.001,0,0.001,0,0.002,0.001c0,0.001-0.001,0.002-0.002,0.004c0.003,0.003,0.003,0.003,0.017,0.001
				C1.407,3.032,1.407,3.032,1.417,3.026 M1.324,3.019c0.015-0.007,0.015-0.008,0.015-0.008c0,0-0.001,0-0.002,0
				C1.334,3.012,1.332,3.012,1.331,3.013h0c0-0.001,0.002-0.001,0.002-0.003c0,0,0,0-0.001,0C1.33,3.011,1.329,3.011,1.328,3.011
				C1.323,3.014,1.32,3.017,1.316,3.018h0c0.001-0.004,0.006-0.002,0.007-0.005C1.317,3.01,1.313,3.015,1.309,3.017c0,0,0,0,0,0
				C1.306,3.018,1.304,3.018,1.301,3.018l0,0c0,0,0,0-0.001,0l-0.001,0c0,0,0,0-0.001,0c0,0,0,0-0.001,0c0,0,0,0,0,0.001
				c0,0,0,0-0.001,0s0,0,0,0c-0.001,0-0.001,0.001-0.002,0.001C1.299,3.021,1.303,3.018,1.308,3.02c0,0.001-0.001,0.001-0.003,0.001
				C1.304,3.022,1.304,3.023,1.303,3.023c-0.002,0-0.012,0.003-0.012,0.005c0,0,0.01,0.001,0.012,0
				C1.31,3.024,1.317,3.022,1.324,3.019 M1.283,3.02c0.002,0,0.004-0.002,0.006-0.003c0-0.001,0-0.001,0-0.001
				c-0.005,0-0.008,0.003-0.012,0.004C1.278,3.02,1.279,3.019,1.279,3.018c0.008-0.003,0.017-0.005,0.025-0.009c0,0,0,0-0.001,0
				C1.297,3.01,1.291,3.011,1.285,3.013C1.27,3.021,1.264,3.022,1.255,3.022c0.003-0.004,0.009-0.004,0.013-0.006
				c-0.002,0-0.004,0.001-0.005,0.001c0.003-0.001,0.006-0.002,0.009-0.004c-0.005,0-0.01,0.001-0.015,0.003
				C1.252,3.016,1.247,3.018,1.243,3.02C1.241,3.022,1.238,3.021,1.235,3.021c-0.004,0-0.007,0.002-0.011,0.003
				c-0.001,0-0.002,0-0.002,0C1.22,3.025,1.218,3.025,1.217,3.027c0.002,0,0.004,0,0.006-0.001c-0.001,0-0.002,0.001-0.003,0.002
				c0.018-0.004,0.018-0.004,0.024-0.003h0C1.237,3.028,1.229,3.029,1.221,3.03c-0.002,0-0.005,0-0.007,0.001
				C1.212,3.032,1.21,3.033,1.209,3.033c0,0.001,0,0.002-0.001,0.002l0,0c0,0,0,0,0,0c0.003,0.001,0.006,0,0.009-0.001
				c0.005-0.001,0.011-0.003,0.016-0.004C1.243,3.029,1.243,3.029,1.25,3.029c0.003,0,0.006,0,0.009,0c0,0,0.001,0,0.001,0
				C1.268,3.027,1.275,3.023,1.283,3.02 M1.36,3.01c0.001,0,0.002-0.001,0.003-0.002c-0.001,0-0.002,0-0.003,0
				c0-0.001,0-0.001,0-0.001c0,0-0.001,0-0.001,0l0,0l0,0l0,0c0,0,0,0,0,0l0,0l0,0l0,0l0,0c-0.001,0-0.002,0-0.002,0l0,0l0,0l0,0
				l0,0l0,0l0,0l0,0l0,0c-0.004,0-0.007,0.003-0.01,0.005h0C1.351,3.012,1.356,3.012,1.36,3.01 M1.302,3.004
				c0.002-0.001,0.004-0.001,0.006-0.002c0,0-0.001,0-0.001,0c-0.002,0-0.004,0.001-0.006,0.001H1.299c0,0,0,0,0,0h0c0,0,0,0,0,0h0
				c0,0,0,0,0,0h0c0,0,0,0,0,0C1.279,3.005,1.236,3.015,1.235,3.016c0.003,0,0.005-0.001,0.008-0.002
				C1.24,3.015,1.236,3.016,1.233,3.018c0.006,0.002,0.01-0.003,0.015-0.004C1.258,3.012,1.267,3.01,1.277,3.008
				C1.271,3.01,1.265,3.011,1.259,3.013c0.006,0.001,0.012-0.004,0.018-0.004C1.285,3.009,1.293,3.005,1.302,3.004 M1.339,3
				l0.001-0.001l0,0c0,0-0.001,0-0.001,0l0,0l0,0l0,0l0,0l0,0l0,0l0,0l0,0C1.335,3,1.33,3,1.326,3
				C1.322,3.001,1.319,3.001,1.317,3.002c0,0,0,0,0,0.001C1.324,3.004,1.332,3.001,1.339,3 M1.393,2.996
				c0.002,0,0.005-0.001,0.006-0.003c0,0,0,0,0,0h0l0,0l0,0l0,0h0l0,0l0,0l0,0l0,0c-0.001,0-0.003,0-0.004,0
				C1.389,2.995,1.384,2.994,1.38,2.998l0,0C1.384,3,1.388,2.997,1.393,2.996 M1.369,3c0,0,0.022-0.006,0.024-0.007h0
				C1.397,2.99,1.401,2.991,1.405,2.989c0,0,0,0-0.001,0c-0.003,0-0.006,0-0.008,0.001c0,0-0.001,0-0.001,0
				c-0.001,0-0.015,0.004-0.016,0.004c0,0,0-0.001,0.001-0.001C1.377,2.992,1.376,2.994,1.375,2.994
				C1.372,2.995,1.369,2.995,1.367,2.996c0.002,0.001,0.004,0,0.007,0C1.37,2.998,1.366,2.998,1.363,3V3C1.365,3,1.368,3,1.369,3
				 M1.437,2.99c0.001,0,0.001,0,0.001,0C1.438,2.989,1.437,2.989,1.437,2.99c0-0.001,0.001-0.002,0.002-0.002c0,0,0.001,0,0.001,0
				c0,0,0.001,0,0.001,0s0.001,0,0.001,0c0,0,0,0,0.001,0c0,0,0.001,0,0.001,0c0.001,0,0.001,0,0.001,0c0,0,0.001,0,0.001,0
				c0,0,0.001,0,0.001,0c0.002,0,0.004-0.001,0.006-0.001c0,0-0.001,0-0.001,0c-0.002,0-0.004,0-0.005,0
				c0.003-0.001,0.007,0,0.01-0.001c-0.001,0-0.002,0-0.002,0c0.005,0,0.011,0,0.016,0c0,0,0,0,0,0c-0.003,0-0.006,0-0.008,0l0,0
				c-0.004,0-0.007,0-0.011,0C1.446,2.986,1.44,2.987,1.435,2.987l0,0l0,0C1.43,2.988,1.425,2.988,1.42,2.99
				c0.002,0,0.004,0,0.007-0.001C1.426,2.991,1.424,2.991,1.422,2.992C1.422,2.99,1.414,2.99,1.402,2.996c0,0,0.001,0,0.001,0
				c0.001,0,0.002,0.001,0.003,0.001c0,0,0,0,0,0c0.003,0,0.005-0.001,0.008-0.003C1.413,2.995,1.412,2.996,1.411,2.996
				c0.004,0,0.007-0.003,0.012-0.004c0,0-0.001,0-0.001,0c0.004,0.002,0.007-0.001,0.011-0.002C1.435,2.99,1.436,2.99,1.437,2.99
				C1.438,2.99,1.437,2.99,1.437,2.99 M1.471,2.985L1.471,2.985C1.471,2.985,1.47,2.985,1.471,2.985c-0.003,0-0.004,0-0.007,0
				c-0.001,0-0.002,0-0.004,0C1.464,2.985,1.467,2.985,1.471,2.985 M1.471,2.985L1.471,2.985H1.469c-0.001,0-0.001,0-0.002,0
				c-0.003,0-0.006,0-0.009,0c0.002,0,0.004,0,0.006,0c-0.001,0-0.002,0-0.002,0c0.002,0,0.004,0,0.006,0c-0.001,0-0.001,0-0.002,0
				c-0.001,0-0.003,0-0.004,0l0,0l0,0l0,0c0,0,0,0,0,0l0,0l0,0l0,0c0,0,0,0,0,0C1.457,2.986,1.454,2.989,1.45,2.988
				c0.001,0,0.003-0.001,0.004-0.001c0,0,0,0,0,0h0h0h0h0h0h0l0,0c-0.001,0-0.001,0-0.002,0H1.449c-0.002,0-0.004,0.001-0.005,0.001
				l0.002,0C1.444,2.989,1.442,2.989,1.44,2.99c0,0.001,0,0.002,0,0.003c0,0-0.003,0.002-0.004,0
				C1.433,2.99,1.421,2.995,1.417,2.996c0,0,0,0-0.001,0c0.002,0,0.004,0,0.006,0c0,0,0,0,0,0C1.42,2.998,1.418,3,1.416,3.001
				c0.002,0.001,0.004,0,0.006,0h0L1.419,3.002L1.418,3.004h0c-0.002,0.001-0.006,0.001-0.007,0C1.41,3.002,1.411,3.001,1.411,3
				C1.409,3,1.407,3,1.405,3C1.403,3.001,1.401,3.002,1.4,3.005C1.393,3.007,1.385,3.007,1.379,3.011c0,0,0.001,0.001,0.002,0.001
				c0.002,0,0.004-0.002,0.007-0.003c0,0.001,0,0.002,0,0.003c0.004,0,0.008,0.002,0.013,0c0.002-0.001,0.004-0.004,0.006-0.004
				c0,0.003,0,0.004,0.006,0.004l0,0c0.001,0,0.001-0.001,0.002-0.002c0.001,0,0.001-0.001,0.001-0.001c0,0,0.001,0.001,0.001,0.002
				c0.001,0,0.002-0.001,0.003-0.001c0,0.002-0.001,0.003-0.001,0.005c0,0,0.013-0.001,0.02-0.005c0,0,0,0,0,0v0h0h0c0,0,0,0,0,0
				s0,0,0,0c0,0,0,0,0,0l0,0V3.007c-0.005-0.002-0.011,0-0.016-0.003c0,0,0,0,0,0c0.007-0.003,0.016,0.001,0.022-0.006
				c0.003,0,0.006,0.001,0.008,0c0,0,0-0.001,0-0.001c0,0,0.001,0,0.001-0.001c0.004,0,0.008-0.004,0.008-0.005
				C1.46,2.99,1.458,2.99,1.456,2.99c0.004-0.003,0.007,0,0.01-0.002l0,0c0,0-0.001,0-0.001-0.001
				C1.468,2.987,1.471,2.99,1.473,2.987c0,0-0.001,0-0.001,0c0,0,0,0,0.001,0c0-0.001,0-0.001,0-0.001
				C1.472,2.985,1.472,2.985,1.471,2.985 M1.749,3.22C1.671,3.072,1.575,2.985,1.471,2.985h0h0.001h0.001c0.001,0,0.001,0,0.002,0
				h0.001h0l0,0h0h0c0.001,0.001,0.002,0.001,0.003,0.001s0.001,0,0.001,0v0l0,0H1.48l0,0h0c0.001,0,0.002,0,0.004,0l0,0
				c0,0,0.001,0,0.001,0c-0.001,0-0.002,0-0.003,0l0,0c0.001,0,0.002,0,0.003,0c-0.002,0-0.004,0-0.006,0.001c0,0,0.001,0,0.001,0
				c0,0,0.001,0,0.001,0c0.001,0,0.003,0.001,0.004,0.001C1.485,2.992,1.484,2.992,1.483,2.992l0,0.001
				c0.002,0.001,0.003,0.002,0.005,0.002c0-0.001,0-0.001,0-0.001L1.49,2.994l0,0l0,0c0,0,0.001-0.001,0.002-0.001
				c0,0.001,0.001,0.001,0.001,0.002c0,0,0,0,0-0.001c0,0,0.001,0,0.001,0s0-0.001,0-0.001c0,0,0.001,0.001,0.001,0.001c0,0,0,0,0,0
				c0,0,0.001-0.001,0.001-0.001c0,0,0.001,0.001,0.002,0.001h0.001c0.002,0,0.004,0.001,0.005,0.002c0.001,0,0.003,0,0.004,0.001
				H1.51c0.003,0.002,0.007,0.004,0.01,0.005c0.004,0.001,0.008,0.004,0.012,0.005c0,0,0,0,0,0.001l0.001,0c0,0,0,0-0.001,0.001
				C1.532,3.012,1.532,3.012,1.532,3.012c0.001,0,0.002,0,0.003,0C1.537,3.013,1.54,3.014,1.542,3.015v0H1.541
				c0,0.001,0.001,0.001,0.002,0.002l0.003,0.001l0.002,0l0.002,0.002c0,0,0,0.001,0,0.002c0.001,0,0.001,0,0.002,0l0.002,0l0.001,0
				h0c0.001,0.001,0.002,0.002,0.002,0.002c0,0,0,0,0,0c0.002,0.001,0.004,0.002,0.006,0.004l-0.002,0h0c0,0,0,0,0,0H1.56
				c0,0,0,0,0,0h0h0c0,0,0,0,0,0h0c-0.001,0-0.002,0-0.004,0c0.003,0,0.006,0,0.008,0.003c-0.001,0-0.001,0.002-0.002,0.003
				c0.001,0,0.003,0.001,0.004,0c0,0,0.001,0,0.001-0.001h0.001C1.566,3.038,1.565,3.038,1.562,3.039
				c0,0.001,0.001,0.001,0.001,0.002l0.001,0.001l0.003,0.001c0.003,0,0.006,0.001,0.008,0c0-0.002,0-0.003-0.001-0.004
				c0-0.001,0-0.002,0-0.003l0.001,0.001h0h0c0,0,0-0.001,0-0.001c0.001,0,0.001,0,0.001,0C1.579,3.037,1.581,3.039,1.583,3.04l0,0
				l0,0h0l0,0l0,0l0,0l0,0l0,0c0.001,0,0.002-0.001,0.003-0.002c0,0,0.001,0,0.001,0C1.587,3.039,1.585,3.04,1.585,3.04
				c0,0,0,0.001,0.001,0.002c0.001,0,0.001,0,0.002,0C1.588,3.041,1.589,3.041,1.59,3.041c0.001,0,0.001,0,0.001,0
				c-0.001,0-0.002,0.002-0.002,0.003l0,0.002c0.002,0,0.003-0.001,0.004-0.002c0.001,0,0.002,0.002,0.004,0.002
				c0.002,0,0.003,0,0.004,0.001c-0.002,0-0.004,0-0.006,0l0,0H1.595c0.004,0.002,0.008,0,0.011,0.003c-0.001,0-0.001,0-0.002,0.001
				c0.002,0.001,0.004,0.001,0.005,0.003c-0.001,0-0.002,0-0.003,0l0,0c0.002,0.001,0.004,0.001,0.005,0h0.001l0,0.002
				c-0.011,0-0.02-0.004-0.03-0.006c0,0,0,0,0,0c-0.001,0-0.001,0-0.002,0.001c0,0-0.001,0.001-0.001,0.001
				c0.001,0,0.002,0.001,0.004,0.002l0.001,0.002C1.587,3.057,1.59,3.057,1.593,3.058v0c0.001,0,0.001,0,0.002,0
				c0.006,0.002,0.012,0.004,0.018,0.005c0,0,0.001-0.001,0.001-0.001c0,0,0.001,0,0.001,0l0,0l0,0.001h0.001
				c0.001,0,0.003-0.001,0.004-0.002c0,0,0.001,0.001,0.001,0.002l0.001,0.002l0,0.001l0.003,0.001L1.623,3.067l0.002,0.001l0.001,0
				h0l-0.001,0l0.002,0.002L1.627,3.075h0c0.001,0,0.002-0.001,0.003-0.002c0.001,0.001,0.003,0.001,0.004,0.002l0,0c0,0,0,0,0,0
				c-0.001,0-0.002,0.001-0.004,0.001c0,0.001-0.001,0.002-0.001,0.003L1.63,3.079V3.08l0.001,0.003
				c0.001-0.001,0.002-0.002,0.003-0.002c0.002,0,0.002,0.001,0.003,0.003c-0.001,0-0.002,0-0.003,0.001
				c-0.005,0.002-0.01,0.003-0.014,0.007c0.003,0.001,0.006,0,0.009,0c0.003,0,0.006,0,0.008-0.002l-0.002,0l0.004,0
				c0,0,0,0.002,0,0.003c0.003,0.002,0.007,0.001,0.009,0.004C1.639,3.094,1.63,3.095,1.622,3.094c0,0,0,0,0,0v0
				C1.624,3.096,1.627,3.096,1.63,3.097c-0.003,0-0.006-0.001-0.009,0.001C1.62,3.1,1.62,3.104,1.621,3.106
				c0.004,0,0.004-0.004,0.007-0.005C1.63,3.1,1.631,3.099,1.633,3.098c0,0,0.001,0,0.001,0.001C1.635,3.1,1.637,3.1,1.638,3.1
				c0.001,0,0.002,0,0.003,0c0,0,0-0.001,0.001-0.001c0,0-0.001-0.001-0.001-0.001l0,0c0.002,0,0.004,0,0.006,0
				C1.645,3.098,1.645,3.1,1.645,3.101c0.001,0,0.002,0.001,0.004,0.001C1.632,3.102,1.632,3.102,1.623,3.108L1.621,3.109
				c0.007,0.002,0.013-0.001,0.019-0.002l0.003,0.001l0.003-0.001c0.003,0.001,0.005,0.002,0.007,0.004
				C1.638,3.109,1.635,3.11,1.625,3.113C1.628,3.114,1.63,3.116,1.633,3.117l0.008,0l0.002,0c0.001,0,0.003,0,0.004,0.002
				C1.644,3.123,1.639,3.121,1.635,3.123l0,0c0.003,0.001,0.006,0.001,0.009,0.002c-0.002,0-0.004,0.001-0.005,0.001
				c-0.004,0-0.004,0-0.005,0.002C1.635,3.13,1.637,3.131,1.639,3.131L1.637,3.133c0.006,0.005,0.01-0.006,0.015-0.009
				c0.002-0.005,0.002-0.007,0.014-0.01l0.003,0L1.669,3.117c-0.004,0.001-0.007,0-0.01,0.001C1.658,3.12,1.656,3.12,1.655,3.121
				c0,0,0,0.001,0,0.001C1.655,3.124,1.654,3.124,1.653,3.125c0,0,0.001,0.001,0.001,0.001C1.649,3.128,1.645,3.133,1.641,3.137
				l0.002,0.001c0.002,0.001,0.004,0.001,0.006,0c0,0,0.001,0,0.001,0.001C1.649,3.141,1.647,3.142,1.646,3.143
				c0.005,0.002,0.006,0.001,0.007-0.001c0.004,0,0.004,0.004,0.006,0.007c0.002-0.001,0.004-0.002,0.006-0.003h0h0
				C1.664,3.147,1.662,3.149,1.66,3.151c0.001,0.001,0.003,0.001,0.004,0.002c0.001,0,0.003,0,0.005,0l0,0.003H1.667
				c0.003,0.002,0.007,0.001,0.01,0.003C1.675,3.161,1.675,3.161,1.68,3.175l0.001,0.001c0,0,0.006-0.004,0.003-0.01l0.001-0.003h0
				c0.002,0,0.003,0.001,0.005,0.003H1.69l0-0.002C1.688,3.16,1.686,3.157,1.686,3.153l0.004,0.002L1.69,3.156
				c0.003,0.005,0.005,0.004,0.009,0.003c0.004,0.004,0.007,0.007,0.012,0.008C1.713,3.168,1.714,3.169,1.716,3.17
				c-0.001,0-0.001,0-0.001,0C1.708,3.169,1.699,3.157,1.693,3.166l0.004,0.002L1.695,3.17C1.693,3.172,1.69,3.174,1.686,3.176
				C1.693,3.18,1.702,3.173,1.704,3.171c0.002,0.001,0.004,0.002,0.005,0.003C1.703,3.175,1.697,3.178,1.692,3.18
				c0,0.001,0.001,0.003,0.004,0.004h0C1.695,3.185,1.694,3.185,1.693,3.186c0.003,0.001,0.004,0.003,0.006,0.005
				c0.004,0,0.007-0.004,0.011-0.004C1.709,3.19,1.707,3.192,1.705,3.195c0,0,0,0,0,0c0.001,0,0.001,0,0.001,0
				C1.718,3.193,1.718,3.193,1.72,3.199c0,0.001-0.001,0.002-0.002,0.003c0.001,0.003,0.001,0.003,0.006,0.002
				c0.001,0,0.001,0,0.001,0l0,0.004l0,0C1.728,3.206,1.729,3.204,1.73,3.202c0.001,0,0.002,0,0.002,0l0,0.004
				C1.731,3.217,1.731,3.217,1.737,3.219c0,0,0.001,0,0.001,0c0,0,0,0,0.001,0c0,0,0.001,0,0.001,0c0,0,0.001,0,0.001,0
				c0,0,0,0,0.001,0c0,0,0,0,0.001,0c0,0,0.001,0,0.001,0c0,0,0.001,0,0.001,0c0.001,0,0.003,0,0.004,0
				C1.748,3.219,1.749,3.22,1.749,3.22"/>
			<path id="path6904" inkscape:connector-curvature="0" fill="#B3E710" d="M1.441,5.479L1.441,5.479
				C1.44,5.478,1.44,5.478,1.439,5.478l-0.001,0c0.004,0.005,0.006,0.006,0.008,0.007V5.484C1.444,5.483,1.442,5.481,1.441,5.479
				C1.441,5.48,1.441,5.48,1.441,5.479 M1.834,4.933C1.834,4.933,1.835,4.932,1.834,4.933c-0.013-0.001-0.026-0.001-0.04-0.001
				C1.793,4.937,1.791,4.942,1.793,4.95C1.794,4.95,1.822,4.957,1.834,4.933 M1.718,5.314C1.778,5.219,1.83,5.09,1.869,4.937
				C1.866,4.936,1.864,4.934,1.862,4.932c-0.005,0-0.009,0-0.013,0c-0.018,0.003-0.023,0.023-0.038,0.03
				C1.812,4.96,1.813,4.957,1.814,4.954c-0.008-0.001-0.016,0-0.023,0C1.788,4.949,1.787,4.944,1.786,4.939
				c-0.02,0.009-0.02,0.001-0.024,0c0.004-0.004,0.007-0.022,0.011-0.022c-0.104,0-0.214,0-0.328,0c-0.096,0-0.189,0-0.277,0
				c-0.002,0-0.004,0.011-0.006,0.011c-0.001,0.01,0.007,0.02,0.004,0.03L1.165,4.961c0.011,0.01,0.013,0.008,0.021,0
				c0.017,0.015-0.014,0.029-0.021,0.044c0.004,0.009,0.014,0.014,0.016,0.024c-0.002,0-0.005,0.001-0.007,0.003
				c0.025,0.012,0.046,0.024,0.12,0.127c0,0,0,0.001,0,0.002c0,0.001,0.034,0.001,0.034,0.001c0,0,0.035,0.001,0.035,0.002
				c0,0.001,0,0.001,0,0.001c0,0,0,0.001,0,0.002S1.33,5.166,1.33,5.167c0,0.001-0.017,0.001-0.017,0.002c0,0-0.008,0-0.008,0.001
				c0.029,0.03,0.07,0.03,0.099,0.062c0.012,0.013-0.012,0.06-0.012,0.068C1.391,5.3,1.364,5.3,1.364,5.301v0v0.001c0,0,0,0,0,0
				c0,0,0,0,0,0v0v0c0,0,0,0,0,0.001c0,0,0,0,0,0L1.39,5.308c-0.002,0.014,0.02,0.14,0.02,0.141C1.41,5.449,1.414,5.45,1.413,5.45
				c0.001,0.001,0.005,0.002,0.006,0.003C1.42,5.454,1.422,5.455,1.422,5.455c0,0,0.001,0,0.001,0c0,0,0.001,0,0.001,0
				c0,0.001,0,0.001,0,0.001l0.001,0c0,0,0,0,0.001,0c0,0,0,0,0,0c0,0.001-0.034,0.001-0.033,0.001
				C1.394,5.46,1.364,5.463,1.364,5.465c0,0,0,0,0,0c0,0.009,0.043,0.01,0.048,0.014c0.002,0.003,0.021,0.007,0.025,0.008
				C1.439,5.49,1.449,5.492,1.452,5.493l0.002-0.001l0.003,0l0,0L1.456,5.493l0.002,0.003c0.001,0,0.001,0,0.002,0h0.004
				c0.002,0,0.002,0,0.003,0h0.001c0.001,0,0.001,0,0.002,0h0h0.003c0,0-0.002-0.003-0.002-0.004c0.003-0.003,0.005,0,0.009-0.003
				L1.475,5.496h0.004L1.48,5.488l0,0.001L1.479,5.496h0c-0.003,0-0.004-0.013-0.003-0.016c0.005,0.001,0.005-0.003,0.019-0.015
				c0.006,0.001,0.028,0.001,0.042-0.018C1.536,5.443,1.535,5.441,1.54,5.436C1.538,5.433,1.535,5.431,1.534,5.427l0.003-0.003
				c0.001,0.001,0.002,0.002,0.002,0.003c0.002,0,0.005,0,0.007,0C1.547,5.429,1.549,5.43,1.549,5.431
				c0.014-0.003,0.04-0.008,0.071-0.043c0.002-0.003,0.002-0.003,0.002-0.003c0.001,0,0.002,0.001,0.004,0.001
				c0.002,0,0.002,0,0.002,0C1.623,5.392,1.616,5.397,1.61,5.401c0.032-0.017,0.032-0.017,0.074-0.066
				c0-0.004,0.001-0.004,0.001-0.005C1.694,5.33,1.718,5.314,1.718,5.314 M2.661,4.591c0.001-0.001,0.001-0.003,0-0.005v0
				C2.659,4.59,2.659,4.593,2.657,4.595c0,0.001-0.001,0.003-0.001,0.004l0,0.001C2.659,4.598,2.659,4.594,2.661,4.591 M2.728,4.037
				C2.72,3.99,2.716,3.944,2.716,3.898V3.897c0-0.013-0.027-0.026-0.033-0.038C2.676,3.851,2.666,3.851,2.627,3.749
				c0,0.002-0.004,0.006-0.004,0.008C2.619,3.746,2.616,3.746,2.613,3.743c0,0.003,0,0.005,0,0.008
				C2.611,3.75,2.608,3.749,2.606,3.749C2.603,3.751,2.601,3.756,2.6,3.759C2.597,3.757,2.592,3.755,2.589,3.753
				C2.588,3.76,2.587,3.761,2.575,3.764C2.574,3.767,2.573,3.773,2.573,3.777c-0.008,0.005-0.006,0.015-0.01,0.022
				C2.559,3.798,2.554,3.795,2.551,3.794C2.54,3.799,2.54,3.799,2.524,3.778C2.523,3.779,2.501,3.871,2.516,3.909
				c0.021,0.053-0.031,0.083-0.039,0.126C2.469,4.079,2.449,4.12,2.453,4.165C2.454,4.164,2.455,4.162,2.455,4.16
				C2.47,4.173,2.468,4.297,2.447,4.318c0.006,0.008,0.008,0.019,0.012,0.028C2.459,4.347,2.457,4.35,2.456,4.352
				C2.454,4.36,2.454,4.368,2.453,4.376C2.456,4.38,2.456,4.38,2.456,4.38l0,0l0,0l0,0l0,0l0,0l0,0l0,0L2.46,4.359
				C2.461,4.36,2.463,4.336,2.464,4.336c0.002,0,0.004,0,0.006,0c0.001,0,0.002,0.03,0.003,0.032
				C2.473,4.371,2.496,4.386,2.495,4.389c0.002,0.002,0.028,0.019,0.028,0.022v0.004c0,0.001-0.02,0.002-0.018,0.003
				C2.504,4.427,2.506,4.427,2.52,4.455C2.521,4.46,2.523,4.461,2.523,4.461v0.001c0,0,0,0,0,0.001c0,0,0,0.001,0,0.001
				c0,0.001,0,0.001,0,0.001c0,0,0,0.001,0,0.001c0,0,0,0,0,0.001c0,0,0,0,0,0.001V4.47v0.002L2.492,4.53c0,0,0,0-0.001,0
				c0.004,0,0.048,0.066,0.049,0.067c0.017-0.003,0.029-0.044,0.048-0.03c0.001-0.001,0.003-0.009,0.004-0.01
				C2.595,4.56,2.597,4.562,2.598,4.565c0.014-0.01,0.055-0.044,0.055-0.044C2.656,4.529,2.686,4.53,2.685,4.542h0.031v0.002
				c0,0.013-0.034,0.018-0.033,0.027C2.687,4.57,2.676,4.568,2.68,4.567c0-0.001,0.018-0.004,0.019-0.004
				c0.001,0.006,0.018,0.013,0.018,0.02v0.001L2.689,4.586C2.686,4.603,2.668,4.623,2.658,4.644L2.652,4.645
				C2.65,4.652,2.644,4.657,2.643,4.664C2.642,4.669,2.64,4.669,2.64,4.669C2.638,4.673,2.631,4.684,2.625,4.7L2.622,4.709
				L2.621,4.711C2.619,4.717,2.617,4.716,2.615,4.723c-0.022,0.086-0.099,0.194-0.1,0.194c0.001,0,0.001,0,0.002,0c0,0,0,0,0,0
				c0.024,0,0.047-0.067,0.068-0.108c0.03-0.058,0.055-0.113,0.076-0.176c0.021-0.062,0.037-0.124,0.047-0.191
				C2.719,4.376,2.735,4.309,2.735,4.24C2.735,4.17,2.738,4.103,2.728,4.037 M2.613,3.722C2.613,3.722,2.613,3.722,2.613,3.722
				C2.613,3.722,2.613,3.722,2.613,3.722c0,0.001,0.002,0.002,0.001,0.004C2.612,3.725,2.611,3.722,2.61,3.72
				c0,0.001,0,0.002,0,0.002c0.003,0.013,0.012,0.024,0.018,0.036C2.624,3.746,2.618,3.734,2.613,3.722 M2.576,3.665
				C2.573,3.659,2.569,3.653,2.564,3.647c0,0.001,0,0.002,0.001,0.002c0.001,0.002,0.001,0.004,0,0.006c0,0,0,0,0,0
				c0.001,0.003,0.003,0.005,0.004,0.007c0.004,0.008,0.008,0.015,0.012,0.023C2.583,3.691,2.585,3.698,2.59,3.702
				c0-0.002-0.001-0.004-0.002-0.006V3.695c0,0,0,0,0,0C2.589,3.696,2.589,3.696,2.59,3.697C2.586,3.686,2.581,3.676,2.576,3.665
				 M2.551,3.621C2.547,3.615,2.544,3.608,2.54,3.603l0,0l0.004,0.006C2.545,3.613,2.545,3.617,2.547,3.62l0,0.002
				c0.002,0.003,0.003,0.004,0.004,0.007c0,0.001,0.001,0.001,0.001,0.002c0,0,0,0,0-0.001c0,0.001,0,0.001,0,0.001l0.001,0.002
				l0,0.001l0.002,0.002l0.001,0.003L2.559,3.64L2.56,3.641c0,0,0.001,0.001,0.001,0.002l0,0.001
				C2.559,3.635,2.555,3.628,2.551,3.621 M2.585,3.663c-0.003-0.006-0.006-0.012-0.01-0.019h0C2.573,3.642,2.572,3.64,2.571,3.639
				C2.57,3.637,2.569,3.634,2.567,3.632c0-0.001-0.048-0.079-0.054-0.083V3.548c-0.008,0-0.028,0-0.059,0
				c0,0.001,0.001,0.001,0.001,0.002c0,0,0-0.001-0.001-0.001C2.453,3.548,2.452,3.548,2.451,3.548
				c0.003,0.005,0.005,0.01,0.008,0.014c0-0.001,0-0.001,0-0.001L2.46,3.563v0.001c0.005,0.01,0.009,0.019,0.013,0.029
				C2.468,3.596,2.465,3.59,2.461,3.588c0.001,0.013-0.018-0.005-0.028-0.003C2.428,3.593,2.419,3.581,2.413,3.586
				c0,0.003,0.001,0.004,0.002,0.007C2.414,3.594,2.413,3.594,2.412,3.594c-0.006,0.001-0.003,0.007,0,0.012
				c0.009,0.004,0.01,0.006,0.017,0.027C2.446,3.66,2.45,3.682,2.455,3.705c0,0.002,0.002,0.004,0.003,0.004
				C2.459,3.708,2.459,3.705,2.46,3.704l0.002,0.004c0,0.002,0,0.003-0.002,0.003c-0.001,0-0.001,0.001-0.001,0.001l0.002,0.004
				c0.001,0,0.003,0,0.004-0.001c0,0,0.001,0,0.001,0.001C2.468,3.719,2.47,3.723,2.47,3.728c0.005,0.007,0.005,0.015,0.008,0.023
				c0,0,0,0.001,0,0.001C2.481,3.748,2.481,3.748,2.49,3.751c0.003-0.002,0.003-0.007,0.007-0.005
				C2.504,3.75,2.505,3.758,2.511,3.761c0.007,0.015,0.011,0.015,0.012,0.014c0-0.001,0-0.002,0-0.003l0,0l0.001,0.003h0
				C2.523,3.769,2.527,3.764,2.528,3.759c0.005,0,0.011,0,0.016,0c0-0.001,0.001-0.002,0.001-0.003
				c0.001,0.001,0.002,0.001,0.003,0.002c0.001-0.006-0.003-0.011-0.002-0.017c0-0.003,0.004-0.003,0.004-0.004
				C2.546,3.728,2.543,3.719,2.546,3.708c0-0.001,0-0.001-0.001-0.002C2.543,3.704,2.537,3.699,2.534,3.691
				C2.53,3.681,2.531,3.669,2.527,3.659L2.525,3.656C2.523,3.65,2.529,3.645,2.527,3.64C2.525,3.626,2.525,3.626,2.522,3.621
				C2.509,3.598,2.509,3.598,2.509,3.592c0.003,0,0.004,0.003,0.007,0.004c0,0,0-0.001,0.001-0.001
				C2.521,3.595,2.521,3.6,2.525,3.602c0,0,0.001-0.001,0.002-0.001c0-0.006-0.008-0.027-0.008-0.027
				C2.518,3.572,2.517,3.57,2.518,3.568C2.524,3.571,2.58,3.656,2.58,3.657c0,0-0.001-0.001-0.001-0.002l0,0l0.002,0.003L2.582,3.66
				l0.001,0.002c0,0,0-0.001-0.001-0.002C2.583,3.661,2.584,3.663,2.585,3.663c0.002,0.004,0.004,0.009,0.006,0.012l0,0
				c0.006,0.011,0.011,0.021,0.016,0.033c0,0.001,0,0.001,0.001,0.001l0,0L2.608,3.71c0.002,0.004,0.003,0.007,0.005,0.011
				c0.001,0.002,0.002,0.004,0.003,0.006l0.001,0.002l0,0C2.614,3.725,2.613,3.722,2.611,3.718C2.603,3.699,2.594,3.681,2.585,3.663
				 M2.517,3.549C2.517,3.549,2.516,3.549,2.517,3.549C2.516,3.548,2.516,3.548,2.517,3.549c0.002,0.003,0.004,0.007,0.006,0.01
				C2.521,3.556,2.519,3.552,2.517,3.549 M2.543,3.59C2.535,3.576,2.526,3.562,2.517,3.548c0,0,0,0,0,0c0,0,0,0,0,0
				c0.001,0.002,0.003,0.004,0.004,0.007c0.004,0.006,0.01,0.01,0.011,0.017c0,0.001,0,0.001,0,0.001
				C2.537,3.579,2.54,3.585,2.545,3.592C2.544,3.591,2.544,3.59,2.543,3.59 M1.799,3.538V3.536L1.798,3.533l-0.003,0H1.794
				C1.778,3.538,1.778,3.538,1.77,3.548c0.007,0,0.015,0,0.023,0c0-0.003-0.001-0.005-0.002-0.008
				C1.794,3.54,1.797,3.539,1.799,3.538 M0.546,3.474C0.55,3.47,0.544,3.47,0.541,3.47c0,0.001-0.001,0.001-0.002,0.001
				C0.536,3.476,0.533,3.483,0.531,3.489C0.538,3.486,0.541,3.479,0.546,3.474 M0.57,3.44c0,0,0.001-0.001,0.001-0.001
				c0.001-0.006,0.006-0.01,0.009-0.015c0.001-0.003,0.003-0.008,0.002-0.009c0,0-0.001,0-0.001,0.001
				C0.567,3.433,0.565,3.439,0.562,3.45c0,0,0.001-0.001,0.001-0.001c0,0,0.001-0.001,0.001-0.001c0,0,0.001-0.001,0.001-0.001
				c0-0.001,0-0.001,0.001-0.001c0,0,0.001,0,0.001-0.001c0-0.001,0.001-0.001,0.001-0.001C0.569,3.441,0.569,3.441,0.57,3.44
				 M0.585,3.401c0.004-0.004,0.007-0.009,0.011-0.013C0.595,3.387,0.595,3.386,0.595,3.385l0,0.001
				C0.588,3.393,0.582,3.4,0.578,3.409c0,0,0,0.001-0.001,0.001l0,0C0.579,3.406,0.582,3.404,0.585,3.401 M0.6,3.382
				c0.004-0.005,0.007-0.008,0.01-0.013C0.608,3.37,0.609,3.367,0.609,3.366c0,0-0.001,0-0.001,0
				C0.601,3.372,0.601,3.372,0.593,3.384C0.596,3.382,0.598,3.379,0.6,3.378C0.601,3.379,0.6,3.379,0.6,3.382 M1.75,3.564
				c0,0,0-0.047,0-0.047c0-0.004,0.013-0.007,0.009-0.011c0.009-0.031-0.008-0.026-0.008-0.026c-0.002,0,0.001,0.003-0.001,0.004
				c-0.001-0.001,0-0.003-0.001-0.004c0-0.002,0.002-0.004,0.003-0.006c-0.003-0.004-0.01-0.008-0.017-0.006
				C1.72,3.472,1.71,3.484,1.696,3.488c0-0.009,0.001-0.01,0.003-0.013c0.02-0.001,0.043-0.017,0.044-0.019
				C1.69,3.444,1.69,3.421,1.682,3.421C1.684,3.411,1.685,3.37,1.661,3.37c0,0-0.001,0-0.001,0c0,0-0.001,0-0.001,0
				c0,0-0.001,0-0.001,0c0,0-0.001,0-0.001,0c0,0-0.001,0-0.001,0c0,0-0.001,0-0.001,0c0,0,0,0-0.001,0c0,0,0,0-0.001,0
				c-0.005,0-0.009,0.014-0.013,0.009c0,0,0,0.011,0,0.011c0.006-0.001,0.011,0.007,0.017,0.006C1.66,3.385,1.648,3.388,1.642,3.383
				c0.002-0.001,0.003-0.001,0.005-0.001C1.644,3.371,1.632,3.37,1.628,3.361c-0.002,0-0.004,0-0.005,0c0-0.002,0-0.004,0-0.006
				C1.613,3.341,1.599,3.331,1.587,3.319C1.584,3.326,1.583,3.327,1.575,3.33c0,0.003,0,0.008,0.004,0.013
				C1.57,3.355,1.57,3.37,1.571,3.37c0,0,0,0,0,0c-0.003,0-0.006-0.012-0.011-0.014c-0.007,0.015-0.017,0.016-0.03,0.01
				c0-0.001,0.001,0.003,0.001,0.003C1.525,3.357,1.52,3.37,1.501,3.37c0,0,0,0,0,0c-0.004,0-0.001-0.015,0-0.016
				c0.002,0,0.004,0.032,0.005,0.032C1.508,3.377,1.503,3.37,1.503,3.37c0,0,0,0,0,0c-0.02,0-0.04-0.042-0.039-0.046
				c0-0.001,0.001-0.019,0.002-0.02C1.455,3.298,1.449,3.279,1.437,3.277c-0.01-0.003-0.019,0-0.029,0
				c-0.012,0-0.022-0.009-0.034-0.01c-0.001,0-0.003-0.001-0.004-0.001C1.369,3.267,1.354,3.274,1.373,3.288
				C1.37,3.295,1.364,3.299,1.364,3.306v0c0,0,0.003,0,0.007,0C1.369,3.315,1.372,3.322,1.367,3.33L1.341,3.354
				c0.008,0.018,0.04,0.023,0.031,0.05c-0.004,0.011-0.018,0.08-0.066,0.093c0.001,0.01,0.011,0.067,0.011,0.067
				c-0.001,0-0.003,0-0.004,0c0.001,0,0.05-0.079,0.05-0.075c0,0.001,0,0.001,0,0.002c0,0,0,0,0,0.001v0c0,0.001,0,0.001,0,0.001
				c0,0,0,0.001,0,0.001c0,0,0,0,0,0.001c0,0.001,0,0.001,0,0.001c0,0,0,0,0,0c0,0.024-0.02,0.024-0.026,0.03
				c0,0.006-0.013,0.011-0.014,0.016C1.32,3.54,1.312,3.535,1.308,3.532C1.305,3.535,1.299,3.537,1.297,3.54
				c0.001,0.002,0.001,0.011,0.002,0.014c0.048,0.002,0.096,0.01,0.146,0.01c0.099,0,0.195,0,0.286,0
				c0.003,0-0.015-0.015-0.012-0.018C1.752,3.543,1.75,3.535,1.75,3.518 M1.753,3.226C1.753,3.225,1.752,3.225,1.753,3.226
				L1.753,3.226L1.753,3.226 M1.334,3.237L1.334,3.237C1.328,3.233,1.328,3.233,1.311,3.231C1.312,3.227,1.314,3.22,1.313,3.218
				c0,0-0.001-0.001-0.002-0.002C1.307,3.214,1.303,3.214,1.299,3.212C1.294,3.209,1.29,3.203,1.285,3.201
				C1.284,3.202,1.282,3.204,1.281,3.205C1.278,3.204,1.276,3.203,1.274,3.201C1.276,3.2,1.277,3.197,1.278,3.196
				C1.277,3.194,1.275,3.192,1.274,3.191C1.273,3.192,1.272,3.193,1.271,3.194c-0.017,0.02-0.019,0.024-0.019,0.034
				C1.24,3.232,1.237,3.233,1.232,3.24c0,0.001,0,0.001,0,0.001C1.239,3.24,1.247,3.239,1.255,3.237
				c0,0.004-0.002,0.008-0.003,0.012c0.003,0,0.007-0.001,0.009-0.002c0.005-0.002,0.009-0.006,0.015-0.008
				c0.004-0.001,0.007-0.001,0.01-0.003c0-0.003,0.001-0.006,0.003-0.008c0.003,0,0.006,0,0.009,0.002
				c0.003,0.003,0.003,0.007,0.005,0.009C1.31,3.243,1.318,3.241,1.325,3.243C1.327,3.241,1.33,3.239,1.334,3.237 M1.422,3.146
				c0-0.001,0-0.001,0-0.002C1.419,3.141,1.415,3.139,1.412,3.14c-0.02,0.004-0.02,0.018-0.017,0.02
				C1.395,3.161,1.418,3.172,1.422,3.146"/>
			<path id="path6906" inkscape:connector-curvature="0" fill="#B3E710" d="M1.874,3.642c0-0.001,0-0.004-0.001-0.005
				c-0.003,0-0.005,0.001-0.007-0.001C1.864,3.634,1.866,3.63,1.864,3.628L1.859,3.626C1.858,3.628,1.857,3.63,1.856,3.632
				c0,0,0,0-0.001,0C1.853,3.629,1.85,3.625,1.848,3.621V3.62c0.005-0.003,0.01-0.004,0.013-0.008c0-0.001,0-0.002,0-0.003
				L1.857,3.608C1.85,3.613,1.85,3.613,1.839,3.604C1.842,3.6,1.846,3.596,1.849,3.592C1.845,3.589,1.836,3.585,1.826,3.586
				C1.825,3.588,1.824,3.59,1.824,3.591C1.815,3.593,1.807,3.588,1.798,3.583c0,0,0-0.001,0-0.001c0,0,0-0.001,0-0.001
				C1.8,3.578,1.802,3.576,1.804,3.574C1.801,3.573,1.798,3.569,1.794,3.57c-0.006,0.001-0.007,0.008-0.013,0.01
				C1.781,3.569,1.791,3.559,1.793,3.548c-0.007,0-0.015,0-0.023,0C1.762,3.561,1.757,3.572,1.754,3.586
				c0.003,0.003,0.005,0.005,0.008,0.008c0,0-0.001,0.001-0.002,0.002C1.757,3.598,1.753,3.597,1.75,3.6
				C1.748,3.602,1.748,3.605,1.746,3.607C1.75,3.608,1.754,3.609,1.757,3.609c-0.006,0.005-0.014,0.007-0.02,0.013
				C1.735,3.626,1.735,3.626,1.739,3.634C1.76,3.631,1.76,3.631,1.784,3.634c0.005,0,0.019,0.003,0.02-0.004c0,0,0,0,0-0.001
				c0.002,0,0.004,0,0.007-0.001c0,0.001,0,0.001,0,0.001c0,0,0,0.001,0,0.001c0,0,0,0,0,0.001c0,0,0,0,0,0.001c0,0,0,0,0,0.001
				c0,0,0,0,0,0c0,0,0,0.001,0,0.001c0,0,0,0,0,0.001l0.001,0.002l0.003,0c0.002-0.001,0.002-0.002,0.003-0.005
				c0.004,0,0.008,0,0.012,0.001c0,0,0,0,0,0C1.824,3.637,1.82,3.645,1.812,3.648c0,0.001,0,0.002,0,0.004
				c0.003,0.001,0.007,0.001,0.01,0.001c0.007-0.007,0.015-0.012,0.02-0.021c0,0,0.002,0,0.002,0.001L1.85,3.637
				c0.001,0.005,0,0.007-0.002,0.011c0,0.001,0.001,0.003,0.001,0.004l0.004,0l0.005-0.004C1.858,3.65,1.858,3.653,1.859,3.656
				c0.004,0,0.008,0.002,0.012,0.003C1.872,3.653,1.874,3.648,1.874,3.642 M2.451,3.548c0.001,0,0.002,0,0.003,0
				C2.452,3.546,2.45,3.544,2.448,3.542h0C2.449,3.544,2.45,3.546,2.451,3.548 M2.258,3.338c-0.003-0.004-0.027-0.03-0.03-0.019
				c-0.003,0-0.005-0.003-0.007-0.004c0,0.001-0.001,0.001-0.001,0.001c-0.001,0.001,0,0.004,0.005,0.011c0,0-0.001,0-0.001,0.001
				l0.001,0.001c0,0,0,0,0.001,0c0,0,0,0,0.001,0c0,0,0.001,0,0.001,0c0,0,0.001,0,0.001,0c0,0,0,0,0.001,0c0,0,0,0,0.001,0
				c0,0,0,0,0.001,0c0,0,0,0,0.001,0c0.002,0.004,0.003,0.005,0.002,0.006c0.001,0.001,0.003,0.003,0.004,0.004
				c-0.004,0-0.009-0.001-0.013-0.003c0.001,0.003,0.003,0.005,0.004,0.007c0.001,0.001,0.001,0.002,0.002,0.002
				c0.001-0.001,0.002-0.001,0.005,0.001c0,0,0,0,0,0C2.234,3.348,2.235,3.35,2.237,3.351C2.236,3.352,2.235,3.352,2.235,3.352
				l0.002,0.002l0.001,0.003c0,0,0.011,0.004,0.012,0.002C2.251,3.36,2.252,3.361,2.253,3.363C2.251,3.366,2.251,3.366,2.255,3.37
				l0.002,0.004l0,0c0,0,0.001,0,0.001,0c0.001,0,0.001,0,0.001,0c0,0,0.001,0,0.001,0c0.003,0.003,0.001,0.003-0.001,0.004
				C2.26,3.379,2.262,3.382,2.263,3.383c0,0-0.001,0.001-0.001,0.001c-0.001,0-0.003,0-0.004,0c0.001,0,0.001,0.001,0.002,0.003
				c0.002,0,0.003,0,0.005,0c0,0,0,0,0,0L2.263,3.389c0.001,0.002,0.003,0.004,0.004,0.005C2.269,3.393,2.27,3.393,2.271,3.393
				c0.003,0.003,0.005,0.005,0.007,0.009c0.003-0.001,0.004-0.004,0.008-0.004c0-0.004-0.001-0.007-0.001-0.01
				c0.002,0,0.004-0.001,0.005-0.001c0-0.001-0.001-0.002-0.001-0.002c0.001,0,0.002,0,0.004,0c-0.02-0.027-0.02-0.027-0.034-0.039
				C2.26,3.344,2.26,3.343,2.258,3.338 M2.235,3.314L2.233,3.311C2.231,3.309,2.229,3.308,2.228,3.306c0,0,0,0,0,0
				C2.229,3.309,2.231,3.312,2.235,3.314 M2.303,3.304C2.301,3.302,2.3,3.3,2.297,3.299L2.299,3.3
				c0.003,0.002,0.006,0.005,0.009,0.008C2.304,3.306,2.302,3.304,2.299,3.302C2.302,3.305,2.305,3.307,2.307,3.31
				C2.31,3.312,2.311,3.317,2.316,3.317c0,0,0,0,0,0C2.318,3.319,2.32,3.32,2.322,3.322C2.32,3.319,2.318,3.317,2.315,3.315
				L2.313,3.313L2.312,3.312C2.309,3.309,2.306,3.306,2.303,3.304 M2.252,3.263c-0.001,0-0.002-0.001-0.003-0.002L2.252,3.263
				c0.002,0.004,0.007,0.007,0.01,0.011c0,0,0,0.001,0,0.002c0.004,0.004,0.008,0.007,0.013,0.011
				C2.272,3.283,2.269,3.28,2.266,3.278c0.001-0.001,0.002,0.001,0.003,0C2.263,3.273,2.258,3.268,2.252,3.263 M1.83,3.251
				C1.83,3.251,1.83,3.251,1.83,3.251c0-0.001-0.001-0.002-0.001-0.002c-0.001,0-0.001,0-0.002,0c0,0.003-0.003,0.003-0.002,0.004
				l0,0.001C1.827,3.253,1.829,3.252,1.83,3.251 M2.348,3.385c0,0-0.012-0.017-0.02-0.018c0,0.001,0,0.003,0.001,0.004
				C2.326,3.371,2.325,3.369,2.323,3.367c0,0-0.015-0.017-0.037-0.034C2.257,3.31,2.247,3.302,2.24,3.299
				C2.239,3.3,2.238,3.301,2.238,3.301c-0.002,0-0.004-0.001-0.005-0.002c0.001,0,0.001,0,0.001,0c0.001,0,0.002-0.001,0.003-0.001
				c0-0.001-0.001-0.002-0.001-0.004C2.233,3.293,2.231,3.292,2.229,3.291c0-0.006-0.02-0.024-0.02-0.024
				c-0.005-0.003-0.011,0-0.016-0.003C2.188,3.259,2.186,3.253,2.181,3.248c0,0-0.004-0.005-0.007-0.004
				c0,0.001,0,0.002-0.001,0.002C2.17,3.249,2.168,3.245,2.165,3.244c0.001,0.001,0.002,0.003,0.003,0.004l0.006,0.004
				c0,0,0,0.001,0,0.001c0.002,0.004,0.006,0.006,0.01,0.009c-0.001,0-0.003-0.001-0.004-0.001c0,0.007,0.008,0.006,0.01,0.011
				c0.006,0.005,0.011,0.011,0.016,0.017L2.21,3.29C2.209,3.288,2.208,3.286,2.206,3.285l0.004,0.003
				C2.215,3.293,2.22,3.299,2.225,3.304c0,0,0.001,0,0.001,0.001C2.225,3.301,2.225,3.299,2.223,3.296h0L2.229,3.3
				c0.016,0.023,0.024,0.026,0.027,0.027C2.255,3.326,2.254,3.325,2.253,3.324c0.001,0,0.003,0.001,0.004,0.001c0,0,0.001,0,0.001,0
				c0,0,0,0,0-0.001c0,0,0-0.001,0.001-0.001c0.005,0.002,0.006,0.006,0.008,0.009C2.27,3.336,2.273,3.337,2.277,3.34
				c0,0,0.001-0.001,0.001-0.001c0.001,0,0.001,0,0.001,0c0.006,0.007,0.012,0.014,0.018,0.02c0,0,0,0,0,0
				C2.29,3.36,2.29,3.362,2.294,3.369h0c0,0,0,0,0.001,0c0,0,0,0,0,0s0,0,0,0c0,0,0,0,0,0h0c0,0,0,0,0,0s0,0,0,0c0,0,0,0,0,0
				c0,0.001,0.001,0.001,0.001,0.001c0.003,0.003,0.006,0.005,0.008,0.009c0.002,0.004,0,0.008,0.002,0.013l0.005,0.003
				c0.007,0,0.007,0,0.016,0.006c0,0,0,0,0,0l0,0C2.332,3.4,2.331,3.398,2.331,3.397C2.333,3.4,2.335,3.403,2.337,3.407
				C2.334,3.408,2.332,3.406,2.329,3.406c0,0,0,0.001-0.001,0.001C2.329,3.409,2.33,3.41,2.331,3.411c0,0-0.001,0-0.001,0
				c0.007,0.011,0.007,0.016,0.005,0.019c0,0,0,0,0,0.001C2.338,3.433,2.34,3.434,2.343,3.435C2.342,3.433,2.341,3.43,2.341,3.427
				c0.001,0,0.002,0,0.002,0c0-0.001,0-0.001,0-0.001c0.002,0.001,0.004,0.002,0.005,0.003c0,0,0.001-0.001,0.001-0.002
				C2.348,3.425,2.346,3.423,2.344,3.42c0.004-0.001,0.008,0,0.012,0.001C2.355,3.42,2.354,3.419,2.353,3.418
				c0.002-0.001,0.003-0.001,0.004-0.002C2.359,3.416,2.36,3.417,2.361,3.418c0.001-0.001,0.001-0.001,0.002-0.002
				c0.002,0.001,0.003,0.001,0.005,0.002c0,0,0-0.002,0-0.003c0,0,0,0,0.001,0C2.367,3.412,2.366,3.41,2.367,3.409
				C2.365,3.406,2.363,3.405,2.362,3.403c0,0,0,0,0,0C2.359,3.402,2.357,3.402,2.354,3.401c0,0,0,0,0,0
				C2.354,3.396,2.35,3.388,2.348,3.385 M1.936,3.118C1.929,3.114,1.921,3.112,1.914,3.109C1.91,3.107,1.907,3.105,1.903,3.103
				C1.896,3.101,1.889,3.097,1.881,3.096c0,0,0,0.001,0.001,0.001c0,0,0.001,0,0.001,0c0.001,0,0.001,0.001,0.001,0.001
				c0,0,0.001,0,0.001,0c0,0,0.001,0,0.001,0c0,0,0.001,0,0.001,0.001c0,0,0.001,0,0.001,0.001c0,0,0.001,0,0.001,0
				c0,0,0.001,0.001,0.001,0.001c-0.003,0.004-0.006,0-0.01,0C1.884,3.104,1.887,3.105,1.89,3.106c-0.005,0-0.009-0.005-0.014-0.005
				c0,0,0,0-0.001,0.001C1.877,3.106,1.88,3.106,1.883,3.107c0,0,0,0,0,0.001v0.001C1.878,3.106,1.872,3.104,1.867,3.101
				c0,0,0,0,0,0l0.001,0.001C1.872,3.104,1.876,3.106,1.88,3.109c0.001,0.001,0,0.002,0,0.002C1.88,3.113,1.881,3.114,1.882,3.116
				C1.881,3.115,1.88,3.114,1.879,3.114C1.867,3.108,1.855,3.099,1.841,3.096c0,0.001,0.001,0.001,0.001,0.002l0,0
				c0.003,0.001,0.006,0.003,0.009,0.004c0,0,0,0,0,0c0,0.001,0,0.001,0,0.001C1.849,3.104,1.846,3.1,1.843,3.101
				c0.002,0.004,0.007,0.005,0.01,0.006C1.852,3.108,1.85,3.108,1.849,3.109C1.85,3.109,1.852,3.11,1.853,3.111
				c0.005,0.003,0.005,0.003,0.01,0c0,0,0.007,0,0.016,0.005l0.002,0.002c0,0,0,0,0,0.001C1.879,3.121,1.876,3.12,1.875,3.124
				c0,0,0.001,0.001,0.002,0.001l0.002,0.002c0.003,0,0.005,0,0.007-0.002c0.016,0.006,0.017,0.007,0.017,0.011
				c0,0.004,0.001,0.004,0.005,0.005C1.914,3.143,1.92,3.14,1.925,3.142c0,0,0.001,0,0.001,0C1.931,3.145,1.943,3.151,1.951,3.15
				c0,0,0,0,0,0C1.95,3.146,1.948,3.145,1.947,3.143c0.002,0,0.004-0.001,0.006-0.001C1.953,3.137,1.95,3.135,1.949,3.132
				C1.95,3.133,1.951,3.134,1.953,3.133C1.951,3.128,1.947,3.127,1.944,3.125c0.001,0,0.001,0,0.002-0.001
				C1.942,3.122,1.939,3.12,1.936,3.118 M1.681,3.019C1.678,3.017,1.674,3.017,1.67,3.016h0C1.676,3.019,1.683,3.022,1.69,3.025
				l0.001-0.001C1.69,3.023,1.688,3.023,1.687,3.023l0-0.001L1.684,3.02h0h0.002C1.684,3.02,1.683,3.02,1.681,3.019 M2.357,3.352
				C2.352,3.347,2.346,3.341,2.34,3.335l0,0C2.346,3.341,2.352,3.347,2.357,3.352c-0.007-0.005-0.013-0.011-0.02-0.017l0,0l0,0h0
				C2.34,3.339,2.343,3.343,2.347,3.347c0,0,0,0,0,0L2.344,3.344l0,0l-0.001,0C2.34,3.341,2.338,3.338,2.335,3.336
				c-0.004,0-0.006-0.004-0.009-0.007C2.318,3.322,2.31,3.315,2.302,3.308h0C2.299,3.304,2.294,3.3,2.29,3.296l0.004,0.003
				L2.293,3.297L2.283,3.289C2.278,3.287,2.276,3.281,2.27,3.279c0.002,0.004,0.007,0.006,0.01,0.009L2.274,3.284
				C2.276,3.286,2.279,3.288,2.28,3.29c0,0-0.001,0-0.002,0C2.28,3.291,2.301,3.31,2.303,3.311L2.301,3.31
				c0.012,0.01,0.021,0.021,0.033,0.03l0.003,0.003l0.001,0.001L2.34,3.345l0.003,0.002c-0.001,0-0.001,0-0.002,0
				C2.343,3.35,2.346,3.352,2.348,3.355c-0.001,0-0.002-0.002-0.003-0.002c0.001,0.001,0.002,0.003,0.004,0.004L2.35,3.358l0.001,0
				l-0.001,0C2.347,3.356,2.345,3.353,2.343,3.351c0,0-0.001,0.001-0.001,0.001c0,0.002,0.002,0.004,0.003,0.005
				C2.347,3.359,2.349,3.36,2.351,3.362c0,0,0,0,0,0L2.345,3.358c0,0-0.001,0-0.001-0.001c0,0,0,0.001-0.001,0.001
				c0.002,0.007,0.009,0.013,0.01,0.013c0.004,0.004,0.008,0.008,0.011,0.012C2.36,3.382,2.358,3.379,2.356,3.376c0,0,0,0,0-0.001
				L2.354,3.373C2.352,3.371,2.351,3.37,2.349,3.369c0,0,0.001,0.006,0.025,0.034c0,0-0.001,0-0.001,0c0,0-0.001,0-0.001,0
				c0,0.003,0.001,0.004,0.002,0.007c0,0-0.001,0-0.001,0c0,0.001,0,0.003,0,0.004c0.004,0.007,0.01,0.011,0.014,0.019
				c0.002,0.004-0.001,0.009,0.003,0.013l0.002,0.001c0,0.001,0,0.002,0,0.003c-0.002,0-0.004-0.001-0.007,0
				C2.381,3.447,2.379,3.444,2.377,3.442c-0.001,0-0.003,0-0.004,0c0.005,0.009,0.013,0.016,0.021,0.024c0,0,0,0,0,0.001
				C2.392,3.466,2.391,3.465,2.39,3.464c0,0.001-0.002,0.003-0.003,0.004C2.384,3.466,2.382,3.463,2.378,3.461
				c0,0.001-0.001,0.001-0.001,0.001c0,0.001,0,0.003,0,0.003l-0.003,0L2.374,3.464C2.373,3.466,2.372,3.468,2.371,3.469
				C2.372,3.47,2.373,3.472,2.374,3.474c0.001-0.001,0.002-0.001,0.002-0.001c0,0,0.001,0.002,0.001,0.003
				c0,0.001,0.002,0.001,0.002,0.002l0.001,0.002l0,0c0,0-0.001,0-0.002,0c0.001,0.003,0.004,0.004,0.006,0.006
				c0.006,0,0.012,0.004,0.018,0.008c0,0,0.001-0.001,0.001-0.001l0.001,0.001l0.002,0.005C2.413,3.501,2.417,3.504,2.42,3.509
				c0.02,0.02,0.02,0.02,0.035,0.04c0.031,0,0.051,0,0.059,0L2.511,3.545C2.51,3.542,2.509,3.54,2.507,3.537L2.511,3.54
				c0.002,0.003,0.003,0.005,0.005,0.008c0.001,0.001,0.001,0.001,0.001,0.001c0-0.001-0.001-0.002-0.002-0.003
				c0.001,0,0.002,0.002,0.002,0.003c0,0,0,0,0,0c0,0,0,0,0,0c-0.011-0.017-0.023-0.034-0.035-0.05
				C2.445,3.446,2.403,3.398,2.357,3.352 M2.047,3.125C2.01,3.106,1.973,3.089,1.935,3.074l0,0C1.934,3.073,1.932,3.072,1.931,3.072
				c-0.001,0-0.002,0-0.002,0c0.004,0.001,0.009,0.003,0.013,0.005c0.001,0,0.002,0,0.003,0.001c0.001,0,0.004,0.002,0.005,0.002
				c0,0-0.001,0-0.002,0c0.007,0.003,0.014,0.006,0.022,0.009C1.972,3.09,1.975,3.09,1.978,3.092c0,0,0,0,0,0
				C1.983,3.095,1.99,3.098,1.995,3.1c0,0,0,0,0,0c0.009,0.005,0.017,0.009,0.026,0.013c0.01,0.004,0.019,0.011,0.029,0.016h0
				c0.011,0.009,0.024,0.014,0.036,0.022L2.084,3.15c0.005,0.004,0.01,0.007,0.015,0.01C2.098,3.158,2.096,3.158,2.095,3.158l0,0
				l0,0l0,0l0,0c0,0,0,0,0,0l0,0h0l0,0L2.096,3.16C2.1,3.162,2.104,3.163,2.107,3.165c-0.001,0-0.002,0-0.002,0
				c0.004,0.004,0.008,0.007,0.013,0.01C2.12,3.176,2.122,3.177,2.124,3.179c0,0,0.001,0,0.002,0.001
				C2.131,3.187,2.14,3.19,2.147,3.195C2.15,3.197,2.153,3.2,2.157,3.202C2.158,3.203,2.16,3.204,2.162,3.205
				C2.167,3.21,2.175,3.213,2.181,3.218L2.184,3.22c0.001,0.001,0.003,0.002,0.003,0.003c-0.001,0,0,0,0.001,0.001l0,0L2.184,3.221
				H2.183l0.005,0.004l0.006,0.004L2.195,3.23L2.194,3.229L2.196,3.23L2.19,3.225c0.001,0,0.003,0.001,0.004,0.003
				c0.001,0,0.001,0,0.001,0L2.192,3.225c0.002,0.001,0.004,0.003,0.005,0.005c0.001,0,0.001,0,0.002,0.001
				C2.2,3.232,2.203,3.233,2.205,3.236c0.001,0,0.001,0,0.001,0C2.207,3.237,2.209,3.239,2.21,3.239c-0.001,0-0.001,0-0.002-0.001
				c0,0,0,0,0,0.001L2.205,3.236H2.204c0.009,0.006,0.019,0.011,0.027,0.019l0.002,0.001L2.231,3.254
				c0.001,0.001,0.003,0.002,0.004,0.004c0-0.001,0.001-0.002,0.001-0.003C2.224,3.244,2.212,3.233,2.2,3.223
				c0.004,0.003,0.007,0.009,0.013,0.01C2.221,3.238,2.229,3.244,2.236,3.25c0,0,0,0,0,0l0.003,0.003
				c0.009,0.005,0.015,0.014,0.024,0.019C2.272,3.277,2.28,3.283,2.288,3.29l0,0L2.29,3.292l0.002,0.002
				C2.299,3.3,2.306,3.307,2.314,3.314c0-0.001-0.001-0.002-0.001-0.002C2.309,3.307,2.304,3.304,2.3,3.3L2.297,3.297
				c0-0.001-0.001-0.002-0.001-0.002c0.001,0,0.002,0.002,0.003,0.003l0.001,0C2.292,3.292,2.285,3.287,2.278,3.28
				C2.256,3.262,2.234,3.244,2.211,3.228C2.159,3.189,2.104,3.155,2.047,3.125 M1.624,3.002L1.624,3.002
				C1.621,3.002,1.618,3.001,1.616,3H1.614h0C1.612,3,1.61,3,1.607,3h0c0.004,0.002,0.008,0.003,0.012,0.003h0l0,0l0,0l0,0h0h0l0,0
				l0,0C1.621,3.002,1.623,3.002,1.624,3.002l0.002,0.001C1.625,3.002,1.625,3.002,1.624,3.002 M1.601,2.998H1.6h0l0,0c0,0,0,0,0,0
				c0,0,0,0-0.001,0C1.601,2.998,1.604,3,1.606,3h0l0,0C1.605,2.998,1.603,2.998,1.601,2.998 M1.596,2.998c-0.001,0-0.003,0-0.004,0
				l0,0l0,0l0,0l0,0l0,0l0,0l0,0l0,0c0.001,0,0.005,0.001,0.005,0.001C1.597,2.998,1.597,2.998,1.596,2.998 M1.559,2.991l-0.003,0
				c-0.002,0-0.003,0-0.005,0c0,0,0.01,0.002,0.011,0.002C1.561,2.991,1.56,2.991,1.559,2.991 M1.536,2.988
				c-0.002,0-0.004,0-0.005,0c0,0-0.001,0-0.001,0l0,0c0.003,0,0.005,0,0.008,0C1.538,2.988,1.537,2.988,1.536,2.988 M1.519,2.987
				l-0.003,0h0c0.001,0,0.002,0,0.003,0c-0.003,0-0.005,0-0.007,0c0,0,0.001,0,0.001,0c0.004,0,0.009,0,0.013,0.001h0.002
				C1.523,2.987,1.521,2.987,1.519,2.987 M1.499,2.985L1.499,2.985H1.494c-0.004,0-0.009,0-0.013,0c0,0,0.001,0,0.001,0
				c0.004,0,0.007,0,0.011,0C1.495,2.985,1.497,2.985,1.499,2.985L1.499,2.985 M1.541,2.987c-0.016,0-0.032-0.002-0.047-0.002h0
				c0.005,0,0.011,0,0.016,0C1.52,2.985,1.53,2.986,1.541,2.987 M1.481,2.985c-0.003,0-0.007,0-0.01,0h0.002
				c0.005,0,0.011,0,0.016,0C1.486,2.985,1.483,2.985,1.481,2.985 M1.567,2.992L1.567,2.992L1.567,2.992L1.567,2.992L1.567,2.992
				 M1.75,2.984H1.696C1.694,2.984,1.692,3,1.69,3C1.691,3,1.693,3.01,1.694,3.01c0,0.001,0,0.006-0.001,0.007
				c-0.001-0.001,0.02,0.001,0.018,0.001C1.717,3.021,1.75,3.026,1.75,3.029C1.75,3.03,1.75,2.984,1.75,2.984H1.702l0,0.022
				C1.699,3.004,1.696,3.014,1.693,3.012L1.69,2.996c0.001,0.001,0.002-0.012,0.003-0.012c-0.001,0-0.002,0-0.003,0
				c0,0,0.029,0.022,0.03,0.022c0.001,0.001,0.03,0.012,0.03,0.012v0.005c0-0.003-0.043-0.014-0.048-0.021
				C1.698,2.999,1.664,2.984,1.659,2.984H1.657c0,0,0.001,0,0.002,0.001c-0.001,0-0.002-0.001-0.002-0.001c-0.001,0-0.001,0-0.001,0
				C1.656,2.984,1.75,3,1.75,3v0.007C1.557,3.006,1.697,3.009,1.693,3.008c0,0-0.024-0.012-0.024-0.012
				c-0.002,0-0.027-0.013-0.029-0.013h0c0.008,0,0.016-0.001,0.023,0l0.004,0h0.001L1.674,3c0.002,0,0.005,0.008,0.007,0.009
				c0,0-0.001,0.003-0.002,0.002c-0.004-0.001-0.008,0-0.011-0.001C1.672,3.011,1.676,3.014,1.68,3.014l-0.002,0
				C1.675,3.013,1.672,2.999,1.669,2.998L1.666,2.984h0.046c-0.002,0,0.038,0.014,0.038,0.013V2.984H1.614
				c-0.005,0-0.058,0.023-0.058,0.022V2.993c0,0.001,0.093-0.01,0.095-0.01H1.651L1.646,2.995C1.644,2.994,1.641,3,1.639,3
				C1.639,3,1.64,2.992,1.641,2.992c-0.001,0-0.002-0.008-0.003-0.008c-0.001,0-0.082,0-0.082,0v0.011l0,0l0,0V2.989l0,0l0,0l0,0
				l0.077-0.006l0,0l0,0h0c-0.001,0-0.076,0-0.076,0l0,0v0.011V3l0,0v0.003v0.001l0,0c0,0,0.033-0.011,0.031-0.011
				C1.59,2.992,1.631,2.984,1.633,2.984h0c-0.003,0-0.005,0.011-0.008,0.009L1.619,2.997C1.617,2.997,1.615,3,1.613,3
				c0.001,0,0.003,0.002,0.004,0.003c0.002,0,0.004,0.001,0.005,0.002C1.617,3.003,1.612,3.002,1.608,3C1.606,3,1.605,3,1.603,3
				C1.604,3,1.605,3.001,1.606,3.001C1.608,3.002,1.61,3.002,1.611,3.003l0,0C1.608,3.002,1.604,3.001,1.601,3l0,0c0,0,0,0,0,0
				C1.599,3,1.596,2.999,1.594,2.998c-0.001,0-0.003-0.001-0.004-0.001c-0.001,0-0.015,0-0.016-0.001c-0.002,0-0.017,0-0.017-0.001
				V2.984h0.025L1.581,2.989l0.003,0.004c0,0,0.001-0.005,0.001-0.004c0.001,0,0.003-0.005,0.005-0.005c0.001,0-0.032,0-0.032,0
				V2.99v0.003l0,0v0.002l0,0v0.001V2.991c0-0.001,0.027-0.007,0.024-0.007c0,0,0,0,0,0c-0.005,0-0.016,0.003-0.022,0.003
				c0.001,0-0.001,0.003-0.001,0.003v0.001v0.001V2.984h0.005h0.002h0.001h0.001c0,0-0.005,0-0.005,0H1.557v0.005
				c0,0,0.006-0.005,0.005-0.005c-0.002,0-0.002,0-0.002,0l0.002,0.004c-0.003,0-0.005,0.001-0.005,0c0,0,0,0.001,0,0
				c0,0-0.011,0-0.015,0c0.002,0,0.002,0,0.004,0.001l-0.007,0c-0.001,0-0.004-0.003-0.005-0.003c0.001,0,0.003-0.001,0.004-0.001
				c-0.001,0-0.001,0-0.002,0c0,0,0,0,0,0H1.534c-0.002,0-0.003,0-0.005,0H1.528c-0.002,0-0.004,0-0.006,0h0
				c0.001,0,0.003,0,0.004,0c-0.006,0-0.012,0-0.018,0h0c0.001,0,0.003,0,0.004,0c-0.004,0-0.008,0-0.012,0c0.001,0,0.002,0,0.002,0
				c0.002,0,0.002,0,0.002,0c-0.002,0-0.004,0-0.005,0c-0.003,0-0.005,0-0.007,0H1.49c0.001,0,0.001,0,0.002,0
				c-0.001,0-0.002,0-0.003,0c-0.002,0-0.004,0-0.005,0c-0.001,0-0.001,0-0.001,0H1.482H1.481c-0.001,0-0.002,0-0.003,0
				c-0.003,0-0.005,0-0.007,0c0.104,0,0.2,0.088,0.279,0.236c0.002,0,0.004,0.002,0.005,0.003c0,0-0.001,0.001-0.002,0.002
				c-0.001,0-0.001,0.001,0,0.001l0.002,0.001c0.001,0,0.003-0.001,0.004-0.001c0,0,0,0,0,0L1.758,3.226
				C1.757,3.228,1.756,3.229,1.755,3.231c0.003,0,0.005-0.002,0.007-0.004c0.001,0.001,0.001,0.002,0.002,0.002
				C1.764,3.23,1.763,3.233,1.762,3.233c0.001,0,0.003,0.002,0.004,0.002c0,0-0.001,0.001-0.002,0.002
				c0,0.001,0.001-0.029,0.001-0.029C1.769,3.21,1.771,3.177,1.773,3.177c0.001,0,0.002,0,0.002,0c0,0,0.001,0,0.001,0
				c0.001,0,0.002,0,0.003,0c0.001,0,0.001,0.03,0.001,0.03C1.78,3.209,1.778,3.224,1.777,3.225
				c0.005,0.002,0.014,0.007,0.014,0.014c0.002,0.002,0.002,0.005,0.003,0.005c0,0,0.001,0,0.001,0c0.001,0,0.002,0,0.003,0
				C1.8,3.246,1.801,3.248,1.802,3.25C1.801,3.251,1.799,3.252,1.798,3.252c0.004,0.001,0.009,0.002,0.013,0
				c0-0.001-0.001-0.001-0.001-0.002c0,0,0,0,0,0L1.813,3.25l0.001-0.001h0l0,0h0c0,0,0,0,0,0C1.819,3.249,1.78,3.249,1.783,3.247
				c0.002,0-0.033-0.002-0.033-0.003c0,0,0-0.002,0-0.002c0,0,0-0.001,0-0.001c0-0.001,0-0.002,0-0.003s0.04-0.001,0.04-0.001
				C1.792,3.239,1.814,3.24,1.815,3.241c0,0.002,0.008,0.004,0.008,0.005c0.001,0,0.008-0.002,0.01-0.002l0.004-0.003l0.004,0.003
				l0.004,0.003c0,0.001-0.046,0.004-0.047,0.005C1.797,3.254,1.75,3.255,1.75,3.256V3.216c0,0,0.096-0.039,0.098-0.039h0
				c0,0,0.001,0.039,0.001,0.038c0,0-0.001,0.018-0.001,0.018c0,0,0.001,0.009,0.001,0.008c0.003,0,0.003,0.005,0.006,0.012
				c0.001,0.001,0.002,0.004,0.002,0.004c0.002-0.003,0.002-0.004,0.003-0.005c0,0.001,0,0.005,0.002,0.006
				c0,0,0.001,0.002,0.001,0.003c0,0.001-0.001,0.003-0.001,0.004c0.001,0.001,0.002,0.002,0.002,0.003c0.004-0.001,0.009,0,0.013,0
				c0-0.002,0.022-0.005,0.023-0.007c0.006,0,0.042,0.002,0.042,0.001c0,0,0-0.001,0-0.002c0-0.003-0.028-0.004-0.03-0.006
				c-0.004,0.003,0.01,0.003,0.006,0C1.922,3.252,1.943,3.25,1.943,3.247c0,0,0-0.071,0-0.071s-0.053,0-0.054,0c0,0-0.001,0-0.002,0
				c-0.002,0-0.002,0-0.002,0c-0.003,0-0.005,0.034-0.007,0.033C1.88,3.209,1.882,3.193,1.883,3.193
				c-0.001,0-0.002-0.016-0.003-0.016h0l0.003,0.031C1.882,3.206,1.881,3.22,1.88,3.218c0.001,0,0.001,0.007,0,0.007
				c-0.004,0-0.008,0.005-0.011,0c0,0,0.001,0.001,0.002,0c0.002,0,0.004,0.002,0.006,0.002L1.874,3.222
				c0-0.002,0-0.004-0.001-0.005C1.872,3.217,1.87,3.218,1.868,3.217C1.869,3.217,1.87,3.216,1.871,3.216
				c0-0.005-0.004-0.008-0.023-0.015c0.003,0,0.007,0.003,0.01,0l-0.001,0C1.853,3.2,1.849,3.197,1.845,3.194
				C1.846,3.192,1.847,3.191,1.849,3.19c0-0.001-0.001-0.002-0.001-0.003L1.846,3.185C1.843,3.184,1.888,3.183,1.887,3.18
				C1.89,3.181,1.75,3.182,1.943,3.181V3.181C1.75,3.18,1.891,3.177,1.888,3.177H1.865c0.001,0-0.009,0-0.007,0.001
				c0-0.001-0.006-0.001-0.006-0.002l-0.008,0c0,0-0.003,0.001-0.004,0.001c0.002,0-0.09,0-0.09,0V3.175l0,0V3.175l0,0v0.002h0.046
				H1.75V3.171L1.799,3.17C1.798,3.169,1.82,3.173,1.819,3.172c-0.001,0.001,0.02,0.005,0.018,0.005c-0.002,0-0.003,0-0.004,0
				L1.75,3.17v0.003c0,0,0.083,0.003,0.085,0.003c0,0,0,0,0.001,0c0,0,0,0,0,0c0,0,0,0,0,0c0,0,0,0,0.001,0h0c0,0,0,0,0.001,0h0
				c0,0,0,0,0.001,0L1.842,3.17c-0.003-0.003-0.006-0.007-0.01-0.008L1.83,3.16L1.826,3.158c-0.001,0-0.004-0.001-0.005-0.002
				c0.002-0.004,0.002-0.005,0.006-0.005C1.825,3.149,1.822,3.146,1.819,3.145L1.816,3.143L1.813,3.142
				C1.809,3.141,1.805,3.138,1.801,3.137c0.003-0.002,0.007,0,0.01,0c0,0,0.001,0.024,0.002,0.023
				C1.809,3.153,1.806,3.177,1.8,3.177c-0.001,0-0.001,0-0.001,0c0.001,0,0.002,0.002,0.002,0.002C1.8,3.177,1.8,3.177,1.799,3.177
				c0,0,0,0,0.001,0c0.002,0-0.049-0.025-0.049-0.025V3.137c0-0.001,0.023-0.009,0.021-0.01c0.001,0,0.017-0.003,0.019-0.002
				l0.009,0c0.001,0,0.005,0,0.006,0c0,0,0.003-0.001,0.003-0.002c-0.001,0,0-0.002-0.001-0.002c0-0.001-0.023-0.001-0.022-0.001
				C1.782,3.116,1.75,3.114,1.75,3.113c0-0.001,0-0.001,0-0.002c0-0.002,0.047,0.065,0.046,0.065h0
				c-0.001,0-0.003-0.037-0.004-0.038c0.006,0.001,0.011,0.019,0.015,0.022C1.809,3.162,1.81,3.177,1.813,3.177
				c0.002,0,0.002,0,0.002,0c-0.003,0-0.004-0.035-0.006-0.037c0.001,0,0.003-0.014,0.004-0.013c0.001,0-0.028-0.007-0.028-0.007
				C1.783,3.117,1.75,3.112,1.75,3.11v0.067c0,0,0.033,0,0.034,0c-0.001,0,0.011-0.039,0.009-0.041c-0.002-0.001,0.003-0.019,0-0.02
				c0.004-0.002,0.008-0.01,0.013-0.009C1.805,3.101,1.802,3.141,1.798,3.138L1.794,3.177h0c-0.001,0-0.004-0.049-0.006-0.05
				L1.782,3.1L1.78,3.086C1.776,3.083,1.774,3.035,1.77,3.033c-0.004-0.004-0.005-0.05-0.009-0.05
				C1.761,2.984,1.75,2.984,1.75,2.984v0.038c0-0.001-0.002,0.018-0.006,0.015l0,0C1.749,3.039,1.757,3.049,1.762,3.05
				c0.002,0.001,0.003,0.005,0.003,0.005c0,0,0,0.001-0.001,0.001c-0.001-0.001-0.001,0-0.002,0c0.001,0,0.002,0.001,0.003,0.001
				C1.764,3.055,1.76,3.055,1.758,3.052c0.002,0,0.003,0.001,0.004,0.002C1.759,3.051,1.757,3.048,1.754,3.046
				C1.753,3.044,1.75,3.043,1.749,3.042c-0.001,0-0.001,0,0,0L1.748,3.041L1.744,3.04L1.741,3.038l0,0
				C1.733,3.034,1.726,3.032,1.719,3.029c0-0.001,0.023-0.001,0.023-0.001C1.737,3.027,1.75,3.005,1.75,3.003V2.984H1.727H1.75
				v0.019l0,0V2.984c0,0-0.023,0-0.023,0l0,0H1.75L1.75,2.984v0.038l-0.026,0c-0.002,0-0.015-0.019-0.016-0.019
				c0-0.001-0.012-0.019-0.013-0.019"/>
			<path id="path6908" inkscape:connector-curvature="0" fill="#B3E710" d="M2.022,5.062c0.005-0.008,0.014-0.038,0.011-0.046
				c-0.009-0.003-0.02,0-0.026-0.009C1.984,4.976,1.984,4.976,1.979,4.974c-0.01-0.003-0.019,0.001-0.029,0
				c-0.009-0.002-0.015-0.011-0.024-0.01c-0.007,0-0.013,0.004-0.03,0.014c0.001-0.009,0.013-0.021,0.001-0.028
				c-0.002,0-0.004,0.002-0.006,0.003c-0.001,0-0.001,0-0.002,0C1.889,4.944,1.889,4.944,1.869,4.937
				C1.83,5.09,1.778,5.219,1.718,5.314C1.731,5.309,1.731,5.309,1.735,5.31c0.006-0.003,0.011-0.008,0.018-0.011
				c0.009-0.003,0.017,0.001,0.026,0c0.01-0.001,0.016-0.011,0.026-0.012C1.813,5.27,1.833,5.265,1.845,5.251
				C1.856,5.237,1.866,5.223,1.879,5.21C1.888,5.201,1.889,5.2,1.922,5.145c0,0,0.001,0,0.002,0c0,0.001,0,0.003,0,0.004
				s0,0.002,0.001,0.002c0.005-0.004,0.01-0.007,0.014-0.011c0.008-0.007,0.013-0.016,0.021-0.023
				c0.012-0.01,0.027-0.015,0.038-0.024C2.012,5.078,2.021,5.065,2.022,5.062 M2.483,4.981c0.012-0.016,0.023-0.033,0.035-0.049
				c0,0,0,0,0,0c0,0-0.001,0-0.002,0C2.513,4.934,2.512,4.936,2.51,4.939C2.387,5.114,2.301,5.182,2.25,5.222
				c0.037-0.03,0.073-0.062,0.107-0.095C2.403,5.081,2.445,5.033,2.483,4.981 M1.849,4.932c0.004,0,0.008,0,0.012,0
				c-0.001,0-0.001-0.002-0.002-0.002C1.856,4.931,1.853,4.931,1.849,4.932 M1.838,4.926C1.838,4.926,1.838,4.925,1.838,4.926
				C1.836,4.922,1.824,4.921,1.804,4.921c0,0,0,0-0.001,0c0,0,0,0-0.001,0c0,0,0,0,0,0c0,0,0,0-0.001,0h0c0,0,0,0,0,0
				c0,0-0.001,0-0.001,0c0,0,0,0,0,0C1.797,4.924,1.795,4.927,1.794,4.932c0.014,0,0.028,0,0.041,0
				C1.836,4.929,1.836,4.927,1.838,4.926 M1.592,4.69L1.592,4.69c-0.001,0-0.002,0-0.003,0C1.583,4.692,1.577,4.692,1.575,4.691
				c0,0.001-0.001,0.001-0.001,0.002c0.002,0,0.004,0.001,0.005,0.002c-0.001,0.002-0.001,0.004,0,0.006
				c-0.003,0.001-0.007,0.001-0.01,0.005l0,0c0.007,0,0.013,0,0.02-0.001C1.59,4.7,1.59,4.695,1.592,4.69 M1.337,4.422l0-0.003
				C1.328,4.408,1.305,4.406,1.296,4.406c0,0,0,0,0,0c0,0,0,0,0,0c0,0,0,0,0,0l0,0c0,0,0,0,0,0c0,0,0,0,0,0c0,0,0,0,0,0h0
				L1.287,4.411C1.29,4.414,1.304,4.422,1.31,4.422c0.005,0.002,0.008-0.004,0.013-0.004C1.328,4.418,1.332,4.422,1.337,4.422
				L1.337,4.422C1.337,4.422,1.337,4.422,1.337,4.422L1.337,4.422 M1.608,4.412c0,0,0-0.001,0-0.003
				C1.607,4.409,1.579,4.401,1.572,4.408c0.001,0.004,0.001,0.007,0.001,0.011c0.002,0.001,0.03-0.001,0.03-0.001
				C1.604,4.417,1.607,4.417,1.608,4.412 M1.541,4.406c0,0,0.001-0.001,0.001-0.002C1.53,4.392,1.51,4.393,1.501,4.377
				c-0.02-0.003-0.02-0.003-0.024-0.007c0,0-0.001,0-0.001,0c0,0-0.001,0-0.001,0C1.472,4.371,1.469,4.373,1.466,4.372
				c-0.004,0-0.007-0.002-0.01,0C1.452,4.375,1.45,4.375,1.444,4.374C1.421,4.37,1.421,4.37,1.411,4.371L1.41,4.373
				c0,0.001,0,0.002,0,0.003c0.006,0.002,0.013,0.002,0.019,0.006C1.429,4.382,1.43,4.383,1.43,4.383
				c0.002,0.004-0.002,0.008,0,0.012C1.433,4.399,1.437,4.399,1.44,4.402C1.426,4.41,1.4,4.404,1.389,4.401
				C1.389,4.402,1.387,4.404,1.386,4.405l0,0c0.003,0.005,0.009,0.007,0.013,0.011c0.004-0.002,0.006-0.004,0.009-0.005
				c0.004,0,0.007,0,0.01,0.001c0.01,0.002,0.021,0.001,0.031,0c0.005,0.005,0.009,0.011,0.016,0.014
				c0.005-0.012,0.009-0.015,0.018-0.02C1.485,4.408,1.487,4.41,1.489,4.412C1.497,4.415,1.5,4.403,1.509,4.406
				c0.003,0,0.005,0,0.008,0c0.006-0.001,0.01,0.002,0.014,0.006c0.001,0.001,0.003,0.002,0.004,0.003
				C1.537,4.412,1.539,4.409,1.541,4.406 M1.391,4.365l0.001-0.001C1.378,4.354,1.373,4.352,1.355,4.351l0,0c0,0,0,0,0,0h0h0l0,0h0
				l0,0h0L1.352,4.35l0.003-0.007c-0.013-0.009-0.031,0-0.043-0.013C1.307,4.325,1.304,4.32,1.298,4.317
				c-0.005-0.001-0.01-0.003-0.015-0.004C1.263,4.31,1.263,4.31,1.245,4.294c-0.002,0-0.005,0-0.007,0
				C1.216,4.289,1.209,4.289,1.192,4.288c0,0,0,0,0,0H1.192c0,0,0,0,0,0s0,0,0,0h0c0,0,0,0,0,0l0,0c0,0,0,0,0,0
				C1.168,4.29,1.132,4.296,1.136,4.316C1.135,4.317,1.132,4.319,1.131,4.321L1.129,4.323c0.008,0.003,0.015-0.002,0.017-0.01
				C1.19,4.299,1.19,4.299,1.2,4.301C1.2,4.302,1.201,4.303,1.202,4.304c0,0,0,0,0,0c-0.001,0-0.002,0-0.003,0.001
				c-0.001,0-0.002,0-0.003,0C1.194,4.307,1.193,4.307,1.192,4.307c-0.001,0-0.002,0-0.003,0C1.2,4.314,1.213,4.311,1.225,4.314
				c0.01,0.004,0.019,0.01,0.029,0.013c0.002,0.001,0.005,0,0.007,0c0.013-0.001,0.019-0.002,0.021,0.017
				c0.011,0.005,0.023,0.005,0.034,0.01C1.315,4.363,1.307,4.366,1.303,4.371c0,0,0,0,0,0.001c0.008,0,0.017-0.002,0.025-0.004
				c0.012-0.001,0.023,0.004,0.035,0.002C1.373,4.37,1.382,4.366,1.391,4.365 M1.363,3.945l0.002,0.001
				C1.362,3.943,1.361,3.939,1.359,3.934v0.001C1.36,3.94,1.363,3.945,1.363,3.945 M1.358,3.934L1.358,3.934L1.358,3.931
				L1.358,3.934 M1.357,3.931C1.358,3.931,1.358,3.931,1.357,3.931V3.929C1.357,3.93,1.357,3.93,1.357,3.931 M1.357,3.929
				L1.357,3.929V3.927C1.357,3.928,1.357,3.928,1.357,3.929 M1.356,3.927C1.357,3.927,1.357,3.927,1.356,3.927V3.926
				C1.356,3.926,1.356,3.926,1.356,3.927 M1.731,3.676C1.732,3.676,1.732,3.676,1.731,3.676C1.73,3.673,1.726,3.669,1.722,3.671
				C1.716,3.672,1.715,3.679,1.709,3.681C1.708,3.68,1.706,3.68,1.705,3.679c-0.001-0.004,0-0.005,0.006-0.008
				c0.006-0.004,0.006-0.011,0.008-0.017C1.716,3.652,1.713,3.65,1.709,3.648l0,0.001C1.706,3.656,1.7,3.661,1.697,3.668
				c-0.002,0.004-0.002,0.007-0.001,0.01C1.699,3.686,1.711,3.689,1.72,3.686C1.726,3.684,1.73,3.68,1.731,3.676 M0.536,3.613
				L0.54,3.609c0.001-0.003,0.003-0.007,0.004-0.01c0-0.001,0-0.002,0-0.003c0-0.004-0.004-0.007-0.004-0.011
				c0-0.007,0.004-0.013,0.004-0.02c0,0,0-0.001,0-0.001C0.535,3.56,0.535,3.56,0.533,3.556C0.529,3.549,0.528,3.55,0.524,3.552
				l-0.001,0C0.521,3.559,0.52,3.57,0.522,3.573c0.001,0,0.002-0.001,0.003-0.001c0,0.006,0,0.006-0.003,0.01L0.522,3.585
				c0.003,0,0.006,0.002,0.003,0.007C0.522,3.596,0.522,3.596,0.524,3.598c0.003-0.003,0.005-0.003,0.008-0.003
				C0.531,3.597,0.528,3.599,0.527,3.601c0,0.001-0.001,0.002-0.001,0.002C0.528,3.61,0.53,3.613,0.536,3.613L0.536,3.613
				L0.536,3.613 M1.817,4.883c0-0.003,0-0.002,0-0.004C1.802,4.87,1.802,4.872,1.799,4.833C1.796,4.83,1.722,4.776,1.704,4.798
				C1.699,4.796,1.692,4.796,1.687,4.795c-0.006-0.001-0.006,0-0.006,0L1.678,4.797c-0.01-0.017-0.06-0.019-0.071-0.021
				c-0.002,0.002-0.05,0.003-0.05,0.005c0,0,0,0.001,0,0.001c0-0.038,0.023-0.04-0.023-0.043c-0.004,0,0.019,0,0.019-0.001
				C1.57,4.73,1.586,4.723,1.587,4.721c-0.014-0.007-0.009-0.007-0.011-0.01C1.571,4.709,1.568,4.708,1.564,4.707
				C1.563,4.709,1.562,4.711,1.561,4.713c-0.002-0.004-0.005-0.01-0.009-0.012C1.547,4.698,1.547,4.697,1.547,4.696
				c0.006,0,0.012,0.002,0.017-0.001l0.001-0.002l0-0.001C1.532,4.687,1.499,4.696,1.467,4.693C1.438,4.69,1.413,4.674,1.384,4.673
				C1.382,4.669,1.379,4.662,1.377,4.658c-0.002,0-0.006,0.001-0.008,0.001c0,0.003,0.001,0.007,0.002,0.009l0.007-0.001
				l0.003,0.003C1.374,4.676,1.373,4.676,1.339,4.687c0,0,0.001,0.001,0.002,0.001c0.002,0.011,0.01,0.021,0.011,0.034
				C1.348,4.724,1.342,4.726,1.338,4.726C1.327,4.712,1.325,4.708,1.336,4.691C1.331,4.674,1.331,4.674,1.331,4.669
				c0.005-0.002,0.011-0.003,0.016-0.004c0.001-0.001,0.028-0.002,0.029-0.003C1.374,4.659,1.364,4.659,1.364,4.669
				c0-0.003,0-0.005,0-0.007c0,0.001-0.051,0.06-0.05,0.06c0,0,0,0,0,0c0.009,0,0.009-0.067-0.044-0.074
				c-0.023-0.003-0.042-0.003-0.064,0C1.186,4.631,1.129,4.576,1.165,4.524C1.17,4.516,1.166,4.499,1.162,4.491
				C1.158,4.49,1.152,4.487,1.148,4.486C1.142,4.465,1.118,4.476,1.105,4.469c-0.014,0.007-0.048,0.007-0.06,0.002
				C1.044,4.472,1.043,4.473,1.042,4.474l-0.001,0L1.035,4.47c0.012-0.028,0.012-0.028,0.014-0.05C1.05,4.413,1.05,4.411,1.05,4.409
				L1.044,4.411c0.001-0.004,0.002-0.009,0.003-0.012l0.002-0.002C1.051,4.401,1.054,4.406,1.056,4.41
				c0.001-0.01,0.002-0.02,0.003-0.03C1.058,4.38,1.057,4.38,1.056,4.38L1.055,4.379L1.062,4.36
				c0.015-0.016,0.015-0.016,0.012-0.027C1.044,4.321,1.008,4.335,0.997,4.34C0.982,4.347,0.992,4.333,0.985,4.344
				c0,0.011,0-0.008-0.016-0.008c0,0-0.001,0-0.001,0c0.002,0,0.004,0.035,0.005,0.036C0.971,4.373,0.969,4.39,0.968,4.392
				c-0.002,0-0.005,0.007-0.007,0.007c-0.002-0.003-0.002,0-0.002-0.003c-0.028,0.007-0.055,0-0.082,0
				C0.834,4.331,0.834,4.331,0.831,4.312C0.823,4.245,0.847,4.157,0.847,4.157L0.842,4.143c0,0-0.001,0-0.001,0
				c0.005,0,0.012,0.002,0.017-0.001c0-0.003,0-0.003,0.001-0.007C0.876,4.135,0.876,4.137,0.9,4.121
				c-0.001-0.004-0.001-0.009,0-0.013l0.001,0.021c0.021,0,0.041,0.014,0.062,0.014c0,0,0.001,0,0.001,0L0.96,4.124l0-0.009
				l0.006-0.004C0.97,4.115,0.976,4.127,0.98,4.132c0.007,0.004,0.015,0.011,0.022,0.011c0,0,0,0,0.001,0L0.977,4.125l0,0
				l0.011-0.003L0.995,4.12l0.006-0.004C1.01,4.12,1.018,4.128,1.029,4.127C1.025,4.124,1.021,4.12,1.017,4.117
				C1.019,4.114,1.021,4.11,1.023,4.107c-0.007-0.006-0.007-0.008-0.02-0.005c0-0.003,0-0.005,0-0.008
				c0.004,0.001,0.01,0.003,0.013,0.005c0.016-0.008,0.016-0.008,0.037-0.005c0-0.002,0.001-0.004,0.002-0.007
				c0-0.001,0.001-0.001,0.001-0.001c0.002,0.003,0.006,0.008,0.01,0.01C1.07,4.094,1.07,4.093,1.07,4.092
				c0.01,0.002,0.01,0.002,0.024,0c0.03,0.023,0.03,0.023,0.043,0.014c0.004-0.004,0.004-0.004,0.045,0.025
				c-0.001,0.01-0.003,0.021-0.005,0.031c0,0,0.002,0,0.002,0c0.002,0,0.005-0.002,0.007-0.003c0,0.001,0,0.003,0,0.005
				C1.185,4.166,1.183,4.168,1.181,4.17c0.002,0.004,0.004,0.01,0.006,0.013c0.004,0.005,0.005,0.005,0.007,0.005
				c0.001,0.003,0.004,0.009,0.006,0.011c0.003,0.014,0.014,0.023,0.02,0.036c0.004-0.002,0.011-0.05,0.015-0.051
				c0,0.002,0-0.041-0.001-0.041c0,0,0.001,0,0.001,0c0.021,0-0.042-0.065-0.018-0.126c0.015-0.037,0.076-0.044,0.125-0.069l0,0.011
				L1.341,3.962L1.333,3.968H1.329L1.326,3.964C1.328,3.966,1.33,3.968,1.332,3.969c0.002-0.002,0.004-0.004,0.006-0.005
				C1.34,3.962,1.34,3.962,1.34,3.961C1.336,3.959,1.344,3.957,1.34,3.954c0.003,0,0.024,0.002,0.024,0.001c0-0.001,0-0.001,0-0.001
				c0,0.001-0.009,0.001-0.007,0.002C1.36,3.955,1.351,3.95,1.355,3.95c0.001,0,0.002,0,0.003,0L1.36,3.952
				C1.359,3.95,1.358,3.95,1.357,3.95c0,0,0,0-0.001,0L1.364,3.95c0,0,0,0.001,0,0.001c0-0.003-0.005-0.006-0.006-0.009
				C1.353,3.943,1.343,3.944,1.339,3.944c0-0.002,0.012-0.005,0.011-0.008c0.001-0.001,0.014-0.001,0.014-0.002v0.005L1.352,3.942
				L1.351,3.94L1.346,3.937L1.356,3.94l0.007-0.001V3.937L1.354,3.939C1.357,3.94,1.355,3.95,1.356,3.95c0.001,0,0.001,0,0.002,0
				c-0.001,0-0.002-0.01-0.003-0.012c-0.002-0.004-0.001-0.006,0-0.006L1.354,3.927l0.001,0.009L1.356,3.95c0,0,0,0,0.001,0
				c-0.001,0-0.002-0.016-0.002-0.018C1.345,3.929,1.338,3.919,1.33,3.915L1.333,3.91c0.004,0.003,0.009,0.004,0.013,0.007
				c0-0.001,0-0.004,0.001-0.006C1.344,3.91,1.341,3.929,1.339,3.928C1.34,3.929,1.341,3.95,1.341,3.95c0.001,0,0.002,0,0.002,0
				l0-0.002L1.347,3.95c0,0,0,0,0.001,0L1.347,3.922C1.343,3.92,1.338,3.906,1.335,3.902c0.003,0.002,0.006-0.001,0.008,0.001
				c0.002-0.002,0.004-0.006,0.005-0.008C1.34,3.889,1.328,3.886,1.323,3.875c0.002-0.001,0.024-0.003,0.025-0.004l0.016,0.003
				c0,0.001,0,0.076,0,0.076s-0.04,0-0.04,0c0.002,0,0.005-0.035,0.007-0.034c0-0.001,0.002-0.019,0.002-0.02
				C1.337,3.9,1.342,3.931,1.346,3.933C1.343,3.93,1.341,3.95,1.338,3.95c0,0,0,0,0.001,0h0.006c0,0,0,0,0,0
				c-0.003,0-0.003-0.052-0.004-0.059c0.001,0,0.003-0.017,0.004-0.017l0.001,0.035L1.348,3.95c0,0,0,0,0,0L1.35,3.898l0-0.022
				l0.003-0.015l0.004,0.04L1.355,3.95h0.003l0.001-0.047l0.005-0.045V3.95c0,0-0.012,0-0.011,0L1.346,3.909l0.011-0.021
				l0.007-0.022c0,0.001,0,0.002,0,0.002L1.354,3.866l0.005,0L1.364,3.87c0,0,0,0,0,0.001c0,0-0.004,0-0.002,0
				c0,0-0.004,0.002-0.003,0.002l-0.01,0.003l-0.002,0L1.349,3.88l0.004,0.003l0.006-0.003l0.004,0.007l0.001,0.003
				c0,0,0,0.06,0,0.06s-0.005,0-0.005,0c0.001,0,0.003,0,0.004,0c-0.008,0-0.008-0.018-0.009-0.008l0.002-0.015
				C1.358,3.922,1.36,3.911,1.363,3.909c0.011-0.024,0.011-0.071,0.003-0.1c0.002-0.002,0.003-0.052,0.005-0.052h0L1.366,3.85
				C1.369,3.854,1.374,3.95,1.378,3.95c0.003,0-0.014,0-0.014,0V3.864l0.009,0.001C1.379,3.86,1.388,3.854,1.394,3.849
				c0.008-0.02,0.01-0.02,0.003-0.03l0.006-0.001C1.404,3.815,1.406,3.812,1.407,3.81c0.02-0.002,0.04-0.01,0.061-0.011
				c0-0.002,0.001-0.005,0.002-0.007C1.471,3.791,1.473,3.79,1.475,3.788c0,0.002,0,0.005,0,0.007c0,0,0.001,0,0.001,0.001
				c0.002-0.001,0.005-0.002,0.008-0.004C1.486,3.79,1.486,3.79,1.486,3.79C1.488,3.791,1.49,3.793,1.492,3.794
				c0.003-0.001,0.006-0.002,0.009-0.002C1.502,3.79,1.533,3.787,1.534,3.785C1.532,3.784,1.557,3.782,1.557,3.78c0,0,0,0,0,0
				L1.501,3.756c0.001,0,0.056,0,0.056,0s0,0.03,0,0.031L1.523,3.79L1.506,3.788c-0.003-0.007-0.015-0.012-0.017-0.02
				c0.002,0,0.002-0.002,0.004-0.002c0-0.001-0.001-0.001-0.001-0.002C1.489,3.764,1.515,3.761,1.513,3.761
				c0.008-0.014,0.044-0.014,0.044-0.02c0-0.002,0-0.004,0-0.005L1.534,3.733L1.519,3.746L1.507,3.756c0,0,0,0,0,0l0.005-0.017
				L1.511,3.738l0.004-0.001L1.517,3.73L1.52,3.732C1.523,3.729,1.527,3.744,1.529,3.74c0.002-0.004,0.002,0.016,0.002,0.016h0.001
				L1.53,3.74l0.001-0.009l0.007-0.004L1.536,3.721C1.539,3.72,1.542,3.718,1.544,3.718C1.545,3.719,1.547,3.72,1.548,3.721
				C1.55,3.719,1.552,3.717,1.553,3.715c0.002,0,0.004,0,0.006,0c0.004-0.003,0.009,0.02,0.013,0.019
				c0.001-0.001,0.001,0.022,0.001,0.022c-0.001,0-0.003,0-0.004,0l0.002-0.028L1.569,3.711l0.003-0.004
				C1.579,3.705,1.587,3.704,1.593,3.7C1.593,3.7,1.592,3.697,1.592,3.696l0.006,0.002c0.001,0,0.016-0.005,0.029-0.016L1.624,3.715
				l0.008,0.041c0,0,0,0,0,0c-0.003,0-0.008-0.029-0.013-0.027c0,0.001,0-0.016-0.001-0.015c0.022-0.006,0.034-0.01,0.034-0.01
				c-0.005,0-0.011-0.003-0.015-0.002c-0.002,0.002-0.04,0.001-0.04,0.002L1.557,3.7v0.057h0.038l0,0l0,0l0.019-0.008l0,0l0,0l0,0
				l0,0C1.608,3.75,1.618,3.756,1.602,3.756c-0.001,0-0.001,0-0.001,0L1.557,3.712c0,0,0,0,0,0l0.02-0.001
				C1.574,3.713,1.582,3.716,1.579,3.717l0.007,0.001l0.009-0.004C1.59,3.72,1.59,3.722,1.594,3.734c0.001,0,0.002,0,0.003,0.001
				C1.6,3.739,1.605,3.742,1.609,3.744C1.61,3.742,1.611,3.74,1.611,3.739c0.002,0,0.005-0.001,0.007-0.001
				C1.62,3.737,1.62,3.736,1.62,3.734l0.002,0.001c0.005-0.006,0.012-0.011,0.014-0.02c0.001-0.001,0.002,0.019,0.003,0.019
				l0.001,0.022c0,0,0,0,0,0L1.6,3.733L1.557,3.712v0.004c0,0.001,0.053,0,0.057-0.003L1.637,3.71l0.012,0l0.009,0.003
				c0.021-0.01,0.024-0.01,0.033-0.011c0,0,0.001-0.001,0.001-0.002c0.002,0,0.005,0,0.008,0c0,0,0-0.001-0.001-0.001L1.7,3.697
				l0.004,0.001l0.005-0.002C1.705,3.695,1.701,3.694,1.697,3.692L1.7,3.691l0.001-0.002L1.696,3.684
				c-0.004,0-0.01-0.001-0.013-0.004c-0.004,0.003-0.01,0.041-0.014,0.042c0,0,0.001,0.034,0.001,0.034c-0.001,0-0.001,0-0.001,0
				L1.668,3.719c-0.005,0-0.012-0.02-0.017-0.021L1.645,3.73C1.643,3.729,1.64,3.756,1.638,3.756c0,0,0,0,0,0h-0.08v-0.08
				l0.046-0.001l-0.01-0.001C1.575,3.669,1.557,3.669,1.557,3.659c0-0.003,0-0.005,0-0.007c0-0.001,0.026-0.002,0.023-0.004
				c0.003-0.005,0.022-0.012,0.025-0.017L1.581,3.629L1.557,3.631c0-0.001,0-0.002,0-0.002c0,0.005,0-0.003,0-0.005V3.623
				c0-0.016,0.058-0.016,0.059-0.018C1.576,3.566,1.503,3.632,1.473,3.657c0.057-0.099,0.121-0.096,0.199-0.091
				c0.015,0.001,0.044,0.007,0.056-0.008c-0.09-0.002-0.184,0.006-0.283,0.006c-0.05,0-0.099,0-0.146,0c-0.33,0-0.604,0-0.753,0
				c0,0-0.001-0.003-0.002,0c0.002,0,0.005-0.008,0.007-0.007C0.549,3.561,0.548,3.564,0.546,3.564c0.002,0,0.005,0,0.007,0
				c-0.007,0-0.005,0.052-0.019,0.071C0.53,3.633,0.53,3.636,0.53,3.636c0.003-0.004,0.007-0.007,0.01-0.011
				C0.539,3.624,0.537,3.622,0.536,3.62c-0.004-0.001-0.011-0.001-0.015,0C0.519,3.628,0.517,3.637,0.514,3.645
				C0.512,3.651,0.512,3.651,0.512,3.651l0.002-0.003l0.002,0.003L0.512,3.652c0,0.001,0,0.002-0.001,0.002
				c0,0-0.001,0.001-0.001,0.002c0,0.001-0.001,0.001-0.001,0.002c0,0,0,0.001-0.001,0.002c0,0.001-0.001,0.001-0.001,0.002
				c0,0-0.001,0.001-0.001,0.002c0,0.001-0.001,0.001-0.001,0.002c0,0-0.001,0.001-0.001,0.002c0.003,0.002,0.002,0.002,0,0.002
				C0.497,3.694,0.48,3.714,0.476,3.74C0.468,3.754,0.468,3.754,0.442,3.852C0.442,3.854,0.441,3.857,0.441,3.858
				C0.441,3.863,0.441,3.863,0.44,3.863l0.006,0.028l0.002,0.002c0-0.002,0.001-0.004,0.002-0.007c0,0,0,0,0,0
				c0,0.005,0,0.011,0.001,0.016C0.451,3.9,0.451,3.895,0.448,3.894L0.447,3.896C0.441,3.925,0.457,3.951,0.454,3.98
				c0.004,0.002,0.011,0.004,0.015,0.005C0.471,3.988,0.472,3.99,0.473,3.992C0.48,3.995,0.48,3.995,0.48,3.995l0.002,0.008
				c0.002,0.001,0.053,0.002,0.055,0.003c0.003,0.009-0.14,0.02,0.054,0.03c0,0.001,0,0.001,0,0.001c0,0,0,0.001,0,0.001
				c0,0.001,0,0.001,0,0.001c0,0,0,0.001,0,0.001c0,0,0,0,0,0.001C0.397,4.043,0.397,4.043,0.397,4.044c0,0,0,0.001,0,0.001
				c0,0.001,0,0.001,0,0.001C0.591,4.047,0.48,4.158,0.473,4.164C0.471,4.163,0.493,4.162,0.49,4.162c0,0,0.066,0.106,0.096,0.133
				C0.589,4.291,0.598,4.284,0.599,4.28C0.593,4.274,0.596,4.274,0.591,4.26c-0.002,0-0.004,0-0.006,0
				c-0.008-0.015-0.017-0.069-0.017-0.07C0.565,4.19,0.563,4.188,0.561,4.188C0.56,4.183,0.559,4.175,0.557,4.17
				C0.556,4.168,0.553,4.167,0.551,4.166C0.545,4.134,0.53,4.104,0.521,4.073c0.001-0.005,0.002-0.011,0.003-0.015
				C0.528,4.06,0.535,4.06,0.538,4.059l0.003,0.002c0,0.002,0.001,0.005,0.001,0.007c0.002,0.001,0.005,0.003,0.007,0.004
				c0.012,0.067,0.015,0.076,0.06,0.127c-0.002,0.018-0.002,0.018,0,0.023l0.006-0.001c0.016,0.033,0.041,0.06,0.062,0.09
				c0,0.002-0.001,0.005-0.002,0.007C0.682,4.329,0.68,4.342,0.682,4.353C0.68,4.355,0.678,4.357,0.677,4.358
				C0.678,4.36,0.68,4.363,0.681,4.365c0.017,0.031,0.107,0.078,0.108,0.078c0.018,0.008,0.036,0.018,0.054,0.025
				c0.024,0.009,0.045-0.015,0.069-0.006c0.03,0.01,0.043,0.044,0.074,0.054l0.077,0.02c0.001-0.002,0.002-0.01,0.002-0.012
				C1.068,4.527,1.072,4.53,1.074,4.53c-0.002,0-0.097,0-0.097,0s0,0.006,0,0.007C1.17,4.552,1.055,4.571,1.072,4.586l0.019,0.001
				l0.017,0.004l0.006,0.003c-0.001,0.002,0,0.005-0.001,0.007C1.118,4.61,1.121,4.614,1.133,4.62l0.025-0.005
				C1.155,4.612,1.17,4.608,1.17,4.604v0c0,0.009,0.02,0.028,0.02,0.029c0,0.002-0.011,0.005-0.012,0.008
				c0.003,0.003-0.001,0.005,0.003,0.004L1.17,4.64v0.036c0,0.003,0.013,0.047,0.015,0.047c0.001,0,0.003,0,0.004,0
				c0.016,0,0.016-0.005,0.037,0.01c0.001-0.002,0.002-0.01,0.003-0.01c0,0,0,0,0.001,0c0.003,0,0.003-0.022,0.007-0.018
				c0.004,0,0.011-0.018,0.015-0.02c0-0.002-0.038-0.014-0.038-0.015C1.213,4.668,1.17,4.657,1.17,4.656c0-0.002,0-0.005,0-0.007
				c0-0.002,0.048-0.005,0.052-0.006c0.001-0.002,0.021-0.005,0.021-0.007c0.018-0.003,0.031-0.001,0.039,0.012
				c0.002-0.001,0.01,0.034,0.012,0.033c0.002,0.002,0.01,0.042,0.011,0.042c-0.002,0-0.005,0-0.007,0
				c-0.002,0-0.002-0.027,0.006-0.015c-0.009,0.006-0.02-0.013-0.03-0.011c0,0.003-0.002,0-0.004,0.002
				c-0.002-0.001-0.004-0.008-0.005-0.01c-0.03,0.006-0.029,0.037-0.047,0.053C1.22,4.745,1.222,4.747,1.223,4.749
				c0,0.001-0.001,0.002-0.001,0.003l-0.001,0C1.217,4.749,1.213,4.744,1.209,4.74C1.205,4.737,1.205,4.737,1.204,4.737
				c0.003,0.004,0.007,0.011,0.009,0.015C1.212,4.754,1.21,4.756,1.208,4.758c-0.002,0-0.004-0.002-0.006-0.002
				c0,0.004-0.001,0.011-0.001,0.015c0.022,0.019,0.016,0.061,0.016,0.062c0.002,0.002,0.004,0.004,0.006,0.005
				C1.222,4.846,1.222,4.846,1.213,4.864C1.209,4.866,1.202,4.868,1.198,4.869c0,0.009,0,0.009-0.009,0.015
				C1.19,4.885,1.19,4.889,1.191,4.891c-0.006,0.004-0.015,0.007-0.02,0.014C1.173,4.913,1.17,4.913,1.17,4.922
				c0.085,0.002,0.177-0.005,0.274-0.005c0.114,0,0.225,0,0.328,0C1.785,4.916,1.808,4.903,1.817,4.883"/>
			
				<linearGradient id="path6915_1_" gradientUnits="userSpaceOnUse" x1="1.466" y1="3.0965" x2="1.466" y2="-8.9269" gradientTransform="matrix(1 0 0 -1 -0.0055 5.8936)">
				<stop  offset="0" style="stop-color:#76A1F0"/>
				<stop  offset="1" style="stop-color:#6B90D5"/>
			</linearGradient>
			<path id="path6915" inkscape:connector-curvature="0" fill="url(#path6915_1_)" d="M1.46,2.797c-0.795,0-1.443,0.647-1.443,1.443
				c0,0.795,0.647,1.443,1.443,1.443c0.796,0,1.443-0.647,1.443-1.443C2.903,3.444,2.256,2.797,1.46,2.797z M2.661,4.637
				C2.64,4.699,2.614,4.759,2.585,4.817c-0.03,0.058-0.064,0.113-0.102,0.165c-0.038,0.052-0.08,0.1-0.125,0.146
				C2.312,5.173,2.263,5.215,2.211,5.253C2.159,5.291,2.104,5.325,2.047,5.355c-0.057,0.03-0.118,0.055-0.18,0.076
				C1.805,5.451,1.74,5.467,1.674,5.478C1.608,5.489,1.54,5.494,1.471,5.494C0.202,5.444-0.157,3.984,0.655,3.287
				C0.983,3.005,1.337,2.99,1.471,2.985c0.069,0,0.137,0.006,0.203,0.016C1.74,3.012,1.805,3.028,1.867,3.049
				c0.062,0.021,0.122,0.046,0.18,0.076c0.058,0.03,0.113,0.065,0.164,0.103c0.052,0.038,0.101,0.08,0.146,0.125
				c0.045,0.045,0.087,0.094,0.125,0.146c0.038,0.052,0.072,0.107,0.102,0.165c0.03,0.058,0.055,0.118,0.076,0.18
				c0.021,0.063,0.037,0.127,0.048,0.193c0.011,0.067,0.016,0.135,0.016,0.204c0,0.069-0.006,0.137-0.016,0.203
				C2.697,4.51,2.681,4.575,2.661,4.637z"/>
		</g>
	</g>
</g>
</svg>
