<?xml version="1.0" encoding="UTF-8" standalone="no"?>
<svg
   xmlns:dc="http://purl.org/dc/elements/1.1/"
   xmlns:cc="http://creativecommons.org/ns#"
   xmlns:rdf="http://www.w3.org/1999/02/22-rdf-syntax-ns#"
   xmlns:svg="http://www.w3.org/2000/svg"
   xmlns="http://www.w3.org/2000/svg"
   xmlns:sodipodi="http://sodipodi.sourceforge.net/DTD/sodipodi-0.dtd"
   xmlns:inkscape="http://www.inkscape.org/namespaces/inkscape"
   height="24px"
   width="24px"
   viewBox="0 0 100 100"
   enable-background="new 0 0 100 100"
   version="1.1"
   id="svg30"
   sodipodi:docname="icon.svg"
   inkscape:version="0.92.2 5c3e80d, 2017-08-06">
  <metadata
     id="metadata36">
    <rdf:RDF>
      <cc:Work
         rdf:about="">
        <dc:format>image/svg+xml</dc:format>
        <dc:type
           rdf:resource="http://purl.org/dc/dcmitype/StillImage" />
      </cc:Work>
    </rdf:RDF>
  </metadata>
  <defs
     id="defs34" />
  <sodipodi:namedview
     pagecolor="#ffffff"
     bordercolor="#666666"
     borderopacity="1"
     objecttolerance="10"
     gridtolerance="10"
     guidetolerance="10"
     inkscape:pageopacity="0"
     inkscape:pageshadow="2"
     inkscape:window-width="1597"
     inkscape:window-height="1187"
     id="namedview32"
     showgrid="false"
     inkscape:zoom="20.875764"
     inkscape:cx="4.5272741"
     inkscape:cy="2.4675123"
     inkscape:window-x="-239"
     inkscape:window-y="14"
     inkscape:window-maximized="0"
     inkscape:current-layer="g135" />
  <g
     id="g195"
     transform="matrix(0.09571763,0,0,0.09571763,50.891399,12.634983)"
     style="fill:#999999;fill-opacity:1">
    <g
       id="g129"
       style="fill:#999999;fill-opacity:1"
       transform="translate(-130.58966,87.061635)">
      <g
         id="g127"
         style="fill:#999999;fill-opacity:1">
        <path
           id="path125"
           d="m 467,-158.12327 h -683.1849 c -24.813,0 -45,20.187 -45,45 v 648.24654 c 0,24.813 20.89692,45 45,45 h 46 v 75 c 0,6.067 3.655,11.537 9.26,13.858 1.856,0.769 3.805,1.142 5.737,1.142 3.904,0 7.741,-1.524 10.61,-4.394 l 85.605996,-85.606 H 467 c 24.813,0 45,-20.187 45,-45 v -648.24654 c 0,-24.813 -20.187,-45 -45,-45 z m 15,693.24654 c 0,8.271 -6.729,15 -15,15 H -65.184904 c -3.978,0 -7.793,1.581 -10.606,4.394 l -64.393996,64.392 v -53.786 c 0,-8.284 -6.716,-15 -15,-15 h -61 c -8.271,0 -15,-6.729 -15,-15 v -648.24654 c 0,-8.271 6.729,-15 15,-15 H 467 c 8.271,0 15,6.729 15,15 z"
           inkscape:connector-curvature="0"
           style="fill:#999999;fill-opacity:1"
           sodipodi:nodetypes="ssssscscsccsssssssccsssssssss" />
      </g>
    </g>
    <g
       id="g135"
       style="fill:#999999;fill-opacity:1"
       transform="matrix(-1,0,0,1,206.82936,124.43657)">
      <path
         style="fill:#999999;fill-opacity:1"
         d="m 376,78.938365 h -30 c -11.426,0 -21.864,4.288 -29.809,11.33 l -9.605,-6.203 c -12.89,-8.326 -20.57101,-87.7580548 -20.57101,-103.104057 v -27.324 c 0,-16.542 -13.458,-30 -30,-30 -33.084,0 -59.99479,26.916001 -60,60 l -0.015,95.301057 H 78.037805 c -28.42199,0 -49.69099,26.005005 -44.12599,53.825005 l 18,220.59675 c 4.192,20.961 22.74999,36.175 44.12599,36.175 H 252.248 c 14.929,0 29.66,-2.455 43.781,-7.296 l 17.929,-6.146 c 8.168,8.29 19.513,13.442 32.042,13.442 h 30 c 8.284,0 15,-6.716 15,-15 V 93.938365 c 0,-8.284 -6.716,-15 -15,-15 z"
         id="path1007"
         inkscape:connector-curvature="0"
         sodipodi:nodetypes="ssccsssscsccssccsssss" />
      <path
         style="fill:#ffffff;fill-opacity:1"
         d="m 301.205,348.75012 -14.904,5.109 c -10.984,3.766 -22.44,5.675 -34.052,5.675 H 96.038807 c -7.125,0 -13.312,-5.071 -14.709,-12.059 l -18,-220.59675 c -1.858,-9.289 5.252,-17.941 14.709,-17.941 H 211 c 8.284,0 14.99887,-6.716 15,-15.000005 l 0.015,-110.301057 c 0.002,-16.542 13.458,-30 30,-30 v 27.325 c 0,25.5750022 12.81101,114.429057 34.29601,128.304062 l 11.304,7.3 c -0.397,2.4 -0.614,4.861 -0.614,7.372 v 220.59675 c 0,1.422 0.074,2.827 0.204,4.216 z"
         id="path1005"
         inkscape:connector-curvature="0"
         sodipodi:nodetypes="ccssccsssscsccssc" />
      <path
         style="fill:#ffffff;fill-opacity:1"
         d="m 361,359.53512 h -15 c -8.271,0 -15,-6.729 -15,-15 V 123.93837 c 0,-8.271 13.59567,-23.15091 15,-15 h 15 z"
         id="path131"
         inkscape:connector-curvature="0"
         sodipodi:nodetypes="csssscc" />
    </g>
    <g
       id="g137"
       style="fill:#999999;fill-opacity:1" />
    <g
       id="g139"
       style="fill:#999999;fill-opacity:1" />
    <g
       id="g141"
       style="fill:#999999;fill-opacity:1" />
    <g
       id="g143"
       style="fill:#999999;fill-opacity:1" />
    <g
       id="g145"
       style="fill:#999999;fill-opacity:1" />
    <g
       id="g147"
       style="fill:#999999;fill-opacity:1" />
    <g
       id="g149"
       style="fill:#999999;fill-opacity:1" />
    <g
       id="g151"
       style="fill:#999999;fill-opacity:1" />
    <g
       id="g153"
       style="fill:#999999;fill-opacity:1" />
    <g
       id="g155"
       style="fill:#999999;fill-opacity:1" />
    <g
       id="g157"
       style="fill:#999999;fill-opacity:1" />
    <g
       id="g159"
       style="fill:#999999;fill-opacity:1" />
    <g
       id="g161"
       style="fill:#999999;fill-opacity:1" />
    <g
       id="g163"
       style="fill:#999999;fill-opacity:1" />
    <g
       id="g165"
       style="fill:#999999;fill-opacity:1" />
  </g>
</svg>
