<?xml version="1.0" encoding="utf-8"?>
<!-- Generator: Adobe Illustrator 15.0.0, SVG Export Plug-In . SVG Version: 6.00 Build 0)  -->
<!DOCTYPE svg PUBLIC "-//W3C//DTD SVG 1.1//EN" "http://www.w3.org/Graphics/SVG/1.1/DTD/svg11.dtd">
<svg version="1.1" id="Layer_1" xmlns="http://www.w3.org/2000/svg" xmlns:xlink="http://www.w3.org/1999/xlink" x="0px" y="0px"
	 width="24px" height="24px" viewBox="0 0 24 24" enable-background="new 0 0 24 24" xml:space="preserve">
<g id="g129_3_" transform="translate(-130.58966,87.061635)">
	<g id="g127_3_">
		
			<linearGradient id="SVGID_1_" gradientUnits="userSpaceOnUse" x1="392.7693" y1="688.6493" x2="406.5311" y2="688.6493" gradientTransform="matrix(1 0 0 1 -261.1797 -766.999)">
			<stop  offset="0" style="stop-color:#F0A829"/>
			<stop  offset="1" style="stop-color:#C7671A"/>
		</linearGradient>
		<path fill="url(#SVGID_1_)" d="M144.318-84.786h-11.695c-0.57,0-1.034,0.464-1.034,1.034v7.739c0,0.57,0.48,1.033,1.034,1.033
			h1.057v2.723c0,0.141,0.084,0.266,0.212,0.318c0.043,0.018,0.087,0.025,0.132,0.025c0.09,0,0.178-0.033,0.244-0.102l2.967-2.968
			h7.083c0.57,0,1.033-0.463,1.033-1.032v-7.739C145.351-84.322,144.888-84.786,144.318-84.786z"/>
		
			<linearGradient id="SVGID_2_" gradientUnits="userSpaceOnUse" x1="393.4588" y1="688.4071" x2="405.8436" y2="688.4071" gradientTransform="matrix(1 0 0 1 -261.1797 -766.999)">
			<stop  offset="0" style="stop-color:#FFEBA8"/>
			<stop  offset="1" style="stop-color:#F8BE27"/>
		</linearGradient>
		<path fill="url(#SVGID_2_)" d="M144.664-76.013c0,0.189-0.156,0.344-0.346,0.344h-7.226c-0.092,0-0.179,0.037-0.244,0.102
			l-2.479,2.479v-2.233c0-0.191-0.154-0.347-0.345-0.347h-1.401c-0.19,0-0.344-0.154-0.344-0.344v-7.739
			c0-0.19,0.154-0.345,0.344-0.345h11.695c0.189,0,0.346,0.155,0.346,0.345V-76.013L144.664-76.013z"/>
	</g>
</g>
<g id="g127_4_">
	
		<linearGradient id="SVGID_3_" gradientUnits="userSpaceOnUse" x1="271.418" y1="778.7891" x2="284.1797" y2="778.7891" gradientTransform="matrix(1 0 0 1 -261.1797 -766.999)">
		<stop  offset="0" style="stop-color:#76A1F0"/>
		<stop  offset="1" style="stop-color:#6B90D5"/>
	</linearGradient>
	<path fill="url(#SVGID_3_)" d="M10.238,6.612v6.738c0,0.571,0.463,1.034,1.033,1.034h5.084l3.967,3.514
		C20.389,17.963,20.477,18,20.566,18c0.043,0,0.088-0.011,0.131-0.026c0.129-0.054,0.213-0.179,0.213-0.318v-3.27h1.057
		c0.557,0,1.033-0.463,1.033-1.034V6.614c0-0.568-0.463-1.033-1.033-1.033H11.273C10.701,5.579,10.238,6.043,10.238,6.612z"/>
	
		<linearGradient id="SVGID_4_" gradientUnits="userSpaceOnUse" x1="272.1035" y1="778.543" x2="283.4902" y2="778.543" gradientTransform="matrix(1 0 0 1 -261.1797 -766.999)">
		<stop  offset="0" style="stop-color:#BBE0F7"/>
		<stop  offset="1" style="stop-color:#82B4FB"/>
	</linearGradient>
	<path fill="url(#SVGID_4_)" d="M10.925,6.612c0-0.189,0.156-0.344,0.346-0.344h10.695c0.188,0,0.344,0.154,0.344,0.344v6.738
		c0,0.189-0.154,0.344-0.344,0.344h-1.4c-0.191,0-0.346,0.154-0.346,0.348v2.78l-3.479-3.025c-0.063-0.064-0.151-0.104-0.243-0.104
		h-5.228c-0.189,0-0.346-0.153-0.346-0.344L10.925,6.612L10.925,6.612z"/>
</g>
<g id="g129_2_" transform="translate(-130.58966,87.061635)">
	<g id="g127_2_">
		
			<linearGradient id="SVGID_5_" gradientUnits="userSpaceOnUse" x1="658.0682" y1="696.2635" x2="671.8289" y2="696.2635" gradientTransform="matrix(1 0 0 1 -522.3584 -767)">
			<stop  offset="0" style="stop-color:#90C50E"/>
			<stop  offset="1" style="stop-color:#70A034"/>
		</linearGradient>
		<path fill="url(#SVGID_5_)" d="M148.435-77.411h-11.693c-0.57,0-1.033,0.465-1.033,1.035v7.463c0,0.57,0.479,1.033,1.033,1.033
			h1.598v3.474c0,0.143,0.084,0.268,0.213,0.318c0.043,0.019,0.088,0.026,0.131,0.026c0.09,0,0.178-0.034,0.244-0.102l3.9-3.719
			h5.607c0.57,0,1.035-0.463,1.035-1.032v-7.464C149.471-76.947,149.006-77.411,148.435-77.411z"/>
		
			<linearGradient id="SVGID_6_" gradientUnits="userSpaceOnUse" x1="658.7567" y1="696.0204" x2="671.1395" y2="696.0204" gradientTransform="matrix(1 0 0 1 -522.3584 -767)">
			<stop  offset="0" style="stop-color:#D9F991"/>
			<stop  offset="0.239" style="stop-color:#D7F88D"/>
			<stop  offset="0.45" style="stop-color:#D1F383"/>
			<stop  offset="0.651" style="stop-color:#C6EC71"/>
			<stop  offset="0.844" style="stop-color:#B7E257"/>
			<stop  offset="1" style="stop-color:#A8D73D"/>
		</linearGradient>
		<path fill="url(#SVGID_6_)" d="M148.781-68.913c0,0.189-0.154,0.345-0.346,0.345h-5.75c-0.092,0-0.18,0.036-0.244,0.103
			l-3.412,3.229v-2.985c0-0.19-0.154-0.346-0.346-0.346h-1.941c-0.189,0-0.344-0.154-0.344-0.344v-7.464
			c0-0.191,0.154-0.346,0.344-0.346h11.693c0.191,0,0.346,0.154,0.346,0.346V-68.913z"/>
	</g>
</g>
</svg>
