<?xml version="1.0" encoding="utf-8"?>
<!-- Generator: Adobe Illustrator 15.0.0, SVG Export Plug-In . SVG Version: 6.00 Build 0)  -->
<!DOCTYPE svg PUBLIC "-//W3C//DTD SVG 1.1//EN" "http://www.w3.org/Graphics/SVG/1.1/DTD/svg11.dtd">
<svg version="1.1" id="Layer_1" xmlns="http://www.w3.org/2000/svg" xmlns:xlink="http://www.w3.org/1999/xlink" x="0px" y="0px"
	 width="24px" height="24px" viewBox="0 0 24 24" enable-background="new 0 0 24 24" xml:space="preserve">
<g>
	<g>
		<path fill="#FFFFFF" stroke="#999999" stroke-linecap="round" stroke-linejoin="round" stroke-miterlimit="10" d="M15.708,6.468
			h4.848l-6.119-5.855v4.584C14.437,5.916,15.013,6.468,15.708,6.468z"/>
		<path fill="#FFFFFF" stroke="#999999" stroke-linecap="round" stroke-linejoin="round" stroke-miterlimit="10" d="M15.708,6.468
			c-0.72,0-1.271-0.552-1.271-1.271V0.612h-9.72c-0.72,0-1.272,0.552-1.272,1.271v20.232c0,0.72,0.552,1.271,1.272,1.271h14.544
			c0.719,0,1.271-0.552,1.271-1.271V6.468H15.708z"/>
	</g>
	<path fill="none" stroke="#999999" stroke-linecap="round" stroke-linejoin="round" stroke-miterlimit="10" d="M7.116,15.3H16.5
		 M7.116,11.484H16.5 M7.116,19.212H16.5"/>
</g>
<g>
	<circle fill="#009688" cx="5.808" cy="12.048" r="5.808"/>
	<path fill="#FFFFFF" d="M8.544,10.992L6.792,9.24l0.36-0.36l1.752,1.752L8.544,10.992 M3.84,13.607l-0.696-0.695L6.456,9.6
		l0.696,0.696L3.84,13.607 M2.016,15.432c-0.048,0.096-0.024,0.192,0.072,0.264c0.072,0.072,0.168,0.097,0.264,0.072l2.112-0.815
		L2.832,13.32L2.016,15.432 M9.408,10.104c0.48-0.48,0.48-1.272,0-1.752c-0.48-0.48-1.272-0.48-1.752,0L7.464,8.52l1.752,1.752
		L9.408,10.104 M7.512,10.632l0.696,0.696l-3.336,3.336l-0.696-0.696L7.512,10.632"/>
</g>
</svg>
