<?xml version="1.0" encoding="UTF-8" standalone="no"?>
<svg
   xmlns:dc="http://purl.org/dc/elements/1.1/"
   xmlns:cc="http://creativecommons.org/ns#"
   xmlns:rdf="http://www.w3.org/1999/02/22-rdf-syntax-ns#"
   xmlns:svg="http://www.w3.org/2000/svg"
   xmlns="http://www.w3.org/2000/svg"
   xmlns:sodipodi="http://sodipodi.sourceforge.net/DTD/sodipodi-0.dtd"
   xmlns:inkscape="http://www.inkscape.org/namespaces/inkscape"
   height="24px"
   width="24px"
   viewBox="0 0 100 100"
   enable-background="new 0 0 100 100"
   version="1.1"
   id="svg32"
   sodipodi:docname="icon.svg"
   inkscape:version="0.92.2 5c3e80d, 2017-08-06">
  <metadata
     id="metadata38">
    <rdf:RDF>
      <cc:Work
         rdf:about="">
        <dc:format>image/svg+xml</dc:format>
        <dc:type
           rdf:resource="http://purl.org/dc/dcmitype/StillImage" />
        <dc:title></dc:title>
      </cc:Work>
    </rdf:RDF>
  </metadata>
  <defs
     id="defs36">
    <style
       id="style1183">
      .cls-1 {
        isolation: isolate;
      }

      .cls-2 {
        fill: none;
      }

      .cls-3 {
        fill: #6bc9a7;
      }

      .cls-4 {
        opacity: 0.15;
        mix-blend-mode: multiply;
      }

      .cls-5 {
        fill: #fff;
      }

      .cls-6 {
        fill: #cde6fc;
      }

      .cls-7 {
        fill: #8db7e2;
      }

      .cls-8 {
        opacity: 0.2;
      }

      .cls-9 {
        fill: #231f20;
      }

      .cls-10 {
        fill: #ddd;
      }

      .cls-11 {
        fill: #239630;
      }
    </style>
    <style
       id="style1586">
      .cls-1 {
        fill: #ea964d;
      }

      .cls-2 {
        fill: #f0f1f5;
      }

      .cls-3 {
        fill: #b8b8bf;
      }

      .cls-4 {
        fill: #34495e;
      }

      .cls-5 {
        fill: #e94c3d;
      }

      .cls-6 {
        fill: #c1392b;
      }

      .cls-7 {
        fill: #3497da;
      }

      .cls-8 {
        fill: #2a80bb;
      }

      .cls-9 {
        fill: #2c3e50;
        opacity: 0.1;
      }

      .cls-10 {
        fill: #8e44ad;
      }

      .cls-11 {
        fill: none;
      }
    </style>
  </defs>
  <sodipodi:namedview
     pagecolor="#ffffff"
     bordercolor="#666666"
     borderopacity="1"
     objecttolerance="10"
     gridtolerance="10"
     guidetolerance="10"
     inkscape:pageopacity="0"
     inkscape:pageshadow="2"
     inkscape:window-width="1440"
     inkscape:window-height="856"
     id="namedview34"
     showgrid="false"
     inkscape:zoom="27.430147"
     inkscape:cx="15.421814"
     inkscape:cy="11.306192"
     inkscape:window-x="75"
     inkscape:window-y="47"
     inkscape:window-maximized="0"
     inkscape:current-layer="svg32" />
  <g
     stroke-miterlimit="10"
     id="g22"
     style="display:none;stroke-miterlimit:10">
    <g
       id="g14"
       style="stroke-width:3;stroke-linecap:round;stroke-linejoin:round">
      <g
         id="g10"
         style="stroke:#999999"
         transform="translate(29.166667)">
        <g
           id="g6"
           style="fill:#ffffff">
          <path
             d="m 41.566667,28.1 h 18.4 l -23.3,-24.1 v 18.9 c 0,2.8 2.2,5.2 4.9,5.2 z"
             id="path2"
             inkscape:connector-curvature="0" />
          <path
             d="m 41.566667,28.1 c -2.7,0 -4.8,-2.3 -4.8,-5.2 V 4 H -8.5666667 c -2.7000003,0 -4.8000003,2.3 -4.8000003,5.2 v 83.2 c 0,2.9 2.1,5.2 4.8000003,5.2 H 55.066667 c 2.7,0 4.8,-2.3 4.8,-5.2 V 28.1 Z"
             id="path4"
             inkscape:connector-curvature="0"
             sodipodi:nodetypes="sscsssssscs" />
        </g>
      </g>
    </g>
  </g>
  <style
     id="style131"
     type="text/css">
	.st0{fill:#1D1D1D;}
	.st1{fill:#FFFFFF;}
</style>
  <style
     id="style900"
     type="text/css">
	.st0{fill:none;}
	.st1{fill:#88C87A;}
	.st2{opacity:0.15;}
	.st3{fill:#231F20;}
	.st4{fill:#FFFFFF;}
	.st5{fill:#F05F5F;}
</style>
  <style
     id="style596"
     type="text/css">
	.st0{fill:#E5E5E5;}
	.st1{fill:#F4F4EF;}
	.st2{fill:#D3A079;}
	.st3{opacity:0.85;}
	.st4{fill:#AE7750;}
	.st5{fill:#C9C9C9;}
	.st6{fill:#CEDCDD;}
	.st7{fill:#FFFFFF;}
	.st8{fill:#B4C6DB;}
	.st9{fill:#9DB1C4;}
	.st10{fill:#A5BACE;}
	.st11{fill:#E5455C;}
	.st12{fill:#C13A5B;}
	.st13{opacity:0.25;}
	.st14{fill:#997E53;}
	.st15{fill:#52B700;}
	.st16{fill:#5BBA6D;}
	.st17{fill:#55A562;}
	.st18{fill:#BC995B;}
	.st19{fill:#474747;}
	.st20{fill:#2D2D2D;}
	.st21{fill:#EFC413;}
	.st22{fill:#006BEB;}
	.st23{fill:#34495E;}
	.st24{fill:#FF4385;}
	.st25{fill:none;}
</style>
  <g
     id="Layer_2-7"
     transform="matrix(0.41085094,0,0,0.41085094,-34.536708,-1.7801735)">
    <g
       id="image_hotpots">
      <g
         id="g1022">
        <g
           id="g1020">
          <g
             id="g928">
            <g
               id="g602">
              <path
                 id="path600"
                 d="m 293.2,117.4 c -27.8,-2.9 -56.2,-4.6 -84.5,-4.6 -28.4,0 -56.7,1.7 -84.5,4.7 0,-0.8 0,-1.6 0,-2.3 27.8,-2.6 56.1,-4.2 84.5,-4.2 28.4,0 56.8,1.5 84.5,4.1 0,0.7 0,1.5 0,2.3 z"
                 class="st0"
                 inkscape:connector-curvature="0"
                 style="fill:#e5e5e5" />
            </g>
            <g
               id="g606">
              <path
                 id="path604"
                 d="m 293.2,134.8 c -55.6,-10.3 -113.5,-10.2 -169.1,0.2 0,-5.8 0,-11.6 0,-17.5 27.8,-2.9 56.1,-4.7 84.5,-4.7 28.4,0 56.8,1.7 84.5,4.6 0.1,5.8 0.1,11.6 0.1,17.4 z"
                 class="st1"
                 inkscape:connector-curvature="0"
                 style="fill:#f4f4ef" />
            </g>
            <g
               id="g638">
              <g
                 id="g612">
                <g
                   id="g610">
                  <path
                     id="path608"
                     d="m 293.2,146.8 c -55.5,-13.2 -113.3,-13.1 -168.7,0.1 0,-9.8 0,-19.7 0,-29.5 27.7,-2.9 56,-4.6 84.4,-4.6 28.3,0 56.6,1.7 84.4,4.6 -0.1,9.8 -0.1,19.6 -0.1,29.4 z"
                     class="st2"
                     inkscape:connector-curvature="0"
                     style="fill:#d3a079" />
                </g>
              </g>
              <g
                 id="g618"
                 class="st3"
                 style="opacity:0.85">
                <g
                   id="g616">
                  <path
                     id="path614"
                     d="m 293.2,141.1 c -55.5,-11.8 -113.3,-11.7 -168.7,0.1 0,-0.1 0,-0.3 0,-0.4 55.5,-11.8 113.3,-11.8 168.7,-0.1 0,0.1 0,0.2 0,0.4 z"
                     class="st4"
                     inkscape:connector-curvature="0"
                     style="fill:#ae7750" />
                </g>
              </g>
              <g
                 id="g624"
                 class="st3"
                 style="opacity:0.85">
                <g
                   id="g622">
                  <path
                     id="path620"
                     d="m 293.2,135.3 c -55.5,-10.4 -113.3,-10.3 -168.7,0.1 0,-0.1 0,-0.3 0,-0.4 55.4,-10.4 113.3,-10.4 168.7,-0.1 0,0.2 0,0.3 0,0.4 z"
                     class="st4"
                     inkscape:connector-curvature="0"
                     style="fill:#ae7750" />
                </g>
              </g>
              <g
                 id="g630"
                 class="st3"
                 style="opacity:0.85">
                <g
                   id="g628">
                  <path
                     id="path626"
                     d="m 293.2,129.6 c -27.7,-4.4 -56.1,-6.8 -84.4,-6.7 -28.3,0 -56.6,2.4 -84.4,6.8 0,-0.1 0,-0.3 0,-0.4 27.7,-4.4 56,-6.8 84.4,-6.8 28.3,0 56.6,2.3 84.4,6.7 0,0.1 0,0.2 0,0.4 z"
                     class="st4"
                     inkscape:connector-curvature="0"
                     style="fill:#ae7750" />
                </g>
              </g>
              <g
                 id="g636"
                 class="st3"
                 style="opacity:0.85">
                <g
                   id="g634">
                  <path
                     id="path632"
                     d="m 293.2,123.8 c -27.7,-3.7 -56,-5.7 -84.4,-5.7 -28.3,0 -56.6,2.1 -84.4,5.8 0,-0.1 0,-0.3 0,-0.4 27.7,-3.7 56,-5.7 84.4,-5.7 28.3,0 56.6,2 84.4,5.6 0,0.2 0,0.3 0,0.4 z"
                     class="st4"
                     inkscape:connector-curvature="0"
                     style="fill:#ae7750" />
                </g>
              </g>
            </g>
            <g
               id="g642">
              <path
                 id="path640"
                 d="m 293.2,115.1 c -27.8,-2.6 -56.2,-4.2 -84.5,-4.1 -28.4,0 -56.8,1.6 -84.5,4.2 0,-0.5 0,-1 0,-1.5 27.8,-2.4 56.1,-4 84.5,-3.9 28.4,0 56.8,1.5 84.5,3.9 0,0.4 0,0.9 0,1.4 z"
                 class="st5"
                 inkscape:connector-curvature="0"
                 style="fill:#c9c9c9" />
            </g>
            <g
               id="g646">
              <path
                 id="path644"
                 d="m 293.2,113.7 c -27.8,-2.4 -55.3,-3.8 -83.5,-4 -28.4,0 -56.8,1.5 -84.5,3.9 0,-23.7 0,-47.3 0,-71 27.8,6.5 56.2,8.8 84.5,8.9 28.4,-0.1 56.7,-2.6 84.4,-9.2 0,23.7 -0.9,47.7 -0.9,71.4 z"
                 class="st6"
                 inkscape:connector-curvature="0"
                 style="fill:#cedcdd" />
            </g>
            <g
               id="g680">
              <g
                 id="g650">
                <path
                   id="path648"
                   d="m 282,57 c -9.9,1.4 -19.9,2.5 -30,3.2 -0.2,0 -0.4,0.2 -0.4,0.4 0,17.8 0,35.6 0,53.5 10.3,0.6 20.6,1.4 30.8,2.3 0,-19.7 0,-39.4 0,-59 0,-0.3 -0.2,-0.4 -0.4,-0.4 z"
                   class="st7"
                   inkscape:connector-curvature="0"
                   style="fill:#ffffff" />
              </g>
              <g
                 id="g654">
                <path
                   id="path652"
                   d="m 254.3,114.2 c 0,-17 0,-33.9 0,-50.9 0,-0.2 0.2,-0.4 0.4,-0.4 8.3,-0.6 16.5,-1.4 24.7,-2.4 0.2,0 0.4,0.1 0.4,0.3 0,18.4 0,36.9 0,55.3 -8.5,-0.8 -17,-1.4 -25.5,-1.9 z"
                   class="st8"
                   inkscape:connector-curvature="0"
                   style="fill:#b4c6db" />
              </g>
              <g
                 id="g658">
                <path
                   id="path656"
                   d="m 270,79.3 c -2.6,2 -5.3,3.9 -7.9,5.8 -0.4,0 -0.7,-0.3 -0.7,-0.8 0,-3.3 0,-6.7 0,-10 0,-0.4 0.3,-0.8 0.7,-1.1 2.6,-1.9 5.3,-3.8 7.9,-5.8 0.4,0 0.7,0.3 0.7,0.7 0,3.4 0,6.9 0,10.3 0,0.5 -0.7,0.9 -0.7,0.9 z"
                   class="st7"
                   inkscape:connector-curvature="0"
                   style="fill:#ffffff" />
              </g>
              <g
                 id="g662">
                <path
                   id="path660"
                   d="m 262.8,74.8 v 0 c 0.1,-0.1 0.1,-0.1 0.1,-0.1 2.2,-1.6 4.4,-3.3 6.6,-5 0,2.6 0,5.2 0,7.8 l -0.3,0.2 -0.1,0.1 c -2.1,1.7 -4.2,3.3 -6.3,4.9 0,-2.7 0,-5.3 0,-7.9 z"
                   class="st9"
                   inkscape:connector-curvature="0"
                   style="fill:#9db1c4" />
              </g>
              <g
                 id="g666">
                <path
                   id="path664"
                   d="m 254.3,114.2 c 8.5,0.5 17,1.1 25.5,1.9 0,-4.9 0,-9.9 0,-14.8 0,-1.2 0,-2.5 0,-3.7 -8.5,6 -17,11.4 -25.5,16.6 z"
                   class="st1"
                   inkscape:connector-curvature="0"
                   style="fill:#f4f4ef" />
              </g>
              <g
                 id="g670">
                <path
                   id="path668"
                   d="m 279.8,97.6 c -8.5,6 -17,11.4 -25.5,16.6 0,-0.7 0,-1.4 0,-2 8.5,-5.2 17,-10.7 25.5,-16.8 0,0.7 0,1.5 0,2.2 z"
                   class="st0"
                   inkscape:connector-curvature="0"
                   style="fill:#e5e5e5" />
              </g>
              <g
                 id="g674">
                <path
                   id="path672"
                   d="m 279.8,95.4 c -8.5,6.1 -17,11.6 -25.5,16.8 0,-0.2 0,-0.4 0,-0.7 8.5,-5.2 17,-10.7 25.5,-16.8 0,0.2 0,0.5 0,0.7 z"
                   class="st10"
                   inkscape:connector-curvature="0"
                   style="fill:#a5bace" />
              </g>
              <g
                 id="g678">
                <path
                   id="path676"
                   d="m 279.8,94.7 c -8.5,6.1 -17,11.6 -25.5,16.8 0,-0.2 0,-0.4 0,-0.7 8.5,-5.2 17,-10.8 25.5,-16.9 0,0.3 0,0.5 0,0.8 z"
                   class="st10"
                   inkscape:connector-curvature="0"
                   style="fill:#a5bace" />
              </g>
            </g>
            <g
               id="g802">
              <g
                 id="g720">
                <g
                   id="g684">
                  <path
                     id="path682"
                     d="m 190.1,104.5 c -1.2,0 -2.5,0 -3.7,0.1 0,-1.9 0,-3.8 0,-5.7 0,0 5.7,-3.1 6.4,-1.6 2.3,5.7 -2.7,7.2 -2.7,7.2 z"
                     class="st11"
                     inkscape:connector-curvature="0"
                     style="fill:#e5455c" />
                </g>
                <g
                   id="g688">
                  <path
                     id="path686"
                     d="m 232.5,104.6 c 1.2,0 2.5,0.1 3.7,0.1 0,-1.9 0,-3.9 0,-5.8 0,0 -5.7,-3.1 -6.3,-1.6 -2.4,5.7 2.6,7.2 2.6,7.3 z"
                     class="st11"
                     inkscape:connector-curvature="0"
                     style="fill:#e5455c" />
                </g>
                <g
                   id="g692">
                  <path
                     id="path690"
                     d="m 238.9,102.1 c 0,-1.7 -1.4,-3 -3.1,-3 -1.7,0 -3.1,1.3 -3.1,2.9 0,0.1 0,0.1 0,0.2 v 0 c 0,2.5 0,4.9 0,7.4 -7,-0.2 -14,-0.3 -21,-0.3 -0.2,0 -0.4,0 -0.6,0 -7,0 -14,0.1 -21.1,0.2 0,-2.4 0,-4.9 0,-7.3 v 0 c 0,-0.1 0,-0.1 0,-0.2 0,-1.6 -1.4,-2.9 -3.1,-2.9 -1.7,0 -3.1,1.4 -3.1,3 0,1.3 0.8,2.3 2,2.7 v 0 c 0,3.6 0,7.3 0,10.9 0,0.7 0.6,1.3 1.3,1.3 8.2,-0.3 16.4,-0.5 24.6,-0.5 8,0.1 15.9,0.3 23.9,0.6 0.7,0 1.3,-0.6 1.3,-1.3 0,-3.7 0,-7.3 0,-11 v 0 c 1.1,-0.4 2,-1.5 2,-2.7 z"
                     class="st12"
                     inkscape:connector-curvature="0"
                     style="fill:#c13a5b" />
                </g>
                <g
                   id="g702">
                  <g
                     id="g696">
                    <path
                       id="path694"
                       d="m 232.7,104.6 c -1,-0.8 -2,-1.6 -3.1,-2.5 -6.1,-0.1 -12.2,-0.1 -18.4,-0.1 -6.1,0 -12.2,0 -18.4,0 -0.9,0.8 -1.9,1.6 -2.8,2.4 -0.1,0 -0.2,0 -0.2,0 0,1.7 0,3.9 0,5.5 7.1,-0.2 14.2,-0.2 21.3,-0.2 0.1,0 0.2,0 0.4,0 7.1,0 14.3,0.2 21.4,0.4 -0.1,-1.7 -0.2,-3.9 -0.2,-5.5 z"
                       class="st12"
                       inkscape:connector-curvature="0"
                       style="fill:#c13a5b" />
                  </g>
                  <g
                     id="g700">
                    <path
                       id="path698"
                       d="m 212.6,103.8 c 5.5,-0.3 11.1,-0.6 16.6,-0.8 0.3,0.2 0.6,0.4 0.9,0.6 0,-3 0,-5.9 0,-8.9 0,-1.5 -1.2,-2.7 -2.7,-2.7 -5.1,0 -10.3,0 -15.4,0 -0.5,0 -1,0 -1.5,0 -5.1,0 -10.3,0 -15.4,0 -1.5,0 -2.7,1.2 -2.7,2.7 0,2.9 0,5.7 0,8.6 0.2,-0.1 0.4,-0.2 0.5,-0.4 5.7,0.5 11.5,1 17.2,1.5 0.9,-0.3 1.7,-0.5 2.5,-0.6 z"
                       class="st12"
                       inkscape:connector-curvature="0"
                       style="fill:#c13a5b" />
                  </g>
                </g>
                <g
                   id="g706">
                  <path
                     id="path704"
                     d="m 210,102.1 c -5.3,0 -10.7,0 -16,0.1 -0.4,0 -0.7,-0.2 -0.7,-0.5 0,-2.6 0,-5.1 0,-7.7 0,-0.5 0.5,-1 1.2,-1 5.2,0 10.3,0 15.5,0 0.4,0 0.7,0.2 0.7,0.6 0,2.7 0,5.4 0,8.1 -0.1,0.1 -0.4,0.4 -0.7,0.4 z"
                     class="st11"
                     inkscape:connector-curvature="0"
                     style="fill:#e5455c" />
                </g>
                <g
                   id="g710">
                  <path
                     id="path708"
                     d="m 212.1,102.1 c 5.3,0 10.7,0.1 16,0.1 0.4,0 0.7,-0.2 0.7,-0.5 0,-2.6 0,-5.1 0,-7.7 0,-0.5 -0.5,-1 -1.2,-1 -5.2,0 -10.3,0 -15.5,0 -0.4,0 -0.7,0.2 -0.7,0.6 0,2.7 0,5.4 0,8.1 0,0.1 0.3,0.4 0.7,0.4 z"
                     class="st11"
                     inkscape:connector-curvature="0"
                     style="fill:#e5455c" />
                </g>
                <g
                   id="g714">
                  <path
                     id="path712"
                     d="m 209.1,108.9 c -6,0 -12,0.1 -18,0.2 -0.8,0 -1.5,-0.6 -1.5,-1.5 0,0 3.9,-4.8 4.7,-4.8 4.9,-0.1 9.8,-0.1 14.7,-0.1 0.8,0 1.5,0.7 1.5,1.5 0,1 0,2.1 0,3.1 0.1,0.9 -0.6,1.6 -1.4,1.6 z"
                     class="st11"
                     inkscape:connector-curvature="0"
                     style="fill:#e5455c" />
                </g>
                <g
                   id="g718">
                  <path
                     id="path716"
                     d="m 212.9,108.9 c 6.1,0 12.3,0.1 18.4,0.3 0.8,0 1.5,-0.6 1.5,-1.5 0,0 -4.1,-4.8 -4.9,-4.8 -5,-0.1 -10,-0.1 -15,-0.1 -0.8,0 -1.5,0.7 -1.5,1.5 0,1 0,2.1 0,3.1 0,0.8 0.7,1.5 1.5,1.5 z"
                     class="st11"
                     inkscape:connector-curvature="0"
                     style="fill:#e5455c" />
                </g>
              </g>
              <g
                 id="g724">
                <path
                   id="path722"
                   d="m 203.6,80.4 c -3.8,0 -7.5,0 -11.3,-0.1 -0.1,0 -0.2,-0.1 -0.2,-0.2 0,-4.4 0,-8.7 0,-13.1 0,-0.1 0.1,-0.2 0.2,-0.2 3.8,0.1 7.5,0.1 11.3,0.2 0.1,0 0.2,0.1 0.2,0.2 0,4.3 0,8.6 0,13 0,0.1 -0.1,0.2 -0.2,0.2 z"
                   class="st7"
                   inkscape:connector-curvature="0"
                   style="fill:#ffffff" />
              </g>
              <g
                 id="g728">
                <path
                   id="path726"
                   d="m 193.6,78.6 c 0,-3.3 0,-6.6 0,-9.9 0,-0.1 0.1,-0.2 0.2,-0.2 2.7,0.1 5.5,0.1 8.2,0.1 0.1,0 0.2,0.1 0.2,0.2 0,3.3 0,6.6 0,9.9 0,0.1 -0.1,0.2 -0.2,0.2 -2.7,0 -5.5,0 -8.2,-0.1 -0.1,0 -0.2,-0.1 -0.2,-0.2 z"
                   class="st6"
                   inkscape:connector-curvature="0"
                   style="fill:#cedcdd" />
              </g>
              <g
                 id="g732">
                <path
                   id="path730"
                   d="m 219.3,78.7 c 0,-3.8 0,-7.6 0,-11.4 0,-0.1 0.1,-0.2 0.2,-0.2 4.3,-0.1 8.6,-0.2 12.9,-0.3 0.1,0 0.2,0.1 0.2,0.2 0,3.8 0,7.7 0,11.5 0,0.1 -0.1,0.2 -0.2,0.2 -4.3,0.1 -8.6,0.1 -12.9,0.1 -0.1,0.1 -0.2,0 -0.2,-0.1 z"
                   class="st7"
                   inkscape:connector-curvature="0"
                   style="fill:#ffffff" />
              </g>
              <g
                 id="g736">
                <path
                   id="path734"
                   d="m 221.1,68.7 c 3.3,0 6.5,-0.1 9.8,-0.2 0.1,0 0.2,0.1 0.2,0.2 0,2.8 0,5.6 0,8.4 0,0.1 -0.1,0.2 -0.2,0.2 -3.3,0.1 -6.5,0.1 -9.8,0.1 -0.1,0 -0.2,-0.1 -0.2,-0.2 0,-2.8 0,-5.5 0,-8.3 0,-0.1 0.1,-0.2 0.2,-0.2 z"
                   class="st6"
                   inkscape:connector-curvature="0"
                   style="fill:#cedcdd" />
              </g>
              <g
                 id="g740">
                <path
                   id="path738"
                   d="m 217.3,73.1 c -3.8,0 -7.6,0 -11.3,0 -0.1,0 -0.2,-0.1 -0.2,-0.2 0,-3.6 0,-7.2 0,-10.8 0,-0.1 0.1,-0.2 0.2,-0.2 3.8,0 7.6,0 11.3,0 0.1,0 0.2,0.1 0.2,0.2 0,3.6 0,7.2 0,10.8 0,0.1 -0.1,0.2 -0.2,0.2 z"
                   class="st7"
                   inkscape:connector-curvature="0"
                   style="fill:#ffffff" />
              </g>
              <g
                 id="g744">
                <path
                   id="path742"
                   d="m 207.3,71.4 c 0,-2.6 0,-5.1 0,-7.7 0,-0.1 0.1,-0.2 0.2,-0.2 2.7,0 5.5,0 8.2,0 0.1,0 0.2,0.1 0.2,0.2 0,2.6 0,5.1 0,7.7 0,0.1 -0.1,0.2 -0.2,0.2 -2.7,0 -5.5,0 -8.2,0 -0.1,-0.1 -0.2,-0.1 -0.2,-0.2 z"
                   class="st6"
                   inkscape:connector-curvature="0"
                   style="fill:#cedcdd" />
              </g>
              <g
                 id="g748">
                <path
                   id="path746"
                   d="m 217.3,86.6 c -3.8,0 -7.6,0 -11.3,0 -0.1,0 -0.2,-0.1 -0.2,-0.2 0,-3.6 0,-7.2 0,-10.8 0,-0.1 0.1,-0.2 0.2,-0.2 3.8,0 7.6,0 11.3,0 0.1,0 0.2,0.1 0.2,0.2 0,3.6 0,7.2 0,10.8 0,0.2 -0.1,0.2 -0.2,0.2 z"
                   class="st7"
                   inkscape:connector-curvature="0"
                   style="fill:#ffffff" />
              </g>
              <g
                 id="g752">
                <path
                   id="path750"
                   d="m 207.3,84.9 c 0,-2.6 0,-5.1 0,-7.7 0,-0.1 0.1,-0.2 0.2,-0.2 2.7,0 5.5,0 8.2,0 0.1,0 0.2,0.1 0.2,0.2 0,2.6 0,5.1 0,7.7 0,0.1 -0.1,0.2 -0.2,0.2 -2.7,0 -5.5,0 -8.2,0 -0.1,0 -0.2,-0.1 -0.2,-0.2 z"
                   class="st6"
                   inkscape:connector-curvature="0"
                   style="fill:#cedcdd" />
              </g>
              <g
                 id="g758">
                <g
                   id="g756"
                   class="st13"
                   style="opacity:0.25">
                  <path
                     id="path754"
                     d="m 197.5,71.5 c 0,0.5 -0.4,0.9 -0.9,0.9 -0.5,0 -0.9,-0.4 -0.9,-1 0,-0.5 0.4,-0.9 0.9,-0.9 0.5,0 0.9,0.4 0.9,1 z"
                     class="st7"
                     inkscape:connector-curvature="0"
                     style="fill:#ffffff" />
                </g>
              </g>
              <g
                 id="g764">
                <g
                   id="g762"
                   class="st13"
                   style="opacity:0.25">
                  <path
                     id="path760"
                     d="m 200.8,75.5 c 0,0.9 -0.7,1.6 -1.6,1.6 -0.9,0 -1.6,-0.8 -1.6,-1.7 0,-0.9 0.7,-1.6 1.6,-1.6 0.9,0.1 1.6,0.8 1.6,1.7 z"
                     class="st7"
                     inkscape:connector-curvature="0"
                     style="fill:#ffffff" />
                </g>
              </g>
              <g
                 id="g770">
                <g
                   id="g768"
                   class="st13"
                   style="opacity:0.25">
                  <circle
                     id="ellipse766"
                     cy="66.400002"
                     cx="213.5"
                     class="st7"
                     r="0.69999999"
                     style="fill:#ffffff" />
                </g>
              </g>
              <g
                 id="g776">
                <g
                   id="g774"
                   class="st13"
                   style="opacity:0.25">
                  <circle
                     id="ellipse772"
                     cy="68.699997"
                     cx="210.3"
                     class="st7"
                     r="1.3"
                     style="fill:#ffffff" />
                </g>
              </g>
              <g
                 id="g782">
                <g
                   id="g780"
                   class="st13"
                   style="opacity:0.25">
                  <path
                     id="path778"
                     d="m 227.4,74.8 c 0,-0.5 0.4,-0.9 0.9,-0.9 0.5,0 0.9,0.4 0.9,0.9 0,0.5 -0.4,0.9 -0.9,0.9 -0.5,0 -0.9,-0.4 -0.9,-0.9 z"
                     class="st7"
                     inkscape:connector-curvature="0"
                     style="fill:#ffffff" />
                </g>
              </g>
              <g
                 id="g788">
                <g
                   id="g786"
                   class="st13"
                   style="opacity:0.25">
                  <path
                     id="path784"
                     d="m 222.9,71.6 c 0,-0.9 0.7,-1.5 1.5,-1.6 0.8,0 1.5,0.7 1.5,1.5 0,0.9 -0.7,1.6 -1.5,1.6 -0.8,0 -1.5,-0.7 -1.5,-1.5 z"
                     class="st7"
                     inkscape:connector-curvature="0"
                     style="fill:#ffffff" />
                </g>
              </g>
              <g
                 id="g794">
                <g
                   id="g792"
                   class="st13"
                   style="opacity:0.25">
                  <circle
                     id="ellipse790"
                     cy="79.599998"
                     cx="210.3"
                     class="st7"
                     r="0.69999999"
                     style="fill:#ffffff" />
                </g>
              </g>
              <g
                 id="g800">
                <g
                   id="g798"
                   class="st13"
                   style="opacity:0.25">
                  <circle
                     id="ellipse796"
                     cy="82.199997"
                     cx="213.10001"
                     class="st7"
                     transform="matrix(1,-0.00166433,0.00166433,1,-0.1365,0.3548)"
                     r="1.3"
                     style="fill:#ffffff" />
                </g>
              </g>
            </g>
            <g
               id="g926">
              <g
                 id="g806">
                <path
                   id="path804"
                   d="M 150.1,72 C 144,71.6 138,71.1 131.9,70.5 c -0.2,0 -0.3,-0.2 -0.3,-0.4 0,-0.4 0,-0.8 0,-1.2 0,-0.2 0.2,-0.3 0.3,-0.3 6,0.6 12.1,1.2 18.2,1.6 0.2,0 0.3,0.2 0.3,0.3 0,0.4 0,0.7 0,1.1 0,0.3 -0.1,0.4 -0.3,0.4 z"
                   class="st7"
                   inkscape:connector-curvature="0"
                   style="fill:#ffffff" />
              </g>
              <g
                 id="g810">
                <path
                   id="path808"
                   d="m 168.2,84.6 c -6.1,-0.1 -12.2,-0.2 -18.3,-0.4 -0.2,0 -0.3,-0.2 -0.3,-0.3 0,-0.4 0,-0.7 0,-1.1 0,-0.2 0.2,-0.3 0.3,-0.3 6.1,0.2 12.2,0.3 18.3,0.4 0.2,0 0.4,0.1 0.4,0.3 0,0.3 0,0.7 0,1 0,0.3 -0.2,0.4 -0.4,0.4 z"
                   class="st7"
                   inkscape:connector-curvature="0"
                   style="fill:#ffffff" />
              </g>
              <g
                 id="g816">
                <g
                   id="g814">
                  <path
                     id="path812"
                     d="m 139.4,62.8 c 0.1,0.8 0.3,1.7 0.5,2.5 0.1,0.4 0.7,0.5 0.7,0.1 0.1,-0.7 0.2,-1.4 0.4,-2.2 0.1,-0.4 0.1,-0.9 -0.3,-1.2 -1,-0.6 -0.9,1.7 -0.8,2.3 0.1,0.6 0.9,0.4 0.7,-0.2 0,-0.3 -0.1,-0.5 -0.1,-0.8 0,-0.1 0,-0.2 0,-0.4 0.1,-0.2 0.1,-0.2 0,-0.1 -0.1,-0.1 -0.2,-0.1 -0.3,-0.2 0,-0.1 0,-0.1 0,0.1 0,0.1 0,0.2 -0.1,0.3 0,0.2 -0.1,0.4 -0.1,0.6 -0.1,0.4 -0.1,0.9 -0.2,1.3 0.2,0 0.5,0.1 0.7,0.1 -0.2,-0.8 -0.4,-1.6 -0.5,-2.5 0,-0.5 -0.7,-0.3 -0.6,0.3 z"
                     class="st14"
                     inkscape:connector-curvature="0"
                     style="fill:#997e53" />
                </g>
              </g>
              <g
                 id="g820">
                <path
                   id="path818"
                   d="m 139.3,61.6 c -0.3,0.4 -0.9,0.4 -1.2,0 -0.2,-0.3 -0.3,-0.7 -0.3,-1.1 0,-0.3 0,-0.6 -0.1,-0.9 0,-0.5 -1.2,-3.4 -1.2,-3.9 0.1,-0.5 1.4,1 1.7,1.1 0.5,0.1 1,-1.3 1.5,-1.3 0.4,0 0.5,0.1 0.9,0.2 0.5,0.2 1.2,1.5 1.5,2 0.3,0.4 1,1.2 1.2,1.6 0.2,0.6 -0.3,0.9 -0.4,1.5 0,0.1 0,0.2 -0.1,0.3 -0.1,0.1 -0.1,0.1 -0.2,0.1 -0.5,0.1 -0.8,0.4 -1.3,0.3 -0.5,-0.1 -1.2,-0.7 -1.6,-0.3 -0.2,0.2 -0.4,0.6 -0.8,0.6"
                   class="st15"
                   inkscape:connector-curvature="0"
                   style="fill:#52b700" />
              </g>
              <g
                 id="g826">
                <g
                   id="g824">
                  <path
                     id="path822"
                     d="m 138.2,56.7 c 0.2,-1.3 -1.1,-1.7 -1.9,-2.1 0,0.3 -0.1,0.6 -0.1,0.9 0.1,0 0.5,0.1 0.7,0.2 0,-0.3 0,-0.6 0,-0.9 -0.4,0.1 -1.1,0 -1.2,0.6 -0.1,0.7 0.8,1.7 1.2,2 0.1,-0.3 0.1,-0.5 0.2,-0.8 -0.5,0 -1,0 -1.1,0.8 -0.1,0.6 0.4,1.1 0.9,1 0.2,0 0.4,-0.4 0.2,-0.6 0,-0.1 -0.1,-0.1 -0.1,-0.2 -0.1,0.2 -0.3,0.4 -0.4,0.6 0.5,0.2 1,0.3 1.3,-0.2 0.1,-0.3 0.2,-0.7 0.3,-1.1 0.1,-0.2 0.3,-0.5 -0.1,-0.4 -0.1,0 -0.3,0.3 -0.4,0.4 -0.2,0.2 -0.1,0.6 0.2,0.8 0.9,0.5 1.5,-0.2 1.9,-0.8 -0.2,-0.1 -0.5,-0.1 -0.7,-0.2 0.2,0.4 0.2,0.6 0,0.4 -0.1,-0.1 -0.3,-0.1 -0.4,-0.2 -0.3,-0.1 -0.5,-0.2 -0.8,-0.3 -0.4,-0.2 -0.7,0.5 -0.3,0.8 0.2,0.1 0.3,0.2 0.5,0.3 0.5,0.3 0.8,-0.4 0.4,-0.7 0,0 -0.1,0 -0.1,-0.1 -0.5,-0.3 -0.8,0.4 -0.4,0.7 0,0 0.1,0 0.1,0.1 0.1,-0.2 0.3,-0.5 0.4,-0.7 -0.2,-0.1 -0.3,-0.2 -0.5,-0.3 -0.1,0.3 -0.2,0.5 -0.3,0.8 0.5,0.2 1.3,0.8 1.8,0.6 0.5,-0.2 0.4,-1 0.3,-1.5 -0.1,-0.4 -0.5,-0.5 -0.7,-0.2 -0.1,0.1 -0.4,0.6 -0.9,0.3 0,0.3 0.1,0.5 0.1,0.8 0.3,-0.3 0.7,-0.6 0.8,-1.1 0,-0.4 -0.2,-0.9 -0.6,-1 -0.4,-0.1 -0.7,0.2 -0.8,0.5 -0.1,0.3 -0.2,0.6 -0.3,0.9 -0.1,0.4 -0.1,0.8 -0.6,0.6 -0.3,-0.1 -0.6,0.2 -0.4,0.6 0,0.1 0.1,0.1 0.1,0.2 0.1,-0.2 0.2,-0.4 0.2,-0.6 0.1,0 0.2,0 0.4,0 0.4,0 0.5,-0.5 0.2,-0.8 -0.2,-0.2 -0.4,-0.4 -0.5,-0.6 -0.1,-0.1 -0.2,-0.3 -0.2,-0.4 -0.1,-0.2 -0.1,-0.1 -0.1,0.1 0.1,0.1 0.5,-0.1 0.7,-0.1 0.3,-0.1 0.4,-0.8 0,-0.9 -0.3,-0.1 -0.6,-0.1 -0.9,-0.2 -0.4,-0.1 -0.5,0.7 -0.1,0.9 0.2,0.1 1.4,0.5 1.4,0.9 -0.2,0.4 0.5,0.8 0.6,0.2 z"
                     class="st16"
                     inkscape:connector-curvature="0"
                     style="fill:#5bba6d" />
                </g>
              </g>
              <g
                 id="g832">
                <g
                   id="g830">
                  <path
                     id="path828"
                     d="m 137.8,58.1 c -0.4,-0.1 -0.7,-0.4 -1,-0.3 -0.3,0.1 -0.5,0.4 -0.4,0.8 0.1,0.4 0.3,0.7 0.6,0.9 0.3,0.2 0.7,0.4 1,0.2 0.3,-0.2 0.2,-0.7 -0.1,-0.8 -0.4,-0.2 -0.9,-0.1 -0.9,0.5 0,0.5 0.5,0.8 0.8,0.9 0.4,0.1 0.5,-0.6 0.2,-0.8 -0.5,-0.4 -1.6,-1.1 -2,-0.3 -0.3,0.8 0.8,1.5 1.2,1.7 0.5,0.3 0.7,-0.6 0.2,-0.8 -0.2,-0.1 -0.3,-0.2 -0.5,-0.3 -0.1,-0.1 -0.4,-0.5 -0.3,-0.2 0,0.1 0,0.2 0.1,0.2 0.1,0 0.2,0.1 0.2,0.1 0.2,0.1 0.4,0.2 0.5,0.3 0.1,-0.3 0.1,-0.5 0.2,-0.8 -0.1,0.1 -0.1,0.2 -0.2,0.3 0,-0.3 -0.1,-0.6 -0.1,-0.8 0.1,-0.1 -0.1,-0.1 -0.2,-0.1 0,0 -0.4,-0.2 -0.3,-0.1 0,0.1 0.2,0.1 0.3,0.1 0.1,0.1 0.2,0.1 0.4,0.1 0.7,0.3 0.7,-0.6 0.3,-0.8 z"
                     class="st16"
                     inkscape:connector-curvature="0"
                     style="fill:#5bba6d" />
                </g>
              </g>
              <g
                 id="g838">
                <g
                   id="g836">
                  <path
                     id="path834"
                     d="m 141.2,58.6 c 0.3,-0.6 0.7,-1 1.4,-1.1 -0.2,-0.1 -0.3,-0.2 -0.5,-0.4 0.1,0.3 0,0.5 -0.2,0.7 -0.2,0.2 -0.1,0.7 0.2,0.8 0.4,0.1 0.8,0.2 1.2,0.3 -0.1,-0.2 -0.2,-0.5 -0.3,-0.7 -0.1,0.2 -0.2,0.3 -0.3,0.4 -0.2,0.2 -0.1,0.6 0.2,0.8 0.2,0.1 0.4,0.3 0.6,0.3 0,-0.1 0,-0.1 0,-0.2 -0.2,0.1 -0.4,0.2 -0.5,0.2 -0.3,0.1 -0.4,0.7 0,0.9 0.3,0.1 0.9,0.2 1.1,0.6 0,-0.1 0,-0.3 0,-0.4 -0.1,0.2 -1.4,-0.5 -1.6,-0.6 -0.5,-0.3 -0.7,0.6 -0.2,0.8 0.5,0.3 2.1,1.1 2.4,0.4 0.4,-0.9 -1,-1.4 -1.5,-1.6 0,0.3 0,0.6 0,0.9 0.4,-0.1 1.2,-0.3 1.2,-0.9 0,-0.7 -0.9,-0.9 -1.3,-1.1 0.1,0.3 0.1,0.5 0.2,0.8 0.2,-0.2 0.3,-0.3 0.4,-0.5 0.2,-0.3 0,-0.7 -0.3,-0.7 -0.3,0 -0.7,-0.1 -1,-0.2 0.1,0.3 0.1,0.5 0.2,0.8 0.4,-0.4 0.5,-0.9 0.4,-1.5 0,-0.2 -0.3,-0.4 -0.5,-0.4 -0.8,0.1 -1.5,0.6 -1.8,1.5 -0.4,0 0.2,0.6 0.5,0.1 z"
                     class="st17"
                     inkscape:connector-curvature="0"
                     style="fill:#55a562" />
                </g>
              </g>
              <g
                 id="g844">
                <g
                   id="g842">
                  <path
                     id="path840"
                     d="m 141.2,58.4 c 0.4,-0.8 0.8,-1.6 0.5,-2.6 -0.3,-0.9 -1,-0.9 -1.4,-0.2 0.2,0 0.4,0 0.6,0 -0.5,-0.6 -1.5,-1.6 -2,-0.5 -0.4,1.1 0.4,2.2 1.1,2.9 0.4,0.4 0.9,-0.2 0.5,-0.6 -0.3,-0.4 -0.7,-0.7 -0.9,-1.2 -0.1,-0.3 -0.2,-0.7 0.1,-0.6 0.2,0 0.4,0.4 0.5,0.5 0.2,0.2 0.5,0.2 0.6,0 -0.1,-0.3 -0.1,-0.3 0,-0.1 0,0.1 0.1,0.3 0.1,0.4 0,0.2 0,0.4 -0.1,0.5 -0.1,0.3 -0.3,0.6 -0.4,0.9 -0.1,0.5 0.6,1 0.8,0.6 z"
                     class="st16"
                     inkscape:connector-curvature="0"
                     style="fill:#5bba6d" />
                </g>
              </g>
              <g
                 id="g850">
                <g
                   id="g848">
                  <path
                     id="path846"
                     d="m 142.3,61.5 c 0.1,-0.4 0.1,-0.8 0.2,-1.1 -0.1,0.1 -0.2,0.2 -0.4,0.3 0.3,0 0.3,0.8 0.3,1.1 0.1,-0.1 0.1,-0.2 0.2,-0.4 -0.5,0.4 -1.2,-0.1 -1.7,-0.3 -0.6,-0.2 -1.1,-0.2 -1.7,-0.9 -0.4,-0.4 -0.9,0.1 -0.5,0.6 0.5,0.7 1.1,0.9 1.8,1.1 0.4,0.1 0.7,0.3 1,0.4 0.4,0.1 0.8,0.1 1.2,0 1.1,-0.2 0.5,-2.5 -0.5,-2.5 -0.2,0 -0.3,0.1 -0.4,0.3 -0.1,0.3 -0.1,0.7 -0.2,1.1 -0.1,0.6 0.6,0.9 0.7,0.3 z"
                     class="st17"
                     inkscape:connector-curvature="0"
                     style="fill:#55a562" />
                </g>
              </g>
              <g
                 id="g856">
                <g
                   id="g854">
                  <path
                     id="path852"
                     d="m 137.8,59.6 c -0.4,0.2 -0.7,0.5 -0.6,1 0.1,0.2 0.2,0.4 0.3,0.6 0.2,0.2 0.2,0.4 0.3,0.7 0.2,0.4 0.5,0.9 0.9,1 0.5,0.2 0.7,-0.3 1,-0.6 0.3,-0.4 -0.2,-1.1 -0.5,-0.7 -0.1,0.1 -0.3,0.4 -0.4,0.4 -0.2,-0.1 -0.3,-0.5 -0.3,-0.7 -0.1,-0.2 -0.1,-0.4 -0.2,-0.5 0,-0.1 -0.1,-0.1 -0.2,-0.2 0,0 0,0 -0.1,-0.1 0.1,0 0.2,0 0.2,0 0.4,-0.3 0.1,-1.1 -0.4,-0.9 z"
                     class="st16"
                     inkscape:connector-curvature="0"
                     style="fill:#5bba6d" />
                </g>
              </g>
              <g
                 id="g860">
                <path
                   id="path858"
                   d="m 142.7,69.6 c -1.5,-0.1 -3,-0.3 -4.5,-0.4 -0.4,-1.1 -0.9,-2.3 -1.3,-3.4 -0.2,-0.5 0.1,-1 0.6,-1 1.2,0.1 2.4,0.3 3.6,0.4 0.8,0.1 1.5,0.2 2.3,0.2 0.4,0 0.7,0.6 0.6,1 -0.5,1.1 -0.9,2.1 -1.3,3.2 z"
                   class="st18"
                   inkscape:connector-curvature="0"
                   style="fill:#bc995b" />
              </g>
              <g
                 id="g864">
                <path
                   id="path862"
                   d="m 143,69 c -1.7,-0.1 -3.3,-0.3 -5,-0.5 0.1,0.2 0.2,0.4 0.2,0.6 1.5,0.1 3,0.3 4.5,0.4 0.1,-0.1 0.2,-0.3 0.3,-0.5 z"
                   class="st14"
                   inkscape:connector-curvature="0"
                   style="fill:#997e53" />
              </g>
              <g
                 id="g868">
                <path
                   id="path866"
                   d="m 172,109.9 c -13.7,0.6 -27.3,1.4 -40.8,2.5 -0.1,0 -0.2,0.1 -0.2,0.2 0,2.5 0,5.1 0,7.6 0,0.1 0.1,0.2 0.2,0.2 13.5,-1.5 27.1,-2.7 40.8,-3.5 0.1,0 0.2,-0.1 0.2,-0.2 0,-2.2 0,-4.4 0,-6.6 0,-0.2 0,-0.3 -0.2,-0.2 z"
                   class="st7"
                   inkscape:connector-curvature="0"
                   style="fill:#ffffff" />
              </g>
              <g
                 id="g872">
                <path
                   id="path870"
                   d="m 164,92.9 c -8.3,0 -16.5,0.1 -24.8,0.1 -0.1,0 -0.2,0.1 -0.2,0.2 0,5.7 0,11.4 0,17.1 0,0.1 0.1,0.2 0.2,0.2 8.2,-0.5 16.5,-1 24.8,-1.4 0.1,0 0.2,-0.1 0.2,-0.2 0,-5.2 0,-10.5 0,-15.7 0,-0.2 -0.1,-0.3 -0.2,-0.3 z"
                   class="st19"
                   inkscape:connector-curvature="0"
                   style="fill:#474747" />
              </g>
              <g
                 id="g876">
                <path
                   id="path874"
                   d="m 140.3,108.8 c 0,-4.8 0,-9.5 0,-14.3 7.5,0 15,-0.1 22.5,-0.2 0,4.4 0,8.9 0,13.3 -7.5,0.4 -15,0.8 -22.5,1.2 z"
                   class="st20"
                   inkscape:connector-curvature="0"
                   style="fill:#2d2d2d" />
              </g>
              <g
                 id="g880">
                <path
                   id="path878"
                   d="m 159.3,109.1 c -5.2,0.3 -10.4,0.6 -15.5,0.9 -0.1,0 -0.2,0.1 -0.2,0.2 0,0.4 0,0.7 0,1.1 0,0.1 0.1,0.2 0.2,0.2 5.2,-0.4 10.3,-0.7 15.5,-0.9 0.1,0 0.2,-0.1 0.2,-0.2 0,-0.3 0,-0.7 0,-1 0,-0.2 -0.1,-0.3 -0.2,-0.3 z"
                   class="st20"
                   inkscape:connector-curvature="0"
                   style="fill:#2d2d2d" />
              </g>
              <g
                 id="g884">
                <path
                   id="path882"
                   d="m 151,112.7 c -6,0.4 -12,0.9 -18,1.4 -0.1,0 -0.2,0.1 -0.2,0.2 0,1.2 0,2.3 0,3.5 0,0.1 0.1,0.2 0.2,0.2 6,-0.6 12,-1.1 18,-1.6 0.1,0 0.2,-0.1 0.2,-0.2 0,-1.1 0,-2.2 0,-3.3 0,-0.1 -0.1,-0.2 -0.2,-0.2 z"
                   class="st0"
                   inkscape:connector-curvature="0"
                   style="fill:#e5e5e5" />
              </g>
              <g
                 id="g888">
                <path
                   id="path886"
                   d="m 170.4,111.6 c -6,0.3 -12.1,0.6 -18.1,1 -0.1,0 -0.2,0.1 -0.2,0.2 0,1.1 0,2.2 0,3.3 0,0.1 0.1,0.2 0.2,0.2 6,-0.5 12,-0.9 18.1,-1.2 0.1,0 0.2,-0.1 0.2,-0.2 0,-1 0,-2.1 0,-3.1 0,-0.1 -0.1,-0.2 -0.2,-0.2 z"
                   class="st0"
                   inkscape:connector-curvature="0"
                   style="fill:#e5e5e5" />
              </g>
              <g
                 id="g892">
                <path
                   id="path890"
                   d="m 140.7,119.1 c -2.2,0.2 -4.5,0.5 -6.7,0.7 -0.1,0 -0.2,0.1 -0.2,0.2 0,0.3 0,0.6 0,1 0,0.1 0.1,0.2 0.2,0.2 2.2,-0.3 4.5,-0.5 6.7,-0.7 0.1,0 0.2,-0.1 0.2,-0.2 0,-0.3 0,-0.6 0,-0.9 0,-0.2 -0.1,-0.3 -0.2,-0.3 z"
                   class="st5"
                   inkscape:connector-curvature="0"
                   style="fill:#c9c9c9" />
              </g>
              <g
                 id="g896">
                <path
                   id="path894"
                   d="m 168.7,116.9 c -2.3,0.1 -4.5,0.3 -6.8,0.4 -0.1,0 -0.2,0.1 -0.2,0.2 0,0.3 0,0.6 0,0.9 0,0.1 0.1,0.2 0.2,0.2 2.3,-0.2 4.5,-0.3 6.8,-0.5 0.1,0 0.2,-0.1 0.2,-0.2 0,-0.3 0,-0.6 0,-0.9 0,-0.1 -0.1,-0.1 -0.2,-0.1 z"
                   class="st5"
                   inkscape:connector-curvature="0"
                   style="fill:#c9c9c9" />
              </g>
              <g
                 id="g900">
                <path
                   id="path898"
                   d="m 155,76.6 c -0.5,0 -1,0 -1.5,-0.1 -0.1,0 -0.1,0 -0.1,0.1 0,2 0,4 0,6 0,0 0,0.1 0.1,0.1 0.5,0 1,0 1.5,0 0.1,0 0.1,0 0.1,-0.1 0,-2 0,-4 -0.1,-6 0.1,0 0.1,0 0,0 z"
                   class="st11"
                   inkscape:connector-curvature="0"
                   style="fill:#e5455c" />
              </g>
              <g
                 id="g904">
                <path
                   id="path902"
                   d="m 156.4,76.6 c -0.4,0 -0.8,0 -1.2,-0.1 -0.1,0 -0.1,0 -0.1,0.1 0,2 0,3.9 0,5.9 0,0 0,0.1 0.1,0.1 0.4,0 0.8,0 1.2,0 0.1,0 0.1,0 0.1,-0.1 0,-1.8 0,-3.8 -0.1,-5.9 0.1,0.1 0.1,0 0,0 z"
                   class="st21"
                   inkscape:connector-curvature="0"
                   style="fill:#efc413" />
              </g>
              <g
                 id="g908">
                <path
                   id="path906"
                   d="m 157.7,76.7 c -0.3,0 -0.6,0 -1,0 -0.1,0 -0.2,0.1 -0.2,0.2 0.2,1.9 0.5,3.7 0.7,5.6 0,0.1 0.1,0.2 0.2,0.2 0.3,0 0.6,0 1,0 0.1,0 0.2,-0.1 0.2,-0.2 -0.2,-1.9 -0.5,-3.7 -0.7,-5.6 0,-0.1 -0.1,-0.2 -0.2,-0.2 z"
                   class="st22"
                   inkscape:connector-curvature="0"
                   style="fill:#006beb" />
              </g>
              <g
                 id="g912">
                <path
                   id="path910"
                   d="m 167.6,75.5 c -1.9,-0.1 -3.9,-0.1 -5.8,-0.2 -0.3,0 -0.5,-0.3 -0.5,-0.5 0.6,-1.4 1.1,-2.9 1.7,-4.3 0,-0.3 0.2,-0.5 0.5,-0.5 0.8,0 1.6,0.1 2.4,0.1 0.3,0 0.5,0.3 0.5,0.5 0.6,1.5 1.1,3 1.7,4.4 0,0.3 -0.2,0.6 -0.5,0.5 z"
                   class="st7"
                   inkscape:connector-curvature="0"
                   style="fill:#ffffff" />
              </g>
              <g
                 id="g916">
                <path
                   id="path914"
                   d="m 166.5,71 c -0.1,-0.1 -0.1,-0.3 -0.2,-0.4 0,-0.3 -0.2,-0.5 -0.5,-0.5 -0.8,0 -1.6,-0.1 -2.4,-0.1 -0.3,0 -0.5,0.2 -0.5,0.5 -0.1,0.1 -0.1,0.3 -0.2,0.4 1.4,0 2.6,0.1 3.8,0.1 z"
                   class="st0"
                   inkscape:connector-curvature="0"
                   style="fill:#e5e5e5" />
              </g>
              <g
                 id="g920">
                <path
                   id="path918"
                   d="m 164.9,82.2 c -0.2,0 -0.5,0 -0.7,0 0,-2.2 0,-4.5 0,-6.7 0.2,0 0.5,0 0.7,0 0,2.2 0,4.4 0,6.7 z"
                   class="st5"
                   inkscape:connector-curvature="0"
                   style="fill:#c9c9c9" />
              </g>
              <g
                 id="g924">
                <path
                   id="path922"
                   d="m 162.9,82.9 c 0,-0.3 0,-0.5 0,-0.8 1.2,0 2.3,0.1 3.5,0.1 0,0.3 0,0.5 0,0.8 -1.2,-0.1 -2.4,-0.1 -3.5,-0.1 z"
                   class="st5"
                   inkscape:connector-curvature="0"
                   style="fill:#c9c9c9" />
              </g>
            </g>
          </g>
          <g
             id="g936">
            <g
               id="g934"
               class="st13"
               style="opacity:0.25">
              <g
                 id="g932">
                <path
                   id="path930"
                   d="m 147.3,99.3 c 0,-13 -10.5,-23.5 -23.5,-23.5 -13,0 -23.5,10.5 -23.5,23.5 0,13 10.5,23.5 23.5,23.5 v 0 c 13,0 23.5,-10.5 23.5,-23.5 z"
                   inkscape:connector-curvature="0" />
              </g>
            </g>
          </g>
          <path
             id="path938"
             d="m 291.5,163.2 c -1,-1.1 -2.5,-2.3 -4.5,-3.3 -4,-2.2 -10.1,-4.3 -17.5,-6 -7.8,-1.8 -17,-3.2 -27.2,-4.2 -10.7,-1 -22,-1.6 -33.7,-1.6 -11.7,0 -23.1,0.5 -33.7,1.6 -10.2,1 -19.4,2.4 -27.2,4.2 -7.5,1.7 -13.5,3.8 -17.5,6 -2,1.1 -3.5,2.2 -4.5,3.3 -1.2,1.3 -1.7,2.6 -1.7,4 0,2.2 1.4,4.2 4.2,6.1 2.7,1.8 6.6,3.5 11.7,5.1 10.6,3.3 25.8,5.7 42.8,7 l 5.7,0.3 -0.4,0.4 c -0.5,0.5 -0.6,1.3 -0.3,1.9 0.3,0.6 1,0.8 1.6,0.8 0.2,0 0.4,0 0.6,-0.1 l 11.9,-3.6 c 0.7,-0.2 1.1,-0.8 1.2,-1.4 0,-0.7 -0.4,-1.3 -1.1,-1.5 l -11.7,-4.4 c -0.7,-0.3 -1.8,-0.1 -2.3,0.7 -0.4,0.6 -0.3,1.4 0.3,1.9 l 0.5,0.4 -7.9,-0.6 c -17.3,-1.4 -28.6,-3.8 -35,-5.6 -4.3,-1.2 -7.6,-2.4 -10.1,-3.7 -3.5,-1.8 -3.9,-3.2 -3.9,-3.7 0,-1.7 4.6,-5.7 22,-9.2 15,-3.1 34.6,-4.8 55,-4.8 20.4,0 40,1.7 55,4.8 17.3,3.6 22,7.5 22,9.2 0,0.6 -0.7,1.5 -1.8,2.3 -1.5,1.1 -3.7,2.2 -6.5,3.2 -6,2.2 -14.5,4.1 -24.6,5.6 -2.1,0.3 -2.9,1.5 -2.9,2.5 0,0.4 0.2,1.5 1.6,2.1 0.6,0.3 1.4,0.4 2.2,0.4 0.3,0 0.6,0 0.9,-0.1 11.9,-1.7 21.8,-4.1 28.6,-6.9 6.8,-2.8 10.3,-5.9 10.3,-9.2 -0.4,-1.3 -1,-2.6 -2.1,-3.9 z"
             class="st23"
             inkscape:connector-curvature="0"
             style="fill:#34495e" />
          <path
             id="path940"
             d="m 262.8,119.6 c -5.5,0 -10.3,3.6 -11.9,8.7 -3.1,-1.9 -6.7,-2.9 -10.8,-2.9 -2.7,0 -5.2,0.4 -7.5,1.2 -2.1,0.7 -3.9,1.8 -5.5,3.2 l -1.1,-0.6 c -4,-2.4 -9.7,-3.9 -15,-3.9 -3.3,0 -6.5,0.6 -9.3,1.9 -1.9,0.8 -3.6,1.9 -5.2,3.2 v -4.6 h -38.3 v 20.5 h 5.4 v 2.1 l -9.1,17.3 4.3,3.2 c 4.8,3.6 11.8,5.8 18.4,5.8 5.8,0 10.9,-1.6 14.7,-4.7 0.8,-0.6 1.5,-1.3 2.1,-2 3.9,4.4 9.4,6.7 15.9,6.7 3.4,0 6.5,-0.7 9.3,-1.9 2.4,-1.1 4.4,-2.6 6,-4.5 3.6,4.1 8.7,6.2 14.9,6.2 6.5,0 11.9,-2.5 15.5,-7.1 3.4,-4.3 5.1,-10.1 5.1,-17.4 0,-2 -0.1,-4 -0.4,-5.8 0.8,0.2 1.7,0.3 2.5,0.3 6.9,0 12.5,-5.6 12.5,-12.4 -0.1,-6.9 -5.7,-12.5 -12.5,-12.5 z"
             class="st7"
             inkscape:connector-curvature="0"
             style="fill:#ffffff" />
          <g
             id="g948">
            <g
               id="g946">
              <g
                 id="g944">
                <path
                   id="path942"
                   d="m 268.9,132.1 c 0,3.4 -2.8,6.1 -6.1,6.1 -3.4,0 -6.1,-2.7 -6.1,-6.1 0,-3.4 2.8,-6.1 6.1,-6.1 3.4,-0.1 6.1,2.7 6.1,6.1 z m -8.4,0 c 0,1.2 1,2.2 2.3,2.2 1.2,0 2.3,-1 2.3,-2.2 0,-1.2 -1,-2.3 -2.3,-2.3 -1.3,0 -2.3,1 -2.3,2.3 z"
                   class="st23"
                   inkscape:connector-curvature="0"
                   style="fill:#34495e" />
              </g>
            </g>
          </g>
          <g
             id="g954">
            <g
               id="g952">
              <path
                 id="path950"
                 d="m 191.9,156.6 c 0,7 -5.7,11.8 -14.7,11.8 -5.4,0 -11,-1.8 -14.6,-4.6 l 4.2,-8.1 c 2.9,3.1 6.1,4.7 9.5,4.7 3.4,0 5.2,-1.3 5.2,-3.8 0,-2.5 -1.8,-3.8 -5.2,-3.8 h -6.4 v -5.6 l 7.6,-7.3 h -13 V 132 h 25.6 v 6 l -9,8.3 1.7,0.3 c 5.4,1 9.1,4.6 9.1,10 z"
                 class="st23"
                 inkscape:connector-curvature="0"
                 style="fill:#34495e" />
            </g>
          </g>
          <g
             id="g960">
            <g
               id="g958">
              <path
                 id="path956"
                 d="m 211.6,139.4 c -5,0 -7.6,3 -7.5,8.2 1.6,-2.1 4.2,-3.4 7.8,-3.4 6.9,0 11.4,4.7 11.4,11.7 0,7.6 -5.4,12.5 -13.4,12.5 -9.6,0 -15.5,-6.9 -15.5,-17.9 0,-11.5 6.6,-18.9 16.6,-18.9 4.1,0 8.7,1.2 11.7,3 l -3.9,7.2 c -1.9,-1.5 -4.4,-2.4 -7.2,-2.4 z m -6.5,16.6 c 0,2.5 1.4,4.3 4.4,4.3 2.7,0 4.3,-1.5 4.3,-4.4 0,-2.7 -1.5,-4.2 -4.2,-4.2 -2.9,-0.1 -4.5,1.7 -4.5,4.3 z"
                 class="st23"
                 inkscape:connector-curvature="0"
                 style="fill:#34495e" />
            </g>
          </g>
          <g
             id="g966">
            <g
               id="g964">
              <path
                 id="path962"
                 d="m 254.4,150 c 0,11.8 -5.1,18.2 -14.3,18.2 -9.3,0 -14.3,-6.4 -14.3,-18.2 0,-11.7 5.1,-18.2 14.3,-18.2 9.1,0 14.3,6.5 14.3,18.2 z m -18.5,0 c 0,7.9 1.1,11 4.2,11 3,0 4.1,-3.1 4.1,-11 0,-7.9 -1.1,-11 -4.1,-11 -3.1,0 -4.2,3 -4.2,11 z"
                 class="st23"
                 inkscape:connector-curvature="0"
                 style="fill:#34495e" />
            </g>
          </g>
          <g
             id="g976">
            <g
               id="g970">
              <path
                 id="path968"
                 d="m 118.9,79.3 c 2.4,0 4.8,0.5 7.1,1.5 9.1,3.9 13.2,14.5 9.3,23.6 -2.9,6.7 -9.5,10.8 -16.4,10.8 -2.4,0 -4.8,-0.5 -7.1,-1.5 -9.1,-3.9 -13.2,-14.5 -9.3,-23.6 2.9,-6.8 9.5,-10.8 16.4,-10.8 m 0,-5.4 v 5.4 -5.4 c -4.5,0 -8.9,1.3 -12.6,3.7 -3.9,2.5 -6.9,6.1 -8.8,10.3 -1.3,2.9 -1.9,5.9 -1.9,9.1 0,3 0.5,6 1.6,8.8 1.1,2.8 2.7,5.4 4.8,7.5 2.2,2.3 4.7,4 7.6,5.3 3,1.3 6.1,1.9 9.3,1.9 4.5,0 8.9,-1.3 12.6,-3.7 3.9,-2.5 6.9,-6.1 8.8,-10.3 1.3,-2.9 1.9,-5.9 1.9,-9.1 0,-3 -0.5,-6 -1.6,-8.8 -1.1,-2.8 -2.7,-5.4 -4.8,-7.5 -2.2,-2.3 -4.7,-4 -7.6,-5.3 -3,-1.3 -6.1,-1.9 -9.3,-1.9 z"
                 class="st7"
                 inkscape:connector-curvature="0"
                 style="fill:#ffffff" />
            </g>
            <g
               id="g974">
              <circle
                 id="ellipse972"
                 cy="97.199997"
                 cx="118.9"
                 class="st24"
                 transform="matrix(0.3987,-0.9171,0.9171,0.3987,-17.6286,167.4429)"
                 r="17.9"
                 style="fill:#ff4385" />
            </g>
          </g>
          <g
             id="g982">
            <g
               id="g980">
              <path
                 id="path978"
                 d="m 115.4,107.8 v -6.5 c 0,-0.6 -0.4,-1 -1,-1 h -6.3 c -0.6,0 -1,-0.4 -1,-1 v -3.8 c 0,-0.6 0.4,-1 1,-1 h 6.3 c 0.6,0 1,-0.4 1,-1 V 87 c 0,-0.6 0.4,-1 1,-1 h 4.6 c 0.6,0 1,0.4 1,1 v 6.5 c 0,0.6 0.4,1 1,1 h 6.3 c 0.6,0 1,0.4 1,1 v 3.8 c 0,0.6 -0.4,1 -1,1 H 123 c -0.6,0 -1,0.4 -1,1 v 6.5 c 0,0.6 -0.4,1 -1,1 h -4.6 c -0.5,0 -1,-0.4 -1,-1 z"
                 class="st7"
                 inkscape:connector-curvature="0"
                 style="fill:#ffffff" />
            </g>
          </g>
          <g
             id="g990">
            <g
               id="g988"
               class="st13"
               style="opacity:0.25">
              <g
                 id="g986">
                <path
                   id="path984"
                   d="m 310.1,79.7 c 0,-13 -10.5,-23.5 -23.5,-23.5 -13,0 -23.5,10.5 -23.5,23.5 0,13 10.5,23.5 23.5,23.5 v 0 c 13,-0.1 23.5,-10.6 23.5,-23.5 z"
                   inkscape:connector-curvature="0" />
              </g>
            </g>
          </g>
          <g
             id="g1000">
            <g
               id="g994">
              <path
                 id="path992"
                 d="m 281.9,58 c 2.4,0 4.8,0.5 7.1,1.5 9.1,3.9 13.2,14.5 9.3,23.6 -2.9,6.7 -9.5,10.8 -16.4,10.8 -2.4,0 -4.8,-0.5 -7.1,-1.5 C 265.7,88.5 261.6,77.9 265.5,68.8 268.4,62 275,58 281.9,58 m 0,-5.5 V 58 52.5 c -4.5,0 -8.9,1.3 -12.6,3.7 -3.9,2.5 -6.9,6.1 -8.8,10.3 -1.3,2.9 -1.9,5.9 -1.9,9.1 0,3 0.5,6 1.6,8.8 1.1,2.8 2.7,5.4 4.8,7.5 2.2,2.3 4.7,4 7.6,5.3 3,1.3 6.1,1.9 9.3,1.9 4.5,0 8.9,-1.3 12.6,-3.7 3.9,-2.5 6.9,-6.1 8.8,-10.3 1.3,-2.9 1.9,-5.9 1.9,-9.1 0,-3 -0.5,-6 -1.6,-8.8 -1.1,-2.8 -2.7,-5.4 -4.8,-7.5 -2.2,-2.3 -4.7,-4 -7.6,-5.3 -2.9,-1.2 -6.1,-1.9 -9.3,-1.9 z"
                 class="st7"
                 inkscape:connector-curvature="0"
                 style="fill:#ffffff" />
            </g>
            <g
               id="g998">
              <circle
                 id="ellipse996"
                 cy="75.900002"
                 cx="282"
                 class="st24"
                 transform="matrix(0.3987,-0.9171,0.9171,0.3987,99.9438,304.2109)"
                 r="17.9"
                 style="fill:#ff4385" />
            </g>
          </g>
          <g
             id="g1006">
            <g
               id="g1004">
              <path
                 id="path1002"
                 d="M 278.5,86.5 V 80 c 0,-0.6 -0.4,-1 -1,-1 h -6.3 c -0.6,0 -1,-0.4 -1,-1 v -3.8 c 0,-0.6 0.4,-1 1,-1 h 6.3 c 0.6,0 1,-0.4 1,-1 v -6.5 c 0,-0.6 0.4,-1 1,-1 h 4.6 c 0.6,0 1,0.4 1,1 v 6.5 c 0,0.6 0.4,1 1,1 h 6.3 c 0.6,0 1,0.4 1,1 V 78 c 0,0.6 -0.4,1 -1,1 h -6.3 c -0.6,0 -1,0.4 -1,1 v 6.5 c 0,0.6 -0.4,1 -1,1 h -4.6 c -0.5,0 -1,-0.5 -1,-1 z"
                 class="st7"
                 inkscape:connector-curvature="0"
                 style="fill:#ffffff" />
            </g>
          </g>
          <g
             id="g1018">
            <g
               id="g1010">
              <path
                 id="path1008"
                 d="m 131.2,42.6 c 0.6,0.1 1.2,0.3 1.9,0.4 0.7,0.2 1.3,0.3 2,0.4 -0.7,-0.1 -1.3,-0.3 -2,-0.4 -0.6,-0.1 -1.3,-0.2 -1.9,-0.4 z"
                 class="st0"
                 inkscape:connector-curvature="0"
                 style="fill:#e5e5e5" />
            </g>
            <g
               id="g1016">
              <g
                 id="g1014">
                <path
                   id="path1012"
                   d="m 284.7,41.7 c -9.8,2.2 -21.3,4 -34,5.2 -13.4,1.3 -27.5,1.9 -42.2,1.9 -14.7,0 -28.8,-0.7 -42.2,-1.9 -12.8,-1.2 -24.2,-3 -34,-5.2 -2.5,-0.6 -4.9,-1.2 -7.1,-1.8 v 3 c 2.2,0.6 4.6,1.2 7.1,1.8 9.8,2.2 21.3,4 34,5.2 13.4,1.3 27.5,1.9 42.2,1.9 14.7,0 28.8,-0.7 42.2,-1.9 12.8,-1.2 24.2,-3 34,-5.2 3.2,-0.7 6.6,-1.6 9.4,-2.4 v -3 c -2.8,0.9 -6.1,1.7 -9.4,2.4 z"
                   class="st0"
                   inkscape:connector-curvature="0"
                   style="fill:#e5e5e5" />
              </g>
            </g>
          </g>
        </g>
      </g>
      <rect
         id="rect1024"
         height="225"
         width="400"
         class="st25"
         y="0"
         x="0"
         style="fill:none" />
    </g>
  </g>
</svg>
