<?xml version="1.0" encoding="utf-8"?>
<!-- Generator: Adobe Illustrator 15.0.0, SVG Export Plug-In  -->
<!DOCTYPE svg PUBLIC "-//W3C//DTD SVG 1.1//EN" "http://www.w3.org/Graphics/SVG/1.1/DTD/svg11.dtd" [
	<!ENTITY ns_flows "http://ns.adobe.com/Flows/1.0/">
]>
<svg version="1.1"
	 xmlns="http://www.w3.org/2000/svg" xmlns:xlink="http://www.w3.org/1999/xlink" xmlns:a="http://ns.adobe.com/AdobeSVGViewerExtensions/3.0/"
	 x="0px" y="0px" width="24px" height="24px" viewBox="0 0.007 24 24" overflow="visible" enable-background="new 0 0.007 24 24"
	 xml:space="preserve">
<defs>
</defs>
<linearGradient id="SVGID_2_" gradientUnits="userSpaceOnUse" x1="40.2832" y1="777.665" x2="40.2832" y2="789.9233" gradientTransform="matrix(1 0 0 1 -28.291 -767)">
	<stop  offset="0" style="stop-color:#FFFFFF"/>
	<stop  offset="1" style="stop-color:#BDD8F0"/>
</linearGradient>
<path display="none" fill="url(#SVGID_2_)" stroke="#999999" stroke-linejoin="round" stroke-miterlimit="10" d="M15.713,6.355
	c-0.723,0-1.271-0.552-1.271-1.271V0.5H4.719C4,0.5,3.447,1.052,3.447,1.771v17.673l15.818,2.83c0.719,0,1.271-0.553,1.271-1.271
	V6.355H15.713z"/>
<linearGradient id="path4_2_" gradientUnits="userSpaceOnUse" x1="12.5801" y1="10.3716" x2="12.5801" y2="24.4522">
	<stop  offset="0" style="stop-color:#FFFFFF"/>
	<stop  offset="1" style="stop-color:#BDD8F0"/>
</linearGradient>
<path id="path4_1_" fill="url(#path4_2_)" stroke="#BBBBBB" stroke-linecap="round" stroke-linejoin="round" stroke-miterlimit="10" d="
	M16.977,6.751c-0.646,0-1.15-0.552-1.15-1.248V0.967H4.944c-0.648,0-1.152,0.552-1.152,1.248v16.968
	c0,0.696,1.964,2.344,2.612,2.344l13.812,0.904c0.647,0,1.152-0.552,1.152-1.248V6.751H16.977z"/>
<path id="path2239_1_" display="none" fill="#4091CE" d="M6.286,9.479
	c0.699-1.644,1.085-3.5,1.085-5.422h6.612c0,3.08-0.699,6.018-1.922,8.675H9.539L6.286,9.479z M9.537,11.997h2.101
	c0.978-2.238,1.541-4.651,1.643-7.206H8.068C7.999,6.47,7.648,8.009,7.054,9.479L9.537,11.997z"/>
<path id="path2241_1_" display="none" fill="#F34336" d="M13.912,5.666
	c1.189-0.245,2.484,0.105,2.938,0.701c1.051,1.293,0,4.443-2.764,6.681c-2.553,2.064-5.632,2.868-6.612,1.68
	c-0.665-0.84-0.176-2.485,0.699-3.358l1.364,1.364V9.482H6.284l1.364,1.365c-1.154,1.154-1.679,3.079-0.77,4.303
	c0.279,0.385,0.734,0.594,1.224,0.734c1.539,0.351,3.919-0.524,6.054-2.205c3.044-2.448,4.339-5.702,3.044-7.31
	C16.535,5.561,15.346,5.352,13.912,5.666"/>
<rect x="5.033" y="11.576" fill="#DDDDDD" width="13.955" height="1.828"/>
<rect x="5.53" y="11.964" fill="#333333" width="0.301" height="1.104"/>
<rect x="5.979" y="11.964" fill="#333333" width="0.299" height="1.104"/>
<rect x="11.204" y="12.099" fill="#FF8080" width="4.097" height="0.655"/>
<rect x="6.827" y="12.099" fill="#FF0000" width="5.841" height="0.655"/>
<rect x="12.496" y="11.786" fill="#333333" width="0.437" height="1.28"/>
<rect x="15.897" y="12.278" fill="#333333" width="0.437" height="0.477"/>
<polygon fill="#333333" points="16.598,13.174 15.942,12.516 16.598,11.86 "/>
<polygon fill="none" stroke="#333333" stroke-width="0.0409" stroke-miterlimit="10" points="18.584,13.057 17.287,13.057 
	17.295,11.899 18.592,11.899 "/>
<rect x="18.121" y="12.187" transform="matrix(0.7058 -0.7084 0.7084 0.7058 -3.3486 16.5196)" fill="#333333" width="0.19" height="0.21"/>
<rect x="18.118" y="12.599" transform="matrix(0.7071 0.7071 -0.7071 0.7071 14.318 -9.1585)" fill="#333333" width="0.193" height="0.211"/>
<rect x="17.534" y="12.601" transform="matrix(-0.7122 0.702 -0.702 -0.7122 39.1044 9.3771)" fill="#333333" width="0.192" height="0.209"/>
<rect x="17.534" y="12.169" transform="matrix(-0.7084 -0.7058 0.7058 -0.7084 21.4558 33.4126)" fill="#333333" width="0.193" height="0.209"/>
<polygon fill="#333333" points="18.479,12.442 18.479,12.034 18.07,12.034 "/>
<polygon fill="#333333" points="18.479,12.53 18.479,12.94 18.07,12.94 "/>
<polygon fill="#333333" points="17.4,12.53 17.4,12.94 17.809,12.94 "/>
<polygon fill="#333333" points="17.4,12.426 17.4,12.018 17.809,12.018 "/>
<path fill="#999999" d="M8.403,14.502L7.299,17.71h-0.46l-1.105-3.208h0.458l0.887,2.663l0.888-2.663H8.403z"/>
<path fill="#999999" d="M9.426,17.71H8.963l0.003-3.208h0.462L9.426,17.71z"/>
<path fill="#999999" d="M12.89,16.11c0,0.293-0.062,0.558-0.179,0.793c-0.119,0.233-0.278,0.418-0.478,0.552
	c-0.162,0.103-0.328,0.171-0.495,0.207c-0.168,0.03-0.382,0.051-0.642,0.051h-0.739v-3.21h0.731c0.302,0,0.539,0.023,0.711,0.07
	c0.17,0.041,0.316,0.105,0.437,0.183c0.206,0.14,0.367,0.319,0.48,0.545S12.89,15.796,12.89,16.11z M12.444,16.103
	c0-0.248-0.041-0.46-0.122-0.632c-0.083-0.175-0.204-0.312-0.364-0.411c-0.113-0.066-0.236-0.117-0.365-0.146
	c-0.13-0.029-0.291-0.045-0.482-0.045h-0.326v2.477h0.326c0.189,0,0.354-0.018,0.498-0.047c0.142-0.03,0.271-0.085,0.39-0.168
	c0.148-0.102,0.257-0.234,0.334-0.402C12.406,16.562,12.444,16.354,12.444,16.103z"/>
<path fill="#999999" d="M13.353,17.71v-3.208h2.006v0.379h-1.579v0.881h1.475v0.379h-1.475v1.192h1.579v0.379h-2.006V17.71z"/>
<path fill="#999999" d="M18.096,14.87c0.123,0.141,0.218,0.314,0.283,0.522c0.067,0.209,0.104,0.445,0.104,0.714
	c0,0.26-0.033,0.493-0.099,0.705c-0.067,0.207-0.164,0.385-0.289,0.524c-0.131,0.151-0.282,0.26-0.457,0.332
	c-0.176,0.069-0.368,0.106-0.577,0.106c-0.216,0-0.413-0.037-0.585-0.11c-0.171-0.072-0.321-0.185-0.447-0.328
	c-0.123-0.144-0.219-0.317-0.285-0.522c-0.066-0.209-0.1-0.445-0.1-0.707c0-0.271,0.033-0.507,0.1-0.711
	c0.068-0.205,0.164-0.382,0.287-0.525c0.124-0.141,0.274-0.249,0.447-0.323c0.173-0.075,0.37-0.11,0.583-0.11
	c0.22,0,0.418,0.035,0.59,0.112C17.828,14.625,17.978,14.731,18.096,14.87z M18.039,16.106c0-0.213-0.022-0.398-0.07-0.562
	c-0.045-0.164-0.109-0.301-0.19-0.409c-0.085-0.11-0.188-0.192-0.312-0.249c-0.116-0.055-0.252-0.083-0.402-0.083
	c-0.155,0-0.289,0.024-0.404,0.083c-0.117,0.051-0.219,0.137-0.307,0.249c-0.085,0.108-0.15,0.247-0.195,0.413
	c-0.047,0.164-0.068,0.352-0.068,0.561c0,0.422,0.088,0.742,0.265,0.967c0.177,0.226,0.416,0.336,0.709,0.336
	c0.298,0,0.534-0.11,0.711-0.336C17.949,16.85,18.039,16.528,18.039,16.106z"/>
<g>
	<defs>
		<polygon id="SVGID_1_" points="18.504,11.325 5.712,11.325 5.712,2.832 15.784,2.832 18.504,5.674 		"/>
	</defs>
	<clipPath id="SVGID_3_">
		<use xlink:href="#SVGID_1_"  overflow="visible"/>
	</clipPath>
	<g clip-path="url(#SVGID_3_)">
		
			<rect id="rect2704_4_" x="6.048" y="3.117" fill="#4D4D4D" stroke="#333333" stroke-width="0.5726" width="12.101" height="7.85"/>
		
			<linearGradient id="rect2704_5_" gradientUnits="userSpaceOnUse" x1="-1115.0024" y1="739.0791" x2="-1115.0024" y2="733.4809" gradientTransform="matrix(-1.1301 0 0 1.0847 -1247.9646 -792.2324)">
			<stop  offset="0" style="stop-color:#81AAC3"/>
			<stop  offset="1" style="stop-color:#4E82A3"/>
		</linearGradient>
		
			<rect id="rect2704_3_" x="7.834" y="3.117" fill="url(#rect2704_5_)" stroke="#333333" stroke-width="0.5726" width="8.531" height="7.85"/>
		
			<linearGradient id="rect3464_3_" gradientUnits="userSpaceOnUse" x1="-1152.9907" y1="-735.5483" x2="-1152.9907" y2="-741.7374" gradientTransform="matrix(-1 0 0 -1 -1135.7314 -732.1055)">
			<stop  offset="0" style="stop-color:#9FBAD6"/>
			<stop  offset="1" style="stop-color:#587B9F"/>
		</linearGradient>
		<path id="rect3464_2_" fill="url(#rect3464_3_)" d="M17.854,9.332h-1.189V8.023h1.189V9.332z M17.854,6.715h-1.189V5.404h1.189
			V6.715z M17.854,4.096h-1.189V3.443h1.189V4.096z"/>
		
			<path id="path4320_2_" fill="#333333" stroke="#333333" stroke-width="0.5726" stroke-linecap="square" stroke-linejoin="round" d="
			M16.365,10.967c-2.578,0-5.355,0-7.938,0"/>
		
			<linearGradient id="path3295_3_" gradientUnits="userSpaceOnUse" x1="-1142.6719" y1="-735.5483" x2="-1142.6719" y2="-741.7374" gradientTransform="matrix(-1 0 0 -1 -1135.7314 -732.1055)">
			<stop  offset="0" style="stop-color:#9FBAD6"/>
			<stop  offset="1" style="stop-color:#587B9F"/>
		</linearGradient>
		<path id="path3295_2_" fill="url(#path3295_3_)" d="M7.536,9.332h-1.19V8.023h1.19V9.332z M7.536,6.715h-1.19V5.404h1.19V6.715z
			 M7.536,4.096h-1.19V3.443h1.19V4.096z"/>
		
			<path id="path2412_2_" opacity="0.3" fill="none" stroke="#FFFFFF" stroke-width="0.5726" stroke-linecap="square" stroke-linejoin="round" enable-background="new    " d="
			M15.77,10.312c-2.383,0-4.964,0-7.345,0"/>
		<polygon fill="#FFFFFF" points="11.607,8.302 11.607,5.756 13.59,6.994 		"/>
		
			<ellipse fill="none" stroke="#FFFFFF" stroke-width="0.5726" stroke-miterlimit="10" cx="12.295" cy="7.03" rx="2.189" ry="2.403"/>
	</g>
</g>
<path id="path3888_1_" display="none" fill="#4AABE9" d="M7.555,7.749
	C7.459,7.513,7.408,7.257,7.408,6.988c0-1.165,0.993-2.109,2.217-2.109c0.455,0,0.88,0.132,1.231,0.356
	c0.64-1.055,1.834-1.762,3.203-1.762c2.042,0,3.695,1.573,3.695,3.516c0,0.06-0.002,0.118-0.004,0.178
	c1.293,0.433,2.222,1.606,2.222,2.986c0,1.747-1.489,3.165-3.326,3.165h-8.5c-1.633,0-2.957-1.259-2.957-2.812
	C5.189,9.143,6.207,8.007,7.555,7.749z M10.886,9.097h1.511v2.46c0,0.193,0.167,0.352,0.37,0.352h1.108
	c0.203,0,0.369-0.158,0.369-0.352v-2.46h1.511c0.329,0,0.493-0.378,0.262-0.601L13.58,6.181c-0.143-0.136-0.379-0.136-0.521,0
	l-2.436,2.316C10.392,8.719,10.558,9.097,10.886,9.097z"/>
<path id="path2_1_" fill="#FFFFFF" stroke="#BBBBBB" stroke-linecap="round" stroke-linejoin="round" stroke-miterlimit="10" d="
	M16.977,6.751h4.416L15.8,0.967v4.536C15.8,6.175,16.328,6.751,16.977,6.751z"/>
<linearGradient id="path10534_2_" gradientUnits="userSpaceOnUse" x1="-291.2515" y1="244.4951" x2="-291.2515" y2="231.78" gradientTransform="matrix(12.3304 2.622 2.622 -12.3304 2961.8545 3791.5728)">
	<stop  offset="0" style="stop-color:#DDA976"/>
	<stop  offset="0.0622" style="stop-color:#D4A06D"/>
	<stop  offset="0.2639" style="stop-color:#BD8955"/>
	<stop  offset="0.4782" style="stop-color:#AC7844"/>
	<stop  offset="0.7116" style="stop-color:#A26E3A"/>
	<stop  offset="1" style="stop-color:#9F6B37"/>
</linearGradient>
<path id="path10534_1_" fill="url(#path10534_2_)" d="
	M8.479,19.444c0.169-2.016,7.342,1.037,8.267-0.426c1.568-2.886-5.619-2.965-8.938-3.541c-3.546-0.232-5.74-3.588-5.74-3.588
	C1.573,12.847,0.409,14.573,0,16.258c0.421,0.356,5.164,7.256,7.599,7.606c2.443,0.354,12.76,0.064,13.102-1.555
	C21.381,19.085,8.299,21.636,8.479,19.444z"/>
<linearGradient id="path10541_2_" gradientUnits="userSpaceOnUse" x1="-291.2476" y1="244.418" x2="-291.2476" y2="233.7648" gradientTransform="matrix(12.3304 2.622 2.622 -12.3304 2961.8545 3791.5728)">
	<stop  offset="0" style="stop-color:#FFDDAA"/>
	<stop  offset="1" style="stop-color:#E3B17E"/>
</linearGradient>
<path id="path10541_1_" fill="url(#path10541_2_)" d="
	M1.465,16.646c-0.201-0.26-0.35-0.455-0.468-0.605c0.348-1.059,0.766-2.526,1.184-3.188c1.504,2.092,3.448,2.725,4.419,2.968
	c3.036,0.386,10.638,0.942,9.427,2.81c-0.586,0.902-7.765-2.4-8.223,0.791c-0.453,3.158,11.774,0.803,12.125,2.549
	c-0.125,1.511-10.594,1.535-12.206,1.043C5.907,22.468,2.601,18.124,1.465,16.646z"/>
<linearGradient id="path10548_2_" gradientUnits="userSpaceOnUse" x1="-291.4316" y1="244.3418" x2="-291.4316" y2="235.8182" gradientTransform="matrix(12.3304 2.622 2.622 -12.3304 2961.8545 3791.5728)">
	<stop  offset="0" style="stop-color:#F1C592"/>
	<stop  offset="1" style="stop-color:#E1AF7C"/>
</linearGradient>
<path id="path10548_1_" fill="url(#path10548_2_)" d="
	M7.981,22.153c-0.686-0.206-2.236-1.408-5.735-5.961l-0.239-0.308c0.223-0.569,0.312-1.257,0.609-1.788
	c1.103,1.311,2.398,2.061,3.766,2.358c0.811,0.251,2.168,0.131,3.191,0.178c1.296,0.095,3.337,0.369,4.577,0.747
	c1.243,0.378,1.202,0.971-0.167,0.652c-0.94-0.088-5.04-0.973-6.176-0.265c-0.351,0.226-0.772,0.701-0.893,1.528
	c-0.142,0.971,0.273,2.254,3.048,2.844c0.249,0.055,0.511,0.102,0.782,0.141c-1.192,0.026-2.194-0.006-2.694-0.109L7.981,22.153z"/>
</svg>
