<?xml version="1.0" encoding="utf-8"?>
<!-- Generator: Adobe Illustrator 15.0.0, SVG Export Plug-In . SVG Version: 6.00 Build 0)  -->
<!DOCTYPE svg PUBLIC "-//W3C//DTD SVG 1.1//EN" "http://www.w3.org/Graphics/SVG/1.1/DTD/svg11.dtd">
<svg version="1.1"
	 id="svg20" sodipodi:docname="icon.svg" xmlns:inkscape="http://www.inkscape.org/namespaces/inkscape" inkscape:version="0.92.2 5c3e80d, 2017-08-06" xmlns:sodipodi="http://sodipodi.sourceforge.net/DTD/sodipodi-0.dtd" xmlns:rdf="http://www.w3.org/1999/02/22-rdf-syntax-ns#" xmlns:svg="http://www.w3.org/2000/svg" xmlns:cc="http://creativecommons.org/ns#" xmlns:dc="http://purl.org/dc/elements/1.1/"
	 xmlns="http://www.w3.org/2000/svg" xmlns:xlink="http://www.w3.org/1999/xlink" x="0px" y="0px" width="24px" height="24px"
	 viewBox="0 0 24 24" enable-background="new 0 0 24 24" xml:space="preserve">
<sodipodi:namedview  bordercolor="#666666" borderopacity="1" id="namedview22" inkscape:window-height="1010" objecttolerance="10" pagecolor="#ffffff" gridtolerance="10" guidetolerance="10" inkscape:pageopacity="0" inkscape:pageshadow="2" inkscape:window-width="1795" showgrid="false" inkscape:cy="13.764066" inkscape:zoom="17.063346" inkscape:cx="5.7965141" inkscape:window-x="0" inkscape:window-y="22" inkscape:window-maximized="0" inkscape:current-layer="layer1">
	</sodipodi:namedview>
<g id="g18" transform="translate(-14.145579)">
	
		<linearGradient id="SVGID_1_" gradientUnits="userSpaceOnUse" x1="54.4288" y1="777.6582" x2="54.4288" y2="789.9164" gradientTransform="matrix(1 0 0 1 -28.291 -767)">
		<stop  offset="0" style="stop-color:#FFFFFF"/>
		<stop  offset="1" style="stop-color:#BDD8F0"/>
	</linearGradient>
	<path fill="url(#SVGID_1_)" stroke="#999999" stroke-linejoin="round" stroke-miterlimit="10" d="M29.858,6.348
		c-0.723,0-1.271-0.552-1.271-1.271V0.493h-9.722c-0.72,0-1.272,0.552-1.272,1.271v17.673l15.818,2.83
		c0.719,0,1.271-0.553,1.271-1.271V6.348H29.858z"/>
	<g id="Layer_93">
		
			<linearGradient id="SVGID_2_" gradientUnits="userSpaceOnUse" x1="26.1558" y1="766.4922" x2="26.1558" y2="787.4287" gradientTransform="matrix(1 0 0 1 0 -766)">
			<stop  offset="0" style="stop-color:#C3C3C3"/>
			<stop  offset="0.4698" style="stop-color:#B7B7B7"/>
			<stop  offset="1" style="stop-color:#AEAEAE"/>
		</linearGradient>
		<polygon display="none" fill="url(#SVGID_2_)" points="28.32,0.493 27.45,0.493 18.307,0.493 17.433,0.493 17.433,21.429 
			18.307,21.429 34.007,21.429 34.879,21.429 34.879,7.375 		"/>
		<g display="none">
			
				<linearGradient id="SVGID_3_" gradientUnits="userSpaceOnUse" x1="26.1568" y1="767.3643" x2="26.1568" y2="786.5557" gradientTransform="matrix(1 0 0 1 0 -766)">
				<stop  offset="0" style="stop-color:#F3F3F3"/>
				<stop  offset="1" style="stop-color:#EEEEEE"/>
			</linearGradient>
			<polygon display="inline" fill="url(#SVGID_3_)" points="27.95,1.365 27.076,1.365 19.178,1.365 18.307,1.365 18.307,20.556 
				19.178,20.556 33.136,20.556 34.007,20.556 34.007,7.724 			"/>
		</g>
		
			<linearGradient id="SVGID_4_" gradientUnits="userSpaceOnUse" x1="26.1568" y1="768.2383" x2="26.1568" y2="785.6836" gradientTransform="matrix(1 0 0 1 0 -766)">
			<stop  offset="0" style="stop-color:#F2F2F2"/>
			<stop  offset="0.4399" style="stop-color:#EDEDED"/>
			<stop  offset="0.998" style="stop-color:#DDDDDD"/>
			<stop  offset="1" style="stop-color:#DDDDDD"/>
		</linearGradient>
		<polygon display="none" fill="url(#SVGID_4_)" points="27.573,2.238 26.701,2.238 20.051,2.238 19.178,2.238 19.178,19.684 
			20.051,19.684 32.263,19.684 33.136,19.684 33.136,8.073 		"/>
		<g>
			<rect x="19.179" y="11.569" fill="#DDDDDD" width="13.955" height="1.827"/>
			<g>
				<rect x="19.676" y="11.957" fill="#333333" width="0.301" height="1.104"/>
				<rect x="20.125" y="11.957" fill="#333333" width="0.299" height="1.104"/>
			</g>
			<g>
				<rect x="25.349" y="12.092" fill="#FF8080" width="4.098" height="0.655"/>
				<rect x="20.972" y="12.092" fill="#FF0000" width="5.842" height="0.655"/>
				<rect x="26.641" y="11.779" fill="#333333" width="0.437" height="1.28"/>
			</g>
			<g>
				<rect x="30.043" y="12.271" fill="#333333" width="0.437" height="0.477"/>
				<polygon fill="#333333" points="30.743,13.167 30.088,12.509 30.743,11.853 				"/>
			</g>
			<g>
				<polygon fill="none" stroke="#333333" stroke-width="0.0409" stroke-miterlimit="10" points="32.73,13.05 31.433,13.05 
					31.441,11.892 32.737,11.892 				"/>
				<g>
					
						<rect x="32.266" y="12.178" transform="matrix(-0.7058 0.7084 -0.7084 -0.7058 63.9025 -1.9706)" fill="#333333" width="0.19" height="0.21"/>
					
						<rect x="32.262" y="12.592" transform="matrix(-0.7071 -0.7071 0.7071 -0.7071 46.2622 44.556)" fill="#333333" width="0.193" height="0.21"/>
					
						<rect x="31.679" y="12.592" transform="matrix(0.7097 -0.7045 0.7045 0.7097 0.2807 26.0729)" fill="#333333" width="0.191" height="0.209"/>
					
						<rect x="31.678" y="12.164" transform="matrix(0.7084 0.7058 -0.7058 0.7084 17.9258 -18.8503)" fill="#333333" width="0.193" height="0.209"/>
					<g>
						<polygon fill="#333333" points="32.625,12.435 32.625,12.027 32.216,12.027 						"/>
						<polygon fill="#333333" points="32.625,12.524 32.625,12.933 32.216,12.933 						"/>
						<polygon fill="#333333" points="31.546,12.524 31.546,12.933 31.954,12.933 						"/>
						<polygon fill="#333333" points="31.546,12.419 31.546,12.011 31.954,12.011 						"/>
					</g>
				</g>
			</g>
		</g>
		<g>
			<path fill="#999999" d="M22.549,14.495l-1.104,3.208h-0.46l-1.105-3.208h0.458l0.887,2.663l0.888-2.663H22.549z"/>
			<path fill="#999999" d="M23.572,17.703h-0.463l0.003-3.208h0.462L23.572,17.703z"/>
			<path fill="#999999" d="M27.035,16.103c0,0.293-0.062,0.558-0.179,0.794c-0.119,0.233-0.278,0.417-0.477,0.551
				c-0.162,0.103-0.328,0.171-0.495,0.207c-0.168,0.031-0.382,0.051-0.642,0.051h-0.739v-3.21h0.731c0.302,0,0.539,0.023,0.711,0.07
				c0.17,0.042,0.316,0.106,0.437,0.183c0.206,0.139,0.367,0.319,0.481,0.545C26.976,15.519,27.035,15.789,27.035,16.103z
				 M26.59,16.096c0-0.249-0.041-0.46-0.122-0.632c-0.083-0.175-0.204-0.312-0.364-0.411c-0.113-0.066-0.236-0.117-0.365-0.147
				c-0.13-0.029-0.291-0.044-0.482-0.044h-0.326v2.476h0.326c0.189,0,0.354-0.018,0.498-0.047c0.142-0.03,0.271-0.085,0.39-0.168
				c0.148-0.101,0.257-0.234,0.334-0.402C26.552,16.554,26.59,16.347,26.59,16.096z"/>
			<path fill="#999999" d="M27.498,17.703v-3.208h2.006v0.379h-1.579v0.881h1.474v0.379h-1.474v1.192h1.579v0.379h-2.006V17.703z"/>
			<path fill="#999999" d="M32.242,14.863c0.123,0.141,0.217,0.315,0.283,0.523c0.067,0.209,0.104,0.445,0.104,0.713
				c0,0.26-0.033,0.494-0.098,0.705c-0.068,0.208-0.164,0.385-0.289,0.525c-0.132,0.151-0.283,0.26-0.458,0.332
				c-0.175,0.07-0.368,0.106-0.577,0.106c-0.215,0-0.413-0.036-0.585-0.11c-0.171-0.072-0.321-0.184-0.447-0.328
				c-0.123-0.143-0.219-0.317-0.285-0.523c-0.066-0.209-0.1-0.445-0.1-0.707c0-0.27,0.033-0.506,0.1-0.711
				c0.068-0.204,0.164-0.381,0.287-0.525c0.124-0.141,0.274-0.249,0.447-0.323c0.173-0.075,0.37-0.111,0.583-0.111
				c0.22,0,0.418,0.036,0.59,0.113C31.974,14.618,32.123,14.725,32.242,14.863z M32.185,16.1c0-0.213-0.023-0.399-0.07-0.563
				c-0.045-0.164-0.11-0.301-0.191-0.409c-0.085-0.11-0.189-0.193-0.312-0.249c-0.116-0.055-0.251-0.083-0.402-0.083
				c-0.155,0-0.289,0.025-0.404,0.083c-0.117,0.051-0.219,0.137-0.307,0.249c-0.085,0.108-0.15,0.247-0.195,0.413
				c-0.047,0.164-0.068,0.352-0.068,0.56c0,0.422,0.088,0.743,0.264,0.967c0.177,0.226,0.416,0.336,0.709,0.336
				c0.298,0,0.534-0.11,0.711-0.336C32.095,16.843,32.185,16.521,32.185,16.1z"/>
		</g>
		<g>
			<g>
				<defs>
					<polygon id="SVGID_5_" points="32.65,11.318 19.858,11.318 19.858,2.825 29.93,2.825 32.65,5.667 					"/>
				</defs>
				<clipPath id="SVGID_6_">
					<use xlink:href="#SVGID_5_"  overflow="visible"/>
				</clipPath>
				<g clip-path="url(#SVGID_6_)">
					
						<rect id="rect2704_2_" x="20.194" y="3.11" fill="#4D4D4D" stroke="#333333" stroke-width="0.5726" width="12.101" height="7.85"/>
					
						<linearGradient id="rect2704_3_" gradientUnits="userSpaceOnUse" x1="-561.7914" y1="22.9805" x2="-561.7914" y2="28.5802" gradientTransform="matrix(-1.1301 0 0 -1.0847 -608.6349 34.3685)">
						<stop  offset="0" style="stop-color:#81AAC3"/>
						<stop  offset="1" style="stop-color:#4E82A3"/>
					</linearGradient>
					
						<rect id="rect2704_1_" x="21.98" y="3.11" fill="url(#rect2704_3_)" stroke="#333333" stroke-width="0.5726" width="8.531" height="7.85"/>
					
						<linearGradient id="rect3464_2_" gradientUnits="userSpaceOnUse" x1="-565.9907" y1="760.5547" x2="-565.9907" y2="766.7437" gradientTransform="matrix(-1 0 0 1 -534.5858 -757.1191)">
						<stop  offset="0" style="stop-color:#9FBAD6"/>
						<stop  offset="1" style="stop-color:#587B9F"/>
					</linearGradient>
					<path id="rect3464_1_" fill="url(#rect3464_2_)" d="M31.999,9.325H30.81V8.016h1.189V9.325z M31.999,6.708H30.81V5.397h1.189
						V6.708z M31.999,4.089H30.81V3.436h1.189V4.089z"/>
					
						<path id="path4320_1_" fill="#333333" stroke="#333333" stroke-width="0.5726" stroke-linecap="square" stroke-linejoin="round" d="
						M30.511,10.96c-2.579,0-5.355,0-7.938,0"/>
					
						<linearGradient id="path3295_2_" gradientUnits="userSpaceOnUse" x1="-555.6713" y1="760.5547" x2="-555.6713" y2="766.7437" gradientTransform="matrix(-1 0 0 1 -534.5858 -757.1191)">
						<stop  offset="0" style="stop-color:#9FBAD6"/>
						<stop  offset="1" style="stop-color:#587B9F"/>
					</linearGradient>
					<path id="path3295_1_" fill="url(#path3295_2_)" d="M21.681,9.325h-1.19V8.016h1.19V9.325z M21.681,6.708h-1.19V5.397h1.19
						V6.708z M21.681,4.089h-1.19V3.436h1.19V4.089z"/>
					
						<path id="path2412_1_" opacity="0.3" fill="none" stroke="#FFFFFF" stroke-width="0.5726" stroke-linecap="square" stroke-linejoin="round" enable-background="new    " d="
						M29.915,10.305c-2.382,0-4.964,0-7.345,0"/>
					<polygon fill="#FFFFFF" points="25.753,8.295 25.753,5.749 27.735,6.987 					"/>
					
						<ellipse fill="none" stroke="#FFFFFF" stroke-width="0.5726" stroke-miterlimit="10" cx="26.441" cy="7.023" rx="2.189" ry="2.403"/>
				</g>
			</g>
		</g>
		
			<linearGradient id="SVGID_7_" gradientUnits="userSpaceOnUse" x1="-1120.5806" y1="766.4932" x2="-1120.5806" y2="773.4717" gradientTransform="matrix(-1 0 0 1 -1089.7089 -766)">
			<stop  offset="0" style="stop-color:#F5F5F5"/>
			<stop  offset="1" style="stop-color:#DDDDDD"/>
		</linearGradient>
		<polygon display="none" fill="url(#SVGID_7_)" points="27.899,0.493 27.899,7.472 28.774,7.472 33.843,7.472 		"/>
		
			<linearGradient id="SVGID_8_" gradientUnits="userSpaceOnUse" x1="-1120.6626" y1="766.4932" x2="-1120.6626" y2="773.4717" gradientTransform="matrix(-1 0 0 1 -1089.7089 -766)">
			<stop  offset="0" style="stop-color:#F3F3F3"/>
			<stop  offset="1" style="stop-color:#EEEEEE"/>
		</linearGradient>
		<polygon display="none" fill="url(#SVGID_8_)" points="28.774,1.365 28.774,6.6 29.645,6.6 33.136,6.6 34.007,7.472 28.774,7.472 
			27.899,7.472 27.899,0.493 		"/>
		
			<linearGradient id="SVGID_9_" gradientUnits="userSpaceOnUse" x1="-1120.6636" y1="766.4932" x2="-1120.6636" y2="774.3438" gradientTransform="matrix(-1 0 0 1 -1089.7089 -766)">
			<stop  offset="0" style="stop-color:#D6D6D6"/>
			<stop  offset="0.5006" style="stop-color:#C8C8C8"/>
			<stop  offset="1" style="stop-color:#BFBFBF"/>
		</linearGradient>
		<polygon display="none" fill="url(#SVGID_9_)" points="27.899,0.493 27.899,7.472 28.774,7.472 34.879,7.472 34.879,8.344 
			27.899,8.344 27.029,8.344 27.029,0.493 		"/>
		
			<linearGradient id="SVGID_10_" gradientUnits="userSpaceOnUse" x1="26.1578" y1="766.4922" x2="26.1578" y2="787.4287" gradientTransform="matrix(1 0 0 1 0 -766)">
			<stop  offset="0" style="stop-color:#C3C3C3"/>
			<stop  offset="0.4698" style="stop-color:#B7B7B7"/>
			<stop  offset="1" style="stop-color:#AEAEAE"/>
		</linearGradient>
		<path display="none" fill="url(#SVGID_10_)" d="M28.32,0.493h-0.87h-9.144h-0.872v20.936h0.872h15.702h0.873V7.375L28.32,0.493z
			 M34.007,20.556h-0.873H19.178h-0.872V1.365h0.872h7.898h0.874l6.059,6.359v12.832H34.007z"/>
	</g>
	<path fill="#FFFFFF" stroke="#999999" stroke-linecap="round" stroke-linejoin="round" stroke-miterlimit="10" d="M29.829,6.348
		h4.854l-6.125-5.855v4.584C28.558,5.796,29.134,6.348,29.829,6.348z"/>
	<g id="g14799" transform="matrix(3.7058697,0.54062794,-0.54062794,3.7058697,22.494748,9.9223005)">
		<g id="raw_1_">
			<g id="assign_24" inkscape:label="assign_hand">
				
					<linearGradient id="path10534_1_" gradientUnits="userSpaceOnUse" x1="-70.1188" y1="73.525" x2="-70.1188" y2="60.8099" gradientTransform="matrix(12.5656 -1.0099 -1.0099 -12.5656 956.3417 853.8021)">
					<stop  offset="0" style="stop-color:#DDA976"/>
					<stop  offset="1" style="stop-color:#9F6B37"/>
				</linearGradient>
				<path id="path10534" inkscape:connector-curvature="0" sodipodi:nodetypes="cccccccc" fill="url(#path10534_1_)" d="
					M0.401,2.509C0.368,1.97,2.381,2.5,2.569,2.078C2.872,1.255,0.97,1.511,0.071,1.487C-0.875,1.562-1.584,0.76-1.584,0.76
					c-0.094,0.272-0.335,0.773-0.378,1.234c0.125,0.078,1.644,1.718,2.301,1.717C0.998,3.71,3.713,3.236,3.741,2.795
					C3.796,1.917,0.438,3.095,0.401,2.509z"/>
				
					<linearGradient id="path10541_1_" gradientUnits="userSpaceOnUse" x1="-70.1207" y1="73.5045" x2="-70.1207" y2="62.8513" gradientTransform="matrix(12.5656 -1.0099 -1.0099 -12.5656 956.3417 853.8021)">
					<stop  offset="0" style="stop-color:#FFDDAA"/>
					<stop  offset="1" style="stop-color:#E3B17E"/>
				</linearGradient>
				<path id="path10541" inkscape:connector-curvature="0" sodipodi:nodetypes="ccccccccc" fill="url(#path10541_1_)" d="
					M-1.56,2.04c-0.063-0.061-0.11-0.107-0.147-0.142c0.051-0.293,0.105-0.697,0.19-0.888c0.478,0.495,1.016,0.587,1.282,0.614
					c0.817-0.015,2.847-0.161,2.599,0.379C2.244,2.264,0.22,1.668,0.222,2.529c0.002,0.852,3.142-0.242,3.302,0.206
					c0.025,0.404-2.74,0.814-3.185,0.746C-0.162,3.407-1.203,2.387-1.56,2.04z"/>
				
					<linearGradient id="path10548_1_" gradientUnits="userSpaceOnUse" x1="-70.1723" y1="73.4914" x2="-70.1723" y2="64.9678" gradientTransform="matrix(12.5656 -1.0099 -1.0099 -12.5656 956.3417 853.8021)">
					<stop  offset="0" style="stop-color:#F1C592"/>
					<stop  offset="1" style="stop-color:#E1AF7C"/>
				</linearGradient>
				<path id="path10548" inkscape:connector-curvature="0" sodipodi:nodetypes="cccccccccccccc" fill="url(#path10548_1_)" d="
					M0.374,3.244C0.185,3.216-0.271,2.958-1.371,1.89l-0.075-0.072c0.037-0.159,0.034-0.344,0.092-0.496
					C-1.012,1.626-0.641,1.774-0.268,1.8c0.224,0.035,0.578-0.049,0.85-0.076C0.928,1.699,1.478,1.693,1.82,1.745
					c0.343,0.052,0.355,0.21-0.019,0.179C1.549,1.937,0.432,1.861,0.159,2.092C0.075,2.165-0.018,2.307-0.018,2.53
					c0,0.262,0.159,0.585,0.915,0.634c0.068,0.005,0.139,0.007,0.212,0.007c-0.314,0.053-0.58,0.083-0.716,0.075L0.374,3.244z"/>
			</g>
		</g>
	</g>
</g>
<g id="layer1" inkscape:groupmode="layer" inkscape:label="Layer 1">
</g>
</svg>
