<?xml version="1.0" encoding="UTF-8" standalone="no"?>
<svg
   xmlns:dc="http://purl.org/dc/elements/1.1/"
   xmlns:cc="http://creativecommons.org/ns#"
   xmlns:rdf="http://www.w3.org/1999/02/22-rdf-syntax-ns#"
   xmlns:svg="http://www.w3.org/2000/svg"
   xmlns="http://www.w3.org/2000/svg"
   xmlns:sodipodi="http://sodipodi.sourceforge.net/DTD/sodipodi-0.dtd"
   xmlns:inkscape="http://www.inkscape.org/namespaces/inkscape"
   height="24px"
   width="24px"
   viewBox="0 0 100 100"
   enable-background="new 0 0 100 100"
   version="1.1"
   id="svg32"
   sodipodi:docname="icon.svg"
   inkscape:version="0.92.2 5c3e80d, 2017-08-06">
  <metadata
     id="metadata38">
    <rdf:RDF>
      <cc:Work
         rdf:about="">
        <dc:format>image/svg+xml</dc:format>
        <dc:type
           rdf:resource="http://purl.org/dc/dcmitype/StillImage" />
        <dc:title></dc:title>
      </cc:Work>
    </rdf:RDF>
  </metadata>
  <defs
     id="defs36">
    <style
       id="style1183">
      .cls-1 {
        isolation: isolate;
      }

      .cls-2 {
        fill: none;
      }

      .cls-3 {
        fill: #6bc9a7;
      }

      .cls-4 {
        opacity: 0.15;
        mix-blend-mode: multiply;
      }

      .cls-5 {
        fill: #fff;
      }

      .cls-6 {
        fill: #cde6fc;
      }

      .cls-7 {
        fill: #8db7e2;
      }

      .cls-8 {
        opacity: 0.2;
      }

      .cls-9 {
        fill: #231f20;
      }

      .cls-10 {
        fill: #ddd;
      }

      .cls-11 {
        fill: #239630;
      }
    </style>
    <style
       id="style1586">
      .cls-1 {
        fill: #ea964d;
      }

      .cls-2 {
        fill: #f0f1f5;
      }

      .cls-3 {
        fill: #b8b8bf;
      }

      .cls-4 {
        fill: #34495e;
      }

      .cls-5 {
        fill: #e94c3d;
      }

      .cls-6 {
        fill: #c1392b;
      }

      .cls-7 {
        fill: #3497da;
      }

      .cls-8 {
        fill: #2a80bb;
      }

      .cls-9 {
        fill: #2c3e50;
        opacity: 0.1;
      }

      .cls-10 {
        fill: #8e44ad;
      }

      .cls-11 {
        fill: none;
      }
    </style>
    <style
       id="style6156">
      .cls-1 {
        fill: #f06060;
      }

      .cls-2 {
        opacity: 0.15;
      }

      .cls-3 {
        fill: #231f20;
      }

      .cls-4 {
        fill: #fff;
      }

      .cls-5 {
        fill: #79aad3;
      }

      .cls-6 {
        fill: #b0afad;
      }

      .cls-7 {
        fill: none;
      }
    </style>
    <style
       id="style1377">
      .cls-1 {
        isolation: isolate;
      }

      .cls-2 {
        fill: #3d6084;
      }

      .cls-3 {
        opacity: 0.2;
        mix-blend-mode: multiply;
      }

      .cls-4 {
        fill: #fff;
      }

      .cls-5 {
        fill: none;
      }
    </style>
    <style
       id="style169">
      .cls-1 {
        fill: #bbd39f;
      }

      .cls-2 {
        fill: #31387a;
      }

      .cls-3 {
        fill: none;
      }
    </style>
    <style
       id="style397">
      .cls-1 {
        fill: #fff;
      }

      .cls-2 {
        fill: #34495e;
      }

      .cls-3 {
        opacity: 0.25;
      }

      .cls-4 {
        fill: #e58833;
      }

      .cls-5 {
        fill: #97baf6;
      }

      .cls-6 {
        fill: none;
      }
    </style>
    <rect
       height="128"
       width="87"
       y="49.5"
       x="117"
       id="SVGID_1_" />
    <rect
       height="128"
       width="85"
       y="49.5"
       x="204"
       id="SVGID_3_" />
    <style
       id="style215">
      .cls-1 {
        fill: #d4efff;
      }

      .cls-2 {
        fill: #34495e;
      }

      .cls-3 {
        fill: #ecf0f1;
      }

      .cls-4 {
        fill: #2c3e50;
      }

      .cls-5 {
        fill: #2a80bb;
      }

      .cls-6 {
        fill: #3497da;
      }

      .cls-7 {
        fill: #8e44ad;
      }

      .cls-10, .cls-8 {
        opacity: 0.5;
      }

      .cls-9 {
        opacity: 0.25;
      }

      .cls-10 {
        fill: #662f84;
      }

      .cls-11 {
        opacity: 0.2;
      }

      .cls-12 {
        fill: #fff;
      }

      .cls-13 {
        opacity: 0.6;
      }

      .cls-14 {
        opacity: 0.3;
      }

      .cls-15 {
        fill: none;
      }
    </style>
  </defs>
  <sodipodi:namedview
     pagecolor="#ffffff"
     bordercolor="#666666"
     borderopacity="1"
     objecttolerance="10"
     gridtolerance="10"
     guidetolerance="10"
     inkscape:pageopacity="0"
     inkscape:pageshadow="2"
     inkscape:window-width="1440"
     inkscape:window-height="856"
     id="namedview34"
     showgrid="false"
     inkscape:zoom="20.614604"
     inkscape:cx="5.9875549"
     inkscape:cy="11.985431"
     inkscape:window-x="75"
     inkscape:window-y="47"
     inkscape:window-maximized="0"
     inkscape:current-layer="svg32" />
  <g
     stroke-miterlimit="10"
     id="g22"
     style="display:none;stroke-miterlimit:10">
    <g
       id="g14"
       style="stroke-width:3;stroke-linecap:round;stroke-linejoin:round">
      <g
         id="g10"
         style="stroke:#999999"
         transform="translate(29.166667)">
        <g
           id="g6"
           style="fill:#ffffff">
          <path
             d="m 41.566667,28.1 h 18.4 l -23.3,-24.1 v 18.9 c 0,2.8 2.2,5.2 4.9,5.2 z"
             id="path2"
             inkscape:connector-curvature="0" />
          <path
             d="m 41.566667,28.1 c -2.7,0 -4.8,-2.3 -4.8,-5.2 V 4 H -8.5666667 c -2.7000003,0 -4.8000003,2.3 -4.8000003,5.2 v 83.2 c 0,2.9 2.1,5.2 4.8000003,5.2 H 55.066667 c 2.7,0 4.8,-2.3 4.8,-5.2 V 28.1 Z"
             id="path4"
             inkscape:connector-curvature="0"
             sodipodi:nodetypes="sscsssssscs" />
        </g>
      </g>
    </g>
  </g>
  <style
     id="style131"
     type="text/css">
	.st0{fill:#1D1D1D;}
	.st1{fill:#FFFFFF;}
</style>
  <style
     id="style900"
     type="text/css">
	.st0{fill:none;}
	.st1{fill:#88C87A;}
	.st2{opacity:0.15;}
	.st3{fill:#231F20;}
	.st4{fill:#FFFFFF;}
	.st5{fill:#F05F5F;}
</style>
  <style
     id="style214"
     type="text/css">
	.st0{fill:#DDDDDD;}
	.st1{fill:#C6C6C6;}
	.st2{fill:#8DB7E2;}
	.st3{fill:#2376C1;}
	.st4{fill:none;}
</style>
  <style
     id="style796"
     type="text/css">
	.st0{fill:#41CC8D;}
	.st1{fill:#FF2E63;}
	.st2{fill:none;}
</style>
  <style
     id="style233"
     type="text/css">
	.st0{fill:none;}
	.st1{fill:#F0F1F6;}
	.st2{fill:#E2E3E8;}
	.st3{fill:#FFFFFF;}
	.st4{clip-path:url(#SVGID_2_);}
	.st5{fill:#96B9F5;}
	.st6{fill:#3C5F84;}
	.st7{opacity:0.2;}
	.st8{fill:#FEFEFE;}
	.st9{clip-path:url(#SVGID_4_);}
	.st10{fill:#D3EEFF;}
	.st11{fill:#FAC361;}
	.st12{fill:#51BC86;}
	.st13{opacity:0.25;}
	.st14{fill:#FE2E63;}
</style>
  <g
     data-name="Layer 2"
     id="Layer_2-7"
     transform="matrix(0.43612565,0,0,0.43612565,-38.533333,0.38006208)">
    <g
       data-name="interactive video"
       id="interactive_video">
      <g
         id="g264">
        <rect
           id="rect221"
           height="109"
           width="195"
           y="49.5"
           x="106"
           class="cls-1"
           style="fill:#d4efff" />
        <rect
           id="rect223"
           height="19"
           width="195"
           y="158.5"
           x="106"
           class="cls-2"
           style="fill:#34495e" />
        <polygon
           id="polygon225"
           points="112,171.45 112,162.77 119.52,167.11 "
           class="cls-3"
           style="fill:#ecf0f1" />
        <rect
           id="rect227"
           height="5"
           width="169"
           y="165.5"
           x="124"
           class="cls-4"
           style="fill:#2c3e50" />
        <rect
           id="rect229"
           height="5"
           width="52"
           y="165.5"
           x="124"
           class="cls-3"
           style="fill:#ecf0f1" />
        <circle
           id="circle231"
           r="17.1"
           cy="73.57"
           cx="130.73"
           class="cls-5"
           style="fill:#2a80bb" />
        <polygon
           id="polygon233"
           points="243.87,66.65 289.72,105.45 301,115.29 301,158.5 106,158.5 106,145.16 150.46,107.82 172.67,126.49 190.23,111.76 "
           class="cls-6"
           style="fill:#3497da" />
        <circle
           id="circle235"
           r="18.799999"
           cy="88.059998"
           cx="207.53"
           class="cls-7"
           style="fill:#8e44ad" />
        <g
           id="g239"
           class="cls-8"
           style="opacity:0.5">
          <path
             id="path237"
             d="m 207.53,65.78 a 22.29,22.29 0 1 1 -22.29,22.29 22.31,22.31 0 0 1 22.29,-22.29 m 0,-4 a 26.28,26.28 0 1 0 26.28,26.28 26.28,26.28 0 0 0 -26.28,-26.28 z"
             class="cls-7"
             inkscape:connector-curvature="0"
             style="fill:#8e44ad" />
        </g>
        <g
           id="g243"
           class="cls-9"
           style="opacity:0.25">
          <path
             id="path241"
             d="m 207.53,58.92 a 29.14,29.14 0 1 1 -29.14,29.14 29.18,29.18 0 0 1 29.14,-29.14 m 0,-4 a 33.13,33.13 0 1 0 33.13,33.13 33.13,33.13 0 0 0 -33.13,-33.13 z"
             class="cls-7"
             inkscape:connector-curvature="0"
             style="fill:#8e44ad" />
        </g>
        <path
           id="path245"
           d="m 207.53,97.52 a 18.81,18.81 0 0 1 -18.21,-14.13 18.8,18.8 0 1 0 36.43,0 18.81,18.81 0 0 1 -18.22,14.13 z"
           class="cls-10"
           inkscape:connector-curvature="0"
           style="opacity:0.5;fill:#662f84" />
        <g
           id="g249"
           class="cls-11"
           style="opacity:0.2">
          <path
             id="path247"
             d="m 243,113 v 5.54 L 212,84.28 c 0,0 -4.76,41.31 -6.46,76.13 L 222.4,177.5 H 301 v -7.59 z"
             inkscape:connector-curvature="0" />
        </g>
        <g
           data-name="&lt;Group&gt;"
           id="_Group_">
          <path
             id="path251"
             d="m 250.67,119.18 c 0,7.69 0,15.39 0,23.08 a 32.63,32.63 0 0 1 -4.44,16.74 23.22,23.22 0 0 1 -7.15,7.71 17.16,17.16 0 0 1 -9.64,3 c -2.76,0 -5.53,0.08 -8.28,-0.07 a 17.35,17.35 0 0 1 -10.53,-4.53 26.55,26.55 0 0 1 -7.48,-11.11 4.44,4.44 0 0 0 -0.75,-1.3 c -1.94,-2.29 -3.86,-4.61 -5.89,-6.83 a 31.85,31.85 0 0 0 -9.92,-7.15 5.65,5.65 0 0 1 -3.38,-4.59 c -0.29,-2.38 0.89,-4 2.87,-5.15 a 12.1,12.1 0 0 1 6.85,-1.36 17,17 0 0 1 7.87,2.38 l 0.4,0.19 c 0,-0.89 -0.11,-1.66 -0.11,-2.42 0,-11.71 0,-26.15 0,-37.86 a 7.27,7.27 0 0 1 8.55,-7.12 7.1,7.1 0 0 1 6.12,7.41 c 0,3.11 0,9 0,12.08 0,1 0,2.07 0,3.21 a 7.44,7.44 0 0 1 11.49,4.07 7.39,7.39 0 0 1 7,-1.12 7,7 0 0 1 4.7,5.39 l 0.5,-0.31 a 7.4,7.4 0 0 1 10.29,2.29 6.46,6.46 0 0 1 0.93,3.37 z"
             class="cls-3"
             inkscape:connector-curvature="0"
             style="fill:#ecf0f1" />
        </g>
        <path
           id="path254"
           d="M 162.2,95.5 H 140.37 A 8.62,8.62 0 0 1 136.56,79 c 0,-0.28 0,-0.48 0,-0.76 a 10.27,10.27 0 0 1 19.74,-3.84 5,5 0 0 1 3.33,-1.23 5.15,5.15 0 0 1 5.14,5.14 5.06,5.06 0 0 1 -0.82,2.77 7.28,7.28 0 0 1 6,7.11 7.38,7.38 0 0 1 -7.75,7.31 z"
           class="cls-12"
           inkscape:connector-curvature="0"
           style="fill:#ffffff" />
        <g
           id="g258"
           class="cls-13"
           style="opacity:0.6">
          <path
             id="path256"
             d="M 152.86,95.5 H 131 A 8.62,8.62 0 0 1 127.22,79 c 0,-0.28 0,-0.48 0,-0.76 A 10.27,10.27 0 0 1 147,74.4 a 5,5 0 0 1 3.33,-1.23 5.15,5.15 0 0 1 5.14,5.14 5.06,5.06 0 0 1 -0.82,2.77 7.28,7.28 0 0 1 6,7.11 7.38,7.38 0 0 1 -7.79,7.31 z"
             class="cls-12"
             inkscape:connector-curvature="0"
             style="fill:#ffffff" />
        </g>
        <g
           id="g262"
           class="cls-14"
           style="opacity:0.3">
          <path
             id="path260"
             d="M 143.82,95.5 H 122 A 8.62,8.62 0 0 1 118.19,79 c 0,-0.28 0,-0.48 0,-0.76 a 10.27,10.27 0 0 1 19.78,-3.82 5,5 0 0 1 3.33,-1.23 5.15,5.15 0 0 1 5.14,5.14 5.06,5.06 0 0 1 -0.82,2.77 7.28,7.28 0 0 1 6,7.11 7.38,7.38 0 0 1 -7.8,7.29 z"
             class="cls-12"
             inkscape:connector-curvature="0"
             style="fill:#ffffff" />
        </g>
      </g>
      <rect
         id="rect266"
         height="225"
         width="400"
         class="cls-15"
         x="0"
         y="0"
         style="fill:none" />
    </g>
  </g>
</svg>
