<?xml version="1.0" encoding="UTF-8" standalone="no"?>
<svg
   xmlns:dc="http://purl.org/dc/elements/1.1/"
   xmlns:cc="http://creativecommons.org/ns#"
   xmlns:rdf="http://www.w3.org/1999/02/22-rdf-syntax-ns#"
   xmlns:svg="http://www.w3.org/2000/svg"
   xmlns="http://www.w3.org/2000/svg"
   xmlns:sodipodi="http://sodipodi.sourceforge.net/DTD/sodipodi-0.dtd"
   xmlns:inkscape="http://www.inkscape.org/namespaces/inkscape"
   height="24px"
   width="24px"
   viewBox="0 0 100 100"
   enable-background="new 0 0 100 100"
   version="1.1"
   id="svg32"
   sodipodi:docname="icon.svg"
   inkscape:version="0.92.2 5c3e80d, 2017-08-06">
  <metadata
     id="metadata38">
    <rdf:RDF>
      <cc:Work
         rdf:about="">
        <dc:format>image/svg+xml</dc:format>
        <dc:type
           rdf:resource="http://purl.org/dc/dcmitype/StillImage" />
        <dc:title></dc:title>
      </cc:Work>
    </rdf:RDF>
  </metadata>
  <defs
     id="defs36">
    <style
       id="style1183">
      .cls-1 {
        isolation: isolate;
      }

      .cls-2 {
        fill: none;
      }

      .cls-3 {
        fill: #6bc9a7;
      }

      .cls-4 {
        opacity: 0.15;
        mix-blend-mode: multiply;
      }

      .cls-5 {
        fill: #fff;
      }

      .cls-6 {
        fill: #cde6fc;
      }

      .cls-7 {
        fill: #8db7e2;
      }

      .cls-8 {
        opacity: 0.2;
      }

      .cls-9 {
        fill: #231f20;
      }

      .cls-10 {
        fill: #ddd;
      }

      .cls-11 {
        fill: #239630;
      }
    </style>
    <style
       id="style1586">
      .cls-1 {
        fill: #ea964d;
      }

      .cls-2 {
        fill: #f0f1f5;
      }

      .cls-3 {
        fill: #b8b8bf;
      }

      .cls-4 {
        fill: #34495e;
      }

      .cls-5 {
        fill: #e94c3d;
      }

      .cls-6 {
        fill: #c1392b;
      }

      .cls-7 {
        fill: #3497da;
      }

      .cls-8 {
        fill: #2a80bb;
      }

      .cls-9 {
        fill: #2c3e50;
        opacity: 0.1;
      }

      .cls-10 {
        fill: #8e44ad;
      }

      .cls-11 {
        fill: none;
      }
    </style>
    <style
       id="style6156">
      .cls-1 {
        fill: #f06060;
      }

      .cls-2 {
        opacity: 0.15;
      }

      .cls-3 {
        fill: #231f20;
      }

      .cls-4 {
        fill: #fff;
      }

      .cls-5 {
        fill: #79aad3;
      }

      .cls-6 {
        fill: #b0afad;
      }

      .cls-7 {
        fill: none;
      }
    </style>
    <style
       id="style229">
      .cls-1 {
        fill: #9a5bb4;
      }

      .cls-2 {
        opacity: 0.15;
      }

      .cls-3 {
        fill: #231f20;
      }

      .cls-4 {
        fill: #fff;
      }

      .cls-5 {
        fill: #79aad3;
      }

      .cls-6 {
        fill: #b0afad;
      }

      .cls-7 {
        fill: none;
      }
    </style>
  </defs>
  <sodipodi:namedview
     pagecolor="#ffffff"
     bordercolor="#666666"
     borderopacity="1"
     objecttolerance="10"
     gridtolerance="10"
     guidetolerance="10"
     inkscape:pageopacity="0"
     inkscape:pageshadow="2"
     inkscape:window-width="1440"
     inkscape:window-height="856"
     id="namedview34"
     showgrid="false"
     inkscape:zoom="17.548318"
     inkscape:cx="8.520442"
     inkscape:cy="12.375889"
     inkscape:window-x="75"
     inkscape:window-y="47"
     inkscape:window-maximized="0"
     inkscape:current-layer="svg32" />
  <g
     stroke-miterlimit="10"
     id="g22"
     style="display:none;stroke-miterlimit:10">
    <g
       id="g14"
       style="stroke-width:3;stroke-linecap:round;stroke-linejoin:round">
      <g
         id="g10"
         style="stroke:#999999"
         transform="translate(29.166667)">
        <g
           id="g6"
           style="fill:#ffffff">
          <path
             d="m 41.566667,28.1 h 18.4 l -23.3,-24.1 v 18.9 c 0,2.8 2.2,5.2 4.9,5.2 z"
             id="path2"
             inkscape:connector-curvature="0" />
          <path
             d="m 41.566667,28.1 c -2.7,0 -4.8,-2.3 -4.8,-5.2 V 4 H -8.5666667 c -2.7000003,0 -4.8000003,2.3 -4.8000003,5.2 v 83.2 c 0,2.9 2.1,5.2 4.8000003,5.2 H 55.066667 c 2.7,0 4.8,-2.3 4.8,-5.2 V 28.1 Z"
             id="path4"
             inkscape:connector-curvature="0"
             sodipodi:nodetypes="sscsssssscs" />
        </g>
      </g>
    </g>
  </g>
  <style
     id="style131"
     type="text/css">
	.st0{fill:#1D1D1D;}
	.st1{fill:#FFFFFF;}
</style>
  <style
     id="style900"
     type="text/css">
	.st0{fill:none;}
	.st1{fill:#88C87A;}
	.st2{opacity:0.15;}
	.st3{fill:#231F20;}
	.st4{fill:#FFFFFF;}
	.st5{fill:#F05F5F;}
</style>
  <style
     id="style214"
     type="text/css">
	.st0{fill:#DDDDDD;}
	.st1{fill:#C6C6C6;}
	.st2{fill:#8DB7E2;}
	.st3{fill:#2376C1;}
	.st4{fill:none;}
</style>
  <g
     data-name="Layer 2"
     id="Layer_2"
     transform="matrix(0.53587052,0,0,0.53587052,-57.721342,-10.886839)">
    <g
       data-name="mark the words"
       id="mark_the_words">
      <g
         id="g285">
        <rect
           id="rect235"
           height="173.57001"
           width="139.13"
           y="26.709999"
           x="134.44"
           class="cls-1"
           style="fill:#9a5bb4" />
        <g
           id="g243">
          <g
             id="g239"
             class="cls-2"
             style="opacity:0.15">
            <rect
               id="rect237"
               height="146.07001"
               width="112.94"
               y="43.380001"
               x="150.44"
               class="cls-3"
               style="fill:#231f20" />
          </g>
          <rect
             id="rect241"
             height="146.07001"
             width="112.94"
             y="40.459999"
             x="147.53"
             class="cls-4"
             style="fill:#ffffff" />
        </g>
        <path
           id="path245"
           d="m 200.13,75.11 h -25.55 a 1.17,1.17 0 0 1 -1.17,-1.17 v -4.66 a 1.35,1.35 0 0 1 1.17,-1.36 h 25.56 a 1.35,1.35 0 0 1 1.17,1.36 v 4.66 a 1.17,1.17 0 0 1 -1.18,1.17 z"
           class="cls-5"
           inkscape:connector-curvature="0"
           style="fill:#79aad3" />
        <path
           id="path247"
           d="m 168.44,75.11 h -6.58 a 1.17,1.17 0 0 1 -1.17,-1.17 v -4.66 a 1.35,1.35 0 0 1 1.17,-1.36 h 6.58 a 1.35,1.35 0 0 1 1.17,1.36 v 4.66 a 1.17,1.17 0 0 1 -1.17,1.17 z"
           class="cls-6"
           inkscape:connector-curvature="0"
           style="fill:#b0afad" />
        <path
           id="path249"
           d="m 220.13,75.11 h -13.72 a 1.17,1.17 0 0 1 -1.17,-1.17 v -4.66 a 1.35,1.35 0 0 1 1.17,-1.36 h 13.73 a 1.35,1.35 0 0 1 1.17,1.36 v 4.66 a 1.17,1.17 0 0 1 -1.18,1.17 z"
           class="cls-6"
           inkscape:connector-curvature="0"
           style="fill:#b0afad" />
        <path
           id="path251"
           d="m 248.56,75.11 h -21.68 a 1.17,1.17 0 0 1 -1.17,-1.17 v -4.66 a 1.35,1.35 0 0 1 1.17,-1.36 h 21.68 a 1.35,1.35 0 0 1 1.17,1.36 v 4.66 a 1.17,1.17 0 0 1 -1.17,1.17 z"
           class="cls-6"
           inkscape:connector-curvature="0"
           style="fill:#b0afad" />
        <rect
           id="rect253"
           ry="1.17"
           rx="1.17"
           height="7.1900001"
           width="12.72"
           y="89.459999"
           x="160.69"
           class="cls-6"
           style="fill:#b0afad" />
        <rect
           id="rect255"
           ry="1.17"
           rx="1.17"
           height="7.1900001"
           width="9.9399996"
           y="89.459999"
           x="176.87"
           class="cls-6"
           style="fill:#b0afad" />
        <rect
           id="rect257"
           ry="1.17"
           rx="1.17"
           height="7.1900001"
           width="19.68"
           y="89.459999"
           x="211.36"
           class="cls-6"
           style="fill:#b0afad" />
        <rect
           id="rect259"
           ry="1.17"
           rx="1.17"
           height="7.1900001"
           width="7.5599999"
           y="89.459999"
           x="234.61"
           class="cls-6"
           style="fill:#b0afad" />
        <rect
           id="rect261"
           ry="1.17"
           rx="1.17"
           height="7.1900001"
           width="16.9"
           y="89.459999"
           x="190.31"
           class="cls-5"
           style="fill:#79aad3" />
        <rect
           id="rect263"
           ry="1.17"
           rx="1.17"
           height="7.1900001"
           width="9.9399996"
           y="111"
           x="223.33"
           class="cls-6"
           style="fill:#b0afad" />
        <rect
           id="rect265"
           ry="1.17"
           rx="1.17"
           height="7.1900001"
           width="15.12"
           y="111"
           x="160.69"
           class="cls-6"
           style="fill:#b0afad" />
        <rect
           id="rect267"
           ry="1.17"
           rx="1.17"
           height="7.1900001"
           width="39.68"
           y="111"
           x="179.58"
           class="cls-6"
           style="fill:#b0afad" />
        <rect
           id="rect269"
           ry="1.17"
           rx="1.17"
           height="7.1900001"
           width="8.9200001"
           y="132.53"
           x="160.69"
           class="cls-6"
           style="fill:#b0afad" />
        <rect
           id="rect271"
           ry="1.17"
           rx="1.17"
           height="7.1900001"
           width="13.94"
           y="132.53"
           x="187.92"
           class="cls-6"
           style="fill:#b0afad" />
        <rect
           id="rect273"
           ry="1.17"
           rx="1.17"
           height="7.1900001"
           width="24.190001"
           y="132.53"
           x="205.78999"
           class="cls-6"
           style="fill:#b0afad" />
        <rect
           id="rect275"
           ry="1.17"
           rx="1.17"
           height="7.1900001"
           width="14.02"
           y="132.53"
           x="233.55"
           class="cls-6"
           style="fill:#b0afad" />
        <rect
           id="rect277"
           ry="1.17"
           rx="1.17"
           height="7.1900001"
           width="10.99"
           y="132.53"
           x="173.41"
           class="cls-5"
           style="fill:#79aad3" />
        <rect
           id="rect279"
           ry="1.17"
           rx="1.17"
           height="7.1900001"
           width="23.709999"
           y="154.07001"
           x="160.69"
           class="cls-6"
           style="fill:#b0afad" />
        <rect
           id="rect281"
           ry="1.17"
           rx="1.17"
           height="7.1900001"
           width="5.0700002"
           y="154.07001"
           x="187.75999"
           class="cls-6"
           style="fill:#b0afad" />
        <rect
           id="rect283"
           ry="1.17"
           rx="1.17"
           height="7.1900001"
           width="29.790001"
           y="154.07001"
           x="195.92"
           class="cls-5"
           style="fill:#79aad3" />
      </g>
      <rect
         id="rect287"
         height="225"
         width="400"
         class="cls-7"
         x="0"
         y="0"
         style="fill:none" />
    </g>
  </g>
</svg>
