<?xml version="1.0" encoding="UTF-8" standalone="no"?>
<svg
   xmlns:dc="http://purl.org/dc/elements/1.1/"
   xmlns:cc="http://creativecommons.org/ns#"
   xmlns:rdf="http://www.w3.org/1999/02/22-rdf-syntax-ns#"
   xmlns:svg="http://www.w3.org/2000/svg"
   xmlns="http://www.w3.org/2000/svg"
   xmlns:sodipodi="http://sodipodi.sourceforge.net/DTD/sodipodi-0.dtd"
   xmlns:inkscape="http://www.inkscape.org/namespaces/inkscape"
   height="24px"
   width="24px"
   viewBox="0 0 100 100"
   enable-background="new 0 0 100 100"
   version="1.1"
   id="svg32"
   sodipodi:docname="icon.svg"
   inkscape:version="0.92.2 5c3e80d, 2017-08-06">
  <metadata
     id="metadata38">
    <rdf:RDF>
      <cc:Work
         rdf:about="">
        <dc:format>image/svg+xml</dc:format>
        <dc:type
           rdf:resource="http://purl.org/dc/dcmitype/StillImage" />
        <dc:title></dc:title>
      </cc:Work>
    </rdf:RDF>
  </metadata>
  <defs
     id="defs36">
    <style
       id="style1183">
      .cls-1 {
        isolation: isolate;
      }

      .cls-2 {
        fill: none;
      }

      .cls-3 {
        fill: #6bc9a7;
      }

      .cls-4 {
        opacity: 0.15;
        mix-blend-mode: multiply;
      }

      .cls-5 {
        fill: #fff;
      }

      .cls-6 {
        fill: #cde6fc;
      }

      .cls-7 {
        fill: #8db7e2;
      }

      .cls-8 {
        opacity: 0.2;
      }

      .cls-9 {
        fill: #231f20;
      }

      .cls-10 {
        fill: #ddd;
      }

      .cls-11 {
        fill: #239630;
      }
    </style>
    <style
       id="style1586">
      .cls-1 {
        fill: #ea964d;
      }

      .cls-2 {
        fill: #f0f1f5;
      }

      .cls-3 {
        fill: #b8b8bf;
      }

      .cls-4 {
        fill: #34495e;
      }

      .cls-5 {
        fill: #e94c3d;
      }

      .cls-6 {
        fill: #c1392b;
      }

      .cls-7 {
        fill: #3497da;
      }

      .cls-8 {
        fill: #2a80bb;
      }

      .cls-9 {
        fill: #2c3e50;
        opacity: 0.1;
      }

      .cls-10 {
        fill: #8e44ad;
      }

      .cls-11 {
        fill: none;
      }
    </style>
    <style
       id="style6156">
      .cls-1 {
        fill: #f06060;
      }

      .cls-2 {
        opacity: 0.15;
      }

      .cls-3 {
        fill: #231f20;
      }

      .cls-4 {
        fill: #fff;
      }

      .cls-5 {
        fill: #79aad3;
      }

      .cls-6 {
        fill: #b0afad;
      }

      .cls-7 {
        fill: none;
      }
    </style>
  </defs>
  <sodipodi:namedview
     pagecolor="#ffffff"
     bordercolor="#666666"
     borderopacity="1"
     objecttolerance="10"
     gridtolerance="10"
     guidetolerance="10"
     inkscape:pageopacity="0"
     inkscape:pageshadow="2"
     inkscape:window-width="1689"
     inkscape:window-height="1016"
     id="namedview34"
     showgrid="false"
     inkscape:zoom="25.283702"
     inkscape:cx="10.830748"
     inkscape:cy="12.450774"
     inkscape:window-x="75"
     inkscape:window-y="47"
     inkscape:window-maximized="0"
     inkscape:current-layer="svg32" />
  <g
     stroke-miterlimit="10"
     id="g22"
     style="display:none;stroke-miterlimit:10">
    <g
       id="g14"
       style="stroke-width:3;stroke-linecap:round;stroke-linejoin:round">
      <g
         id="g10"
         style="stroke:#999999"
         transform="translate(29.166667)">
        <g
           id="g6"
           style="fill:#ffffff">
          <path
             d="m 41.566667,28.1 h 18.4 l -23.3,-24.1 v 18.9 c 0,2.8 2.2,5.2 4.9,5.2 z"
             id="path2"
             inkscape:connector-curvature="0" />
          <path
             d="m 41.566667,28.1 c -2.7,0 -4.8,-2.3 -4.8,-5.2 V 4 H -8.5666667 c -2.7000003,0 -4.8000003,2.3 -4.8000003,5.2 v 83.2 c 0,2.9 2.1,5.2 4.8000003,5.2 H 55.066667 c 2.7,0 4.8,-2.3 4.8,-5.2 V 28.1 Z"
             id="path4"
             inkscape:connector-curvature="0"
             sodipodi:nodetypes="sscsssssscs" />
        </g>
      </g>
    </g>
  </g>
  <style
     id="style131"
     type="text/css">
	.st0{fill:#1D1D1D;}
	.st1{fill:#FFFFFF;}
</style>
  <style
     id="style900"
     type="text/css">
	.st0{fill:none;}
	.st1{fill:#88C87A;}
	.st2{opacity:0.15;}
	.st3{fill:#231F20;}
	.st4{fill:#FFFFFF;}
	.st5{fill:#F05F5F;}
</style>
  <style
     id="style214"
     type="text/css">
	.st0{fill:#DDDDDD;}
	.st1{fill:#C6C6C6;}
	.st2{fill:#8DB7E2;}
	.st3{fill:#2376C1;}
	.st4{fill:none;}
</style>
  <g
     id="g593"
     transform="matrix(0.53224704,0,0,0.53224704,-56.777629,-10.724329)">
    <rect
       class="cls-1"
       x="134.42999"
       y="26.709999"
       width="139.14"
       height="173.59"
       id="rect6162"
       style="fill:#f77e4f;fill-opacity:1" />
    <g
       id="g6170">
      <g
         class="cls-2"
         id="g6166"
         style="opacity:0.15">
        <rect
           class="cls-3"
           x="150.44"
           y="43.369999"
           width="112.96"
           height="146.09"
           id="rect6164"
           style="fill:#231f20" />
      </g>
      <rect
         class="cls-4"
         x="147.52"
         y="40.459999"
         width="112.96"
         height="146.09"
         id="rect6168"
         style="fill:#ffffff" />
    </g>
    <rect
       style="fill:none"
       y="0"
       x="0"
       id="rect6214"
       height="225"
       width="400"
       class="cls-7" />
    <g
       id="g6154"
       transform="matrix(0.58139534,0,0,0.58139534,85.999744,18.006278)">
      <g
         id="g5075"
         transform="matrix(0.98850573,0,0,1,-4.8863252,180.03612)">
        <g
           id="g5136"
           transform="translate(190.7168,237.58788)">
          <rect
             style="fill:#ffffff"
             id="rect20-2-8"
             height="125"
             width="173"
             class="st3"
             y="-367.724"
             x="-66.413193" />
          <rect
             style="fill:#96b9f5"
             id="rect22-0-6"
             height="129"
             width="174"
             class="st5"
             y="-368.724"
             x="-67.413193" />
          <polygon
             transform="translate(-184.41319,-418.224)"
             style="fill:#3c5f84"
             id="polygon24-0-7"
             points="291,131.1 291,177.8 117,177.9 117,166.3 156.6,126.1 180.8,149.5 241.7,92 "
             class="st6" />
          <g
             transform="matrix(0.90419677,0,0,0.90419677,-167.07281,-404.22715)"
             style="opacity:0.2"
             id="g28-5-4"
             class="st7">
            <path
               inkscape:connector-curvature="0"
               id="path26-8-6"
               d="m 177.8,146.1 c 0,0 -36.6,34.9 -35.8,34.8 0.2,0 6.5,0.2 6.5,0.2 L 181,149.2 Z" />
          </g>
          <path
             style="fill:#fefefe"
             inkscape:connector-curvature="0"
             id="path30-3-6"
             d="m -39.11319,-337.524 c 0,-4.9 2.9,-9.3 7.5,-11.2 -8.2,-1.8 -16.4,3.4 -18.2,11.6 -1.8,8.2 3.4,16.4 11.6,18.2 6.7,1.5 13.6,-1.7 16.8,-7.8 -6,3.1 -13.3,0.7 -16.3,-5.3 -1,-1.7 -1.4,-3.6 -1.4,-5.5 z"
             class="st8" />
          <circle
             style="fill:#fefefe"
             r="0.99999905"
             id="ellipse32-8-3"
             cy="-347.26996"
             cx="0.76862413"
             class="st8"
             transform="rotate(-2.2906123)" />
          <circle
             style="fill:#fefefe"
             id="circle34-9-7"
             r="1"
             cy="-345.52402"
             cx="-2.3131838"
             class="st8" />
          <circle
             style="fill:#fefefe"
             id="circle36-4-1"
             r="1"
             cy="-336.42401"
             cx="-6.8131838"
             class="st8" />
          <g
             id="g62-2-3"
             transform="translate(-184.41319,-418.224)"
             style="opacity:0.79000005">
            <rect
               x="118"
               y="50.5"
               class="st3"
               width="173"
               height="125"
               id="rect50-0-9"
               style="fill:#ffffff" />
            <rect
               x="117"
               y="49.5"
               class="st10"
               width="174"
               height="129"
               id="rect52-5-6"
               style="fill:#d3eeff" />
            <g
               class="st7"
               id="g56-9-0"
               style="opacity:0.2">
              <path
                 d="m 173.8,143 c 0,0 -36.5,35 -35.8,34.8 0.2,0 6.5,0.2 6.5,0.2 L 177,146.1 Z"
                 id="path54-1-6"
                 inkscape:connector-curvature="0" />
            </g>
            <ellipse
               transform="matrix(0.3672,-0.9302,0.9302,0.3672,98.6771,293.3748)"
               class="st11"
               cx="264.89999"
               cy="74.199997"
               rx="14.6"
               ry="14.7"
               id="ellipse58-8-0"
               style="fill:#fac361" />
            <polygon
               class="st12"
               points="241.7,92 291,131.1 291,177.8 117,177.9 117,166.3 156.6,126.1 181.2,149.3 "
               id="polygon60-7-6"
               style="fill:#51bc86" />
          </g>
        </g>
      </g>
      <g
         id="g4675"
         transform="matrix(0.88187691,0,0,0.88187691,78.996437,184.16887)">
        <path
           inkscape:connector-curvature="0"
           style="fill:#34495e;fill-opacity:1;fill-rule:nonzero;stroke:none"
           d="M 43.093954,-26.148418 H 238.13251 V -7.1085593 H 43.093954 Z"
           id="path4656" />
        <path
           inkscape:connector-curvature="0"
           style="fill:#2c3e50;fill-opacity:1;fill-rule:nonzero;stroke:none"
           d="M 51.093895,-19.10847 H 230.13256 v 4.959963 H 51.093895 Z"
           id="path4658" />
        <path
           inkscape:connector-curvature="0"
           style="fill:#ecf0f1;fill-opacity:1;fill-rule:nonzero;stroke:none"
           d="m 61.093821,-20.148463 h 7.039948 v 7.039948 h -7.039948 z"
           id="path4660" />
      </g>
    </g>
    <path
       class="cls-6"
       d="m 168.92318,146.20927 h -13.73 a 1.17,1.17 0 0 1 -1.17,-1.17 v -4.66 a 1.35,1.35 0 0 1 1.17,-1.36 h 13.73 a 1.35,1.35 0 0 1 1.17,1.36 v 4.66 a 1.17,1.17 0 0 1 -1.17,1.17 z"
       id="path6176"
       inkscape:connector-curvature="0"
       style="fill:#b0afad" />
    <rect
       class="cls-6"
       x="175.66135"
       y="160.55077"
       width="19.68"
       height="7.1900001"
       rx="1.17"
       ry="1.17"
       id="rect6184"
       style="fill:#b0afad" />
    <rect
       class="cls-6"
       x="166.07703"
       y="128.2543"
       width="9.9399996"
       height="7.1900001"
       rx="1.17"
       ry="1.17"
       id="rect6190"
       style="fill:#b0afad" />
    <rect
       class="cls-6"
       x="188.96678"
       y="149.63585"
       width="39.68"
       height="7.1900001"
       rx="1.17"
       ry="1.17"
       id="rect6194"
       style="fill:#b0afad" />
    <rect
       class="cls-6"
       x="154.02299"
       y="128.2543"
       width="8.9200001"
       height="7.1900001"
       rx="1.17"
       ry="1.17"
       id="rect6196"
       style="fill:#b0afad" />
    <rect
       class="cls-6"
       x="179.25299"
       y="128.2543"
       width="13.95"
       height="7.1900001"
       rx="1.17"
       ry="1.17"
       id="rect6198"
       style="fill:#b0afad" />
    <rect
       class="cls-6"
       x="196.51691"
       y="128.2543"
       width="24.200001"
       height="7.1900001"
       rx="1.17"
       ry="1.17"
       id="rect6200"
       style="fill:#b0afad" />
    <rect
       class="cls-6"
       x="223.65057"
       y="128.2543"
       width="14.02"
       height="7.1900001"
       rx="1.17"
       ry="1.17"
       id="rect6202"
       style="fill:#b0afad" />
    <rect
       class="cls-6"
       x="154.02299"
       y="149.78432"
       width="23.709999"
       height="7.1900001"
       rx="1.17"
       ry="1.17"
       id="rect6206"
       style="fill:#b0afad" />
    <rect
       class="cls-6"
       x="181.08299"
       y="149.78432"
       width="5.0700002"
       height="7.1900001"
       rx="1.17"
       ry="1.17"
       id="rect6208"
       style="fill:#b0afad" />
    <rect
       class="cls-6"
       x="172.89708"
       y="139.0193"
       width="39.68"
       height="7.1900001"
       rx="1.17"
       ry="1.17"
       id="rect6194-9"
       style="fill:#b0afad" />
    <rect
       class="cls-6"
       x="154.02299"
       y="160.55077"
       width="5.0700002"
       height="7.1900001"
       rx="1.17"
       ry="1.17"
       id="rect6208-5"
       style="fill:#b0afad" />
    <rect
       class="cls-6"
       x="162.10922"
       y="160.55077"
       width="9.9399996"
       height="7.1900001"
       rx="1.17"
       ry="1.17"
       id="rect6190-7"
       style="fill:#b0afad" />
    <rect
       class="cls-6"
       x="198.68739"
       y="160.55077"
       width="5.0700002"
       height="7.1900001"
       rx="1.17"
       ry="1.17"
       id="rect6208-1"
       style="fill:#b0afad" />
  </g>
</svg>
