<?xml version="1.0" encoding="UTF-8" standalone="no"?>
<svg
   xmlns:dc="http://purl.org/dc/elements/1.1/"
   xmlns:cc="http://creativecommons.org/ns#"
   xmlns:rdf="http://www.w3.org/1999/02/22-rdf-syntax-ns#"
   xmlns:svg="http://www.w3.org/2000/svg"
   xmlns="http://www.w3.org/2000/svg"
   xmlns:sodipodi="http://sodipodi.sourceforge.net/DTD/sodipodi-0.dtd"
   xmlns:inkscape="http://www.inkscape.org/namespaces/inkscape"
   height="24px"
   width="24px"
   viewBox="0 0 100 100"
   enable-background="new 0 0 100 100"
   version="1.1"
   id="svg8"
   sodipodi:docname="icon.svg"
   inkscape:version="0.92.2 5c3e80d, 2017-08-06">
  <metadata
     id="metadata14">
    <rdf:RDF>
      <cc:Work
         rdf:about="">
        <dc:format>image/svg+xml</dc:format>
        <dc:type
           rdf:resource="http://purl.org/dc/dcmitype/StillImage" />
        <dc:title></dc:title>
      </cc:Work>
    </rdf:RDF>
  </metadata>
  <defs
     id="defs12" />
  <sodipodi:namedview
     pagecolor="#ffffff"
     bordercolor="#666666"
     borderopacity="1"
     objecttolerance="10"
     gridtolerance="10"
     guidetolerance="10"
     inkscape:pageopacity="0"
     inkscape:pageshadow="2"
     inkscape:window-width="1247"
     inkscape:window-height="715"
     id="namedview10"
     showgrid="false"
     inkscape:zoom="20.916667"
     inkscape:cx="12"
     inkscape:cy="12"
     inkscape:window-x="0"
     inkscape:window-y="0"
     inkscape:window-maximized="0"
     inkscape:current-layer="g6" />
  <g
     fill="#fff"
     stroke-linejoin="round"
     stroke-linecap="round"
     stroke-miterlimit="10"
     id="g6">
    <path
       d="M 2.6,15.366667 V 45.6 c 0,5.8 4.4,10.6 9.8,10.6 h 3.5 l 0.966667,14.3 c 0.8,0.8 2,0.8 2.8,0 l 9.3,-14.3 H 61.6 c 5.4,0 9.8,-4.7 9.8,-10.6 V 15.366667 C 71.4,9.4666667 67,4.6666667 61.6,4.6666667 H 12.2 c -5.4,0 -9.8,4.8 -9.6,10.7000003 z"
       id="path2"
       inkscape:connector-curvature="0"
       style="stroke:#999999;stroke-width:3"
       sodipodi:nodetypes="cssccccsssssc" />
    <path
       d="M 22.466667,31.133334 H 52.533333 M 22.466667,23.866667 H 52.533333 M 22.466667,38.8 h 30.066666"
       id="path4"
       inkscape:connector-curvature="0"
       style="stroke:#8bc34a;stroke-width:5"
       sodipodi:nodetypes="cccccc" />
    <path
       sodipodi:nodetypes="cssccccsssssc"
       style="stroke:#999999;stroke-width:3"
       inkscape:connector-curvature="0"
       id="path3716"
       d="m 96.659135,41.263081 v 30.233333 c 0,5.8 -4.4,10.6 -9.8,10.6 h -3.5 l -9.3,14.3 c -0.8,0.8 -2,0.8 -2.8,0 l -9.3,-14.3 H 45.992469 c -5.4,0 -9.8,-4.7 -9.8,-10.6 V 41.263081 c 0,-5.9 4.4,-10.7 9.8,-10.7 h 41.066666 c 5.4,0 9.8,4.8 9.6,10.7 z" />
    <path
       sodipodi:nodetypes="cccccc"
       style="stroke:#8bc34a;stroke-width:5"
       inkscape:connector-curvature="0"
       id="path3718"
       d="M 76.792468,57.029748 H 55.059136 M 76.792468,49.763081 H 55.059136 M 76.792468,64.696414 H 55.059136" />
  </g>
</svg>
