<?xml version="1.0" encoding="utf-8"?>
<!-- Generator: Adobe Illustrator 15.0.0, SVG Export Plug-In . SVG Version: 6.00 Build 0)  -->
<!DOCTYPE svg PUBLIC "-//W3C//DTD SVG 1.1//EN" "http://www.w3.org/Graphics/SVG/1.1/DTD/svg11.dtd">
<svg version="1.1"
	 id="svg8" sodipodi:docname="icon.svg" inkscape:version="0.92.2 5c3e80d, 2017-08-06" xmlns:cc="http://creativecommons.org/ns#" xmlns:inkscape="http://www.inkscape.org/namespaces/inkscape" xmlns:sodipodi="http://sodipodi.sourceforge.net/DTD/sodipodi-0.dtd" xmlns:rdf="http://www.w3.org/1999/02/22-rdf-syntax-ns#" xmlns:svg="http://www.w3.org/2000/svg" xmlns:dc="http://purl.org/dc/elements/1.1/"
	 xmlns="http://www.w3.org/2000/svg" xmlns:xlink="http://www.w3.org/1999/xlink" x="0px" y="0px" width="24px" height="24px"
	 viewBox="0 0 24 24" enable-background="new 0 0 24 24" xml:space="preserve">
<sodipodi:namedview  objecttolerance="10" id="namedview10" borderopacity="1" inkscape:window-y="0" bordercolor="#666666" inkscape:window-x="0" inkscape:window-width="1247" inkscape:cx="12" showgrid="false" inkscape:cy="12" gridtolerance="10" inkscape:pageopacity="0" inkscape:zoom="20.916667" inkscape:pageshadow="2" inkscape:window-maximized="0" inkscape:window-height="715" pagecolor="#ffffff" guidetolerance="10" inkscape:current-layer="g6">
	</sodipodi:namedview>
<g id="g6">
	
		<path id="path2" inkscape:connector-curvature="0" sodipodi:nodetypes="cssccccsssssc" fill="#F5F5F5" stroke="#AAAAAA" stroke-linecap="round" stroke-linejoin="round" stroke-miterlimit="10" d="
		M0.624,3.688v7.256c0,1.392,1.056,2.544,2.352,2.544h0.84l0.232,3.432c0.192,0.191,0.48,0.191,0.672,0l2.737-3.432h7.327
		c1.296,0,2.353-1.128,2.353-2.544V3.688c0-1.416-1.057-2.568-2.353-2.568H2.928C1.632,1.12,0.576,2.272,0.624,3.688z"/>
	
		<path id="path4" inkscape:connector-curvature="0" sodipodi:nodetypes="cccccc" fill="#FFFFFF" stroke="#8BC34A" stroke-linecap="round" stroke-linejoin="round" stroke-miterlimit="10" d="
		M4.392,7.472h9.303 M4.392,5.728h9.303 M4.392,9.312h9.303"/>
	
		<path id="path3716" inkscape:connector-curvature="0" sodipodi:nodetypes="cssccccsssssc" fill="#FFFFFF" stroke="#BBBBBB" stroke-linecap="round" stroke-linejoin="round" stroke-miterlimit="10" d="
		M23.299,9.903v7.256c0,1.392-1.056,2.544-2.354,2.544H19.48l-2.605,3.432c-0.191,0.192-0.48,0.192-0.673,0l-0.231-3.432h-4.832
		c-1.296,0-2.352-1.128-2.352-2.544V9.903c0-1.416,1.056-2.568,2.352-2.568h9.856C22.291,7.335,23.348,8.487,23.299,9.903z"/>
	
		<path id="path3718" inkscape:connector-curvature="0" sodipodi:nodetypes="cccccc" fill="#FFFFFF" stroke="#8BC34A" stroke-linecap="round" stroke-linejoin="round" stroke-miterlimit="10" d="
		M19.973,13.688h-7.856 M19.973,11.943h-7.856 M19.973,15.527h-7.856"/>
</g>
</svg>
