<?xml version="1.0" encoding="utf-8"?>
<!-- Generator: Adobe Illustrator 15.0.0, SVG Export Plug-In . SVG Version: 6.00 Build 0)  -->
<!DOCTYPE svg PUBLIC "-//W3C//DTD SVG 1.1//EN" "http://www.w3.org/Graphics/SVG/1.1/DTD/svg11.dtd">
<svg version="1.1"
	 id="svg31" sodipodi:docname="icon.svg" xmlns:inkscape="http://www.inkscape.org/namespaces/inkscape" inkscape:version="0.92.2 5c3e80d, 2017-08-06" xmlns:sodipodi="http://sodipodi.sourceforge.net/DTD/sodipodi-0.dtd" xmlns:rdf="http://www.w3.org/1999/02/22-rdf-syntax-ns#" xmlns:svg="http://www.w3.org/2000/svg" xmlns:cc="http://creativecommons.org/ns#" xmlns:dc="http://purl.org/dc/elements/1.1/"
	 xmlns="http://www.w3.org/2000/svg" xmlns:xlink="http://www.w3.org/1999/xlink" x="0px" y="0px" width="24px" height="24px"
	 viewBox="0 0 24 24" enable-background="new 0 0 24 24" xml:space="preserve">
<g id="g6">
	
		<path id="path2" inkscape:connector-curvature="0" fill="#FFFFFF" stroke="#999999" stroke-linecap="round" stroke-linejoin="round" stroke-miterlimit="10" d="
		M16.984,6.437H21.4l-5.592-5.784v4.536C15.809,5.86,16.337,6.437,16.984,6.437z"/>
	
		<path id="path4" inkscape:connector-curvature="0" sodipodi:nodetypes="sscsssssscs" fill="#FFFFFF" stroke="#999999" stroke-linecap="round" stroke-linejoin="round" stroke-miterlimit="10" d="
		M16.984,6.437c-0.647,0-1.151-0.552-1.151-1.248V0.652H4.953c-0.648,0-1.152,0.552-1.152,1.248v19.593
		c0,0.695,0.504,1.247,1.152,1.247h15.272c0.648,0,1.152-0.552,1.152-1.247V6.437H16.984z"/>
</g>
<path fill="#BBBBBB" d="M18.709,9.771v9.617c0,0.725-0.587,1.312-1.312,1.312H7.78c-0.725,0-1.312-0.587-1.312-1.312V9.771
	c0-0.725,0.587-1.312,1.312-1.312h9.617C18.122,8.459,18.709,9.046,18.709,9.771z M16.305,10.208h-3.06
	c-0.582,0-0.876,0.706-0.464,1.119l0.874,0.874l-5.342,5.342c-0.128,0.128-0.128,0.336,0,0.464l0.848,0.848
	c0.128,0.128,0.335,0.128,0.464,0l5.342-5.342l0.874,0.874c0.41,0.41,1.119,0.122,1.119-0.464v-3.06
	C16.96,10.501,16.667,10.208,16.305,10.208z"/>
<g>
	<path fill="#999999" d="M6.508,2.25h0.909v3.567h2.172v0.782H6.508V2.25z"/>
	<path fill="#999999" d="M12.913,2.25v0.771h-1.3v3.579h-0.915V3.021H9.392V2.25H12.913z"/>
	<path fill="#999999" d="M14.272,6.599H13.37V2.25h0.902V6.599z"/>
</g>
<g>
	<path fill="#33CC33" d="M10.553,22.681c0,0.727-0.592,1.319-1.32,1.319H1.319C0.591,24,0,23.407,0,22.681v-7.915
		c0-0.728,0.591-1.317,1.319-1.317h7.914c0.728,0,1.32,0.59,1.32,1.317V22.681z"/>
	<path id="path22" inkscape:connector-curvature="0" display="none" fill="#FFFFFF" d="M1.759,20.257
		c0.14,0.14,0.386,0.246,0.665,0.246c0.702,0,1.228-0.525,1.228-1.191c0-0.7-0.562-1.296-1.228-1.296
		c-0.316,0-0.525,0.105-0.665,0.212v-1.123h1.052c0.525,0,0.7-0.245,0.7-0.452c0-0.213-0.21-0.458-0.315-0.6
		c0,0-0.211-0.244-0.211-0.524c0-0.491,0.384-0.875,0.875-0.875c0.491,0,0.876,0.384,0.876,0.875c0,0.28-0.21,0.492-0.21,0.524
		c-0.106,0.106-0.315,0.387-0.315,0.6c0,0.207,0.176,0.452,0.702,0.452h2.101v2.102c0,0.527,0.245,0.701,0.455,0.701
		c0.211,0,0.456-0.174,0.595-0.315c0,0,0.245-0.21,0.526-0.21c0.49,0,0.876,0.385,0.876,0.875S9.08,21.135,8.59,21.135
		c-0.281,0-0.526-0.212-0.526-0.212c-0.14-0.14-0.384-0.315-0.595-0.315c-0.21,0-0.455,0.176-0.455,0.702v1.05H5.612
		c0.14-0.138,0.245-0.384,0.245-0.665c0-0.703-0.525-1.227-1.188-1.227c-0.704,0-1.299,0.56-1.299,1.227
		c0,0.313,0.106,0.527,0.211,0.665H1.759V20.257z"/>
</g>
<path fill="#FFFFFF" d="M6.799,19.554h2.048c0.264,0,0.48,0.183,0.48,0.413c0,0.228-0.216,0.416-0.48,0.416H6.799V19.554z
	 M6.56,21.003v-4.558c0-0.115-0.107-0.208-0.239-0.208H5.841c-0.131,0-0.24,0.093-0.24,0.208v0.207H5.123
	c-1.158,0-2.124,0.71-2.344,1.656H1.293v0.83h1.486c0.22,0.946,1.187,1.656,2.344,1.656h0.478v0.208c0,0.114,0.109,0.208,0.24,0.208
	H6.32C6.452,21.211,6.56,21.117,6.56,21.003z M6.799,17.894h2.048c0.264,0,0.48-0.183,0.48-0.415c0-0.226-0.216-0.411-0.48-0.411
	H6.799V17.894z"/>
</svg>
