<?xml version="1.0" encoding="utf-8"?>
<!-- Generator: Adobe Illustrator 15.0.0, SVG Export Plug-In . SVG Version: 6.00 Build 0)  -->
<!DOCTYPE svg PUBLIC "-//W3C//DTD SVG 1.1//EN" "http://www.w3.org/Graphics/SVG/1.1/DTD/svg11.dtd">
<svg version="1.1"
	 id="svg31" sodipodi:docname="icon.svg" inkscape:version="0.92.2 5c3e80d, 2017-08-06" xmlns:cc="http://creativecommons.org/ns#" xmlns:inkscape="http://www.inkscape.org/namespaces/inkscape" xmlns:sodipodi="http://sodipodi.sourceforge.net/DTD/sodipodi-0.dtd" xmlns:rdf="http://www.w3.org/1999/02/22-rdf-syntax-ns#" xmlns:svg="http://www.w3.org/2000/svg" xmlns:dc="http://purl.org/dc/elements/1.1/"
	 xmlns="http://www.w3.org/2000/svg" xmlns:xlink="http://www.w3.org/1999/xlink" x="0px" y="0px" width="24px" height="24px"
	 viewBox="0 0 24 24" enable-background="new 0 0 24 24" xml:space="preserve">
<path id="path4_1_" inkscape:connector-curvature="0" sodipodi:nodetypes="sscsssssscs" fill="#FFFFFF" stroke="#BBBBBB" stroke-linecap="round" stroke-linejoin="round" stroke-miterlimit="10" d="
	M16.977,6.744c-0.646,0-1.149-0.552-1.149-1.248V0.96H4.944c-0.648,0-1.152,0.552-1.152,1.248v19.968
	c0,0.696,0.504,1.248,1.152,1.248h15.272c0.647,0,1.152-0.552,1.152-1.248V6.744H16.977z"/>
<path fill="#BBBBBB" d="M18.709,9.771v9.618c0,0.725-0.587,1.312-1.312,1.312H7.78c-0.725,0-1.312-0.587-1.312-1.312V9.771
	c0-0.725,0.587-1.312,1.312-1.312h9.617C18.122,8.459,18.709,9.046,18.709,9.771z M16.305,10.208h-3.06
	c-0.582,0-0.876,0.706-0.464,1.119l0.873,0.874l-5.341,5.342c-0.128,0.128-0.128,0.336,0,0.464l0.848,0.849
	c0.128,0.127,0.335,0.127,0.464,0l5.342-5.342l0.874,0.873c0.41,0.41,1.119,0.122,1.119-0.464v-3.06
	C16.96,10.501,16.667,10.208,16.305,10.208z"/>
<g>
	<path fill="#999999" d="M6.508,2.25h0.909v3.567h2.172v0.782H6.508V2.25z"/>
	<path fill="#999999" d="M12.913,2.25v0.771h-1.3V6.6h-0.915V3.021H9.392V2.25H12.913z"/>
	<path fill="#999999" d="M14.271,6.599H13.37V2.25h0.901V6.599z"/>
</g>
<g>
	<path fill="#33CC33" d="M10.553,22.682c0,0.727-0.592,1.318-1.32,1.318H1.319C0.591,24,0,23.407,0,22.682v-7.916
		c0-0.728,0.591-1.316,1.319-1.316h7.914c0.728,0,1.32,0.59,1.32,1.316V22.682z"/>
</g>
<path fill="#FFFFFF" d="M6.799,19.555h2.048c0.264,0,0.48,0.182,0.48,0.412c0,0.229-0.216,0.416-0.48,0.416H6.799V19.555z
	 M6.56,21.003v-4.558c0-0.115-0.107-0.209-0.239-0.209h-0.48c-0.131,0-0.24,0.094-0.24,0.209v0.207H5.123
	c-1.158,0-2.124,0.709-2.344,1.656H1.293v0.83h1.486c0.22,0.945,1.187,1.655,2.344,1.655h0.478v0.208
	c0,0.114,0.109,0.208,0.24,0.208H6.32C6.452,21.211,6.56,21.117,6.56,21.003z M6.799,17.895h2.048c0.264,0,0.48-0.184,0.48-0.416
	c0-0.226-0.216-0.41-0.48-0.41H6.799V17.895z"/>
<path id="path2_1_" inkscape:connector-curvature="0" fill="#FFFFFF" stroke="#BBBBBB" stroke-linecap="round" stroke-linejoin="round" stroke-miterlimit="10" d="
	M16.977,6.744h4.416L15.8,0.96v4.536C15.8,6.168,16.328,6.744,16.977,6.744z"/>
</svg>
