<?xml version="1.0" encoding="utf-8"?>
<!-- Generator: Adobe Illustrator 15.0.0, SVG Export Plug-In . SVG Version: 6.00 Build 0)  -->
<!DOCTYPE svg PUBLIC "-//W3C//DTD SVG 1.1//EN" "http://www.w3.org/Graphics/SVG/1.1/DTD/svg11.dtd">
<svg version="1.1" id="Layer_1" xmlns="http://www.w3.org/2000/svg" xmlns:xlink="http://www.w3.org/1999/xlink" x="0px" y="0px"
	 width="24px" height="24px" viewBox="0 0 24 24" enable-background="new 0 0 24 24" xml:space="preserve">
<path id="path4_20_" fill="none" stroke="#D3D3D3" stroke-width="0.5" stroke-miterlimit="10" d="M21.902,17.655
	c0,0-0.284-0.28-0.534-1.708s0.534-2.272,0.534-2.272"/>
<path id="path4_19_" fill="none" stroke="#D3D3D3" stroke-width="0.5" stroke-miterlimit="10" d="M21.902,13.655
	c0,0-0.284-0.28-0.534-1.708c-0.25-1.428,0.534-2.272,0.534-2.272"/>
<path id="path4_18_" fill="none" stroke="#D3D3D3" stroke-width="0.5" stroke-miterlimit="10" d="M21.902,9.655
	c0,0-0.284-0.28-0.534-1.708c-0.25-1.428,0.534-2.272,0.534-2.272"/>
<path id="path4_11_" fill="#FFFFFF" d="M21.438,15.947c-0.25-1.428,0.535-2.272,0.535-2.272l-9.887,2.255
	c-0.71,0.027-1.773,0.057-3.055-0.195c-1.743-0.344-5.471-1.523-6.172-1.748c-2.28,1.285-1.105,3.496-0.404,3.72
	c0.701,0.222,4.833,1.665,6.576,2.009c1.281,0.252,2.345,0.223,3.055,0.196l9.887-2.255C21.973,17.655,21.688,17.375,21.438,15.947z
	"/>
<path id="path4_12_" fill="none" stroke="#59B2B0" stroke-linecap="round" stroke-linejoin="round" stroke-miterlimit="10" d="
	M2.859,13.986c-2.28,1.285-1.105,3.496-0.404,3.719c0.701,0.222,8.317,2.211,8.317,2.211l11.2-2.261"/>
<path id="path4_14_" fill="#FFFFFF" d="M21.438,11.947c-0.25-1.428,0.535-2.272,0.535-2.272l-9.887,2.255
	c-0.71,0.027-1.773,0.057-3.055-0.195c-1.743-0.344-5.471-1.523-6.172-1.748c-2.28,1.285-1.105,3.496-0.404,3.72
	c0.701,0.222,4.833,1.665,6.576,2.009c1.281,0.252,2.345,0.223,3.055,0.196l9.887-2.255C21.973,13.655,21.688,13.375,21.438,11.947z
	"/>
<path id="path4_13_" fill="none" stroke="#2E9996" stroke-linecap="round" stroke-linejoin="round" stroke-miterlimit="10" d="
	M2.859,9.986c-2.28,1.285-1.105,3.496-0.404,3.719c0.701,0.222,8.317,2.211,8.317,2.211l11.2-2.261"/>
<path id="path4_16_" fill="#FFFFFF" d="M21.438,7.947c-0.25-1.428,0.535-2.272,0.535-2.272L12,7.665
	c-0.71,0.027-1.688,0.321-2.969,0.069C7.288,7.391,3.561,6.211,2.859,5.986c-2.28,1.285-1.105,3.496-0.404,3.72
	c0.701,0.222,4.833,1.665,6.576,2.009c1.281,0.252,2.345,0.223,3.055,0.196l9.887-2.255C21.973,9.655,21.688,9.375,21.438,7.947z"/>
<path id="path4_15_" fill="none" stroke="#008080" stroke-linecap="round" stroke-linejoin="round" stroke-miterlimit="10" d="
	M2.859,5.986c-2.28,1.285-1.105,3.496-0.404,3.719c0.701,0.222,8.317,2.211,8.317,2.211l11.2-2.261"/>
<path id="path4_17_" fill="#008080" stroke="#008080" stroke-linecap="round" stroke-linejoin="round" stroke-miterlimit="10" d="
	M22.579,5.161l-8.312-1.42L2.859,5.986l7.767,1.64L22.579,5.161z"/>
</svg>
