<?xml version="1.0" encoding="utf-8"?>
<!-- Generator: Adobe Illustrator 15.0.0, SVG Export Plug-In . SVG Version: 6.00 Build 0)  -->
<!DOCTYPE svg PUBLIC "-//W3C//DTD SVG 1.1//EN" "http://www.w3.org/Graphics/SVG/1.1/DTD/svg11.dtd">
<svg version="1.1" id="Layer_1" xmlns="http://www.w3.org/2000/svg" xmlns:xlink="http://www.w3.org/1999/xlink" x="0px" y="0px"
	 width="24px" height="24px" viewBox="0 0 24 24" enable-background="new 0 0 24 24" xml:space="preserve">
<path id="path4_1_" fill="#FFFFFF" d="M21.438,15.947c-0.25-1.428,0.535-2.272,0.535-2.272l-9.887,2.255
	c-0.71,0.027-1.773,0.057-3.055-0.195c-1.743-0.344-5.471-1.524-6.172-1.748c-2.28,1.285-1.105,3.496-0.404,3.719
	c0.701,0.222,4.833,1.665,6.576,2.009c1.281,0.252,2.345,0.222,3.055,0.196l9.887-2.255C21.973,17.655,21.688,17.375,21.438,15.947z
	"/>
<path id="path4_2_" fill="#FFFFFF" d="M21.438,11.947c-0.25-1.428,0.535-2.272,0.535-2.272l-9.887,2.255
	c-0.71,0.027-1.773,0.057-3.055-0.195c-1.743-0.344-5.471-1.524-6.172-1.748c-2.28,1.285-1.105,3.496-0.404,3.719
	c0.701,0.222,4.833,1.665,6.576,2.009c1.281,0.252,2.345,0.222,3.055,0.196l9.887-2.255C21.973,13.655,21.688,13.375,21.438,11.947z
	"/>
<path id="path4_3_" fill="#FFFFFF" d="M21.438,7.947c-0.25-1.428,0.535-2.272,0.535-2.272L12.086,7.93
	c-0.71,0.027-1.773,0.057-3.055-0.195C7.288,7.391,3.561,6.21,2.859,5.986c-2.28,1.285-1.105,3.496-0.404,3.719
	c0.701,0.222,4.833,1.665,6.576,2.009c1.281,0.252,2.345,0.222,3.055,0.196l9.887-2.255C21.973,9.655,21.688,9.375,21.438,7.947z"/>
<path id="path4_10_" fill="none" stroke="#D3D3D3" stroke-width="0.5" stroke-miterlimit="10" d="M21.903,17.655
	c0,0-0.285-0.28-0.535-1.708s0.535-2.272,0.535-2.272"/>
<path id="path4_9_" fill="none" stroke="#D3D3D3" stroke-width="0.5" stroke-miterlimit="10" d="M21.903,13.655
	c0,0-0.285-0.28-0.535-1.708s0.535-2.272,0.535-2.272"/>
<path id="path4_4_" fill="none" stroke="#D3D3D3" stroke-width="0.5" stroke-miterlimit="10" d="M21.903,9.655
	c0,0-0.285-0.28-0.535-1.708s0.535-2.272,0.535-2.272"/>
<path id="path4_8_" fill="none" stroke="#79D0F7" stroke-linecap="round" stroke-linejoin="round" stroke-miterlimit="10" d="
	M2.86,13.986c-2.281,1.285-1.106,3.496-0.405,3.719c0.701,0.222,4.833,1.665,6.576,2.009c1.281,0.252,2.345,0.222,3.055,0.196
	l9.887-2.255"/>
<path id="path4_7_" fill="none" stroke="#FF9500" stroke-linecap="round" stroke-linejoin="round" stroke-miterlimit="10" d="
	M2.86,10.008c-2.281,1.286-1.106,3.496-0.405,3.717c0.701,0.224,4.833,1.666,6.576,2.01c1.281,0.252,2.345,0.223,3.055,0.195
	l9.887-2.255"/>
<path id="path4_6_" fill="none" stroke="#0092DF" stroke-linecap="round" stroke-linejoin="round" stroke-miterlimit="10" d="
	M22.579,5.161l-8.312-1.42L2.86,6.055C0.58,7.341,1.754,9.551,2.456,9.773c0.701,0.222,4.833,1.666,6.576,2.009
	c1.281,0.252,2.345,0.222,3.055,0.196l9.886-2.255"/>
<path id="path4_5_" fill="#0092DF" stroke="#0092DF" stroke-linecap="round" stroke-linejoin="round" stroke-miterlimit="10" d="
	M22.579,5.161l-8.312-1.42L2.86,6.055c0,0,3.6,1.031,5.272,1.335c1.672,0.304,3.147,0.326,4.587,0
	C14.159,7.065,22.579,5.161,22.579,5.161z"/>
</svg>
