<?xml version="1.0" encoding="UTF-8" standalone="no"?>
<svg
   xmlns:dc="http://purl.org/dc/elements/1.1/"
   xmlns:cc="http://creativecommons.org/ns#"
   xmlns:rdf="http://www.w3.org/1999/02/22-rdf-syntax-ns#"
   xmlns:svg="http://www.w3.org/2000/svg"
   xmlns="http://www.w3.org/2000/svg"
   xmlns:sodipodi="http://sodipodi.sourceforge.net/DTD/sodipodi-0.dtd"
   xmlns:inkscape="http://www.inkscape.org/namespaces/inkscape"
   height="24px"
   width="24px"
   viewBox="0 0 100 100"
   enable-background="new 0 0 100 100"
   version="1.1"
   id="svg32"
   sodipodi:docname="icon.svg"
   inkscape:version="0.92.2 5c3e80d, 2017-08-06">
  <metadata
     id="metadata38">
    <rdf:RDF>
      <cc:Work
         rdf:about="">
        <dc:format>image/svg+xml</dc:format>
        <dc:type
           rdf:resource="http://purl.org/dc/dcmitype/StillImage" />
        <dc:title></dc:title>
      </cc:Work>
    </rdf:RDF>
  </metadata>
  <defs
     id="defs36">
    <style
       id="style1183">
      .cls-1 {
        isolation: isolate;
      }

      .cls-2 {
        fill: none;
      }

      .cls-3 {
        fill: #6bc9a7;
      }

      .cls-4 {
        opacity: 0.15;
        mix-blend-mode: multiply;
      }

      .cls-5 {
        fill: #fff;
      }

      .cls-6 {
        fill: #cde6fc;
      }

      .cls-7 {
        fill: #8db7e2;
      }

      .cls-8 {
        opacity: 0.2;
      }

      .cls-9 {
        fill: #231f20;
      }

      .cls-10 {
        fill: #ddd;
      }

      .cls-11 {
        fill: #239630;
      }
    </style>
    <style
       id="style1586">
      .cls-1 {
        fill: #ea964d;
      }

      .cls-2 {
        fill: #f0f1f5;
      }

      .cls-3 {
        fill: #b8b8bf;
      }

      .cls-4 {
        fill: #34495e;
      }

      .cls-5 {
        fill: #e94c3d;
      }

      .cls-6 {
        fill: #c1392b;
      }

      .cls-7 {
        fill: #3497da;
      }

      .cls-8 {
        fill: #2a80bb;
      }

      .cls-9 {
        fill: #2c3e50;
        opacity: 0.1;
      }

      .cls-10 {
        fill: #8e44ad;
      }

      .cls-11 {
        fill: none;
      }
    </style>
    <style
       id="style6156">
      .cls-1 {
        fill: #f06060;
      }

      .cls-2 {
        opacity: 0.15;
      }

      .cls-3 {
        fill: #231f20;
      }

      .cls-4 {
        fill: #fff;
      }

      .cls-5 {
        fill: #79aad3;
      }

      .cls-6 {
        fill: #b0afad;
      }

      .cls-7 {
        fill: none;
      }
    </style>
    <style
       id="style1377">
      .cls-1 {
        isolation: isolate;
      }

      .cls-2 {
        fill: #3d6084;
      }

      .cls-3 {
        opacity: 0.2;
        mix-blend-mode: multiply;
      }

      .cls-4 {
        fill: #fff;
      }

      .cls-5 {
        fill: none;
      }
    </style>
    <style
       id="style169">
      .cls-1 {
        fill: #bbd39f;
      }

      .cls-2 {
        fill: #31387a;
      }

      .cls-3 {
        fill: none;
      }
    </style>
    <style
       id="style397">
      .cls-1 {
        fill: #fff;
      }

      .cls-2 {
        fill: #34495e;
      }

      .cls-3 {
        opacity: 0.25;
      }

      .cls-4 {
        fill: #e58833;
      }

      .cls-5 {
        fill: #97baf6;
      }

      .cls-6 {
        fill: none;
      }
    </style>
    <style
       id="style211">
      .cls-1 {
        fill: #fff;
      }

      .cls-2 {
        fill: #34495e;
      }

      .cls-3 {
        opacity: 0.25;
      }

      .cls-4 {
        fill: #e64c3b;
      }

      .cls-5 {
        fill: #f1c40f;
      }

      .cls-6 {
        fill: #2ecc71;
      }

      .cls-7 {
        fill: #96b9f6;
      }

      .cls-8 {
        fill: none;
      }
    </style>
  </defs>
  <sodipodi:namedview
     pagecolor="#ffffff"
     bordercolor="#666666"
     borderopacity="1"
     objecttolerance="10"
     gridtolerance="10"
     guidetolerance="10"
     inkscape:pageopacity="0"
     inkscape:pageshadow="2"
     inkscape:window-width="1440"
     inkscape:window-height="856"
     id="namedview34"
     showgrid="false"
     inkscape:zoom="23.935451"
     inkscape:cx="9.0497964"
     inkscape:cy="12.250799"
     inkscape:window-x="75"
     inkscape:window-y="47"
     inkscape:window-maximized="0"
     inkscape:current-layer="svg32" />
  <g
     stroke-miterlimit="10"
     id="g22"
     style="display:none;stroke-miterlimit:10">
    <g
       id="g14"
       style="stroke-width:3;stroke-linecap:round;stroke-linejoin:round">
      <g
         id="g10"
         style="stroke:#999999"
         transform="translate(29.166667)">
        <g
           id="g6"
           style="fill:#ffffff">
          <path
             d="m 41.566667,28.1 h 18.4 l -23.3,-24.1 v 18.9 c 0,2.8 2.2,5.2 4.9,5.2 z"
             id="path2"
             inkscape:connector-curvature="0" />
          <path
             d="m 41.566667,28.1 c -2.7,0 -4.8,-2.3 -4.8,-5.2 V 4 H -8.5666667 c -2.7000003,0 -4.8000003,2.3 -4.8000003,5.2 v 83.2 c 0,2.9 2.1,5.2 4.8000003,5.2 H 55.066667 c 2.7,0 4.8,-2.3 4.8,-5.2 V 28.1 Z"
             id="path4"
             inkscape:connector-curvature="0"
             sodipodi:nodetypes="sscsssssscs" />
        </g>
      </g>
    </g>
  </g>
  <style
     id="style131"
     type="text/css">
	.st0{fill:#1D1D1D;}
	.st1{fill:#FFFFFF;}
</style>
  <style
     id="style900"
     type="text/css">
	.st0{fill:none;}
	.st1{fill:#88C87A;}
	.st2{opacity:0.15;}
	.st3{fill:#231F20;}
	.st4{fill:#FFFFFF;}
	.st5{fill:#F05F5F;}
</style>
  <style
     id="style214"
     type="text/css">
	.st0{fill:#DDDDDD;}
	.st1{fill:#C6C6C6;}
	.st2{fill:#8DB7E2;}
	.st3{fill:#2376C1;}
	.st4{fill:none;}
</style>
  <style
     id="style796"
     type="text/css">
	.st0{fill:#41CC8D;}
	.st1{fill:#FF2E63;}
	.st2{fill:none;}
</style>
  <g
     data-name="Layer 2"
     id="Layer_2"
     transform="matrix(0.38350089,0,0,0.38350089,-27.361724,6.8006964)"
     style="display:inline">
    <g
       data-name="Layer 42"
       id="Layer_42">
      <text
         id="text217" />
    </g>
    <g
       data-name="Find multiple hotspots"
       id="Find_multiple_hotspots">
      <g
         id="g258">
        <rect
           id="rect220"
           height="124"
           width="170"
           y="48.5"
           x="118"
           class="cls-1"
           style="fill:#ffffff" />
        <polygon
           id="polygon222"
           points="291,174.5 116,174.5 116,148.98 156.05,109.39 176.06,129.19 191.8,113.57 239.68,65.74 280.64,106.88 291,117.31 "
           class="cls-2"
           style="fill:#34495e" />
        <g
           id="g230">
          <g
             id="g226"
             class="cls-3"
             style="opacity:0.25">
            <path
               id="path224"
               d="m 239.22,80.5 a 20,20 0 1 0 -20,20 20,20 0 0 0 20,-20 z"
               inkscape:connector-curvature="0" />
          </g>
          <path
             id="path228"
             d="m 236.93,78.21 a 20,20 0 1 0 -20,20 20,20 0 0 0 20,-20 z"
             class="cls-4"
             inkscape:connector-curvature="0"
             style="fill:#e64c3b" />
        </g>
        <circle
           id="circle232"
           r="18.129999"
           cy="74.669998"
           cx="146.25"
           class="cls-5"
           style="fill:#f1c40f" />
        <g
           id="g240">
          <g
             id="g236"
             class="cls-3"
             style="opacity:0.25">
            <path
               id="path234"
               d="m 204.48,137.73 a 20,20 0 1 0 -20,20 20,20 0 0 0 20,-20 z"
               inkscape:connector-curvature="0" />
          </g>
          <path
             id="path238"
             d="m 202.19,135.44 a 20,20 0 1 0 -20,20 20,20 0 0 0 20,-20 z"
             class="cls-4"
             inkscape:connector-curvature="0"
             style="fill:#e64c3b" />
        </g>
        <g
           id="g248">
          <g
             id="g244"
             class="cls-3"
             style="opacity:0.25">
            <path
               id="path242"
               d="m 272.45,131.11 a 20,20 0 1 0 -20,20 20,20 0 0 0 20,-20 z"
               inkscape:connector-curvature="0" />
          </g>
          <path
             id="path246"
             d="m 270.16,128.82 a 20,20 0 1 0 -20,20 20,20 0 0 0 20,-20 z"
             class="cls-6"
             inkscape:connector-curvature="0"
             style="fill:#2ecc71" />
        </g>
        <path
           id="path250"
           d="m 260.16,125.46 -9.71,9.71 -1.83,1.83 a 1.3,1.3 0 0 1 -1.82,0 l -1.8,-1.83 -4.86,-4.86 a 1.3,1.3 0 0 1 0,-1.82 l 1.82,-1.82 a 1.3,1.3 0 0 1 1.82,0 l 3.94,4 8.8,-8.82 a 1.3,1.3 0 0 1 1.82,0 l 1.82,1.82 a 1.3,1.3 0 0 1 0,1.82 z"
           class="cls-1"
           inkscape:connector-curvature="0"
           style="fill:#ffffff" />
        <path
           id="path252"
           d="m 288,48.5 v 124 H 118 v -124 h 170 m 14,-12 H 105 v 149 h 197 z"
           class="cls-7"
           inkscape:connector-curvature="0"
           style="fill:#96b9f6" />
        <path
           id="path254"
           d="m 225.5,84.85 -1.89,1.89 a 1.34,1.34 0 0 1 -1.89,0 l -4.09,-4.09 -4.09,4.09 a 1.34,1.34 0 0 1 -1.89,0 l -1.89,-1.89 a 1.34,1.34 0 0 1 0,-1.89 l 4.09,-4.09 -4.09,-4.09 a 1.34,1.34 0 0 1 0,-1.89 L 211.63,71 a 1.34,1.34 0 0 1 1.89,0 l 4.09,4.09 4.1,-4.09 a 1.34,1.34 0 0 1 1.89,0 l 1.89,1.89 a 1.34,1.34 0 0 1 0,1.89 l -4.09,4.09 4.1,4.13 a 1.34,1.34 0 0 1 0,1.89 z"
           class="cls-1"
           inkscape:connector-curvature="0"
           style="fill:#ffffff" />
        <path
           id="path256"
           d="m 190.12,141.77 -1.89,1.89 a 1.34,1.34 0 0 1 -1.89,0 l -4.09,-4.09 -4.09,4.09 a 1.34,1.34 0 0 1 -1.89,0 l -1.89,-1.89 a 1.34,1.34 0 0 1 0,-1.89 l 4.09,-4.09 -4.09,-4.09 a 1.34,1.34 0 0 1 0,-1.89 l 1.89,-1.89 a 1.34,1.34 0 0 1 1.89,0 l 4.09,4.09 4.09,-4.09 a 1.34,1.34 0 0 1 1.89,0 l 1.89,1.89 a 1.34,1.34 0 0 1 0,1.89 l -4.12,4.08 4.09,4.09 a 1.34,1.34 0 0 1 0,1.89 z"
           class="cls-1"
           inkscape:connector-curvature="0"
           style="fill:#ffffff" />
      </g>
      <rect
         id="rect260"
         height="225"
         width="400"
         class="cls-8"
         x="0"
         y="0"
         style="fill:none" />
    </g>
  </g>
</svg>
