<?xml version="1.0" encoding="UTF-8" standalone="no"?>
<svg
   xmlns:dc="http://purl.org/dc/elements/1.1/"
   xmlns:cc="http://creativecommons.org/ns#"
   xmlns:rdf="http://www.w3.org/1999/02/22-rdf-syntax-ns#"
   xmlns:svg="http://www.w3.org/2000/svg"
   xmlns="http://www.w3.org/2000/svg"
   xmlns:xlink="http://www.w3.org/1999/xlink"
   xmlns:sodipodi="http://sodipodi.sourceforge.net/DTD/sodipodi-0.dtd"
   xmlns:inkscape="http://www.inkscape.org/namespaces/inkscape"
   height="24px"
   width="24px"
   viewBox="0 0 100 100"
   enable-background="new 0 0 100 100"
   version="1.1"
   id="svg32"
   sodipodi:docname="icon.svg"
   inkscape:version="0.92.2 5c3e80d, 2017-08-06">
  <metadata
     id="metadata38">
    <rdf:RDF>
      <cc:Work
         rdf:about="">
        <dc:format>image/svg+xml</dc:format>
        <dc:type
           rdf:resource="http://purl.org/dc/dcmitype/StillImage" />
        <dc:title></dc:title>
      </cc:Work>
    </rdf:RDF>
  </metadata>
  <defs
     id="defs36">
    <style
       id="style1183">
      .cls-1 {
        isolation: isolate;
      }

      .cls-2 {
        fill: none;
      }

      .cls-3 {
        fill: #6bc9a7;
      }

      .cls-4 {
        opacity: 0.15;
        mix-blend-mode: multiply;
      }

      .cls-5 {
        fill: #fff;
      }

      .cls-6 {
        fill: #cde6fc;
      }

      .cls-7 {
        fill: #8db7e2;
      }

      .cls-8 {
        opacity: 0.2;
      }

      .cls-9 {
        fill: #231f20;
      }

      .cls-10 {
        fill: #ddd;
      }

      .cls-11 {
        fill: #239630;
      }
    </style>
    <style
       id="style1586">
      .cls-1 {
        fill: #ea964d;
      }

      .cls-2 {
        fill: #f0f1f5;
      }

      .cls-3 {
        fill: #b8b8bf;
      }

      .cls-4 {
        fill: #34495e;
      }

      .cls-5 {
        fill: #e94c3d;
      }

      .cls-6 {
        fill: #c1392b;
      }

      .cls-7 {
        fill: #3497da;
      }

      .cls-8 {
        fill: #2a80bb;
      }

      .cls-9 {
        fill: #2c3e50;
        opacity: 0.1;
      }

      .cls-10 {
        fill: #8e44ad;
      }

      .cls-11 {
        fill: none;
      }
    </style>
    <style
       id="style6156">
      .cls-1 {
        fill: #f06060;
      }

      .cls-2 {
        opacity: 0.15;
      }

      .cls-3 {
        fill: #231f20;
      }

      .cls-4 {
        fill: #fff;
      }

      .cls-5 {
        fill: #79aad3;
      }

      .cls-6 {
        fill: #b0afad;
      }

      .cls-7 {
        fill: none;
      }
    </style>
    <style
       id="style1377">
      .cls-1 {
        isolation: isolate;
      }

      .cls-2 {
        fill: #3d6084;
      }

      .cls-3 {
        opacity: 0.2;
        mix-blend-mode: multiply;
      }

      .cls-4 {
        fill: #fff;
      }

      .cls-5 {
        fill: none;
      }
    </style>
    <style
       id="style169">
      .cls-1 {
        fill: #bbd39f;
      }

      .cls-2 {
        fill: #31387a;
      }

      .cls-3 {
        fill: none;
      }
    </style>
    <style
       id="style397">
      .cls-1 {
        fill: #fff;
      }

      .cls-2 {
        fill: #34495e;
      }

      .cls-3 {
        opacity: 0.25;
      }

      .cls-4 {
        fill: #e58833;
      }

      .cls-5 {
        fill: #97baf6;
      }

      .cls-6 {
        fill: none;
      }
    </style>
    <rect
       height="128"
       width="87"
       y="49.5"
       x="117"
       id="SVGID_1_" />
    <rect
       height="128"
       width="85"
       y="49.5"
       x="204"
       id="SVGID_3_" />
  </defs>
  <sodipodi:namedview
     pagecolor="#ffffff"
     bordercolor="#666666"
     borderopacity="1"
     objecttolerance="10"
     gridtolerance="10"
     guidetolerance="10"
     inkscape:pageopacity="0"
     inkscape:pageshadow="2"
     inkscape:window-width="1440"
     inkscape:window-height="856"
     id="namedview34"
     showgrid="false"
     inkscape:zoom="20.302238"
     inkscape:cx="10.462845"
     inkscape:cy="11.985431"
     inkscape:window-x="75"
     inkscape:window-y="47"
     inkscape:window-maximized="0"
     inkscape:current-layer="svg32" />
  <g
     stroke-miterlimit="10"
     id="g22"
     style="display:none;stroke-miterlimit:10">
    <g
       id="g14"
       style="stroke-width:3;stroke-linecap:round;stroke-linejoin:round">
      <g
         id="g10"
         style="stroke:#999999"
         transform="translate(29.166667)">
        <g
           id="g6"
           style="fill:#ffffff">
          <path
             d="m 41.566667,28.1 h 18.4 l -23.3,-24.1 v 18.9 c 0,2.8 2.2,5.2 4.9,5.2 z"
             id="path2"
             inkscape:connector-curvature="0" />
          <path
             d="m 41.566667,28.1 c -2.7,0 -4.8,-2.3 -4.8,-5.2 V 4 H -8.5666667 c -2.7000003,0 -4.8000003,2.3 -4.8000003,5.2 v 83.2 c 0,2.9 2.1,5.2 4.8000003,5.2 H 55.066667 c 2.7,0 4.8,-2.3 4.8,-5.2 V 28.1 Z"
             id="path4"
             inkscape:connector-curvature="0"
             sodipodi:nodetypes="sscsssssscs" />
        </g>
      </g>
    </g>
  </g>
  <style
     id="style131"
     type="text/css">
	.st0{fill:#1D1D1D;}
	.st1{fill:#FFFFFF;}
</style>
  <style
     id="style900"
     type="text/css">
	.st0{fill:none;}
	.st1{fill:#88C87A;}
	.st2{opacity:0.15;}
	.st3{fill:#231F20;}
	.st4{fill:#FFFFFF;}
	.st5{fill:#F05F5F;}
</style>
  <style
     id="style214"
     type="text/css">
	.st0{fill:#DDDDDD;}
	.st1{fill:#C6C6C6;}
	.st2{fill:#8DB7E2;}
	.st3{fill:#2376C1;}
	.st4{fill:none;}
</style>
  <style
     id="style796"
     type="text/css">
	.st0{fill:#41CC8D;}
	.st1{fill:#FF2E63;}
	.st2{fill:none;}
</style>
  <style
     id="style233"
     type="text/css">
	.st0{fill:none;}
	.st1{fill:#F0F1F6;}
	.st2{fill:#E2E3E8;}
	.st3{fill:#FFFFFF;}
	.st4{clip-path:url(#SVGID_2_);}
	.st5{fill:#96B9F5;}
	.st6{fill:#3C5F84;}
	.st7{opacity:0.2;}
	.st8{fill:#FEFEFE;}
	.st9{clip-path:url(#SVGID_4_);}
	.st10{fill:#D3EEFF;}
	.st11{fill:#FAC361;}
	.st12{fill:#51BC86;}
	.st13{opacity:0.25;}
	.st14{fill:#FE2E63;}
</style>
  <g
     id="Layer_2"
     transform="matrix(0.3899406,0,0,0.3899406,-28.350076,5.9411238)">
    <g
       id="before-after">
      <rect
         id="rect235"
         height="225"
         width="400"
         class="st0"
         x="0"
         y="0"
         style="fill:none" />
      <g
         id="g241">
        <rect
           id="rect237"
           height="150.2"
           width="195.60001"
           class="st1"
           y="37.900002"
           x="105.2"
           style="fill:#f0f1f6" />
        <path
           id="path239"
           d="M 301.4,188.7 H 104.5 V 37.2 H 301.4 Z M 105.8,187.4 H 300.1 V 38.5 H 105.8 Z"
           class="st2"
           inkscape:connector-curvature="0"
           style="fill:#e2e3e8" />
      </g>
      <rect
         id="rect243"
         height="135.60001"
         width="181.10001"
         class="st3"
         y="45.5"
         x="112.6"
         style="fill:#ffffff" />
      <g
         id="g273">
        <defs
           id="defs246">
          <rect
             height="128"
             width="87"
             y="49.5"
             x="117"
             id="rect332" />
        </defs>
        <clipPath
           id="SVGID_2_">
          <use
             id="use248"
             style="overflow:visible"
             xlink:href="#SVGID_1_"
             x="0"
             y="0"
             width="100%"
             height="100%" />
        </clipPath>
        <g
           id="g271"
           clip-path="url(#SVGID_2_)"
           class="st4">
          <g
             id="g269">
            <rect
               id="rect251"
               height="125"
               width="173"
               class="st3"
               y="50.5"
               x="118"
               style="fill:#ffffff" />
            <rect
               id="rect253"
               height="129"
               width="174"
               class="st5"
               y="49.5"
               x="117"
               style="fill:#96b9f5" />
            <polygon
               id="polygon255"
               points="180.8,149.5 241.7,92 291,131.1 291,177.8 117,177.9 117,166.3 156.6,126.1 "
               class="st6"
               style="fill:#3c5f84" />
            <g
               id="g259"
               class="st7"
               style="opacity:0.2">
              <path
                 id="path257"
                 d="m 177.8,146.1 c 0,0 -36.6,34.9 -35.8,34.8 0.2,0 6.5,0.2 6.5,0.2 L 181,149.2 Z"
                 inkscape:connector-curvature="0" />
            </g>
            <path
               id="path261"
               d="m 145.3,80.7 c 0,-4.9 2.9,-9.3 7.5,-11.2 -8.2,-1.8 -16.4,3.4 -18.2,11.6 -1.8,8.2 3.4,16.4 11.6,18.2 6.7,1.5 13.6,-1.7 16.8,-7.8 -6,3.1 -13.3,0.7 -16.3,-5.3 -1,-1.7 -1.4,-3.6 -1.4,-5.5 z"
               class="st8"
               inkscape:connector-curvature="0"
               style="fill:#fefefe" />
            <circle
               id="ellipse263"
               cy="71.199997"
               cx="171.3"
               class="st8"
               transform="matrix(0.9992,-0.03996804,0.03996804,0.9992,-2.7072,6.9043)"
               r="1"
               style="fill:#fefefe" />
            <circle
               id="circle265"
               r="1"
               cy="72.699997"
               cx="182.10001"
               class="st8"
               style="fill:#fefefe" />
            <circle
               id="circle267"
               r="1"
               cy="81.800003"
               cx="177.60001"
               class="st8"
               style="fill:#fefefe" />
          </g>
        </g>
      </g>
      <g
         id="g297">
        <defs
           id="defs276">
          <rect
             height="128"
             width="85"
             y="49.5"
             x="204"
             id="rect349" />
        </defs>
        <clipPath
           id="SVGID_4_">
          <use
             id="use278"
             style="overflow:visible"
             xlink:href="#SVGID_3_"
             x="0"
             y="0"
             width="100%"
             height="100%" />
        </clipPath>
        <g
           id="g295"
           clip-path="url(#SVGID_4_)"
           class="st9">
          <g
             id="g293">
            <rect
               id="rect281"
               height="125"
               width="173"
               class="st3"
               y="50.5"
               x="118"
               style="fill:#ffffff" />
            <rect
               id="rect283"
               height="129"
               width="174"
               class="st10"
               y="49.5"
               x="117"
               style="fill:#d3eeff" />
            <g
               id="g287"
               class="st7"
               style="opacity:0.2">
              <path
                 id="path285"
                 d="m 173.8,143 c 0,0 -36.5,35 -35.8,34.8 0.2,0 6.5,0.2 6.5,0.2 L 177,146.1 Z"
                 inkscape:connector-curvature="0" />
            </g>
            <ellipse
               id="ellipse289"
               ry="14.7"
               rx="14.6"
               cy="74.199997"
               cx="264.89999"
               class="st11"
               transform="matrix(0.3672,-0.9302,0.9302,0.3672,98.6771,293.3748)"
               style="fill:#fac361" />
            <polygon
               id="polygon291"
               points="181.2,149.3 241.7,92 291,131.1 291,177.8 117,177.9 117,166.3 156.6,126.1 "
               class="st12"
               style="fill:#51bc86" />
          </g>
        </g>
      </g>
      <g
         id="g301"
         class="st13"
         style="opacity:0.25">
        <rect
           id="rect299"
           height="128"
           width="6"
           y="49.5"
           x="206" />
      </g>
      <g
         id="g305"
         class="st13"
         style="opacity:0.25">
        <path
           id="path303"
           d="m 191.9,103.6 h 30.6 c 7.7,0 13.9,6.2 13.9,13.9 v 0 c 0,7.7 -6.2,13.9 -13.9,13.9 h -30.6 c -7.7,0 -13.9,-6.2 -13.9,-13.9 v 0 c 0,-7.7 6.2,-13.9 13.9,-13.9 z"
           inkscape:connector-curvature="0" />
      </g>
      <rect
         id="rect307"
         height="128"
         width="5"
         class="st14"
         y="49.5"
         x="201"
         style="fill:#fe2e63" />
      <path
         id="path309"
         d="m 188,99.6 h 30.6 c 7.7,0 13.9,6.2 13.9,13.9 v 0 c 0,7.7 -6.2,13.9 -13.9,13.9 H 188 c -7.7,0 -13.9,-6.2 -13.9,-13.9 v 0 c 0,-7.6 6.2,-13.9 13.9,-13.9 z"
         class="st14"
         inkscape:connector-curvature="0"
         style="fill:#fe2e63" />
      <path
         id="path311"
         d="m 195.1,114.2 c 0.1,0.5 -0.3,1 -0.9,1.1 0,0 -0.1,0 -0.1,0 H 188 l 2.5,2.5 c 0.4,0.4 0.4,1.1 0,1.5 0,0 0,0 0,0 l -0.6,0.7 c -0.2,0.2 -0.5,0.3 -0.8,0.3 -0.3,0 -0.6,-0.1 -0.8,-0.3 l -5.6,-5.6 c -0.2,-0.2 -0.3,-0.5 -0.3,-0.8 0,-0.3 0.1,-0.6 0.3,-0.8 l 5.6,-5.6 c 0.2,-0.2 0.5,-0.3 0.8,-0.3 0.3,0 0.6,0.1 0.8,0.3 l 0.6,0.6 c 0.4,0.4 0.4,1.1 0,1.6 0,0 0,0 0,0 L 188,112 h 6.1 c 0.6,0 1,0.4 1,1 0,0 0,0.1 0,0.1 z"
         class="st3"
         inkscape:connector-curvature="0"
         style="fill:#ffffff" />
      <path
         id="path313"
         d="m 212.4,113.6 c -0.1,-0.5 0.3,-1 0.9,-1.1 0,0 0.1,0 0.1,0 h 6.1 L 217,110 c -0.4,-0.4 -0.4,-1.1 0,-1.5 0,0 0,0 0,0 l 0.6,-0.7 c 0.2,-0.2 0.5,-0.3 0.8,-0.3 0.3,0 0.6,0.1 0.8,0.3 l 5.6,5.6 c 0.2,0.2 0.3,0.5 0.3,0.8 0,0.3 -0.1,0.6 -0.3,0.8 l -5.6,5.6 c -0.2,0.2 -0.5,0.3 -0.8,0.3 -0.3,0 -0.6,-0.1 -0.8,-0.3 L 217,120 c -0.4,-0.4 -0.4,-1.1 0,-1.6 0,0 0,0 0,0 l 2.5,-2.5 h -6.1 c -0.6,0 -1,-0.4 -1,-1 0,0 0,-0.1 0,-0.1 z"
         class="st3"
         inkscape:connector-curvature="0"
         style="fill:#ffffff" />
    </g>
  </g>
</svg>
