<?xml version="1.0" encoding="utf-8"?>
<!-- Generator: Adobe Illustrator 15.0.0, SVG Export Plug-In . SVG Version: 6.00 Build 0)  -->
<!DOCTYPE svg PUBLIC "-//W3C//DTD SVG 1.1//EN" "http://www.w3.org/Graphics/SVG/1.1/DTD/svg11.dtd">
<svg version="1.1" id="Layer_1" xmlns="http://www.w3.org/2000/svg" xmlns:xlink="http://www.w3.org/1999/xlink" x="0px" y="0px"
	 width="24px" height="24px" viewBox="0 0 24 24" enable-background="new 0 0 24 24" xml:space="preserve">
<g>
	
		<path fill="none" stroke="#999999" stroke-width="0.75" stroke-linecap="round" stroke-linejoin="round" stroke-miterlimit="10" d="
		M22.792,18.128c0,0.647-0.528,1.177-1.176,1.177H2.36c-0.648,0-1.176-0.529-1.176-1.177V5.136c0-0.648,0.528-1.176,1.176-1.176
		h19.281c0.647,0,1.176,0.528,1.176,1.176v12.992H22.792z"/>
	
		<path fill="none" stroke="#666666" stroke-width="0.25" stroke-linecap="round" stroke-linejoin="round" stroke-miterlimit="10" d="
		M13.271,16.75h7.438 M13.732,15.946c0,0,0.736-1.18,1.32-0.673c0.773,0.672-0.426,2.271,0.083,2.33
		c0.381,0.044,1.502-2.92,1.502-2.92v2.419l1.794-1.829l-1.043,2.33l1.919-1.657h0.895 M15.544,5.473h5.088 M15.544,6.826h5.088
		 M5.912,5.473H11 M5.912,6.826H11 M6.155,13.062h12.323"/>
	<path fill="none" stroke="#666666" stroke-width="0.5" stroke-linecap="round" stroke-linejoin="round" stroke-miterlimit="10" d="
		M5.912,5.473H11 M6.562,11.744h11.285 M5.625,9.84h13.384"/>
	
		<linearGradient id="SVGID_1_" gradientUnits="userSpaceOnUse" x1="2.1323" y1="15.9023" x2="7.725" y2="16.4139" gradientTransform="matrix(0.9064 0.4224 -0.4224 0.9064 7.2654 -0.5049)">
		<stop  offset="0.0061" style="stop-color:#462523"/>
		<stop  offset="0.1779" style="stop-color:#CB9B51"/>
		<stop  offset="0.3313" style="stop-color:#F6E27A"/>
		<stop  offset="0.4785" style="stop-color:#F6F2C0"/>
		<stop  offset="0.6135" style="stop-color:#F6E27A"/>
		<stop  offset="0.7853" style="stop-color:#CB9B51"/>
		<stop  offset="1" style="stop-color:#462523"/>
	</linearGradient>
	<path fill="url(#SVGID_1_)" stroke="#666666" stroke-width="0.25" stroke-miterlimit="10" d="M5.764,16.977l0.325-0.219
		l-0.026-0.383l0.156-0.335L6,15.715l-0.034-0.404l-0.351-0.163l-0.211-0.303l-0.397,0.019l-0.366-0.17l-0.31,0.226l-0.383,0.026
		l-0.163,0.35l-0.331,0.234l0.041,0.39l-0.171,0.328l0.233,0.333l0.019,0.397l0.351,0.163l0.211,0.302l0.398-0.018l0.366,0.17
		l0.309-0.228l0.383-0.024L5.764,16.977z"/>
</g>
<g id="g4216">
	<path id="path3856" inkscape:connector-curvature="0" fill="#231F20" d="M5.073,5.146h-2.57v0.023c0,0.008,0.003,0.957,0,1.22
		C2.507,6.765,2.59,7.096,2.765,7.434c0.18,0.297,0.481,0.709,1.016,0.863l0.006,0.001l0.006-0.001
		C4.05,8.224,4.437,8.053,4.811,7.433c0.174-0.338,0.258-0.669,0.262-1.044c-0.003-0.266,0-1.211,0-1.219V5.146z"/>
	<path id="path3858" inkscape:connector-curvature="0" fill="#003D2C" d="M3.789,6.68L2.817,7.432l-0.001,0l0.001,0.001
		c0.278,0.453,0.577,0.705,0.97,0.82l0,0h0c0.512-0.15,0.8-0.54,0.972-0.82l0-0.001L3.789,6.68L3.789,6.68z"/>
	<path id="path3860" inkscape:connector-curvature="0" fill="#003D2C" d="M4.972,6.875l0.001-0.002
		c0.035-0.156,0.053-0.313,0.056-0.483c-0.003-0.258,0-1.158,0-1.197v0H2.547v0c0,0.158,0.003,0.957,0,1.198
		c0.001,0.17,0.021,0.328,0.056,0.483l0.001,0.002l1.185-0.902l1.182,0.9L4.972,6.875z"/>
	<path id="path3862" inkscape:connector-curvature="0" fill="#FFC937" d="M4.961,6.922L4.961,6.922L3.789,6.029L2.616,6.921l0,0
		v0.001c0,0.001,0,0.004,0,0.005c0.018,0.071,0.041,0.143,0.068,0.214c0.04,0.104,0.083,0.2,0.112,0.249l0,0.001l0.992-0.769
		L4.78,7.391l0,0.001l0.001-0.001c0.005-0.008,0.01-0.017,0.015-0.027C4.869,7.215,4.923,7.071,4.961,6.922"/>
	<circle fill="#FFC937" cx="3.023" cy="5.584" r="0.277"/>
	<circle fill="#FFC937" cx="3.788" cy="5.584" r="0.277"/>
	<ellipse fill="#FFC937" cx="3.788" cy="7.505" rx="0.277" ry="0.437"/>
	<circle fill="#FFC937" cx="4.552" cy="5.584" r="0.278"/>
</g>
</svg>
