<?xml version="1.0" encoding="utf-8"?>
<!-- Generator: Adobe Illustrator 15.0.0, SVG Export Plug-In . SVG Version: 6.00 Build 0)  -->
<!DOCTYPE svg PUBLIC "-//W3C//DTD SVG 1.1//EN" "http://www.w3.org/Graphics/SVG/1.1/DTD/svg11.dtd">
<svg version="1.1" id="Layer_1" xmlns="http://www.w3.org/2000/svg" xmlns:xlink="http://www.w3.org/1999/xlink" x="0px" y="0px"
	 width="24px" height="24px" viewBox="0 0 24 24" enable-background="new 0 0 24 24" xml:space="preserve">
<g>
	
		<path fill="none" stroke="#999999" stroke-width="0.75" stroke-linecap="round" stroke-linejoin="round" stroke-miterlimit="10" d="
		M22.792,18.128c0,0.647-0.528,1.177-1.176,1.177H2.36c-0.648,0-1.176-0.529-1.176-1.177V5.136c0-0.648,0.528-1.176,1.176-1.176
		h19.281c0.647,0,1.176,0.528,1.176,1.176v12.992H22.792z"/>
	
		<path fill="none" stroke="#666666" stroke-width="0.25" stroke-linecap="round" stroke-linejoin="round" stroke-miterlimit="10" d="
		M13.271,16.75h7.438 M13.732,15.945c0,0,0.735-1.18,1.319-0.672c0.773,0.672-0.426,2.271,0.083,2.33
		c0.381,0.043,1.502-2.92,1.502-2.92v2.418l1.795-1.828l-1.043,2.33l1.918-1.658h0.896 M15.544,5.473h5.088 M15.544,6.826h5.088
		 M6.454,5.473h5.088 M6.454,6.826h5.088 M6.155,13.062h12.324"/>
	<path fill="none" stroke="#666666" stroke-width="0.5" stroke-linecap="round" stroke-linejoin="round" stroke-miterlimit="10" d="
		M6.495,5.473h5.088 M6.562,11.744h11.286 M5.625,9.84h13.384"/>
	
		<linearGradient id="SVGID_1_" gradientUnits="userSpaceOnUse" x1="135.4893" y1="169.4111" x2="143.8141" y2="168.6496" gradientTransform="matrix(0.9064 0.4224 0.4224 -0.9064 -192.7564 110.2339)">
		<stop  offset="0.0061" style="stop-color:#462523"/>
		<stop  offset="0.1779" style="stop-color:#CB9B51"/>
		<stop  offset="0.3313" style="stop-color:#F6E27A"/>
		<stop  offset="0.4785" style="stop-color:#F6F2C0"/>
		<stop  offset="0.6135" style="stop-color:#F6E27A"/>
		<stop  offset="0.7853" style="stop-color:#CB9B51"/>
		<stop  offset="1" style="stop-color:#462523"/>
	</linearGradient>
	<path fill="url(#SVGID_1_)" d="M6.498,17.134l0.483-0.326l-0.039-0.569l0.233-0.499l-0.327-0.484l-0.051-0.601l-0.522-0.241
		l-0.314-0.452L5.371,13.99l-0.544-0.255l-0.462,0.338l-0.57,0.037l-0.243,0.522L3.06,14.981l0.061,0.58L2.866,16.05l0.346,0.495
		l0.029,0.592l0.521,0.24l0.315,0.451l0.593-0.026l0.544,0.252l0.46-0.339l0.57-0.036L6.498,17.134z"/>
</g>
<g id="g4216">
	<path id="path3856" fill="#231F20" d="M5.073,5.146h-2.57v0.023c0,0.008,0.003,0.957,0,1.22C2.507,6.765,2.59,7.096,2.765,7.434
		c0.18,0.297,0.481,0.709,1.016,0.863l0.006,0.001l0.006-0.001C4.05,8.224,4.437,8.053,4.811,7.433
		c0.174-0.338,0.258-0.669,0.262-1.044c-0.003-0.266,0-1.211,0-1.219V5.146z"/>
	<path id="path3858" fill="#003D2C" d="M3.789,6.68L2.817,7.432H2.816l0.001,0.001c0.278,0.453,0.577,0.705,0.97,0.82l0,0l0,0
		c0.512-0.15,0.8-0.54,0.972-0.82V7.432L3.789,6.68L3.789,6.68z"/>
	<path id="path3860" fill="#003D2C" d="M4.972,6.875l0.001-0.002C5.008,6.717,5.026,6.56,5.029,6.39c-0.003-0.258,0-1.158,0-1.197
		l0,0H2.547l0,0c0,0.158,0.003,0.957,0,1.198c0.001,0.17,0.021,0.328,0.056,0.483l0.001,0.002l1.185-0.902L4.972,6.875L4.972,6.875z
		"/>
	<path id="path3862" fill="#FFC937" d="M4.961,6.922L4.961,6.922L3.789,6.029L2.616,6.921l0,0v0.001c0,0.001,0,0.004,0,0.005
		C2.634,6.998,2.657,7.07,2.684,7.141c0.04,0.104,0.083,0.2,0.112,0.249v0.001l0.992-0.769L4.78,7.391v0.001l0.001-0.001
		c0.005-0.008,0.01-0.017,0.015-0.027C4.869,7.215,4.923,7.071,4.961,6.922"/>
	<circle fill="#FFC937" cx="3.023" cy="5.584" r="0.277"/>
	<circle fill="#FFC937" cx="3.788" cy="5.584" r="0.277"/>
	<ellipse fill="#FFC937" cx="3.788" cy="7.505" rx="0.277" ry="0.437"/>
	<circle fill="#FFC937" cx="4.552" cy="5.584" r="0.278"/>
</g>
</svg>
