<?xml version="1.0" encoding="utf-8"?>
<!-- Generator: Adobe Illustrator 15.0.0, SVG Export Plug-In . SVG Version: 6.00 Build 0)  -->
<!DOCTYPE svg PUBLIC "-//W3C//DTD SVG 1.1//EN" "http://www.w3.org/Graphics/SVG/1.1/DTD/svg11.dtd">
<svg version="1.1" id="Layer_1" xmlns="http://www.w3.org/2000/svg" xmlns:xlink="http://www.w3.org/1999/xlink" x="0px" y="0px"
	 width="24px" height="24px" viewBox="0 0 24 24" enable-background="new 0 0 24 24" xml:space="preserve">
<g>
	<g>
		<g>
			<path fill="#FFFFFF" stroke="#999999" stroke-linecap="round" stroke-linejoin="round" stroke-miterlimit="10" d="M15.708,6.468
				h4.848l-6.119-5.855v4.584C14.437,5.916,15.013,6.468,15.708,6.468z"/>
			<path fill="#FFFFFF" stroke="#999999" stroke-linecap="round" stroke-linejoin="round" stroke-miterlimit="10" d="M15.708,6.468
				c-0.72,0-1.271-0.552-1.271-1.271V0.612h-9.72c-0.72,0-1.272,0.552-1.272,1.271v20.232c0,0.72,0.552,1.271,1.272,1.271h14.544
				c0.719,0,1.271-0.552,1.271-1.271V6.468H15.708z"/>
		</g>
		<path fill="none" stroke="#999999" stroke-linecap="round" stroke-linejoin="round" stroke-miterlimit="10" d="M7.116,15.3H16.5
			 M7.116,11.484H16.5 M7.116,19.212H16.5"/>
	</g>
	<circle fill="#03A9F4" cx="5.784" cy="11.928" r="5.784"/>
	<path fill="#FFFFFF" d="M5.856,7.92l1.224,2.712l2.88,0.24L7.824,12.96l0.552,2.735L5.856,14.4l-2.52,1.295l0.552-2.735
		l-2.136-2.088l2.88-0.24L5.856,7.92z"/>
</g>
</svg>
