<?xml version="1.0" encoding="utf-8"?>
<!-- Generator: Adobe Illustrator 15.0.0, SVG Export Plug-In . SVG Version: 6.00 Build 0)  -->
<!DOCTYPE svg PUBLIC "-//W3C//DTD SVG 1.1//EN" "http://www.w3.org/Graphics/SVG/1.1/DTD/svg11.dtd">
<svg version="1.1"
	 id="svg20" sodipodi:docname="icon.svg" inkscape:version="0.92.2 5c3e80d, 2017-08-06" xmlns:cc="http://creativecommons.org/ns#" xmlns:inkscape="http://www.inkscape.org/namespaces/inkscape" xmlns:sodipodi="http://sodipodi.sourceforge.net/DTD/sodipodi-0.dtd" xmlns:rdf="http://www.w3.org/1999/02/22-rdf-syntax-ns#" xmlns:svg="http://www.w3.org/2000/svg" xmlns:dc="http://purl.org/dc/elements/1.1/"
	 xmlns="http://www.w3.org/2000/svg" xmlns:xlink="http://www.w3.org/1999/xlink" x="0px" y="0px" width="24px" height="24px"
	 viewBox="0 0 24 24" enable-background="new 0 0 24 24" xml:space="preserve">
<sodipodi:namedview  objecttolerance="10" id="namedview22" borderopacity="1" inkscape:window-y="22" bordercolor="#666666" inkscape:window-x="0" inkscape:window-width="1795" inkscape:cx="5.7965141" showgrid="false" inkscape:cy="13.764066" gridtolerance="10" inkscape:pageopacity="0" inkscape:zoom="17.063346" inkscape:pageshadow="2" inkscape:window-maximized="0" inkscape:window-height="1010" pagecolor="#ffffff" guidetolerance="10" inkscape:current-layer="layer1">
	</sodipodi:namedview>
<g id="g18" transform="translate(-14.145579)">
	
		<linearGradient id="SVGID_1_" gradientUnits="userSpaceOnUse" x1="54.4288" y1="777.6582" x2="54.4288" y2="789.9164" gradientTransform="matrix(1 0 0 1 -28.291 -767)">
		<stop  offset="0" style="stop-color:#FFFFFF"/>
		<stop  offset="1" style="stop-color:#BDD8F0"/>
	</linearGradient>
	<path display="none" fill="url(#SVGID_1_)" stroke="#999999" stroke-linejoin="round" stroke-miterlimit="10" d="M29.858,6.348
		c-0.723,0-1.271-0.552-1.271-1.271V0.493h-9.722c-0.72,0-1.272,0.552-1.272,1.271v17.673l15.818,2.83
		c0.719,0,1.271-0.553,1.271-1.271V6.348H29.858z"/>
	<linearGradient id="path4_1_" gradientUnits="userSpaceOnUse" x1="26.7256" y1="10.3647" x2="26.7256" y2="24.4454">
		<stop  offset="0" style="stop-color:#FFFFFF"/>
		<stop  offset="1" style="stop-color:#BDD8F0"/>
	</linearGradient>
	
		<path id="path4" inkscape:connector-curvature="0" sodipodi:nodetypes="sscsssssscs" fill="url(#path4_1_)" stroke="#BBBBBB" stroke-linecap="round" stroke-linejoin="round" stroke-miterlimit="10" d="
		M31.122,6.744c-0.646,0-1.15-0.552-1.15-1.248V0.96H19.089c-0.648,0-1.152,0.552-1.152,1.248v16.968
		c0,0.696,1.964,2.344,2.612,2.344l13.812,0.904c0.647,0,1.152-0.552,1.152-1.248V6.744H31.122z"/>
	<g id="g18_1_" transform="translate(-14.145579)">
		<path id="path3888" inkscape:connector-curvature="0" fill="#4AABE9" d="M35.846,7.742c-0.095-0.236-0.147-0.492-0.147-0.761
			c0-1.165,0.993-2.109,2.217-2.109c0.455,0,0.88,0.132,1.231,0.356c0.64-1.055,1.834-1.762,3.203-1.762
			c2.042,0,3.695,1.573,3.695,3.516c0,0.06-0.002,0.118-0.004,0.178c1.293,0.433,2.222,1.606,2.222,2.986
			c0,1.747-1.489,3.165-3.326,3.165h-8.5c-1.633,0-2.957-1.259-2.957-2.812C33.481,9.136,34.498,8,35.846,7.742z M39.177,9.09h1.511
			v2.46c0,0.193,0.167,0.352,0.37,0.352h1.108c0.203,0,0.369-0.158,0.369-0.352V9.09h1.511c0.329,0,0.493-0.378,0.262-0.601
			l-2.437-2.315c-0.143-0.136-0.379-0.136-0.521,0L38.915,8.49C38.683,8.712,38.849,9.09,39.177,9.09z"/>
	</g>
	
		<path id="path2" inkscape:connector-curvature="0" fill="#FFFFFF" stroke="#BBBBBB" stroke-linecap="round" stroke-linejoin="round" stroke-miterlimit="10" d="
		M31.122,6.744h4.416L29.945,0.96v4.536C29.945,6.168,30.474,6.744,31.122,6.744z"/>
	<g id="g14799" transform="matrix(3.7058697,0.54062794,-0.54062794,3.7058697,22.494748,9.9223005)">
		<g id="raw_1_">
			<g id="assign_24" inkscape:label="assign_hand">
				
					<linearGradient id="path10534_1_" gradientUnits="userSpaceOnUse" x1="-70.1188" y1="73.525" x2="-70.1188" y2="60.8099" gradientTransform="matrix(12.5656 -1.0099 -1.0099 -12.5656 956.3417 853.8021)">
					<stop  offset="0" style="stop-color:#DDA976"/>
					<stop  offset="0.0622" style="stop-color:#D4A06D"/>
					<stop  offset="0.2639" style="stop-color:#BD8955"/>
					<stop  offset="0.4782" style="stop-color:#AC7844"/>
					<stop  offset="0.7116" style="stop-color:#A26E3A"/>
					<stop  offset="1" style="stop-color:#9F6B37"/>
				</linearGradient>
				<path id="path10534" inkscape:connector-curvature="0" sodipodi:nodetypes="cccccccc" fill="url(#path10534_1_)" d="
					M0.401,2.509C0.368,1.97,2.381,2.5,2.569,2.078C2.872,1.255,0.97,1.511,0.071,1.487C-0.875,1.562-1.584,0.76-1.584,0.76
					c-0.094,0.272-0.335,0.773-0.378,1.234c0.125,0.078,1.644,1.718,2.301,1.717C0.998,3.71,3.713,3.236,3.741,2.795
					C3.796,1.917,0.438,3.095,0.401,2.509z"/>
				
					<linearGradient id="path10541_1_" gradientUnits="userSpaceOnUse" x1="-70.1207" y1="73.5045" x2="-70.1207" y2="62.8513" gradientTransform="matrix(12.5656 -1.0099 -1.0099 -12.5656 956.3417 853.8021)">
					<stop  offset="0" style="stop-color:#FFDDAA"/>
					<stop  offset="1" style="stop-color:#E3B17E"/>
				</linearGradient>
				<path id="path10541" inkscape:connector-curvature="0" sodipodi:nodetypes="ccccccccc" fill="url(#path10541_1_)" d="
					M-1.56,2.04c-0.063-0.061-0.11-0.107-0.147-0.142c0.051-0.293,0.105-0.697,0.19-0.888c0.478,0.495,1.016,0.587,1.282,0.614
					c0.817-0.015,2.847-0.161,2.599,0.379C2.244,2.264,0.22,1.668,0.222,2.529c0.002,0.852,3.142-0.242,3.302,0.206
					c0.025,0.404-2.74,0.814-3.185,0.746C-0.162,3.407-1.203,2.387-1.56,2.04z"/>
				
					<linearGradient id="path10548_1_" gradientUnits="userSpaceOnUse" x1="-70.1723" y1="73.4914" x2="-70.1723" y2="64.9678" gradientTransform="matrix(12.5656 -1.0099 -1.0099 -12.5656 956.3417 853.8021)">
					<stop  offset="0" style="stop-color:#F1C592"/>
					<stop  offset="1" style="stop-color:#E1AF7C"/>
				</linearGradient>
				<path id="path10548" inkscape:connector-curvature="0" sodipodi:nodetypes="cccccccccccccc" fill="url(#path10548_1_)" d="
					M0.374,3.244C0.185,3.216-0.271,2.958-1.371,1.89l-0.075-0.072c0.037-0.159,0.034-0.344,0.092-0.496
					C-1.012,1.626-0.641,1.774-0.268,1.8c0.224,0.035,0.578-0.049,0.85-0.076C0.928,1.699,1.478,1.693,1.82,1.745
					c0.343,0.052,0.355,0.21-0.019,0.179C1.549,1.937,0.432,1.861,0.159,2.092C0.075,2.165-0.018,2.307-0.018,2.53
					c0,0.262,0.159,0.585,0.915,0.634c0.068,0.005,0.139,0.007,0.212,0.007c-0.314,0.053-0.58,0.083-0.716,0.075L0.374,3.244z"/>
			</g>
		</g>
	</g>
</g>
<g id="layer1" inkscape:groupmode="layer" inkscape:label="Layer 1">
</g>
</svg>
