<?xml version="1.0" encoding="UTF-8" standalone="no"?>
<!-- Created with Inkscape (http://www.inkscape.org/) -->

<svg
   xmlns:dc="http://purl.org/dc/elements/1.1/"
   xmlns:cc="http://creativecommons.org/ns#"
   xmlns:rdf="http://www.w3.org/1999/02/22-rdf-syntax-ns#"
   xmlns:svg="http://www.w3.org/2000/svg"
   xmlns="http://www.w3.org/2000/svg"
   xmlns:sodipodi="http://sodipodi.sourceforge.net/DTD/sodipodi-0.dtd"
   xmlns:inkscape="http://www.inkscape.org/namespaces/inkscape"
   width="112.69507mm"
   height="138.21452mm"
   viewBox="0 0 112.69507 138.21453"
   version="1.1"
   id="svg8"
   inkscape:version="0.92.4 (5da689c313, 2019-01-14)"
   sodipodi:docname="logosmall.svg">
  <defs
     id="defs2">
	
	
	
	
	
	
	
	
	
	
	
	
	
	
	
	
	
	
	
	
	
	
	
	
	
	
	
	
	
	
	
	
	
	
	
	
	
	
	
	
	
	
	
	
	
	
	
	
	
	
	
	
	
	
	
	
	
	
	
	
	
	
	
	
	
	
	
</defs>
  <sodipodi:namedview
     id="base"
     pagecolor="#ffffff"
     bordercolor="#666666"
     borderopacity="1.0"
     inkscape:pageopacity="0.0"
     inkscape:pageshadow="2"
     inkscape:zoom="0.63104857"
     inkscape:cx="267.64607"
     inkscape:cy="259.65941"
     inkscape:document-units="mm"
     inkscape:current-layer="layer1"
     showgrid="false"
     inkscape:window-width="1280"
     inkscape:window-height="961"
     inkscape:window-x="-8"
     inkscape:window-y="-8"
     inkscape:window-maximized="1" />
  <metadata
     id="metadata5">
    <rdf:RDF>
      <cc:Work
         rdf:about="">
        <dc:format>image/svg+xml</dc:format>
        <dc:type
           rdf:resource="http://purl.org/dc/dcmitype/StillImage" />
        <dc:title></dc:title>
      </cc:Work>
    </rdf:RDF>
  </metadata>
  <g
     inkscape:label="Layer 1"
     inkscape:groupmode="layer"
     id="layer1"
     transform="translate(-79.918738,-58.909641)">
    <g
       id="g4216">
      <path
         id="path3856"
         d="M 192.61381,58.909641 H 79.918738 l 0.0024,0.977662 c 0.0024,0.40573 0.139317,41.978357 0,53.514767 0.195533,16.41983 3.847099,30.96988 11.504635,45.80101 7.87751,13.01756 21.066177,31.09697 44.512947,37.84529 l 0.26886,0.0758 0.26885,-0.0758 c 11.292,-3.25073 28.20799,-10.71273 44.66204,-37.90884 7.63309,-14.79447 11.27977,-29.3323 11.47042,-45.76435 -0.14177,-11.69039 -0.002,-53.109033 0,-53.490321 z"
         inkscape:connector-curvature="0"
         style="fill:#231f20;stroke-width:2.4441545" />
      <path
         id="path3858"
         d="m 136.30538,126.10189 -42.608943,32.99609 -0.03911,0.0342 0.02689,0.0391 c 12.191443,19.81476 25.301883,30.89656 42.506293,35.92663 h 0.0147 0.0147 c 22.46422,-6.57722 35.09317,-23.66919 42.63827,-35.95107 l 0.0244,-0.044 -42.54784,-32.97898 z"
         inkscape:connector-curvature="0"
         style="fill:#003d2c;stroke-width:2.4441545" />
      <path
         id="path3860"
         d="m 188.18989,134.6491 0.0171,-0.0807 c 1.56915,-6.82408 2.37083,-13.7557 2.45638,-21.18837 -0.13443,-11.33843 -0.007,-50.79442 -0.005,-52.468666 v -0.05377 H 81.866729 v 0.05377 c 0.022,6.90718 0.127096,41.902586 0,52.495546 0.08555,7.43023 0.889672,14.35941 2.463708,21.19571 l 0.01711,0.0758 51.955393,-39.524422 51.81852,39.448652 z"
         inkscape:connector-curvature="0"
         style="fill:#003d2c;stroke-width:2.4441545" />
      <path
         id="path3862"
         d="m 187.68884,136.75352 0.007,-0.0342 -51.39079,-39.126025 -51.412788,39.111355 -0.02444,0.0245 0.0024,0.0342 c 0.01222,0.0709 0.02444,0.15643 0.03911,0.23953 0.801682,3.10652 1.794009,6.25459 2.945206,9.36111 1.752459,4.59746 3.646678,8.77452 4.937192,10.89849 l 0.03422,0.0513 43.47906,-33.67068 43.43507,33.6609 0.0489,0.0342 0.0318,-0.0489 c 0.20531,-0.33973 0.42773,-0.73569 0.66481,-1.17808 3.18229,-6.48678 5.53845,-12.82203 7.20292,-19.3577"
         inkscape:connector-curvature="0"
         style="fill:#ffc937;stroke-width:2.4441545" />
      <path
         id="path3864"
         d="m 151.24894,71.717011 -2.79122,-0.022 -2.42705,-2.625022 -0.26397,0.0831 c -0.97521,0.293298 -1.66446,0.22975 -2.72523,-0.207753 -1.1903,-0.674587 -2.08242,-0.928779 -3.29472,-0.928779 -1.19519,0 -2.58836,0.620815 -3.4487,1.48849 -0.86279,-0.865231 -2.25351,-1.48849 -3.4487,-1.48849 -1.2123,0 -2.10442,0.254192 -3.24584,0.906781 -1.14386,0.47661 -1.7989,0.527938 -2.77411,0.232195 l -0.26397,-0.0831 -2.43438,2.637242 -2.78634,0.0098 -0.002,20.555339 12.57029,0.05622 c 0.42039,0.525493 1.32717,0.887228 2.38793,0.887228 1.06077,0 1.96999,-0.361735 2.3855,-0.887228 l 12.56784,-0.05622 z"
         inkscape:connector-curvature="0"
         style="fill:#231f20;stroke-width:2.4441545" />
      <path
         id="path3866"
         d="m 130.26588,84.785905 c 0.66969,-0.351958 1.50804,-0.789462 2.67146,-0.818792 1.24163,-0.03422 2.28773,0.501052 2.89143,0.936111 V 70.43383 c -0.61837,-0.801683 -1.93821,-1.434719 -2.97942,-1.434719 -1.06077,0 -1.81112,0.212642 -2.867,0.816348 -1.23185,0.51816 -2.01887,0.601262 -2.99408,0.383732 v 14.493836 c 0.50105,0.403286 0.87745,0.618371 1.91377,0.618371 0.4375,-0.0024 0.86767,-0.263968 1.36384,-0.525493"
         inkscape:connector-curvature="0"
         style="fill:#ffc937;stroke-width:2.4441545" />
      <path
         id="path3868"
         d="m 126.22569,86.005538 c 0.59882,0.415506 1.44938,0.630592 2.4466,0.586597 0.47172,-0.022 0.92389,-0.197976 1.44449,-0.403285 0.71858,-0.283522 1.53493,-0.603706 2.68124,-0.633036 1.42494,-0.02933 2.26084,0.542602 2.64702,0.897004 0.0244,-0.03911 0.0489,-0.08554 0.0684,-0.124651 0.11976,-0.222419 0.23708,-0.430172 0.35195,-0.615927 v -0.06355 c -0.48149,-0.391065 -1.56914,-1.109647 -2.91343,-1.068096 -1.03387,0.022 -1.76957,0.410618 -2.41971,0.750355 -0.54016,0.283522 -1.05343,0.554824 -1.62781,0.554824 -1.08031,0 -1.59847,-0.197977 -2.16063,-0.625704 z"
         inkscape:connector-curvature="0"
         style="fill:#ffc937;stroke-width:2.4441545" />
      <path
         id="path3870"
         d="m 142.32778,84.822567 c 0.49861,0.261525 0.92633,0.449725 1.36384,0.449725 1.03143,0 1.41272,-0.180868 1.91133,-0.581709 V 70.196747 c -0.97278,0.21753 -1.78179,0.124652 -2.94277,-0.356847 -1.10475,-0.625703 -1.85511,-0.916558 -2.91343,-0.916558 -1.04121,0 -2.36105,0.711249 -2.97942,1.512932 v 14.469395 c 0.60126,-0.439948 1.64247,-0.967886 2.88899,-0.936112 1.16586,0.02689 2.00176,0.503496 2.67146,0.85301"
         inkscape:connector-curvature="0"
         style="fill:#ffc937;stroke-width:2.4441545" />
      <path
         id="path3872"
         d="m 122.77454,72.276722 v 17.507479 h 11.71972 c -0.0416,-0.102655 -0.0733,-0.215086 -0.10021,-0.329961 -0.0342,-0.134428 -0.0587,-0.278633 -0.0587,-0.430171 0,-0.0611 0.005,-0.08799 0.0122,-0.149093 -0.0709,0.01466 -0.14176,0.03422 -0.21753,0.03666 l -10.18723,0.022 V 72.276722 Z"
         inkscape:connector-curvature="0"
         style="fill:#ffc937;stroke-width:2.4441545" />
      <polygon
         transform="matrix(2.4441545,0,0,2.4441545,217.6444,64.235454)"
         id="polygon3874"
         points="-37.95,3.288 -37.95,9.281 -37.868,9.161 -37.868,3.194 "
         style="fill:#ffc937" />
      <path
         id="path3876"
         d="m 138.12628,91.355792 0.0171,-0.02933 12.10589,-0.05866 v -0.921446 l -12.6485,0.0098 c -0.34951,0.310408 -0.81146,0.503496 -1.32473,0.503496 -0.51083,0 -0.97522,-0.193088 -1.32229,-0.503496 h -12.6045 v 0.914114 l 12.10345,0.05866 0.044,0.06355 c 0.21264,0.464389 0.93855,0.806571 1.80378,0.806571 0.89212,0 1.63514,-0.361735 1.82579,-0.843234"
         inkscape:connector-curvature="0"
         style="fill:#ffc937;stroke-width:2.4441545" />
      <path
         id="path3878"
         d="m 138.04806,89.784201 11.77105,-0.0073 V 72.26939 h -1.16586 v 16.664245 l -10.17257,-0.022 c -0.10021,-0.0024 -0.19064,-0.02689 -0.28108,-0.04644 0.01,0.06844 0.0171,0.09777 0.0171,0.15887 0,0.190644 -0.0416,0.371511 -0.0978,0.542602 -0.022,0.07577 -0.044,0.144205 -0.0709,0.21753"
         inkscape:connector-curvature="0"
         style="fill:#ffc937;stroke-width:2.4441545" />
      <path
         id="path3880"
         d="m 124.88874,87.958418 9.22668,-0.01711 c 0.15398,-0.0073 0.30552,-0.09043 0.45217,-0.219973 -0.36174,-0.241972 -1.16097,-0.633036 -2.47593,-0.59393 -1.07054,0.02689 -1.78668,0.219974 -2.41727,0.388621 -0.5206,0.136872 -0.96788,0.256636 -1.49827,0.256636 -1.2954,0 -2.21929,-0.197977 -2.79366,-0.559712 l -0.49617,0.708805 v 0.03666 z"
         inkscape:connector-curvature="0"
         style="fill:#ffc937;stroke-width:2.4441545" />
      <path
         id="path3882"
         d="m 136.72822,85.71224 c 0.11732,0.185755 0.2322,0.393508 0.34952,0.615927 0.0244,0.04399 0.0489,0.08799 0.0733,0.127096 0.38862,-0.354403 1.22941,-0.921447 2.64458,-0.894561 1.14875,0.02444 1.96265,0.344626 2.68368,0.628148 0.5206,0.205309 0.97277,0.381288 1.44205,0.400841 1.00943,0.04644 1.85267,-0.168647 2.44904,-0.584153 l -0.52305,-0.743023 c -0.55971,0.422839 -1.07543,0.620815 -2.15574,0.620815 -0.57682,0 -1.08765,-0.268857 -1.63025,-0.554823 -0.65015,-0.337293 -1.38828,-0.728358 -2.41972,-0.752799 -1.33206,-0.04888 -2.42704,0.679475 -2.91343,1.068095 z"
         inkscape:connector-curvature="0"
         style="fill:#ffc937;stroke-width:2.4441545" />
      <path
         id="path3884"
         d="m 136.29805,86.692346 c -0.007,0.01466 -0.0171,0.02933 -0.0244,0.04888 -0.34952,0.640368 -0.76502,1.390724 -1.34673,1.781788 -0.0684,0.153982 -0.11243,0.322629 -0.11243,0.501052 0,0.747911 0.65748,1.354062 1.45916,1.354062 0.80657,0 1.4616,-0.606151 1.4616,-1.354062 0,-0.202865 -0.0538,-0.391065 -0.1442,-0.562156 -0.5426,-0.405729 -0.93611,-1.11209 -1.27096,-1.725573 -0.005,-0.01466 -0.0147,-0.02933 -0.022,-0.04399"
         inkscape:connector-curvature="0"
         style="fill:#ffc937;stroke-width:2.4441545" />
      <polygon
         transform="matrix(2.4441545,0,0,2.4441545,217.6444,64.235454)"
         id="polygon3886"
         points="-37.486,8.616 -37.325,8.384 -37.325,2.579 -37.486,2.762 "
         style="fill:#ffc937" />
      <path
         id="path3888"
         d="m 128.17612,87.48914 c 0.49372,0 0.92389,-0.114875 1.42495,-0.251748 0.64525,-0.173535 1.37606,-0.371511 2.4857,-0.400841 1.45427,-0.02444 2.30728,0.413062 2.68857,0.674586 0.1882,-0.227306 0.36418,-0.508384 0.53038,-0.799238 -0.32507,-0.307964 -1.11942,-0.897005 -2.49548,-0.865231 -1.09742,0.02689 -1.88689,0.337293 -2.58591,0.608595 -0.54505,0.215085 -1.01677,0.403285 -1.53493,0.420394 -1.06565,0.04888 -1.97244,-0.1882 -2.62258,-0.637924 l -0.51572,0.738134 c 0.51816,0.33485 1.38584,0.513273 2.62502,0.513273"
         inkscape:connector-curvature="0"
         style="fill:#ffc937;stroke-width:2.4441545" />
      <polygon
         transform="matrix(2.4441545,0,0,2.4441545,217.6444,64.235454)"
         id="polygon3890"
         points="-37.75,8.993 -37.603,8.785 -37.603,2.894 -37.75,3.062 "
         style="fill:#ffc937" />
      <path
         id="path3892"
         d="m 144.41998,87.775106 c -0.53039,0 -0.97522,-0.122208 -1.49827,-0.25908 -0.63304,-0.171091 -1.34673,-0.361735 -2.41483,-0.388621 -1.3174,-0.03422 -2.11419,0.356847 -2.47592,0.59393 0.14909,0.12954 0.30307,0.212641 0.46194,0.219973 l 9.21691,0.01711 v -0.03666 l -0.49617,-0.711249 c -0.57193,0.369068 -1.49582,0.5646 -2.79366,0.5646"
         inkscape:connector-curvature="0"
         style="fill:#ffc937;stroke-width:2.4441545" />
      <polygon
         transform="matrix(2.4441545,0,0,2.4441545,217.6444,64.235454)"
         id="polygon3894"
         points="-28.697,9.161 -28.613,9.28 -28.613,3.288 -28.697,3.194 "
         style="fill:#ffc937" />
      <polygon
         transform="matrix(2.4441545,0,0,2.4441545,217.6444,64.235454)"
         id="polygon3896"
         points="-28.961,8.784 -28.815,8.993 -28.815,3.062 -28.961,2.894 "
         style="fill:#ffc937" />
      <path
         id="path3898"
         d="m 143.91159,86.875657 c -0.51816,-0.01955 -0.99233,-0.205309 -1.53493,-0.420394 -0.69658,-0.271302 -1.49093,-0.581709 -2.58591,-0.606151 -1.36629,-0.03422 -2.17041,0.557267 -2.49304,0.867675 0.16131,0.285966 0.33974,0.5646 0.52794,0.789462 0.38128,-0.261525 1.23918,-0.708805 2.68857,-0.669698 1.10475,0.02933 1.838,0.227306 2.48326,0.400841 0.50105,0.134428 0.93122,0.251748 1.42494,0.251748 1.23674,0 2.10442,-0.178423 2.62991,-0.510828 l -0.51816,-0.738135 c -0.65259,0.449724 -1.56915,0.679475 -2.62258,0.63548"
         inkscape:connector-curvature="0"
         style="fill:#ffc937;stroke-width:2.4441545" />
      <polygon
         transform="matrix(2.4441545,0,0,2.4441545,217.6444,64.235454)"
         id="polygon3900"
         points="-29.24,8.384 -29.078,8.615 -29.078,2.761 -29.24,2.579 "
         style="fill:#ffc937" />
      <path
         id="path3902"
         d="m 113.85582,69.786129 c -1.19274,0 -2.21196,0.740579 -2.61769,1.784233 -0.0929,-0.0098 -0.1882,-0.01467 -0.28352,-0.01467 -0.4375,0 -0.85301,0.08799 -1.23185,0.251748 -0.31285,0.134428 -0.60126,0.31774 -0.85057,0.542602 -0.0171,0.01711 -0.0367,0.03422 -0.0538,0.05133 -0.60371,0.562156 -0.97766,1.363838 -0.97766,2.243734 0,0.486387 0.11243,0.945888 0.31285,1.356506 0.32996,0.672142 0.90189,1.207412 1.59603,1.495822 0.0293,1.935771 -0.40084,3.143183 -0.97033,3.294721 -0.48883,0.134428 -1.17075,-0.452169 -1.98709,-1.666914 -0.1882,-0.278633 -0.3764,-0.591485 -0.5646,-0.933667 -0.19309,0.339738 -0.39596,0.642813 -0.59393,0.916558 -0.81391,1.082761 -1.71091,1.57648 -2.15575,1.422498 -0.38617,-0.136873 -0.6477,-0.809015 -0.68925,-1.764679 -0.0122,-0.312852 0,-0.647701 0.0342,-0.99966 l 0.005,-0.0024 c 0.0122,-0.141761 0.0489,-0.344626 0.0562,-0.483942 v -0.0098 l 0.002,-0.02933 v 0 l 0.0318,0.0049 c 0.24931,0.03422 0.52061,0.01955 0.80168,-0.04399 0.0513,-0.01467 0.10266,-0.02933 0.15154,-0.044 0.26397,-0.07821 0.53283,-0.195533 0.78946,-0.354403 0.66237,-0.408173 1.00211,-0.977661 1.17075,-1.520264 0.19309,-0.608594 0.16376,-1.178082 0.13688,-1.42983 -0.0709,-0.679475 -0.47417,-1.552038 -1.22208,-1.962656 -0.20287,-0.112431 -0.56949,-0.256636 -0.99722,-0.329961 l -0.0342,-0.0049 0.007,-0.03422 c 0.16376,-0.667255 0.0807,-1.361394 -0.23464,-1.950436 -0.2933,-0.54749 -0.73813,-0.938555 -1.39806,-1.234298 -0.34707,-0.153981 -0.76502,-0.227306 -1.27096,-0.232194 -0.50838,0.0049 -0.926331,0.07821 -1.273401,0.232194 -0.662366,0.295743 -1.109646,0.686808 -1.400501,1.234298 -0.312852,0.589042 -0.398397,1.283181 -0.234639,1.950436 l 0.0073,0.03422 -0.03177,0.0049 c -0.430171,0.07088 -0.796795,0.215086 -1.002104,0.327517 -0.745467,0.413062 -1.151196,1.285625 -1.222077,1.9651 -0.02444,0.251748 -0.05133,0.821236 0.136873,1.42983 0.171091,0.542603 0.508384,1.114535 1.17075,1.520264 0.283522,0.17598 0.584153,0.30552 0.877451,0.383733 0.03666,0.0098 0.07088,0.01467 0.105099,0.02444 0.263969,0.05622 0.520605,0.06599 0.757688,0.03422 l 0.01467,-0.0049 h 0.01711 l 0.0024,0.03422 c 0.0049,0.08066 0.0073,0.156426 0.01222,0.237083 0.0049,0.06355 0.0073,0.122208 0.0098,0.1882 0.02689,0.34707 0.05622,0.745467 0.04399,1.065652 -0.03911,0.95322 -0.303075,1.625362 -0.686807,1.762235 -0.442392,0.153982 -1.344285,-0.337293 -2.1533,-1.422498 -0.200421,-0.268857 -0.403286,-0.574376 -0.598818,-0.916558 -0.1882,0.342182 -0.373956,0.655033 -0.559712,0.933667 -0.818791,1.217189 -1.50071,1.801342 -1.987097,1.666913 -0.571932,-0.151537 -1.002104,-1.358949 -0.972774,-3.29472 0.696584,-0.28841 1.268517,-0.82368 1.598477,-1.495822 0.202865,-0.408174 0.315296,-0.870119 0.315296,-1.356506 0,-0.88234 -0.376399,-1.681578 -0.980106,-2.243734 -0.01711,-0.01711 -0.03666,-0.03422 -0.05377,-0.05133 -0.249304,-0.224862 -0.537714,-0.408174 -0.850566,-0.542603 -0.378844,-0.161314 -0.796794,-0.251747 -1.234298,-0.251747 -0.09532,0 -0.1882,0.0049 -0.281078,0.01467 -0.405729,-1.046099 -1.427386,-1.784233 -2.620133,-1.784233 -1.54715,0 -2.803445,1.248963 -2.803445,2.779003 0,1.256296 0.843233,2.541921 1.999318,2.886547 l 2.248622,12.545845 0.161314,1.046098 v 0.01466 c 0.222418,0.28841 2.089752,2.280396 11.365318,2.280396 h 0.002 0.005 c 9.32689,0 11.19178,-2.011539 11.39954,-2.280396 l 0.005,-0.0024 c 0,-0.0024 0,-0.0024 0,-0.0024 0,-0.0049 0.002,-0.0049 0.002,-0.0049 v 0 c 0.0538,-0.329961 0.10754,-0.657477 0.16376,-0.984994 0.78457,-4.27727 1.57159,-8.334567 2.35861,-12.611837 1.19763,-0.413062 1.99932,-1.720685 1.99932,-2.886547 0.01,-1.644916 -1.59848,-2.776559 -2.79612,-2.776559"
         inkscape:connector-curvature="0"
         style="fill:#231f20;stroke-width:2.4441545" />
      <path
         id="path3904"
         d="m 110.82018,88.78943 c -0.90922,-0.53527 -3.5098,-1.556926 -10.06014,-1.556926 -6.555219,0 -9.170464,1.021656 -10.09191,1.556926 0.909225,0.53527 3.509805,1.554482 10.0577,1.554482 6.55766,0 9.17535,-1.019212 10.09435,-1.554482"
         inkscape:connector-curvature="0"
         style="fill:#ffc937;stroke-width:2.4441545" />
      <path
         id="path3906"
         d="m 113.43543,76.51733 0.21508,-0.955664 0.15643,-0.960553 c 0.91167,-0.102654 1.87956,-1.102313 1.87956,-2.03598 0,-0.99966 -0.82124,-1.813563 -1.83068,-1.813563 -0.73813,0 -1.37361,0.435059 -1.66202,1.058319 -0.10754,0.232194 -0.16865,0.483942 -0.16865,0.755244 0,0.08799 0.005,0.17109 0.0196,0.251747 -0.29574,-0.168646 -0.63303,-0.273745 -0.99477,-0.28841 -0.0318,-0.0024 -0.0611,-0.0049 -0.0978,-0.0049 -0.34218,0 -0.66481,0.08066 -0.95811,0.224862 -0.32752,0.163758 -0.61104,0.413062 -0.81879,0.716137 -0.22975,0.337294 -0.36418,0.743023 -0.36418,1.182971 0,0.701473 0.34462,1.324732 0.87501,1.713352 0.29085,0.207754 0.63548,0.349515 1.00943,0.395954 0.022,0.334849 0.0318,0.659921 0.0318,0.972773 0,0.273745 -0.01,0.542602 -0.0269,0.799239 -0.17109,2.319502 -0.99966,3.020974 -1.66447,3.199398 -0.12465,0.03422 -0.25664,0.05133 -0.40573,0.05133 -0.63792,0 -1.40294,-0.381288 -2.44171,-1.816007 -0.76258,0.943444 -1.7158,1.561815 -2.52726,1.561815 -0.17353,0 -0.34707,-0.02933 -0.51327,-0.08554 -0.80412,-0.283522 -1.27829,-1.219634 -1.33206,-2.634799 -0.0147,-0.332405 -0.005,-0.681919 0.0269,-1.046098 h 0.005 c 0.002,-0.03422 0.0122,-0.122208 0.0147,-0.153982 0.01,-0.210197 0.0269,-0.432615 0.0464,-0.679475 0.007,-0.07332 0.0122,-0.146649 0.0195,-0.227306 l 0.0611,-0.762576 c 0.0342,0.022 0.0709,0.04155 0.10999,0.06844 0.14176,0.07332 0.32996,0.156426 0.55482,0.202865 0.1491,0.03422 0.31286,0.05377 0.49372,0.04888 0.022,0 0.044,0 0.066,-0.0049 0.18576,-0.0098 0.55483,-0.06599 0.92634,-0.300631 0.24197,-0.144206 0.46194,-0.3764 0.6257,-0.664811 0.2102,-0.373955 0.3153,-0.843233 0.21264,-1.327175 -0.005,-0.03911 -0.19308,-0.88234 -0.93122,-1.251408 -0.32752,-0.161314 -0.62815,-0.166202 -0.97766,-0.166202 -0.36418,-0.0049 -0.72836,0.04888 -1.07787,0.153982 0.23464,-0.278634 0.42528,-0.589042 0.56704,-0.919002 0.0953,-0.224863 0.24197,-0.571933 0.22975,-0.987439 -0.005,-0.134428 -0.0122,-0.427727 -0.17598,-0.743023 -0.0171,-0.03422 -0.0684,-0.12954 -0.15642,-0.241971 -0.17109,-0.215086 -0.4204,-0.395953 -0.76258,-0.547491 -0.22242,-0.09288 -0.50594,-0.146649 -0.86767,-0.151537 -0.36418,0.0049 -0.65015,0.05866 -0.870123,0.151537 -0.344626,0.151538 -0.591486,0.329961 -0.765021,0.547491 -0.08799,0.109987 -0.139316,0.207753 -0.153981,0.241971 -0.163759,0.312852 -0.171091,0.608595 -0.17598,0.743023 -0.01222,0.413062 0.136873,0.762576 0.229751,0.987439 0.139317,0.332405 0.329961,0.640368 0.567044,0.919002 -0.354403,-0.105099 -0.716137,-0.15887 -1.085205,-0.153982 -0.34707,0 -0.645257,0.0049 -0.972773,0.166202 -0.738135,0.369068 -0.926335,1.212301 -0.931223,1.251408 -0.102655,0.486386 0,0.95322 0.212641,1.327175 0.15887,0.288411 0.383733,0.520605 0.62326,0.664811 0.373955,0.234638 0.740579,0.290854 0.926334,0.300631 0.01711,0 0.03666,0 0.05133,0.0049 0.151537,0.0049 0.295742,-0.0049 0.427727,-0.03422 0.251747,-0.04399 0.461945,-0.127096 0.618371,-0.210198 0.04888,-0.02444 0.09043,-0.05133 0.127096,-0.07577 l 0.06355,0.762576 c 0.0049,0.07577 0.01222,0.146649 0.01711,0.21753 0.022,0.283521 0.03911,0.54749 0.05133,0.784573 0.01711,0.356847 0.02689,0.769909 0.01466,1.102314 -0.05866,1.415165 -0.530382,2.351276 -1.332064,2.634798 -0.171091,0.05622 -0.342182,0.08555 -0.515717,0.08555 -0.811459,0 -1.762235,-0.618371 -2.524811,-1.561815 -1.036322,1.434719 -1.801342,1.816007 -2.444155,1.816007 -0.146649,0 -0.278634,-0.01955 -0.403285,-0.05133 -0.66481,-0.17598 -1.493379,-0.879896 -1.662026,-3.199399 -0.01711,-0.256636 -0.02688,-0.525493 -0.02688,-0.799238 0,-0.312852 0.0098,-0.637924 0.03177,-0.972774 0.371511,-0.04888 0.716137,-0.1882 1.006991,-0.395953 0.527938,-0.38862 0.872564,-1.01188 0.872564,-1.713352 0,-0.439948 -0.134429,-0.843233 -0.361735,-1.182971 -0.205309,-0.303075 -0.488831,-0.552379 -0.821236,-0.716137 -0.290855,-0.144205 -0.615927,-0.224862 -0.958109,-0.224862 -0.03177,0 -0.06355,0.0024 -0.09777,0.0049 -0.359291,0.01466 -0.696584,0.119764 -0.989882,0.28841 0.0098,-0.08066 0.01466,-0.163758 0.01466,-0.251748 0,-0.268857 -0.05866,-0.523049 -0.166202,-0.755243 -0.28841,-0.62326 -0.926335,-1.058319 -1.662025,-1.058319 -1.01188,0 -1.833116,0.813903 -1.833116,1.813562 0,0.933667 0.967885,1.935771 1.881999,2.035981 l 0.153982,0.960553 0.215085,0.955664 2.099529,11.20156 0.0098,0.05377 v 0 l 0.01222,0.05377 c 1.285626,-0.679475 4.181949,-1.591145 10.463425,-1.591145 v 0 c 0,0 0.002,0 0.002,0 6.3939,0 9.26823,0.945888 10.50986,1.630252 l 0.007,-0.05866 c 0.002,0 0.005,0 0.007,0 v -0.0098 l 0.72835,-3.785995 z"
         inkscape:connector-curvature="0"
         style="fill:#ffc937;stroke-width:2.4441545" />
      <path
         id="path3908"
         d="m 184.76075,69.786129 c -1.19275,0 -2.21196,0.740579 -2.61769,1.784233 -0.0929,-0.0098 -0.18576,-0.01467 -0.27864,-0.01467 -0.43995,0 -0.8579,0.08799 -1.23674,0.251748 -0.31041,0.134428 -0.59882,0.31774 -0.84812,0.542602 -0.0196,0.01711 -0.0367,0.03422 -0.0538,0.05133 -0.60371,0.562156 -0.97766,1.363838 -0.97766,2.243734 0,0.486387 0.11243,0.945888 0.31285,1.356506 0.3324,0.672142 0.90189,1.207412 1.59603,1.495822 0.0293,1.935771 -0.40084,3.143183 -0.97033,3.294721 -0.48883,0.134428 -1.17075,-0.452169 -1.9871,-1.666914 -0.1882,-0.278633 -0.3764,-0.591485 -0.56215,-0.933667 -0.19553,0.339738 -0.3984,0.642813 -0.59638,0.916558 -0.80901,1.082761 -1.7109,1.57648 -2.15574,1.422498 -0.38618,-0.136873 -0.6477,-0.809015 -0.68436,-1.764679 -0.0122,-0.312852 -0.002,-0.647701 0.0318,-0.99966 l 0.005,-0.0024 c 0.0122,-0.141761 0.0489,-0.344626 0.0562,-0.483942 v -0.0098 -0.02933 0 l 0.0342,0.0049 c 0.24931,0.03422 0.52061,0.01955 0.80168,-0.04399 0.0513,-0.01467 0.10266,-0.02933 0.15154,-0.044 0.26397,-0.07821 0.53283,-0.195533 0.78946,-0.354403 0.66237,-0.408173 1.00211,-0.977661 1.17075,-1.520264 0.19065,-0.608594 0.16376,-1.178082 0.13688,-1.42983 -0.0709,-0.679475 -0.47417,-1.552038 -1.22208,-1.962656 -0.20286,-0.112431 -0.56949,-0.256636 -0.99966,-0.329961 l -0.0318,-0.0049 0.007,-0.03422 c 0.16376,-0.667255 0.0807,-1.361394 -0.23464,-1.950436 -0.2933,-0.54749 -0.73569,-0.938555 -1.39806,-1.234298 -0.34951,-0.153981 -0.76257,-0.227306 -1.27096,-0.232194 -0.51082,0.0049 -0.92878,0.07821 -1.27585,0.232194 -0.66236,0.295743 -1.1072,0.686808 -1.39805,1.234298 -0.3153,0.589042 -0.3984,1.283181 -0.23464,1.950436 l 0.007,0.03422 -0.0342,0.0049 c -0.42772,0.07088 -0.79679,0.215086 -0.99966,0.327517 -0.74546,0.413062 -1.15119,1.285625 -1.22452,1.9651 -0.0269,0.251748 -0.0513,0.821236 0.13932,1.42983 0.1662,0.542603 0.50594,1.114535 1.16831,1.520264 0.28352,0.17598 0.58659,0.30552 0.87989,0.383733 0.0367,0.0098 0.0709,0.01467 0.1051,0.02444 0.26397,0.05622 0.52061,0.06599 0.75769,0.03422 l 0.0122,-0.0049 h 0.0171 l 0.005,0.03422 c 0.002,0.08066 0.007,0.156426 0.0122,0.237083 0.005,0.06355 0.007,0.122208 0.01,0.1882 0.0269,0.34707 0.0538,0.745467 0.044,1.065652 -0.0367,0.95322 -0.30308,1.625362 -0.68681,1.762235 -0.44483,0.153982 -1.34428,-0.337293 -2.15574,-1.422498 -0.19798,-0.268857 -0.40084,-0.574376 -0.59638,-0.916558 -0.18575,0.342182 -0.37395,0.655033 -0.55971,0.933667 -0.81635,1.217189 -1.50315,1.801342 -1.9871,1.666913 -0.57193,-0.151537 -1.0021,-1.358949 -0.97277,-3.29472 0.69903,-0.28841 1.26852,-0.82368 1.59848,-1.495822 0.20286,-0.408174 0.31529,-0.870119 0.31529,-1.356506 0,-0.88234 -0.37884,-1.681578 -0.9801,-2.243734 -0.0196,-0.01711 -0.0367,-0.03422 -0.0513,-0.05133 -0.25175,-0.224862 -0.54016,-0.408174 -0.85301,-0.542603 -0.38129,-0.161314 -0.79679,-0.251747 -1.2343,-0.251747 -0.0953,0 -0.1882,0.0049 -0.28108,0.01467 -0.40572,-1.046099 -1.42494,-1.784233 -2.61768,-1.784233 -1.54715,0 -2.80589,1.248963 -2.80589,2.779003 0,1.256296 0.84567,2.541921 2.00176,2.886547 l 2.24862,12.545845 0.16131,1.046098 v 0.01466 c 0.22242,0.28841 2.08976,2.280396 11.36532,2.280396 h 0.002 0.005 c 9.32445,0 11.19178,-2.011539 11.39953,-2.280396 l 0.005,-0.0024 c 0,-0.0024 0,-0.0024 0,-0.0024 0,-0.0049 0,-0.0049 0,-0.0049 v 0 c 0.0562,-0.329961 0.10754,-0.657477 0.16376,-0.984994 0.78457,-4.27727 1.57648,-8.334567 2.36105,-12.611837 1.19519,-0.413062 1.99932,-1.720685 1.99932,-2.886547 0.002,-1.644916 -1.60336,-2.776559 -2.80344,-2.776559"
         inkscape:connector-curvature="0"
         style="fill:#231f20;stroke-width:2.4441545" />
      <path
         id="path3910"
         d="m 181.72999,88.78943 c -0.91167,-0.53527 -3.51225,-1.556926 -10.06258,-1.556926 -6.55033,0 -9.17291,1.021656 -10.09191,1.556926 0.91167,0.53527 3.5098,1.554482 10.06014,1.554482 6.55277,0 9.17291,-1.019212 10.09435,-1.554482"
         inkscape:connector-curvature="0"
         style="fill:#ffc937;stroke-width:2.4441545" />
      <path
         id="path3912"
         d="m 184.34279,76.51733 0.21509,-0.955664 0.15643,-0.960553 c 0.91411,-0.102654 1.87955,-1.102313 1.87955,-2.03598 0,-0.99966 -0.82123,-1.813563 -1.83311,-1.813563 -0.7357,0 -1.37362,0.435059 -1.66203,1.058319 -0.10754,0.232194 -0.1662,0.483942 -0.1662,0.755244 0,0.08799 0.007,0.17109 0.0171,0.251747 -0.2933,-0.168646 -0.63059,-0.273745 -0.99233,-0.28841 -0.0293,-0.0024 -0.0611,-0.0049 -0.0929,-0.0049 -0.34707,0 -0.67214,0.08066 -0.96055,0.224862 -0.32996,0.163758 -0.61348,0.413062 -0.81879,0.716137 -0.2322,0.337294 -0.36418,0.743023 -0.36418,1.182971 0,0.701473 0.34462,1.324732 0.87256,1.713352 0.29086,0.207754 0.63548,0.349515 1.00944,0.395954 0.022,0.334849 0.0318,0.659921 0.0293,0.972773 0,0.273745 -0.007,0.542602 -0.0269,0.799239 -0.17109,2.319502 -0.99966,3.020974 -1.66447,3.199398 -0.12221,0.03422 -0.25663,0.05133 -0.40328,0.05133 -0.63793,0 -1.40295,-0.381288 -2.44171,-1.816007 -0.76502,0.943444 -1.7158,1.561815 -2.52726,1.561815 -0.17353,0 -0.34707,-0.02933 -0.51327,-0.08554 -0.80413,-0.283522 -1.27829,-1.219634 -1.33451,-2.634799 -0.0122,-0.332405 -0.002,-0.681919 0.0293,-1.046098 h 0.005 c 0.002,-0.03422 0.0122,-0.122208 0.0147,-0.153982 0.01,-0.210197 0.0293,-0.432615 0.0464,-0.679475 0.005,-0.07332 0.01,-0.146649 0.0171,-0.227306 l 0.0635,-0.762576 c 0.0318,0.022 0.0709,0.04155 0.10999,0.06844 0.13931,0.07332 0.32996,0.156426 0.55238,0.202865 0.15153,0.03422 0.31529,0.05377 0.49371,0.04888 0.0245,0 0.044,0 0.0684,-0.0049 0.18576,-0.0098 0.55238,-0.06599 0.92389,-0.300631 0.24197,-0.144206 0.46195,-0.3764 0.6257,-0.664811 0.2102,-0.373955 0.3153,-0.843233 0.21265,-1.327175 -0.007,-0.03911 -0.19309,-0.88234 -0.93123,-1.251408 -0.32996,-0.161314 -0.62814,-0.166202 -0.97766,-0.166202 -0.36418,-0.0049 -0.72836,0.04888 -1.08031,0.153982 0.23708,-0.278634 0.42772,-0.589042 0.56704,-0.919002 0.0953,-0.224863 0.24197,-0.571933 0.23219,-0.987439 -0.005,-0.134428 -0.0122,-0.427727 -0.17842,-0.743023 -0.0147,-0.03422 -0.066,-0.12954 -0.15398,-0.241971 -0.16865,-0.215086 -0.4204,-0.395953 -0.76258,-0.547491 -0.22242,-0.09288 -0.50594,-0.146649 -0.86523,-0.151537 -0.36662,0.0049 -0.65259,0.05866 -0.87256,0.151537 -0.34218,0.151538 -0.59149,0.329961 -0.76502,0.547491 -0.0856,0.109987 -0.13932,0.207753 -0.15398,0.241971 -0.16376,0.312852 -0.17354,0.608595 -0.17598,0.743023 -0.01,0.413062 0.13687,0.762576 0.22975,0.987439 0.13931,0.332405 0.32996,0.640368 0.56704,0.919002 -0.35684,-0.105099 -0.71858,-0.15887 -1.0852,-0.153982 -0.34707,0 -0.64526,0.0049 -0.97278,0.166202 -0.74058,0.369068 -0.92633,1.212301 -0.93366,1.251408 -0.10266,0.486386 0.002,0.95322 0.21264,1.327175 0.16131,0.288411 0.38373,0.520605 0.62326,0.664811 0.37395,0.234638 0.74058,0.290854 0.92878,0.300631 0.0171,0 0.0342,0 0.0489,0.0049 0.15154,0.0049 0.29574,-0.0049 0.42528,-0.03422 0.25419,-0.04399 0.46439,-0.127096 0.62082,-0.210198 0.0489,-0.02444 0.0904,-0.05133 0.12709,-0.07577 l 0.0611,0.762576 c 0.005,0.07577 0.01,0.146649 0.0171,0.21753 0.0244,0.283521 0.0416,0.54749 0.0489,0.784573 0.022,0.356847 0.0293,0.769909 0.0171,1.102314 -0.0587,1.415165 -0.53038,2.351276 -1.33207,2.634798 -0.16864,0.05622 -0.34218,0.08555 -0.51571,0.08555 -0.80902,0 -1.76224,-0.618371 -2.52481,-1.561815 -1.03633,1.434719 -1.80135,1.816007 -2.44416,1.816007 -0.1442,0 -0.27863,-0.01955 -0.40328,-0.05133 -0.66481,-0.17598 -1.49338,-0.879896 -1.66203,-3.199399 -0.0195,-0.256636 -0.0269,-0.525493 -0.0269,-0.799238 0,-0.312852 0.007,-0.637924 0.0293,-0.972774 0.3764,-0.04888 0.72102,-0.1882 1.00943,-0.395953 0.53038,-0.38862 0.87256,-1.01188 0.87256,-1.713352 0,-0.439948 -0.13442,-0.843233 -0.36417,-1.182971 -0.20531,-0.303075 -0.48884,-0.552379 -0.8188,-0.716137 -0.28841,-0.144205 -0.61592,-0.224862 -0.95811,-0.224862 -0.0342,0 -0.0635,0.0024 -0.0978,0.0049 -0.35929,0.01466 -0.69659,0.119764 -0.99477,0.28841 0.0147,-0.08066 0.0195,-0.163758 0.0195,-0.251748 0,-0.268857 -0.0587,-0.523049 -0.1662,-0.755243 -0.29086,-0.62326 -0.92634,-1.058319 -1.66203,-1.058319 -1.01188,0 -1.83311,0.813903 -1.83311,1.813562 0,0.933667 0.96788,1.935771 1.87955,2.035981 l 0.15643,0.960553 0.21508,0.955664 2.09953,11.20156 0.01,0.05377 v 0 l 0.0122,0.05377 c 1.28563,-0.679475 4.18195,-1.591145 10.46343,-1.591145 0,0 0,0 0,0 0,0 0.002,0 0.002,0 6.39635,0 9.26823,0.945888 10.50742,1.630252 l 0.01,-0.05866 c 0.002,0 0.005,0 0.007,0 v -0.0098 l 0.7308,-3.785995 z"
         inkscape:connector-curvature="0"
         style="fill:#ffc937;stroke-width:2.4441545" />
      <path
         id="path3914"
         d="m 149.02965,154.50786 c 0.58415,-1.39317 0.31041,-1.75246 0.31041,-1.75246 l 1.30029,-3.87643 -1.7769,2.69346 c -0.0587,-0.0611 -0.21264,-0.19065 -0.51816,-0.24931 0,0 1.08031,-0.92633 0.66481,-1.52759 0,0 -0.21753,-0.54994 -1.51538,-0.38618 0,0 0.17598,-1.33695 -0.22975,-1.81356 l 0.32507,-5.52868 -1.33206,4.64878 c 0,0 -0.35685,-0.46194 -0.74791,-0.43017 0,0 0.36662,-0.34951 0.50105,-0.66237 0,0 0.60371,-1.09742 -0.51083,-1.2514 0,0 -0.49127,-0.0489 -0.94344,0.0513 0,0 0.13443,-1.3785 -0.32996,-1.794 l 0.022,-5.53846 -1.24651,5.38936 c 0,0 -0.40329,0.0489 -0.73814,1.6718 0,0 -0.7088,-0.53038 -1.67424,-0.11487 l -0.54016,-4.96897 -0.62815,5.49935 c 0,0 -0.36418,0.29574 -0.40817,0.82612 0,0 -0.17354,-0.0489 -0.34707,-0.0611 0,0 0.47172,-0.59637 0.50838,-0.941 0,0 0.14909,-0.86767 -0.5866,-0.96055 0,0 -0.46683,-0.0904 -1.09253,0.15642 0,0 -0.0538,-1.49826 -0.53772,-1.74268 l -0.60615,-5.50423 -0.62326,5.49934 c 0,0 -0.58415,0.20531 -0.53282,1.69869 0,0 -1.29052,-0.34462 -1.62048,0.11488 0,0 -0.36173,0.86523 0.44728,1.68157 0,0 -0.55238,0.0293 -0.65503,0.22487 l -0.20287,-0.24442 -0.6037,-5.49935 -0.62815,5.49935 c 0,0 -0.28108,0.15154 -0.37884,0.6917 0,0 -0.32508,-0.3153 -0.79924,-0.23953 0,0 0.40084,-0.5866 0.40084,-1.09254 0,0 0.19553,-1.30273 -1.73535,-0.51571 0,0 -0.15154,-1.32718 -0.71369,-1.68891 l -1.15364,-5.40892 -0.0635,5.58978 c 0,0 -0.54749,0.13932 -0.32019,1.7989 0,0 -0.8139,-0.44484 -1.60581,0.13443 l -0.92878,-3.25561 0.32508,5.52378 c 0,0 -0.40329,0.34463 -0.22731,1.81357 0,0 -3.03075,-0.46684 -0.85301,1.91866 0,0 -1.81112,0.46194 -0.10265,1.84778 l -0.43751,0.17109 -2.52236,-3.18473 1.53248,3.74689 c 0,0 -0.21997,0.47661 0.43995,1.72801 0,0 -2.6348,0.47661 0.002,2.01887 0.0513,-0.044 -1.50071,0.92634 0.57927,1.74757 0,0 -1.00211,1.01677 0.64281,1.75246 0,0 -0.74791,1.13654 0.99477,1.65714 0,0 -0.92633,0.84568 0.91411,1.78179 -0.42528,0.2102 -0.67947,0.66725 -0.24686,1.65225 l 0.99233,1.5887 c 0,0 -1.44694,1.74268 -0.0489,2.66413 l -0.0269,0.38128 c 0.12221,1.40295 -3.3436,8.31013 -4.05974,9.56643 -0.50349,0.80168 -0.19797,2.61035 0.53527,3.17006 0.55727,0.42529 1.51538,0.69659 2.22418,0.6306 0.25908,0.71124 0.76013,1.26607 1.38828,1.53248 0.57927,0.2493 1.2343,0.28597 1.57404,0.28597 0.17353,0 0.4986,-0.0147 0.80657,-0.0758 0.40817,0.59637 1.14875,1.13164 1.78423,1.2734 0.26397,0.066 0.58171,0.0953 0.91656,0.0953 0.32507,0 1.12187,-0.0342 1.71091,-0.34462 0.60615,0.49616 1.72068,0.89211 2.52236,0.89211 h 0.13443 c 0.87501,-0.0489 1.59115,-0.63548 1.97244,-1.00699 0.29574,0.18576 1.06565,0.61104 1.87955,0.61104 h 0.10266 c 0.73569,-0.0293 1.65958,-0.43995 2.17529,-0.96055 0.47661,0.14909 1.23186,0.20531 1.82579,-0.01 0.56948,-0.20531 1.29295,-0.65014 1.64247,-1.28318 0.69414,0.0196 1.37117,-0.1662 1.81356,-0.46683 0.60371,-0.40084 1.21475,-1.20253 1.1512,-1.92844 l -0.0611,-0.19064 c -0.26885,-0.49128 -4.0744,-9.69108 -4.89319,-12.10101 0.44972,-0.33974 1.22207,-1.04121 1.24652,-1.88445 0,0 0.0733,-0.3544 0.22241,-0.5206 0,0 1.0461,-1.5667 0.55971,-2.38794 l 0.1051,-0.044 c 1.2954,-0.47661 1.01433,-1.2123 1.01433,-1.2123 -0.0293,-0.12465 -0.19065,-0.32507 -0.19065,-0.32507 1.79401,-1.04121 0.62571,-1.63269 0.62571,-1.63269 1.69624,-0.5866 0.90433,-1.75735 0.90433,-1.75735 1.70847,-1.03143 0.40085,-1.75246 0.40085,-1.75246 2.06775,-0.90189 0.54749,-1.78912 0.54749,-1.78912 2.46126,-1.72313 -0.14421,-2.01398 -0.14421,-2.01398"
         inkscape:connector-curvature="0"
         style="fill:#231f20;stroke-width:2.4441545" />
      <path
         id="path3916"
         d="m 127.59197,170.35575 c -0.20775,2.39528 -4.15262,9.80106 -4.19172,9.87683 -0.38374,0.56216 -0.0318,1.60337 0.27619,1.83801 0.32507,0.2493 0.941,0.43017 1.40538,0.43017 0.17354,0 0.26397,-0.0196 0.30064,-0.0391 0.38617,-0.87256 3.26783,-9.35622 3.45359,-10.05769 0.0709,-0.26153 0.34707,-0.42529 0.61592,-0.35685 0.2713,0.0709 0.43262,0.34951 0.36174,0.61593 -0.0171,0.0709 -3.02098,9.19979 -3.60757,10.37788 0.0758,0.26152 0.29818,0.82123 0.86523,1.06565 0.30307,0.13443 0.73324,0.21019 1.17564,0.21019 0.36906,0 0.60615,-0.0489 0.7088,-0.0855 0.32996,-0.76258 1.5056,-7.06116 1.89178,-9.15092 0.1882,-0.99232 0.30551,-1.61314 0.33729,-1.76223 0.0636,-0.2713 0.3324,-0.43506 0.60859,-0.38129 0.27375,0.0709 0.4424,0.34952 0.3764,0.62082 -0.0342,0.13442 -0.1442,0.73569 -0.30063,1.57159 l -0.0244,0.1442 c -1.26852,6.79231 -1.70602,8.65964 -1.9871,9.35134 0.20287,0.32996 0.73325,0.80657 1.20986,0.92144 0.18331,0.044 0.43261,0.0611 0.6917,0.0611 0.66236,0 1.13653,-0.13932 1.31495,-0.2713 0.20775,-1.24652 0.8579,-10.22146 0.8579,-11.05491 0,-0.28108 0.2273,-0.50106 0.50594,-0.50106 0.27863,0 0.50838,0.21998 0.50838,0.50106 0,0.59637 -0.58904,9.34644 -0.87012,11.18934 0.31286,0.29085 1.21475,0.69658 1.91622,0.69658 l 0.0831,-0.01 c 0.54505,-0.0244 1.11209,-0.46683 1.46894,-0.87745 -0.0464,-1.54226 -0.74791,-9.53709 -0.82124,-10.11147 -0.0342,-0.27619 0.16376,-0.53038 0.43995,-0.56704 0.13198,-0.0147 0.26397,0.0244 0.37151,0.10021 0.10754,0.0856 0.17598,0.20042 0.19553,0.33974 0.007,0.0562 0.77969,7.92395 0.79191,10.18235 0.28352,0.2053 0.89945,0.54993 1.45916,0.54993 0.67703,-0.0342 1.40295,-0.46683 1.60825,-0.71125 -0.0562,-0.7308 -0.96788,-4.67811 -1.26851,-5.7902 -0.0733,-0.2713 0.0904,-0.54505 0.35684,-0.61593 0.13443,-0.0391 0.26886,-0.0196 0.38618,0.044 0.11488,0.066 0.19798,0.18086 0.23464,0.31041 0.01,0.0391 1.09743,4.3677 1.2734,5.83908 0.32997,0.0953 0.81635,0.14421 1.16587,0.01 0.56704,-0.20531 1.05832,-0.60615 1.15364,-0.94589 -0.0733,-0.37151 -1.01188,-3.17496 -4.10618,-11.34821 l -0.0464,-0.11976 c -0.0464,-0.12466 -0.044,-0.26642 0.0147,-0.38618 0.0538,-0.11976 0.15399,-0.21509 0.28353,-0.26641 0.25663,-0.10021 0.55237,0.0391 0.65014,0.29574 l 0.0464,0.12465 c 2.40016,6.34503 3.73711,10.04303 4.07441,11.29933 h 0.0122 c 0.44972,0 0.89944,-0.10999 1.15608,-0.28597 0.40329,-0.26641 0.67459,-0.71614 0.70881,-0.93611 -0.42773,-0.98255 -3.87154,-9.16558 -4.84432,-11.97147 -1.36872,0.42528 -3.85687,0.4204 -3.85687,0.4204 -0.0147,0.90189 1.16586,3.3216 1.16586,3.3216 -3.09919,0.13443 -5.51402,-3.27028 -5.51402,-3.27028 -3.04786,-0.1051 -5.82442,-0.4595 -6.73853,-0.59148 0,-0.01 -0.27863,-0.088 -0.30552,0.15642"
         inkscape:connector-curvature="0"
         style="fill:#ffc937;stroke-width:2.4441545" />
      <path
         id="path3918"
         d="m 139.34835,166.07848 c 0,0 0.53772,0.76747 -0.29085,3.62224 0,0 2.66902,-0.1051 3.17007,-0.22975 0,0 0.33485,-0.10999 0.48883,-0.22486 0,0 0.84079,-0.51572 1.01921,-0.78213 0,0 0.15887,-0.22975 0.24931,-0.61593 0,0 0.0464,-0.57193 0.28352,-0.81146 0,0 0.42039,-0.54504 0.60126,-1.25629 0,0 0.25419,-0.47661 -0.62815,-0.34952 0,0 -0.89456,0.12465 -1.38339,0.27619 0,0.005 -0.46194,0.39107 -3.50981,0.37151"
         inkscape:connector-curvature="0"
         style="fill:#ffc937;stroke-width:2.4441545" />
      <path
         id="path3920"
         d="m 136.77466,168.64729 -0.963,-2.7399 c 0,0 -0.33485,-1.07298 -1.52271,-0.86523 0,0 -1.13164,0.35685 -0.20775,1.43717 0,0 0.44728,0.48638 0.53283,1.3565 0,0 -0.0147,2.87433 3.86421,4.89809 0,0 -0.83346,-1.97244 -0.3153,-3.66624 0,0 1.25874,-3.48047 -1.15853,-4.23327 0,0 -0.8139,-0.32507 -0.40817,0.40084 0,0 0.21019,0.28108 0.18331,1.34673 z"
         inkscape:connector-curvature="0"
         style="fill:#ffc937;stroke-width:2.4441545" />
      <path
         id="path3922"
         d="m 132.7027,165.76319 c 0,0 -4.38237,-0.66726 -5.22316,-0.85546 l -0.76258,-0.18575 c 0,0 -0.3935,-0.10999 -0.15153,0.30063 0,0 0.10998,0.23953 0.20286,0.3544 l 0.74547,1.22697 c 0,0 0.36418,0.61592 -0.13199,1.2514 0,0 -1.34184,1.2563 1.32474,1.43717 0,0 4.57056,0.50105 5.37225,0.45461 0,0 -0.42529,-1.13164 -0.46439,-1.82823 -0.022,-0.11976 -0.10754,-0.56215 -0.47417,-1.0021 0.002,-0.002 -0.45217,-0.57193 -0.4375,-1.15364"
         inkscape:connector-curvature="0"
         style="fill:#ffc937;stroke-width:2.4441545" />
      <path
         id="path3924"
         d="m 131.68593,163.26771 c -0.005,-0.0293 -0.0342,-0.19065 -0.13687,-0.23953 -0.0587,-0.0342 -0.13443,-0.0244 -0.22731,0.0342 l -1.4836,1.18786 0.0342,0.005 c 0.5206,0.0904 1.06809,0.18576 1.67669,0.28597 l 0.01,0.005 0.005,-0.0147 c 0.1051,-0.29574 0.26397,-0.85056 0.12221,-1.26118 z"
         inkscape:connector-curvature="0"
         style="fill:#ffc937;stroke-width:2.4441545" />
      <path
         id="path3926"
         d="m 129.29066,156.17721 0.0758,-0.0562 -0.8799,0.34951 -0.0195,0.0147 0.0122,0.0195 c 0.24197,0.26153 0.24197,0.68681 0.21753,0.91656 l -0.002,0.0293 0.24197,-0.15643 v -0.01 c -0.14665,-0.57682 0.15887,-0.93856 0.3544,-1.10721"
         inkscape:connector-curvature="0"
         style="fill:#ffc937;stroke-width:2.4441545" />
      <path
         id="path3928"
         d="m 144.24644,149.41424 c -0.1051,0.10021 0.0318,0.44972 0.0929,0.57682 l 1.16342,2.03354 -1.51782,-0.65504 c -0.33974,-0.15642 -0.45951,-0.12954 -0.49861,-0.0855 -0.0807,0.10021 0.0782,0.3764 0.14909,0.47172 l 1.58381,1.93332 -1.7109,-0.56704 -0.0147,-0.005 -0.005,0.0147 c -0.0318,0.16131 -0.26885,0.37151 -0.36906,0.45461 l -0.0245,0.0196 0.0293,0.005 c 0.38129,0.0904 0.61104,0.25664 0.67948,0.49128 0.13932,0.4815 -0.41795,1.09253 -0.59149,1.2734 l -0.0171,0.0147 0.022,0.01 c 0.17842,0.066 0.57682,0.29086 0.4815,0.94589 l -0.005,0.0293 0.0293,-0.0147 c 0.0147,-0.005 0.0342,-0.01 0.0513,-0.0147 h 0.01 c 0.0122,-0.01 0.0293,-0.01 0.0367,-0.0147 h 0.005 c 0.14176,-0.0513 0.28841,-0.0807 0.44972,-0.0807 0.0342,0 0.0635,0.005 0.0953,0.005 h 0.022 l -0.005,-0.0196 c -0.0416,-0.15153 -0.23464,-0.94588 0.12465,-1.3174 0.19309,-0.2053 0.51816,-0.25419 0.96056,-0.1442 l 0.0196,0.005 v -0.0196 c -0.0269,-0.21019 -0.13199,-1.28318 0.34707,-1.60825 0.22731,-0.14909 0.55238,-0.10021 0.96788,0.14421 l 0.007,0.01 0.007,-0.01 c 0.0611,-0.044 0.59882,-0.43995 0.89212,-0.55483 l 0.005,-0.005 c 0.0318,-0.044 0.32263,-0.40084 0.65015,-0.5206 l 0.0244,-0.0147 -0.0196,-0.0196 c -0.51328,-0.51083 -2.52237,0.16132 -2.60792,0.19553 l -0.0415,0.01 2.28529,-1.78423 c 0.2713,-0.28108 0.29085,-0.41062 0.25663,-0.46684 -0.0806,-0.12954 -0.53282,-0.0147 -0.53771,-0.0147 l -0.88967,0.35685 -0.0611,-2.28773 v -0.005 c -0.0318,-0.10999 -0.0831,-0.1662 -0.15153,-0.19065 -0.11977,-0.0342 -0.24931,0.0562 -0.26153,0.0709 l -0.005,0.005 c -0.16864,0.34463 -0.7528,1.95288 -0.75768,1.97244 l -0.002,0.005 -0.89456,-0.49616 c -0.2933,-0.18575 -0.41306,-0.17598 -0.4595,-0.13687"
         inkscape:connector-curvature="0"
         style="fill:#ffc937;stroke-width:2.4441545" />
      <path
         id="path3930"
         d="m 135.20551,150.65831 0.0318,0.005 c 0.0855,0 0.24197,0.0293 0.34462,0.0904 l 0.0196,0.0147 0.005,-0.0293 c 0.0147,-0.11488 0.0562,-0.49616 0.0733,-0.61104 l 0.007,-0.066 -0.0367,0.0562 c -0.0709,0.1051 -0.20287,0.28597 -0.42284,0.51083 z"
         inkscape:connector-curvature="0"
         style="fill:#ffc937;stroke-width:2.4441545" />
      <path
         id="path3932"
         d="m 134.48449,146.91631 0.005,0.005 h 0.0122 c 0.42772,0 0.70636,0.10999 0.82123,0.33974 0.25664,0.49616 -0.30552,1.36139 -0.42039,1.52759 l -0.0171,0.0245 h 0.0269 c 0.0318,0.005 0.0562,0.01 0.088,0.0195 0.0171,0 0.0318,0.005 0.0513,0.01 0.0195,0.005 0.0415,0.01 0.0611,0.0147 0.40329,0.0953 0.60127,0.36174 0.63793,0.41551 l 0.022,0.0342 0.4155,-3.73712 0.49372,4.60723 v 0.0342 l 0.0244,-0.0147 c 0.21509,-0.2102 0.45217,-0.29086 0.54505,-0.32019 l 0.0244,-0.01 -0.0171,-0.0196 c -0.44972,-0.5206 -0.61104,-0.95566 -0.4815,-1.26607 0.15643,-0.38129 0.7137,-0.48639 0.88234,-0.50594 l 0.0293,-0.005 -0.0196,-0.0196 c -0.5866,-0.60126 -0.47661,-1.34673 -0.43261,-1.56181 l 0.002,-0.0196 -0.79924,0.16132 0.92389,-1.0461 c 1.0681,-0.95567 1.05588,-1.30762 1.04366,-1.36628 v -0.01 h -0.01 c -0.0367,-0.01 -0.0831,-0.0196 -0.1271,-0.0196 -0.47416,0 -1.20497,0.57682 -1.23674,0.59637 l -0.002,0.005 -0.005,-0.005 c -0.14421,-0.19064 -0.25175,-0.80657 -0.25175,-0.81146 -0.0367,-0.61104 -0.16376,-1.18297 -0.18087,-1.25141 v -0.005 c -0.0807,-0.17597 -0.1662,-0.26152 -0.25663,-0.26152 -0.13443,0.005 -0.23464,0.2102 -0.2542,0.25419 l -0.15887,1.04121 c -0.0807,0.43506 -0.2493,0.97766 -0.26641,1.03632 l -0.002,0.005 -0.007,-0.005 c -1.03387,-0.73569 -1.33695,-0.59637 -1.36872,-0.5817 l -0.002,0.005 v 0 c -0.10509,0.21509 0.44973,0.84079 0.45706,0.84568 l 1.19764,1.55204 -0.0244,-0.01 c -0.43995,-0.1662 -1.27585,-0.43017 -1.28563,-0.43017 -0.60126,-0.11976 -0.76258,-0.0513 -0.79679,0.0244 -0.0733,0.17109 0.45216,0.57682 0.65992,0.72347"
         inkscape:connector-curvature="0"
         style="fill:#ffc937;stroke-width:2.4441545" />
      <path
         id="path3934"
         d="m 128.49386,147.3807 0.0513,0.0391 -0.0587,-0.0196 c -0.01,-0.005 -1.31495,-0.5255 -2.0482,-0.62571 l -0.0367,-0.005 0.0196,0.0293 c 0.11977,0.17598 0.51572,0.79191 0.60371,1.45672 v 0.0244 l 0.0195,-0.01 c 0.18087,-0.0904 1.1072,-0.51571 1.51538,-0.14909 0.2713,0.24442 0.24686,0.79679 -0.0807,1.64247 l -0.007,0.0244 h 0.022 c 0.007,0 0.022,0 0.0367,0 h 0.002 c 0.17598,0 0.61104,0.0245 0.8359,0.29086 0.13443,0.15154 0.17598,0.36662 0.12465,0.64037 l -0.007,0.0342 0.0293,-0.0195 c 0.0733,-0.0489 0.18087,-0.1051 0.28108,-0.12465 l 0.0269,-0.005 -0.0171,-0.0195 c -0.14665,-0.16132 -0.61104,-0.72103 -0.46439,-1.18786 0.0855,-0.28108 0.36906,-0.47172 0.85056,-0.57193 l 0.022,-0.005 -0.18087,-0.25419 h -0.002 l -1.16098,0.15642 0.87257,-0.77724 0.007,-0.0147 -0.002,-0.005 c -0.022,-0.0758 -0.11977,-0.47172 0.0978,-0.74547 0.17843,-0.21997 0.51083,-0.29574 0.985,-0.24441 h 0.007 l 0.005,-0.01 c 0.0806,-0.0758 0.20042,-0.22975 0.15642,-0.3153 -0.0293,-0.0513 -0.13931,-0.1051 -0.50105,-0.0244 -0.0416,0.01 -1.17808,0.40084 -1.78179,0.82613 l -0.0342,0.0244 1.53493,-2.17286 c 0.0709,-0.1442 0.24197,-0.51571 0.17354,-0.5817 l -0.002,-0.005 c -0.0367,-0.0196 -0.40328,-0.12954 -1.30273,0.71613 l -0.007,0.01 -0.002,-0.01 c -0.0342,-0.0758 -0.34707,-0.71613 -0.47172,-1.37117 0,-0.01 -0.12221,-0.63059 -0.22975,-0.80657 h -0.002 c -0.0171,-0.0147 -0.1051,-0.0855 -0.20776,-0.0855 -0.007,0 -0.0171,0 -0.0293,0 -0.0684,0.0147 -0.12954,0.0513 -0.17842,0.12954 l -0.002,0.01 c -0.01,0.11488 -0.0684,0.70636 -0.0733,1.29785 0,0.0709 0.005,0.7308 -0.16376,0.96789 h -0.005 -0.005 c -0.005,-0.005 -0.63059,-0.46684 -1.30763,-0.46684 h -0.01 c -0.0269,0 -0.0758,0.005 -0.0978,0.044 -0.022,0.0342 -0.0122,0.0953 0.0318,0.17109 0.0318,0.0538 0.84812,1.18541 2.1704,2.09708"
         inkscape:connector-curvature="0"
         style="fill:#ffc937;stroke-width:2.4441545" />
      <path
         id="path3936"
         d="m 125.79063,152.84583 h -0.0367 c -0.18576,0 -0.83835,0.0195 -1.50316,0.23464 l -0.0367,0.0147 0.0367,0.0147 c 0.29575,0.14421 0.6697,0.37151 0.71125,0.39595 l 0.007,0.01 0.007,-0.01 c 0.39106,-0.26641 0.71125,-0.34462 0.94588,-0.21019 0.49372,0.27619 0.47173,1.35161 0.46195,1.5667 v 0.0196 l 0.0196,-0.005 c 0.4204,-0.14909 0.7528,-0.12465 0.96056,0.0611 0.37395,0.33485 0.26152,1.07298 0.21997,1.29296 l -0.002,0.0244 0.022,-0.005 c 0.0733,-0.01 0.14421,-0.0147 0.21264,-0.0147 h 0.005 l 1.12431,-0.98743 0.007,-0.01 -0.002,-0.01 c -0.0196,-0.0562 -0.0733,-0.26152 0.0318,-0.47172 0.0855,-0.16131 0.24441,-0.28108 0.48394,-0.34951 l 0.0293,-0.01 -0.0244,-0.0196 c -0.0904,-0.066 -0.24931,-0.20531 -0.32752,-0.35441 l -0.005,-0.01 -1.9431,0.55482 1.74512,-1.47138 0.007,-0.01 -0.002,-0.01 c -0.0171,-0.0611 -0.0782,-0.38618 0.45217,-0.63548 l 0.0122,-0.005 -0.005,-0.0147 c -0.007,-0.0147 -0.0244,-0.0342 -0.044,-0.0489 -0.0758,-0.0513 -0.29819,-0.11488 -0.93367,0.0562 l -1.75979,0.46684 1.51538,-1.40783 0.002,-0.005 c 0.007,-0.01 0.0293,-0.0342 0.0929,-0.1051 0.26152,-0.30063 0.55971,-0.65503 0.51083,-0.80168 l -0.002,-0.01 c -0.0196,-0.0196 -0.15153,-0.11976 -0.76257,0.13932 l -1.47383,0.76013 1.11942,-1.78179 c 0.005,-0.01 0.45706,-0.74547 0.35685,-0.95566 l -0.002,-0.005 -0.007,-0.005 c -0.0318,-0.0147 -0.2273,-0.0709 -0.76746,0.34951 l -0.47905,0.46684 -0.005,-0.005 c -0.0391,-0.0562 -0.37396,-0.62082 -0.45462,-1.00211 -0.0244,-0.0904 -0.2493,-0.88722 -0.41306,-1.17075 h -0.002 -0.005 c -0.0416,-0.005 -0.24197,-0.044 -0.37151,0.0709 l -0.005,0.005 v 0.01 c -0.01,0.11976 -0.066,0.78213 0.0196,1.42739 0,0.005 0.0416,0.64525 -0.10754,0.897 l -0.007,0.0122 -0.007,-0.005 c -0.10999,-0.0611 -1.10232,-0.57682 -1.43961,-0.33973 l -0.007,0.005 v 0.005 c -0.002,0.0709 0.0244,0.46195 1.10231,1.10232 l 1.20252,0.87256 -1.53981,-0.14909 h -0.007 c -0.21264,-0.0147 -0.71858,-0.0293 -0.79435,0.1442 -0.0318,0.0758 0.0245,0.17598 0.17109,0.3153 z"
         inkscape:connector-curvature="0"
         style="fill:#ffc937;stroke-width:2.4441545" />
      <path
         id="path3938"
         d="m 149.46471,155.46108 c 0,-0.0244 -0.0122,-0.044 -0.022,-0.0513 h -0.002 v 0 c -0.002,-0.0147 -0.01,-0.0342 -0.0196,-0.044 l 0.007,-0.01 c -0.002,0 -0.007,-0.01 -0.0171,-0.0196 l -0.007,0.0147 c -0.21265,-0.22486 -1.27341,-0.0391 -1.32229,-0.0293 l -0.0122,0.005 0.58415,-2.1533 c 0.0293,-0.11977 0.022,-0.20042 -0.0196,-0.22975 -0.044,-0.0391 -0.1271,-0.0196 -0.19309,0.0196 -0.45217,0.37151 -1.36628,1.81356 -1.37606,1.82823 l -0.002,0.0147 -0.40329,-0.65014 c -0.14909,-0.26153 -0.2933,-0.30552 -0.36662,-0.30552 -0.0293,0 -0.0513,0.005 -0.0562,0.005 -0.18575,0.0904 -0.0611,0.7308 -0.0587,0.73569 l 0.32019,2.0042 -0.95811,-0.97766 c -0.22486,-0.17109 -0.39107,-0.23464 -0.47417,-0.17109 -0.14665,0.0904 -0.0464,0.49128 -0.0342,0.53038 l 0.7528,1.93333 -1.14875,-0.82124 c -0.29819,-0.16131 -0.49861,-0.19553 -0.59882,-0.10021 -0.20531,0.19065 0.0684,0.86523 0.12954,1.00211 l 1.05588,1.81845 -1.56426,-1.10232 c -0.2322,-0.17109 -0.35685,-0.16131 -0.41062,-0.14909 -0.0611,0.0196 -0.0831,0.0611 -0.088,0.0709 v 0.005 c -0.18087,0.20531 0.12465,0.8359 0.1271,0.84079 l 0.76013,1.95288 -1.34917,-1.11698 -0.005,-0.005 c -0.1271,-0.044 -0.22975,-0.044 -0.30063,0.0244 -0.1882,0.15643 -0.10755,0.64526 -0.0978,0.70636 l 1.19275,1.97732 -1.49582,-0.97277 c -0.21509,-0.15154 -0.35685,-0.20531 -0.42284,-0.15154 -0.1051,0.0856 0.0122,0.43506 0.0904,0.61104 l 1.14631,1.80379 -1.65225,-0.99722 c -0.0929,-0.044 -0.16865,-0.044 -0.22731,-0.0147 -0.10265,0.066 -0.11243,0.22975 -0.11487,0.25419 -0.14176,0.54993 0.22242,1.27829 0.29574,1.42739 l 0.005,0.005 0.0635,0.0196 h 0.002 c 0.70392,-0.0709 0.97033,-0.13443 1.00211,-0.14421 1.71824,-0.56704 2.59569,-0.48638 3.03075,-0.31041 h 0.005 0.002 c 0.80413,-0.23952 0.96788,-0.42039 0.96544,-0.53038 -0.005,-0.17598 -0.3984,-0.2713 -0.41551,-0.27619 -1.01676,-0.26152 -1.69868,-0.45461 -1.7329,-0.48149 l -0.0147,-0.01 0.0147,-0.005 c 0.72836,-0.0953 2.39771,-0.46194 2.41727,-0.46683 0.2273,-0.1051 0.34218,-0.2102 0.3324,-0.30552 -0.0147,-0.18087 -0.44483,-0.28597 -0.44972,-0.28597 l -2.30484,-0.39106 2.94765,-0.56705 c 0.4375,-0.15642 0.66237,-0.31529 0.66726,-0.48638 0.007,-0.21998 -0.34219,-0.38129 -0.34463,-0.38129 l -1.71335,-0.56705 2.29017,-0.3544 c 0.29085,-0.0953 0.43506,-0.19064 0.44239,-0.30552 0.0122,-0.17598 -0.30796,-0.32996 -0.31529,-0.32996 l -1.81112,-0.67214 2.38305,-0.54505 c 0.18087,-0.066 0.39106,-0.17109 0.38373,-0.28108 -0.01,-0.16131 -0.4375,-0.26641 -0.44239,-0.26641 l -1.64492,-0.26152 1.96999,-0.83102 c 0.53527,-0.27618 0.62082,-0.42283 0.62326,-0.48149"
         inkscape:connector-curvature="0"
         style="fill:#ffc937;stroke-width:2.4441545" />
      <path
         id="path3940"
         d="m 138.40002,164.35535 -0.0269,0.01 0.0244,0.0196 c 0.19553,0.1491 0.32018,0.31041 0.36418,0.3764 l 0.01,0.0147 0.01,-0.0147 c 0.24442,-0.2493 0.34707,-0.42528 0.29819,-0.49616 -0.0831,-0.12465 -0.58171,0.0562 -0.67948,0.0904"
         inkscape:connector-curvature="0"
         style="fill:#ffc937;stroke-width:2.4441545" />
      <path
         id="path3942"
         d="m 139.06483,162.66156 c -0.0513,-0.11488 -0.32507,-0.0904 -0.40573,-0.0856 l -2.33172,0.3153 0.0416,-0.0147 c 1.41517,-0.64526 2.52481,-1.57648 2.53948,-1.58381 0.14665,-0.18087 0.20286,-0.30552 0.1662,-0.3764 -0.044,-0.0855 -0.21753,-0.0807 -0.30796,-0.0758 l -0.022,0.005 c -0.0244,0 -0.0416,0 -0.0513,-0.005 h -0.002 l -3.01365,0.73569 2.22663,-1.34673 c 1.24163,-0.69169 1.16342,-1.18786 1.16097,-1.20741 -0.007,-0.0513 -0.0342,-0.0856 -0.0806,-0.11976 -0.16376,-0.11488 -0.54261,-0.0342 -0.65748,-0.0147 l -2.04331,0.25664 2.41726,-1.44205 0.002,-0.01 c 0.16864,-0.16131 0.23464,-0.29574 0.19553,-0.38129 -0.0489,-0.10999 -0.24442,-0.12954 -0.35685,-0.12954 -0.01,0 -0.022,0 -0.0293,0 l -2.42704,0.18576 1.54226,-0.92634 c 0.88723,-0.55482 1.05587,-0.84079 1.07787,-0.96544 0.007,-0.0513 -0.01,-0.0758 -0.0122,-0.0758 -0.29819,-0.33973 -2.51503,0.61104 -2.53948,0.62571 l -0.0318,0.0147 0.0171,-0.0147 1.49582,-1.51782 c 0.5866,-0.59638 0.66237,-0.87746 0.65748,-0.99233 -0.005,-0.0562 -0.022,-0.0758 -0.0293,-0.0807 l -0.002,-0.005 c -0.0342,-0.0244 -0.0807,-0.0293 -0.13199,-0.0293 -0.38129,0 -1.17075,0.51083 -1.26607,0.56705 l -0.01,0.0147 -0.39106,-1.838 c -0.0562,-0.36662 -0.14421,-0.58171 -0.25664,-0.64037 -0.022,-0.01 -0.0513,-0.0195 -0.0782,-0.01 v 0 l -0.01,0.005 h -0.005 c -0.25174,0 -0.34951,1.45672 -0.34951,1.4836 -0.0367,0.34463 -0.24442,0.95567 -0.26397,1.02166 l -0.005,0.0147 -0.007,-0.005 c -0.90922,-0.74058 -1.32718,-0.60126 -1.37361,-0.58171 h -0.005 l -0.002,0.005 c -0.066,0.10998 0.18087,0.49127 0.28108,0.63059 l 1.68158,1.92844 -1.71335,-0.60615 c -0.60615,-0.13932 -0.68681,0.01 -0.68681,0.01 -0.0562,0.11488 0.17109,0.36174 0.26397,0.44973 l 1.88444,1.50315 -0.0293,-0.005 c -2.03598,-0.42528 -2.33661,-0.12954 -2.3415,-0.12465 -0.18575,0.30063 0.32263,0.64526 0.32752,0.65015 l 2.38305,1.3174 h -0.002 0.007 l 0.28352,0.15642 -2.53459,-0.41062 c -0.53771,-0.0904 -0.57438,0 -0.59637,0.0562 -0.002,0.01 -0.007,0.0195 -0.01,0.0293 l -0.005,0.005 v 0 c -0.0416,0.31529 0.38129,0.6257 0.3984,0.63548 l 2.05309,1.63269 -1.4445,-0.42039 c -0.26641,-0.0709 -0.40573,-0.0855 -0.42528,-0.0904 h -0.044 c -0.29819,0 -0.46928,0.0562 -0.51083,0.1662 -0.0831,0.22975 0.34462,0.59637 0.39595,0.64037 l 2.44416,1.52759 -2.44416,-0.44972 c -0.10999,-0.044 -0.20531,-0.0611 -0.28108,-0.0611 -0.1051,0 -0.14665,0.044 -0.15642,0.0562 -0.0733,0.0904 0.14909,0.32018 0.27863,0.42528 l 2.05065,1.16586 0.0122,0.01 0.007,-0.01 c 0.58171,-0.88722 1.80379,-0.39106 1.85511,-0.36662 l 0.005,0.005 0.005,-0.005 c 0.81879,-0.36662 1.35406,-0.85545 1.35895,-0.86034 0.10754,-0.11976 0.2493,-0.27619 0.20775,-0.36662"
         inkscape:connector-curvature="0"
         style="fill:#ffc937;stroke-width:2.4441545" />
      <path
         id="path3944"
         d="m 133.48972,164.20137 c -0.0904,0 -0.15399,0.0196 -0.18087,0.0611 -0.0342,0.044 -0.0318,0.10021 0.002,0.19064 l 0.007,0.0195 0.0147,-0.0147 c 0.0831,-0.0856 0.17354,-0.15643 0.26641,-0.21997 l 0.0367,-0.0245 -0.0391,-0.005 c -0.0391,0.002 -0.0758,-0.007 -0.10754,-0.007"
         inkscape:connector-curvature="0"
         style="fill:#ffc937;stroke-width:2.4441545" />
      <path
         id="path3946"
         d="m 130.80603,161.67167 c -0.0684,-0.0513 -0.20775,0.0147 -0.41061,0.18576 l -1.51782,1.19275 1.13653,-2.16797 v -0.01 c 0.01,-0.0855 0.044,-0.55482 -0.14909,-0.69169 -0.0758,-0.0562 -0.17598,-0.0562 -0.30064,0 l -1.70602,2.02376 1.05344,-2.81078 c 0.0244,-0.0611 0.2493,-0.66236 0.066,-0.84568 h -0.005 c -0.002,-0.0195 -0.0293,-0.0611 -0.0929,-0.0758 -0.066,-0.0147 -0.18575,0 -0.3984,0.18576 l -1.41272,1.05588 0.85301,-1.7378 c 0.0147,-0.0342 0.30797,-0.77235 0.0782,-0.97766 -0.1051,-0.0904 -0.31286,-0.0489 -0.61838,0.12954 l -1.12675,0.88723 0.65748,-1.97732 c 0.007,-0.044 0.0782,-0.44973 -0.0758,-0.53038 -0.0904,-0.0513 -0.24686,0.0196 -0.46439,0.21508 l -0.98988,1.20741 0.28107,-2.18751 c 0,-0.01 0.066,-0.68192 -0.11243,-0.77725 l -0.005,-0.01 -0.007,0.01 c -0.044,0.0196 -0.26152,0.11977 -0.39106,0.38129 l -0.35441,0.67214 -0.005,-0.0147 c -0.007,-0.01 -1.02899,-1.3785 -1.51049,-1.71335 h -0.002 c -0.0611,-0.0293 -0.1442,-0.0489 -0.19064,-0.01 -0.0391,0.0391 -0.0391,0.11488 0,0.23464 l 0.74302,2.09953 h -0.0147 c -0.2322,-0.0293 -1.3785,-0.12465 -1.4225,0.1662 l -0.005,0.01 c -0.002,0.01 -0.002,0.0195 0,0.0391 0.0196,0.0807 0.16376,0.21509 0.71858,0.44484 l 2.29995,0.80657 -1.8991,0.25664 c -0.0464,0.01 -0.44728,0.13443 -0.44728,0.28596 0,0.0611 0.0733,0.16132 0.4375,0.26642 l 2.53703,0.28107 -1.882,0.88723 c -0.005,0 -0.31774,0.1491 -0.30307,0.3153 0.01,0.11976 0.1662,0.21997 0.48638,0.31041 l 2.92321,0.18086 -2.28773,0.69659 c -0.0953,0.0342 -0.40084,0.16131 -0.40084,0.33485 0,0.17109 0.26642,0.33973 0.79435,0.50594 l 2.16797,0.29085 -1.46649,0.62082 c -0.11244,0.0342 -0.4815,0.15153 -0.48395,0.3104 -0.002,0.10021 0.13932,0.20042 0.4204,0.29575 h 0.0147 c 0.57927,0.0611 1.98954,0.21997 2.60058,0.26152 h 0.0147 l -0.0122,0.005 c -0.0171,0.0147 -0.1882,0.0855 -1.45916,0.49616 l -0.066,0.0293 0.0684,0.005 c 0.044,0.01 0.0904,0.0147 0.1271,0.0195 h 0.002 c 0.44484,0.11977 1.24408,0.27619 2.37816,0.47661 h 0.01 l 1.07543,-1.93821 c 0.0562,-0.13932 0.16376,-0.52305 0.0513,-0.60371"
         inkscape:connector-curvature="0"
         style="fill:#ffc937;stroke-width:2.4441545" />
      <path
         id="path3948"
         d="m 132.51694,158.90733 c 0.0367,-0.26641 0.22487,-0.49616 0.55483,-0.66236 l 0.0122,-0.01 -0.01,-0.0147 c -0.0904,-0.12954 -0.53283,-0.78213 -0.35685,-1.28807 0.0904,-0.25419 0.31774,-0.43017 0.68192,-0.53527 l 0.0244,-0.01 -0.0171,-0.0195 c -0.0978,-0.10021 -0.42284,-0.44484 -0.47173,-0.73569 l -0.002,-0.0147 -1.00455,0.21998 0.97033,-0.66237 0.005,-0.005 v -0.005 c 0.0196,-0.0513 0.20286,-0.53527 0.88234,-0.57682 h 0.0293 l -0.0195,-0.0244 c -0.13688,-0.16131 -0.56949,-0.75035 -0.39596,-1.34184 l 0.005,-0.0196 h -0.46928 l 0.79924,-0.47661 c 0.0489,-0.044 0.10021,-0.0758 0.1491,-0.11488 l 0.005,0.005 -0.005,-0.005 c 0.0464,-0.0391 0.0904,-0.0758 0.14176,-0.1051 l 0.85056,-0.46683 h 0.002 c 0.10754,-0.0807 0.46927,-0.3544 0.4155,-0.52549 -0.0342,-0.0953 -0.20775,-0.13932 -0.52305,-0.12954 l -2.26573,0.18086 0.0244,-0.01 c 0.0171,-0.0147 1.9651,-1.20253 2.20219,-1.47872 0.0733,-0.0758 0.30307,-0.33484 0.23464,-0.4595 -0.0318,-0.066 -0.1491,-0.10998 -0.52794,-0.0293 -0.0978,0.0342 -0.59638,0.18576 -0.90189,0.32508 l -0.93612,0.4155 1.74757,-2.04331 c 0.0171,-0.0196 0.37885,-0.47661 0.26886,-0.6257 -0.0464,-0.0562 -0.1882,-0.0953 -0.61348,0.0855 -0.002,0 -0.48883,0.17109 -0.76258,0.4815 l -0.007,0.01 -0.005,-0.01 c -0.01,-0.0293 -0.24686,-0.59637 -0.32751,-1.50804 0,-0.0245 -0.0416,-0.59149 -0.17354,-0.78213 h -0.005 -0.005 c -0.044,-0.0147 -0.26397,-0.0562 -0.36662,0 h -0.005 v 0.0147 c -0.0342,0.16132 -0.1442,0.73569 -0.19309,1.30762 -0.0122,0.0758 -0.11732,0.74058 -0.29818,0.96789 l -0.005,0.005 -0.005,-0.005 c -0.0318,-0.0293 -0.7528,-0.60615 -1.2343,-0.60615 -0.0489,0 -0.0929,0.01 -0.13443,0.0244 h -0.007 l -0.002,0.01 c -0.022,0.066 -0.0635,0.44972 1.03143,1.38339 l 1.01188,1.1512 -1.81112,-0.5866 c -0.005,0 -0.62815,-0.15154 -0.7088,0.0196 -0.0367,0.0709 0.0147,0.22486 0.46439,0.5866 l 1.52759,1.18786 -1.57892,-0.12465 c -0.0538,0.005 -0.53527,0.0293 -0.60126,0.25419 -0.0513,0.17109 0.12954,0.40573 0.54016,0.70147 l 2.5688,1.30273 -2.59813,-0.34951 c -0.005,0 -0.54994,-0.0807 -0.63548,0.10999 -0.0538,0.10998 0.0635,0.29085 0.34462,0.54504 l 0.80168,0.58171 c 0.15887,0.11977 0.7137,0.53038 1.01188,0.80657 l 0.0147,0.0147 -1.50316,-0.23464 h -0.0244 c -0.13687,0 -0.59393,0.0196 -0.65992,0.21509 -0.0513,0.14909 0.1051,0.34462 0.4815,0.61103 l 2.27795,1.32718 -2.3415,-0.32507 c -0.0122,0 -0.0293,0 -0.0464,0 -0.0635,0 -0.38129,0.005 -0.41795,0.12465 -0.0196,0.066 0.0269,0.18087 0.3544,0.38618 l 2.16797,1.27096 -2.44416,-0.20531 -0.0244,-0.005 0.005,0.0244 c 0.10266,0.39595 0.0122,0.84568 -0.0171,0.96789 l -0.007,0.0244 0.0244,-0.005 c 0.26886,-0.044 0.48394,0.0147 0.6477,0.16131 0.38129,0.35685 0.3373,1.1512 0.32263,1.30763 v 0.0147 h 0.0342 c 0.0122,0 0.022,0 0.0342,0 0.25908,0 0.4595,0.0807 0.59637,0.23953 0.29574,0.3544 0.1882,0.98744 0.16131,1.11209 l -0.002,0.0195 h 0.0171 c 0.30307,0.0293 0.53771,0.14909 0.69414,0.36662 0.40817,0.54994 0.22486,1.57893 0.1271,1.99443 l -0.002,0.0147 0.28841,0.0513 -0.007,-0.0245 c -0.0342,-0.10998 -0.13932,-0.48638 -0.005,-0.78701 0.066,-0.15154 0.18576,-0.26153 0.35196,-0.32996 l 0.0171,-0.01 -0.0122,-0.0147 c -0.0807,-0.10509 -0.47661,-0.64036 -0.37885,-1.09253 0.0464,-0.20531 0.1882,-0.36663 0.41795,-0.4815 l 0.0171,-0.01 -0.01,-0.0147 c -0.0904,-0.12465 -0.52794,-0.78702 -0.37396,-1.28318 0.0635,-0.21509 0.2322,-0.37151 0.49616,-0.46684 l 0.022,-0.0147 -0.0171,-0.0147 c -0.11732,-0.10998 -0.67214,-0.69658 -0.59393,-1.24652"
         inkscape:connector-curvature="0"
         style="fill:#ffc937;stroke-width:2.4441545" />
      <path
         id="path3950"
         d="m 142.20068,146.18062 0.005,0.005 h 0.005 c 0.044,0.005 0.43506,0.0391 0.59393,0.34951 0.1662,0.32997 0.0293,0.83102 -0.41062,1.50316 l -0.0147,0.0195 0.0269,0.01 c 0.16132,0.0244 0.70147,0.13443 0.84812,0.51572 0.12466,0.32996 -0.0538,0.76257 -0.53527,1.29295 l -0.0171,0.0245 h 0.0269 c 0.14421,0.0244 0.52549,0.12465 0.93856,0.53038 l 0.0635,0.0611 -0.0367,-0.0807 c -0.15887,-0.32996 -0.36173,-0.99232 0.0807,-1.65225 h 0.002 v 0 c 0.81391,-0.15642 1.26363,0.1711 1.37851,0.26642 l 0.022,0.0244 0.0733,-0.36662 -0.0147,-0.005 c -0.64281,-0.19065 -1.1072,-0.12954 -1.32473,-0.0807 l -0.022,0.005 0.0122,-0.0196 c 0.11977,-0.13443 0.26886,-0.26642 0.43995,-0.38618 l 1.01188,-0.7308 c 0.0538,-0.0562 0.22486,-0.23953 0.17598,-0.34952 -0.044,-0.10021 -0.23953,-0.1051 -0.3984,-0.0855 l -1.99687,0.40084 1.98465,-1.7769 c 0.0513,-0.0562 0.31286,-0.35685 0.22975,-0.49128 -0.0342,-0.0562 -0.15398,-0.10021 -0.53527,0.005 -0.002,0 -0.36417,0.1491 -0.82856,0.43017 l -0.01,0.005 -0.22731,-2.18996 c -0.007,-0.0391 -0.0611,-0.21997 -0.18575,-0.2493 -0.088,-0.0147 -0.19065,0.0513 -0.30308,0.19553 l -0.66725,2.0482 -0.01,-0.005 c -0.0171,-0.0293 -0.46683,-0.54505 -1.03143,-0.68681 -0.0562,-0.0244 -0.20776,-0.0758 -0.25908,-0.0147 -0.0538,0.0611 0,0.19553 0.0587,0.30552 0.0416,0.0806 0.39839,0.78213 0.85056,1.17319"
         inkscape:connector-curvature="0"
         style="fill:#ffc937;stroke-width:2.4441545" />
      <path
         id="path3952"
         d="m 143.40076,157.74392 c -0.002,-0.0147 -0.01,-0.0342 -0.0147,-0.0562 l -0.002,-0.0147 -3.2605,0.43994 2.27795,-1.33695 c 0.49128,-0.3764 0.54994,-0.55971 0.51328,-0.65503 -0.0611,-0.15154 -0.43262,-0.13443 -0.54505,-0.12465 l -2.1533,0.3544 2.26084,-1.37117 c 0.41062,-0.33974 0.4595,-0.48639 0.42773,-0.55482 -0.0538,-0.10999 -0.38129,-0.0611 -0.50105,-0.0391 l -2.89388,0.56704 2.70323,-1.6278 c 0.52794,-0.43506 0.75525,-0.74058 0.68192,-0.89701 -0.0831,-0.18087 -0.51816,-0.12954 -0.60859,-0.11487 l -1.75246,0.26152 1.89911,-1.33206 c 0.24441,-0.19554 0.34707,-0.34463 0.31041,-0.44973 -0.0489,-0.13443 -0.33241,-0.14909 -0.45217,-0.14909 -0.007,0 -0.0122,0 -0.0147,0 l -2.16552,0.15642 1.92599,-1.3174 c 0.37152,-0.28596 0.54016,-0.48638 0.49372,-0.59148 -0.0684,-0.14909 -0.60859,-0.0513 -0.8139,0 l -1.68402,0.69169 1.69869,-1.97243 c 0.3544,-0.36662 0.50594,-0.61104 0.44239,-0.70147 -0.0196,-0.0293 -0.0611,-0.0489 -0.12465,-0.0489 -0.18332,0 -0.54261,0.12954 -0.80169,0.2493 l -0.52549,0.37151 -0.48394,-2.17285 c -0.0684,-0.13932 -0.14176,-0.20531 -0.2102,-0.20531 v 0 h -0.0147 v 0 c -0.12709,0.0196 -0.21019,0.22486 -0.21264,0.23464 l -0.43506,2.03842 -0.82123,-0.3764 c -0.38618,-0.1442 -0.51327,-0.10998 -0.55483,-0.0611 -0.0855,0.12465 0.15399,0.45461 0.2542,0.57193 l 1.52271,1.91377 -1.12676,-0.46194 c -0.6257,-0.21997 -0.98499,-0.25664 -1.07054,-0.13443 -0.088,0.14421 0.17354,0.43995 0.22975,0.50105 l 1.73046,1.5276 h -0.0269 c -1.37606,-0.2713 -2.12642,-0.29085 -2.21685,-0.0562 -0.0978,0.23953 0.58171,0.67215 0.59148,0.67703 l 2.20463,1.16587 -2.80344,-0.33485 h -0.022 l 0.0782,0.5206 h 0.0171 c 0.85301,-0.22975 1.38828,-0.19553 1.59603,0.10021 0.13932,0.19553 0.12221,0.51083 -0.0464,0.93611 l 0.62815,0.40085 -0.8139,-0.0489 c -0.0513,0.10021 -0.11243,0.20042 -0.19309,0.33974 l -0.0147,0.0196 0.0244,0.005 c 0.42039,0.066 0.70147,0.20531 0.82123,0.4204 l -0.0147,0.01 0.0195,-0.01 c 0.0171,0.0391 0.0318,0.0709 0.044,0.10509 0.0611,0.19065 0.022,0.42529 -0.12221,0.70636 0,0 -0.044,0.066 -0.10754,0.15643 l 0.62326,0.43995 -0.83591,-0.15154 c -0.0367,0.0513 -0.0733,0.10021 -0.11732,0.16132 l -0.0196,0.0147 0.0269,0.01 c 0.43506,0.0904 0.70147,0.27619 0.7919,0.54993 0.16376,0.47661 -0.28596,1.07299 -0.3764,1.18297 l -0.0122,0.0196 0.0171,0.01 c 0.33485,0.15643 0.5255,0.3764 0.5646,0.64037 0.0904,0.55482 -0.50349,1.17808 -0.62326,1.29785 l -0.0195,0.0196 0.0269,0.005 c 0.32997,0.0807 0.53283,0.22975 0.6086,0.44483 0.16131,0.49128 -0.37396,1.16098 -0.4815,1.28807 l -0.0122,0.0147 0.0196,0.01 c 0.28108,0.0904 0.45217,0.23952 0.50594,0.43994 0.12221,0.46684 -0.39351,1.07054 -0.4986,1.18297 l -0.0147,0.0147 0.022,0.01 c 0.20286,0.066 0.33974,0.18086 0.40573,0.34951 0.15887,0.38618 -0.10021,0.93611 -0.21998,1.15608 l -0.0122,0.0245 h 0.0293 c 0.25908,-0.0147 0.5035,-0.0293 0.72836,-0.044 l 0.0196,-0.005 -0.005,-0.0147 c -0.10999,-0.32996 -0.43995,-1.45183 -0.0562,-2.07753 0.14421,-0.23464 0.36662,-0.3764 0.6697,-0.42529 l 0.0171,-0.005 -0.005,-0.0196 c -0.0342,-0.11976 -0.18576,-0.74546 0.0807,-1.12186 0.12954,-0.17598 0.33973,-0.27619 0.62326,-0.28597 h 0.0171 l -0.002,-0.0195 c -0.0244,-0.15154 -0.1271,-0.93612 0.22486,-1.32229 0.13932,-0.13443 0.32263,-0.20531 0.55238,-0.20531 0.0269,0 0.0538,0 0.0904,0 h 0.0244 l -0.01,-0.0244 c -0.044,-0.13932 -0.25419,-0.84079 0.0416,-1.3174 0.15398,-0.25419 0.42773,-0.40573 0.80902,-0.45461 h 0.0196 z"
         inkscape:connector-curvature="0"
         style="fill:#ffc937;stroke-width:2.4441545" />
    </g>
  </g>
</svg>
