<?xml version="1.0" encoding="utf-8"?>
<!-- Generator: Adobe Illustrator 15.0.0, SVG Export Plug-In . SVG Version: 6.00 Build 0)  -->
<!DOCTYPE svg PUBLIC "-//W3C//DTD SVG 1.1//EN" "http://www.w3.org/Graphics/SVG/1.1/DTD/svg11.dtd">
<svg version="1.1" id="Layer_1" xmlns="http://www.w3.org/2000/svg" xmlns:xlink="http://www.w3.org/1999/xlink" x="0px" y="0px"
	 width="178.748px" height="56.88px" viewBox="-56.349 -2.179 178.748 56.88" enable-background="new -56.349 -2.179 178.748 56.88"
	 xml:space="preserve">
<g>
	<path fill="#231F20" d="M-10.241-2.179h-46.108l0.001,0.4c0.001,0.166,0.057,17.175,0,21.895c0.08,6.718,1.574,12.671,4.707,18.739
		c3.223,5.326,8.619,12.723,18.212,15.484l0.11,0.031l0.11-0.031c4.62-1.33,11.541-4.383,18.273-15.51
		c3.123-6.053,4.615-12.001,4.693-18.724c-0.058-4.783-0.001-21.729,0-21.885L-10.241-2.179z"/>
	<path fill="#003D2C" d="M-33.279,25.312l-17.433,13.5l-0.016,0.014l0.011,0.016c4.988,8.107,10.352,12.641,17.391,14.699h0.006
		h0.006c9.191-2.691,14.358-9.684,17.445-14.709l0.01-0.018l-17.408-13.493L-33.279,25.312z"/>
	<path fill="#003D2C" d="M-12.051,28.809l0.007-0.033c0.642-2.792,0.97-5.628,1.005-8.669c-0.055-4.639-0.003-20.782-0.002-21.467
		v-0.022h-44.511v0.022c0.009,2.826,0.052,17.144,0,21.478c0.035,3.04,0.364,5.875,1.008,8.672l0.007,0.031l21.257-16.171
		l21.201,16.14L-12.051,28.809z"/>
	<path fill="#FFC937" d="M-12.256,29.67l0.003-0.014l-21.026-16.008L-54.314,29.65l-0.01,0.01l0.001,0.014
		c0.005,0.029,0.01,0.064,0.016,0.098c0.328,1.271,0.734,2.559,1.205,3.83c0.717,1.881,1.492,3.59,2.02,4.459l0.014,0.021
		l17.789-13.776l17.771,13.772l0.02,0.014l0.013-0.02c0.084-0.139,0.175-0.301,0.272-0.482
		C-13.901,34.936-12.937,32.344-12.256,29.67"/>
	<path fill="#231F20" d="M-27.165,3.061l-1.142-0.009L-29.3,1.978l-0.108,0.034c-0.399,0.12-0.681,0.094-1.115-0.085
		c-0.487-0.276-0.852-0.38-1.348-0.38c-0.489,0-1.059,0.254-1.411,0.609c-0.353-0.354-0.922-0.609-1.411-0.609
		c-0.496,0-0.861,0.104-1.328,0.371c-0.468,0.195-0.736,0.216-1.135,0.095l-0.108-0.034l-0.996,1.079l-1.14,0.004l-0.001,8.41
		l5.143,0.023c0.172,0.215,0.543,0.363,0.977,0.363s0.806-0.148,0.976-0.363l5.142-0.023L-27.165,3.061z"/>
	<path fill="#FFC937" d="M-35.75,8.408c0.274-0.144,0.617-0.323,1.093-0.335c0.508-0.014,0.936,0.205,1.183,0.383v-5.92
		c-0.253-0.328-0.793-0.587-1.219-0.587c-0.434,0-0.741,0.087-1.173,0.334c-0.504,0.212-0.826,0.246-1.225,0.157v5.93
		c0.205,0.165,0.359,0.253,0.783,0.253C-36.129,8.622-35.953,8.515-35.75,8.408"/>
	<path fill="#FFC937" d="M-37.403,8.907c0.245,0.17,0.593,0.258,1.001,0.24c0.193-0.009,0.378-0.081,0.591-0.165
		c0.294-0.116,0.628-0.247,1.097-0.259c0.583-0.012,0.925,0.222,1.083,0.367c0.01-0.016,0.02-0.035,0.028-0.051
		c0.049-0.091,0.097-0.176,0.144-0.252V8.761c-0.197-0.16-0.642-0.454-1.192-0.437c-0.423,0.009-0.724,0.168-0.99,0.307
		c-0.221,0.116-0.431,0.227-0.666,0.227c-0.442,0-0.654-0.081-0.884-0.256L-37.403,8.907z"/>
	<path fill="#FFC937" d="M-30.815,8.423c0.204,0.107,0.379,0.184,0.558,0.184c0.422,0,0.578-0.074,0.782-0.238v-5.93
		c-0.398,0.089-0.729,0.051-1.204-0.146c-0.452-0.256-0.759-0.375-1.192-0.375c-0.426,0-0.966,0.291-1.219,0.619v5.92
		c0.246-0.18,0.672-0.396,1.182-0.383C-31.431,8.085-31.089,8.28-30.815,8.423"/>
	<path fill="#FFC937" d="M-38.815,3.29v7.163h4.795c-0.017-0.042-0.03-0.088-0.041-0.135c-0.014-0.055-0.024-0.114-0.024-0.176
		c0-0.025,0.002-0.036,0.005-0.061c-0.029,0.006-0.058,0.014-0.089,0.015l-4.168,0.009V3.29H-38.815z"/>
	<polygon fill="#FFC937" points="-37.95,3.288 -37.95,9.281 -37.868,9.161 -37.868,3.194 	"/>
	<path fill="#FFC937" d="M-32.534,11.096l0.007-0.012l4.953-0.024v-0.377l-5.175,0.004c-0.143,0.127-0.332,0.206-0.542,0.206
		c-0.209,0-0.399-0.079-0.541-0.206h-5.157v0.374l4.952,0.024l0.018,0.026c0.087,0.19,0.384,0.33,0.738,0.33
		C-32.916,11.441-32.612,11.293-32.534,11.096"/>
	<path fill="#FFC937" d="M-32.566,10.453l4.816-0.003V3.287h-0.477v6.818l-4.162-0.009c-0.041-0.001-0.078-0.011-0.115-0.019
		c0.004,0.028,0.007,0.04,0.007,0.065c0,0.078-0.017,0.152-0.04,0.222C-32.546,10.395-32.555,10.423-32.566,10.453"/>
	<path fill="#FFC937" d="M-37.95,9.706l3.775-0.007c0.063-0.003,0.125-0.037,0.185-0.09c-0.148-0.099-0.475-0.259-1.013-0.243
		c-0.438,0.011-0.731,0.09-0.989,0.159c-0.213,0.056-0.396,0.105-0.613,0.105c-0.53,0-0.908-0.081-1.143-0.229l-0.203,0.29V9.706z"
		/>
	<path fill="#FFC937" d="M-33.106,8.787c0.048,0.076,0.095,0.161,0.143,0.252c0.01,0.018,0.02,0.036,0.03,0.052
		c0.159-0.145,0.503-0.377,1.082-0.366c0.47,0.01,0.803,0.141,1.098,0.257c0.213,0.084,0.398,0.156,0.59,0.164
		c0.413,0.019,0.758-0.069,1.002-0.239l-0.214-0.304c-0.229,0.173-0.44,0.254-0.882,0.254c-0.236,0-0.445-0.11-0.667-0.227
		c-0.266-0.138-0.568-0.298-0.99-0.308c-0.545-0.02-0.993,0.278-1.192,0.437V8.787z"/>
	<path fill="#FFC937" d="M-33.282,9.188c-0.003,0.006-0.007,0.012-0.01,0.02c-0.143,0.262-0.313,0.569-0.551,0.729
		c-0.028,0.063-0.046,0.132-0.046,0.205c0,0.306,0.269,0.554,0.597,0.554c0.33,0,0.598-0.248,0.598-0.554
		c0-0.083-0.022-0.16-0.059-0.23c-0.222-0.166-0.383-0.455-0.52-0.706C-33.275,9.2-33.279,9.194-33.282,9.188"/>
	<polygon fill="#FFC937" points="-37.486,8.616 -37.325,8.384 -37.325,2.579 -37.486,2.762 	"/>
	<path fill="#FFC937" d="M-36.605,9.514c0.202,0,0.378-0.047,0.583-0.103c0.264-0.071,0.563-0.152,1.017-0.164
		c0.595-0.01,0.944,0.169,1.1,0.276c0.077-0.093,0.149-0.208,0.217-0.327c-0.133-0.126-0.458-0.367-1.021-0.354
		c-0.449,0.011-0.772,0.138-1.058,0.249c-0.223,0.088-0.416,0.165-0.628,0.172c-0.436,0.02-0.807-0.077-1.073-0.261l-0.211,0.302
		C-37.467,9.441-37.112,9.514-36.605,9.514"/>
	<polygon fill="#FFC937" points="-37.75,8.993 -37.603,8.785 -37.603,2.894 -37.75,3.062 	"/>
	<path fill="#FFC937" d="M-29.959,9.631c-0.217,0-0.399-0.05-0.613-0.106c-0.259-0.07-0.551-0.148-0.988-0.159
		c-0.539-0.014-0.865,0.146-1.013,0.243c0.061,0.053,0.124,0.087,0.189,0.09l3.771,0.007V9.691L-28.816,9.4
		C-29.05,9.551-29.428,9.631-29.959,9.631"/>
	<polygon fill="#FFC937" points="-28.697,9.161 -28.613,9.28 -28.613,3.288 -28.697,3.194 	"/>
	<polygon fill="#FFC937" points="-28.961,8.784 -28.815,8.993 -28.815,3.062 -28.961,2.894 	"/>
	<path fill="#FFC937" d="M-30.167,9.263c-0.212-0.008-0.406-0.084-0.628-0.172c-0.285-0.111-0.61-0.238-1.058-0.248
		c-0.559-0.014-0.888,0.228-1.02,0.355c0.066,0.117,0.139,0.231,0.216,0.323c0.156-0.107,0.507-0.29,1.1-0.274
		c0.452,0.012,0.752,0.093,1.016,0.164c0.205,0.055,0.381,0.103,0.583,0.103c0.506,0,0.861-0.073,1.076-0.209l-0.212-0.302
		C-29.361,9.187-29.736,9.281-30.167,9.263"/>
	<polygon fill="#FFC937" points="-29.24,8.384 -29.078,8.615 -29.078,2.761 -29.24,2.579 	"/>
	<path fill="#231F20" d="M-42.464,2.271c-0.488,0-0.905,0.303-1.071,0.73c-0.038-0.004-0.077-0.006-0.116-0.006
		c-0.179,0-0.349,0.036-0.504,0.103c-0.128,0.055-0.246,0.13-0.348,0.222c-0.007,0.007-0.015,0.014-0.022,0.021
		c-0.247,0.23-0.4,0.558-0.4,0.918c0,0.199,0.046,0.387,0.128,0.555c0.135,0.275,0.369,0.494,0.653,0.612
		c0.012,0.792-0.164,1.286-0.397,1.348c-0.2,0.055-0.479-0.185-0.813-0.682c-0.077-0.114-0.154-0.242-0.231-0.382
		c-0.079,0.139-0.162,0.263-0.243,0.375c-0.333,0.443-0.7,0.645-0.882,0.582c-0.158-0.056-0.265-0.331-0.282-0.722
		c-0.005-0.128,0-0.265,0.014-0.409l0.002-0.001c0.005-0.058,0.02-0.141,0.023-0.198V5.333l0.001-0.012h0l0.013,0.002
		c0.102,0.014,0.213,0.008,0.328-0.018c0.021-0.006,0.042-0.012,0.062-0.018c0.108-0.032,0.218-0.08,0.323-0.145
		c0.271-0.167,0.41-0.4,0.479-0.622c0.079-0.249,0.067-0.482,0.056-0.585c-0.029-0.278-0.194-0.635-0.5-0.803
		c-0.083-0.046-0.233-0.105-0.408-0.135l-0.014-0.002l0.003-0.014c0.067-0.273,0.033-0.557-0.096-0.798
		c-0.12-0.224-0.302-0.384-0.572-0.505c-0.142-0.063-0.313-0.093-0.52-0.095c-0.208,0.002-0.379,0.032-0.521,0.095
		c-0.271,0.121-0.454,0.281-0.573,0.505c-0.128,0.241-0.163,0.525-0.096,0.798l0.003,0.014l-0.013,0.002
		c-0.176,0.029-0.326,0.088-0.41,0.134c-0.305,0.169-0.471,0.526-0.5,0.804c-0.01,0.103-0.021,0.336,0.056,0.585
		c0.07,0.222,0.208,0.456,0.479,0.622c0.116,0.072,0.239,0.125,0.359,0.157c0.015,0.004,0.029,0.006,0.043,0.01
		c0.108,0.023,0.213,0.027,0.31,0.014l0.006-0.002h0.007l0.001,0.014c0.002,0.033,0.003,0.064,0.005,0.097
		c0.002,0.026,0.003,0.05,0.004,0.077c0.011,0.142,0.023,0.305,0.018,0.436c-0.016,0.39-0.124,0.665-0.281,0.721
		c-0.181,0.063-0.55-0.138-0.881-0.582c-0.082-0.11-0.165-0.235-0.245-0.375c-0.077,0.14-0.153,0.268-0.229,0.382
		c-0.335,0.498-0.614,0.737-0.813,0.682c-0.234-0.062-0.41-0.556-0.398-1.348c0.285-0.118,0.519-0.337,0.654-0.612
		c0.083-0.167,0.129-0.356,0.129-0.555c0-0.361-0.154-0.688-0.401-0.918c-0.007-0.007-0.015-0.014-0.022-0.021
		c-0.102-0.092-0.22-0.167-0.348-0.222c-0.155-0.066-0.326-0.103-0.505-0.103c-0.039,0-0.077,0.002-0.115,0.006
		c-0.166-0.428-0.584-0.73-1.072-0.73c-0.633,0-1.147,0.511-1.147,1.137c0,0.514,0.345,1.04,0.818,1.181l0.92,5.133l0.066,0.428
		v0.006c0.091,0.118,0.855,0.933,4.65,0.933h0.001h0.002c3.816,0,4.579-0.823,4.664-0.933l0.002-0.001c0-0.001,0-0.001,0-0.001
		c0-0.002,0.001-0.002,0.001-0.002h0c0.022-0.135,0.044-0.269,0.067-0.403c0.321-1.75,0.643-3.41,0.965-5.16
		c0.49-0.169,0.818-0.704,0.818-1.181C-41.316,2.734-41.974,2.271-42.464,2.271"/>
	<path fill="#FFC937" d="M-43.706,10.046c-0.372-0.219-1.436-0.637-4.116-0.637c-2.682,0-3.752,0.418-4.129,0.637
		c0.372,0.219,1.436,0.636,4.115,0.636C-45.153,10.682-44.082,10.265-43.706,10.046"/>
	<path fill="#FFC937" d="M-42.636,5.025l0.088-0.391l0.064-0.393c0.373-0.042,0.769-0.451,0.769-0.833
		c0-0.409-0.336-0.742-0.749-0.742c-0.302,0-0.562,0.178-0.68,0.433c-0.044,0.095-0.069,0.198-0.069,0.309
		c0,0.036,0.002,0.07,0.008,0.103c-0.121-0.069-0.259-0.112-0.407-0.118c-0.013-0.001-0.025-0.002-0.04-0.002
		c-0.14,0-0.272,0.033-0.392,0.092c-0.134,0.067-0.25,0.169-0.335,0.293c-0.094,0.138-0.149,0.304-0.149,0.484
		c0,0.287,0.141,0.542,0.358,0.701c0.119,0.085,0.26,0.143,0.413,0.162c0.009,0.137,0.013,0.27,0.013,0.398
		c0,0.112-0.004,0.222-0.011,0.327c-0.07,0.949-0.409,1.236-0.681,1.309c-0.051,0.014-0.105,0.021-0.166,0.021
		c-0.261,0-0.574-0.156-0.999-0.743c-0.312,0.386-0.702,0.639-1.034,0.639c-0.071,0-0.142-0.012-0.21-0.035
		c-0.329-0.116-0.523-0.499-0.545-1.078c-0.006-0.136-0.002-0.279,0.011-0.428h0.002c0.001-0.014,0.005-0.05,0.006-0.063
		c0.004-0.086,0.011-0.177,0.019-0.278c0.003-0.03,0.005-0.06,0.008-0.093l0.025-0.312c0.014,0.009,0.029,0.017,0.045,0.028
		c0.058,0.03,0.135,0.064,0.227,0.083c0.061,0.014,0.128,0.022,0.202,0.02c0.009,0,0.018,0,0.027-0.002
		c0.076-0.004,0.227-0.027,0.379-0.123c0.099-0.059,0.189-0.154,0.256-0.272c0.086-0.153,0.129-0.345,0.087-0.543
		c-0.002-0.016-0.079-0.361-0.381-0.512c-0.134-0.066-0.257-0.068-0.4-0.068c-0.149-0.002-0.298,0.02-0.441,0.063
		c0.096-0.114,0.174-0.241,0.232-0.376c0.039-0.092,0.099-0.234,0.094-0.404c-0.002-0.055-0.005-0.175-0.072-0.304
		c-0.007-0.014-0.028-0.053-0.064-0.099c-0.07-0.088-0.172-0.162-0.312-0.224c-0.091-0.038-0.207-0.06-0.355-0.062
		c-0.149,0.002-0.266,0.024-0.356,0.062c-0.141,0.062-0.242,0.135-0.313,0.224c-0.036,0.045-0.057,0.085-0.063,0.099
		c-0.067,0.128-0.07,0.249-0.072,0.304c-0.005,0.169,0.056,0.312,0.094,0.404c0.057,0.136,0.135,0.262,0.232,0.376
		c-0.145-0.043-0.293-0.065-0.444-0.063c-0.142,0-0.264,0.002-0.398,0.068c-0.302,0.151-0.379,0.496-0.381,0.512
		c-0.042,0.199,0,0.39,0.087,0.543c0.065,0.118,0.157,0.213,0.255,0.272c0.153,0.096,0.303,0.119,0.379,0.123
		c0.007,0,0.015,0,0.021,0.002c0.062,0.002,0.121-0.002,0.175-0.014c0.103-0.018,0.189-0.052,0.253-0.086
		c0.02-0.01,0.037-0.021,0.052-0.031l0.026,0.312c0.002,0.031,0.005,0.06,0.007,0.089c0.009,0.116,0.016,0.224,0.021,0.321
		c0.007,0.146,0.011,0.315,0.006,0.451c-0.024,0.579-0.217,0.962-0.545,1.078c-0.07,0.023-0.14,0.035-0.211,0.035
		c-0.332,0-0.721-0.253-1.033-0.639c-0.424,0.587-0.737,0.743-1,0.743c-0.06,0-0.114-0.008-0.165-0.021
		c-0.272-0.072-0.611-0.36-0.68-1.309c-0.007-0.105-0.011-0.215-0.011-0.327c0-0.128,0.004-0.261,0.013-0.398
		c0.152-0.02,0.293-0.077,0.412-0.162c0.216-0.159,0.357-0.414,0.357-0.701c0-0.18-0.055-0.345-0.148-0.484
		c-0.084-0.124-0.2-0.226-0.336-0.293c-0.119-0.059-0.252-0.092-0.392-0.092c-0.013,0-0.026,0.001-0.04,0.002
		c-0.147,0.006-0.285,0.049-0.405,0.118c0.004-0.033,0.006-0.067,0.006-0.103c0-0.11-0.024-0.214-0.068-0.309
		c-0.118-0.255-0.379-0.433-0.68-0.433c-0.414,0-0.75,0.333-0.75,0.742c0,0.382,0.396,0.792,0.77,0.833l0.063,0.393l0.088,0.391
		l0.859,4.583l0.004,0.022h0l0.005,0.022c0.526-0.278,1.711-0.651,4.281-0.651h0c0,0,0.001,0,0.001,0c2.616,0,3.792,0.387,4.3,0.667
		l0.003-0.024c0.001,0,0.002,0,0.003,0l0-0.004l0.298-1.549L-42.636,5.025z"/>
	<path fill="#231F20" d="M-13.454,2.271c-0.488,0-0.905,0.303-1.071,0.73c-0.038-0.004-0.076-0.006-0.114-0.006
		c-0.18,0-0.351,0.036-0.506,0.103c-0.127,0.055-0.245,0.13-0.347,0.222c-0.008,0.007-0.015,0.014-0.022,0.021
		c-0.247,0.23-0.4,0.558-0.4,0.918c0,0.199,0.046,0.387,0.128,0.555c0.136,0.275,0.369,0.494,0.653,0.612
		c0.012,0.792-0.164,1.286-0.397,1.348c-0.2,0.055-0.479-0.185-0.813-0.682c-0.077-0.114-0.154-0.242-0.23-0.382
		c-0.08,0.139-0.163,0.263-0.244,0.375c-0.331,0.443-0.7,0.645-0.882,0.582c-0.158-0.056-0.265-0.331-0.28-0.722
		c-0.005-0.128-0.001-0.265,0.013-0.409l0.002-0.001c0.005-0.058,0.02-0.141,0.023-0.198V5.333l0-0.012h0l0.014,0.002
		c0.102,0.014,0.213,0.008,0.328-0.018c0.021-0.006,0.042-0.012,0.062-0.018c0.108-0.032,0.218-0.08,0.323-0.145
		c0.271-0.167,0.41-0.4,0.479-0.622c0.078-0.249,0.067-0.482,0.056-0.585c-0.029-0.278-0.194-0.635-0.5-0.803
		c-0.083-0.046-0.233-0.105-0.409-0.135l-0.013-0.002l0.003-0.014c0.067-0.273,0.033-0.557-0.096-0.798
		c-0.12-0.224-0.301-0.384-0.572-0.505c-0.143-0.063-0.312-0.093-0.52-0.095c-0.209,0.002-0.38,0.032-0.522,0.095
		c-0.271,0.121-0.453,0.281-0.572,0.505c-0.129,0.241-0.163,0.525-0.096,0.798l0.003,0.014l-0.014,0.002
		c-0.175,0.029-0.326,0.088-0.409,0.134c-0.305,0.169-0.471,0.526-0.501,0.804c-0.011,0.103-0.021,0.336,0.057,0.585
		c0.068,0.222,0.207,0.456,0.478,0.622c0.116,0.072,0.24,0.125,0.36,0.157c0.015,0.004,0.029,0.006,0.043,0.01
		c0.108,0.023,0.213,0.027,0.31,0.014l0.005-0.002h0.007l0.002,0.014c0.001,0.033,0.003,0.064,0.005,0.097
		c0.002,0.026,0.003,0.05,0.004,0.077c0.011,0.142,0.022,0.305,0.018,0.436c-0.015,0.39-0.124,0.665-0.281,0.721
		c-0.182,0.063-0.55-0.138-0.882-0.582c-0.081-0.11-0.164-0.235-0.244-0.375c-0.076,0.14-0.153,0.268-0.229,0.382
		c-0.334,0.498-0.615,0.737-0.813,0.682c-0.234-0.062-0.41-0.556-0.398-1.348c0.286-0.118,0.519-0.337,0.654-0.612
		c0.083-0.167,0.129-0.356,0.129-0.555c0-0.361-0.155-0.688-0.401-0.918c-0.008-0.007-0.015-0.014-0.021-0.021
		c-0.103-0.092-0.221-0.167-0.349-0.222c-0.156-0.066-0.326-0.103-0.505-0.103c-0.039,0-0.077,0.002-0.115,0.006
		c-0.166-0.428-0.583-0.73-1.071-0.73c-0.633,0-1.148,0.511-1.148,1.137c0,0.514,0.346,1.04,0.819,1.181l0.92,5.133l0.066,0.428
		l0,0.006c0.091,0.118,0.855,0.933,4.65,0.933h0.001h0.002c3.815,0,4.579-0.823,4.664-0.933l0.002-0.001c0-0.001,0-0.001,0-0.001
		c0-0.002,0-0.002,0-0.002h0c0.023-0.135,0.044-0.269,0.067-0.403c0.321-1.75,0.645-3.41,0.966-5.16
		c0.489-0.169,0.818-0.704,0.818-1.181C-12.306,2.734-12.963,2.271-13.454,2.271"/>
	<path fill="#FFC937" d="M-14.694,10.046c-0.373-0.219-1.437-0.637-4.117-0.637c-2.68,0-3.753,0.418-4.129,0.637
		c0.373,0.219,1.436,0.636,4.116,0.636C-16.143,10.682-15.071,10.265-14.694,10.046"/>
	<path fill="#FFC937" d="M-13.625,5.025l0.088-0.391l0.064-0.393c0.374-0.042,0.769-0.451,0.769-0.833
		c0-0.409-0.336-0.742-0.75-0.742c-0.301,0-0.562,0.178-0.68,0.433c-0.044,0.095-0.068,0.198-0.068,0.309
		c0,0.036,0.003,0.07,0.007,0.103c-0.12-0.069-0.258-0.112-0.406-0.118c-0.012-0.001-0.025-0.002-0.038-0.002
		c-0.142,0-0.275,0.033-0.393,0.092c-0.135,0.067-0.251,0.169-0.335,0.293c-0.095,0.138-0.149,0.304-0.149,0.484
		c0,0.287,0.141,0.542,0.357,0.701c0.119,0.085,0.26,0.143,0.413,0.162c0.009,0.137,0.013,0.27,0.012,0.398
		c0,0.112-0.003,0.222-0.011,0.327c-0.07,0.949-0.409,1.236-0.681,1.309c-0.05,0.014-0.105,0.021-0.165,0.021
		c-0.261,0-0.574-0.156-0.999-0.743c-0.313,0.386-0.702,0.639-1.034,0.639c-0.071,0-0.142-0.012-0.21-0.035
		c-0.329-0.116-0.523-0.499-0.546-1.078c-0.005-0.136-0.001-0.279,0.012-0.428h0.002c0.001-0.014,0.005-0.05,0.006-0.063
		c0.004-0.086,0.012-0.177,0.019-0.278c0.002-0.03,0.004-0.06,0.007-0.093l0.026-0.312c0.013,0.009,0.029,0.017,0.045,0.028
		c0.057,0.03,0.135,0.064,0.226,0.083c0.062,0.014,0.129,0.022,0.202,0.02c0.01,0,0.018,0,0.028-0.002
		c0.076-0.004,0.226-0.027,0.378-0.123c0.099-0.059,0.189-0.154,0.256-0.272c0.086-0.153,0.129-0.345,0.087-0.543
		c-0.003-0.016-0.079-0.361-0.381-0.512c-0.135-0.066-0.257-0.068-0.4-0.068c-0.149-0.002-0.298,0.02-0.442,0.063
		c0.097-0.114,0.175-0.241,0.232-0.376c0.039-0.092,0.099-0.234,0.095-0.404c-0.002-0.055-0.005-0.175-0.073-0.304
		c-0.006-0.014-0.027-0.053-0.063-0.099c-0.069-0.088-0.172-0.162-0.312-0.224c-0.091-0.038-0.207-0.06-0.354-0.062
		c-0.15,0.002-0.267,0.024-0.357,0.062c-0.14,0.062-0.242,0.135-0.313,0.224c-0.035,0.045-0.057,0.085-0.063,0.099
		c-0.067,0.128-0.071,0.249-0.072,0.304c-0.004,0.169,0.056,0.312,0.094,0.404c0.057,0.136,0.135,0.262,0.232,0.376
		c-0.146-0.043-0.294-0.065-0.444-0.063c-0.142,0-0.264,0.002-0.398,0.068c-0.303,0.151-0.379,0.496-0.382,0.512
		c-0.042,0.199,0.001,0.39,0.087,0.543c0.066,0.118,0.157,0.213,0.255,0.272c0.153,0.096,0.303,0.119,0.38,0.123
		c0.007,0,0.014,0,0.02,0.002c0.062,0.002,0.121-0.002,0.174-0.014c0.104-0.018,0.19-0.052,0.254-0.086
		c0.02-0.01,0.037-0.021,0.052-0.031l0.025,0.312c0.002,0.031,0.004,0.06,0.007,0.089c0.01,0.116,0.017,0.224,0.02,0.321
		c0.009,0.146,0.012,0.315,0.007,0.451c-0.024,0.579-0.217,0.962-0.545,1.078c-0.069,0.023-0.14,0.035-0.211,0.035
		c-0.331,0-0.721-0.253-1.033-0.639c-0.424,0.587-0.737,0.743-1,0.743c-0.059,0-0.114-0.008-0.165-0.021
		c-0.272-0.072-0.611-0.36-0.68-1.309c-0.008-0.105-0.011-0.215-0.011-0.327c0-0.128,0.003-0.261,0.012-0.398
		c0.154-0.02,0.295-0.077,0.413-0.162c0.217-0.159,0.357-0.414,0.357-0.701c0-0.18-0.055-0.345-0.149-0.484
		c-0.084-0.124-0.2-0.226-0.335-0.293c-0.118-0.059-0.252-0.092-0.392-0.092c-0.014,0-0.026,0.001-0.04,0.002
		c-0.147,0.006-0.285,0.049-0.407,0.118c0.006-0.033,0.008-0.067,0.008-0.103c0-0.11-0.024-0.214-0.068-0.309
		c-0.119-0.255-0.379-0.433-0.68-0.433c-0.414,0-0.75,0.333-0.75,0.742c0,0.382,0.396,0.792,0.769,0.833l0.064,0.393l0.088,0.391
		l0.859,4.583l0.004,0.022l0,0l0.005,0.022c0.526-0.278,1.711-0.651,4.281-0.651c0,0,0,0,0,0c0,0,0.001,0,0.001,0
		c2.617,0,3.792,0.387,4.299,0.667l0.004-0.024c0.001,0,0.002,0,0.003,0l0-0.004l0.299-1.549L-13.625,5.025z"/>
	<path fill="#231F20" d="M-28.073,36.934c0.239-0.57,0.127-0.717,0.127-0.717l0.532-1.586l-0.727,1.102
		c-0.024-0.025-0.087-0.078-0.212-0.102c0,0,0.442-0.379,0.272-0.625c0,0-0.089-0.225-0.62-0.158c0,0,0.072-0.547-0.094-0.742
		l0.133-2.262l-0.545,1.902c0,0-0.146-0.189-0.306-0.176c0,0,0.15-0.143,0.205-0.271c0,0,0.247-0.449-0.209-0.512
		c0,0-0.201-0.02-0.386,0.021c0,0,0.055-0.564-0.135-0.734l0.009-2.266l-0.51,2.205c0,0-0.165,0.02-0.302,0.684
		c0,0-0.29-0.217-0.685-0.047l-0.221-2.033l-0.257,2.25c0,0-0.149,0.121-0.167,0.338c0,0-0.071-0.02-0.142-0.025
		c0,0,0.193-0.244,0.208-0.385c0,0,0.061-0.355-0.24-0.393c0,0-0.191-0.037-0.447,0.064c0,0-0.022-0.613-0.22-0.713l-0.248-2.252
		l-0.255,2.25c0,0-0.239,0.084-0.218,0.695c0,0-0.528-0.141-0.663,0.047c0,0-0.148,0.354,0.183,0.688c0,0-0.226,0.012-0.268,0.092
		l-0.083-0.1l-0.247-2.25l-0.257,2.25c0,0-0.115,0.062-0.155,0.283c0,0-0.133-0.129-0.327-0.098c0,0,0.164-0.24,0.164-0.447
		c0,0,0.08-0.533-0.71-0.211c0,0-0.062-0.543-0.292-0.691l-0.472-2.213l-0.026,2.287c0,0-0.224,0.057-0.131,0.736
		c0,0-0.333-0.182-0.657,0.055l-0.38-1.332l0.133,2.26c0,0-0.165,0.141-0.093,0.742c0,0-1.24-0.191-0.349,0.785
		c0,0-0.741,0.189-0.042,0.756l-0.179,0.07l-1.032-1.303l0.627,1.533c0,0-0.09,0.195,0.18,0.707c0,0-1.078,0.195,0.001,0.826
		c0.021-0.018-0.614,0.379,0.237,0.715c0,0-0.41,0.416,0.263,0.717c0,0-0.306,0.465,0.407,0.678c0,0-0.379,0.346,0.374,0.729
		c-0.174,0.086-0.278,0.273-0.101,0.676l0.406,0.65c0,0-0.592,0.713-0.02,1.09l-0.011,0.156c0.05,0.574-1.368,3.4-1.661,3.914
		c-0.206,0.328-0.081,1.068,0.219,1.297c0.228,0.174,0.62,0.285,0.91,0.258c0.106,0.291,0.311,0.518,0.568,0.627
		c0.237,0.102,0.505,0.117,0.644,0.117c0.071,0,0.204-0.006,0.33-0.031c0.167,0.244,0.47,0.463,0.73,0.521
		c0.108,0.027,0.238,0.039,0.375,0.039c0.133,0,0.459-0.014,0.7-0.141c0.248,0.203,0.704,0.365,1.032,0.365h0.055
		c0.358-0.02,0.651-0.26,0.807-0.412c0.121,0.076,0.436,0.25,0.769,0.25h0.042c0.301-0.012,0.679-0.18,0.89-0.393
		c0.195,0.061,0.504,0.084,0.747-0.004c0.233-0.084,0.529-0.266,0.672-0.525c0.284,0.008,0.561-0.068,0.742-0.191
		c0.247-0.164,0.497-0.492,0.471-0.789l-0.025-0.078c-0.11-0.201-1.667-3.965-2.002-4.951c0.184-0.139,0.5-0.426,0.51-0.771
		c0,0,0.03-0.145,0.091-0.213c0,0,0.428-0.641,0.229-0.977l0.043-0.018c0.53-0.195,0.415-0.496,0.415-0.496
		c-0.012-0.051-0.078-0.133-0.078-0.133c0.734-0.426,0.256-0.668,0.256-0.668c0.694-0.24,0.37-0.719,0.37-0.719
		c0.699-0.422,0.164-0.717,0.164-0.717c0.846-0.369,0.224-0.732,0.224-0.732C-27.007,37.053-28.073,36.934-28.073,36.934"/>
	<path fill="#FFC937" d="M-36.844,43.418c-0.085,0.98-1.699,4.01-1.715,4.041c-0.157,0.23-0.013,0.656,0.113,0.752
		c0.133,0.102,0.385,0.176,0.575,0.176c0.071,0,0.108-0.008,0.123-0.016c0.158-0.357,1.337-3.828,1.413-4.115
		c0.029-0.107,0.142-0.174,0.252-0.146c0.111,0.029,0.177,0.143,0.148,0.252c-0.007,0.029-1.236,3.764-1.476,4.246
		c0.031,0.107,0.122,0.336,0.354,0.436c0.124,0.055,0.3,0.086,0.481,0.086c0.151,0,0.248-0.02,0.29-0.035
		c0.135-0.312,0.616-2.889,0.774-3.744c0.077-0.406,0.125-0.66,0.138-0.721c0.026-0.111,0.136-0.178,0.249-0.156
		c0.112,0.029,0.181,0.143,0.154,0.254c-0.014,0.055-0.059,0.301-0.123,0.643l-0.01,0.059c-0.519,2.779-0.698,3.543-0.813,3.826
		c0.083,0.135,0.3,0.33,0.495,0.377c0.075,0.018,0.177,0.025,0.283,0.025c0.271,0,0.465-0.057,0.538-0.111
		c0.085-0.51,0.351-4.182,0.351-4.523c0-0.115,0.093-0.205,0.207-0.205c0.114,0,0.208,0.09,0.208,0.205
		c0,0.244-0.241,3.824-0.356,4.578c0.128,0.119,0.497,0.285,0.784,0.285l0.034-0.004c0.223-0.01,0.455-0.191,0.601-0.359
		c-0.019-0.631-0.306-3.902-0.336-4.137c-0.014-0.113,0.067-0.217,0.18-0.232c0.054-0.006,0.108,0.01,0.152,0.041
		c0.044,0.035,0.072,0.082,0.08,0.139c0.003,0.023,0.319,3.242,0.324,4.166c0.116,0.084,0.368,0.225,0.597,0.225
		c0.277-0.014,0.574-0.191,0.658-0.291c-0.023-0.299-0.396-1.914-0.519-2.369c-0.03-0.111,0.037-0.223,0.146-0.252
		c0.055-0.016,0.11-0.008,0.158,0.018c0.047,0.027,0.081,0.074,0.096,0.127c0.004,0.016,0.449,1.787,0.521,2.389
		c0.135,0.039,0.334,0.059,0.477,0.004c0.232-0.084,0.433-0.248,0.472-0.387c-0.03-0.152-0.414-1.299-1.68-4.643l-0.019-0.049
		c-0.019-0.051-0.018-0.109,0.006-0.158c0.022-0.049,0.063-0.088,0.116-0.109c0.105-0.041,0.226,0.016,0.266,0.121l0.019,0.051
		c0.982,2.596,1.529,4.109,1.667,4.623h0.005c0.184,0,0.368-0.045,0.473-0.117c0.165-0.109,0.276-0.293,0.29-0.383
		c-0.175-0.402-1.584-3.75-1.982-4.898c-0.56,0.174-1.578,0.172-1.578,0.172c-0.006,0.369,0.477,1.359,0.477,1.359
		c-1.268,0.055-2.256-1.338-2.256-1.338c-1.247-0.043-2.383-0.188-2.757-0.242C-36.719,43.35-36.833,43.318-36.844,43.418"/>
	<path fill="#FFC937" d="M-32.034,41.668c0,0,0.22,0.314-0.119,1.482c0,0,1.092-0.043,1.297-0.094c0,0,0.137-0.045,0.2-0.092
		c0,0,0.344-0.211,0.417-0.32c0,0,0.065-0.094,0.102-0.252c0,0,0.019-0.234,0.116-0.332c0,0,0.172-0.223,0.246-0.514
		c0,0,0.104-0.195-0.257-0.143c0,0-0.366,0.051-0.566,0.113C-30.598,41.518-30.787,41.676-32.034,41.668"/>
	<path fill="#FFC937" d="M-33.087,42.719l-0.394-1.121c0,0-0.137-0.439-0.623-0.354c0,0-0.463,0.146-0.085,0.588
		c0,0,0.183,0.199,0.218,0.555c0,0-0.006,1.176,1.581,2.004c0,0-0.341-0.807-0.129-1.5c0,0,0.515-1.424-0.474-1.732
		c0,0-0.333-0.133-0.167,0.164c0,0,0.086,0.115,0.075,0.551L-33.087,42.719z"/>
	<path fill="#FFC937" d="M-34.753,41.539c0,0-1.793-0.273-2.137-0.35l-0.312-0.076c0,0-0.161-0.045-0.062,0.123
		c0,0,0.045,0.098,0.083,0.145l0.305,0.502c0,0,0.149,0.252-0.054,0.512c0,0-0.549,0.514,0.542,0.588c0,0,1.87,0.205,2.198,0.186
		c0,0-0.174-0.463-0.19-0.748c-0.009-0.049-0.044-0.23-0.194-0.41C-34.573,42.01-34.759,41.777-34.753,41.539"/>
	<path fill="#FFC937" d="M-35.169,40.518c-0.002-0.012-0.014-0.078-0.056-0.098c-0.024-0.014-0.055-0.01-0.093,0.014l-0.607,0.486
		l0.014,0.002c0.213,0.037,0.437,0.076,0.686,0.117l0.004,0.002l0.002-0.006c0.043-0.121,0.108-0.348,0.05-0.516V40.518z"/>
	<path fill="#FFC937" d="M-36.149,37.617l0.031-0.023l-0.36,0.143l-0.008,0.006l0.005,0.008c0.099,0.107,0.099,0.281,0.089,0.375
		l-0.001,0.012l0.099-0.064l0-0.004C-36.354,37.834-36.229,37.686-36.149,37.617"/>
	<path fill="#FFC937" d="M-30.03,34.85c-0.043,0.041,0.013,0.184,0.038,0.236l0.476,0.832l-0.621-0.268
		c-0.139-0.064-0.188-0.053-0.204-0.035c-0.033,0.041,0.032,0.154,0.061,0.193l0.648,0.791l-0.7-0.232l-0.006-0.002l-0.002,0.006
		c-0.013,0.066-0.11,0.152-0.151,0.186l-0.01,0.008l0.012,0.002c0.156,0.037,0.25,0.105,0.278,0.201
		c0.057,0.197-0.171,0.447-0.242,0.521l-0.007,0.006l0.009,0.004c0.073,0.027,0.236,0.119,0.197,0.387l-0.002,0.012l0.012-0.006
		c0.006-0.002,0.014-0.004,0.021-0.006h0.004c0.005-0.004,0.012-0.004,0.015-0.006h0.002c0.058-0.021,0.118-0.033,0.184-0.033
		c0.014,0,0.026,0.002,0.039,0.002h0.009l-0.002-0.008c-0.017-0.062-0.096-0.387,0.051-0.539c0.079-0.084,0.212-0.104,0.393-0.059
		l0.008,0.002l0-0.008c-0.011-0.086-0.054-0.525,0.142-0.658c0.093-0.061,0.226-0.041,0.396,0.059l0.003,0.004l0.003-0.004
		c0.025-0.018,0.245-0.18,0.365-0.227l0.002-0.002c0.013-0.018,0.132-0.164,0.266-0.213l0.01-0.006l-0.008-0.008
		c-0.21-0.209-1.032,0.066-1.067,0.08l-0.017,0.004l0.935-0.73c0.111-0.115,0.119-0.168,0.105-0.191
		c-0.033-0.053-0.218-0.006-0.22-0.006l-0.364,0.146l-0.025-0.936v-0.002c-0.013-0.045-0.034-0.068-0.062-0.078
		c-0.049-0.014-0.102,0.023-0.107,0.029l-0.002,0.002c-0.069,0.141-0.308,0.799-0.31,0.807l-0.001,0.002l-0.366-0.203
		C-29.962,34.83-30.011,34.834-30.03,34.85"/>
	<path fill="#FFC937" d="M-33.729,35.359l0.013,0.002c0.035,0,0.099,0.012,0.141,0.037l0.008,0.006l0.002-0.012
		c0.006-0.047,0.023-0.203,0.03-0.25l0.003-0.027l-0.015,0.023c-0.029,0.043-0.083,0.117-0.173,0.209L-33.729,35.359z"/>
	<path fill="#FFC937" d="M-34.024,33.828l0.002,0.002h0.005c0.175,0,0.289,0.045,0.336,0.139c0.105,0.203-0.125,0.557-0.172,0.625
		l-0.007,0.01h0.011c0.013,0.002,0.023,0.004,0.036,0.008c0.007,0,0.013,0.002,0.021,0.004c0.008,0.002,0.017,0.004,0.025,0.006
		c0.165,0.039,0.246,0.148,0.261,0.17l0.009,0.014l0.17-1.529l0.202,1.885l0,0.014l0.01-0.006c0.088-0.086,0.185-0.119,0.223-0.131
		l0.01-0.004l-0.007-0.008c-0.184-0.213-0.25-0.391-0.197-0.518c0.064-0.156,0.292-0.199,0.361-0.207l0.012-0.002l-0.008-0.008
		c-0.24-0.246-0.195-0.551-0.177-0.639l0.001-0.008l-0.327,0.066l0.378-0.428c0.437-0.391,0.432-0.535,0.427-0.559l0-0.004h-0.004
		c-0.015-0.004-0.034-0.008-0.052-0.008c-0.194,0-0.493,0.236-0.506,0.244l-0.001,0.002l-0.002-0.002
		c-0.059-0.078-0.103-0.33-0.103-0.332c-0.015-0.25-0.067-0.484-0.074-0.512l0-0.002c-0.033-0.072-0.068-0.107-0.105-0.107
		c-0.055,0.002-0.096,0.086-0.104,0.104l-0.065,0.426c-0.033,0.178-0.102,0.4-0.109,0.424l-0.001,0.002l-0.003-0.002
		c-0.423-0.301-0.547-0.244-0.56-0.238l-0.001,0.002l0,0c-0.043,0.088,0.184,0.344,0.187,0.346l0.49,0.635l-0.01-0.004
		c-0.18-0.068-0.522-0.176-0.526-0.176c-0.246-0.049-0.312-0.021-0.326,0.01C-34.324,33.602-34.109,33.768-34.024,33.828"/>
	<path fill="#FFC937" d="M-36.475,34.018l0.021,0.016l-0.024-0.008c-0.004-0.002-0.538-0.215-0.838-0.256l-0.015-0.002l0.008,0.012
		c0.049,0.072,0.211,0.324,0.247,0.596l0,0.01l0.008-0.004c0.074-0.037,0.453-0.211,0.62-0.061c0.111,0.1,0.101,0.326-0.033,0.672
		l-0.003,0.01h0.009c0.003,0,0.009,0,0.015,0h0.001c0.072,0,0.25,0.01,0.342,0.119c0.055,0.062,0.072,0.15,0.051,0.262l-0.003,0.014
		l0.012-0.008c0.03-0.02,0.074-0.043,0.115-0.051l0.011-0.002l-0.007-0.008c-0.06-0.066-0.25-0.295-0.19-0.486
		c0.035-0.115,0.151-0.193,0.348-0.234l0.009-0.002l-0.074-0.104h-0.001l-0.475,0.064l0.357-0.318l0.003-0.006l-0.001-0.002
		c-0.009-0.031-0.049-0.193,0.04-0.305c0.073-0.09,0.209-0.121,0.403-0.1h0.003l0.002-0.004c0.033-0.031,0.082-0.094,0.064-0.129
		c-0.012-0.021-0.057-0.043-0.205-0.01c-0.017,0.004-0.482,0.164-0.729,0.338l-0.014,0.01l0.628-0.889
		c0.029-0.059,0.099-0.211,0.071-0.238l-0.001-0.002c-0.015-0.008-0.165-0.053-0.533,0.293l-0.003,0.004l-0.001-0.004
		c-0.014-0.031-0.142-0.293-0.193-0.561c0-0.004-0.05-0.258-0.094-0.33h-0.001c-0.007-0.006-0.043-0.035-0.085-0.035
		c-0.003,0-0.007,0-0.012,0c-0.028,0.006-0.053,0.021-0.073,0.053l-0.001,0.004c-0.004,0.047-0.028,0.289-0.03,0.531
		c0,0.029,0.002,0.299-0.067,0.396h-0.002h-0.002c-0.002-0.002-0.258-0.191-0.535-0.191h-0.004c-0.011,0-0.031,0.002-0.04,0.018
		c-0.009,0.014-0.005,0.039,0.013,0.07C-37.35,33.182-37.016,33.645-36.475,34.018"/>
	<path fill="#FFC937" d="M-37.581,36.254h-0.015c-0.076,0-0.343,0.008-0.615,0.096l-0.015,0.006l0.015,0.006
		c0.121,0.059,0.274,0.152,0.291,0.162l0.003,0.004l0.003-0.004c0.16-0.109,0.291-0.141,0.387-0.086
		c0.202,0.113,0.193,0.553,0.189,0.641l0,0.008l0.008-0.002c0.172-0.061,0.308-0.051,0.393,0.025
		c0.153,0.137,0.107,0.439,0.09,0.529l-0.001,0.01l0.009-0.002c0.03-0.004,0.059-0.006,0.087-0.006h0.002l0.46-0.404l0.003-0.004
		l-0.001-0.004c-0.008-0.023-0.03-0.107,0.013-0.193c0.035-0.066,0.1-0.115,0.198-0.143l0.012-0.004l-0.01-0.008
		c-0.037-0.027-0.102-0.084-0.134-0.145l-0.002-0.004l-0.795,0.227l0.714-0.602l0.003-0.004l-0.001-0.004
		c-0.007-0.025-0.032-0.158,0.185-0.26l0.005-0.002l-0.002-0.006c-0.003-0.006-0.01-0.014-0.018-0.02
		c-0.031-0.021-0.122-0.047-0.382,0.023l-0.72,0.191l0.62-0.576l0.001-0.002c0.003-0.004,0.012-0.014,0.038-0.043
		c0.107-0.123,0.229-0.268,0.209-0.328l-0.001-0.004c-0.008-0.008-0.062-0.049-0.312,0.057l-0.603,0.311l0.458-0.729
		c0.002-0.004,0.187-0.305,0.146-0.391l-0.001-0.002l-0.003-0.002c-0.013-0.006-0.093-0.029-0.314,0.143L-37.18,34.9l-0.002-0.002
		c-0.016-0.023-0.153-0.254-0.186-0.41c-0.01-0.037-0.102-0.363-0.169-0.479h-0.001h-0.002c-0.017-0.002-0.099-0.018-0.152,0.029
		l-0.002,0.002v0.004c-0.004,0.049-0.027,0.32,0.008,0.584c0,0.002,0.017,0.264-0.044,0.367L-37.733,35l-0.003-0.002
		c-0.045-0.025-0.451-0.236-0.589-0.139l-0.003,0.002v0.002c-0.001,0.029,0.01,0.189,0.451,0.451l0.492,0.357l-0.63-0.061h-0.003
		c-0.087-0.006-0.294-0.012-0.325,0.059c-0.013,0.031,0.01,0.072,0.07,0.129L-37.581,36.254z"/>
	<path fill="#FFC937" d="M-27.895,37.324c0-0.01-0.005-0.018-0.009-0.021h-0.001h0c-0.001-0.006-0.004-0.014-0.008-0.018
		l0.003-0.004c-0.001,0-0.003-0.004-0.007-0.008l-0.003,0.006c-0.087-0.092-0.521-0.016-0.541-0.012l-0.005,0.002l0.239-0.881
		c0.012-0.049,0.009-0.082-0.008-0.094c-0.018-0.016-0.052-0.008-0.079,0.008c-0.185,0.152-0.559,0.742-0.563,0.748l-0.001,0.006
		l-0.165-0.266c-0.061-0.107-0.12-0.125-0.15-0.125c-0.012,0-0.021,0.002-0.023,0.002c-0.076,0.037-0.025,0.299-0.024,0.301
		l0.131,0.82l-0.392-0.4c-0.092-0.07-0.16-0.096-0.194-0.07c-0.06,0.037-0.019,0.201-0.014,0.217l0.308,0.791l-0.47-0.336
		c-0.122-0.066-0.204-0.08-0.245-0.041c-0.084,0.078,0.028,0.354,0.053,0.41l0.432,0.744l-0.64-0.451
		c-0.095-0.07-0.146-0.066-0.168-0.061c-0.025,0.008-0.034,0.025-0.036,0.029l0,0.002c-0.074,0.084,0.051,0.342,0.052,0.344
		l0.311,0.799l-0.552-0.457l-0.002-0.002c-0.052-0.018-0.094-0.018-0.123,0.01c-0.077,0.064-0.044,0.264-0.04,0.289l0.488,0.809
		l-0.612-0.398c-0.088-0.062-0.146-0.084-0.173-0.062c-0.043,0.035,0.005,0.178,0.037,0.25l0.469,0.738l-0.676-0.408
		c-0.038-0.018-0.069-0.018-0.093-0.006c-0.042,0.027-0.046,0.094-0.047,0.104c-0.058,0.225,0.091,0.523,0.121,0.584l0.002,0.002
		l0.026,0.008h0.001c0.288-0.029,0.397-0.055,0.41-0.059c0.703-0.232,1.062-0.199,1.24-0.127h0.002h0.001
		c0.329-0.098,0.396-0.172,0.395-0.217c-0.002-0.072-0.163-0.111-0.17-0.113c-0.416-0.107-0.695-0.186-0.709-0.197l-0.006-0.004
		l0.006-0.002c0.298-0.039,0.981-0.189,0.989-0.191c0.093-0.043,0.14-0.086,0.136-0.125c-0.006-0.074-0.182-0.117-0.184-0.117
		l-0.943-0.16l1.206-0.232c0.179-0.064,0.271-0.129,0.273-0.199c0.003-0.09-0.14-0.156-0.141-0.156l-0.701-0.232l0.937-0.145
		c0.119-0.039,0.178-0.078,0.181-0.125c0.005-0.072-0.126-0.135-0.129-0.135l-0.741-0.275l0.975-0.223
		c0.074-0.027,0.16-0.07,0.157-0.115c-0.004-0.066-0.179-0.109-0.181-0.109l-0.673-0.107l0.806-0.34
		C-27.931,37.408-27.896,37.348-27.895,37.324"/>
	<path fill="#FFC937" d="M-32.422,40.963l-0.011,0.004l0.01,0.008c0.08,0.061,0.131,0.127,0.149,0.154l0.004,0.006l0.004-0.006
		c0.1-0.102,0.142-0.174,0.122-0.203C-32.178,40.875-32.382,40.949-32.422,40.963"/>
	<path fill="#FFC937" d="M-32.15,40.27c-0.021-0.047-0.133-0.037-0.166-0.035l-0.954,0.129l0.017-0.006
		c0.579-0.264,1.033-0.645,1.039-0.648c0.06-0.074,0.083-0.125,0.068-0.154c-0.018-0.035-0.089-0.033-0.126-0.031l-0.009,0.002
		c-0.01,0-0.017,0-0.021-0.002h-0.001l-1.233,0.301l0.911-0.551c0.508-0.283,0.476-0.486,0.475-0.494
		c-0.003-0.021-0.014-0.035-0.033-0.049c-0.067-0.047-0.222-0.014-0.269-0.006l-0.836,0.105l0.989-0.59l0.001-0.004
		c0.069-0.066,0.096-0.121,0.08-0.156c-0.02-0.045-0.1-0.053-0.146-0.053c-0.004,0-0.009,0-0.012,0l-0.993,0.076l0.631-0.379
		c0.363-0.227,0.432-0.344,0.441-0.395c0.003-0.021-0.004-0.031-0.005-0.031c-0.122-0.139-1.029,0.25-1.039,0.256l-0.013,0.006
		l0.007-0.006l0.612-0.621c0.24-0.244,0.271-0.359,0.269-0.406c-0.002-0.023-0.009-0.031-0.012-0.033l-0.001-0.002
		c-0.014-0.01-0.033-0.012-0.054-0.012c-0.156,0-0.479,0.209-0.518,0.232l-0.004,0.006l-0.16-0.752
		c-0.023-0.15-0.059-0.238-0.105-0.262c-0.009-0.004-0.021-0.008-0.032-0.004h0l-0.004,0.002h-0.002
		c-0.103,0-0.143,0.596-0.143,0.607c-0.015,0.141-0.1,0.391-0.108,0.418l-0.002,0.006l-0.003-0.002
		c-0.372-0.303-0.543-0.246-0.562-0.238h-0.002l-0.001,0.002c-0.027,0.045,0.074,0.201,0.115,0.258l0.688,0.789l-0.701-0.248
		c-0.248-0.057-0.281,0.004-0.281,0.004c-0.023,0.047,0.07,0.148,0.108,0.184l0.771,0.615l-0.012-0.002
		c-0.833-0.174-0.956-0.053-0.958-0.051c-0.076,0.123,0.132,0.264,0.134,0.266l0.975,0.539h-0.001h0.003l0.116,0.064l-1.037-0.168
		c-0.22-0.037-0.235,0-0.244,0.023c-0.001,0.004-0.003,0.008-0.004,0.012l-0.002,0.002h0c-0.017,0.129,0.156,0.256,0.163,0.26
		l0.84,0.668l-0.591-0.172c-0.109-0.029-0.166-0.035-0.174-0.037h-0.018c-0.122,0-0.192,0.023-0.209,0.068
		c-0.034,0.094,0.141,0.244,0.162,0.262l1,0.625l-1-0.184c-0.045-0.018-0.084-0.025-0.115-0.025c-0.043,0-0.06,0.018-0.064,0.023
		c-0.03,0.037,0.061,0.131,0.114,0.174l0.839,0.477l0.005,0.004l0.003-0.004c0.238-0.363,0.738-0.16,0.759-0.15l0.002,0.002
		l0.002-0.002c0.335-0.15,0.554-0.35,0.556-0.352C-32.191,40.371-32.133,40.307-32.15,40.27"/>
	<path fill="#FFC937" d="M-34.431,40.9c-0.037,0-0.063,0.008-0.074,0.025c-0.014,0.018-0.013,0.041,0.001,0.078l0.003,0.008
		l0.006-0.006c0.034-0.035,0.071-0.064,0.109-0.09l0.015-0.01l-0.016-0.002C-34.403,40.904-34.418,40.9-34.431,40.9"/>
	<path fill="#FFC937" d="M-35.529,39.865c-0.028-0.021-0.085,0.006-0.168,0.076l-0.621,0.488l0.465-0.887l0-0.004
		c0.004-0.035,0.018-0.227-0.061-0.283c-0.031-0.023-0.072-0.023-0.123,0l-0.698,0.828l0.431-1.15
		c0.01-0.025,0.102-0.271,0.027-0.346h-0.002c-0.001-0.008-0.012-0.025-0.038-0.031c-0.027-0.006-0.076,0-0.163,0.076l-0.578,0.432
		l0.349-0.711c0.006-0.014,0.126-0.316,0.032-0.4c-0.043-0.037-0.128-0.02-0.253,0.053l-0.461,0.363l0.269-0.809
		c0.003-0.018,0.032-0.184-0.031-0.217c-0.037-0.021-0.101,0.008-0.19,0.088l-0.405,0.494l0.115-0.895
		c0-0.004,0.027-0.279-0.046-0.318l-0.002-0.004l-0.003,0.004c-0.018,0.008-0.107,0.049-0.16,0.156l-0.145,0.275l-0.002-0.006
		c-0.003-0.004-0.421-0.564-0.618-0.701h-0.001c-0.025-0.012-0.059-0.02-0.078-0.004c-0.016,0.016-0.016,0.047,0,0.096l0.304,0.859
		h-0.006c-0.095-0.012-0.564-0.051-0.582,0.068l-0.002,0.004c-0.001,0.004-0.001,0.008,0,0.016c0.008,0.033,0.067,0.088,0.294,0.182
		l0.941,0.33l-0.777,0.105c-0.019,0.004-0.183,0.055-0.183,0.117c0,0.025,0.03,0.066,0.179,0.109l1.038,0.115l-0.77,0.363
		c-0.002,0-0.13,0.061-0.124,0.129c0.004,0.049,0.068,0.09,0.199,0.127l1.196,0.074l-0.936,0.285
		c-0.039,0.014-0.164,0.066-0.164,0.137c0,0.07,0.109,0.139,0.325,0.207l0.887,0.119l-0.6,0.254
		c-0.046,0.014-0.197,0.062-0.198,0.127c-0.001,0.041,0.057,0.082,0.172,0.121h0.006c0.237,0.025,0.814,0.09,1.064,0.107h0.006
		l-0.005,0.002c-0.007,0.006-0.077,0.035-0.597,0.203l-0.027,0.012l0.028,0.002c0.018,0.004,0.037,0.006,0.052,0.008h0.001
		c0.182,0.049,0.509,0.113,0.973,0.195h0.004l0.44-0.793C-35.527,40.055-35.483,39.898-35.529,39.865"/>
	<path fill="#FFC937" d="M-34.829,38.734c0.015-0.109,0.092-0.203,0.227-0.271l0.005-0.004l-0.004-0.006
		c-0.037-0.053-0.218-0.32-0.146-0.527c0.037-0.104,0.13-0.176,0.279-0.219l0.01-0.004l-0.007-0.008
		c-0.04-0.041-0.173-0.182-0.193-0.301l-0.001-0.006l-0.411,0.09l0.397-0.271l0.002-0.002v-0.002
		c0.008-0.021,0.083-0.219,0.361-0.236h0.012l-0.008-0.01c-0.056-0.066-0.233-0.307-0.162-0.549l0.002-0.008h-0.192l0.327-0.195
		c0.02-0.018,0.041-0.031,0.061-0.047l0.002,0.002l-0.002-0.002c0.019-0.016,0.037-0.031,0.058-0.043l0.348-0.191h0.001
		c0.044-0.033,0.192-0.145,0.17-0.215c-0.014-0.039-0.085-0.057-0.214-0.053l-0.927,0.074l0.01-0.004
		c0.007-0.006,0.804-0.492,0.901-0.605c0.03-0.031,0.124-0.137,0.096-0.188c-0.013-0.027-0.061-0.045-0.216-0.012
		c-0.04,0.014-0.244,0.076-0.369,0.133l-0.383,0.17l0.715-0.836c0.007-0.008,0.155-0.195,0.11-0.256
		c-0.019-0.023-0.077-0.039-0.251,0.035c-0.001,0-0.2,0.07-0.312,0.197l-0.003,0.004l-0.002-0.004
		c-0.004-0.012-0.101-0.244-0.134-0.617c0-0.01-0.017-0.242-0.071-0.32h-0.002h-0.002c-0.018-0.006-0.108-0.023-0.15,0h-0.002
		l0,0.006c-0.014,0.066-0.059,0.301-0.079,0.535c-0.005,0.031-0.048,0.303-0.122,0.396l-0.002,0.002l-0.002-0.002
		c-0.013-0.012-0.308-0.248-0.505-0.248c-0.02,0-0.038,0.004-0.055,0.01h-0.003l-0.001,0.004c-0.009,0.027-0.026,0.184,0.422,0.566
		l0.414,0.471l-0.741-0.24c-0.002,0-0.257-0.062-0.29,0.008c-0.015,0.029,0.006,0.092,0.19,0.24l0.625,0.486l-0.646-0.051
		c-0.022,0.002-0.219,0.012-0.246,0.104c-0.021,0.07,0.053,0.166,0.221,0.287l1.051,0.533l-1.063-0.143
		c-0.002,0-0.225-0.033-0.26,0.045c-0.022,0.045,0.026,0.119,0.141,0.223l0.328,0.238c0.065,0.049,0.292,0.217,0.414,0.33
		l0.006,0.006l-0.615-0.096h-0.01c-0.056,0-0.243,0.008-0.27,0.088c-0.021,0.061,0.043,0.141,0.197,0.25l0.932,0.543l-0.958-0.133
		c-0.005,0-0.012,0-0.019,0c-0.026,0-0.156,0.002-0.171,0.051c-0.008,0.027,0.011,0.074,0.145,0.158l0.887,0.52l-1-0.084
		l-0.01-0.002l0.002,0.01c0.042,0.162,0.005,0.346-0.007,0.396l-0.003,0.01l0.01-0.002c0.11-0.018,0.198,0.006,0.265,0.066
		c0.156,0.146,0.138,0.471,0.132,0.535l0,0.006h0.014c0.005,0,0.009,0,0.014,0c0.106,0,0.188,0.033,0.244,0.098
		c0.121,0.145,0.077,0.404,0.066,0.455l-0.001,0.008h0.007c0.124,0.012,0.22,0.061,0.284,0.15c0.167,0.225,0.092,0.646,0.052,0.816
		l-0.001,0.006l0.118,0.021l-0.003-0.01c-0.014-0.045-0.057-0.199-0.002-0.322c0.027-0.062,0.076-0.107,0.144-0.135l0.007-0.004
		l-0.005-0.006c-0.033-0.043-0.195-0.262-0.155-0.447c0.019-0.084,0.077-0.15,0.171-0.197l0.007-0.004l-0.004-0.006
		c-0.037-0.051-0.216-0.322-0.153-0.525c0.026-0.088,0.095-0.152,0.203-0.191l0.009-0.006l-0.007-0.006
		C-34.634,39.199-34.861,38.959-34.829,38.734"/>
	<path fill="#FFC937" d="M-30.867,33.527l0.002,0.002h0.002c0.018,0.002,0.178,0.016,0.243,0.143
		c0.068,0.135,0.012,0.34-0.168,0.615l-0.006,0.008l0.011,0.004c0.066,0.01,0.287,0.055,0.347,0.211
		c0.051,0.135-0.022,0.312-0.219,0.529l-0.007,0.01h0.011c0.059,0.01,0.215,0.051,0.384,0.217l0.026,0.025l-0.015-0.033
		c-0.065-0.135-0.148-0.406,0.033-0.676h0.001h0c0.333-0.064,0.517,0.07,0.564,0.109l0.009,0.01l0.03-0.15l-0.006-0.002
		c-0.263-0.078-0.453-0.053-0.542-0.033l-0.009,0.002l0.005-0.008c0.049-0.055,0.11-0.109,0.18-0.158l0.414-0.299
		c0.022-0.023,0.092-0.098,0.072-0.143c-0.018-0.041-0.098-0.043-0.163-0.035l-0.817,0.164l0.812-0.727
		c0.021-0.023,0.128-0.146,0.094-0.201c-0.014-0.023-0.063-0.041-0.219,0.002c-0.001,0-0.149,0.061-0.339,0.176l-0.004,0.002
		l-0.093-0.896c-0.003-0.016-0.025-0.09-0.076-0.102c-0.036-0.006-0.078,0.021-0.124,0.08l-0.273,0.838l-0.004-0.002
		c-0.007-0.012-0.191-0.223-0.422-0.281c-0.023-0.01-0.085-0.031-0.106-0.006c-0.022,0.025,0,0.08,0.024,0.125
		C-31.198,33.08-31.052,33.367-30.867,33.527"/>
	<path fill="#FFC937" d="M-30.376,38.258c-0.001-0.006-0.004-0.014-0.006-0.023l-0.001-0.006l-1.334,0.18l0.932-0.547
		c0.201-0.154,0.225-0.229,0.21-0.268c-0.025-0.062-0.177-0.055-0.223-0.051l-0.881,0.145l0.925-0.561
		c0.168-0.139,0.188-0.199,0.175-0.227c-0.022-0.045-0.156-0.025-0.205-0.016l-1.184,0.232l1.106-0.666
		c0.216-0.178,0.309-0.303,0.279-0.367c-0.034-0.074-0.212-0.053-0.249-0.047l-0.717,0.107l0.777-0.545
		c0.1-0.08,0.142-0.141,0.127-0.184c-0.02-0.055-0.136-0.061-0.185-0.061c-0.003,0-0.005,0-0.006,0l-0.886,0.064l0.788-0.539
		c0.152-0.117,0.221-0.199,0.202-0.242c-0.028-0.061-0.249-0.021-0.333,0l-0.689,0.283l0.695-0.807
		c0.145-0.15,0.207-0.25,0.181-0.287c-0.008-0.012-0.025-0.02-0.051-0.02c-0.075,0-0.222,0.053-0.328,0.102l-0.215,0.152
		l-0.198-0.889c-0.028-0.057-0.058-0.084-0.086-0.084l0,0h-0.006l0,0c-0.052,0.008-0.086,0.092-0.087,0.096l-0.178,0.834
		l-0.336-0.154c-0.158-0.059-0.21-0.045-0.227-0.025c-0.035,0.051,0.063,0.186,0.104,0.234l0.623,0.783l-0.461-0.189
		c-0.256-0.09-0.403-0.105-0.438-0.055c-0.036,0.059,0.071,0.18,0.094,0.205l0.708,0.625h-0.011
		c-0.563-0.111-0.87-0.119-0.907-0.023c-0.04,0.098,0.238,0.275,0.242,0.277l0.902,0.477l-1.147-0.137h-0.009l0.032,0.213h0.007
		c0.349-0.094,0.568-0.08,0.653,0.041c0.057,0.08,0.05,0.209-0.019,0.383l0.257,0.164l-0.333-0.02
		c-0.021,0.041-0.046,0.082-0.079,0.139l-0.006,0.008l0.01,0.002c0.172,0.027,0.287,0.084,0.336,0.172l-0.006,0.004l0.008-0.004
		c0.007,0.016,0.013,0.029,0.018,0.043c0.025,0.078,0.009,0.174-0.05,0.289c0,0-0.018,0.027-0.044,0.064l0.255,0.18l-0.342-0.062
		c-0.015,0.021-0.03,0.041-0.048,0.066l-0.008,0.006l0.011,0.004c0.178,0.037,0.287,0.113,0.324,0.225
		c0.067,0.195-0.117,0.439-0.154,0.484l-0.005,0.008l0.007,0.004c0.137,0.064,0.215,0.154,0.231,0.262
		c0.037,0.227-0.206,0.482-0.255,0.531l-0.008,0.008l0.011,0.002c0.135,0.033,0.218,0.094,0.249,0.182
		c0.066,0.201-0.153,0.475-0.197,0.527l-0.005,0.006l0.008,0.004c0.115,0.037,0.185,0.098,0.207,0.18
		c0.05,0.191-0.161,0.438-0.204,0.484l-0.006,0.006l0.009,0.004c0.083,0.027,0.139,0.074,0.166,0.143
		c0.065,0.158-0.041,0.383-0.09,0.473l-0.005,0.01h0.012c0.106-0.006,0.206-0.012,0.298-0.018l0.008-0.002l-0.002-0.006
		c-0.045-0.135-0.18-0.594-0.023-0.85c0.059-0.096,0.15-0.154,0.274-0.174l0.007-0.002l-0.002-0.008
		c-0.014-0.049-0.076-0.305,0.033-0.459c0.053-0.072,0.139-0.113,0.255-0.117h0.007l-0.001-0.008
		c-0.01-0.062-0.052-0.383,0.092-0.541C-30.94,39.029-30.865,39-30.771,39c0.011,0,0.022,0,0.037,0h0.01l-0.004-0.01
		c-0.018-0.057-0.104-0.344,0.017-0.539c0.063-0.104,0.175-0.166,0.331-0.186h0.008L-30.376,38.258z"/>
	<path fill="#231F20" d="M5.381-0.806v0.574H3.503v13.115c0,3.184,1.799,4.2,3.441,4.2c2.479,0,4.226-1.667,4.226-4.383V-0.232
		H8.824v-0.574h4.641v0.574h-1.566v12.959c0,3.026-2.007,4.93-5.058,4.93c-4.226,0-6.155-1.774-6.155-5.374V-0.232h-1.562v-0.574
		H5.381z"/>
	<path fill="#231F20" d="M13.543,3.995h3.65v1.771h0.051c0.627-1.123,1.85-2.192,3.677-2.192c2.061,0,3.521,0.993,3.521,3.835v9.256
		h1.408v0.574h-5.372v-0.574h1.512V7.096c0-1.931-0.6-2.584-1.824-2.584c-1.436,0-2.766,1.254-2.766,3.965v8.188h1.514v0.574h-5.371
		v-0.574h1.407V4.567h-1.407V3.995z"/>
	<path fill="#231F20" d="M28.771-0.438c0.836,0,1.486,0.597,1.486,1.484c0,0.889-0.649,1.486-1.486,1.486
		c-0.833,0-1.484-0.597-1.484-1.486C27.286,0.159,27.938-0.438,28.771-0.438 M29.999,16.666h1.25v0.572h-4.954v-0.572h1.249v-12.1
		h-1.249V3.995h3.703V16.666z"/>
	<polygon fill="#231F20" points="30.388,3.995 36.073,3.995 36.073,4.567 34.039,4.567 37.482,14.318 37.534,14.318 41.029,4.567 
		38.942,4.567 38.942,3.995 42.854,3.995 42.854,4.567 41.783,4.567 37.168,17.344 36.098,17.344 31.458,4.567 30.388,4.567 	"/>
	<path fill="#231F20" d="M49.844,8.791V7.772c0-2.607-0.862-3.623-2.218-3.623c-1.616,0-2.582,1.617-2.79,4.641H49.844z
		 M44.809,9.363c-0.026,0.261-0.026,0.523-0.026,0.782c0,5.035,1.252,6.782,3.233,6.782c2.218,0,3.809-1.409,4.069-4.644h0.573
		c-0.13,3.6-2.241,5.374-4.901,5.374c-3.312,0-5.685-2.87-5.685-7.04c0-4.175,2.528-7.043,5.607-7.043
		c2.971,0,4.874,2.089,4.874,5.789H44.809z"/>
	<path fill="#231F20" d="M54.659,4.567h-1.407V3.994h3.807v1.928h0.053c0.548-1.513,1.484-2.348,3.153-2.348
		c0.654,0,1.411,0.288,1.799,0.469v5.114h-0.574l-0.913-2.688c-0.471-1.383-0.731-1.956-1.355-1.956
		c-1.07,0-2.111,1.931-2.111,4.278v7.875h1.72v0.573h-5.58v-0.573h1.407V4.567z"/>
	<path fill="#231F20" d="M63.244,11.918c0.939,4.383,1.463,5.165,3.809,5.165c2.035,0,3.547-1.043,3.547-2.948
		c0-2.528-8.084-1.981-8.084-6.387c0-2.607,2.111-4.174,5.111-4.174c1.408,0,2.764,0.392,3.752,0.915v4.198h-0.727
		c-1.123-3.859-1.408-4.537-3.262-4.537c-1.641,0-3.207,0.909-3.207,2.347c0,3.284,8.082,2.164,8.082,6.728
		c0,2.658-2.293,4.432-5.422,4.432c-1.357,0-2.998-0.391-4.328-1.147v-4.592H63.244z"/>
	<path fill="#231F20" d="M75.5-0.438c0.836,0,1.488,0.597,1.488,1.484c0,0.889-0.652,1.486-1.488,1.486
		c-0.832,0-1.486-0.597-1.486-1.486C74.014,0.159,74.668-0.438,75.5-0.438 M76.729,16.666h1.25v0.572h-4.953v-0.572h1.25v-12.1
		h-1.25V3.995h3.703V16.666z"/>
	<path fill="#231F20" d="M78.135,3.995h1.645V0.862h2.449v3.133h3.025v0.572h-3.025V15.31c0,0.989,0.418,1.407,1.408,1.407
		c1.119,0,1.773-0.676,1.773-2.605v-2.087h0.574v1.928c0,2.764-1.146,3.704-3.287,3.704c-1.879,0-2.918-0.992-2.918-3.13V4.567
		h-1.645V3.995z"/>
	<path fill="#231F20" d="M84.682,3.995h5.578v0.572h-1.955l3.807,9.099l3.131-9.099h-2.27V3.995h4.17v0.572h-1.17l-4.773,13.74
		c-0.992,2.896-1.799,3.47-3.285,3.47c-0.961,0-1.615-0.234-1.982-0.626v-4.068h0.572l0.705,2.531
		c0.365,1.354,0.781,1.589,1.199,1.589c1.045,0,1.879-1.798,2.504-4.044l-5.24-12.592h-0.99V3.995z"/>
	<path fill="#231F20" d="M28.323,32.785h2.317c4.675,0,6.951-2.271,6.951-6.162c0-2.75-1.375-5.695-5.693-5.695h-3.575V32.785z
		 M21.726,47.242v-0.865h2.357V20.928h-2.357v-0.865h11.428c6.598,0,8.917,3.146,8.917,6.561c0,3.81-2.988,6.439-8.643,6.794
		l9.348,12.959h1.924v0.865h-6.244l-9.974-13.824h-0.16v12.959h2.986v0.865H21.726z"/>
	<path fill="#231F20" d="M54.487,34.518v-1.531c0-3.93-1.295-5.46-3.336-5.46c-2.437,0-3.89,2.437-4.204,6.991H54.487z
		 M46.906,35.381c-0.038,0.393-0.038,0.785-0.038,1.176c0,7.582,1.884,10.213,4.869,10.213c3.337,0,5.734-2.121,6.126-6.99h0.864
		c-0.197,5.422-3.378,8.09-7.384,8.09c-4.987,0-8.561-4.32-8.561-10.605c0-6.279,3.809-10.6,8.444-10.6
		c4.478,0,7.345,3.139,7.345,8.717H46.906z"/>
	<path fill="#231F20" d="M68.721,39.072c2.045,0,3.143-1.18,3.143-5.773s-1.098-5.772-3.143-5.772c-2.039,0-3.139,1.179-3.139,5.772
		S66.367,39.072,68.721,39.072 M68.172,53.838c4.084,0,6.756-2.041,6.756-4.082c0-1.494-0.668-2.279-3.615-2.357l-7.381-0.156
		c-0.941,0.547-1.414,1.727-1.414,2.865C62.518,51.877,64.639,53.838,68.172,53.838 M76.656,28.389h-2.982v0.079
		c1.41,0.981,2.117,2.985,2.117,4.831c0,3.73-2.904,6.639-6.99,6.639c-3.691,0-4.316-1.414-4.869-1.414
		c-1.18,0-2.749,1.178-2.749,2.51c0,6.01,15.866-1.332,15.866,7.346c0,3.18-3.375,6.322-8.562,6.322
		c-5.893,0-8.481-2.59-8.481-4.709c0-1.455,1.455-2.555,2.513-2.908v-0.078c-2.357-0.551-3.455-2.357-3.455-4.398
		c0-2.869,1.883-4.361,4.083-4.949c-0.824-0.902-1.495-2.551-1.495-4.557c0-3.77,3.067-6.437,7.069-6.437
		c1.023,0,2.359,0.233,3.104,0.625h4.832V28.389z"/>
	<path fill="#231F20" d="M81.734,20.614c1.254,0,2.236,0.904,2.236,2.24c0,1.336-0.982,2.239-2.236,2.239
		c-1.258,0-2.238-0.902-2.238-2.239C79.496,21.518,80.477,20.614,81.734,20.614 M83.578,46.377h1.889v0.865h-7.465v-0.865h1.887
		v-18.22h-1.887v-0.865h5.576V46.377z"/>
	<path fill="#231F20" d="M86.426,27.292h5.498v2.671h0.08c0.943-1.69,2.785-3.3,5.537-3.3c3.102,0,5.299,1.492,5.299,5.772v13.941
		h2.123v0.865h-8.09v-0.865h2.277V31.963c0-2.906-0.906-3.887-2.748-3.887c-2.16,0-4.164,1.887-4.164,5.971v12.33h2.277v0.865h-8.09
		v-0.865h2.119V28.155h-2.119V27.292z"/>
	<path fill="#231F20" d="M117.057,36.166c-4.436,2.082-8.088,0.59-8.088,6.246c0,2.941,1.1,4.043,3.182,4.043
		c2.947-0.078,4.906-2.984,4.906-7.303V36.166z M107.398,34.438v-6.362c2.041-0.825,3.926-1.413,6.008-1.413
		c4.908,0,7.107,2.593,7.107,5.026v14.688h1.885v0.865h-5.342v-3.455h-0.076c-0.943,2.434-3.182,4.08-5.967,4.08
		c-3.541,0-5.971-2.039-5.971-5.455c0-6.873,8.09-4.871,12.014-7.268v-4.123c0-2.477-1.334-3.495-3.414-3.495
		c-2.75,0-3.494,1.413-5.383,6.911H107.398z"/>
	<path fill="#231F20" d="M9.249,37.553c1.474,0,2.239-1.061,2.239-4.871c0-3.809-0.765-4.87-2.239-4.87
		c-1.471,0-2.237,1.061-2.237,4.87C7.012,36.492,7.778,37.553,9.249,37.553 M9.249,27.38c2.435,0,4.281,2.161,4.281,5.301
		c0,3.143-1.846,5.301-4.281,5.301c-2.434,0-4.28-2.158-4.28-5.301C4.969,29.541,6.815,27.38,9.249,27.38"/>
	<path fill="#231F20" d="M13.921,27.695h0.943v-1.08c0-1.808,0.942-2.847,3.103-2.847c0.59,0,1.179,0.099,1.728,0.276v2.591h-0.433
		c-0.706-2.24-0.982-2.435-1.61-2.435c-0.47,0-0.941,0.312-0.941,1.295v2.199h2.355v0.431h-2.355v9.113h1.413v0.432h-4.203v-0.432
		h0.943v-9.113h-0.943V27.695z"/>
</g>
</svg>
