<?xml version="1.0" encoding="UTF-8" standalone="no"?>
<svg
   xmlns:dc="http://purl.org/dc/elements/1.1/"
   xmlns:cc="http://creativecommons.org/ns#"
   xmlns:rdf="http://www.w3.org/1999/02/22-rdf-syntax-ns#"
   xmlns:svg="http://www.w3.org/2000/svg"
   xmlns="http://www.w3.org/2000/svg"
   xmlns:xlink="http://www.w3.org/1999/xlink"
   xmlns:sodipodi="http://sodipodi.sourceforge.net/DTD/sodipodi-0.dtd"
   xmlns:inkscape="http://www.inkscape.org/namespaces/inkscape"
   height="24px"
   width="24px"
   viewBox="0 0 100 100"
   enable-background="new 0 0 100 100"
   version="1.1"
   id="svg32"
   sodipodi:docname="icon.svg"
   inkscape:version="0.92.2 5c3e80d, 2017-08-06">
  <metadata
     id="metadata38">
    <rdf:RDF>
      <cc:Work
         rdf:about="">
        <dc:format>image/svg+xml</dc:format>
        <dc:type
           rdf:resource="http://purl.org/dc/dcmitype/StillImage" />
        <dc:title></dc:title>
      </cc:Work>
    </rdf:RDF>
  </metadata>
  <defs
     id="defs36">
    <style
       id="style1183">
      .cls-1 {
        isolation: isolate;
      }

      .cls-2 {
        fill: none;
      }

      .cls-3 {
        fill: #6bc9a7;
      }

      .cls-4 {
        opacity: 0.15;
        mix-blend-mode: multiply;
      }

      .cls-5 {
        fill: #fff;
      }

      .cls-6 {
        fill: #cde6fc;
      }

      .cls-7 {
        fill: #8db7e2;
      }

      .cls-8 {
        opacity: 0.2;
      }

      .cls-9 {
        fill: #231f20;
      }

      .cls-10 {
        fill: #ddd;
      }

      .cls-11 {
        fill: #239630;
      }
    </style>
    <style
       id="style1586">
      .cls-1 {
        fill: #ea964d;
      }

      .cls-2 {
        fill: #f0f1f5;
      }

      .cls-3 {
        fill: #b8b8bf;
      }

      .cls-4 {
        fill: #34495e;
      }

      .cls-5 {
        fill: #e94c3d;
      }

      .cls-6 {
        fill: #c1392b;
      }

      .cls-7 {
        fill: #3497da;
      }

      .cls-8 {
        fill: #2a80bb;
      }

      .cls-9 {
        fill: #2c3e50;
        opacity: 0.1;
      }

      .cls-10 {
        fill: #8e44ad;
      }

      .cls-11 {
        fill: none;
      }
    </style>
    <style
       id="style6156">
      .cls-1 {
        fill: #f06060;
      }

      .cls-2 {
        opacity: 0.15;
      }

      .cls-3 {
        fill: #231f20;
      }

      .cls-4 {
        fill: #fff;
      }

      .cls-5 {
        fill: #79aad3;
      }

      .cls-6 {
        fill: #b0afad;
      }

      .cls-7 {
        fill: none;
      }
    </style>
    <style
       id="style217">
      .cls-1 {
        isolation: isolate;
      }

      .cls-2 {
        fill: #d35400;
      }

      .cls-3 {
        opacity: 0.25;
        mix-blend-mode: multiply;
      }

      .cls-4 {
        fill: #fff;
      }

      .cls-5 {
        fill: #34495e;
      }

      .cls-6 {
        fill: #2ecc71;
      }

      .cls-7 {
        fill: #2980b9;
      }

      .cls-8 {
        fill: none;
      }
    </style>
    <style
       id="style504">
      .cls-1 {
        isolation: isolate;
      }

      .cls-2 {
        fill: #97baf6;
      }

      .cls-3 {
        fill: #dedede;
      }

      .cls-4 {
        opacity: 0.2;
        mix-blend-mode: multiply;
      }

      .cls-5 {
        fill: #62c485;
      }

      .cls-6 {
        fill: #34495e;
      }

      .cls-7 {
        fill: none;
      }
    </style>
    <rect
       height="225"
       width="400"
       id="SVGID_1_" />
  </defs>
  <sodipodi:namedview
     pagecolor="#ffffff"
     bordercolor="#666666"
     borderopacity="1"
     objecttolerance="10"
     gridtolerance="10"
     guidetolerance="10"
     inkscape:pageopacity="0"
     inkscape:pageshadow="2"
     inkscape:window-width="1440"
     inkscape:window-height="856"
     id="namedview34"
     showgrid="false"
     inkscape:zoom="22.684322"
     inkscape:cx="12.028525"
     inkscape:cy="10.618424"
     inkscape:window-x="75"
     inkscape:window-y="47"
     inkscape:window-maximized="0"
     inkscape:current-layer="svg32" />
  <g
     stroke-miterlimit="10"
     id="g22"
     style="display:none;stroke-miterlimit:10">
    <g
       id="g14"
       style="stroke-width:3;stroke-linecap:round;stroke-linejoin:round">
      <g
         id="g10"
         style="stroke:#999999"
         transform="translate(29.166667)">
        <g
           id="g6"
           style="fill:#ffffff">
          <path
             d="m 41.566667,28.1 h 18.4 l -23.3,-24.1 v 18.9 c 0,2.8 2.2,5.2 4.9,5.2 z"
             id="path2"
             inkscape:connector-curvature="0" />
          <path
             d="m 41.566667,28.1 c -2.7,0 -4.8,-2.3 -4.8,-5.2 V 4 H -8.5666667 c -2.7000003,0 -4.8000003,2.3 -4.8000003,5.2 v 83.2 c 0,2.9 2.1,5.2 4.8000003,5.2 H 55.066667 c 2.7,0 4.8,-2.3 4.8,-5.2 V 28.1 Z"
             id="path4"
             inkscape:connector-curvature="0"
             sodipodi:nodetypes="sscsssssscs" />
        </g>
      </g>
    </g>
  </g>
  <style
     id="style131"
     type="text/css">
	.st0{fill:#1D1D1D;}
	.st1{fill:#FFFFFF;}
</style>
  <style
     id="style900"
     type="text/css">
	.st0{fill:none;}
	.st1{fill:#88C87A;}
	.st2{opacity:0.15;}
	.st3{fill:#231F20;}
	.st4{fill:#FFFFFF;}
	.st5{fill:#F05F5F;}
</style>
  <style
     id="style214"
     type="text/css">
	.st0{fill:#DDDDDD;}
	.st1{fill:#C6C6C6;}
	.st2{fill:#8DB7E2;}
	.st3{fill:#2376C1;}
	.st4{fill:none;}
</style>
  <style
     id="style294"
     type="text/css">
	.st0{clip-path:url(#SVGID_2_);fill:#DEDEDE;}
	.st1{opacity:0.2;clip-path:url(#SVGID_2_);}
	.st2{fill:#C1C1BC;}
	.st3{fill:#9B9B9B;}
	.st4{clip-path:url(#SVGID_2_);}
	.st5{fill:#E9EAE0;}
	.st6{fill:#FFFFFF;}
	.st7{fill:#080808;}
	.st8{fill:#C88F6A;}
	.st9{fill:#DCA283;}
	.st10{fill:#7B4A32;}
	.st11{fill:#A0BBE1;}
	.st12{fill:#59595B;}
	.st13{fill:#8BC97B;}
	.st14{opacity:0.2;clip-path:url(#SVGID_2_);enable-background:new    ;}
	.st15{fill:#010101;}
	.st16{clip-path:url(#SVGID_2_);fill:#FFFFFF;}
	.st17{clip-path:url(#SVGID_2_);fill:#A0BBE1;}
	.st18{fill:#E64F3E;}
	.st19{fill:#C12E3C;}
</style>
  <g
     id="g470"
     transform="matrix(0.40136306,0,0,0.40136306,-28.820724,2.4736601)">
    <defs
       id="defs299">
      <rect
         height="225"
         width="400"
         id="rect481"
         x="0"
         y="0" />
    </defs>
    <clipPath
       id="SVGID_2_">
      <use
         id="use301"
         style="overflow:visible"
         xlink:href="#SVGID_1_"
         x="0"
         y="0"
         width="100%"
         height="100%" />
    </clipPath>
    <path
       id="path304"
       clip-path="url(#SVGID_2_)"
       d="m 177.6,30.2 h -50.2 c -9.6,0 -17.5,7.8 -17.5,17.5 V 91 c 0,9.6 7.8,17.5 17.5,17.5 h 50.2 c 9.5,0 17.5,-8 17.5,-17.5 V 47.6 C 195,38 187.2,30.2 177.6,30.2 Z m 12,60.8 c 0,6.5 -5.5,12 -12,12 h -50.2 c -6.6,0 -12,-5.4 -12,-12 V 47.6 c 0,-6.6 5.4,-12 12,-12 h 50.2 c 6.6,0 12,5.4 12,12 z"
       class="st0"
       inkscape:connector-curvature="0"
       style="fill:#dedede" />
    <g
       id="g322"
       clip-path="url(#SVGID_2_)"
       class="st1"
       style="opacity:0.2">
      <g
         id="g308">
        <path
           id="path306"
           d="m 162.7,58.5 c -2.7,-0.7 -6,-0.1 -9.1,1.4 -3.1,-1.6 -6.8,-2.2 -10,-1.6 -6.7,1.1 -11.3,5.7 -9.9,13.9 1.4,8.2 8.2,17.9 15,17.1 1.4,-0.2 2.7,-0.5 3.9,-1 1,0.4 2,0.7 3.1,0.9 6.7,1.3 13.3,-8.2 15.2,-16.3 1.9,-8.2 -1.6,-12.8 -8.2,-14.4 z"
           class="st2"
           inkscape:connector-curvature="0"
           style="fill:#c1c1bc" />
      </g>
      <g
         id="g312">
        <ellipse
           id="ellipse310"
           ry="2.5"
           rx="4.5"
           cy="64.599998"
           cx="152.5"
           class="st3"
           style="fill:#9b9b9b" />
      </g>
      <g
         id="g316">
        <path
           id="path314"
           d="m 151.2,64.6 c 0,0 0,-0.1 0,-0.2 0,-0.2 0,-0.3 0,-0.7 0,-0.3 0,-0.7 0,-1 0,-0.4 0.1,-0.8 0.1,-1.3 0.2,-1.9 0.8,-4.5 2,-6.9 0.6,-1.2 1.4,-2.3 2.2,-3.3 0.9,-1 1.9,-1.8 2.9,-2.4 0.5,-0.3 1,-0.5 1.5,-0.7 0.2,-0.1 0.4,-0.2 0.7,-0.2 0.2,-0.1 0.4,-0.1 0.6,-0.1 0.4,-0.1 0.7,-0.1 0.8,-0.1 0.2,0 0.3,0 0.3,0 v 4.7 h -0.1 c -0.1,0 -0.2,0 -0.4,0 -0.1,0 -0.2,0 -0.3,0 -0.1,0 -0.2,0 -0.3,0.1 -0.2,0.1 -0.5,0.1 -0.8,0.2 -0.6,0.2 -1.3,0.7 -2,1.3 -0.7,0.6 -1.4,1.4 -2,2.3 -0.6,0.9 -1.1,1.9 -1.5,2.8 -0.2,0.5 -0.4,1 -0.5,1.4 -0.2,0.4 -0.3,0.9 -0.4,1.3 -0.1,0.4 -0.2,0.8 -0.2,1.1 -0.1,0.3 -0.1,0.6 -0.1,0.9 -0.1,0.2 -0.1,0.4 -0.1,0.6 0,0.2 0,0.2 0,0.2 z"
           class="st3"
           inkscape:connector-curvature="0"
           style="fill:#9b9b9b" />
      </g>
      <g
         id="g320">
        <path
           id="path318"
           d="m 149.8,46 c 3.2,3.1 2.8,9.7 2.8,9.7 0,0 -6.1,-0.1 -9.2,-3.2 -3.1,-3.1 -2.5,-8.8 -2.5,-8.8 0,0 5.8,-0.8 8.9,2.3 z"
           class="st2"
           inkscape:connector-curvature="0"
           style="fill:#c1c1bc" />
      </g>
    </g>
    <path
       id="path324"
       clip-path="url(#SVGID_2_)"
       d="m 272.8,30.2 h -50.2 c -9.6,0 -17.5,7.8 -17.5,17.5 V 91 c 0,9.6 7.8,17.5 17.5,17.5 h 50.2 c 9.5,0 17.5,-8 17.5,-17.5 V 47.6 c 0,-9.6 -7.8,-17.4 -17.5,-17.4 z m 12,60.8 c 0,6.5 -5.5,12 -12,12 h -50.2 c -6.6,0 -12,-5.4 -12,-12 V 47.6 c 0,-6.6 5.4,-12 12,-12 h 50.2 c 6.6,0 12,5.4 12,12 z"
       class="st0"
       inkscape:connector-curvature="0"
       style="fill:#dedede" />
    <g
       id="g366"
       clip-path="url(#SVGID_2_)"
       class="st4">
      <g
         id="g328">
        <path
           id="path326"
           d="m 226.6,50.5 c 5.7,-4.9 12.9,3.6 13,7.7 0.1,4.5 -10.8,15.1 -10.8,15.1 0,0 -10.8,-15.4 -2.2,-22.8 z"
           class="st2"
           inkscape:connector-curvature="0"
           style="fill:#c1c1bc" />
      </g>
      <g
         id="g332">
        <path
           id="path330"
           d="m 267.2,50.5 c -5.7,-4.9 -12.9,3.6 -13,7.7 -0.1,4.5 10.8,15.1 10.8,15.1 0,0 10.8,-15.4 2.2,-22.8 z"
           class="st2"
           inkscape:connector-curvature="0"
           style="fill:#c1c1bc" />
      </g>
      <g
         id="g336">
        <path
           id="path334"
           d="m 267.4,70.9 c 0,12.3 -9.1,18.4 -20.3,18.4 -11.2,0 -20.3,-9.1 -20.3,-18.4 0,-10.2 9.1,-18.4 20.3,-18.4 11.2,-0.1 20.3,8.2 20.3,18.4 z"
           class="st5"
           inkscape:connector-curvature="0"
           style="fill:#e9eae0" />
      </g>
      <g
         id="g340">
        <path
           id="path338"
           d="m 263.2,70.1 c -0.8,4 -6.7,3.4 -11.1,2.5 -4.4,-0.9 -5.1,-4.9 -4.3,-8.9 0.8,-4 2.2,-7.5 6.5,-6.6 4.3,0.9 9.6,9 8.9,13 z"
           class="st6"
           inkscape:connector-curvature="0"
           style="fill:#ffffff" />
      </g>
      <g
         id="g344">
        <path
           id="path342"
           d="m 231.2,70.1 c 0.8,4 6.7,3.4 11.1,2.5 4.4,-0.9 5.1,-4.9 4.3,-8.9 -0.8,-4 -2.2,-7.5 -6.5,-6.6 -4.4,0.9 -9.7,9 -8.9,13 z"
           class="st6"
           inkscape:connector-curvature="0"
           style="fill:#ffffff" />
      </g>
      <g
         id="g348">
        <path
           id="path346"
           d="m 250.7,81.4 c -1.4,1.4 -1.6,2.8 -3.7,2.8 -2.1,0 -2.1,-1.2 -3.7,-2.8 -1.1,-1.1 1.6,-2.8 3.7,-2.8 2.1,0 4.8,1.7 3.7,2.8 z"
           class="st7"
           inkscape:connector-curvature="0"
           style="fill:#080808" />
      </g>
      <g
         id="g352">
        <ellipse
           id="ellipse350"
           ry="3.5"
           rx="2.8"
           cy="65.599998"
           cx="239.89999"
           class="st7"
           style="fill:#080808" />
      </g>
      <g
         id="g356">
        <ellipse
           id="ellipse354"
           ry="3.5"
           rx="2.8"
           cy="65.599998"
           cx="254.2"
           class="st7"
           style="fill:#080808" />
      </g>
      <g
         id="g360">
        <ellipse
           id="ellipse358"
           ry="1.3"
           rx="1.1"
           cy="64"
           cx="240.60001"
           class="st6"
           style="fill:#ffffff" />
      </g>
      <g
         id="g364">
        <ellipse
           id="ellipse362"
           ry="1.3"
           rx="1.1"
           cy="63.799999"
           cx="255.3"
           class="st6"
           style="fill:#ffffff" />
      </g>
    </g>
    <path
       id="path368"
       clip-path="url(#SVGID_2_)"
       d="m 177.6,116 h -50.2 c -9.6,0 -17.5,7.8 -17.5,17.5 v 43.4 c 0,9.6 7.8,17.5 17.5,17.5 h 50.2 c 9.5,0 17.5,-8 17.5,-17.5 V 133.5 C 195,123.9 187.2,116 177.6,116 Z m 12,60.9 c 0,6.5 -5.5,12 -12,12 h -50.2 c -6.6,0 -12,-5.4 -12,-12 v -43.4 c 0,-6.6 5.4,-12 12,-12 h 50.2 c 6.6,0 12,5.4 12,12 z"
       class="st0"
       inkscape:connector-curvature="0"
       style="fill:#dedede" />
    <g
       id="g418"
       clip-path="url(#SVGID_2_)"
       class="st4">
      <g
         id="g372">
        <path
           id="path370"
           d="m 172.9,154.4 c -8.1,8.1 -8.9,18 -19.9,18 -11,0 -12.4,-10.5 -19.9,-18 -7,-7 8.9,-18 19.9,-18 11,0 26.9,10.9 19.9,18 z"
           class="st8"
           inkscape:connector-curvature="0"
           style="fill:#c88f6a" />
      </g>
      <g
         id="g376">
        <ellipse
           id="ellipse374"
           ry="7.9000001"
           rx="6.3000002"
           cy="149.7"
           cx="147.10001"
           class="st9"
           style="fill:#dca283" />
      </g>
      <g
         id="g380">
        <ellipse
           id="ellipse378"
           ry="7.5"
           rx="5.9000001"
           cy="150.10001"
           cx="159.2"
           class="st9"
           style="fill:#dca283" />
      </g>
      <g
         id="g384">
        <path
           id="path382"
           d="m 157,165.6 c -1.5,1.5 -1.7,3 -3.9,3 -2.2,0 -2.3,-1.3 -3.9,-3 -1.1,-1.1 1.7,-3 3.9,-3 2.1,0 5,1.8 3.9,3 z"
           class="st7"
           inkscape:connector-curvature="0"
           style="fill:#080808" />
      </g>
      <g
         id="g388">
        <ellipse
           id="ellipse386"
           ry="4.5999999"
           rx="3.7"
           cy="149.7"
           cx="146.2"
           class="st6"
           style="fill:#ffffff" />
      </g>
      <g
         id="g392">
        <ellipse
           id="ellipse390"
           ry="3.4000001"
           rx="2.7"
           cy="150.89999"
           cx="145.8"
           class="st7"
           style="fill:#080808" />
      </g>
      <g
         id="g396">
        <ellipse
           id="ellipse394"
           ry="1"
           rx="0.89999998"
           cy="152.60001"
           cx="144.5"
           class="st6"
           style="fill:#ffffff" />
      </g>
      <g
         id="g400">
        <ellipse
           id="ellipse398"
           ry="4.5999999"
           rx="3.7"
           cy="149.7"
           cx="159.89999"
           class="st6"
           style="fill:#ffffff" />
      </g>
      <g
         id="g404">
        <ellipse
           id="ellipse402"
           ry="3.4000001"
           rx="2.7"
           cy="150.89999"
           cx="159.5"
           class="st7"
           style="fill:#080808" />
      </g>
      <g
         id="g408">
        <ellipse
           id="ellipse406"
           ry="1"
           rx="0.89999998"
           cy="152.60001"
           cx="158.3"
           class="st6"
           style="fill:#ffffff" />
      </g>
      <g
         id="g412">
        <path
           id="path410"
           d="m 171.8,164 c 3.7,0.8 7.7,-11.6 6.4,-15.9 -1.4,-4.6 -14.6,-9.1 -14.6,-9.1 0,0 2.7,23.8 8.2,25 z"
           class="st10"
           inkscape:connector-curvature="0"
           style="fill:#7b4a32" />
      </g>
      <g
         id="g416">
        <path
           id="path414"
           d="m 134.3,164 c -3.7,0.8 -7.7,-11.6 -6.4,-15.9 1.4,-4.6 14.6,-9.1 14.6,-9.1 0,0 -2.8,23.8 -8.2,25 z"
           class="st10"
           inkscape:connector-curvature="0"
           style="fill:#7b4a32" />
      </g>
    </g>
    <g
       id="g428"
       clip-path="url(#SVGID_2_)"
       class="st4">
      <g
         id="g422">
        <path
           id="path420"
           d="m 222.6,193.3 c -8.1,0 -14.7,-6.6 -14.7,-14.7 v -43.4 c 0,-8.1 6.6,-14.7 14.7,-14.7 h 50.2 c 8.1,0 14.7,6.6 14.7,14.7 v 43.4 c 0,8 -6.8,14.7 -14.7,14.7 z"
           class="st6"
           inkscape:connector-curvature="0"
           style="fill:#ffffff" />
      </g>
      <g
         id="g426">
        <path
           id="path424"
           d="m 272.8,120.4 h -4.4 v 5.5 h 4.4 z m -8.7,0 h -4.4 v 5.5 h 4.4 z m -8.7,0 H 251 v 5.5 h 4.4 z m -8.8,0 h -4.4 v 5.5 h 4.4 z m -8.7,0 h -4.4 v 5.5 h 4.4 z m -8.7,0 h -4.4 v 5.5 h 4.4 z m -8.7,0.2 c -1.5,0.2 -2.9,0.7 -4.1,1.3 l 2.3,4.9 c 0.8,-0.4 1.7,-0.7 2.6,-0.8 z m -7.8,3.7 c -1.1,1 -2,2.1 -2.7,3.4 l 4.7,2.8 c 0.5,-0.8 1,-1.5 1.7,-2.1 z m -4.3,7.4 c -0.1,0.5 -0.2,1.1 -0.3,1.7 v 0 0.1 0 0 0 0 0 0 0 c 0,0 0,0 0,0.1 v 0 0 0 0 0 0 0 0 0 c 0,0 0,0 0,0.1 v 0 0 0 0 0 0 0 0 0 0 0 0 0 0 0 0 0 0 0 c 0,0 0,0 0,0.1 v 0 0 0 0 0 0 0 0 0 c 0,0 0,0 0,0.1 v 0 0 0 0 0 0 0 0 0 0 0 0 0 0 0 0 0 0 0 0 0 0 0 0 0 0 0 0 0 0 0 0 0 0 0 0 0 0 0 0 0 0 0 0 0 0 0 0 0 0 0 0 0 0 0 0 0 0 0 0 0 0 0 0 0 0 0 0 0 0 0 0 0 0 0 0 0 0 0 0 0 0 0 0 0 0 0 0 0 0 0 0 0 0 0 0 0 0 0 0 0 0 0 0 0 0 0 0 0 0 0 0 0 0 0 0 0 0 0 0 0 0 0 0 0 0 0 0 0 0 0 0 0 0 0 0 0 0 0 0 0 0 0 0 0 0 0 0 0 0 0 0 0 0 0 0 0 0 0 0 0 0 0 0 0 0 0 0 0 0 0 0 0 0 0 0 0 0 0 0 0 0 0 0 0 0 0 0 0 0 0 0 0 0 0.9 h 5.5 v -0.9 c 0,-0.8 0.1,-1.5 0.3,-2.2 z m 5,8.7 h -5.5 v 4.4 h 5.5 z m 0,8.7 h -5.5 v 4.4 h 5.5 z m 0,8.8 h -5.5 v 4.4 h 5.5 z m 0,8.7 h -5.5 v 4.4 h 5.5 z m 0,8.7 h -5.5 v 3.3 0 0 0 0 0 0 0 0 0 0 0 0 0 0 0 0 0 0 0 0 0 0 0 0 0 0 0 0 0 0 0 0 0 0 0 0 0 0 0 c 0,0 0,0 0,0.1 v 0 c 0,0 0,0 0,0.1 v 0 c 0,0.1 0,0.1 0,0.1 v 0 c 0,0.1 0,0.1 0,0.1 v 0 c 0,0 0,0 0,0.1 v 0 c 0,0 0,0 0,0.1 v 0 0 0 0 0 0 0 0 0 0 0 0 0 0 0 0 c 0,0 0,0 0,0.1 v 0 c 0,0.1 0,0.2 0,0.3 l 5.5,-0.4 c 0,-0.2 0,-0.4 0,-0.7 z m 0.6,6.6 -5.1,2 c 0,0.1 0.1,0.2 0.1,0.2 v 0 c 0,0 0,0 0,0.1 v 0 c 0,0 0,0 0,0.1 v 0 c 0,0 0,0 0,0.1 v 0 c 0,0 0,0 0,0.1 v 0 0 0 0 0 0 0 c 0,0 0,0 0,0.1 v 0 c 0,0 0,0 0,0.1 v 0 c 0,0 0,0 0,0.1 v 0 c 0,0 0,0 0,0.1 v 0 0 0 0 0 0 0 0 0 0 0 0 0 0 0 0 0 0 0 0 0 0 0 0 0 0 0 c 0,0 0,0 0,0.1 v 0 0 0 0 0 0 0 0 0 0 0 0 0 0 0 0 0 0 0 0 0 0 0 0 0 0 0 c 0,0 0,0 0,0.1 v 0 0 0 0 0 0 0 0 0 0 0 0 0 0 0 0 0 0 0 0 0 0 0 0 0 0 0 c 0,0 0,0 0,0.1 v 0 c 0,0 0,0 0,0.1 v 0 0 0 0 0 0 0 0 0 0 0 0 0 0 0 0 0 0 0 c 0,0 0,0 0,0.1 v 0 c 0,0 0,0 0,0.1 v 0 c 0,0 0,0 0,0.1 v 0 c 0,0 0,0 0,0.1 v 0 c 0,0 0,0 0,0.1 v 0 c 0,0 0,0 0,0.1 v 0 c 0,0 0,0 0,0.1 v 0 0 0 c 0,0 0,0 0,0.1 v 0 c 0,0.1 0.1,0.1 0.1,0.1 v 0 c 0,0 0,0 0,0.1 v 0 c 0,0.1 0.1,0.1 0.1,0.1 v 0 c 0,0 0,0 0,0.1 v 0 c 0,0 0,0 0,0.1 v 0 c 0,0 0,0 0,0.1 v 0 c 0,0 0,0 0,0.1 v 0 c 0.2,0.3 0.3,0.5 0.5,0.8 v 0 c 0,0 0,0 0,0.1 v 0 c 0,0 0,0 0,0.1 v 0 c 0,0 0,0 0,0.1 v 0 c 0,0 0,0 0,0.1 v 0 0 0 0 0 0 0 0 0 0 0 0 0 0 0 0 0 0 0 0 0 0 0 0 0 0 0 0 0 0 0 0 0 0 0 0 0 0 0 0 0 0 0 0 0 0 0 0 0 0 0 0 0 0 0 0 0 0 0 0 0 0 0 0 c 0.1,0.1 0.2,0.2 0.3,0.4 l 4.3,-3.4 c 0.5,-1.4 0.1,-2.2 -0.3,-3.1 z m 3.4,4.3 -3.1,4.5 c 1.2,0.8 2.5,1.5 3.9,1.9 l 1.7,-5.2 c -1,-0.2 -1.8,-0.7 -2.5,-1.2 z m 5.1,1.7 -0.1,5.5 c 0.1,0 0.1,0 0.1,0 v 0 0 0 0 0 0 0 0 0 0 0 0 0 0 0 0 0 h 4.1 v -5.5 z m 13,0 h -4.4 v 5.5 h 4.4 z m 8.7,0 h -4.4 v 5.5 h 4.4 z m 8.8,0 h -4.4 v 5.5 h 4.4 z m 8.7,0 h -4.4 v 5.5 h 4.4 z m 8.7,0 H 266 v 5.5 h 4.4 z m 6.3,-0.9 c -0.8,0.4 -1.7,0.7 -2.6,0.8 l 0.8,5.4 v 0 0 0 0 0 0 0 0 0 0 0 0 0 0 0 0 0 0 0 0 0 0 0 0 0 0 0 0 0 c 0,0 0,0 0.1,0 v 0 c 0,0 0,0 0.1,0 v 0 c 0,0 0,0 0.1,0 v 0 c 0,0 0,0 0.1,0 v 0 c 0,0 0,0 0.1,0 v 0 c 0.5,-0.1 1.1,-0.2 1.7,-0.4 v 0 c 0,0 0,0 0.1,0 v 0 c 0,0 0,0 0.1,0 v 0 c 0,0 0,0 0.1,0 v 0 c 0,0 0,0 0.1,0 v 0 c 0,0 0,0 0.1,0 v 0 c 0,0 0,0 0.1,0 v 0 c 0,0 0,0 0.1,0 v 0 c 0,0 0,0 0.1,0 v 0 c 0,0 0,0 0.1,0 v 0 0 0 0 0 0 0 0 0 0 0 0 0 0 0 0 0 0 0 0 0 0 0 0 0 0 0 0 0 0 0 0 0 0 0 0 0 0 0 0 0 0 0 0 0 0 0 0 0 0 0 0 0 0 0 0 0 0 0 0 0 0 0 0 0 0 0 0 0 0 0 0 0 0 0 0 0 0 0 0 0 0 0 0 0 0 0 0 0 0 0 0 0 0 0 0 0 0 c 0,0 0,0 0.1,0 v 0 c 0,0 0,0 0.1,0 v 0 0 0 0 0 c 0,0 0,0 0.1,0 v 0 c 0,0 0,0 0.1,0 v 0 c 0,0 0,0 0.1,0 v 0 c 0,0 0,0 0.1,0 v 0 c 0,0 0,0 0.1,0 v 0 c 0,0 0,0 0.1,0 v 0 c 0,0 0,0 0.1,0 v 0 c 0,0 0,0 0.1,0 v 0 0 0 0 0 c 0,0 0,0 0.1,0 v 0 c 0,0 0,0 0.1,0 v 0 c 0,0 0,0 0.1,0 v 0 0 0 0 0 c 0,0 0,0 0.1,0 v 0 c 0.1,0 0.1,0 0.1,-0.1 v 0 c 0.1,0 0.1,-0.1 0.1,-0.1 v 0 c 0.1,-0.1 0.2,-0.1 0.3,-0.1 z m 4,-3.7 c -0.5,0.8 -1.1,1.5 -1.8,2.1 l 3.7,4.1 c 0.9,-0.8 1.6,-1.6 2.3,-2.6 v 0 0 0 0 0 0 0 0 0 0 0 0 0 0 0 0 0 0 0 0 0 0 0 0 0 0 0 0 0 0 0 0 0 0 0 0 0 0 0 0 0 0 0 0 0 0 0 0 c 0.1,-0.1 0.2,-0.3 0.2,-0.4 z m 6.9,-5.4 h -5.5 v 0.7 c 0,0.8 -0.1,1.5 -0.3,2.2 l 5.3,1.4 c 0.1,-0.2 0.1,-0.3 0.1,-0.5 v 0 0 0 c 0,0 0,0 0,-0.1 v 0 0 0 0 0 c 0,0 0,0 0,-0.1 v 0 0 0 0 0 0 0 0 0 0 0 0 0 0 0 0 0 0 0 0 0 0 0 0 0 0 0 0 0 0 0 0 0 0 0 0 0 0 0 0 0 0 0 0 0 0 0 0 0 0 0 0 0 0 0 0 0 0 0 0 -0.1 0 0 0 -0.1 0 0 0 -0.1 0 0 0 -0.1 0 0 0 -0.1 0 c 0.1,-0.3 0.1,-0.6 0.1,-0.9 v 0 c 0,-0.1 0,-0.1 0,-0.1 v 0 0 0 -0.1 0 0 0 -0.1 0 0 0 -0.1 0 0 0 -0.1 0 0 0 0 0 c 0,0 0,0 0,-0.1 v 0 0 0 0 0 c 0,0 0,0 0,-0.1 v 0 0 0 0 0 c 0,0 0,0 0,-0.1 v 0 0 0 0 0 c 0,0 0,0 0,-0.1 v 0 0 0 0 0 c 0,0 0,0 0,-0.1 v 0 0 0 0 0 c 0,0 0,0 0,-0.1 v 0 0 0 0 0 0 0 0 0 0 0 0 0 0 0 0 0 0 0 0 0 0 0 0 0 0 0 0 0 0 0 0 0 0 0 0 0 0 0 0 0 0 0 0 0 0 0 0 0 0 0 0 0 0 0 0 0 0 0 0 0 0 0 0 0 0 0 0 0 0 0 0 0 0 0 0 0 0 0 0 0 0 0 0 0 0 0 0 0 0 0 0 0 0 -1.9 h 0.3 z m 0,-8.7 h -5.5 v 4.4 h 5.5 z m 0,-8.8 h -5.5 v 4.4 h 5.5 z m 0,-8.7 h -5.5 v 4.4 h 5.5 z m 0,-8.7 h -5.5 v 4.4 h 5.5 z m 0,-8.8 -5.5,0.3 c 0,0.2 0,0.4 0,0.6 v 3.4 h 5.5 v -3.4 0 0 0 0 0 0 0 0 0 0 0 0 0 0 0 0 0 0 0 0 0 0 0 0 0 0 0 0 0 0 0 0 0 c 0,0 0,0 0,-0.1 v 0 0 0 0 0 0 0 c 0,0 0,0 0,-0.1 v 0 0 0 c 0,-0.1 0,-0.2 0,-0.3 v 0 -0.1 0 0 0 0 0 c 0,0 0,0 0,-0.1 v 0 0 0 0 0 0 0 0 0 0 0 0 0 0 0 0 c 0,-0.1 0,-0.1 0,-0.2 z m -3.1,-8 -4.3,3.3 c 0.5,0.7 1,1.5 1.3,2.4 l 5.1,-1.9 c -0.1,-0.3 -0.2,-0.6 -0.4,-0.9 v 0 c 0,0 0,0 0,-0.1 v 0 c 0,0 0,0 0,-0.1 v 0 c 0,0 0,0 0,-0.1 v 0 0 0 0 0 0 0 0 0 0 0 0 0 0 0 0 0 0 0 0 0 0 0 0 0 0 0 0 0 0 0 0 0 0 0 0 0 0 0 0 0 0 0 0 0 0 0 0 0 0 0 0 0 0 0 0 0 0 0 0 c 0,0 0,0 0,-0.1 v 0 c 0,0 0,-0.1 -0.1,-0.1 v 0 c -0.6,-1 -1,-1.7 -1.6,-2.4 z m -7,-5 -1.7,5.2 c 0.9,0.3 1.7,0.7 2.5,1.3 l 3.2,-4.4 v 0 0 0 0 0 0 0 0 0 0 0 c -0.5,-0.4 -1.1,-0.7 -1.7,-1 v 0 c 0,0 -0.1,0 -0.1,-0.1 v 0 c 0,0 0,0 -0.1,0 v 0 c 0,0 0,0 -0.1,0 v 0 c 0,0 0,0 -0.1,0 v 0 c 0,0 0,0 -0.1,0 v 0 c 0,0 0,0 -0.1,0 v 0 0 0 0 0 0 0 0 0 0 0 0 0 0 0 0 0 0 0 0 0 0 0 0 0 0 0 0 0 0 0 0 0 0 0 0 0 0 0 0 0 0 0 0 0 0 0 0 0 0 0 0 0 0 0 0 0 0 0 0 0 0 0 0 0 0 0 0 0 0 0 0 0 0 0 0 c 0,0 0,0 -0.1,0 v 0 c 0,0 0,0 -0.1,0 v 0 c 0,0 0,0 -0.1,0 v 0 c 0,0 0,0 -0.1,0 v 0 c 0,0 0,0 -0.1,0 v 0 c -0.4,-0.7 -0.8,-0.9 -1.2,-1 z m -4.7,-0.8 v 5.5 c 0.1,0 0.2,0 0.3,0 l 0.2,-5.5 h -0.1 v 0 0 0 0 0 0 0 0 0 0 0 0 0 0 0 0 0 0 0 0 0 0 0 0 0 0 0 0 0 0 0 0 0 0 0 0 0 0 0 0 0 0 0 0 0 0 c -0.3,0 -0.3,0 -0.4,0 0.1,0 0.1,0 0,0 0.1,0 0.1,0 0,0 0.1,0 0.1,0 0,0 0.1,0 0.1,0 0,0 0.1,0 0.1,0 0,0 0.1,0 0.1,0 0,0 z"
           class="st11"
           inkscape:connector-curvature="0"
           style="fill:#a0bbe1" />
      </g>
    </g>
    <g
       id="g442"
       clip-path="url(#SVGID_2_)"
       class="st4">
      <g
         id="g432">
        <path
           id="path430"
           d="m 245.7,151.2 c 0,0 0,-0.1 0,-0.2 0,-0.1 0,-0.2 0,-0.5 0,-0.2 0,-0.5 0,-0.8 0,-0.3 0.1,-0.6 0.1,-1 0.2,-1.4 0.6,-3.3 1.5,-5.1 0.4,-0.9 1,-1.7 1.6,-2.5 0.7,-0.7 1.4,-1.4 2.1,-1.7 0.4,-0.2 0.8,-0.4 1.1,-0.5 0.2,-0.1 0.3,-0.1 0.5,-0.2 0.2,-0.1 0.3,-0.1 0.4,-0.1 0.3,-0.1 0.5,-0.1 0.6,-0.1 0.2,0 0.2,0 0.2,0 v 3.4 h -0.1 c -0.1,0 -0.2,0 -0.3,0 -0.1,0 -0.1,0 -0.2,0 -0.1,0 -0.2,0 -0.2,0.1 -0.2,0.1 -0.4,0.1 -0.6,0.2 -0.4,0.2 -1,0.5 -1.5,0.9 -0.5,0.4 -1,1 -1.5,1.7 -0.4,0.7 -0.8,1.4 -1.1,2.1 -0.2,0.4 -0.3,0.7 -0.4,1 -0.1,0.3 -0.2,0.7 -0.3,1 -0.1,0.3 -0.1,0.6 -0.2,0.8 -0.1,0.3 -0.1,0.4 -0.1,0.7 0,0.2 -0.1,0.3 -0.1,0.4 0,0.1 0,0.2 0,0.2 z"
           class="st12"
           inkscape:connector-curvature="0"
           style="fill:#59595b" />
      </g>
      <g
         id="g436">
        <path
           id="path434"
           d="m 245.2,137.6 c 2.1,2.5 1.4,7.3 1.4,7.3 0,0 -4.5,-0.5 -6.5,-3.1 -2.1,-2.5 -1.1,-6.7 -1.1,-6.7 0,0 4.2,0 6.2,2.5 z"
           class="st13"
           inkscape:connector-curvature="0"
           style="fill:#8bc97b" />
      </g>
      <g
         id="g440">
        <path
           id="path438"
           d="m 259.3,164.2 c -0.1,-0.5 -0.2,-0.9 -0.4,-1.3 -0.1,-0.2 -1.1,-1.8 -1.9,-2.8 -3.3,-4.8 -5.6,-10.4 -10.1,-11.1 -4.5,0.8 -6.8,6.3 -10.1,11.1 -0.8,1 -1.8,2.6 -1.9,2.8 -0.2,0.4 -0.3,0.8 -0.4,1.3 -0.2,0.7 -0.3,1.4 -0.3,2.1 0,4.2 2.9,7.7 6.8,8.6 1.1,0.4 2.2,0.5 3.2,0.4 1,-0.1 1.9,-0.2 2.6,-0.4 h 0.1 0.1 c 0.8,0.2 1.6,0.4 2.6,0.4 1,0.1 2.1,-0.1 3.2,-0.4 3.9,-0.9 6.8,-4.4 6.8,-8.6 0,-0.7 -0.1,-1.4 -0.3,-2.1 z"
           class="st13"
           inkscape:connector-curvature="0"
           style="fill:#8bc97b" />
      </g>
    </g>
    <g
       id="g446"
       clip-path="url(#SVGID_2_)"
       class="st14"
       style="opacity:0.2;enable-background:new">
      <path
         id="path444"
         d="m 177.5,155.2 c -8.1,0 -14.7,-6.6 -14.7,-14.7 V 97 c 0,-8.1 6.6,-14.7 14.7,-14.7 h 50.2 c 8.1,0 14.7,6.6 14.7,14.7 v 43.4 c 0,8.1 -6.6,14.7 -14.7,14.7 h -50.2 z"
         class="st15"
         inkscape:connector-curvature="0"
         style="fill:#010101" />
    </g>
    <path
       id="path448"
       clip-path="url(#SVGID_2_)"
       d="m 171.6,148.1 c -8.1,0 -14.7,-6.6 -14.7,-14.7 V 90 c 0,-8.1 6.6,-14.7 14.7,-14.7 h 50.2 c 8.1,0 14.7,6.6 14.7,14.7 v 43.4 c 0,8.1 -6.6,14.7 -14.7,14.7 z"
       class="st16"
       inkscape:connector-curvature="0"
       style="fill:#ffffff" />
    <path
       id="path450"
       clip-path="url(#SVGID_2_)"
       d="m 221.8,72.5 h -50.2 c -9.7,0 -17.5,7.9 -17.5,17.5 v 43.3 c 0,9.7 7.9,17.5 17.5,17.5 h 50.2 c 9.7,0 17.5,-7.8 17.5,-17.4 V 90 c 0,-9.7 -7.9,-17.5 -17.5,-17.5 z m 12,60.8 c 0,6.6 -5.4,12 -12,12 h -50.2 c -6.6,0 -12,-5.4 -12,-12 V 89.9 c 0,-6.6 5.4,-12 12,-12 l 50.2,0.1 c 6.6,0 12,5.4 12,12 z"
       class="st17"
       inkscape:connector-curvature="0"
       style="fill:#a0bbe1" />
    <g
       id="g468"
       clip-path="url(#SVGID_2_)"
       class="st4">
      <g
         id="g454">
        <path
           id="path452"
           d="m 208.4,101.8 c -2.7,-0.7 -6,-0.1 -9.1,1.4 -3.1,-1.6 -6.8,-2.2 -10,-1.6 -6.7,1.1 -11.3,5.7 -9.9,13.9 1.4,8.2 8.2,17.9 15,17.1 1.4,-0.2 2.7,-0.5 3.9,-1 1,0.4 2,0.7 3.1,0.9 6.7,1.3 13.3,-8.2 15.2,-16.3 1.9,-8.1 -1.6,-12.8 -8.2,-14.4 z"
           class="st18"
           inkscape:connector-curvature="0"
           style="fill:#e64f3e" />
      </g>
      <g
         id="g458">
        <ellipse
           id="ellipse456"
           ry="2.5"
           rx="4.5"
           cy="108"
           cx="198.10001"
           class="st19"
           style="fill:#c12e3c" />
      </g>
      <g
         id="g462">
        <path
           id="path460"
           d="m 196.8,108 c 0,0 0,-0.1 0,-0.2 0,-0.2 0,-0.3 0,-0.7 0,-0.3 0,-0.7 0,-1 0,-0.4 0.1,-0.8 0.1,-1.3 0.2,-1.9 0.8,-4.5 2,-6.9 0.6,-1.2 1.4,-2.3 2.2,-3.3 0.9,-1 1.9,-1.8 2.9,-2.4 0.5,-0.3 1,-0.5 1.5,-0.7 0.2,-0.1 0.4,-0.2 0.7,-0.2 0.2,-0.1 0.4,-0.1 0.6,-0.1 0.4,-0.1 0.7,-0.1 0.8,-0.1 0.2,0 0.3,0 0.3,0 v 4.7 h -0.1 c -0.1,0 -0.2,0 -0.4,0 -0.1,0 -0.2,0 -0.3,0 -0.1,0 -0.2,0 -0.3,0.1 -0.2,0.1 -0.5,0.1 -0.8,0.2 -0.6,0.2 -1.3,0.7 -2,1.3 -0.7,0.6 -1.4,1.4 -2,2.3 -0.6,0.9 -1.1,1.9 -1.5,2.8 -0.2,0.5 -0.4,1 -0.5,1.4 -0.2,0.4 -0.3,0.9 -0.4,1.3 -0.1,0.4 -0.2,0.8 -0.2,1.1 -0.1,0.3 -0.1,0.6 -0.1,0.9 -0.1,0.2 -0.1,0.4 -0.1,0.6 0,0.2 0,0.2 0,0.2 z"
           class="st12"
           inkscape:connector-curvature="0"
           style="fill:#59595b" />
      </g>
      <g
         id="g466">
        <path
           id="path464"
           d="m 195.5,89.4 c 3.2,3.1 2.8,9.7 2.8,9.7 0,0 -6.1,-0.1 -9.2,-3.2 -3.1,-3.1 -2.5,-8.8 -2.5,-8.8 0,0 5.7,-0.9 8.9,2.3 z"
           class="st13"
           inkscape:connector-curvature="0"
           style="fill:#8bc97b" />
      </g>
    </g>
  </g>
</svg>
