<?xml version="1.0" encoding="UTF-8" standalone="no"?>
<svg
   xmlns:dc="http://purl.org/dc/elements/1.1/"
   xmlns:cc="http://creativecommons.org/ns#"
   xmlns:rdf="http://www.w3.org/1999/02/22-rdf-syntax-ns#"
   xmlns:svg="http://www.w3.org/2000/svg"
   xmlns="http://www.w3.org/2000/svg"
   xmlns:sodipodi="http://sodipodi.sourceforge.net/DTD/sodipodi-0.dtd"
   xmlns:inkscape="http://www.inkscape.org/namespaces/inkscape"
   height="24px"
   width="24px"
   viewBox="0 0 100 100"
   enable-background="new 0 0 100 100"
   version="1.1"
   id="svg32"
   sodipodi:docname="icon.svg"
   inkscape:version="0.92.2 5c3e80d, 2017-08-06">
  <metadata
     id="metadata38">
    <rdf:RDF>
      <cc:Work
         rdf:about="">
        <dc:format>image/svg+xml</dc:format>
        <dc:type
           rdf:resource="http://purl.org/dc/dcmitype/StillImage" />
        <dc:title></dc:title>
      </cc:Work>
    </rdf:RDF>
  </metadata>
  <defs
     id="defs36">
    <style
       id="style1183">
      .cls-1 {
        isolation: isolate;
      }

      .cls-2 {
        fill: none;
      }

      .cls-3 {
        fill: #6bc9a7;
      }

      .cls-4 {
        opacity: 0.15;
        mix-blend-mode: multiply;
      }

      .cls-5 {
        fill: #fff;
      }

      .cls-6 {
        fill: #cde6fc;
      }

      .cls-7 {
        fill: #8db7e2;
      }

      .cls-8 {
        opacity: 0.2;
      }

      .cls-9 {
        fill: #231f20;
      }

      .cls-10 {
        fill: #ddd;
      }

      .cls-11 {
        fill: #239630;
      }
    </style>
    <style
       id="style1586">
      .cls-1 {
        fill: #ea964d;
      }

      .cls-2 {
        fill: #f0f1f5;
      }

      .cls-3 {
        fill: #b8b8bf;
      }

      .cls-4 {
        fill: #34495e;
      }

      .cls-5 {
        fill: #e94c3d;
      }

      .cls-6 {
        fill: #c1392b;
      }

      .cls-7 {
        fill: #3497da;
      }

      .cls-8 {
        fill: #2a80bb;
      }

      .cls-9 {
        fill: #2c3e50;
        opacity: 0.1;
      }

      .cls-10 {
        fill: #8e44ad;
      }

      .cls-11 {
        fill: none;
      }
    </style>
    <style
       id="style199">
      .cls-1 {
        isolation: isolate;
      }

      .cls-2 {
        opacity: 0.15;
        mix-blend-mode: multiply;
      }

      .cls-3 {
        fill: #91cade;
      }

      .cls-4 {
        fill: #f26262;
      }

      .cls-5 {
        fill: #8ac97a;
      }

      .cls-6 {
        fill: #589b42;
      }

      .cls-7 {
        fill: #e0e0e0;
      }

      .cls-8 {
        fill: #fff;
      }

      .cls-9 {
        fill: none;
      }
    </style>
    <style
       id="style509">
      .cls-1 {
        isolation: isolate;
      }

      .cls-2 {
        fill: #97baf6;
      }

      .cls-3 {
        fill: #34495e;
      }

      .cls-4 {
        fill: #ddd;
      }

      .cls-5 {
        fill: #2882d3;
      }

      .cls-6 {
        opacity: 0.15;
        mix-blend-mode: multiply;
      }

      .cls-7 {
        fill: #f1912b;
      }

      .cls-8 {
        fill: #fbc362;
      }

      .cls-9 {
        fill: none;
      }
    </style>
    <style
       id="style665">
      .cls-1 {
        isolation: isolate;
      }

      .cls-2 {
        fill: #97baf6;
      }

      .cls-3 {
        fill: #34495e;
      }

      .cls-4 {
        fill: #ddd;
      }

      .cls-5 {
        fill: #2882d3;
      }

      .cls-6 {
        opacity: 0.15;
        mix-blend-mode: multiply;
      }

      .cls-7 {
        fill: #f1912b;
      }

      .cls-8 {
        fill: #fbc362;
      }

      .cls-9 {
        fill: none;
      }
    </style>
  </defs>
  <sodipodi:namedview
     pagecolor="#ffffff"
     bordercolor="#666666"
     borderopacity="1"
     objecttolerance="10"
     gridtolerance="10"
     guidetolerance="10"
     inkscape:pageopacity="0"
     inkscape:pageshadow="2"
     inkscape:window-width="1440"
     inkscape:window-height="856"
     id="namedview34"
     showgrid="false"
     inkscape:zoom="25.276152"
     inkscape:cx="12.308547"
     inkscape:cy="18.149797"
     inkscape:window-x="5"
     inkscape:window-y="0"
     inkscape:window-maximized="0"
     inkscape:current-layer="svg32" />
  <g
     stroke-miterlimit="10"
     id="g22"
     style="display:none;stroke-miterlimit:10">
    <g
       id="g14"
       style="stroke-width:3;stroke-linecap:round;stroke-linejoin:round">
      <g
         id="g10"
         style="stroke:#999999"
         transform="translate(29.166667)">
        <g
           id="g6"
           style="fill:#ffffff">
          <path
             d="m 41.566667,28.1 h 18.4 l -23.3,-24.1 v 18.9 c 0,2.8 2.2,5.2 4.9,5.2 z"
             id="path2"
             inkscape:connector-curvature="0" />
          <path
             d="m 41.566667,28.1 c -2.7,0 -4.8,-2.3 -4.8,-5.2 V 4 H -8.5666667 c -2.7000003,0 -4.8000003,2.3 -4.8000003,5.2 v 83.2 c 0,2.9 2.1,5.2 4.8000003,5.2 H 55.066667 c 2.7,0 4.8,-2.3 4.8,-5.2 V 28.1 Z"
             id="path4"
             inkscape:connector-curvature="0"
             sodipodi:nodetypes="sscsssssscs" />
        </g>
      </g>
    </g>
  </g>
  <style
     id="style131"
     type="text/css">
	.st0{fill:#1D1D1D;}
	.st1{fill:#FFFFFF;}
</style>
  <style
     id="style900"
     type="text/css">
	.st0{fill:none;}
	.st1{fill:#88C87A;}
	.st2{opacity:0.15;}
	.st3{fill:#231F20;}
	.st4{fill:#FFFFFF;}
	.st5{fill:#F05F5F;}
</style>
  <style
     id="style248"
     type="text/css">
	.st0{opacity:0.15;}
	.st1{fill:#D94D6A;}
	.st2{fill:#92CAB1;}
	.st3{fill:#F6C358;}
	.st4{fill:#ED7864;}
	.st5{fill:#50B5D8;}
	.st6{fill:none;}
</style>
  <g
     id="g713"
     class="cls-1"
     style="display:inline;isolation:isolate"
     transform="matrix(0.40988822,0,0,0.40988822,-32.825021,0.45631416)">
    <g
       data-name="Layer 2"
       id="Layer_2-9">
      <g
         data-name="guess the answer"
         id="guess_the_answer">
        <g
           id="g707">
          <polygon
             id="polygon671"
             points="140.81,51.5 141.13,151.5 278,151.5 278,51.5 "
             class="cls-2"
             style="fill:#97baf6" />
          <polygon
             id="polygon673"
             points="139,153.5 139,132.82 171.09,100.98 187.12,116.9 199.74,104.35 238.1,65.89 270.91,98.97 279,107.35 279,153.5 "
             class="cls-3"
             style="fill:#34495e" />
          <circle
             id="circle675"
             r="14.58"
             cy="73.07"
             cx="163.09"
             class="cls-3"
             style="fill:#34495e" />
          <path
             id="path677"
             d="M 278.14,51.56 V 150.4 H 140.94 V 51.56 h 137.2 m 10.4,-10.4 h -158 v 144.68 h 158 z"
             class="cls-4"
             inkscape:connector-curvature="0"
             style="fill:#dddddd" />
          <rect
             id="rect679"
             ry="6.98"
             rx="6.98"
             height="18"
             width="65"
             y="160.5"
             x="178"
             class="cls-5"
             style="fill:#2882d3" />
          <g
             data-name="&lt;Group&gt;"
             id="_Group_">
            <g
               id="g685"
               class="cls-6"
               style="opacity:0.15;mix-blend-mode:multiply">
              <rect
                 id="rect681"
                 ry="7.48"
                 rx="7.48"
                 height="26.34"
                 width="60.150002"
                 y="118.21"
                 x="112.98" />
              <path
                 id="path683"
                 d="m 141.92,159.88 a 56.19,56.19 0 0 1 -9.83,-0.84 40.26,40.26 0 0 1 -20.26,10.66 c -1.26,0.24 -2.61,0.47 -4,0.6 a 1.52,1.52 0 0 1 -1.63,-1.11 c -0.19,-0.75 0.37,-1.21 0.93,-1.73 2.93,-2.75 6.43,-4.94 7.64,-14.77 -8.9,-5.45 -14.58,-13.56 -14.58,-22.64 0,-16.49 18.68,-29.82 41.74,-29.82 23.06,0 41.74,13.33 41.74,29.82 0,16.49 -18.67,29.83 -41.75,29.83 z M 124,124.1 a 6,6 0 1 0 6,6 5.95,5.95 0 0 0 -6,-6 z m 17.89,0 a 6,6 0 1 0 6,6 5.95,5.95 0 0 0 -5.97,-6 z m 17.89,0 a 6,6 0 1 0 6,6 5.95,5.95 0 0 0 -5.97,-6 z"
                 inkscape:connector-curvature="0" />
            </g>
            <g
               id="g691">
              <rect
                 id="rect687"
                 ry="7.48"
                 rx="7.48"
                 height="26.34"
                 width="60.150002"
                 y="115.94"
                 x="110.7"
                 class="cls-7"
                 style="fill:#f1912b" />
              <path
                 id="path689"
                 d="m 139.64,157.61 a 56.19,56.19 0 0 1 -9.83,-0.84 40.26,40.26 0 0 1 -20.26,10.66 c -1.26,0.24 -2.61,0.47 -4,0.6 a 1.52,1.52 0 0 1 -1.63,-1.11 c -0.19,-0.75 0.37,-1.21 0.93,-1.73 2.93,-2.75 6.43,-4.94 7.64,-14.77 -8.9,-5.45 -14.58,-13.56 -14.58,-22.64 C 97.9,111.3 116.58,98 139.64,98 c 23.06,0 41.74,13.33 41.74,29.82 0,16.49 -18.68,29.79 -41.74,29.79 z m -17.89,-35.78 a 6,6 0 1 0 6,6 5.95,5.95 0 0 0 -6,-6 z m 17.89,0 a 6,6 0 1 0 6,6 5.95,5.95 0 0 0 -6,-6 z m 17.89,0 a 6,6 0 1 0 6,6 5.95,5.95 0 0 0 -6,-6 z"
                 class="cls-8"
                 inkscape:connector-curvature="0"
                 style="fill:#fbc362" />
            </g>
          </g>
          <g
             data-name="&lt;Group&gt;"
             id="_Group_2">
            <g
               id="g698"
               class="cls-6"
               style="opacity:0.15;mix-blend-mode:multiply">
              <rect
                 id="rect694"
                 ry="7.48"
                 rx="7.48"
                 height="22.43"
                 width="48.119999"
                 y="118.86"
                 x="254.08" />
              <path
                 id="path696"
                 d="m 243.83,130.22 c 0,-13.09 14.83,-23.67 33.14,-23.67 18.31,0 33.14,10.58 33.14,23.67 0,7.21 -4.51,13.65 -11.58,18 1,7.8 3.74,9.54 6.07,11.72 0.44,0.41 0.89,0.78 0.74,1.37 a 1.21,1.21 0 0 1 -1.29,0.88 c -1.11,-0.11 -2.18,-0.29 -3.18,-0.48 a 32,32 0 0 1 -16.09,-8.47 44.6,44.6 0 0 1 -7.8,0.66 c -18.32,-0.01 -33.15,-10.59 -33.15,-23.68 z m 42.61,0 a 4.73,4.73 0 1 0 4.73,-4.73 4.72,4.72 0 0 0 -4.74,4.73 z m -14.2,0 a 4.73,4.73 0 1 0 4.73,-4.73 4.72,4.72 0 0 0 -4.74,4.73 z m -14.2,0 a 4.73,4.73 0 1 0 4.73,-4.73 4.72,4.72 0 0 0 -4.77,4.73 z"
                 inkscape:connector-curvature="0" />
            </g>
            <g
               id="g704">
              <rect
                 id="rect700"
                 ry="7.48"
                 rx="7.48"
                 height="22.43"
                 width="48.119999"
                 y="116.59"
                 x="251.81"
                 class="cls-8"
                 style="fill:#fbc362" />
              <path
                 id="path702"
                 d="m 241.55,127.94 c 0,-13.09 14.83,-23.67 33.14,-23.67 18.31,0 33.14,10.58 33.14,23.67 0,7.21 -4.51,13.65 -11.58,18 1,7.8 3.74,9.54 6.07,11.72 0.44,0.41 0.89,0.78 0.74,1.37 a 1.21,1.21 0 0 1 -1.29,0.88 c -1.11,-0.11 -2.18,-0.29 -3.18,-0.48 a 32,32 0 0 1 -16.09,-8.47 44.6,44.6 0 0 1 -7.8,0.66 C 256.38,151.61 241.55,141 241.55,127.94 Z m 42.61,0 a 4.73,4.73 0 1 0 4.73,-4.73 4.72,4.72 0 0 0 -4.73,4.73 z m -14.2,0 a 4.73,4.73 0 1 0 4.73,-4.73 4.72,4.72 0 0 0 -4.69,4.73 z m -14.2,0 a 4.73,4.73 0 1 0 4.73,-4.73 4.72,4.72 0 0 0 -4.74,4.73 z"
                 class="cls-7"
                 inkscape:connector-curvature="0"
                 style="fill:#f1912b" />
            </g>
          </g>
        </g>
        <rect
           id="rect709"
           height="225"
           width="400"
           class="cls-9"
           x="0"
           y="0"
           style="fill:none" />
      </g>
    </g>
  </g>
</svg>
