<?xml version="1.0" encoding="utf-8"?>
<!-- Generator: Adobe Illustrator 15.0.0, SVG Export Plug-In . SVG Version: 6.00 Build 0)  -->
<!DOCTYPE svg PUBLIC "-//W3C//DTD SVG 1.1//EN" "http://www.w3.org/Graphics/SVG/1.1/DTD/svg11.dtd">
<svg version="1.1" id="Layer_1" xmlns="http://www.w3.org/2000/svg" xmlns:xlink="http://www.w3.org/1999/xlink" x="0px" y="0px"
	 width="24px" height="24px" viewBox="0 0 24 24" enable-background="new 0 0 24 24" xml:space="preserve">
<g>
	<g>
		<g>
			<path fill="#FFFFFF" stroke="#999999" stroke-linecap="round" stroke-linejoin="round" stroke-miterlimit="10" d="M22.152,0.528
				c0.815,0,1.439,0.624,1.439,1.368v20.112c0,0.768-0.648,1.368-1.439,1.368H7.896c-0.792,0-1.44-0.624-1.44-1.368V1.896
				c0-0.768,0.648-1.368,1.44-1.368H22.152z"/>
			<path fill="#FFFFFF" stroke="#999999" stroke-linecap="round" stroke-linejoin="round" stroke-miterlimit="10" d="M10.584,8.28
				h6.023"/>
			<path fill="#FFFFFF" stroke="#999999" stroke-linecap="round" stroke-linejoin="round" stroke-miterlimit="10" d="M10.584,11.928
				h6.023"/>
			<path fill="#FFFFFF" stroke="#999999" stroke-linecap="round" stroke-linejoin="round" stroke-miterlimit="10" d="M10.584,15.84
				h6.023"/>
		</g>
		<g>
			<circle fill="#999999" stroke="#999999" stroke-miterlimit="10" cx="19.632" cy="15.84" r="0.648"/>
			<circle fill="#999999" stroke="#999999" stroke-miterlimit="10" cx="19.632" cy="11.856" r="0.648"/>
			<circle fill="#999999" stroke="#999999" stroke-miterlimit="10" cx="19.632" cy="8.16" r="0.648"/>
		</g>
	</g>
	<g>
		
			<circle fill="#FF9800" stroke="#FF9800" stroke-linecap="round" stroke-linejoin="round" stroke-miterlimit="10" cx="6.336" cy="12" r="5.76"/>
		<path fill="none" stroke="#FFFFFF" stroke-linecap="round" stroke-linejoin="round" stroke-miterlimit="10" d="M2.976,12.048
			l2.688,2.64 M5.664,14.688L9.336,9.84"/>
	</g>
</g>
</svg>
